%TF.GenerationSoftware,KiCad,Pcbnew,7.0.11+dfsg-1build4*%
%TF.CreationDate,2024-07-19T16:51:39+02:00*%
%TF.ProjectId,antmicro-poe-to-usbc-pd-adapter,616e746d-6963-4726-9f2d-706f652d746f,rev?*%
%TF.SameCoordinates,Original*%
%TF.FileFunction,Drillmap*%
%TF.FilePolarity,Positive*%
%FSLAX45Y45*%
G04 Gerber Fmt 4.5, Leading zero omitted, Abs format (unit mm)*
G04 Created by KiCad (PCBNEW 7.0.11+dfsg-1build4) date 2024-07-19 16:51:39 commit  9a9195e *
%MOMM*%
%LPD*%
G01*
G04 APERTURE LIST*
%ADD10C,0.050000*%
%ADD11C,0.200000*%
%ADD12C,0.100000*%
%ADD13C,0.325000*%
G04 APERTURE END LIST*
D10*
X12850000Y-12400000D02*
X24090000Y-12400000D01*
X24090000Y-18000000D01*
X12850000Y-18000000D01*
X12850000Y-12400000D01*
D11*
D12*
X23339400Y-15286400D02*
X23404400Y-15351400D01*
X23404400Y-15286400D02*
X23339400Y-15351400D01*
X23339400Y-15864500D02*
X23404400Y-15929500D01*
X23404400Y-15864500D02*
X23339400Y-15929500D01*
D13*
X14115900Y-13390300D02*
G75*
G03*
X13790900Y-13390300I-162500J0D01*
G01*
X13790900Y-13390300D02*
G75*
G03*
X14115900Y-13390300I162500J0D01*
G01*
X14115900Y-14533200D02*
G75*
G03*
X13790900Y-14533200I-162500J0D01*
G01*
X13790900Y-14533200D02*
G75*
G03*
X14115900Y-14533200I162500J0D01*
G01*
X23034500Y-13497500D02*
G75*
G03*
X22709500Y-13497500I-162500J0D01*
G01*
X22709500Y-13497500D02*
G75*
G03*
X23034500Y-13497500I162500J0D01*
G01*
X23034500Y-14640500D02*
G75*
G03*
X22709500Y-14640500I-162500J0D01*
G01*
X22709500Y-14640500D02*
G75*
G03*
X23034500Y-14640500I162500J0D01*
G01*
D11*
X13108277Y-18313984D02*
X13108277Y-18113984D01*
X13108277Y-18113984D02*
X13155896Y-18113984D01*
X13155896Y-18113984D02*
X13184467Y-18123508D01*
X13184467Y-18123508D02*
X13203515Y-18142555D01*
X13203515Y-18142555D02*
X13213039Y-18161603D01*
X13213039Y-18161603D02*
X13222562Y-18199698D01*
X13222562Y-18199698D02*
X13222562Y-18228270D01*
X13222562Y-18228270D02*
X13213039Y-18266365D01*
X13213039Y-18266365D02*
X13203515Y-18285412D01*
X13203515Y-18285412D02*
X13184467Y-18304460D01*
X13184467Y-18304460D02*
X13155896Y-18313984D01*
X13155896Y-18313984D02*
X13108277Y-18313984D01*
X13308277Y-18313984D02*
X13308277Y-18180650D01*
X13308277Y-18218746D02*
X13317801Y-18199698D01*
X13317801Y-18199698D02*
X13327324Y-18190174D01*
X13327324Y-18190174D02*
X13346372Y-18180650D01*
X13346372Y-18180650D02*
X13365420Y-18180650D01*
X13432086Y-18313984D02*
X13432086Y-18180650D01*
X13432086Y-18113984D02*
X13422562Y-18123508D01*
X13422562Y-18123508D02*
X13432086Y-18133031D01*
X13432086Y-18133031D02*
X13441610Y-18123508D01*
X13441610Y-18123508D02*
X13432086Y-18113984D01*
X13432086Y-18113984D02*
X13432086Y-18133031D01*
X13555896Y-18313984D02*
X13536848Y-18304460D01*
X13536848Y-18304460D02*
X13527324Y-18285412D01*
X13527324Y-18285412D02*
X13527324Y-18113984D01*
X13660658Y-18313984D02*
X13641610Y-18304460D01*
X13641610Y-18304460D02*
X13632086Y-18285412D01*
X13632086Y-18285412D02*
X13632086Y-18113984D01*
X13889229Y-18313984D02*
X13889229Y-18113984D01*
X13889229Y-18113984D02*
X13955896Y-18256841D01*
X13955896Y-18256841D02*
X14022562Y-18113984D01*
X14022562Y-18113984D02*
X14022562Y-18313984D01*
X14203515Y-18313984D02*
X14203515Y-18209222D01*
X14203515Y-18209222D02*
X14193991Y-18190174D01*
X14193991Y-18190174D02*
X14174943Y-18180650D01*
X14174943Y-18180650D02*
X14136848Y-18180650D01*
X14136848Y-18180650D02*
X14117801Y-18190174D01*
X14203515Y-18304460D02*
X14184467Y-18313984D01*
X14184467Y-18313984D02*
X14136848Y-18313984D01*
X14136848Y-18313984D02*
X14117801Y-18304460D01*
X14117801Y-18304460D02*
X14108277Y-18285412D01*
X14108277Y-18285412D02*
X14108277Y-18266365D01*
X14108277Y-18266365D02*
X14117801Y-18247317D01*
X14117801Y-18247317D02*
X14136848Y-18237793D01*
X14136848Y-18237793D02*
X14184467Y-18237793D01*
X14184467Y-18237793D02*
X14203515Y-18228270D01*
X14298753Y-18180650D02*
X14298753Y-18380650D01*
X14298753Y-18190174D02*
X14317801Y-18180650D01*
X14317801Y-18180650D02*
X14355896Y-18180650D01*
X14355896Y-18180650D02*
X14374943Y-18190174D01*
X14374943Y-18190174D02*
X14384467Y-18199698D01*
X14384467Y-18199698D02*
X14393991Y-18218746D01*
X14393991Y-18218746D02*
X14393991Y-18275889D01*
X14393991Y-18275889D02*
X14384467Y-18294936D01*
X14384467Y-18294936D02*
X14374943Y-18304460D01*
X14374943Y-18304460D02*
X14355896Y-18313984D01*
X14355896Y-18313984D02*
X14317801Y-18313984D01*
X14317801Y-18313984D02*
X14298753Y-18304460D01*
X14479705Y-18294936D02*
X14489229Y-18304460D01*
X14489229Y-18304460D02*
X14479705Y-18313984D01*
X14479705Y-18313984D02*
X14470182Y-18304460D01*
X14470182Y-18304460D02*
X14479705Y-18294936D01*
X14479705Y-18294936D02*
X14479705Y-18313984D01*
X14479705Y-18190174D02*
X14489229Y-18199698D01*
X14489229Y-18199698D02*
X14479705Y-18209222D01*
X14479705Y-18209222D02*
X14470182Y-18199698D01*
X14470182Y-18199698D02*
X14479705Y-18190174D01*
X14479705Y-18190174D02*
X14479705Y-18209222D01*
D12*
X12782500Y-18610000D02*
X12847500Y-18675000D01*
X12847500Y-18610000D02*
X12782500Y-18675000D01*
D11*
X13146372Y-18533984D02*
X13165420Y-18533984D01*
X13165420Y-18533984D02*
X13184467Y-18543508D01*
X13184467Y-18543508D02*
X13193991Y-18553031D01*
X13193991Y-18553031D02*
X13203515Y-18572079D01*
X13203515Y-18572079D02*
X13213039Y-18610174D01*
X13213039Y-18610174D02*
X13213039Y-18657793D01*
X13213039Y-18657793D02*
X13203515Y-18695889D01*
X13203515Y-18695889D02*
X13193991Y-18714936D01*
X13193991Y-18714936D02*
X13184467Y-18724460D01*
X13184467Y-18724460D02*
X13165420Y-18733984D01*
X13165420Y-18733984D02*
X13146372Y-18733984D01*
X13146372Y-18733984D02*
X13127324Y-18724460D01*
X13127324Y-18724460D02*
X13117801Y-18714936D01*
X13117801Y-18714936D02*
X13108277Y-18695889D01*
X13108277Y-18695889D02*
X13098753Y-18657793D01*
X13098753Y-18657793D02*
X13098753Y-18610174D01*
X13098753Y-18610174D02*
X13108277Y-18572079D01*
X13108277Y-18572079D02*
X13117801Y-18553031D01*
X13117801Y-18553031D02*
X13127324Y-18543508D01*
X13127324Y-18543508D02*
X13146372Y-18533984D01*
X13298753Y-18714936D02*
X13308277Y-18724460D01*
X13308277Y-18724460D02*
X13298753Y-18733984D01*
X13298753Y-18733984D02*
X13289229Y-18724460D01*
X13289229Y-18724460D02*
X13298753Y-18714936D01*
X13298753Y-18714936D02*
X13298753Y-18733984D01*
X13479705Y-18533984D02*
X13441610Y-18533984D01*
X13441610Y-18533984D02*
X13422562Y-18543508D01*
X13422562Y-18543508D02*
X13413039Y-18553031D01*
X13413039Y-18553031D02*
X13393991Y-18581603D01*
X13393991Y-18581603D02*
X13384467Y-18619698D01*
X13384467Y-18619698D02*
X13384467Y-18695889D01*
X13384467Y-18695889D02*
X13393991Y-18714936D01*
X13393991Y-18714936D02*
X13403515Y-18724460D01*
X13403515Y-18724460D02*
X13422562Y-18733984D01*
X13422562Y-18733984D02*
X13460658Y-18733984D01*
X13460658Y-18733984D02*
X13479705Y-18724460D01*
X13479705Y-18724460D02*
X13489229Y-18714936D01*
X13489229Y-18714936D02*
X13498753Y-18695889D01*
X13498753Y-18695889D02*
X13498753Y-18648270D01*
X13498753Y-18648270D02*
X13489229Y-18629222D01*
X13489229Y-18629222D02*
X13479705Y-18619698D01*
X13479705Y-18619698D02*
X13460658Y-18610174D01*
X13460658Y-18610174D02*
X13422562Y-18610174D01*
X13422562Y-18610174D02*
X13403515Y-18619698D01*
X13403515Y-18619698D02*
X13393991Y-18629222D01*
X13393991Y-18629222D02*
X13384467Y-18648270D01*
X13679705Y-18533984D02*
X13584467Y-18533984D01*
X13584467Y-18533984D02*
X13574943Y-18629222D01*
X13574943Y-18629222D02*
X13584467Y-18619698D01*
X13584467Y-18619698D02*
X13603515Y-18610174D01*
X13603515Y-18610174D02*
X13651134Y-18610174D01*
X13651134Y-18610174D02*
X13670182Y-18619698D01*
X13670182Y-18619698D02*
X13679705Y-18629222D01*
X13679705Y-18629222D02*
X13689229Y-18648270D01*
X13689229Y-18648270D02*
X13689229Y-18695889D01*
X13689229Y-18695889D02*
X13679705Y-18714936D01*
X13679705Y-18714936D02*
X13670182Y-18724460D01*
X13670182Y-18724460D02*
X13651134Y-18733984D01*
X13651134Y-18733984D02*
X13603515Y-18733984D01*
X13603515Y-18733984D02*
X13584467Y-18724460D01*
X13584467Y-18724460D02*
X13574943Y-18714936D01*
X13813039Y-18533984D02*
X13832086Y-18533984D01*
X13832086Y-18533984D02*
X13851134Y-18543508D01*
X13851134Y-18543508D02*
X13860658Y-18553031D01*
X13860658Y-18553031D02*
X13870182Y-18572079D01*
X13870182Y-18572079D02*
X13879705Y-18610174D01*
X13879705Y-18610174D02*
X13879705Y-18657793D01*
X13879705Y-18657793D02*
X13870182Y-18695889D01*
X13870182Y-18695889D02*
X13860658Y-18714936D01*
X13860658Y-18714936D02*
X13851134Y-18724460D01*
X13851134Y-18724460D02*
X13832086Y-18733984D01*
X13832086Y-18733984D02*
X13813039Y-18733984D01*
X13813039Y-18733984D02*
X13793991Y-18724460D01*
X13793991Y-18724460D02*
X13784467Y-18714936D01*
X13784467Y-18714936D02*
X13774943Y-18695889D01*
X13774943Y-18695889D02*
X13765420Y-18657793D01*
X13765420Y-18657793D02*
X13765420Y-18610174D01*
X13765420Y-18610174D02*
X13774943Y-18572079D01*
X13774943Y-18572079D02*
X13784467Y-18553031D01*
X13784467Y-18553031D02*
X13793991Y-18543508D01*
X13793991Y-18543508D02*
X13813039Y-18533984D01*
X13965420Y-18733984D02*
X13965420Y-18600650D01*
X13965420Y-18619698D02*
X13974943Y-18610174D01*
X13974943Y-18610174D02*
X13993991Y-18600650D01*
X13993991Y-18600650D02*
X14022563Y-18600650D01*
X14022563Y-18600650D02*
X14041610Y-18610174D01*
X14041610Y-18610174D02*
X14051134Y-18629222D01*
X14051134Y-18629222D02*
X14051134Y-18733984D01*
X14051134Y-18629222D02*
X14060658Y-18610174D01*
X14060658Y-18610174D02*
X14079705Y-18600650D01*
X14079705Y-18600650D02*
X14108277Y-18600650D01*
X14108277Y-18600650D02*
X14127324Y-18610174D01*
X14127324Y-18610174D02*
X14136848Y-18629222D01*
X14136848Y-18629222D02*
X14136848Y-18733984D01*
X14232086Y-18733984D02*
X14232086Y-18600650D01*
X14232086Y-18619698D02*
X14241610Y-18610174D01*
X14241610Y-18610174D02*
X14260658Y-18600650D01*
X14260658Y-18600650D02*
X14289229Y-18600650D01*
X14289229Y-18600650D02*
X14308277Y-18610174D01*
X14308277Y-18610174D02*
X14317801Y-18629222D01*
X14317801Y-18629222D02*
X14317801Y-18733984D01*
X14317801Y-18629222D02*
X14327324Y-18610174D01*
X14327324Y-18610174D02*
X14346372Y-18600650D01*
X14346372Y-18600650D02*
X14374943Y-18600650D01*
X14374943Y-18600650D02*
X14393991Y-18610174D01*
X14393991Y-18610174D02*
X14403515Y-18629222D01*
X14403515Y-18629222D02*
X14403515Y-18733984D01*
X14793991Y-18524460D02*
X14622563Y-18781603D01*
X15051134Y-18533984D02*
X15070182Y-18533984D01*
X15070182Y-18533984D02*
X15089229Y-18543508D01*
X15089229Y-18543508D02*
X15098753Y-18553031D01*
X15098753Y-18553031D02*
X15108277Y-18572079D01*
X15108277Y-18572079D02*
X15117801Y-18610174D01*
X15117801Y-18610174D02*
X15117801Y-18657793D01*
X15117801Y-18657793D02*
X15108277Y-18695889D01*
X15108277Y-18695889D02*
X15098753Y-18714936D01*
X15098753Y-18714936D02*
X15089229Y-18724460D01*
X15089229Y-18724460D02*
X15070182Y-18733984D01*
X15070182Y-18733984D02*
X15051134Y-18733984D01*
X15051134Y-18733984D02*
X15032086Y-18724460D01*
X15032086Y-18724460D02*
X15022563Y-18714936D01*
X15022563Y-18714936D02*
X15013039Y-18695889D01*
X15013039Y-18695889D02*
X15003515Y-18657793D01*
X15003515Y-18657793D02*
X15003515Y-18610174D01*
X15003515Y-18610174D02*
X15013039Y-18572079D01*
X15013039Y-18572079D02*
X15022563Y-18553031D01*
X15022563Y-18553031D02*
X15032086Y-18543508D01*
X15032086Y-18543508D02*
X15051134Y-18533984D01*
X15203515Y-18714936D02*
X15213039Y-18724460D01*
X15213039Y-18724460D02*
X15203515Y-18733984D01*
X15203515Y-18733984D02*
X15193991Y-18724460D01*
X15193991Y-18724460D02*
X15203515Y-18714936D01*
X15203515Y-18714936D02*
X15203515Y-18733984D01*
X15336848Y-18533984D02*
X15355896Y-18533984D01*
X15355896Y-18533984D02*
X15374944Y-18543508D01*
X15374944Y-18543508D02*
X15384467Y-18553031D01*
X15384467Y-18553031D02*
X15393991Y-18572079D01*
X15393991Y-18572079D02*
X15403515Y-18610174D01*
X15403515Y-18610174D02*
X15403515Y-18657793D01*
X15403515Y-18657793D02*
X15393991Y-18695889D01*
X15393991Y-18695889D02*
X15384467Y-18714936D01*
X15384467Y-18714936D02*
X15374944Y-18724460D01*
X15374944Y-18724460D02*
X15355896Y-18733984D01*
X15355896Y-18733984D02*
X15336848Y-18733984D01*
X15336848Y-18733984D02*
X15317801Y-18724460D01*
X15317801Y-18724460D02*
X15308277Y-18714936D01*
X15308277Y-18714936D02*
X15298753Y-18695889D01*
X15298753Y-18695889D02*
X15289229Y-18657793D01*
X15289229Y-18657793D02*
X15289229Y-18610174D01*
X15289229Y-18610174D02*
X15298753Y-18572079D01*
X15298753Y-18572079D02*
X15308277Y-18553031D01*
X15308277Y-18553031D02*
X15317801Y-18543508D01*
X15317801Y-18543508D02*
X15336848Y-18533984D01*
X15479706Y-18553031D02*
X15489229Y-18543508D01*
X15489229Y-18543508D02*
X15508277Y-18533984D01*
X15508277Y-18533984D02*
X15555896Y-18533984D01*
X15555896Y-18533984D02*
X15574944Y-18543508D01*
X15574944Y-18543508D02*
X15584467Y-18553031D01*
X15584467Y-18553031D02*
X15593991Y-18572079D01*
X15593991Y-18572079D02*
X15593991Y-18591127D01*
X15593991Y-18591127D02*
X15584467Y-18619698D01*
X15584467Y-18619698D02*
X15470182Y-18733984D01*
X15470182Y-18733984D02*
X15593991Y-18733984D01*
X15774944Y-18533984D02*
X15679706Y-18533984D01*
X15679706Y-18533984D02*
X15670182Y-18629222D01*
X15670182Y-18629222D02*
X15679706Y-18619698D01*
X15679706Y-18619698D02*
X15698753Y-18610174D01*
X15698753Y-18610174D02*
X15746372Y-18610174D01*
X15746372Y-18610174D02*
X15765420Y-18619698D01*
X15765420Y-18619698D02*
X15774944Y-18629222D01*
X15774944Y-18629222D02*
X15784467Y-18648270D01*
X15784467Y-18648270D02*
X15784467Y-18695889D01*
X15784467Y-18695889D02*
X15774944Y-18714936D01*
X15774944Y-18714936D02*
X15765420Y-18724460D01*
X15765420Y-18724460D02*
X15746372Y-18733984D01*
X15746372Y-18733984D02*
X15698753Y-18733984D01*
X15698753Y-18733984D02*
X15679706Y-18724460D01*
X15679706Y-18724460D02*
X15670182Y-18714936D01*
X15955896Y-18533984D02*
X15917801Y-18533984D01*
X15917801Y-18533984D02*
X15898753Y-18543508D01*
X15898753Y-18543508D02*
X15889229Y-18553031D01*
X15889229Y-18553031D02*
X15870182Y-18581603D01*
X15870182Y-18581603D02*
X15860658Y-18619698D01*
X15860658Y-18619698D02*
X15860658Y-18695889D01*
X15860658Y-18695889D02*
X15870182Y-18714936D01*
X15870182Y-18714936D02*
X15879706Y-18724460D01*
X15879706Y-18724460D02*
X15898753Y-18733984D01*
X15898753Y-18733984D02*
X15936848Y-18733984D01*
X15936848Y-18733984D02*
X15955896Y-18724460D01*
X15955896Y-18724460D02*
X15965420Y-18714936D01*
X15965420Y-18714936D02*
X15974944Y-18695889D01*
X15974944Y-18695889D02*
X15974944Y-18648270D01*
X15974944Y-18648270D02*
X15965420Y-18629222D01*
X15965420Y-18629222D02*
X15955896Y-18619698D01*
X15955896Y-18619698D02*
X15936848Y-18610174D01*
X15936848Y-18610174D02*
X15898753Y-18610174D01*
X15898753Y-18610174D02*
X15879706Y-18619698D01*
X15879706Y-18619698D02*
X15870182Y-18629222D01*
X15870182Y-18629222D02*
X15860658Y-18648270D01*
X16051134Y-18533984D02*
X16051134Y-18572079D01*
X16127325Y-18533984D02*
X16127325Y-18572079D01*
X16422563Y-18810174D02*
X16413039Y-18800650D01*
X16413039Y-18800650D02*
X16393991Y-18772079D01*
X16393991Y-18772079D02*
X16384468Y-18753031D01*
X16384468Y-18753031D02*
X16374944Y-18724460D01*
X16374944Y-18724460D02*
X16365420Y-18676841D01*
X16365420Y-18676841D02*
X16365420Y-18638746D01*
X16365420Y-18638746D02*
X16374944Y-18591127D01*
X16374944Y-18591127D02*
X16384468Y-18562555D01*
X16384468Y-18562555D02*
X16393991Y-18543508D01*
X16393991Y-18543508D02*
X16413039Y-18514936D01*
X16413039Y-18514936D02*
X16422563Y-18505412D01*
X16489229Y-18553031D02*
X16498753Y-18543508D01*
X16498753Y-18543508D02*
X16517801Y-18533984D01*
X16517801Y-18533984D02*
X16565420Y-18533984D01*
X16565420Y-18533984D02*
X16584468Y-18543508D01*
X16584468Y-18543508D02*
X16593991Y-18553031D01*
X16593991Y-18553031D02*
X16603515Y-18572079D01*
X16603515Y-18572079D02*
X16603515Y-18591127D01*
X16603515Y-18591127D02*
X16593991Y-18619698D01*
X16593991Y-18619698D02*
X16479706Y-18733984D01*
X16479706Y-18733984D02*
X16603515Y-18733984D01*
X16841611Y-18733984D02*
X16841611Y-18533984D01*
X16927325Y-18733984D02*
X16927325Y-18629222D01*
X16927325Y-18629222D02*
X16917801Y-18610174D01*
X16917801Y-18610174D02*
X16898753Y-18600650D01*
X16898753Y-18600650D02*
X16870182Y-18600650D01*
X16870182Y-18600650D02*
X16851134Y-18610174D01*
X16851134Y-18610174D02*
X16841611Y-18619698D01*
X17051134Y-18733984D02*
X17032087Y-18724460D01*
X17032087Y-18724460D02*
X17022563Y-18714936D01*
X17022563Y-18714936D02*
X17013039Y-18695889D01*
X17013039Y-18695889D02*
X17013039Y-18638746D01*
X17013039Y-18638746D02*
X17022563Y-18619698D01*
X17022563Y-18619698D02*
X17032087Y-18610174D01*
X17032087Y-18610174D02*
X17051134Y-18600650D01*
X17051134Y-18600650D02*
X17079706Y-18600650D01*
X17079706Y-18600650D02*
X17098753Y-18610174D01*
X17098753Y-18610174D02*
X17108277Y-18619698D01*
X17108277Y-18619698D02*
X17117801Y-18638746D01*
X17117801Y-18638746D02*
X17117801Y-18695889D01*
X17117801Y-18695889D02*
X17108277Y-18714936D01*
X17108277Y-18714936D02*
X17098753Y-18724460D01*
X17098753Y-18724460D02*
X17079706Y-18733984D01*
X17079706Y-18733984D02*
X17051134Y-18733984D01*
X17232087Y-18733984D02*
X17213039Y-18724460D01*
X17213039Y-18724460D02*
X17203515Y-18705412D01*
X17203515Y-18705412D02*
X17203515Y-18533984D01*
X17384468Y-18724460D02*
X17365420Y-18733984D01*
X17365420Y-18733984D02*
X17327325Y-18733984D01*
X17327325Y-18733984D02*
X17308277Y-18724460D01*
X17308277Y-18724460D02*
X17298753Y-18705412D01*
X17298753Y-18705412D02*
X17298753Y-18629222D01*
X17298753Y-18629222D02*
X17308277Y-18610174D01*
X17308277Y-18610174D02*
X17327325Y-18600650D01*
X17327325Y-18600650D02*
X17365420Y-18600650D01*
X17365420Y-18600650D02*
X17384468Y-18610174D01*
X17384468Y-18610174D02*
X17393992Y-18629222D01*
X17393992Y-18629222D02*
X17393992Y-18648270D01*
X17393992Y-18648270D02*
X17298753Y-18667317D01*
X17470182Y-18724460D02*
X17489230Y-18733984D01*
X17489230Y-18733984D02*
X17527325Y-18733984D01*
X17527325Y-18733984D02*
X17546373Y-18724460D01*
X17546373Y-18724460D02*
X17555896Y-18705412D01*
X17555896Y-18705412D02*
X17555896Y-18695889D01*
X17555896Y-18695889D02*
X17546373Y-18676841D01*
X17546373Y-18676841D02*
X17527325Y-18667317D01*
X17527325Y-18667317D02*
X17498753Y-18667317D01*
X17498753Y-18667317D02*
X17479706Y-18657793D01*
X17479706Y-18657793D02*
X17470182Y-18638746D01*
X17470182Y-18638746D02*
X17470182Y-18629222D01*
X17470182Y-18629222D02*
X17479706Y-18610174D01*
X17479706Y-18610174D02*
X17498753Y-18600650D01*
X17498753Y-18600650D02*
X17527325Y-18600650D01*
X17527325Y-18600650D02*
X17546373Y-18610174D01*
X17622563Y-18810174D02*
X17632087Y-18800650D01*
X17632087Y-18800650D02*
X17651134Y-18772079D01*
X17651134Y-18772079D02*
X17660658Y-18753031D01*
X17660658Y-18753031D02*
X17670182Y-18724460D01*
X17670182Y-18724460D02*
X17679706Y-18676841D01*
X17679706Y-18676841D02*
X17679706Y-18638746D01*
X17679706Y-18638746D02*
X17670182Y-18591127D01*
X17670182Y-18591127D02*
X17660658Y-18562555D01*
X17660658Y-18562555D02*
X17651134Y-18543508D01*
X17651134Y-18543508D02*
X17632087Y-18514936D01*
X17632087Y-18514936D02*
X17622563Y-18505412D01*
X17984468Y-18810174D02*
X17974944Y-18800650D01*
X17974944Y-18800650D02*
X17955896Y-18772079D01*
X17955896Y-18772079D02*
X17946373Y-18753031D01*
X17946373Y-18753031D02*
X17936849Y-18724460D01*
X17936849Y-18724460D02*
X17927325Y-18676841D01*
X17927325Y-18676841D02*
X17927325Y-18638746D01*
X17927325Y-18638746D02*
X17936849Y-18591127D01*
X17936849Y-18591127D02*
X17946373Y-18562555D01*
X17946373Y-18562555D02*
X17955896Y-18543508D01*
X17955896Y-18543508D02*
X17974944Y-18514936D01*
X17974944Y-18514936D02*
X17984468Y-18505412D01*
X18060658Y-18600650D02*
X18060658Y-18733984D01*
X18060658Y-18619698D02*
X18070182Y-18610174D01*
X18070182Y-18610174D02*
X18089230Y-18600650D01*
X18089230Y-18600650D02*
X18117801Y-18600650D01*
X18117801Y-18600650D02*
X18136849Y-18610174D01*
X18136849Y-18610174D02*
X18146373Y-18629222D01*
X18146373Y-18629222D02*
X18146373Y-18733984D01*
X18270182Y-18733984D02*
X18251134Y-18724460D01*
X18251134Y-18724460D02*
X18241611Y-18714936D01*
X18241611Y-18714936D02*
X18232087Y-18695889D01*
X18232087Y-18695889D02*
X18232087Y-18638746D01*
X18232087Y-18638746D02*
X18241611Y-18619698D01*
X18241611Y-18619698D02*
X18251134Y-18610174D01*
X18251134Y-18610174D02*
X18270182Y-18600650D01*
X18270182Y-18600650D02*
X18298754Y-18600650D01*
X18298754Y-18600650D02*
X18317801Y-18610174D01*
X18317801Y-18610174D02*
X18327325Y-18619698D01*
X18327325Y-18619698D02*
X18336849Y-18638746D01*
X18336849Y-18638746D02*
X18336849Y-18695889D01*
X18336849Y-18695889D02*
X18327325Y-18714936D01*
X18327325Y-18714936D02*
X18317801Y-18724460D01*
X18317801Y-18724460D02*
X18298754Y-18733984D01*
X18298754Y-18733984D02*
X18270182Y-18733984D01*
X18393992Y-18600650D02*
X18470182Y-18600650D01*
X18422563Y-18533984D02*
X18422563Y-18705412D01*
X18422563Y-18705412D02*
X18432087Y-18724460D01*
X18432087Y-18724460D02*
X18451134Y-18733984D01*
X18451134Y-18733984D02*
X18470182Y-18733984D01*
X18689230Y-18600650D02*
X18689230Y-18800650D01*
X18689230Y-18610174D02*
X18708277Y-18600650D01*
X18708277Y-18600650D02*
X18746373Y-18600650D01*
X18746373Y-18600650D02*
X18765420Y-18610174D01*
X18765420Y-18610174D02*
X18774944Y-18619698D01*
X18774944Y-18619698D02*
X18784468Y-18638746D01*
X18784468Y-18638746D02*
X18784468Y-18695889D01*
X18784468Y-18695889D02*
X18774944Y-18714936D01*
X18774944Y-18714936D02*
X18765420Y-18724460D01*
X18765420Y-18724460D02*
X18746373Y-18733984D01*
X18746373Y-18733984D02*
X18708277Y-18733984D01*
X18708277Y-18733984D02*
X18689230Y-18724460D01*
X18898754Y-18733984D02*
X18879706Y-18724460D01*
X18879706Y-18724460D02*
X18870182Y-18705412D01*
X18870182Y-18705412D02*
X18870182Y-18533984D01*
X19060658Y-18733984D02*
X19060658Y-18629222D01*
X19060658Y-18629222D02*
X19051135Y-18610174D01*
X19051135Y-18610174D02*
X19032087Y-18600650D01*
X19032087Y-18600650D02*
X18993992Y-18600650D01*
X18993992Y-18600650D02*
X18974944Y-18610174D01*
X19060658Y-18724460D02*
X19041611Y-18733984D01*
X19041611Y-18733984D02*
X18993992Y-18733984D01*
X18993992Y-18733984D02*
X18974944Y-18724460D01*
X18974944Y-18724460D02*
X18965420Y-18705412D01*
X18965420Y-18705412D02*
X18965420Y-18686365D01*
X18965420Y-18686365D02*
X18974944Y-18667317D01*
X18974944Y-18667317D02*
X18993992Y-18657793D01*
X18993992Y-18657793D02*
X19041611Y-18657793D01*
X19041611Y-18657793D02*
X19060658Y-18648270D01*
X19127325Y-18600650D02*
X19203515Y-18600650D01*
X19155896Y-18533984D02*
X19155896Y-18705412D01*
X19155896Y-18705412D02*
X19165420Y-18724460D01*
X19165420Y-18724460D02*
X19184468Y-18733984D01*
X19184468Y-18733984D02*
X19203515Y-18733984D01*
X19346373Y-18724460D02*
X19327325Y-18733984D01*
X19327325Y-18733984D02*
X19289230Y-18733984D01*
X19289230Y-18733984D02*
X19270182Y-18724460D01*
X19270182Y-18724460D02*
X19260658Y-18705412D01*
X19260658Y-18705412D02*
X19260658Y-18629222D01*
X19260658Y-18629222D02*
X19270182Y-18610174D01*
X19270182Y-18610174D02*
X19289230Y-18600650D01*
X19289230Y-18600650D02*
X19327325Y-18600650D01*
X19327325Y-18600650D02*
X19346373Y-18610174D01*
X19346373Y-18610174D02*
X19355896Y-18629222D01*
X19355896Y-18629222D02*
X19355896Y-18648270D01*
X19355896Y-18648270D02*
X19260658Y-18667317D01*
X19527325Y-18733984D02*
X19527325Y-18533984D01*
X19527325Y-18724460D02*
X19508277Y-18733984D01*
X19508277Y-18733984D02*
X19470182Y-18733984D01*
X19470182Y-18733984D02*
X19451135Y-18724460D01*
X19451135Y-18724460D02*
X19441611Y-18714936D01*
X19441611Y-18714936D02*
X19432087Y-18695889D01*
X19432087Y-18695889D02*
X19432087Y-18638746D01*
X19432087Y-18638746D02*
X19441611Y-18619698D01*
X19441611Y-18619698D02*
X19451135Y-18610174D01*
X19451135Y-18610174D02*
X19470182Y-18600650D01*
X19470182Y-18600650D02*
X19508277Y-18600650D01*
X19508277Y-18600650D02*
X19527325Y-18610174D01*
X19603516Y-18810174D02*
X19613039Y-18800650D01*
X19613039Y-18800650D02*
X19632087Y-18772079D01*
X19632087Y-18772079D02*
X19641611Y-18753031D01*
X19641611Y-18753031D02*
X19651135Y-18724460D01*
X19651135Y-18724460D02*
X19660658Y-18676841D01*
X19660658Y-18676841D02*
X19660658Y-18638746D01*
X19660658Y-18638746D02*
X19651135Y-18591127D01*
X19651135Y-18591127D02*
X19641611Y-18562555D01*
X19641611Y-18562555D02*
X19632087Y-18543508D01*
X19632087Y-18543508D02*
X19613039Y-18514936D01*
X19613039Y-18514936D02*
X19603516Y-18505412D01*
X12847500Y-18906500D02*
G75*
G03*
X12647500Y-18906500I-100000J0D01*
G01*
X12647500Y-18906500D02*
G75*
G03*
X12847500Y-18906500I100000J0D01*
G01*
X13089229Y-18797984D02*
X13213039Y-18797984D01*
X13213039Y-18797984D02*
X13146372Y-18874174D01*
X13146372Y-18874174D02*
X13174943Y-18874174D01*
X13174943Y-18874174D02*
X13193991Y-18883698D01*
X13193991Y-18883698D02*
X13203515Y-18893222D01*
X13203515Y-18893222D02*
X13213039Y-18912270D01*
X13213039Y-18912270D02*
X13213039Y-18959889D01*
X13213039Y-18959889D02*
X13203515Y-18978936D01*
X13203515Y-18978936D02*
X13193991Y-18988460D01*
X13193991Y-18988460D02*
X13174943Y-18997984D01*
X13174943Y-18997984D02*
X13117801Y-18997984D01*
X13117801Y-18997984D02*
X13098753Y-18988460D01*
X13098753Y-18988460D02*
X13089229Y-18978936D01*
X13298753Y-18978936D02*
X13308277Y-18988460D01*
X13308277Y-18988460D02*
X13298753Y-18997984D01*
X13298753Y-18997984D02*
X13289229Y-18988460D01*
X13289229Y-18988460D02*
X13298753Y-18978936D01*
X13298753Y-18978936D02*
X13298753Y-18997984D01*
X13384467Y-18817031D02*
X13393991Y-18807508D01*
X13393991Y-18807508D02*
X13413039Y-18797984D01*
X13413039Y-18797984D02*
X13460658Y-18797984D01*
X13460658Y-18797984D02*
X13479705Y-18807508D01*
X13479705Y-18807508D02*
X13489229Y-18817031D01*
X13489229Y-18817031D02*
X13498753Y-18836079D01*
X13498753Y-18836079D02*
X13498753Y-18855127D01*
X13498753Y-18855127D02*
X13489229Y-18883698D01*
X13489229Y-18883698D02*
X13374943Y-18997984D01*
X13374943Y-18997984D02*
X13498753Y-18997984D01*
X13679705Y-18797984D02*
X13584467Y-18797984D01*
X13584467Y-18797984D02*
X13574943Y-18893222D01*
X13574943Y-18893222D02*
X13584467Y-18883698D01*
X13584467Y-18883698D02*
X13603515Y-18874174D01*
X13603515Y-18874174D02*
X13651134Y-18874174D01*
X13651134Y-18874174D02*
X13670182Y-18883698D01*
X13670182Y-18883698D02*
X13679705Y-18893222D01*
X13679705Y-18893222D02*
X13689229Y-18912270D01*
X13689229Y-18912270D02*
X13689229Y-18959889D01*
X13689229Y-18959889D02*
X13679705Y-18978936D01*
X13679705Y-18978936D02*
X13670182Y-18988460D01*
X13670182Y-18988460D02*
X13651134Y-18997984D01*
X13651134Y-18997984D02*
X13603515Y-18997984D01*
X13603515Y-18997984D02*
X13584467Y-18988460D01*
X13584467Y-18988460D02*
X13574943Y-18978936D01*
X13813039Y-18797984D02*
X13832086Y-18797984D01*
X13832086Y-18797984D02*
X13851134Y-18807508D01*
X13851134Y-18807508D02*
X13860658Y-18817031D01*
X13860658Y-18817031D02*
X13870182Y-18836079D01*
X13870182Y-18836079D02*
X13879705Y-18874174D01*
X13879705Y-18874174D02*
X13879705Y-18921793D01*
X13879705Y-18921793D02*
X13870182Y-18959889D01*
X13870182Y-18959889D02*
X13860658Y-18978936D01*
X13860658Y-18978936D02*
X13851134Y-18988460D01*
X13851134Y-18988460D02*
X13832086Y-18997984D01*
X13832086Y-18997984D02*
X13813039Y-18997984D01*
X13813039Y-18997984D02*
X13793991Y-18988460D01*
X13793991Y-18988460D02*
X13784467Y-18978936D01*
X13784467Y-18978936D02*
X13774943Y-18959889D01*
X13774943Y-18959889D02*
X13765420Y-18921793D01*
X13765420Y-18921793D02*
X13765420Y-18874174D01*
X13765420Y-18874174D02*
X13774943Y-18836079D01*
X13774943Y-18836079D02*
X13784467Y-18817031D01*
X13784467Y-18817031D02*
X13793991Y-18807508D01*
X13793991Y-18807508D02*
X13813039Y-18797984D01*
X13965420Y-18997984D02*
X13965420Y-18864650D01*
X13965420Y-18883698D02*
X13974943Y-18874174D01*
X13974943Y-18874174D02*
X13993991Y-18864650D01*
X13993991Y-18864650D02*
X14022563Y-18864650D01*
X14022563Y-18864650D02*
X14041610Y-18874174D01*
X14041610Y-18874174D02*
X14051134Y-18893222D01*
X14051134Y-18893222D02*
X14051134Y-18997984D01*
X14051134Y-18893222D02*
X14060658Y-18874174D01*
X14060658Y-18874174D02*
X14079705Y-18864650D01*
X14079705Y-18864650D02*
X14108277Y-18864650D01*
X14108277Y-18864650D02*
X14127324Y-18874174D01*
X14127324Y-18874174D02*
X14136848Y-18893222D01*
X14136848Y-18893222D02*
X14136848Y-18997984D01*
X14232086Y-18997984D02*
X14232086Y-18864650D01*
X14232086Y-18883698D02*
X14241610Y-18874174D01*
X14241610Y-18874174D02*
X14260658Y-18864650D01*
X14260658Y-18864650D02*
X14289229Y-18864650D01*
X14289229Y-18864650D02*
X14308277Y-18874174D01*
X14308277Y-18874174D02*
X14317801Y-18893222D01*
X14317801Y-18893222D02*
X14317801Y-18997984D01*
X14317801Y-18893222D02*
X14327324Y-18874174D01*
X14327324Y-18874174D02*
X14346372Y-18864650D01*
X14346372Y-18864650D02*
X14374943Y-18864650D01*
X14374943Y-18864650D02*
X14393991Y-18874174D01*
X14393991Y-18874174D02*
X14403515Y-18893222D01*
X14403515Y-18893222D02*
X14403515Y-18997984D01*
X14793991Y-18788460D02*
X14622563Y-19045603D01*
X15051134Y-18797984D02*
X15070182Y-18797984D01*
X15070182Y-18797984D02*
X15089229Y-18807508D01*
X15089229Y-18807508D02*
X15098753Y-18817031D01*
X15098753Y-18817031D02*
X15108277Y-18836079D01*
X15108277Y-18836079D02*
X15117801Y-18874174D01*
X15117801Y-18874174D02*
X15117801Y-18921793D01*
X15117801Y-18921793D02*
X15108277Y-18959889D01*
X15108277Y-18959889D02*
X15098753Y-18978936D01*
X15098753Y-18978936D02*
X15089229Y-18988460D01*
X15089229Y-18988460D02*
X15070182Y-18997984D01*
X15070182Y-18997984D02*
X15051134Y-18997984D01*
X15051134Y-18997984D02*
X15032086Y-18988460D01*
X15032086Y-18988460D02*
X15022563Y-18978936D01*
X15022563Y-18978936D02*
X15013039Y-18959889D01*
X15013039Y-18959889D02*
X15003515Y-18921793D01*
X15003515Y-18921793D02*
X15003515Y-18874174D01*
X15003515Y-18874174D02*
X15013039Y-18836079D01*
X15013039Y-18836079D02*
X15022563Y-18817031D01*
X15022563Y-18817031D02*
X15032086Y-18807508D01*
X15032086Y-18807508D02*
X15051134Y-18797984D01*
X15203515Y-18978936D02*
X15213039Y-18988460D01*
X15213039Y-18988460D02*
X15203515Y-18997984D01*
X15203515Y-18997984D02*
X15193991Y-18988460D01*
X15193991Y-18988460D02*
X15203515Y-18978936D01*
X15203515Y-18978936D02*
X15203515Y-18997984D01*
X15403515Y-18997984D02*
X15289229Y-18997984D01*
X15346372Y-18997984D02*
X15346372Y-18797984D01*
X15346372Y-18797984D02*
X15327325Y-18826555D01*
X15327325Y-18826555D02*
X15308277Y-18845603D01*
X15308277Y-18845603D02*
X15289229Y-18855127D01*
X15479706Y-18817031D02*
X15489229Y-18807508D01*
X15489229Y-18807508D02*
X15508277Y-18797984D01*
X15508277Y-18797984D02*
X15555896Y-18797984D01*
X15555896Y-18797984D02*
X15574944Y-18807508D01*
X15574944Y-18807508D02*
X15584467Y-18817031D01*
X15584467Y-18817031D02*
X15593991Y-18836079D01*
X15593991Y-18836079D02*
X15593991Y-18855127D01*
X15593991Y-18855127D02*
X15584467Y-18883698D01*
X15584467Y-18883698D02*
X15470182Y-18997984D01*
X15470182Y-18997984D02*
X15593991Y-18997984D01*
X15708277Y-18883698D02*
X15689229Y-18874174D01*
X15689229Y-18874174D02*
X15679706Y-18864650D01*
X15679706Y-18864650D02*
X15670182Y-18845603D01*
X15670182Y-18845603D02*
X15670182Y-18836079D01*
X15670182Y-18836079D02*
X15679706Y-18817031D01*
X15679706Y-18817031D02*
X15689229Y-18807508D01*
X15689229Y-18807508D02*
X15708277Y-18797984D01*
X15708277Y-18797984D02*
X15746372Y-18797984D01*
X15746372Y-18797984D02*
X15765420Y-18807508D01*
X15765420Y-18807508D02*
X15774944Y-18817031D01*
X15774944Y-18817031D02*
X15784467Y-18836079D01*
X15784467Y-18836079D02*
X15784467Y-18845603D01*
X15784467Y-18845603D02*
X15774944Y-18864650D01*
X15774944Y-18864650D02*
X15765420Y-18874174D01*
X15765420Y-18874174D02*
X15746372Y-18883698D01*
X15746372Y-18883698D02*
X15708277Y-18883698D01*
X15708277Y-18883698D02*
X15689229Y-18893222D01*
X15689229Y-18893222D02*
X15679706Y-18902746D01*
X15679706Y-18902746D02*
X15670182Y-18921793D01*
X15670182Y-18921793D02*
X15670182Y-18959889D01*
X15670182Y-18959889D02*
X15679706Y-18978936D01*
X15679706Y-18978936D02*
X15689229Y-18988460D01*
X15689229Y-18988460D02*
X15708277Y-18997984D01*
X15708277Y-18997984D02*
X15746372Y-18997984D01*
X15746372Y-18997984D02*
X15765420Y-18988460D01*
X15765420Y-18988460D02*
X15774944Y-18978936D01*
X15774944Y-18978936D02*
X15784467Y-18959889D01*
X15784467Y-18959889D02*
X15784467Y-18921793D01*
X15784467Y-18921793D02*
X15774944Y-18902746D01*
X15774944Y-18902746D02*
X15765420Y-18893222D01*
X15765420Y-18893222D02*
X15746372Y-18883698D01*
X15908277Y-18797984D02*
X15927325Y-18797984D01*
X15927325Y-18797984D02*
X15946372Y-18807508D01*
X15946372Y-18807508D02*
X15955896Y-18817031D01*
X15955896Y-18817031D02*
X15965420Y-18836079D01*
X15965420Y-18836079D02*
X15974944Y-18874174D01*
X15974944Y-18874174D02*
X15974944Y-18921793D01*
X15974944Y-18921793D02*
X15965420Y-18959889D01*
X15965420Y-18959889D02*
X15955896Y-18978936D01*
X15955896Y-18978936D02*
X15946372Y-18988460D01*
X15946372Y-18988460D02*
X15927325Y-18997984D01*
X15927325Y-18997984D02*
X15908277Y-18997984D01*
X15908277Y-18997984D02*
X15889229Y-18988460D01*
X15889229Y-18988460D02*
X15879706Y-18978936D01*
X15879706Y-18978936D02*
X15870182Y-18959889D01*
X15870182Y-18959889D02*
X15860658Y-18921793D01*
X15860658Y-18921793D02*
X15860658Y-18874174D01*
X15860658Y-18874174D02*
X15870182Y-18836079D01*
X15870182Y-18836079D02*
X15879706Y-18817031D01*
X15879706Y-18817031D02*
X15889229Y-18807508D01*
X15889229Y-18807508D02*
X15908277Y-18797984D01*
X16051134Y-18797984D02*
X16051134Y-18836079D01*
X16127325Y-18797984D02*
X16127325Y-18836079D01*
X16422563Y-19074174D02*
X16413039Y-19064650D01*
X16413039Y-19064650D02*
X16393991Y-19036079D01*
X16393991Y-19036079D02*
X16384468Y-19017031D01*
X16384468Y-19017031D02*
X16374944Y-18988460D01*
X16374944Y-18988460D02*
X16365420Y-18940841D01*
X16365420Y-18940841D02*
X16365420Y-18902746D01*
X16365420Y-18902746D02*
X16374944Y-18855127D01*
X16374944Y-18855127D02*
X16384468Y-18826555D01*
X16384468Y-18826555D02*
X16393991Y-18807508D01*
X16393991Y-18807508D02*
X16413039Y-18778936D01*
X16413039Y-18778936D02*
X16422563Y-18769412D01*
X16584468Y-18864650D02*
X16584468Y-18997984D01*
X16536848Y-18788460D02*
X16489229Y-18931317D01*
X16489229Y-18931317D02*
X16613039Y-18931317D01*
X16841611Y-18997984D02*
X16841611Y-18797984D01*
X16927325Y-18997984D02*
X16927325Y-18893222D01*
X16927325Y-18893222D02*
X16917801Y-18874174D01*
X16917801Y-18874174D02*
X16898753Y-18864650D01*
X16898753Y-18864650D02*
X16870182Y-18864650D01*
X16870182Y-18864650D02*
X16851134Y-18874174D01*
X16851134Y-18874174D02*
X16841611Y-18883698D01*
X17051134Y-18997984D02*
X17032087Y-18988460D01*
X17032087Y-18988460D02*
X17022563Y-18978936D01*
X17022563Y-18978936D02*
X17013039Y-18959889D01*
X17013039Y-18959889D02*
X17013039Y-18902746D01*
X17013039Y-18902746D02*
X17022563Y-18883698D01*
X17022563Y-18883698D02*
X17032087Y-18874174D01*
X17032087Y-18874174D02*
X17051134Y-18864650D01*
X17051134Y-18864650D02*
X17079706Y-18864650D01*
X17079706Y-18864650D02*
X17098753Y-18874174D01*
X17098753Y-18874174D02*
X17108277Y-18883698D01*
X17108277Y-18883698D02*
X17117801Y-18902746D01*
X17117801Y-18902746D02*
X17117801Y-18959889D01*
X17117801Y-18959889D02*
X17108277Y-18978936D01*
X17108277Y-18978936D02*
X17098753Y-18988460D01*
X17098753Y-18988460D02*
X17079706Y-18997984D01*
X17079706Y-18997984D02*
X17051134Y-18997984D01*
X17232087Y-18997984D02*
X17213039Y-18988460D01*
X17213039Y-18988460D02*
X17203515Y-18969412D01*
X17203515Y-18969412D02*
X17203515Y-18797984D01*
X17384468Y-18988460D02*
X17365420Y-18997984D01*
X17365420Y-18997984D02*
X17327325Y-18997984D01*
X17327325Y-18997984D02*
X17308277Y-18988460D01*
X17308277Y-18988460D02*
X17298753Y-18969412D01*
X17298753Y-18969412D02*
X17298753Y-18893222D01*
X17298753Y-18893222D02*
X17308277Y-18874174D01*
X17308277Y-18874174D02*
X17327325Y-18864650D01*
X17327325Y-18864650D02*
X17365420Y-18864650D01*
X17365420Y-18864650D02*
X17384468Y-18874174D01*
X17384468Y-18874174D02*
X17393992Y-18893222D01*
X17393992Y-18893222D02*
X17393992Y-18912270D01*
X17393992Y-18912270D02*
X17298753Y-18931317D01*
X17470182Y-18988460D02*
X17489230Y-18997984D01*
X17489230Y-18997984D02*
X17527325Y-18997984D01*
X17527325Y-18997984D02*
X17546373Y-18988460D01*
X17546373Y-18988460D02*
X17555896Y-18969412D01*
X17555896Y-18969412D02*
X17555896Y-18959889D01*
X17555896Y-18959889D02*
X17546373Y-18940841D01*
X17546373Y-18940841D02*
X17527325Y-18931317D01*
X17527325Y-18931317D02*
X17498753Y-18931317D01*
X17498753Y-18931317D02*
X17479706Y-18921793D01*
X17479706Y-18921793D02*
X17470182Y-18902746D01*
X17470182Y-18902746D02*
X17470182Y-18893222D01*
X17470182Y-18893222D02*
X17479706Y-18874174D01*
X17479706Y-18874174D02*
X17498753Y-18864650D01*
X17498753Y-18864650D02*
X17527325Y-18864650D01*
X17527325Y-18864650D02*
X17546373Y-18874174D01*
X17622563Y-19074174D02*
X17632087Y-19064650D01*
X17632087Y-19064650D02*
X17651134Y-19036079D01*
X17651134Y-19036079D02*
X17660658Y-19017031D01*
X17660658Y-19017031D02*
X17670182Y-18988460D01*
X17670182Y-18988460D02*
X17679706Y-18940841D01*
X17679706Y-18940841D02*
X17679706Y-18902746D01*
X17679706Y-18902746D02*
X17670182Y-18855127D01*
X17670182Y-18855127D02*
X17660658Y-18826555D01*
X17660658Y-18826555D02*
X17651134Y-18807508D01*
X17651134Y-18807508D02*
X17632087Y-18778936D01*
X17632087Y-18778936D02*
X17622563Y-18769412D01*
X17984468Y-19074174D02*
X17974944Y-19064650D01*
X17974944Y-19064650D02*
X17955896Y-19036079D01*
X17955896Y-19036079D02*
X17946373Y-19017031D01*
X17946373Y-19017031D02*
X17936849Y-18988460D01*
X17936849Y-18988460D02*
X17927325Y-18940841D01*
X17927325Y-18940841D02*
X17927325Y-18902746D01*
X17927325Y-18902746D02*
X17936849Y-18855127D01*
X17936849Y-18855127D02*
X17946373Y-18826555D01*
X17946373Y-18826555D02*
X17955896Y-18807508D01*
X17955896Y-18807508D02*
X17974944Y-18778936D01*
X17974944Y-18778936D02*
X17984468Y-18769412D01*
X18060658Y-18864650D02*
X18060658Y-18997984D01*
X18060658Y-18883698D02*
X18070182Y-18874174D01*
X18070182Y-18874174D02*
X18089230Y-18864650D01*
X18089230Y-18864650D02*
X18117801Y-18864650D01*
X18117801Y-18864650D02*
X18136849Y-18874174D01*
X18136849Y-18874174D02*
X18146373Y-18893222D01*
X18146373Y-18893222D02*
X18146373Y-18997984D01*
X18270182Y-18997984D02*
X18251134Y-18988460D01*
X18251134Y-18988460D02*
X18241611Y-18978936D01*
X18241611Y-18978936D02*
X18232087Y-18959889D01*
X18232087Y-18959889D02*
X18232087Y-18902746D01*
X18232087Y-18902746D02*
X18241611Y-18883698D01*
X18241611Y-18883698D02*
X18251134Y-18874174D01*
X18251134Y-18874174D02*
X18270182Y-18864650D01*
X18270182Y-18864650D02*
X18298754Y-18864650D01*
X18298754Y-18864650D02*
X18317801Y-18874174D01*
X18317801Y-18874174D02*
X18327325Y-18883698D01*
X18327325Y-18883698D02*
X18336849Y-18902746D01*
X18336849Y-18902746D02*
X18336849Y-18959889D01*
X18336849Y-18959889D02*
X18327325Y-18978936D01*
X18327325Y-18978936D02*
X18317801Y-18988460D01*
X18317801Y-18988460D02*
X18298754Y-18997984D01*
X18298754Y-18997984D02*
X18270182Y-18997984D01*
X18393992Y-18864650D02*
X18470182Y-18864650D01*
X18422563Y-18797984D02*
X18422563Y-18969412D01*
X18422563Y-18969412D02*
X18432087Y-18988460D01*
X18432087Y-18988460D02*
X18451134Y-18997984D01*
X18451134Y-18997984D02*
X18470182Y-18997984D01*
X18689230Y-18864650D02*
X18689230Y-19064650D01*
X18689230Y-18874174D02*
X18708277Y-18864650D01*
X18708277Y-18864650D02*
X18746373Y-18864650D01*
X18746373Y-18864650D02*
X18765420Y-18874174D01*
X18765420Y-18874174D02*
X18774944Y-18883698D01*
X18774944Y-18883698D02*
X18784468Y-18902746D01*
X18784468Y-18902746D02*
X18784468Y-18959889D01*
X18784468Y-18959889D02*
X18774944Y-18978936D01*
X18774944Y-18978936D02*
X18765420Y-18988460D01*
X18765420Y-18988460D02*
X18746373Y-18997984D01*
X18746373Y-18997984D02*
X18708277Y-18997984D01*
X18708277Y-18997984D02*
X18689230Y-18988460D01*
X18898754Y-18997984D02*
X18879706Y-18988460D01*
X18879706Y-18988460D02*
X18870182Y-18969412D01*
X18870182Y-18969412D02*
X18870182Y-18797984D01*
X19060658Y-18997984D02*
X19060658Y-18893222D01*
X19060658Y-18893222D02*
X19051135Y-18874174D01*
X19051135Y-18874174D02*
X19032087Y-18864650D01*
X19032087Y-18864650D02*
X18993992Y-18864650D01*
X18993992Y-18864650D02*
X18974944Y-18874174D01*
X19060658Y-18988460D02*
X19041611Y-18997984D01*
X19041611Y-18997984D02*
X18993992Y-18997984D01*
X18993992Y-18997984D02*
X18974944Y-18988460D01*
X18974944Y-18988460D02*
X18965420Y-18969412D01*
X18965420Y-18969412D02*
X18965420Y-18950365D01*
X18965420Y-18950365D02*
X18974944Y-18931317D01*
X18974944Y-18931317D02*
X18993992Y-18921793D01*
X18993992Y-18921793D02*
X19041611Y-18921793D01*
X19041611Y-18921793D02*
X19060658Y-18912270D01*
X19127325Y-18864650D02*
X19203515Y-18864650D01*
X19155896Y-18797984D02*
X19155896Y-18969412D01*
X19155896Y-18969412D02*
X19165420Y-18988460D01*
X19165420Y-18988460D02*
X19184468Y-18997984D01*
X19184468Y-18997984D02*
X19203515Y-18997984D01*
X19346373Y-18988460D02*
X19327325Y-18997984D01*
X19327325Y-18997984D02*
X19289230Y-18997984D01*
X19289230Y-18997984D02*
X19270182Y-18988460D01*
X19270182Y-18988460D02*
X19260658Y-18969412D01*
X19260658Y-18969412D02*
X19260658Y-18893222D01*
X19260658Y-18893222D02*
X19270182Y-18874174D01*
X19270182Y-18874174D02*
X19289230Y-18864650D01*
X19289230Y-18864650D02*
X19327325Y-18864650D01*
X19327325Y-18864650D02*
X19346373Y-18874174D01*
X19346373Y-18874174D02*
X19355896Y-18893222D01*
X19355896Y-18893222D02*
X19355896Y-18912270D01*
X19355896Y-18912270D02*
X19260658Y-18931317D01*
X19527325Y-18997984D02*
X19527325Y-18797984D01*
X19527325Y-18988460D02*
X19508277Y-18997984D01*
X19508277Y-18997984D02*
X19470182Y-18997984D01*
X19470182Y-18997984D02*
X19451135Y-18988460D01*
X19451135Y-18988460D02*
X19441611Y-18978936D01*
X19441611Y-18978936D02*
X19432087Y-18959889D01*
X19432087Y-18959889D02*
X19432087Y-18902746D01*
X19432087Y-18902746D02*
X19441611Y-18883698D01*
X19441611Y-18883698D02*
X19451135Y-18874174D01*
X19451135Y-18874174D02*
X19470182Y-18864650D01*
X19470182Y-18864650D02*
X19508277Y-18864650D01*
X19508277Y-18864650D02*
X19527325Y-18874174D01*
X19603516Y-19074174D02*
X19613039Y-19064650D01*
X19613039Y-19064650D02*
X19632087Y-19036079D01*
X19632087Y-19036079D02*
X19641611Y-19017031D01*
X19641611Y-19017031D02*
X19651135Y-18988460D01*
X19651135Y-18988460D02*
X19660658Y-18940841D01*
X19660658Y-18940841D02*
X19660658Y-18902746D01*
X19660658Y-18902746D02*
X19651135Y-18855127D01*
X19651135Y-18855127D02*
X19641611Y-18826555D01*
X19641611Y-18826555D02*
X19632087Y-18807508D01*
X19632087Y-18807508D02*
X19613039Y-18778936D01*
X19613039Y-18778936D02*
X19603516Y-18769412D01*
M02*
