%TF.GenerationSoftware,KiCad,Pcbnew,7.0.11+dfsg-1build4*%
%TF.CreationDate,2024-07-19T16:51:39+02:00*%
%TF.ProjectId,antmicro-poe-to-usbc-pd-adapter,616e746d-6963-4726-9f2d-706f652d746f,rev?*%
%TF.SameCoordinates,Original*%
%TF.FileFunction,Other,User*%
%FSLAX46Y46*%
G04 Gerber Fmt 4.6, Leading zero omitted, Abs format (unit mm)*
G04 Created by KiCad (PCBNEW 7.0.11+dfsg-1build4) date 2024-07-19 16:51:39 commit  9a9195e *
%MOMM*%
%LPD*%
G01*
G04 APERTURE LIST*
%ADD10C,0.050000*%
G04 APERTURE END LIST*
D10*
%TO.C,R42*%
X208901000Y-160684000D02*
X207051000Y-160684000D01*
X207051000Y-160684000D02*
X207051000Y-159744000D01*
X207051000Y-159744000D02*
X208901000Y-159744000D01*
X208901000Y-159744000D02*
X208901000Y-160684000D01*
%TO.C,REF\u002A\u002A*%
X240750000Y-177000000D02*
G75*
G03*
X234850000Y-177000000I-2950000J0D01*
G01*
X234850000Y-177000000D02*
G75*
G03*
X240750000Y-177000000I2950000J0D01*
G01*
%TO.C,U2*%
X196225000Y-165600000D02*
X190385000Y-165600000D01*
X190385000Y-165600000D02*
X190385000Y-172170000D01*
X190385000Y-172170000D02*
X196225000Y-172170000D01*
X196225000Y-172170000D02*
X196225000Y-165600000D01*
%TO.C,C35*%
X143875000Y-130330000D02*
X145725000Y-130330000D01*
X145725000Y-130330000D02*
X145725000Y-131270000D01*
X145725000Y-131270000D02*
X143875000Y-131270000D01*
X143875000Y-131270000D02*
X143875000Y-130330000D01*
%TO.C,R15*%
X191880000Y-175495000D02*
X192820000Y-175495000D01*
X192820000Y-175495000D02*
X192820000Y-173645000D01*
X192820000Y-173645000D02*
X191880000Y-173645000D01*
X191880000Y-173645000D02*
X191880000Y-175495000D01*
%TO.C,U6*%
X203801000Y-152597000D02*
X211701000Y-152597000D01*
X211701000Y-152597000D02*
X211701000Y-144697000D01*
X211701000Y-144697000D02*
X203801000Y-144697000D01*
X203801000Y-144697000D02*
X203801000Y-152597000D01*
%TO.C,C30*%
X220882000Y-169595000D02*
X219942000Y-169595000D01*
X219942000Y-169595000D02*
X219942000Y-171445000D01*
X219942000Y-171445000D02*
X220882000Y-171445000D01*
X220882000Y-171445000D02*
X220882000Y-169595000D01*
%TO.C,C18*%
X183991667Y-144210000D02*
X180491667Y-144210000D01*
X180491667Y-144210000D02*
X180491667Y-148410000D01*
X180491667Y-148410000D02*
X183991667Y-148410000D01*
X183991667Y-148410000D02*
X183991667Y-144210000D01*
%TO.C,C2*%
X190330000Y-162245000D02*
X191270000Y-162245000D01*
X191270000Y-162245000D02*
X191270000Y-160395000D01*
X191270000Y-160395000D02*
X190330000Y-160395000D01*
X190330000Y-160395000D02*
X190330000Y-162245000D01*
%TO.C,R50*%
X204580000Y-144344000D02*
X205520000Y-144344000D01*
X205520000Y-144344000D02*
X205520000Y-142494000D01*
X205520000Y-142494000D02*
X204580000Y-142494000D01*
X204580000Y-142494000D02*
X204580000Y-144344000D01*
%TO.C,C32*%
X223518000Y-159403000D02*
X224458000Y-159403000D01*
X224458000Y-159403000D02*
X224458000Y-157553000D01*
X224458000Y-157553000D02*
X223518000Y-157553000D01*
X223518000Y-157553000D02*
X223518000Y-159403000D01*
%TO.C,C19*%
X180358334Y-144210000D02*
X176858334Y-144210000D01*
X176858334Y-144210000D02*
X176858334Y-148410000D01*
X176858334Y-148410000D02*
X180358334Y-148410000D01*
X180358334Y-148410000D02*
X180358334Y-144210000D01*
%TO.C,R19*%
X219550000Y-171071000D02*
X217700000Y-171071000D01*
X217700000Y-171071000D02*
X217700000Y-170131000D01*
X217700000Y-170131000D02*
X219550000Y-170131000D01*
X219550000Y-170131000D02*
X219550000Y-171071000D01*
%TO.C,U5*%
X208562000Y-165850000D02*
X217362000Y-165850000D01*
X217362000Y-165850000D02*
X217362000Y-174650000D01*
X217362000Y-174650000D02*
X208562000Y-174650000D01*
X208562000Y-174650000D02*
X208562000Y-165850000D01*
%TO.C,TP8*%
X211899000Y-143899000D02*
G75*
G03*
X210949000Y-143899000I-475000J0D01*
G01*
X210949000Y-143899000D02*
G75*
G03*
X211899000Y-143899000I475000J0D01*
G01*
%TO.C,TP6*%
X215199000Y-149099000D02*
G75*
G03*
X214249000Y-149099000I-475000J0D01*
G01*
X214249000Y-149099000D02*
G75*
G03*
X215199000Y-149099000I475000J0D01*
G01*
%TO.C,C17*%
X187625000Y-144200000D02*
X184125000Y-144200000D01*
X184125000Y-144200000D02*
X184125000Y-148400000D01*
X184125000Y-148400000D02*
X187625000Y-148400000D01*
X187625000Y-148400000D02*
X187625000Y-144200000D01*
%TO.C,J2*%
X240010000Y-131567000D02*
X216770000Y-131567000D01*
X216770000Y-131567000D02*
X216770000Y-149811000D01*
X216770000Y-149811000D02*
X240010000Y-149811000D01*
X240010000Y-149811000D02*
X240010000Y-131567000D01*
%TO.C,TP3*%
X210899000Y-143899000D02*
G75*
G03*
X209949000Y-143899000I-475000J0D01*
G01*
X209949000Y-143899000D02*
G75*
G03*
X210899000Y-143899000I475000J0D01*
G01*
%TO.C,C36*%
X223245000Y-131470000D02*
X221395000Y-131470000D01*
X221395000Y-131470000D02*
X221395000Y-130530000D01*
X221395000Y-130530000D02*
X223245000Y-130530000D01*
X223245000Y-130530000D02*
X223245000Y-131470000D01*
%TO.C,C34*%
X203419000Y-154749000D02*
X205269000Y-154749000D01*
X205269000Y-154749000D02*
X205269000Y-155689000D01*
X205269000Y-155689000D02*
X203419000Y-155689000D01*
X203419000Y-155689000D02*
X203419000Y-154749000D01*
%TO.C,C21*%
X197445000Y-148575000D02*
X196505000Y-148575000D01*
X196505000Y-148575000D02*
X196505000Y-150425000D01*
X196505000Y-150425000D02*
X197445000Y-150425000D01*
X197445000Y-150425000D02*
X197445000Y-148575000D01*
%TO.C,R58*%
X213749000Y-150969000D02*
X211899000Y-150969000D01*
X211899000Y-150969000D02*
X211899000Y-150029000D01*
X211899000Y-150029000D02*
X213749000Y-150029000D01*
X213749000Y-150029000D02*
X213749000Y-150969000D01*
%TO.C,R55*%
X211999000Y-146129000D02*
X213849000Y-146129000D01*
X213849000Y-146129000D02*
X213849000Y-147069000D01*
X213849000Y-147069000D02*
X211999000Y-147069000D01*
X211999000Y-147069000D02*
X211999000Y-146129000D01*
%TO.C,R24*%
X191325000Y-153470000D02*
X189475000Y-153470000D01*
X189475000Y-153470000D02*
X189475000Y-152530000D01*
X189475000Y-152530000D02*
X191325000Y-152530000D01*
X191325000Y-152530000D02*
X191325000Y-153470000D01*
%TO.C,U1*%
X165750000Y-139690000D02*
X171650000Y-139690000D01*
X171650000Y-139690000D02*
X171650000Y-145590000D01*
X171650000Y-145590000D02*
X165750000Y-145590000D01*
X165750000Y-145590000D02*
X165750000Y-139690000D01*
%TO.C,R48*%
X225245000Y-131470000D02*
X223395000Y-131470000D01*
X223395000Y-131470000D02*
X223395000Y-130530000D01*
X223395000Y-130530000D02*
X225245000Y-130530000D01*
X225245000Y-130530000D02*
X225245000Y-131470000D01*
%TO.C,FB1*%
X234247000Y-162629000D02*
X231747000Y-162629000D01*
X231747000Y-162629000D02*
X231747000Y-161329000D01*
X231747000Y-161329000D02*
X234247000Y-161329000D01*
X234247000Y-161329000D02*
X234247000Y-162629000D01*
%TO.C,R16*%
X192880000Y-175495000D02*
X193820000Y-175495000D01*
X193820000Y-175495000D02*
X193820000Y-173645000D01*
X193820000Y-173645000D02*
X192880000Y-173645000D01*
X192880000Y-173645000D02*
X192880000Y-175495000D01*
%TO.C,C26*%
X207269000Y-155689000D02*
X205419000Y-155689000D01*
X205419000Y-155689000D02*
X205419000Y-154749000D01*
X205419000Y-154749000D02*
X207269000Y-154749000D01*
X207269000Y-154749000D02*
X207269000Y-155689000D01*
%TO.C,C5*%
X196414000Y-156450000D02*
X192214000Y-156450000D01*
X192214000Y-156450000D02*
X192214000Y-152950000D01*
X192214000Y-152950000D02*
X196414000Y-152950000D01*
X196414000Y-152950000D02*
X196414000Y-156450000D01*
%TO.C,R6*%
X169930000Y-148245000D02*
X170870000Y-148245000D01*
X170870000Y-148245000D02*
X170870000Y-146395000D01*
X170870000Y-146395000D02*
X169930000Y-146395000D01*
X169930000Y-146395000D02*
X169930000Y-148245000D01*
%TO.C,R60*%
X213895000Y-160328000D02*
X215745000Y-160328000D01*
X215745000Y-160328000D02*
X215745000Y-161268000D01*
X215745000Y-161268000D02*
X213895000Y-161268000D01*
X213895000Y-161268000D02*
X213895000Y-160328000D01*
%TO.C,R40*%
X229799000Y-165580000D02*
X228859000Y-165580000D01*
X228859000Y-165580000D02*
X228859000Y-167430000D01*
X228859000Y-167430000D02*
X229799000Y-167430000D01*
X229799000Y-167430000D02*
X229799000Y-165580000D01*
%TO.C,C20*%
X189125000Y-145950000D02*
X187825000Y-145950000D01*
X187825000Y-145950000D02*
X187825000Y-148450000D01*
X187825000Y-148450000D02*
X189125000Y-148450000D01*
X189125000Y-148450000D02*
X189125000Y-145950000D01*
%TO.C,R38*%
X229859000Y-165510000D02*
X230799000Y-165510000D01*
X230799000Y-165510000D02*
X230799000Y-163660000D01*
X230799000Y-163660000D02*
X229859000Y-163660000D01*
X229859000Y-163660000D02*
X229859000Y-165510000D01*
%TO.C,C29*%
X216187000Y-174870000D02*
X218037000Y-174870000D01*
X218037000Y-174870000D02*
X218037000Y-175810000D01*
X218037000Y-175810000D02*
X216187000Y-175810000D01*
X216187000Y-175810000D02*
X216187000Y-174870000D01*
%TO.C,REF\u002A\u002A*%
X134450000Y-176800000D02*
G75*
G03*
X128550000Y-176800000I-2950000J0D01*
G01*
X128550000Y-176800000D02*
G75*
G03*
X134450000Y-176800000I2950000J0D01*
G01*
%TO.C,C3*%
X196344000Y-163750000D02*
X192144000Y-163750000D01*
X192144000Y-163750000D02*
X192144000Y-160250000D01*
X192144000Y-160250000D02*
X196344000Y-160250000D01*
X196344000Y-160250000D02*
X196344000Y-163750000D01*
%TO.C,D6*%
X225788000Y-157598000D02*
X224588000Y-157598000D01*
X224588000Y-157598000D02*
X224588000Y-159598000D01*
X224588000Y-159598000D02*
X225788000Y-159598000D01*
X225788000Y-159598000D02*
X225788000Y-157598000D01*
%TO.C,TP2*%
X208899000Y-143899000D02*
G75*
G03*
X207949000Y-143899000I-475000J0D01*
G01*
X207949000Y-143899000D02*
G75*
G03*
X208899000Y-143899000I475000J0D01*
G01*
%TO.C,R9*%
X189330000Y-167925000D02*
X190270000Y-167925000D01*
X190270000Y-167925000D02*
X190270000Y-166075000D01*
X190270000Y-166075000D02*
X189330000Y-166075000D01*
X189330000Y-166075000D02*
X189330000Y-167925000D01*
%TO.C,L2*%
X193608334Y-143900000D02*
X198408334Y-143900000D01*
X198408334Y-143900000D02*
X198408334Y-139100000D01*
X198408334Y-139100000D02*
X193608334Y-139100000D01*
X193608334Y-139100000D02*
X193608334Y-143900000D01*
%TO.C,R46*%
X139575000Y-130330000D02*
X141425000Y-130330000D01*
X141425000Y-130330000D02*
X141425000Y-131270000D01*
X141425000Y-131270000D02*
X139575000Y-131270000D01*
X139575000Y-131270000D02*
X139575000Y-130330000D01*
%TO.C,D1*%
X159550000Y-136730000D02*
X154350000Y-136730000D01*
X154350000Y-136730000D02*
X154350000Y-140930000D01*
X154350000Y-140930000D02*
X159550000Y-140930000D01*
X159550000Y-140930000D02*
X159550000Y-136730000D01*
%TO.C,R2*%
X165670000Y-140415000D02*
X164730000Y-140415000D01*
X164730000Y-140415000D02*
X164730000Y-142265000D01*
X164730000Y-142265000D02*
X165670000Y-142265000D01*
X165670000Y-142265000D02*
X165670000Y-140415000D01*
%TO.C,R28*%
X209269000Y-154669000D02*
X207419000Y-154669000D01*
X207419000Y-154669000D02*
X207419000Y-153729000D01*
X207419000Y-153729000D02*
X209269000Y-153729000D01*
X209269000Y-153729000D02*
X209269000Y-154669000D01*
%TO.C,R37*%
X228859000Y-165510000D02*
X229799000Y-165510000D01*
X229799000Y-165510000D02*
X229799000Y-163660000D01*
X229799000Y-163660000D02*
X228859000Y-163660000D01*
X228859000Y-163660000D02*
X228859000Y-165510000D01*
%TO.C,REF\u002A\u002A*%
X240750000Y-128400000D02*
G75*
G03*
X234850000Y-128400000I-2950000J0D01*
G01*
X234850000Y-128400000D02*
G75*
G03*
X240750000Y-128400000I2950000J0D01*
G01*
%TO.C,C14*%
X220882000Y-167556000D02*
X219942000Y-167556000D01*
X219942000Y-167556000D02*
X219942000Y-169406000D01*
X219942000Y-169406000D02*
X220882000Y-169406000D01*
X220882000Y-169406000D02*
X220882000Y-167556000D01*
%TO.C,C8*%
X198850000Y-166850000D02*
X196350000Y-166850000D01*
X196350000Y-166850000D02*
X196350000Y-165550000D01*
X196350000Y-165550000D02*
X198850000Y-165550000D01*
X198850000Y-165550000D02*
X198850000Y-166850000D01*
%TO.C,C23*%
X190957334Y-143825000D02*
X193257334Y-143825000D01*
X193257334Y-143825000D02*
X193257334Y-139175000D01*
X193257334Y-139175000D02*
X190957334Y-139175000D01*
X190957334Y-139175000D02*
X190957334Y-143825000D01*
%TO.C,R45*%
X213294000Y-153694000D02*
X212354000Y-153694000D01*
X212354000Y-153694000D02*
X212354000Y-155544000D01*
X212354000Y-155544000D02*
X213294000Y-155544000D01*
X213294000Y-155544000D02*
X213294000Y-153694000D01*
%TO.C,C9*%
X198974000Y-163949000D02*
X203624000Y-163949000D01*
X203624000Y-163949000D02*
X203624000Y-166249000D01*
X203624000Y-166249000D02*
X198974000Y-166249000D01*
X198974000Y-166249000D02*
X198974000Y-163949000D01*
%TO.C,D4*%
X200900000Y-168998000D02*
X196300000Y-168998000D01*
X196300000Y-168998000D02*
X196300000Y-176400000D01*
X196300000Y-176400000D02*
X200900000Y-176400000D01*
X200900000Y-176400000D02*
X200900000Y-168998000D01*
%TO.C,REF\u002A\u002A*%
X134450000Y-128400000D02*
G75*
G03*
X128550000Y-128400000I-2950000J0D01*
G01*
X128550000Y-128400000D02*
G75*
G03*
X134450000Y-128400000I2950000J0D01*
G01*
%TO.C,Y1*%
X222511000Y-171834000D02*
X219312000Y-171834000D01*
X219312000Y-171834000D02*
X219312000Y-175747000D01*
X219312000Y-175747000D02*
X222511000Y-175747000D01*
X222511000Y-175747000D02*
X222511000Y-171834000D01*
%TO.C,C15*%
X213849000Y-148069000D02*
X211999000Y-148069000D01*
X211999000Y-148069000D02*
X211999000Y-147129000D01*
X211999000Y-147129000D02*
X213849000Y-147129000D01*
X213849000Y-147129000D02*
X213849000Y-148069000D01*
%TO.C,C13*%
X221882000Y-169575000D02*
X220942000Y-169575000D01*
X220942000Y-169575000D02*
X220942000Y-171425000D01*
X220942000Y-171425000D02*
X221882000Y-171425000D01*
X221882000Y-171425000D02*
X221882000Y-169575000D01*
%TO.C,R47*%
X219395000Y-130530000D02*
X221245000Y-130530000D01*
X221245000Y-130530000D02*
X221245000Y-131470000D01*
X221245000Y-131470000D02*
X219395000Y-131470000D01*
X219395000Y-131470000D02*
X219395000Y-130530000D01*
%TO.C,R11*%
X190250000Y-157550000D02*
X188950000Y-157550000D01*
X188950000Y-157550000D02*
X188950000Y-160050000D01*
X188950000Y-160050000D02*
X190250000Y-160050000D01*
X190250000Y-160050000D02*
X190250000Y-157550000D01*
%TO.C,R3*%
X202054000Y-156349000D02*
X203354000Y-156349000D01*
X203354000Y-156349000D02*
X203354000Y-153849000D01*
X203354000Y-153849000D02*
X202054000Y-153849000D01*
X202054000Y-153849000D02*
X202054000Y-156349000D01*
%TO.C,R1*%
X168550000Y-148470000D02*
X169850000Y-148470000D01*
X169850000Y-148470000D02*
X169850000Y-145970000D01*
X169850000Y-145970000D02*
X168550000Y-145970000D01*
X168550000Y-145970000D02*
X168550000Y-148470000D01*
%TO.C,C25*%
X205419000Y-153749000D02*
X207269000Y-153749000D01*
X207269000Y-153749000D02*
X207269000Y-154689000D01*
X207269000Y-154689000D02*
X205419000Y-154689000D01*
X205419000Y-154689000D02*
X205419000Y-153749000D01*
%TO.C,R21*%
X217855000Y-167326000D02*
X218795000Y-167326000D01*
X218795000Y-167326000D02*
X218795000Y-165476000D01*
X218795000Y-165476000D02*
X217855000Y-165476000D01*
X217855000Y-165476000D02*
X217855000Y-167326000D01*
%TO.C,R31*%
X211354000Y-155564000D02*
X212294000Y-155564000D01*
X212294000Y-155564000D02*
X212294000Y-153714000D01*
X212294000Y-153714000D02*
X211354000Y-153714000D01*
X211354000Y-153714000D02*
X211354000Y-155564000D01*
%TO.C,R26*%
X196530000Y-152445000D02*
X197470000Y-152445000D01*
X197470000Y-152445000D02*
X197470000Y-150595000D01*
X197470000Y-150595000D02*
X196530000Y-150595000D01*
X196530000Y-150595000D02*
X196530000Y-152445000D01*
%TO.C,TP7*%
X215199000Y-148099000D02*
G75*
G03*
X214249000Y-148099000I-475000J0D01*
G01*
X214249000Y-148099000D02*
G75*
G03*
X215199000Y-148099000I475000J0D01*
G01*
%TO.C,R34*%
X227759000Y-165510000D02*
X228699000Y-165510000D01*
X228699000Y-165510000D02*
X228699000Y-163660000D01*
X228699000Y-163660000D02*
X227759000Y-163660000D01*
X227759000Y-163660000D02*
X227759000Y-165510000D01*
%TO.C,R43*%
X207930000Y-162639000D02*
X208870000Y-162639000D01*
X208870000Y-162639000D02*
X208870000Y-160789000D01*
X208870000Y-160789000D02*
X207930000Y-160789000D01*
X207930000Y-160789000D02*
X207930000Y-162639000D01*
%TO.C,R36*%
X228699000Y-165640000D02*
X227759000Y-165640000D01*
X227759000Y-165640000D02*
X227759000Y-167490000D01*
X227759000Y-167490000D02*
X228699000Y-167490000D01*
X228699000Y-167490000D02*
X228699000Y-165640000D01*
%TO.C,C33*%
X205269000Y-154689000D02*
X203419000Y-154689000D01*
X203419000Y-154689000D02*
X203419000Y-153749000D01*
X203419000Y-153749000D02*
X205269000Y-153749000D01*
X205269000Y-153749000D02*
X205269000Y-154689000D01*
%TO.C,R25*%
X198470000Y-150595000D02*
X197530000Y-150595000D01*
X197530000Y-150595000D02*
X197530000Y-152445000D01*
X197530000Y-152445000D02*
X198470000Y-152445000D01*
X198470000Y-152445000D02*
X198470000Y-150595000D01*
%TO.C,R44*%
X205580000Y-144344000D02*
X206520000Y-144344000D01*
X206520000Y-144344000D02*
X206520000Y-142494000D01*
X206520000Y-142494000D02*
X205580000Y-142494000D01*
X205580000Y-142494000D02*
X205580000Y-144344000D01*
%TO.C,SW1*%
X209552000Y-141249000D02*
X203150000Y-141249000D01*
X203150000Y-141249000D02*
X203150000Y-137450000D01*
X203150000Y-137450000D02*
X209552000Y-137450000D01*
X209552000Y-137450000D02*
X209552000Y-141249000D01*
%TO.C,R10*%
X172095000Y-143678000D02*
X173945000Y-143678000D01*
X173945000Y-143678000D02*
X173945000Y-144618000D01*
X173945000Y-144618000D02*
X172095000Y-144618000D01*
X172095000Y-144618000D02*
X172095000Y-143678000D01*
%TO.C,C11*%
X221882000Y-167536000D02*
X220942000Y-167536000D01*
X220942000Y-167536000D02*
X220942000Y-169386000D01*
X220942000Y-169386000D02*
X221882000Y-169386000D01*
X221882000Y-169386000D02*
X221882000Y-167536000D01*
%TO.C,R64*%
X166150000Y-148410000D02*
X167450000Y-148410000D01*
X167450000Y-148410000D02*
X167450000Y-145910000D01*
X167450000Y-145910000D02*
X166150000Y-145910000D01*
X166150000Y-145910000D02*
X166150000Y-148410000D01*
%TO.C,C10*%
X198974000Y-166449000D02*
X203624000Y-166449000D01*
X203624000Y-166449000D02*
X203624000Y-168749000D01*
X203624000Y-168749000D02*
X198974000Y-168749000D01*
X198974000Y-168749000D02*
X198974000Y-166449000D01*
%TO.C,C39*%
X206390000Y-159250000D02*
X206390000Y-161350000D01*
X206390000Y-159250000D02*
X205150000Y-159250000D01*
X205150000Y-162275000D02*
X205150000Y-161350000D01*
X205150000Y-162275000D02*
X203575000Y-163850000D01*
X205150000Y-161350000D02*
X206390000Y-161350000D01*
X205150000Y-158325000D02*
X205150000Y-159250000D01*
X203575000Y-163850000D02*
X198050000Y-163850000D01*
X203575000Y-156750000D02*
X205150000Y-158325000D01*
X203575000Y-156750000D02*
X198050000Y-156750000D01*
X198050000Y-163850000D02*
X198050000Y-161350000D01*
X198050000Y-161350000D02*
X196810000Y-161350000D01*
X198050000Y-159250000D02*
X198050000Y-156750000D01*
X196810000Y-161350000D02*
X196810000Y-159250000D01*
X196810000Y-159250000D02*
X198050000Y-159250000D01*
%TO.C,Q1*%
X174020000Y-148008000D02*
X174020000Y-145698000D01*
X174020000Y-148008000D02*
X171800000Y-148008000D01*
X174020000Y-145698000D02*
X171800000Y-145698000D01*
X171800000Y-148008000D02*
X171800000Y-145698000D01*
%TO.C,D5*%
X196483334Y-146350000D02*
X191933334Y-146350000D01*
X191933334Y-146350000D02*
X191933334Y-144250000D01*
X191933334Y-144250000D02*
X196483334Y-144250000D01*
X196483334Y-144250000D02*
X196483334Y-146350000D01*
%TO.C,J1*%
X150234000Y-131503000D02*
X128435000Y-131503000D01*
X128435000Y-131503000D02*
X128435000Y-147803000D01*
X128435000Y-147803000D02*
X150234000Y-147803000D01*
X150234000Y-147803000D02*
X150234000Y-131503000D01*
%TO.C,C1*%
X162400000Y-140850000D02*
X164200000Y-140850000D01*
X164200000Y-140850000D02*
X164200000Y-144750000D01*
X164200000Y-144750000D02*
X162400000Y-144750000D01*
X162400000Y-144750000D02*
X162400000Y-140850000D01*
%TO.C,R59*%
X205625000Y-141429000D02*
X207475000Y-141429000D01*
X207475000Y-141429000D02*
X207475000Y-142369000D01*
X207475000Y-142369000D02*
X205625000Y-142369000D01*
X205625000Y-142369000D02*
X205625000Y-141429000D01*
%TO.C,D3*%
X160100000Y-140600000D02*
X162300000Y-140600000D01*
X162300000Y-145010000D02*
X162300000Y-140600000D01*
X162300000Y-145010000D02*
X160100000Y-145010000D01*
X160100000Y-145010000D02*
X160100000Y-140600000D01*
%TO.C,C4*%
X196414000Y-160100000D02*
X192214000Y-160100000D01*
X192214000Y-160100000D02*
X192214000Y-156600000D01*
X192214000Y-156600000D02*
X196414000Y-156600000D01*
X196414000Y-156600000D02*
X196414000Y-160100000D01*
%TO.C,U7*%
X189525000Y-146575000D02*
X196095000Y-146575000D01*
X196095000Y-146575000D02*
X196095000Y-152415000D01*
X196095000Y-152415000D02*
X189525000Y-152415000D01*
X189525000Y-152415000D02*
X189525000Y-146575000D01*
%TO.C,C31*%
X218242000Y-175725000D02*
X219182000Y-175725000D01*
X219182000Y-175725000D02*
X219182000Y-173875000D01*
X219182000Y-173875000D02*
X218242000Y-173875000D01*
X218242000Y-173875000D02*
X218242000Y-175725000D01*
%TO.C,R20*%
X219550000Y-168910000D02*
X217700000Y-168910000D01*
X217700000Y-168910000D02*
X217700000Y-167970000D01*
X217700000Y-167970000D02*
X219550000Y-167970000D01*
X219550000Y-167970000D02*
X219550000Y-168910000D01*
%TO.C,R49*%
X164350000Y-144890000D02*
X165650000Y-144890000D01*
X165650000Y-144890000D02*
X165650000Y-142390000D01*
X165650000Y-142390000D02*
X164350000Y-142390000D01*
X164350000Y-142390000D02*
X164350000Y-144890000D01*
%TO.C,C28*%
X209354000Y-155564000D02*
X210294000Y-155564000D01*
X210294000Y-155564000D02*
X210294000Y-153714000D01*
X210294000Y-153714000D02*
X209354000Y-153714000D01*
X209354000Y-153714000D02*
X209354000Y-155564000D01*
%TO.C,R14*%
X190880000Y-175495000D02*
X191820000Y-175495000D01*
X191820000Y-175495000D02*
X191820000Y-173645000D01*
X191820000Y-173645000D02*
X190880000Y-173645000D01*
X190880000Y-173645000D02*
X190880000Y-175495000D01*
%TO.C,C40*%
X208846000Y-157789000D02*
X207906000Y-157789000D01*
X207906000Y-157789000D02*
X207906000Y-159639000D01*
X207906000Y-159639000D02*
X208846000Y-159639000D01*
X208846000Y-159639000D02*
X208846000Y-157789000D01*
%TO.C,C37*%
X154350000Y-143650000D02*
X155650000Y-143650000D01*
X155650000Y-143650000D02*
X155650000Y-141150000D01*
X155650000Y-141150000D02*
X154350000Y-141150000D01*
X154350000Y-141150000D02*
X154350000Y-143650000D01*
%TO.C,R35*%
X226759000Y-167530000D02*
X227699000Y-167530000D01*
X227699000Y-167530000D02*
X227699000Y-165680000D01*
X227699000Y-165680000D02*
X226759000Y-165680000D01*
X226759000Y-165680000D02*
X226759000Y-167530000D01*
%TO.C,R63*%
X203694000Y-144774000D02*
X202754000Y-144774000D01*
X202754000Y-144774000D02*
X202754000Y-146624000D01*
X202754000Y-146624000D02*
X203694000Y-146624000D01*
X203694000Y-146624000D02*
X203694000Y-144774000D01*
%TO.C,R30*%
X210354000Y-155564000D02*
X211294000Y-155564000D01*
X211294000Y-155564000D02*
X211294000Y-153714000D01*
X211294000Y-153714000D02*
X210354000Y-153714000D01*
X210354000Y-153714000D02*
X210354000Y-155564000D01*
%TO.C,R51*%
X231859000Y-165410000D02*
X232799000Y-165410000D01*
X232799000Y-165410000D02*
X232799000Y-163560000D01*
X232799000Y-163560000D02*
X231859000Y-163560000D01*
X231859000Y-163560000D02*
X231859000Y-165410000D01*
%TO.C,U8*%
X213576000Y-161394000D02*
X208976000Y-161394000D01*
X208976000Y-161394000D02*
X208976000Y-157794000D01*
X208976000Y-157794000D02*
X213576000Y-157794000D01*
X213576000Y-157794000D02*
X213576000Y-161394000D01*
%TO.C,R17*%
X193880000Y-175495000D02*
X194820000Y-175495000D01*
X194820000Y-175495000D02*
X194820000Y-173645000D01*
X194820000Y-173645000D02*
X193880000Y-173645000D01*
X193880000Y-173645000D02*
X193880000Y-175495000D01*
%TO.C,R33*%
X226759000Y-165510000D02*
X227699000Y-165510000D01*
X227699000Y-165510000D02*
X227699000Y-163660000D01*
X227699000Y-163660000D02*
X226759000Y-163660000D01*
X226759000Y-163660000D02*
X226759000Y-165510000D01*
%TO.C,R61*%
X213895000Y-159328000D02*
X215745000Y-159328000D01*
X215745000Y-159328000D02*
X215745000Y-160268000D01*
X215745000Y-160268000D02*
X213895000Y-160268000D01*
X213895000Y-160268000D02*
X213895000Y-159328000D01*
%TO.C,C24*%
X188457334Y-143825000D02*
X190757334Y-143825000D01*
X190757334Y-143825000D02*
X190757334Y-139175000D01*
X190757334Y-139175000D02*
X188457334Y-139175000D01*
X188457334Y-139175000D02*
X188457334Y-143825000D01*
%TO.C,U3*%
X227679000Y-163365000D02*
X231179000Y-163365000D01*
X231179000Y-163365000D02*
X231179000Y-159865000D01*
X231179000Y-159865000D02*
X227679000Y-159865000D01*
X227679000Y-159865000D02*
X227679000Y-163365000D01*
%TO.C,R8*%
X173925000Y-145618000D02*
X172075000Y-145618000D01*
X172075000Y-145618000D02*
X172075000Y-144678000D01*
X172075000Y-144678000D02*
X173925000Y-144678000D01*
X173925000Y-144678000D02*
X173925000Y-145618000D01*
%TO.C,J3*%
X231745000Y-161179000D02*
X240045000Y-161179000D01*
X240045000Y-161179000D02*
X240045000Y-150979000D01*
X240045000Y-150979000D02*
X231745000Y-150979000D01*
X231745000Y-150979000D02*
X231745000Y-161179000D01*
%TO.C,REF\u002A\u002A*%
X166430000Y-131160000D02*
X174970000Y-131160000D01*
X174970000Y-131160000D02*
X174970000Y-138680000D01*
X174970000Y-138680000D02*
X166430000Y-138680000D01*
X166430000Y-138680000D02*
X166430000Y-131160000D01*
X176438000Y-131708000D02*
X191042000Y-131708000D01*
X191042000Y-131708000D02*
X191042000Y-138252000D01*
X191042000Y-138252000D02*
X176438000Y-138252000D01*
X176438000Y-138252000D02*
X176438000Y-131708000D01*
%TO.C,R52*%
X231650000Y-152660000D02*
X228150000Y-152660000D01*
X228150000Y-152660000D02*
X228150000Y-159340000D01*
X228150000Y-159340000D02*
X231650000Y-159340000D01*
X231650000Y-159340000D02*
X231650000Y-152660000D01*
%TO.C,R13*%
X190820000Y-173645000D02*
X189880000Y-173645000D01*
X189880000Y-173645000D02*
X189880000Y-175495000D01*
X189880000Y-175495000D02*
X190820000Y-175495000D01*
X190820000Y-175495000D02*
X190820000Y-173645000D01*
%TO.C,L1*%
X201300000Y-176525000D02*
X207300000Y-176525000D01*
X207300000Y-176525000D02*
X207300000Y-170725000D01*
X207300000Y-170725000D02*
X201300000Y-170725000D01*
X201300000Y-170725000D02*
X201300000Y-176525000D01*
%TO.C,C16*%
X204919000Y-152729000D02*
X206769000Y-152729000D01*
X206769000Y-152729000D02*
X206769000Y-153669000D01*
X206769000Y-153669000D02*
X204919000Y-153669000D01*
X204919000Y-153669000D02*
X204919000Y-152729000D01*
%TO.C,R23*%
X218880000Y-163431000D02*
X220730000Y-163431000D01*
X220730000Y-163431000D02*
X220730000Y-164371000D01*
X220730000Y-164371000D02*
X218880000Y-164371000D01*
X218880000Y-164371000D02*
X218880000Y-163431000D01*
%TO.C,R41*%
X230859000Y-165430000D02*
X231799000Y-165430000D01*
X231799000Y-165430000D02*
X231799000Y-163580000D01*
X231799000Y-163580000D02*
X230859000Y-163580000D01*
X230859000Y-163580000D02*
X230859000Y-165430000D01*
%TO.C,R54*%
X218880000Y-164431000D02*
X220730000Y-164431000D01*
X220730000Y-164431000D02*
X220730000Y-165371000D01*
X220730000Y-165371000D02*
X218880000Y-165371000D01*
X218880000Y-165371000D02*
X218880000Y-164431000D01*
%TO.C,TP4*%
X209899000Y-143899000D02*
G75*
G03*
X208949000Y-143899000I-475000J0D01*
G01*
X208949000Y-143899000D02*
G75*
G03*
X209899000Y-143899000I475000J0D01*
G01*
%TO.C,R39*%
X229859000Y-167410000D02*
X230799000Y-167410000D01*
X230799000Y-167410000D02*
X230799000Y-165560000D01*
X230799000Y-165560000D02*
X229859000Y-165560000D01*
X229859000Y-165560000D02*
X229859000Y-167410000D01*
%TO.C,U9*%
X216163000Y-157498000D02*
X223413000Y-157498000D01*
X223413000Y-157498000D02*
X223413000Y-162898000D01*
X223413000Y-162898000D02*
X216163000Y-162898000D01*
X216163000Y-162898000D02*
X216163000Y-157498000D01*
%TO.C,C12*%
X219182000Y-171895000D02*
X218242000Y-171895000D01*
X218242000Y-171895000D02*
X218242000Y-173745000D01*
X218242000Y-173745000D02*
X219182000Y-173745000D01*
X219182000Y-173745000D02*
X219182000Y-171895000D01*
%TO.C,R53*%
X218880000Y-165431000D02*
X220730000Y-165431000D01*
X220730000Y-165431000D02*
X220730000Y-166371000D01*
X220730000Y-166371000D02*
X218880000Y-166371000D01*
X218880000Y-166371000D02*
X218880000Y-165431000D01*
%TO.C,R5*%
X167530000Y-148185000D02*
X168470000Y-148185000D01*
X168470000Y-148185000D02*
X168470000Y-146335000D01*
X168470000Y-146335000D02*
X167530000Y-146335000D01*
X167530000Y-146335000D02*
X167530000Y-148185000D01*
%TO.C,C38*%
X219250000Y-131450000D02*
X216750000Y-131450000D01*
X216750000Y-131450000D02*
X216750000Y-130150000D01*
X216750000Y-130150000D02*
X219250000Y-130150000D01*
X219250000Y-130150000D02*
X219250000Y-131450000D01*
%TO.C,R22*%
X218900000Y-166431000D02*
X220750000Y-166431000D01*
X220750000Y-166431000D02*
X220750000Y-167371000D01*
X220750000Y-167371000D02*
X218900000Y-167371000D01*
X218900000Y-167371000D02*
X218900000Y-166431000D01*
%TO.C,R62*%
X207870000Y-160789000D02*
X206930000Y-160789000D01*
X206930000Y-160789000D02*
X206930000Y-162639000D01*
X206930000Y-162639000D02*
X207870000Y-162639000D01*
X207870000Y-162639000D02*
X207870000Y-160789000D01*
%TO.C,R4*%
X172095000Y-142630000D02*
X173945000Y-142630000D01*
X173945000Y-142630000D02*
X173945000Y-143570000D01*
X173945000Y-143570000D02*
X172095000Y-143570000D01*
X172095000Y-143570000D02*
X172095000Y-142630000D01*
%TO.C,R18*%
X195820000Y-173625000D02*
X194880000Y-173625000D01*
X194880000Y-173625000D02*
X194880000Y-175475000D01*
X194880000Y-175475000D02*
X195820000Y-175475000D01*
X195820000Y-175475000D02*
X195820000Y-173625000D01*
%TO.C,C22*%
X190825000Y-143950000D02*
X189525000Y-143950000D01*
X189525000Y-143950000D02*
X189525000Y-146450000D01*
X189525000Y-146450000D02*
X190825000Y-146450000D01*
X190825000Y-146450000D02*
X190825000Y-143950000D01*
%TO.C,FB3*%
X223262000Y-168990000D02*
X221962000Y-168990000D01*
X221962000Y-168990000D02*
X221962000Y-171490000D01*
X221962000Y-171490000D02*
X223262000Y-171490000D01*
X223262000Y-171490000D02*
X223262000Y-168990000D01*
%TO.C,R57*%
X208551000Y-156724000D02*
X210401000Y-156724000D01*
X210401000Y-156724000D02*
X210401000Y-157664000D01*
X210401000Y-157664000D02*
X208551000Y-157664000D01*
X208551000Y-157664000D02*
X208551000Y-156724000D01*
%TO.C,D2*%
X159550000Y-143970000D02*
X154350000Y-143970000D01*
X154350000Y-143970000D02*
X154350000Y-148170000D01*
X154350000Y-148170000D02*
X159550000Y-148170000D01*
X159550000Y-148170000D02*
X159550000Y-143970000D01*
%TO.C,R12*%
X188950000Y-162650000D02*
X190250000Y-162650000D01*
X190250000Y-162650000D02*
X190250000Y-160150000D01*
X190250000Y-160150000D02*
X188950000Y-160150000D01*
X188950000Y-160150000D02*
X188950000Y-162650000D01*
%TO.C,R56*%
X211999000Y-145129000D02*
X213849000Y-145129000D01*
X213849000Y-145129000D02*
X213849000Y-146069000D01*
X213849000Y-146069000D02*
X211999000Y-146069000D01*
X211999000Y-146069000D02*
X211999000Y-145129000D01*
%TO.C,FB2*%
X223262000Y-166390000D02*
X221962000Y-166390000D01*
X221962000Y-166390000D02*
X221962000Y-168890000D01*
X221962000Y-168890000D02*
X223262000Y-168890000D01*
X223262000Y-168890000D02*
X223262000Y-166390000D01*
%TO.C,R29*%
X209269000Y-155669000D02*
X207419000Y-155669000D01*
X207419000Y-155669000D02*
X207419000Y-154729000D01*
X207419000Y-154729000D02*
X209269000Y-154729000D01*
X209269000Y-154729000D02*
X209269000Y-155669000D01*
%TO.C,U4*%
X128410000Y-148670000D02*
X188830000Y-148670000D01*
X188830000Y-148670000D02*
X188830000Y-173530000D01*
X188830000Y-173530000D02*
X128410000Y-173530000D01*
X128410000Y-173530000D02*
X128410000Y-148670000D01*
%TO.C,C6*%
X195450000Y-165150000D02*
X192950000Y-165150000D01*
X192950000Y-165150000D02*
X192950000Y-163850000D01*
X192950000Y-163850000D02*
X195450000Y-163850000D01*
X195450000Y-163850000D02*
X195450000Y-165150000D01*
%TO.C,TP1*%
X217062000Y-164713000D02*
G75*
G03*
X215362000Y-164713000I-850000J0D01*
G01*
X215362000Y-164713000D02*
G75*
G03*
X217062000Y-164713000I850000J0D01*
G01*
%TO.C,TP5*%
X215199000Y-150099000D02*
G75*
G03*
X214249000Y-150099000I-475000J0D01*
G01*
X214249000Y-150099000D02*
G75*
G03*
X215199000Y-150099000I475000J0D01*
G01*
%TO.C,C27*%
X207520000Y-142494000D02*
X206580000Y-142494000D01*
X206580000Y-142494000D02*
X206580000Y-144344000D01*
X206580000Y-144344000D02*
X207520000Y-144344000D01*
X207520000Y-144344000D02*
X207520000Y-142494000D01*
%TO.C,R32*%
X202734000Y-148624000D02*
X203674000Y-148624000D01*
X203674000Y-148624000D02*
X203674000Y-146774000D01*
X203674000Y-146774000D02*
X202734000Y-146774000D01*
X202734000Y-146774000D02*
X202734000Y-148624000D01*
%TO.C,C7*%
X194125000Y-173470000D02*
X192275000Y-173470000D01*
X192275000Y-173470000D02*
X192275000Y-172530000D01*
X192275000Y-172530000D02*
X194125000Y-172530000D01*
X194125000Y-172530000D02*
X194125000Y-173470000D01*
%TD*%
M02*
