%TF.GenerationSoftware,KiCad,Pcbnew,7.0.11+dfsg-1build4*%
%TF.CreationDate,2024-07-19T16:51:39+02:00*%
%TF.ProjectId,antmicro-poe-to-usbc-pd-adapter,616e746d-6963-4726-9f2d-706f652d746f,rev?*%
%TF.SameCoordinates,Original*%
%TF.FileFunction,Soldermask,Bot*%
%TF.FilePolarity,Negative*%
%FSLAX46Y46*%
G04 Gerber Fmt 4.6, Leading zero omitted, Abs format (unit mm)*
G04 Created by KiCad (PCBNEW 7.0.11+dfsg-1build4) date 2024-07-19 16:51:39 commit  9a9195e *
%MOMM*%
%LPD*%
G01*
G04 APERTURE LIST*
%ADD10C,5.400000*%
%ADD11C,0.400000*%
%ADD12C,3.250000*%
%ADD13C,1.408000*%
%ADD14C,1.530000*%
%ADD15C,2.400000*%
%ADD16C,1.397000*%
%ADD17C,1.524000*%
%ADD18C,2.100000*%
%ADD19C,2.108200*%
%ADD20C,0.650000*%
%ADD21O,2.100000X1.050000*%
%ADD22O,2.000000X1.000000*%
%ADD23C,2.030000*%
%ADD24C,2.590000*%
G04 APERTURE END LIST*
D10*
%TO.C,REF\u002A\u002A*%
X237800000Y-177000000D03*
%TD*%
D11*
%TO.C,U2*%
X193940000Y-168240000D03*
X192670000Y-168240000D03*
X193940000Y-169540000D03*
X192670000Y-169540000D03*
%TD*%
D12*
%TO.C,J2*%
X228720000Y-146405000D03*
X228720000Y-134975000D03*
D13*
X219829000Y-146405000D03*
X222370000Y-145135000D03*
X219829000Y-143865000D03*
X222370000Y-142595000D03*
X219829000Y-141325000D03*
X222370000Y-140054000D03*
X219829000Y-138785000D03*
X222370000Y-137514000D03*
X219829000Y-136245000D03*
X222370000Y-134975000D03*
D14*
X232800000Y-147320000D03*
X232800000Y-144780000D03*
X232800000Y-136600000D03*
X232800000Y-134059000D03*
D15*
X225671000Y-148435000D03*
X225671000Y-132943000D03*
%TD*%
D10*
%TO.C,REF\u002A\u002A*%
X131500000Y-176800000D03*
%TD*%
%TO.C,REF\u002A\u002A*%
X237800000Y-128400000D03*
%TD*%
%TO.C,REF\u002A\u002A*%
X131500000Y-128400000D03*
%TD*%
D12*
%TO.C,J1*%
X139534000Y-133903000D03*
X139534000Y-145332000D03*
D16*
X148434000Y-133903000D03*
X145895000Y-135172000D03*
X148434000Y-136442000D03*
X145895000Y-137712000D03*
X148434000Y-138981000D03*
X145895000Y-140252000D03*
X148434000Y-141521000D03*
X145895000Y-142793000D03*
X148434000Y-144062000D03*
X145895000Y-145332000D03*
X143356000Y-133903000D03*
X142095000Y-136442000D03*
X142095000Y-142793000D03*
X143364000Y-145332000D03*
D17*
X135476000Y-132976000D03*
X135476000Y-135517000D03*
X135476000Y-143717000D03*
X135476000Y-146258000D03*
D18*
X142584000Y-131767000D03*
D19*
X142584000Y-147466000D03*
%TD*%
D11*
%TO.C,U7*%
X192165000Y-148860000D03*
X192165000Y-150130000D03*
X193465000Y-148860000D03*
X193465000Y-150130000D03*
%TD*%
D20*
%TO.C,J3*%
X233719000Y-158970000D03*
X233719000Y-153189000D03*
D21*
X233219000Y-160400000D03*
D22*
X237400000Y-160400000D03*
D21*
X233219000Y-151759000D03*
D22*
X237400000Y-151759000D03*
%TD*%
D23*
%TO.C,U4*%
X133220000Y-153480000D03*
X133220000Y-161100000D03*
X133220000Y-168720000D03*
D24*
X184020000Y-168720000D03*
D23*
X184020000Y-164910000D03*
X184020000Y-161100000D03*
X184020000Y-157290000D03*
D24*
X184020000Y-153480000D03*
%TD*%
M02*
