%TF.GenerationSoftware,KiCad,Pcbnew,7.0.11+dfsg-1build4*%
%TF.CreationDate,2024-07-19T16:51:39+02:00*%
%TF.ProjectId,antmicro-poe-to-usbc-pd-adapter,616e746d-6963-4726-9f2d-706f652d746f,rev?*%
%TF.SameCoordinates,Original*%
%TF.FileFunction,Paste,Top*%
%TF.FilePolarity,Positive*%
%FSLAX46Y46*%
G04 Gerber Fmt 4.6, Leading zero omitted, Abs format (unit mm)*
G04 Created by KiCad (PCBNEW 7.0.11+dfsg-1build4) date 2024-07-19 16:51:39 commit  9a9195e *
%MOMM*%
%LPD*%
G01*
G04 APERTURE LIST*
G04 Aperture macros list*
%AMRoundRect*
0 Rectangle with rounded corners*
0 $1 Rounding radius*
0 $2 $3 $4 $5 $6 $7 $8 $9 X,Y pos of 4 corners*
0 Add a 4 corners polygon primitive as box body*
4,1,4,$2,$3,$4,$5,$6,$7,$8,$9,$2,$3,0*
0 Add four circle primitives for the rounded corners*
1,1,$1+$1,$2,$3*
1,1,$1+$1,$4,$5*
1,1,$1+$1,$6,$7*
1,1,$1+$1,$8,$9*
0 Add four rect primitives between the rounded corners*
20,1,$1+$1,$2,$3,$4,$5,0*
20,1,$1+$1,$4,$5,$6,$7,0*
20,1,$1+$1,$6,$7,$8,$9,0*
20,1,$1+$1,$8,$9,$2,$3,0*%
%AMOutline5P*
0 Free polygon, 5 corners , with rotation*
0 The origin of the aperture is its center*
0 number of corners: always 5*
0 $1 to $10 corner X, Y*
0 $11 Rotation angle, in degrees counterclockwise*
0 create outline with 5 corners*
4,1,5,$1,$2,$3,$4,$5,$6,$7,$8,$9,$10,$1,$2,$11*%
%AMOutline6P*
0 Free polygon, 6 corners , with rotation*
0 The origin of the aperture is its center*
0 number of corners: always 6*
0 $1 to $12 corner X, Y*
0 $13 Rotation angle, in degrees counterclockwise*
0 create outline with 6 corners*
4,1,6,$1,$2,$3,$4,$5,$6,$7,$8,$9,$10,$11,$12,$1,$2,$13*%
%AMOutline7P*
0 Free polygon, 7 corners , with rotation*
0 The origin of the aperture is its center*
0 number of corners: always 7*
0 $1 to $14 corner X, Y*
0 $15 Rotation angle, in degrees counterclockwise*
0 create outline with 7 corners*
4,1,7,$1,$2,$3,$4,$5,$6,$7,$8,$9,$10,$11,$12,$13,$14,$1,$2,$15*%
%AMOutline8P*
0 Free polygon, 8 corners , with rotation*
0 The origin of the aperture is its center*
0 number of corners: always 8*
0 $1 to $16 corner X, Y*
0 $17 Rotation angle, in degrees counterclockwise*
0 create outline with 8 corners*
4,1,8,$1,$2,$3,$4,$5,$6,$7,$8,$9,$10,$11,$12,$13,$14,$15,$16,$1,$2,$17*%
G04 Aperture macros list end*
%ADD10C,0.010000*%
%ADD11C,0.000100*%
%ADD12C,0.020000*%
%ADD13RoundRect,0.147500X0.147500X0.172500X-0.147500X0.172500X-0.147500X-0.172500X0.147500X-0.172500X0*%
%ADD14R,0.650000X1.525000*%
%ADD15R,3.400000X2.710000*%
%ADD16RoundRect,0.147500X-0.147500X-0.172500X0.147500X-0.172500X0.147500X0.172500X-0.147500X0.172500X0*%
%ADD17RoundRect,0.147500X0.172500X-0.147500X0.172500X0.147500X-0.172500X0.147500X-0.172500X-0.147500X0*%
%ADD18RoundRect,0.050000X0.050000X-0.300000X0.050000X0.300000X-0.050000X0.300000X-0.050000X-0.300000X0*%
%ADD19RoundRect,0.050000X0.300000X0.050000X-0.300000X0.050000X-0.300000X-0.050000X0.300000X-0.050000X0*%
%ADD20RoundRect,0.147500X-0.172500X0.147500X-0.172500X-0.147500X0.172500X-0.147500X0.172500X0.147500X0*%
%ADD21R,3.050000X1.520000*%
%ADD22RoundRect,0.250000X0.315000X0.315000X-0.315000X0.315000X-0.315000X-0.315000X0.315000X-0.315000X0*%
%ADD23RoundRect,0.075000X0.362500X0.075000X-0.362500X0.075000X-0.362500X-0.075000X0.362500X-0.075000X0*%
%ADD24RoundRect,0.075000X-0.075000X0.362500X-0.075000X-0.362500X0.075000X-0.362500X0.075000X0.362500X0*%
%ADD25RoundRect,0.077500X-0.297500X-0.077500X0.297500X-0.077500X0.297500X0.077500X-0.297500X0.077500X0*%
%ADD26RoundRect,0.077500X-0.077500X-0.297500X0.077500X-0.297500X0.077500X0.297500X-0.077500X0.297500X0*%
%ADD27RoundRect,0.160000X0.240000X0.340000X-0.240000X0.340000X-0.240000X-0.340000X0.240000X-0.340000X0*%
%ADD28R,1.520000X3.050000*%
%ADD29RoundRect,0.160000X-0.340000X0.240000X-0.340000X-0.240000X0.340000X-0.240000X0.340000X0.240000X0*%
%ADD30RoundRect,0.125000X-0.175000X0.125000X-0.175000X-0.125000X0.175000X-0.125000X0.175000X0.125000X0*%
%ADD31RoundRect,0.080000X2.070000X-0.320000X2.070000X0.320000X-2.070000X0.320000X-2.070000X-0.320000X0*%
%ADD32RoundRect,0.120000X-0.580000X-0.120000X0.580000X-0.120000X0.580000X0.120000X-0.580000X0.120000X0*%
%ADD33RoundRect,0.287500X0.612500X-0.287500X0.612500X0.287500X-0.612500X0.287500X-0.612500X-0.287500X0*%
%ADD34RoundRect,0.287500X-0.287500X-0.612500X0.287500X-0.612500X0.287500X0.612500X-0.287500X0.612500X0*%
%ADD35RoundRect,0.168000X1.512000X2.262000X-1.512000X2.262000X-1.512000X-2.262000X1.512000X-2.262000X0*%
%ADD36RoundRect,0.347500X-0.347500X-0.352500X0.347500X-0.352500X0.347500X0.352500X-0.347500X0.352500X0*%
%ADD37RoundRect,0.347500X0.347500X0.352500X-0.347500X0.352500X-0.347500X-0.352500X0.347500X-0.352500X0*%
%ADD38Outline5P,-0.650000X0.550000X0.650000X0.550000X0.650000X-0.550000X-0.430000X-0.550000X-0.650000X-0.330000X270.000000*%
%ADD39R,1.100000X1.300000*%
%ADD40RoundRect,0.160000X0.340000X-0.240000X0.340000X0.240000X-0.340000X0.240000X-0.340000X-0.240000X0*%
%ADD41R,1.000000X1.600000*%
%ADD42RoundRect,0.160000X1.590000X0.640000X-1.590000X0.640000X-1.590000X-0.640000X1.590000X-0.640000X0*%
%ADD43R,0.400000X0.510000*%
%ADD44RoundRect,0.135000X0.315000X0.340000X-0.315000X0.340000X-0.315000X-0.340000X0.315000X-0.340000X0*%
%ADD45RoundRect,0.300000X0.350000X-0.300000X0.350000X0.300000X-0.350000X0.300000X-0.350000X-0.300000X0*%
%ADD46RoundRect,0.300000X-0.300000X0.300000X-0.300000X-0.300000X0.300000X-0.300000X0.300000X0.300000X0*%
%ADD47R,1.525000X0.650000*%
%ADD48R,2.710000X3.400000*%
%ADD49RoundRect,0.100000X0.100000X-0.100000X0.100000X0.100000X-0.100000X0.100000X-0.100000X-0.100000X0*%
%ADD50O,0.850000X0.190000*%
%ADD51O,0.190000X0.850000*%
%ADD52RoundRect,0.050000X0.075000X-0.250000X0.075000X0.250000X-0.075000X0.250000X-0.075000X-0.250000X0*%
%ADD53RoundRect,0.050000X0.250000X0.075000X-0.250000X0.075000X-0.250000X-0.075000X0.250000X-0.075000X0*%
%ADD54RoundRect,0.050000X-0.075000X0.250000X-0.075000X-0.250000X0.075000X-0.250000X0.075000X0.250000X0*%
%ADD55RoundRect,0.050000X-0.250000X-0.075000X0.250000X-0.075000X0.250000X0.075000X-0.250000X0.075000X0*%
%ADD56RoundRect,0.050000X0.790000X-0.790000X0.790000X0.790000X-0.790000X0.790000X-0.790000X-0.790000X0*%
%ADD57RoundRect,0.150000X0.425000X-0.150000X0.425000X0.150000X-0.425000X0.150000X-0.425000X-0.150000X0*%
%ADD58RoundRect,0.075000X0.500000X-0.075000X0.500000X0.075000X-0.500000X0.075000X-0.500000X-0.075000X0*%
%ADD59R,2.750000X1.500000*%
%ADD60RoundRect,0.125000X2.225000X-0.500000X2.225000X0.500000X-2.225000X0.500000X-2.225000X-0.500000X0*%
%ADD61RoundRect,0.162500X0.600000X-0.162500X0.600000X0.162500X-0.600000X0.162500X-0.600000X-0.162500X0*%
G04 APERTURE END LIST*
%TO.C,U6*%
D10*
X206200000Y-151257000D02*
X205049000Y-151257000D01*
X205049000Y-149788000D01*
X206200000Y-149788000D01*
X206200000Y-151257000D01*
G36*
X206200000Y-151257000D02*
G01*
X205049000Y-151257000D01*
X205049000Y-149788000D01*
X206200000Y-149788000D01*
X206200000Y-151257000D01*
G37*
X207549000Y-151257000D02*
X206400000Y-151257000D01*
X206400000Y-149788000D01*
X207549000Y-149788000D01*
X207549000Y-151257000D01*
G36*
X207549000Y-151257000D02*
G01*
X206400000Y-151257000D01*
X206400000Y-149788000D01*
X207549000Y-149788000D01*
X207549000Y-151257000D01*
G37*
X209125000Y-151257000D02*
X207976000Y-151257000D01*
X207976000Y-149788000D01*
X209125000Y-149788000D01*
X209125000Y-151257000D01*
G36*
X209125000Y-151257000D02*
G01*
X207976000Y-151257000D01*
X207976000Y-149788000D01*
X209125000Y-149788000D01*
X209125000Y-151257000D01*
G37*
X210476000Y-151257000D02*
X209325000Y-151257000D01*
X209325000Y-149788000D01*
X210476000Y-149788000D01*
X210476000Y-151257000D01*
G36*
X210476000Y-151257000D02*
G01*
X209325000Y-151257000D01*
X209325000Y-149788000D01*
X210476000Y-149788000D01*
X210476000Y-151257000D01*
G37*
X206331000Y-149169000D02*
X205211000Y-149169000D01*
X205211000Y-147698000D01*
X206331000Y-147698000D01*
X206331000Y-149169000D01*
G36*
X206331000Y-149169000D02*
G01*
X205211000Y-149169000D01*
X205211000Y-147698000D01*
X206331000Y-147698000D01*
X206331000Y-149169000D01*
G37*
X207649000Y-149169000D02*
X206531000Y-149169000D01*
X206531000Y-147698000D01*
X207649000Y-147698000D01*
X207649000Y-149169000D01*
G36*
X207649000Y-149169000D02*
G01*
X206531000Y-149169000D01*
X206531000Y-147698000D01*
X207649000Y-147698000D01*
X207649000Y-149169000D01*
G37*
X208970000Y-149169000D02*
X207851000Y-149169000D01*
X207851000Y-147698000D01*
X208970000Y-147698000D01*
X208970000Y-149169000D01*
G36*
X208970000Y-149169000D02*
G01*
X207851000Y-149169000D01*
X207851000Y-147698000D01*
X208970000Y-147698000D01*
X208970000Y-149169000D01*
G37*
X210290000Y-149169000D02*
X209170000Y-149169000D01*
X209170000Y-147698000D01*
X210290000Y-147698000D01*
X210290000Y-149169000D01*
G36*
X210290000Y-149169000D02*
G01*
X209170000Y-149169000D01*
X209170000Y-147698000D01*
X210290000Y-147698000D01*
X210290000Y-149169000D01*
G37*
X206331000Y-147499000D02*
X205211000Y-147499000D01*
X205211000Y-146027000D01*
X206331000Y-146027000D01*
X206331000Y-147499000D01*
G36*
X206331000Y-147499000D02*
G01*
X205211000Y-147499000D01*
X205211000Y-146027000D01*
X206331000Y-146027000D01*
X206331000Y-147499000D01*
G37*
X207649000Y-147499000D02*
X206531000Y-147499000D01*
X206531000Y-146027000D01*
X207649000Y-146027000D01*
X207649000Y-147499000D01*
G36*
X207649000Y-147499000D02*
G01*
X206531000Y-147499000D01*
X206531000Y-146027000D01*
X207649000Y-146027000D01*
X207649000Y-147499000D01*
G37*
X208970000Y-147499000D02*
X207851000Y-147499000D01*
X207851000Y-146027000D01*
X208970000Y-146027000D01*
X208970000Y-147499000D01*
G36*
X208970000Y-147499000D02*
G01*
X207851000Y-147499000D01*
X207851000Y-146027000D01*
X208970000Y-146027000D01*
X208970000Y-147499000D01*
G37*
X210290000Y-147499000D02*
X209170000Y-147499000D01*
X209170000Y-146027000D01*
X210290000Y-146027000D01*
X210290000Y-147499000D01*
G36*
X210290000Y-147499000D02*
G01*
X209170000Y-147499000D01*
X209170000Y-146027000D01*
X210290000Y-146027000D01*
X210290000Y-147499000D01*
G37*
D11*
X210407000Y-151648000D02*
X210411000Y-151648000D01*
X210412000Y-151650000D01*
X210415000Y-151650000D01*
X210419000Y-151651000D01*
X210423000Y-151652000D01*
X210424000Y-151655000D01*
X210427000Y-151655000D01*
X210428000Y-151658000D01*
X210431000Y-151659000D01*
X210432000Y-151660000D01*
X210435000Y-151663000D01*
X210436000Y-151664000D01*
X210440000Y-151667000D01*
X210440000Y-151668000D01*
X210443000Y-151671000D01*
X210444000Y-151672000D01*
X210444000Y-151675000D01*
X210447000Y-151678000D01*
X210448000Y-151679000D01*
X210448000Y-151683000D01*
X210448000Y-151684000D01*
X210448000Y-151687000D01*
X210448000Y-151690000D01*
X210451000Y-151692000D01*
X210451000Y-151695000D01*
X210451000Y-151698000D01*
X210451000Y-152297000D01*
X210451000Y-152300000D01*
X210451000Y-152303000D01*
X210448000Y-152305000D01*
X210448000Y-152308000D01*
X210448000Y-152311000D01*
X210448000Y-152312000D01*
X210448000Y-152316000D01*
X210447000Y-152317000D01*
X210444000Y-152320000D01*
X210444000Y-152323000D01*
X210443000Y-152324000D01*
X210440000Y-152327000D01*
X210440000Y-152328000D01*
X210436000Y-152331000D01*
X210435000Y-152332000D01*
X210432000Y-152335000D01*
X210431000Y-152336000D01*
X210428000Y-152337000D01*
X210427000Y-152340000D01*
X210424000Y-152340000D01*
X210423000Y-152343000D01*
X210419000Y-152344000D01*
X210415000Y-152345000D01*
X210412000Y-152345000D01*
X210411000Y-152347000D01*
X210407000Y-152347000D01*
X210404000Y-152348000D01*
X210403000Y-152348000D01*
X210399000Y-152348000D01*
X210299000Y-152348000D01*
X210298000Y-152348000D01*
X210294000Y-152348000D01*
X210291000Y-152347000D01*
X210290000Y-152347000D01*
X210286000Y-152345000D01*
X210282000Y-152344000D01*
X210279000Y-152344000D01*
X210278000Y-152343000D01*
X210274000Y-152340000D01*
X210270000Y-152337000D01*
X210270000Y-152336000D01*
X210266000Y-152335000D01*
X210266000Y-152332000D01*
X210262000Y-152331000D01*
X210262000Y-152328000D01*
X210259000Y-152327000D01*
X210258000Y-152324000D01*
X210258000Y-152323000D01*
X210254000Y-152320000D01*
X210254000Y-152317000D01*
X210254000Y-152316000D01*
X210251000Y-152312000D01*
X210251000Y-152311000D01*
X210250000Y-152308000D01*
X210250000Y-152305000D01*
X210250000Y-152303000D01*
X210250000Y-152300000D01*
X210250000Y-152297000D01*
X210250000Y-151897000D01*
X210250000Y-151894000D01*
X210250000Y-151893000D01*
X210250000Y-151889000D01*
X210249000Y-151885000D01*
X210249000Y-151882000D01*
X210246000Y-151881000D01*
X210246000Y-151877000D01*
X210246000Y-151874000D01*
X210242000Y-151873000D01*
X210242000Y-151870000D01*
X210241000Y-151869000D01*
X210238000Y-151866000D01*
X210238000Y-151865000D01*
X210234000Y-151862000D01*
X210234000Y-151861000D01*
X210230000Y-151858000D01*
X210230000Y-151857000D01*
X210226000Y-151857000D01*
X210226000Y-151854000D01*
X210222000Y-151853000D01*
X210221000Y-151853000D01*
X210218000Y-151850000D01*
X210214000Y-151849000D01*
X210210000Y-151849000D01*
X210209000Y-151849000D01*
X210206000Y-151849000D01*
X210202000Y-151849000D01*
X210201000Y-151849000D01*
X210101000Y-151849000D01*
X210097000Y-151849000D01*
X210096000Y-151849000D01*
X210093000Y-151849000D01*
X210089000Y-151849000D01*
X210088000Y-151849000D01*
X210085000Y-151849000D01*
X210081000Y-151850000D01*
X210081000Y-151853000D01*
X210077000Y-151853000D01*
X210076000Y-151854000D01*
X210073000Y-151857000D01*
X210072000Y-151857000D01*
X210069000Y-151858000D01*
X210068000Y-151861000D01*
X210065000Y-151862000D01*
X210064000Y-151865000D01*
X210061000Y-151866000D01*
X210061000Y-151869000D01*
X210057000Y-151870000D01*
X210057000Y-151873000D01*
X210056000Y-151874000D01*
X210053000Y-151877000D01*
X210052000Y-151881000D01*
X210052000Y-151882000D01*
X210052000Y-151885000D01*
X210052000Y-151889000D01*
X210049000Y-151893000D01*
X210049000Y-151894000D01*
X210049000Y-151897000D01*
X210049000Y-152297000D01*
X210049000Y-152300000D01*
X210049000Y-152303000D01*
X210048000Y-152305000D01*
X210048000Y-152308000D01*
X210048000Y-152311000D01*
X210048000Y-152312000D01*
X210048000Y-152316000D01*
X210045000Y-152317000D01*
X210044000Y-152320000D01*
X210044000Y-152323000D01*
X210041000Y-152324000D01*
X210040000Y-152327000D01*
X210040000Y-152328000D01*
X210036000Y-152331000D01*
X210036000Y-152332000D01*
X210032000Y-152335000D01*
X210032000Y-152336000D01*
X210028000Y-152337000D01*
X210028000Y-152340000D01*
X210024000Y-152340000D01*
X210024000Y-152343000D01*
X210020000Y-152344000D01*
X210017000Y-152344000D01*
X210016000Y-152345000D01*
X210012000Y-152345000D01*
X210009000Y-152347000D01*
X210008000Y-152347000D01*
X210004000Y-152348000D01*
X210000000Y-152348000D01*
X209899000Y-152348000D01*
X209896000Y-152348000D01*
X209895000Y-152348000D01*
X209891000Y-152347000D01*
X209887000Y-152345000D01*
X209884000Y-152345000D01*
X209883000Y-152344000D01*
X209879000Y-152344000D01*
X209876000Y-152343000D01*
X209875000Y-152340000D01*
X209874000Y-152340000D01*
X209871000Y-152337000D01*
X209870000Y-152336000D01*
X209867000Y-152335000D01*
X209866000Y-152332000D01*
X209863000Y-152331000D01*
X209862000Y-152328000D01*
X209859000Y-152327000D01*
X209859000Y-152324000D01*
X209858000Y-152323000D01*
X209855000Y-152320000D01*
X209855000Y-152317000D01*
X209854000Y-152316000D01*
X209851000Y-152312000D01*
X209851000Y-152311000D01*
X209851000Y-152308000D01*
X209851000Y-152305000D01*
X209851000Y-152303000D01*
X209851000Y-152300000D01*
X209851000Y-152297000D01*
X209851000Y-151698000D01*
X209851000Y-151695000D01*
X209851000Y-151692000D01*
X209851000Y-151690000D01*
X209851000Y-151687000D01*
X209851000Y-151684000D01*
X209851000Y-151683000D01*
X209854000Y-151679000D01*
X209855000Y-151678000D01*
X209855000Y-151675000D01*
X209858000Y-151672000D01*
X209859000Y-151671000D01*
X209859000Y-151668000D01*
X209862000Y-151667000D01*
X209863000Y-151664000D01*
X209866000Y-151663000D01*
X209867000Y-151660000D01*
X209870000Y-151659000D01*
X209871000Y-151658000D01*
X209874000Y-151655000D01*
X209875000Y-151655000D01*
X209876000Y-151652000D01*
X209879000Y-151651000D01*
X209883000Y-151651000D01*
X209884000Y-151650000D01*
X209887000Y-151650000D01*
X209891000Y-151648000D01*
X209895000Y-151647000D01*
X209896000Y-151647000D01*
X209899000Y-151647000D01*
X210399000Y-151647000D01*
X210403000Y-151647000D01*
X210404000Y-151647000D01*
X210407000Y-151648000D01*
G36*
X210407000Y-151648000D02*
G01*
X210411000Y-151648000D01*
X210412000Y-151650000D01*
X210415000Y-151650000D01*
X210419000Y-151651000D01*
X210423000Y-151652000D01*
X210424000Y-151655000D01*
X210427000Y-151655000D01*
X210428000Y-151658000D01*
X210431000Y-151659000D01*
X210432000Y-151660000D01*
X210435000Y-151663000D01*
X210436000Y-151664000D01*
X210440000Y-151667000D01*
X210440000Y-151668000D01*
X210443000Y-151671000D01*
X210444000Y-151672000D01*
X210444000Y-151675000D01*
X210447000Y-151678000D01*
X210448000Y-151679000D01*
X210448000Y-151683000D01*
X210448000Y-151684000D01*
X210448000Y-151687000D01*
X210448000Y-151690000D01*
X210451000Y-151692000D01*
X210451000Y-151695000D01*
X210451000Y-151698000D01*
X210451000Y-152297000D01*
X210451000Y-152300000D01*
X210451000Y-152303000D01*
X210448000Y-152305000D01*
X210448000Y-152308000D01*
X210448000Y-152311000D01*
X210448000Y-152312000D01*
X210448000Y-152316000D01*
X210447000Y-152317000D01*
X210444000Y-152320000D01*
X210444000Y-152323000D01*
X210443000Y-152324000D01*
X210440000Y-152327000D01*
X210440000Y-152328000D01*
X210436000Y-152331000D01*
X210435000Y-152332000D01*
X210432000Y-152335000D01*
X210431000Y-152336000D01*
X210428000Y-152337000D01*
X210427000Y-152340000D01*
X210424000Y-152340000D01*
X210423000Y-152343000D01*
X210419000Y-152344000D01*
X210415000Y-152345000D01*
X210412000Y-152345000D01*
X210411000Y-152347000D01*
X210407000Y-152347000D01*
X210404000Y-152348000D01*
X210403000Y-152348000D01*
X210399000Y-152348000D01*
X210299000Y-152348000D01*
X210298000Y-152348000D01*
X210294000Y-152348000D01*
X210291000Y-152347000D01*
X210290000Y-152347000D01*
X210286000Y-152345000D01*
X210282000Y-152344000D01*
X210279000Y-152344000D01*
X210278000Y-152343000D01*
X210274000Y-152340000D01*
X210270000Y-152337000D01*
X210270000Y-152336000D01*
X210266000Y-152335000D01*
X210266000Y-152332000D01*
X210262000Y-152331000D01*
X210262000Y-152328000D01*
X210259000Y-152327000D01*
X210258000Y-152324000D01*
X210258000Y-152323000D01*
X210254000Y-152320000D01*
X210254000Y-152317000D01*
X210254000Y-152316000D01*
X210251000Y-152312000D01*
X210251000Y-152311000D01*
X210250000Y-152308000D01*
X210250000Y-152305000D01*
X210250000Y-152303000D01*
X210250000Y-152300000D01*
X210250000Y-152297000D01*
X210250000Y-151897000D01*
X210250000Y-151894000D01*
X210250000Y-151893000D01*
X210250000Y-151889000D01*
X210249000Y-151885000D01*
X210249000Y-151882000D01*
X210246000Y-151881000D01*
X210246000Y-151877000D01*
X210246000Y-151874000D01*
X210242000Y-151873000D01*
X210242000Y-151870000D01*
X210241000Y-151869000D01*
X210238000Y-151866000D01*
X210238000Y-151865000D01*
X210234000Y-151862000D01*
X210234000Y-151861000D01*
X210230000Y-151858000D01*
X210230000Y-151857000D01*
X210226000Y-151857000D01*
X210226000Y-151854000D01*
X210222000Y-151853000D01*
X210221000Y-151853000D01*
X210218000Y-151850000D01*
X210214000Y-151849000D01*
X210210000Y-151849000D01*
X210209000Y-151849000D01*
X210206000Y-151849000D01*
X210202000Y-151849000D01*
X210201000Y-151849000D01*
X210101000Y-151849000D01*
X210097000Y-151849000D01*
X210096000Y-151849000D01*
X210093000Y-151849000D01*
X210089000Y-151849000D01*
X210088000Y-151849000D01*
X210085000Y-151849000D01*
X210081000Y-151850000D01*
X210081000Y-151853000D01*
X210077000Y-151853000D01*
X210076000Y-151854000D01*
X210073000Y-151857000D01*
X210072000Y-151857000D01*
X210069000Y-151858000D01*
X210068000Y-151861000D01*
X210065000Y-151862000D01*
X210064000Y-151865000D01*
X210061000Y-151866000D01*
X210061000Y-151869000D01*
X210057000Y-151870000D01*
X210057000Y-151873000D01*
X210056000Y-151874000D01*
X210053000Y-151877000D01*
X210052000Y-151881000D01*
X210052000Y-151882000D01*
X210052000Y-151885000D01*
X210052000Y-151889000D01*
X210049000Y-151893000D01*
X210049000Y-151894000D01*
X210049000Y-151897000D01*
X210049000Y-152297000D01*
X210049000Y-152300000D01*
X210049000Y-152303000D01*
X210048000Y-152305000D01*
X210048000Y-152308000D01*
X210048000Y-152311000D01*
X210048000Y-152312000D01*
X210048000Y-152316000D01*
X210045000Y-152317000D01*
X210044000Y-152320000D01*
X210044000Y-152323000D01*
X210041000Y-152324000D01*
X210040000Y-152327000D01*
X210040000Y-152328000D01*
X210036000Y-152331000D01*
X210036000Y-152332000D01*
X210032000Y-152335000D01*
X210032000Y-152336000D01*
X210028000Y-152337000D01*
X210028000Y-152340000D01*
X210024000Y-152340000D01*
X210024000Y-152343000D01*
X210020000Y-152344000D01*
X210017000Y-152344000D01*
X210016000Y-152345000D01*
X210012000Y-152345000D01*
X210009000Y-152347000D01*
X210008000Y-152347000D01*
X210004000Y-152348000D01*
X210000000Y-152348000D01*
X209899000Y-152348000D01*
X209896000Y-152348000D01*
X209895000Y-152348000D01*
X209891000Y-152347000D01*
X209887000Y-152345000D01*
X209884000Y-152345000D01*
X209883000Y-152344000D01*
X209879000Y-152344000D01*
X209876000Y-152343000D01*
X209875000Y-152340000D01*
X209874000Y-152340000D01*
X209871000Y-152337000D01*
X209870000Y-152336000D01*
X209867000Y-152335000D01*
X209866000Y-152332000D01*
X209863000Y-152331000D01*
X209862000Y-152328000D01*
X209859000Y-152327000D01*
X209859000Y-152324000D01*
X209858000Y-152323000D01*
X209855000Y-152320000D01*
X209855000Y-152317000D01*
X209854000Y-152316000D01*
X209851000Y-152312000D01*
X209851000Y-152311000D01*
X209851000Y-152308000D01*
X209851000Y-152305000D01*
X209851000Y-152303000D01*
X209851000Y-152300000D01*
X209851000Y-152297000D01*
X209851000Y-151698000D01*
X209851000Y-151695000D01*
X209851000Y-151692000D01*
X209851000Y-151690000D01*
X209851000Y-151687000D01*
X209851000Y-151684000D01*
X209851000Y-151683000D01*
X209854000Y-151679000D01*
X209855000Y-151678000D01*
X209855000Y-151675000D01*
X209858000Y-151672000D01*
X209859000Y-151671000D01*
X209859000Y-151668000D01*
X209862000Y-151667000D01*
X209863000Y-151664000D01*
X209866000Y-151663000D01*
X209867000Y-151660000D01*
X209870000Y-151659000D01*
X209871000Y-151658000D01*
X209874000Y-151655000D01*
X209875000Y-151655000D01*
X209876000Y-151652000D01*
X209879000Y-151651000D01*
X209883000Y-151651000D01*
X209884000Y-151650000D01*
X209887000Y-151650000D01*
X209891000Y-151648000D01*
X209895000Y-151647000D01*
X209896000Y-151647000D01*
X209899000Y-151647000D01*
X210399000Y-151647000D01*
X210403000Y-151647000D01*
X210404000Y-151647000D01*
X210407000Y-151648000D01*
G37*
X205609000Y-151648000D02*
X205610000Y-151648000D01*
X205614000Y-151650000D01*
X205615000Y-151650000D01*
X205618000Y-151651000D01*
X205621000Y-151651000D01*
X205623000Y-151652000D01*
X205626000Y-151655000D01*
X205630000Y-151658000D01*
X205630000Y-151659000D01*
X205634000Y-151660000D01*
X205634000Y-151663000D01*
X205638000Y-151664000D01*
X205638000Y-151667000D01*
X205641000Y-151668000D01*
X205642000Y-151671000D01*
X205642000Y-151672000D01*
X205646000Y-151675000D01*
X205646000Y-151678000D01*
X205646000Y-151679000D01*
X205649000Y-151683000D01*
X205649000Y-151684000D01*
X205650000Y-151687000D01*
X205650000Y-151690000D01*
X205650000Y-151692000D01*
X205650000Y-151695000D01*
X205650000Y-151698000D01*
X205650000Y-152297000D01*
X205650000Y-152300000D01*
X205650000Y-152303000D01*
X205650000Y-152305000D01*
X205650000Y-152308000D01*
X205649000Y-152311000D01*
X205649000Y-152312000D01*
X205646000Y-152316000D01*
X205646000Y-152317000D01*
X205646000Y-152320000D01*
X205642000Y-152323000D01*
X205642000Y-152324000D01*
X205641000Y-152327000D01*
X205638000Y-152328000D01*
X205638000Y-152331000D01*
X205634000Y-152332000D01*
X205634000Y-152335000D01*
X205630000Y-152336000D01*
X205630000Y-152337000D01*
X205626000Y-152340000D01*
X205623000Y-152343000D01*
X205621000Y-152344000D01*
X205618000Y-152344000D01*
X205615000Y-152345000D01*
X205614000Y-152345000D01*
X205610000Y-152347000D01*
X205609000Y-152347000D01*
X205606000Y-152348000D01*
X205603000Y-152348000D01*
X205601000Y-152348000D01*
X205501000Y-152348000D01*
X205497000Y-152348000D01*
X205496000Y-152348000D01*
X205493000Y-152347000D01*
X205490000Y-152347000D01*
X205488000Y-152345000D01*
X205485000Y-152345000D01*
X205482000Y-152344000D01*
X205481000Y-152344000D01*
X205477000Y-152343000D01*
X205476000Y-152340000D01*
X205473000Y-152340000D01*
X205472000Y-152337000D01*
X205469000Y-152336000D01*
X205468000Y-152335000D01*
X205465000Y-152332000D01*
X205464000Y-152331000D01*
X205461000Y-152328000D01*
X205461000Y-152327000D01*
X205458000Y-152324000D01*
X205457000Y-152323000D01*
X205456000Y-152320000D01*
X205454000Y-152317000D01*
X205453000Y-152316000D01*
X205453000Y-152312000D01*
X205453000Y-152311000D01*
X205452000Y-152308000D01*
X205452000Y-152305000D01*
X205450000Y-152303000D01*
X205450000Y-152300000D01*
X205450000Y-152297000D01*
X205450000Y-151897000D01*
X205450000Y-151894000D01*
X205450000Y-151893000D01*
X205449000Y-151889000D01*
X205449000Y-151885000D01*
X205449000Y-151882000D01*
X205448000Y-151881000D01*
X205446000Y-151877000D01*
X205444000Y-151874000D01*
X205444000Y-151873000D01*
X205443000Y-151870000D01*
X205440000Y-151869000D01*
X205440000Y-151866000D01*
X205436000Y-151865000D01*
X205436000Y-151862000D01*
X205432000Y-151861000D01*
X205432000Y-151858000D01*
X205428000Y-151857000D01*
X205424000Y-151854000D01*
X205424000Y-151853000D01*
X205420000Y-151853000D01*
X205419000Y-151850000D01*
X205416000Y-151849000D01*
X205412000Y-151849000D01*
X205411000Y-151849000D01*
X205408000Y-151849000D01*
X205404000Y-151849000D01*
X205400000Y-151849000D01*
X205299000Y-151849000D01*
X205298000Y-151849000D01*
X205295000Y-151849000D01*
X205291000Y-151849000D01*
X205287000Y-151849000D01*
X205286000Y-151849000D01*
X205283000Y-151850000D01*
X205279000Y-151853000D01*
X205278000Y-151853000D01*
X205275000Y-151854000D01*
X205274000Y-151857000D01*
X205271000Y-151857000D01*
X205270000Y-151858000D01*
X205267000Y-151861000D01*
X205266000Y-151862000D01*
X205263000Y-151865000D01*
X205262000Y-151866000D01*
X205259000Y-151869000D01*
X205259000Y-151870000D01*
X205258000Y-151873000D01*
X205255000Y-151874000D01*
X205255000Y-151877000D01*
X205254000Y-151881000D01*
X205251000Y-151882000D01*
X205251000Y-151885000D01*
X205251000Y-151889000D01*
X205251000Y-151893000D01*
X205251000Y-151894000D01*
X205251000Y-151897000D01*
X205251000Y-152297000D01*
X205251000Y-152300000D01*
X205251000Y-152303000D01*
X205250000Y-152305000D01*
X205250000Y-152308000D01*
X205248000Y-152311000D01*
X205248000Y-152312000D01*
X205247000Y-152316000D01*
X205247000Y-152317000D01*
X205246000Y-152320000D01*
X205243000Y-152323000D01*
X205243000Y-152324000D01*
X205240000Y-152327000D01*
X205239000Y-152328000D01*
X205238000Y-152331000D01*
X205235000Y-152332000D01*
X205234000Y-152335000D01*
X205231000Y-152336000D01*
X205230000Y-152337000D01*
X205227000Y-152340000D01*
X205226000Y-152340000D01*
X205223000Y-152343000D01*
X205220000Y-152344000D01*
X205219000Y-152344000D01*
X205215000Y-152345000D01*
X205214000Y-152345000D01*
X205211000Y-152347000D01*
X205208000Y-152347000D01*
X205206000Y-152348000D01*
X205203000Y-152348000D01*
X205200000Y-152348000D01*
X205101000Y-152348000D01*
X205098000Y-152348000D01*
X205095000Y-152348000D01*
X205093000Y-152347000D01*
X205090000Y-152347000D01*
X205087000Y-152345000D01*
X205086000Y-152345000D01*
X205082000Y-152344000D01*
X205081000Y-152344000D01*
X205078000Y-152343000D01*
X205075000Y-152340000D01*
X205074000Y-152340000D01*
X205071000Y-152337000D01*
X205070000Y-152336000D01*
X205067000Y-152335000D01*
X205066000Y-152332000D01*
X205063000Y-152331000D01*
X205061000Y-152328000D01*
X205061000Y-152327000D01*
X205057000Y-152324000D01*
X205057000Y-152323000D01*
X205056000Y-152320000D01*
X205053000Y-152317000D01*
X205053000Y-152316000D01*
X205053000Y-152312000D01*
X205053000Y-152311000D01*
X205052000Y-152308000D01*
X205052000Y-152305000D01*
X205049000Y-152303000D01*
X205049000Y-152300000D01*
X205049000Y-152297000D01*
X205049000Y-151698000D01*
X205049000Y-151695000D01*
X205049000Y-151692000D01*
X205052000Y-151690000D01*
X205052000Y-151687000D01*
X205053000Y-151684000D01*
X205053000Y-151683000D01*
X205053000Y-151679000D01*
X205053000Y-151678000D01*
X205056000Y-151675000D01*
X205057000Y-151672000D01*
X205057000Y-151671000D01*
X205061000Y-151668000D01*
X205061000Y-151667000D01*
X205063000Y-151664000D01*
X205066000Y-151663000D01*
X205067000Y-151660000D01*
X205070000Y-151659000D01*
X205071000Y-151658000D01*
X205074000Y-151655000D01*
X205075000Y-151655000D01*
X205078000Y-151652000D01*
X205081000Y-151651000D01*
X205082000Y-151651000D01*
X205086000Y-151650000D01*
X205087000Y-151650000D01*
X205090000Y-151648000D01*
X205093000Y-151648000D01*
X205095000Y-151647000D01*
X205098000Y-151647000D01*
X205101000Y-151647000D01*
X205601000Y-151647000D01*
X205603000Y-151647000D01*
X205606000Y-151647000D01*
X205609000Y-151648000D01*
G36*
X205609000Y-151648000D02*
G01*
X205610000Y-151648000D01*
X205614000Y-151650000D01*
X205615000Y-151650000D01*
X205618000Y-151651000D01*
X205621000Y-151651000D01*
X205623000Y-151652000D01*
X205626000Y-151655000D01*
X205630000Y-151658000D01*
X205630000Y-151659000D01*
X205634000Y-151660000D01*
X205634000Y-151663000D01*
X205638000Y-151664000D01*
X205638000Y-151667000D01*
X205641000Y-151668000D01*
X205642000Y-151671000D01*
X205642000Y-151672000D01*
X205646000Y-151675000D01*
X205646000Y-151678000D01*
X205646000Y-151679000D01*
X205649000Y-151683000D01*
X205649000Y-151684000D01*
X205650000Y-151687000D01*
X205650000Y-151690000D01*
X205650000Y-151692000D01*
X205650000Y-151695000D01*
X205650000Y-151698000D01*
X205650000Y-152297000D01*
X205650000Y-152300000D01*
X205650000Y-152303000D01*
X205650000Y-152305000D01*
X205650000Y-152308000D01*
X205649000Y-152311000D01*
X205649000Y-152312000D01*
X205646000Y-152316000D01*
X205646000Y-152317000D01*
X205646000Y-152320000D01*
X205642000Y-152323000D01*
X205642000Y-152324000D01*
X205641000Y-152327000D01*
X205638000Y-152328000D01*
X205638000Y-152331000D01*
X205634000Y-152332000D01*
X205634000Y-152335000D01*
X205630000Y-152336000D01*
X205630000Y-152337000D01*
X205626000Y-152340000D01*
X205623000Y-152343000D01*
X205621000Y-152344000D01*
X205618000Y-152344000D01*
X205615000Y-152345000D01*
X205614000Y-152345000D01*
X205610000Y-152347000D01*
X205609000Y-152347000D01*
X205606000Y-152348000D01*
X205603000Y-152348000D01*
X205601000Y-152348000D01*
X205501000Y-152348000D01*
X205497000Y-152348000D01*
X205496000Y-152348000D01*
X205493000Y-152347000D01*
X205490000Y-152347000D01*
X205488000Y-152345000D01*
X205485000Y-152345000D01*
X205482000Y-152344000D01*
X205481000Y-152344000D01*
X205477000Y-152343000D01*
X205476000Y-152340000D01*
X205473000Y-152340000D01*
X205472000Y-152337000D01*
X205469000Y-152336000D01*
X205468000Y-152335000D01*
X205465000Y-152332000D01*
X205464000Y-152331000D01*
X205461000Y-152328000D01*
X205461000Y-152327000D01*
X205458000Y-152324000D01*
X205457000Y-152323000D01*
X205456000Y-152320000D01*
X205454000Y-152317000D01*
X205453000Y-152316000D01*
X205453000Y-152312000D01*
X205453000Y-152311000D01*
X205452000Y-152308000D01*
X205452000Y-152305000D01*
X205450000Y-152303000D01*
X205450000Y-152300000D01*
X205450000Y-152297000D01*
X205450000Y-151897000D01*
X205450000Y-151894000D01*
X205450000Y-151893000D01*
X205449000Y-151889000D01*
X205449000Y-151885000D01*
X205449000Y-151882000D01*
X205448000Y-151881000D01*
X205446000Y-151877000D01*
X205444000Y-151874000D01*
X205444000Y-151873000D01*
X205443000Y-151870000D01*
X205440000Y-151869000D01*
X205440000Y-151866000D01*
X205436000Y-151865000D01*
X205436000Y-151862000D01*
X205432000Y-151861000D01*
X205432000Y-151858000D01*
X205428000Y-151857000D01*
X205424000Y-151854000D01*
X205424000Y-151853000D01*
X205420000Y-151853000D01*
X205419000Y-151850000D01*
X205416000Y-151849000D01*
X205412000Y-151849000D01*
X205411000Y-151849000D01*
X205408000Y-151849000D01*
X205404000Y-151849000D01*
X205400000Y-151849000D01*
X205299000Y-151849000D01*
X205298000Y-151849000D01*
X205295000Y-151849000D01*
X205291000Y-151849000D01*
X205287000Y-151849000D01*
X205286000Y-151849000D01*
X205283000Y-151850000D01*
X205279000Y-151853000D01*
X205278000Y-151853000D01*
X205275000Y-151854000D01*
X205274000Y-151857000D01*
X205271000Y-151857000D01*
X205270000Y-151858000D01*
X205267000Y-151861000D01*
X205266000Y-151862000D01*
X205263000Y-151865000D01*
X205262000Y-151866000D01*
X205259000Y-151869000D01*
X205259000Y-151870000D01*
X205258000Y-151873000D01*
X205255000Y-151874000D01*
X205255000Y-151877000D01*
X205254000Y-151881000D01*
X205251000Y-151882000D01*
X205251000Y-151885000D01*
X205251000Y-151889000D01*
X205251000Y-151893000D01*
X205251000Y-151894000D01*
X205251000Y-151897000D01*
X205251000Y-152297000D01*
X205251000Y-152300000D01*
X205251000Y-152303000D01*
X205250000Y-152305000D01*
X205250000Y-152308000D01*
X205248000Y-152311000D01*
X205248000Y-152312000D01*
X205247000Y-152316000D01*
X205247000Y-152317000D01*
X205246000Y-152320000D01*
X205243000Y-152323000D01*
X205243000Y-152324000D01*
X205240000Y-152327000D01*
X205239000Y-152328000D01*
X205238000Y-152331000D01*
X205235000Y-152332000D01*
X205234000Y-152335000D01*
X205231000Y-152336000D01*
X205230000Y-152337000D01*
X205227000Y-152340000D01*
X205226000Y-152340000D01*
X205223000Y-152343000D01*
X205220000Y-152344000D01*
X205219000Y-152344000D01*
X205215000Y-152345000D01*
X205214000Y-152345000D01*
X205211000Y-152347000D01*
X205208000Y-152347000D01*
X205206000Y-152348000D01*
X205203000Y-152348000D01*
X205200000Y-152348000D01*
X205101000Y-152348000D01*
X205098000Y-152348000D01*
X205095000Y-152348000D01*
X205093000Y-152347000D01*
X205090000Y-152347000D01*
X205087000Y-152345000D01*
X205086000Y-152345000D01*
X205082000Y-152344000D01*
X205081000Y-152344000D01*
X205078000Y-152343000D01*
X205075000Y-152340000D01*
X205074000Y-152340000D01*
X205071000Y-152337000D01*
X205070000Y-152336000D01*
X205067000Y-152335000D01*
X205066000Y-152332000D01*
X205063000Y-152331000D01*
X205061000Y-152328000D01*
X205061000Y-152327000D01*
X205057000Y-152324000D01*
X205057000Y-152323000D01*
X205056000Y-152320000D01*
X205053000Y-152317000D01*
X205053000Y-152316000D01*
X205053000Y-152312000D01*
X205053000Y-152311000D01*
X205052000Y-152308000D01*
X205052000Y-152305000D01*
X205049000Y-152303000D01*
X205049000Y-152300000D01*
X205049000Y-152297000D01*
X205049000Y-151698000D01*
X205049000Y-151695000D01*
X205049000Y-151692000D01*
X205052000Y-151690000D01*
X205052000Y-151687000D01*
X205053000Y-151684000D01*
X205053000Y-151683000D01*
X205053000Y-151679000D01*
X205053000Y-151678000D01*
X205056000Y-151675000D01*
X205057000Y-151672000D01*
X205057000Y-151671000D01*
X205061000Y-151668000D01*
X205061000Y-151667000D01*
X205063000Y-151664000D01*
X205066000Y-151663000D01*
X205067000Y-151660000D01*
X205070000Y-151659000D01*
X205071000Y-151658000D01*
X205074000Y-151655000D01*
X205075000Y-151655000D01*
X205078000Y-151652000D01*
X205081000Y-151651000D01*
X205082000Y-151651000D01*
X205086000Y-151650000D01*
X205087000Y-151650000D01*
X205090000Y-151648000D01*
X205093000Y-151648000D01*
X205095000Y-151647000D01*
X205098000Y-151647000D01*
X205101000Y-151647000D01*
X205601000Y-151647000D01*
X205603000Y-151647000D01*
X205606000Y-151647000D01*
X205609000Y-151648000D01*
G37*
X206408000Y-151648000D02*
X206410000Y-151648000D01*
X206414000Y-151650000D01*
X206416000Y-151650000D01*
X206418000Y-151651000D01*
X206420000Y-151651000D01*
X206424000Y-151652000D01*
X206426000Y-151655000D01*
X206428000Y-151655000D01*
X206430000Y-151658000D01*
X206432000Y-151659000D01*
X206434000Y-151660000D01*
X206436000Y-151663000D01*
X206438000Y-151664000D01*
X206440000Y-151667000D01*
X206440000Y-151668000D01*
X206442000Y-151671000D01*
X206444000Y-151672000D01*
X206446000Y-151675000D01*
X206446000Y-151678000D01*
X206448000Y-151679000D01*
X206448000Y-151683000D01*
X206448000Y-151684000D01*
X206450000Y-151687000D01*
X206450000Y-151690000D01*
X206450000Y-151692000D01*
X206450000Y-151695000D01*
X206450000Y-151698000D01*
X206450000Y-152297000D01*
X206450000Y-152300000D01*
X206450000Y-152303000D01*
X206450000Y-152305000D01*
X206450000Y-152308000D01*
X206448000Y-152311000D01*
X206448000Y-152312000D01*
X206448000Y-152316000D01*
X206446000Y-152317000D01*
X206446000Y-152320000D01*
X206444000Y-152323000D01*
X206442000Y-152324000D01*
X206440000Y-152327000D01*
X206440000Y-152328000D01*
X206438000Y-152331000D01*
X206436000Y-152332000D01*
X206434000Y-152335000D01*
X206432000Y-152336000D01*
X206430000Y-152337000D01*
X206428000Y-152340000D01*
X206426000Y-152340000D01*
X206424000Y-152343000D01*
X206420000Y-152344000D01*
X206418000Y-152344000D01*
X206416000Y-152345000D01*
X206414000Y-152345000D01*
X206410000Y-152347000D01*
X206408000Y-152347000D01*
X206406000Y-152348000D01*
X206404000Y-152348000D01*
X206400000Y-152348000D01*
X206301000Y-152348000D01*
X206297000Y-152348000D01*
X206295000Y-152348000D01*
X206293000Y-152347000D01*
X206291000Y-152347000D01*
X206287000Y-152345000D01*
X206285000Y-152345000D01*
X206283000Y-152344000D01*
X206281000Y-152344000D01*
X206277000Y-152343000D01*
X206275000Y-152340000D01*
X206273000Y-152340000D01*
X206271000Y-152337000D01*
X206269000Y-152336000D01*
X206267000Y-152335000D01*
X206265000Y-152332000D01*
X206263000Y-152331000D01*
X206261000Y-152328000D01*
X206261000Y-152327000D01*
X206259000Y-152324000D01*
X206257000Y-152323000D01*
X206255000Y-152320000D01*
X206255000Y-152317000D01*
X206253000Y-152316000D01*
X206253000Y-152312000D01*
X206253000Y-152311000D01*
X206251000Y-152308000D01*
X206251000Y-152305000D01*
X206251000Y-152303000D01*
X206251000Y-152300000D01*
X206251000Y-152297000D01*
X206251000Y-151897000D01*
X206251000Y-151894000D01*
X206251000Y-151893000D01*
X206249000Y-151889000D01*
X206249000Y-151885000D01*
X206249000Y-151882000D01*
X206247000Y-151881000D01*
X206247000Y-151877000D01*
X206245000Y-151874000D01*
X206243000Y-151873000D01*
X206243000Y-151870000D01*
X206241000Y-151869000D01*
X206239000Y-151866000D01*
X206237000Y-151865000D01*
X206235000Y-151862000D01*
X206233000Y-151861000D01*
X206231000Y-151858000D01*
X206229000Y-151857000D01*
X206227000Y-151857000D01*
X206225000Y-151854000D01*
X206223000Y-151853000D01*
X206221000Y-151853000D01*
X206219000Y-151850000D01*
X206215000Y-151849000D01*
X206214000Y-151849000D01*
X206210000Y-151849000D01*
X206208000Y-151849000D01*
X206206000Y-151849000D01*
X206204000Y-151849000D01*
X206200000Y-151849000D01*
X206100000Y-151849000D01*
X206098000Y-151849000D01*
X206096000Y-151849000D01*
X206092000Y-151849000D01*
X206090000Y-151849000D01*
X206088000Y-151849000D01*
X206085000Y-151849000D01*
X206083000Y-151850000D01*
X206081000Y-151853000D01*
X206077000Y-151853000D01*
X206075000Y-151854000D01*
X206073000Y-151857000D01*
X206071000Y-151857000D01*
X206069000Y-151858000D01*
X206067000Y-151861000D01*
X206065000Y-151862000D01*
X206063000Y-151865000D01*
X206061000Y-151866000D01*
X206061000Y-151869000D01*
X206059000Y-151870000D01*
X206057000Y-151873000D01*
X206055000Y-151874000D01*
X206055000Y-151877000D01*
X206053000Y-151881000D01*
X206053000Y-151882000D01*
X206053000Y-151885000D01*
X206051000Y-151889000D01*
X206051000Y-151893000D01*
X206051000Y-151894000D01*
X206051000Y-151897000D01*
X206051000Y-152297000D01*
X206051000Y-152300000D01*
X206051000Y-152303000D01*
X206049000Y-152305000D01*
X206049000Y-152308000D01*
X206049000Y-152311000D01*
X206049000Y-152312000D01*
X206047000Y-152316000D01*
X206047000Y-152317000D01*
X206045000Y-152320000D01*
X206043000Y-152323000D01*
X206043000Y-152324000D01*
X206041000Y-152327000D01*
X206039000Y-152328000D01*
X206037000Y-152331000D01*
X206035000Y-152332000D01*
X206033000Y-152335000D01*
X206031000Y-152336000D01*
X206029000Y-152337000D01*
X206027000Y-152340000D01*
X206025000Y-152340000D01*
X206023000Y-152343000D01*
X206021000Y-152344000D01*
X206019000Y-152344000D01*
X206015000Y-152345000D01*
X206013000Y-152345000D01*
X206011000Y-152347000D01*
X206009000Y-152347000D01*
X206005000Y-152348000D01*
X206003000Y-152348000D01*
X206001000Y-152348000D01*
X205900000Y-152348000D01*
X205898000Y-152348000D01*
X205896000Y-152348000D01*
X205892000Y-152347000D01*
X205890000Y-152347000D01*
X205888000Y-152345000D01*
X205886000Y-152345000D01*
X205882000Y-152344000D01*
X205880000Y-152344000D01*
X205878000Y-152343000D01*
X205876000Y-152340000D01*
X205874000Y-152340000D01*
X205872000Y-152337000D01*
X205870000Y-152336000D01*
X205868000Y-152335000D01*
X205866000Y-152332000D01*
X205864000Y-152331000D01*
X205862000Y-152328000D01*
X205860000Y-152327000D01*
X205858000Y-152324000D01*
X205858000Y-152323000D01*
X205856000Y-152320000D01*
X205854000Y-152317000D01*
X205854000Y-152316000D01*
X205852000Y-152312000D01*
X205852000Y-152311000D01*
X205852000Y-152308000D01*
X205852000Y-152305000D01*
X205850000Y-152303000D01*
X205850000Y-152300000D01*
X205850000Y-152297000D01*
X205850000Y-151698000D01*
X205850000Y-151695000D01*
X205850000Y-151692000D01*
X205852000Y-151690000D01*
X205852000Y-151687000D01*
X205852000Y-151684000D01*
X205852000Y-151683000D01*
X205854000Y-151679000D01*
X205854000Y-151678000D01*
X205856000Y-151675000D01*
X205858000Y-151672000D01*
X205858000Y-151671000D01*
X205860000Y-151668000D01*
X205862000Y-151667000D01*
X205864000Y-151664000D01*
X205866000Y-151663000D01*
X205868000Y-151660000D01*
X205870000Y-151659000D01*
X205872000Y-151658000D01*
X205874000Y-151655000D01*
X205876000Y-151655000D01*
X205878000Y-151652000D01*
X205880000Y-151651000D01*
X205882000Y-151651000D01*
X205886000Y-151650000D01*
X205888000Y-151650000D01*
X205890000Y-151648000D01*
X205892000Y-151648000D01*
X205896000Y-151647000D01*
X205898000Y-151647000D01*
X205900000Y-151647000D01*
X206400000Y-151647000D01*
X206404000Y-151647000D01*
X206406000Y-151647000D01*
X206408000Y-151648000D01*
G36*
X206408000Y-151648000D02*
G01*
X206410000Y-151648000D01*
X206414000Y-151650000D01*
X206416000Y-151650000D01*
X206418000Y-151651000D01*
X206420000Y-151651000D01*
X206424000Y-151652000D01*
X206426000Y-151655000D01*
X206428000Y-151655000D01*
X206430000Y-151658000D01*
X206432000Y-151659000D01*
X206434000Y-151660000D01*
X206436000Y-151663000D01*
X206438000Y-151664000D01*
X206440000Y-151667000D01*
X206440000Y-151668000D01*
X206442000Y-151671000D01*
X206444000Y-151672000D01*
X206446000Y-151675000D01*
X206446000Y-151678000D01*
X206448000Y-151679000D01*
X206448000Y-151683000D01*
X206448000Y-151684000D01*
X206450000Y-151687000D01*
X206450000Y-151690000D01*
X206450000Y-151692000D01*
X206450000Y-151695000D01*
X206450000Y-151698000D01*
X206450000Y-152297000D01*
X206450000Y-152300000D01*
X206450000Y-152303000D01*
X206450000Y-152305000D01*
X206450000Y-152308000D01*
X206448000Y-152311000D01*
X206448000Y-152312000D01*
X206448000Y-152316000D01*
X206446000Y-152317000D01*
X206446000Y-152320000D01*
X206444000Y-152323000D01*
X206442000Y-152324000D01*
X206440000Y-152327000D01*
X206440000Y-152328000D01*
X206438000Y-152331000D01*
X206436000Y-152332000D01*
X206434000Y-152335000D01*
X206432000Y-152336000D01*
X206430000Y-152337000D01*
X206428000Y-152340000D01*
X206426000Y-152340000D01*
X206424000Y-152343000D01*
X206420000Y-152344000D01*
X206418000Y-152344000D01*
X206416000Y-152345000D01*
X206414000Y-152345000D01*
X206410000Y-152347000D01*
X206408000Y-152347000D01*
X206406000Y-152348000D01*
X206404000Y-152348000D01*
X206400000Y-152348000D01*
X206301000Y-152348000D01*
X206297000Y-152348000D01*
X206295000Y-152348000D01*
X206293000Y-152347000D01*
X206291000Y-152347000D01*
X206287000Y-152345000D01*
X206285000Y-152345000D01*
X206283000Y-152344000D01*
X206281000Y-152344000D01*
X206277000Y-152343000D01*
X206275000Y-152340000D01*
X206273000Y-152340000D01*
X206271000Y-152337000D01*
X206269000Y-152336000D01*
X206267000Y-152335000D01*
X206265000Y-152332000D01*
X206263000Y-152331000D01*
X206261000Y-152328000D01*
X206261000Y-152327000D01*
X206259000Y-152324000D01*
X206257000Y-152323000D01*
X206255000Y-152320000D01*
X206255000Y-152317000D01*
X206253000Y-152316000D01*
X206253000Y-152312000D01*
X206253000Y-152311000D01*
X206251000Y-152308000D01*
X206251000Y-152305000D01*
X206251000Y-152303000D01*
X206251000Y-152300000D01*
X206251000Y-152297000D01*
X206251000Y-151897000D01*
X206251000Y-151894000D01*
X206251000Y-151893000D01*
X206249000Y-151889000D01*
X206249000Y-151885000D01*
X206249000Y-151882000D01*
X206247000Y-151881000D01*
X206247000Y-151877000D01*
X206245000Y-151874000D01*
X206243000Y-151873000D01*
X206243000Y-151870000D01*
X206241000Y-151869000D01*
X206239000Y-151866000D01*
X206237000Y-151865000D01*
X206235000Y-151862000D01*
X206233000Y-151861000D01*
X206231000Y-151858000D01*
X206229000Y-151857000D01*
X206227000Y-151857000D01*
X206225000Y-151854000D01*
X206223000Y-151853000D01*
X206221000Y-151853000D01*
X206219000Y-151850000D01*
X206215000Y-151849000D01*
X206214000Y-151849000D01*
X206210000Y-151849000D01*
X206208000Y-151849000D01*
X206206000Y-151849000D01*
X206204000Y-151849000D01*
X206200000Y-151849000D01*
X206100000Y-151849000D01*
X206098000Y-151849000D01*
X206096000Y-151849000D01*
X206092000Y-151849000D01*
X206090000Y-151849000D01*
X206088000Y-151849000D01*
X206085000Y-151849000D01*
X206083000Y-151850000D01*
X206081000Y-151853000D01*
X206077000Y-151853000D01*
X206075000Y-151854000D01*
X206073000Y-151857000D01*
X206071000Y-151857000D01*
X206069000Y-151858000D01*
X206067000Y-151861000D01*
X206065000Y-151862000D01*
X206063000Y-151865000D01*
X206061000Y-151866000D01*
X206061000Y-151869000D01*
X206059000Y-151870000D01*
X206057000Y-151873000D01*
X206055000Y-151874000D01*
X206055000Y-151877000D01*
X206053000Y-151881000D01*
X206053000Y-151882000D01*
X206053000Y-151885000D01*
X206051000Y-151889000D01*
X206051000Y-151893000D01*
X206051000Y-151894000D01*
X206051000Y-151897000D01*
X206051000Y-152297000D01*
X206051000Y-152300000D01*
X206051000Y-152303000D01*
X206049000Y-152305000D01*
X206049000Y-152308000D01*
X206049000Y-152311000D01*
X206049000Y-152312000D01*
X206047000Y-152316000D01*
X206047000Y-152317000D01*
X206045000Y-152320000D01*
X206043000Y-152323000D01*
X206043000Y-152324000D01*
X206041000Y-152327000D01*
X206039000Y-152328000D01*
X206037000Y-152331000D01*
X206035000Y-152332000D01*
X206033000Y-152335000D01*
X206031000Y-152336000D01*
X206029000Y-152337000D01*
X206027000Y-152340000D01*
X206025000Y-152340000D01*
X206023000Y-152343000D01*
X206021000Y-152344000D01*
X206019000Y-152344000D01*
X206015000Y-152345000D01*
X206013000Y-152345000D01*
X206011000Y-152347000D01*
X206009000Y-152347000D01*
X206005000Y-152348000D01*
X206003000Y-152348000D01*
X206001000Y-152348000D01*
X205900000Y-152348000D01*
X205898000Y-152348000D01*
X205896000Y-152348000D01*
X205892000Y-152347000D01*
X205890000Y-152347000D01*
X205888000Y-152345000D01*
X205886000Y-152345000D01*
X205882000Y-152344000D01*
X205880000Y-152344000D01*
X205878000Y-152343000D01*
X205876000Y-152340000D01*
X205874000Y-152340000D01*
X205872000Y-152337000D01*
X205870000Y-152336000D01*
X205868000Y-152335000D01*
X205866000Y-152332000D01*
X205864000Y-152331000D01*
X205862000Y-152328000D01*
X205860000Y-152327000D01*
X205858000Y-152324000D01*
X205858000Y-152323000D01*
X205856000Y-152320000D01*
X205854000Y-152317000D01*
X205854000Y-152316000D01*
X205852000Y-152312000D01*
X205852000Y-152311000D01*
X205852000Y-152308000D01*
X205852000Y-152305000D01*
X205850000Y-152303000D01*
X205850000Y-152300000D01*
X205850000Y-152297000D01*
X205850000Y-151698000D01*
X205850000Y-151695000D01*
X205850000Y-151692000D01*
X205852000Y-151690000D01*
X205852000Y-151687000D01*
X205852000Y-151684000D01*
X205852000Y-151683000D01*
X205854000Y-151679000D01*
X205854000Y-151678000D01*
X205856000Y-151675000D01*
X205858000Y-151672000D01*
X205858000Y-151671000D01*
X205860000Y-151668000D01*
X205862000Y-151667000D01*
X205864000Y-151664000D01*
X205866000Y-151663000D01*
X205868000Y-151660000D01*
X205870000Y-151659000D01*
X205872000Y-151658000D01*
X205874000Y-151655000D01*
X205876000Y-151655000D01*
X205878000Y-151652000D01*
X205880000Y-151651000D01*
X205882000Y-151651000D01*
X205886000Y-151650000D01*
X205888000Y-151650000D01*
X205890000Y-151648000D01*
X205892000Y-151648000D01*
X205896000Y-151647000D01*
X205898000Y-151647000D01*
X205900000Y-151647000D01*
X206400000Y-151647000D01*
X206404000Y-151647000D01*
X206406000Y-151647000D01*
X206408000Y-151648000D01*
G37*
X209609000Y-151648000D02*
X209611000Y-151648000D01*
X209613000Y-151650000D01*
X209615000Y-151650000D01*
X209619000Y-151651000D01*
X209621000Y-151651000D01*
X209623000Y-151652000D01*
X209625000Y-151655000D01*
X209627000Y-151655000D01*
X209629000Y-151658000D01*
X209631000Y-151659000D01*
X209633000Y-151660000D01*
X209635000Y-151663000D01*
X209637000Y-151664000D01*
X209639000Y-151667000D01*
X209639000Y-151668000D01*
X209641000Y-151671000D01*
X209643000Y-151672000D01*
X209645000Y-151675000D01*
X209645000Y-151678000D01*
X209647000Y-151679000D01*
X209647000Y-151683000D01*
X209647000Y-151684000D01*
X209649000Y-151687000D01*
X209649000Y-151690000D01*
X209649000Y-151692000D01*
X209649000Y-151695000D01*
X209649000Y-151698000D01*
X209649000Y-152297000D01*
X209649000Y-152300000D01*
X209649000Y-152303000D01*
X209649000Y-152305000D01*
X209649000Y-152308000D01*
X209647000Y-152311000D01*
X209647000Y-152312000D01*
X209647000Y-152316000D01*
X209645000Y-152317000D01*
X209645000Y-152320000D01*
X209643000Y-152323000D01*
X209641000Y-152324000D01*
X209639000Y-152327000D01*
X209639000Y-152328000D01*
X209637000Y-152331000D01*
X209635000Y-152332000D01*
X209633000Y-152335000D01*
X209631000Y-152336000D01*
X209629000Y-152337000D01*
X209627000Y-152340000D01*
X209625000Y-152340000D01*
X209623000Y-152343000D01*
X209621000Y-152344000D01*
X209619000Y-152344000D01*
X209615000Y-152345000D01*
X209613000Y-152345000D01*
X209611000Y-152347000D01*
X209609000Y-152347000D01*
X209605000Y-152348000D01*
X209603000Y-152348000D01*
X209601000Y-152348000D01*
X209500000Y-152348000D01*
X209498000Y-152348000D01*
X209496000Y-152348000D01*
X209492000Y-152347000D01*
X209490000Y-152347000D01*
X209488000Y-152345000D01*
X209486000Y-152345000D01*
X209482000Y-152344000D01*
X209480000Y-152344000D01*
X209478000Y-152343000D01*
X209476000Y-152340000D01*
X209474000Y-152340000D01*
X209472000Y-152337000D01*
X209470000Y-152336000D01*
X209468000Y-152335000D01*
X209466000Y-152332000D01*
X209464000Y-152331000D01*
X209462000Y-152328000D01*
X209460000Y-152327000D01*
X209458000Y-152324000D01*
X209458000Y-152323000D01*
X209456000Y-152320000D01*
X209454000Y-152317000D01*
X209454000Y-152316000D01*
X209452000Y-152312000D01*
X209452000Y-152311000D01*
X209452000Y-152308000D01*
X209452000Y-152305000D01*
X209450000Y-152303000D01*
X209450000Y-152300000D01*
X209450000Y-152297000D01*
X209450000Y-151897000D01*
X209450000Y-151894000D01*
X209450000Y-151893000D01*
X209450000Y-151889000D01*
X209448000Y-151885000D01*
X209448000Y-151882000D01*
X209448000Y-151881000D01*
X209446000Y-151877000D01*
X209446000Y-151874000D01*
X209444000Y-151873000D01*
X209442000Y-151870000D01*
X209440000Y-151869000D01*
X209440000Y-151866000D01*
X209438000Y-151865000D01*
X209436000Y-151862000D01*
X209434000Y-151861000D01*
X209432000Y-151858000D01*
X209430000Y-151857000D01*
X209428000Y-151857000D01*
X209426000Y-151854000D01*
X209424000Y-151853000D01*
X209420000Y-151853000D01*
X209418000Y-151850000D01*
X209416000Y-151849000D01*
X209413000Y-151849000D01*
X209409000Y-151849000D01*
X209407000Y-151849000D01*
X209405000Y-151849000D01*
X209403000Y-151849000D01*
X209399000Y-151849000D01*
X209301000Y-151849000D01*
X209297000Y-151849000D01*
X209295000Y-151849000D01*
X209293000Y-151849000D01*
X209291000Y-151849000D01*
X209287000Y-151849000D01*
X209284000Y-151849000D01*
X209282000Y-151850000D01*
X209280000Y-151853000D01*
X209276000Y-151853000D01*
X209274000Y-151854000D01*
X209272000Y-151857000D01*
X209270000Y-151857000D01*
X209268000Y-151858000D01*
X209266000Y-151861000D01*
X209264000Y-151862000D01*
X209262000Y-151865000D01*
X209260000Y-151866000D01*
X209260000Y-151869000D01*
X209258000Y-151870000D01*
X209256000Y-151873000D01*
X209254000Y-151874000D01*
X209254000Y-151877000D01*
X209252000Y-151881000D01*
X209252000Y-151882000D01*
X209252000Y-151885000D01*
X209250000Y-151889000D01*
X209250000Y-151893000D01*
X209250000Y-151894000D01*
X209250000Y-151897000D01*
X209250000Y-152297000D01*
X209250000Y-152300000D01*
X209250000Y-152303000D01*
X209250000Y-152305000D01*
X209250000Y-152308000D01*
X209248000Y-152311000D01*
X209248000Y-152312000D01*
X209248000Y-152316000D01*
X209246000Y-152317000D01*
X209246000Y-152320000D01*
X209244000Y-152323000D01*
X209242000Y-152324000D01*
X209240000Y-152327000D01*
X209240000Y-152328000D01*
X209238000Y-152331000D01*
X209236000Y-152332000D01*
X209234000Y-152335000D01*
X209232000Y-152336000D01*
X209230000Y-152337000D01*
X209228000Y-152340000D01*
X209226000Y-152340000D01*
X209224000Y-152343000D01*
X209220000Y-152344000D01*
X209218000Y-152344000D01*
X209216000Y-152345000D01*
X209214000Y-152345000D01*
X209210000Y-152347000D01*
X209208000Y-152347000D01*
X209206000Y-152348000D01*
X209204000Y-152348000D01*
X209200000Y-152348000D01*
X209101000Y-152348000D01*
X209097000Y-152348000D01*
X209095000Y-152348000D01*
X209093000Y-152347000D01*
X209091000Y-152347000D01*
X209087000Y-152345000D01*
X209085000Y-152345000D01*
X209083000Y-152344000D01*
X209081000Y-152344000D01*
X209077000Y-152343000D01*
X209075000Y-152340000D01*
X209073000Y-152340000D01*
X209071000Y-152337000D01*
X209069000Y-152336000D01*
X209067000Y-152335000D01*
X209065000Y-152332000D01*
X209063000Y-152331000D01*
X209061000Y-152328000D01*
X209061000Y-152327000D01*
X209059000Y-152324000D01*
X209057000Y-152323000D01*
X209055000Y-152320000D01*
X209055000Y-152317000D01*
X209053000Y-152316000D01*
X209053000Y-152312000D01*
X209053000Y-152311000D01*
X209051000Y-152308000D01*
X209051000Y-152305000D01*
X209051000Y-152303000D01*
X209051000Y-152300000D01*
X209051000Y-152297000D01*
X209051000Y-151698000D01*
X209051000Y-151695000D01*
X209051000Y-151692000D01*
X209051000Y-151690000D01*
X209051000Y-151687000D01*
X209053000Y-151684000D01*
X209053000Y-151683000D01*
X209053000Y-151679000D01*
X209055000Y-151678000D01*
X209055000Y-151675000D01*
X209057000Y-151672000D01*
X209059000Y-151671000D01*
X209061000Y-151668000D01*
X209061000Y-151667000D01*
X209063000Y-151664000D01*
X209065000Y-151663000D01*
X209067000Y-151660000D01*
X209069000Y-151659000D01*
X209071000Y-151658000D01*
X209073000Y-151655000D01*
X209075000Y-151655000D01*
X209077000Y-151652000D01*
X209081000Y-151651000D01*
X209083000Y-151651000D01*
X209085000Y-151650000D01*
X209087000Y-151650000D01*
X209091000Y-151648000D01*
X209093000Y-151648000D01*
X209095000Y-151647000D01*
X209097000Y-151647000D01*
X209101000Y-151647000D01*
X209601000Y-151647000D01*
X209603000Y-151647000D01*
X209605000Y-151647000D01*
X209609000Y-151648000D01*
G36*
X209609000Y-151648000D02*
G01*
X209611000Y-151648000D01*
X209613000Y-151650000D01*
X209615000Y-151650000D01*
X209619000Y-151651000D01*
X209621000Y-151651000D01*
X209623000Y-151652000D01*
X209625000Y-151655000D01*
X209627000Y-151655000D01*
X209629000Y-151658000D01*
X209631000Y-151659000D01*
X209633000Y-151660000D01*
X209635000Y-151663000D01*
X209637000Y-151664000D01*
X209639000Y-151667000D01*
X209639000Y-151668000D01*
X209641000Y-151671000D01*
X209643000Y-151672000D01*
X209645000Y-151675000D01*
X209645000Y-151678000D01*
X209647000Y-151679000D01*
X209647000Y-151683000D01*
X209647000Y-151684000D01*
X209649000Y-151687000D01*
X209649000Y-151690000D01*
X209649000Y-151692000D01*
X209649000Y-151695000D01*
X209649000Y-151698000D01*
X209649000Y-152297000D01*
X209649000Y-152300000D01*
X209649000Y-152303000D01*
X209649000Y-152305000D01*
X209649000Y-152308000D01*
X209647000Y-152311000D01*
X209647000Y-152312000D01*
X209647000Y-152316000D01*
X209645000Y-152317000D01*
X209645000Y-152320000D01*
X209643000Y-152323000D01*
X209641000Y-152324000D01*
X209639000Y-152327000D01*
X209639000Y-152328000D01*
X209637000Y-152331000D01*
X209635000Y-152332000D01*
X209633000Y-152335000D01*
X209631000Y-152336000D01*
X209629000Y-152337000D01*
X209627000Y-152340000D01*
X209625000Y-152340000D01*
X209623000Y-152343000D01*
X209621000Y-152344000D01*
X209619000Y-152344000D01*
X209615000Y-152345000D01*
X209613000Y-152345000D01*
X209611000Y-152347000D01*
X209609000Y-152347000D01*
X209605000Y-152348000D01*
X209603000Y-152348000D01*
X209601000Y-152348000D01*
X209500000Y-152348000D01*
X209498000Y-152348000D01*
X209496000Y-152348000D01*
X209492000Y-152347000D01*
X209490000Y-152347000D01*
X209488000Y-152345000D01*
X209486000Y-152345000D01*
X209482000Y-152344000D01*
X209480000Y-152344000D01*
X209478000Y-152343000D01*
X209476000Y-152340000D01*
X209474000Y-152340000D01*
X209472000Y-152337000D01*
X209470000Y-152336000D01*
X209468000Y-152335000D01*
X209466000Y-152332000D01*
X209464000Y-152331000D01*
X209462000Y-152328000D01*
X209460000Y-152327000D01*
X209458000Y-152324000D01*
X209458000Y-152323000D01*
X209456000Y-152320000D01*
X209454000Y-152317000D01*
X209454000Y-152316000D01*
X209452000Y-152312000D01*
X209452000Y-152311000D01*
X209452000Y-152308000D01*
X209452000Y-152305000D01*
X209450000Y-152303000D01*
X209450000Y-152300000D01*
X209450000Y-152297000D01*
X209450000Y-151897000D01*
X209450000Y-151894000D01*
X209450000Y-151893000D01*
X209450000Y-151889000D01*
X209448000Y-151885000D01*
X209448000Y-151882000D01*
X209448000Y-151881000D01*
X209446000Y-151877000D01*
X209446000Y-151874000D01*
X209444000Y-151873000D01*
X209442000Y-151870000D01*
X209440000Y-151869000D01*
X209440000Y-151866000D01*
X209438000Y-151865000D01*
X209436000Y-151862000D01*
X209434000Y-151861000D01*
X209432000Y-151858000D01*
X209430000Y-151857000D01*
X209428000Y-151857000D01*
X209426000Y-151854000D01*
X209424000Y-151853000D01*
X209420000Y-151853000D01*
X209418000Y-151850000D01*
X209416000Y-151849000D01*
X209413000Y-151849000D01*
X209409000Y-151849000D01*
X209407000Y-151849000D01*
X209405000Y-151849000D01*
X209403000Y-151849000D01*
X209399000Y-151849000D01*
X209301000Y-151849000D01*
X209297000Y-151849000D01*
X209295000Y-151849000D01*
X209293000Y-151849000D01*
X209291000Y-151849000D01*
X209287000Y-151849000D01*
X209284000Y-151849000D01*
X209282000Y-151850000D01*
X209280000Y-151853000D01*
X209276000Y-151853000D01*
X209274000Y-151854000D01*
X209272000Y-151857000D01*
X209270000Y-151857000D01*
X209268000Y-151858000D01*
X209266000Y-151861000D01*
X209264000Y-151862000D01*
X209262000Y-151865000D01*
X209260000Y-151866000D01*
X209260000Y-151869000D01*
X209258000Y-151870000D01*
X209256000Y-151873000D01*
X209254000Y-151874000D01*
X209254000Y-151877000D01*
X209252000Y-151881000D01*
X209252000Y-151882000D01*
X209252000Y-151885000D01*
X209250000Y-151889000D01*
X209250000Y-151893000D01*
X209250000Y-151894000D01*
X209250000Y-151897000D01*
X209250000Y-152297000D01*
X209250000Y-152300000D01*
X209250000Y-152303000D01*
X209250000Y-152305000D01*
X209250000Y-152308000D01*
X209248000Y-152311000D01*
X209248000Y-152312000D01*
X209248000Y-152316000D01*
X209246000Y-152317000D01*
X209246000Y-152320000D01*
X209244000Y-152323000D01*
X209242000Y-152324000D01*
X209240000Y-152327000D01*
X209240000Y-152328000D01*
X209238000Y-152331000D01*
X209236000Y-152332000D01*
X209234000Y-152335000D01*
X209232000Y-152336000D01*
X209230000Y-152337000D01*
X209228000Y-152340000D01*
X209226000Y-152340000D01*
X209224000Y-152343000D01*
X209220000Y-152344000D01*
X209218000Y-152344000D01*
X209216000Y-152345000D01*
X209214000Y-152345000D01*
X209210000Y-152347000D01*
X209208000Y-152347000D01*
X209206000Y-152348000D01*
X209204000Y-152348000D01*
X209200000Y-152348000D01*
X209101000Y-152348000D01*
X209097000Y-152348000D01*
X209095000Y-152348000D01*
X209093000Y-152347000D01*
X209091000Y-152347000D01*
X209087000Y-152345000D01*
X209085000Y-152345000D01*
X209083000Y-152344000D01*
X209081000Y-152344000D01*
X209077000Y-152343000D01*
X209075000Y-152340000D01*
X209073000Y-152340000D01*
X209071000Y-152337000D01*
X209069000Y-152336000D01*
X209067000Y-152335000D01*
X209065000Y-152332000D01*
X209063000Y-152331000D01*
X209061000Y-152328000D01*
X209061000Y-152327000D01*
X209059000Y-152324000D01*
X209057000Y-152323000D01*
X209055000Y-152320000D01*
X209055000Y-152317000D01*
X209053000Y-152316000D01*
X209053000Y-152312000D01*
X209053000Y-152311000D01*
X209051000Y-152308000D01*
X209051000Y-152305000D01*
X209051000Y-152303000D01*
X209051000Y-152300000D01*
X209051000Y-152297000D01*
X209051000Y-151698000D01*
X209051000Y-151695000D01*
X209051000Y-151692000D01*
X209051000Y-151690000D01*
X209051000Y-151687000D01*
X209053000Y-151684000D01*
X209053000Y-151683000D01*
X209053000Y-151679000D01*
X209055000Y-151678000D01*
X209055000Y-151675000D01*
X209057000Y-151672000D01*
X209059000Y-151671000D01*
X209061000Y-151668000D01*
X209061000Y-151667000D01*
X209063000Y-151664000D01*
X209065000Y-151663000D01*
X209067000Y-151660000D01*
X209069000Y-151659000D01*
X209071000Y-151658000D01*
X209073000Y-151655000D01*
X209075000Y-151655000D01*
X209077000Y-151652000D01*
X209081000Y-151651000D01*
X209083000Y-151651000D01*
X209085000Y-151650000D01*
X209087000Y-151650000D01*
X209091000Y-151648000D01*
X209093000Y-151648000D01*
X209095000Y-151647000D01*
X209097000Y-151647000D01*
X209101000Y-151647000D01*
X209601000Y-151647000D01*
X209603000Y-151647000D01*
X209605000Y-151647000D01*
X209609000Y-151648000D01*
G37*
%TO.C,U1*%
D10*
X168590000Y-142550000D02*
X167619000Y-142550000D01*
X167619000Y-141559000D01*
X168590000Y-141559000D01*
X168590000Y-142550000D01*
G36*
X168590000Y-142550000D02*
G01*
X167619000Y-142550000D01*
X167619000Y-141559000D01*
X168590000Y-141559000D01*
X168590000Y-142550000D01*
G37*
X168590000Y-143720000D02*
X167619000Y-143720000D01*
X167619000Y-142728000D01*
X168590000Y-142728000D01*
X168590000Y-143720000D01*
G36*
X168590000Y-143720000D02*
G01*
X167619000Y-143720000D01*
X167619000Y-142728000D01*
X168590000Y-142728000D01*
X168590000Y-143720000D01*
G37*
X169780000Y-142550000D02*
X168808000Y-142550000D01*
X168808000Y-141559000D01*
X169780000Y-141559000D01*
X169780000Y-142550000D01*
G36*
X169780000Y-142550000D02*
G01*
X168808000Y-142550000D01*
X168808000Y-141559000D01*
X169780000Y-141559000D01*
X169780000Y-142550000D01*
G37*
X169780000Y-143720000D02*
X168808000Y-143720000D01*
X168808000Y-142728000D01*
X169780000Y-142728000D01*
X169780000Y-143720000D01*
G36*
X169780000Y-143720000D02*
G01*
X168808000Y-143720000D01*
X168808000Y-142728000D01*
X169780000Y-142728000D01*
X169780000Y-143720000D01*
G37*
%TO.C,L2*%
D12*
X194918334Y-142210000D02*
X195018334Y-142340000D01*
X195108334Y-142440000D01*
X195198334Y-142520000D01*
X195298334Y-142590000D01*
X195398334Y-142650000D01*
X195508334Y-142700000D01*
X195618334Y-142740000D01*
X195728334Y-142770000D01*
X195848334Y-142790000D01*
X196008334Y-142800000D01*
X196168334Y-142790000D01*
X196288334Y-142770000D01*
X196398334Y-142740000D01*
X196508334Y-142700000D01*
X196618334Y-142650000D01*
X196718334Y-142590000D01*
X196818334Y-142520000D01*
X196908334Y-142440000D01*
X196998334Y-142340000D01*
X197098334Y-142210000D01*
X197188334Y-142060000D01*
X198148334Y-142060000D01*
X198148334Y-143570000D01*
X193868334Y-143570000D01*
X193868334Y-142060000D01*
X194828334Y-142060000D01*
X194918334Y-142210000D01*
G36*
X194918334Y-142210000D02*
G01*
X195018334Y-142340000D01*
X195108334Y-142440000D01*
X195198334Y-142520000D01*
X195298334Y-142590000D01*
X195398334Y-142650000D01*
X195508334Y-142700000D01*
X195618334Y-142740000D01*
X195728334Y-142770000D01*
X195848334Y-142790000D01*
X196008334Y-142800000D01*
X196168334Y-142790000D01*
X196288334Y-142770000D01*
X196398334Y-142740000D01*
X196508334Y-142700000D01*
X196618334Y-142650000D01*
X196718334Y-142590000D01*
X196818334Y-142520000D01*
X196908334Y-142440000D01*
X196998334Y-142340000D01*
X197098334Y-142210000D01*
X197188334Y-142060000D01*
X198148334Y-142060000D01*
X198148334Y-143570000D01*
X193868334Y-143570000D01*
X193868334Y-142060000D01*
X194828334Y-142060000D01*
X194918334Y-142210000D01*
G37*
X198148334Y-140940000D02*
X197188334Y-140940000D01*
X197098334Y-140790000D01*
X196998334Y-140660000D01*
X196908334Y-140560000D01*
X196818334Y-140480000D01*
X196718334Y-140410000D01*
X196618334Y-140350000D01*
X196508334Y-140300000D01*
X196398334Y-140260000D01*
X196288334Y-140230000D01*
X196168334Y-140210000D01*
X196008334Y-140200000D01*
X195848334Y-140210000D01*
X195728334Y-140230000D01*
X195618334Y-140260000D01*
X195508334Y-140300000D01*
X195398334Y-140350000D01*
X195298334Y-140410000D01*
X195198334Y-140480000D01*
X195108334Y-140560000D01*
X195018334Y-140660000D01*
X194918334Y-140790000D01*
X194828334Y-140940000D01*
X193868334Y-140940000D01*
X193868334Y-139430000D01*
X198148334Y-139430000D01*
X198148334Y-140940000D01*
G36*
X198148334Y-140940000D02*
G01*
X197188334Y-140940000D01*
X197098334Y-140790000D01*
X196998334Y-140660000D01*
X196908334Y-140560000D01*
X196818334Y-140480000D01*
X196718334Y-140410000D01*
X196618334Y-140350000D01*
X196508334Y-140300000D01*
X196398334Y-140260000D01*
X196288334Y-140230000D01*
X196168334Y-140210000D01*
X196008334Y-140200000D01*
X195848334Y-140210000D01*
X195728334Y-140230000D01*
X195618334Y-140260000D01*
X195508334Y-140300000D01*
X195398334Y-140350000D01*
X195298334Y-140410000D01*
X195198334Y-140480000D01*
X195108334Y-140560000D01*
X195018334Y-140660000D01*
X194918334Y-140790000D01*
X194828334Y-140940000D01*
X193868334Y-140940000D01*
X193868334Y-139430000D01*
X198148334Y-139430000D01*
X198148334Y-140940000D01*
G37*
%TD*%
D13*
%TO.C,R42*%
X208456000Y-160214000D03*
X207496000Y-160214000D03*
%TD*%
D14*
%TO.C,U2*%
X195210000Y-166175000D03*
X193940000Y-166175000D03*
X192670000Y-166175000D03*
X191400000Y-166175000D03*
X191400000Y-171600000D03*
X192670000Y-171600000D03*
X193940000Y-171600000D03*
X195210000Y-171600000D03*
D15*
X193305000Y-168890000D03*
%TD*%
D16*
%TO.C,C35*%
X144320000Y-130800000D03*
X145280000Y-130800000D03*
%TD*%
D17*
%TO.C,R15*%
X192350000Y-175050000D03*
X192350000Y-174090000D03*
%TD*%
D18*
%TO.C,U6*%
X206751000Y-151998000D03*
X207151000Y-151998000D03*
X207549000Y-151998000D03*
X207951000Y-151998000D03*
X208349000Y-151998000D03*
X208749000Y-151998000D03*
D19*
X211101000Y-151248000D03*
X211101000Y-150849000D03*
X211101000Y-150448000D03*
X211101000Y-150048000D03*
X211101000Y-149647000D03*
X211101000Y-149247000D03*
X211101000Y-148849000D03*
X211101000Y-148447000D03*
X211101000Y-148049000D03*
X211101000Y-147649000D03*
X211101000Y-147249000D03*
X211101000Y-146847000D03*
X211101000Y-146447000D03*
X211101000Y-146047000D03*
D18*
X210351000Y-145297000D03*
X209951000Y-145297000D03*
X209551000Y-145297000D03*
X209149000Y-145297000D03*
X208749000Y-145297000D03*
X208349000Y-145297000D03*
X207951000Y-145297000D03*
X207549000Y-145297000D03*
X207151000Y-145297000D03*
X206751000Y-145297000D03*
X206350000Y-145297000D03*
X205950000Y-145297000D03*
X205549000Y-145297000D03*
X205150000Y-145297000D03*
D19*
X204400000Y-146047000D03*
X204400000Y-146447000D03*
X204400000Y-146847000D03*
X204400000Y-147249000D03*
X204400000Y-147649000D03*
X204400000Y-148049000D03*
X204400000Y-148447000D03*
X204400000Y-148849000D03*
X204400000Y-149247000D03*
X204400000Y-149647000D03*
X204400000Y-150048000D03*
X204400000Y-150448000D03*
X204400000Y-150849000D03*
X204400000Y-151248000D03*
%TD*%
D20*
%TO.C,C30*%
X220412000Y-170040000D03*
X220412000Y-171000000D03*
%TD*%
D21*
%TO.C,C18*%
X182241667Y-145165000D03*
X182241667Y-147455000D03*
%TD*%
D17*
%TO.C,C2*%
X190800000Y-161800000D03*
X190800000Y-160840000D03*
%TD*%
%TO.C,R50*%
X205050000Y-143899000D03*
X205050000Y-142939000D03*
%TD*%
%TO.C,C32*%
X223988000Y-158958000D03*
X223988000Y-157998000D03*
%TD*%
D21*
%TO.C,C19*%
X178608334Y-145165000D03*
X178608334Y-147455000D03*
%TD*%
D13*
%TO.C,R19*%
X219105000Y-170601000D03*
X218145000Y-170601000D03*
%TD*%
D22*
%TO.C,U5*%
X215063000Y-172351000D03*
X215063000Y-170950000D03*
X215063000Y-169551000D03*
X215063000Y-168150000D03*
X213662000Y-172351000D03*
X213662000Y-170950000D03*
X213662000Y-169551000D03*
X213662000Y-168150000D03*
X212263000Y-172351000D03*
X212263000Y-170950000D03*
X212263000Y-169551000D03*
X212263000Y-168150000D03*
X210862000Y-172351000D03*
X210862000Y-170950000D03*
X210862000Y-169551000D03*
X210862000Y-168150000D03*
D23*
X216900000Y-173500000D03*
X216900000Y-173000000D03*
X216900000Y-172500000D03*
X216900000Y-172000000D03*
X216900000Y-171500000D03*
X216900000Y-171000000D03*
X216900000Y-170500000D03*
X216900000Y-170001000D03*
X216900000Y-169501000D03*
X216900000Y-169001000D03*
X216900000Y-168501000D03*
X216900000Y-168001000D03*
X216900000Y-167501000D03*
X216900000Y-167001000D03*
D24*
X216212000Y-166313000D03*
X215712000Y-166313000D03*
X215212000Y-166313000D03*
X214712000Y-166313000D03*
X214212000Y-166313000D03*
X213712000Y-166313000D03*
X213212000Y-166313000D03*
X212713000Y-166313000D03*
X212213000Y-166313000D03*
X211713000Y-166313000D03*
X211213000Y-166313000D03*
X210713000Y-166313000D03*
X210213000Y-166313000D03*
X209713000Y-166313000D03*
D23*
X209025000Y-167001000D03*
X209025000Y-167501000D03*
X209025000Y-168001000D03*
X209025000Y-168501000D03*
X209025000Y-169001000D03*
X209025000Y-169501000D03*
X209025000Y-170001000D03*
X209025000Y-170500000D03*
X209025000Y-171000000D03*
X209025000Y-171500000D03*
X209025000Y-172000000D03*
X209025000Y-172500000D03*
X209025000Y-173000000D03*
X209025000Y-173500000D03*
D24*
X209713000Y-174188000D03*
X210213000Y-174188000D03*
X210713000Y-174188000D03*
X211213000Y-174188000D03*
X211713000Y-174188000D03*
X212213000Y-174188000D03*
X212713000Y-174188000D03*
X213212000Y-174188000D03*
X213712000Y-174188000D03*
X214212000Y-174188000D03*
X214712000Y-174188000D03*
X215212000Y-174188000D03*
X215712000Y-174188000D03*
X216212000Y-174188000D03*
%TD*%
D21*
%TO.C,C17*%
X185875000Y-145155000D03*
X185875000Y-147445000D03*
%TD*%
D13*
%TO.C,C36*%
X222800000Y-131000000D03*
X221840000Y-131000000D03*
%TD*%
D16*
%TO.C,C34*%
X203864000Y-155219000D03*
X204824000Y-155219000D03*
%TD*%
D20*
%TO.C,C21*%
X196975000Y-149020000D03*
X196975000Y-149980000D03*
%TD*%
D13*
%TO.C,R58*%
X213304000Y-150499000D03*
X212344000Y-150499000D03*
%TD*%
D16*
%TO.C,R55*%
X212444000Y-146599000D03*
X213404000Y-146599000D03*
%TD*%
D13*
%TO.C,R24*%
X190880000Y-153000000D03*
X189920000Y-153000000D03*
%TD*%
D25*
%TO.C,U1*%
X166373000Y-141339000D03*
X166373000Y-141988000D03*
X166373000Y-142640000D03*
X166373000Y-143290000D03*
X166373000Y-143940000D03*
D26*
X167399000Y-144965000D03*
X168048000Y-144965000D03*
X168700000Y-144965000D03*
X169350000Y-144965000D03*
X170000000Y-144965000D03*
D25*
X171025000Y-143940000D03*
X171025000Y-143290000D03*
X171025000Y-142640000D03*
X171025000Y-141988000D03*
X171025000Y-141339000D03*
D26*
X170000000Y-140313000D03*
X169350000Y-140313000D03*
X168700000Y-140313000D03*
X168048000Y-140313000D03*
X167399000Y-140313000D03*
%TD*%
D13*
%TO.C,R48*%
X224800000Y-131000000D03*
X223840000Y-131000000D03*
%TD*%
D27*
%TO.C,FB1*%
X233697000Y-161979000D03*
X232297000Y-161979000D03*
%TD*%
D17*
%TO.C,R16*%
X193350000Y-175050000D03*
X193350000Y-174090000D03*
%TD*%
D13*
%TO.C,C26*%
X206824000Y-155219000D03*
X205864000Y-155219000D03*
%TD*%
D28*
%TO.C,C5*%
X195459000Y-154700000D03*
X193169000Y-154700000D03*
%TD*%
D17*
%TO.C,R6*%
X170400000Y-147800000D03*
X170400000Y-146840000D03*
%TD*%
D16*
%TO.C,R60*%
X214340000Y-160798000D03*
X215300000Y-160798000D03*
%TD*%
D20*
%TO.C,R40*%
X229329000Y-166025000D03*
X229329000Y-166985000D03*
%TD*%
D29*
%TO.C,C20*%
X188475000Y-146500000D03*
X188475000Y-147900000D03*
%TD*%
D17*
%TO.C,R38*%
X230329000Y-165065000D03*
X230329000Y-164105000D03*
%TD*%
D16*
%TO.C,C29*%
X216632000Y-175340000D03*
X217592000Y-175340000D03*
%TD*%
D28*
%TO.C,C3*%
X195389000Y-162000000D03*
X193099000Y-162000000D03*
%TD*%
D30*
%TO.C,D6*%
X225188000Y-157897000D03*
X225188000Y-159297000D03*
%TD*%
D17*
%TO.C,R9*%
X189800000Y-167480000D03*
X189800000Y-166520000D03*
%TD*%
D31*
%TO.C,L2*%
X196008334Y-143250000D03*
X196008334Y-139750000D03*
%TD*%
D16*
%TO.C,R46*%
X140020000Y-130800000D03*
X140980000Y-130800000D03*
%TD*%
D32*
%TO.C,D1*%
X158800000Y-137560000D03*
X158800000Y-140100000D03*
X155100000Y-137560000D03*
X155100000Y-140100000D03*
%TD*%
D20*
%TO.C,R2*%
X165200000Y-140860000D03*
X165200000Y-141820000D03*
%TD*%
D13*
%TO.C,R28*%
X208824000Y-154199000D03*
X207864000Y-154199000D03*
%TD*%
D17*
%TO.C,R37*%
X229329000Y-165065000D03*
X229329000Y-164105000D03*
%TD*%
D20*
%TO.C,C14*%
X220412000Y-168001000D03*
X220412000Y-168961000D03*
%TD*%
D27*
%TO.C,C8*%
X198300000Y-166200000D03*
X196900000Y-166200000D03*
%TD*%
D33*
%TO.C,C23*%
X192108334Y-143000000D03*
X192108334Y-140000000D03*
%TD*%
D20*
%TO.C,R45*%
X212824000Y-154139000D03*
X212824000Y-155099000D03*
%TD*%
D34*
%TO.C,C9*%
X199799000Y-165100000D03*
X202799000Y-165100000D03*
%TD*%
D35*
%TO.C,D4*%
X198600000Y-173800000D03*
D36*
X199540000Y-169838000D03*
D37*
X197659000Y-169838000D03*
%TD*%
D38*
%TO.C,Y1*%
X220012000Y-172640000D03*
D39*
X220012000Y-174940000D03*
X221811000Y-174940000D03*
X221811000Y-172640000D03*
%TD*%
D13*
%TO.C,C15*%
X213404000Y-147599000D03*
X212444000Y-147599000D03*
%TD*%
D20*
%TO.C,C13*%
X221412000Y-170020000D03*
X221412000Y-170980000D03*
%TD*%
D16*
%TO.C,R47*%
X219840000Y-131000000D03*
X220800000Y-131000000D03*
%TD*%
D29*
%TO.C,R11*%
X189600000Y-158100000D03*
X189600000Y-159500000D03*
%TD*%
D40*
%TO.C,R3*%
X202704000Y-155799000D03*
X202704000Y-154399000D03*
%TD*%
%TO.C,R1*%
X169200000Y-147920000D03*
X169200000Y-146520000D03*
%TD*%
D16*
%TO.C,C25*%
X205864000Y-154219000D03*
X206824000Y-154219000D03*
%TD*%
D17*
%TO.C,R21*%
X218325000Y-166881000D03*
X218325000Y-165921000D03*
%TD*%
%TO.C,R31*%
X211824000Y-155119000D03*
X211824000Y-154159000D03*
%TD*%
%TO.C,R26*%
X197000000Y-152000000D03*
X197000000Y-151040000D03*
%TD*%
%TO.C,R34*%
X228229000Y-165065000D03*
X228229000Y-164105000D03*
%TD*%
%TO.C,R43*%
X208400000Y-162194000D03*
X208400000Y-161234000D03*
%TD*%
D20*
%TO.C,R36*%
X228229000Y-166085000D03*
X228229000Y-167045000D03*
%TD*%
D13*
%TO.C,C33*%
X204824000Y-154219000D03*
X203864000Y-154219000D03*
%TD*%
D20*
%TO.C,R25*%
X198000000Y-151040000D03*
X198000000Y-152000000D03*
%TD*%
D17*
%TO.C,R44*%
X206050000Y-143899000D03*
X206050000Y-142939000D03*
%TD*%
D41*
%TO.C,SW1*%
X208100000Y-138200000D03*
X206350000Y-140499000D03*
X204601000Y-138200000D03*
%TD*%
D16*
%TO.C,R10*%
X172540000Y-144148000D03*
X173500000Y-144148000D03*
%TD*%
D20*
%TO.C,C11*%
X221412000Y-167981000D03*
X221412000Y-168941000D03*
%TD*%
D40*
%TO.C,R64*%
X166800000Y-147860000D03*
X166800000Y-146460000D03*
%TD*%
D34*
%TO.C,C10*%
X199799000Y-167600000D03*
X202799000Y-167600000D03*
%TD*%
D42*
%TO.C,C39*%
X204399000Y-160300000D03*
X198801000Y-160300000D03*
%TD*%
D43*
%TO.C,Q1*%
X173400000Y-146198000D03*
X172402000Y-146198000D03*
X172900000Y-147500000D03*
%TD*%
D44*
%TO.C,D5*%
X195833334Y-145301000D03*
X192583334Y-145301000D03*
%TD*%
D45*
%TO.C,C1*%
X163300000Y-143900000D03*
X163300000Y-141700000D03*
%TD*%
D16*
%TO.C,R59*%
X206070000Y-141899000D03*
X207030000Y-141899000D03*
%TD*%
D46*
%TO.C,D3*%
X161200000Y-141409000D03*
X161200000Y-144208000D03*
%TD*%
D28*
%TO.C,C4*%
X195459000Y-158350000D03*
X193169000Y-158350000D03*
%TD*%
D47*
%TO.C,U7*%
X190100000Y-147590000D03*
X190100000Y-148860000D03*
X190100000Y-150130000D03*
X190100000Y-151400000D03*
X195525000Y-151400000D03*
X195525000Y-150130000D03*
X195525000Y-148860000D03*
X195525000Y-147590000D03*
D48*
X192815000Y-149495000D03*
%TD*%
D17*
%TO.C,C31*%
X218712000Y-175280000D03*
X218712000Y-174320000D03*
%TD*%
D13*
%TO.C,R20*%
X219105000Y-168440000D03*
X218145000Y-168440000D03*
%TD*%
D40*
%TO.C,R49*%
X165000000Y-144340000D03*
X165000000Y-142940000D03*
%TD*%
D17*
%TO.C,C28*%
X209824000Y-155119000D03*
X209824000Y-154159000D03*
%TD*%
%TO.C,R14*%
X191350000Y-175050000D03*
X191350000Y-174090000D03*
%TD*%
D20*
%TO.C,C40*%
X208376000Y-158234000D03*
X208376000Y-159194000D03*
%TD*%
D40*
%TO.C,C37*%
X155000000Y-143100000D03*
X155000000Y-141700000D03*
%TD*%
D17*
%TO.C,R35*%
X227229000Y-167085000D03*
X227229000Y-166125000D03*
%TD*%
D20*
%TO.C,R63*%
X203224000Y-145219000D03*
X203224000Y-146179000D03*
%TD*%
D17*
%TO.C,R30*%
X210824000Y-155119000D03*
X210824000Y-154159000D03*
%TD*%
%TO.C,R51*%
X232329000Y-164965000D03*
X232329000Y-164005000D03*
%TD*%
D49*
%TO.C,U8*%
X210776000Y-159594000D03*
X211775000Y-159594000D03*
D50*
X209475000Y-159844000D03*
D51*
X210026000Y-160895000D03*
X210526000Y-160895000D03*
X211026000Y-160895000D03*
X211525000Y-160895000D03*
X212025000Y-160895000D03*
X212525000Y-160895000D03*
D50*
X213076000Y-159844000D03*
X213076000Y-159345000D03*
D51*
X212525000Y-158294000D03*
X212025000Y-158294000D03*
X211525000Y-158294000D03*
X211026000Y-158294000D03*
X210526000Y-158294000D03*
X210026000Y-158294000D03*
D50*
X209475000Y-159345000D03*
%TD*%
D17*
%TO.C,R17*%
X194350000Y-175050000D03*
X194350000Y-174090000D03*
%TD*%
%TO.C,R33*%
X227229000Y-165065000D03*
X227229000Y-164105000D03*
%TD*%
D16*
%TO.C,R61*%
X214340000Y-159798000D03*
X215300000Y-159798000D03*
%TD*%
D33*
%TO.C,C24*%
X189608334Y-143000000D03*
X189608334Y-140000000D03*
%TD*%
D52*
%TO.C,U3*%
X228679000Y-163015000D03*
X229179000Y-163015000D03*
X229679000Y-163015000D03*
X230179000Y-163015000D03*
D53*
X230829000Y-162365000D03*
X230829000Y-161865000D03*
X230829000Y-161365000D03*
X230829000Y-160865000D03*
D54*
X230179000Y-160215000D03*
X229679000Y-160215000D03*
X229179000Y-160215000D03*
X228679000Y-160215000D03*
D55*
X228029000Y-160865000D03*
X228029000Y-161365000D03*
X228029000Y-161865000D03*
X228029000Y-162365000D03*
D56*
X229429000Y-161615000D03*
%TD*%
D13*
%TO.C,R8*%
X173480000Y-145148000D03*
X172520000Y-145148000D03*
%TD*%
D57*
%TO.C,J3*%
X232645000Y-159281000D03*
X232645000Y-158479000D03*
D58*
X232645000Y-157329000D03*
X232645000Y-156329000D03*
X232645000Y-155831000D03*
X232645000Y-154830000D03*
D57*
X232645000Y-153681000D03*
X232645000Y-152879000D03*
X232645000Y-152879000D03*
X232645000Y-153681000D03*
D58*
X232645000Y-154330000D03*
X232645000Y-155331000D03*
X232645000Y-156829000D03*
X232645000Y-157829000D03*
D57*
X232645000Y-158479000D03*
X232645000Y-159281000D03*
%TD*%
D59*
%TO.C,R52*%
X229900000Y-153680000D03*
X229900000Y-158320000D03*
%TD*%
D20*
%TO.C,R13*%
X190350000Y-174090000D03*
X190350000Y-175050000D03*
%TD*%
D60*
%TO.C,L1*%
X204300000Y-175250000D03*
X204300000Y-172000000D03*
%TD*%
D16*
%TO.C,C16*%
X205364000Y-153199000D03*
X206324000Y-153199000D03*
%TD*%
%TO.C,R23*%
X219325000Y-163901000D03*
X220285000Y-163901000D03*
%TD*%
D17*
%TO.C,R41*%
X231329000Y-164985000D03*
X231329000Y-164025000D03*
%TD*%
D16*
%TO.C,R54*%
X219325000Y-164901000D03*
X220285000Y-164901000D03*
%TD*%
D17*
%TO.C,R39*%
X230329000Y-166965000D03*
X230329000Y-166005000D03*
%TD*%
D61*
%TO.C,U9*%
X217074000Y-158293000D03*
X217074000Y-159563000D03*
X217074000Y-160830000D03*
X217074000Y-162100000D03*
X222500000Y-162100000D03*
X222500000Y-160830000D03*
X222500000Y-159563000D03*
X222500000Y-158293000D03*
%TD*%
D20*
%TO.C,C12*%
X218712000Y-172340000D03*
X218712000Y-173300000D03*
%TD*%
D16*
%TO.C,R53*%
X219325000Y-165901000D03*
X220285000Y-165901000D03*
%TD*%
D17*
%TO.C,R5*%
X168000000Y-147740000D03*
X168000000Y-146780000D03*
%TD*%
D27*
%TO.C,C38*%
X218700000Y-130800000D03*
X217300000Y-130800000D03*
%TD*%
D16*
%TO.C,R22*%
X219345000Y-166901000D03*
X220305000Y-166901000D03*
%TD*%
D20*
%TO.C,R62*%
X207400000Y-161234000D03*
X207400000Y-162194000D03*
%TD*%
D16*
%TO.C,R4*%
X172540000Y-143100000D03*
X173500000Y-143100000D03*
%TD*%
D20*
%TO.C,R18*%
X195350000Y-174070000D03*
X195350000Y-175030000D03*
%TD*%
D29*
%TO.C,C22*%
X190175000Y-144500000D03*
X190175000Y-145900000D03*
%TD*%
%TO.C,FB3*%
X222612000Y-169540000D03*
X222612000Y-170940000D03*
%TD*%
D16*
%TO.C,R57*%
X208996000Y-157194000D03*
X209956000Y-157194000D03*
%TD*%
D32*
%TO.C,D2*%
X158800000Y-144800000D03*
X158800000Y-147340000D03*
X155100000Y-144800000D03*
X155100000Y-147340000D03*
%TD*%
D40*
%TO.C,R12*%
X189600000Y-162100000D03*
X189600000Y-160700000D03*
%TD*%
D16*
%TO.C,R56*%
X212444000Y-145599000D03*
X213404000Y-145599000D03*
%TD*%
D29*
%TO.C,FB2*%
X222612000Y-166940000D03*
X222612000Y-168340000D03*
%TD*%
D13*
%TO.C,R29*%
X208824000Y-155199000D03*
X207864000Y-155199000D03*
%TD*%
D27*
%TO.C,C6*%
X194900000Y-164500000D03*
X193500000Y-164500000D03*
%TD*%
D20*
%TO.C,C27*%
X207050000Y-142939000D03*
X207050000Y-143899000D03*
%TD*%
D17*
%TO.C,R32*%
X203204000Y-148179000D03*
X203204000Y-147219000D03*
%TD*%
D13*
%TO.C,C7*%
X193680000Y-173000000D03*
X192720000Y-173000000D03*
%TD*%
M02*
