%TF.GenerationSoftware,KiCad,Pcbnew,7.0.11+dfsg-1build4*%
%TF.CreationDate,2024-07-19T16:51:39+02:00*%
%TF.ProjectId,antmicro-poe-to-usbc-pd-adapter,616e746d-6963-4726-9f2d-706f652d746f,rev?*%
%TF.SameCoordinates,Original*%
%TF.FileFunction,Copper,L1,Top*%
%TF.FilePolarity,Positive*%
%FSLAX46Y46*%
G04 Gerber Fmt 4.6, Leading zero omitted, Abs format (unit mm)*
G04 Created by KiCad (PCBNEW 7.0.11+dfsg-1build4) date 2024-07-19 16:51:39 commit  9a9195e *
%MOMM*%
%LPD*%
G01*
G04 APERTURE LIST*
G04 Aperture macros list*
%AMRoundRect*
0 Rectangle with rounded corners*
0 $1 Rounding radius*
0 $2 $3 $4 $5 $6 $7 $8 $9 X,Y pos of 4 corners*
0 Add a 4 corners polygon primitive as box body*
4,1,4,$2,$3,$4,$5,$6,$7,$8,$9,$2,$3,0*
0 Add four circle primitives for the rounded corners*
1,1,$1+$1,$2,$3*
1,1,$1+$1,$4,$5*
1,1,$1+$1,$6,$7*
1,1,$1+$1,$8,$9*
0 Add four rect primitives between the rounded corners*
20,1,$1+$1,$2,$3,$4,$5,0*
20,1,$1+$1,$4,$5,$6,$7,0*
20,1,$1+$1,$6,$7,$8,$9,0*
20,1,$1+$1,$8,$9,$2,$3,0*%
%AMOutline5P*
0 Free polygon, 5 corners , with rotation*
0 The origin of the aperture is its center*
0 number of corners: always 5*
0 $1 to $10 corner X, Y*
0 $11 Rotation angle, in degrees counterclockwise*
0 create outline with 5 corners*
4,1,5,$1,$2,$3,$4,$5,$6,$7,$8,$9,$10,$1,$2,$11*%
%AMOutline6P*
0 Free polygon, 6 corners , with rotation*
0 The origin of the aperture is its center*
0 number of corners: always 6*
0 $1 to $12 corner X, Y*
0 $13 Rotation angle, in degrees counterclockwise*
0 create outline with 6 corners*
4,1,6,$1,$2,$3,$4,$5,$6,$7,$8,$9,$10,$11,$12,$1,$2,$13*%
%AMOutline7P*
0 Free polygon, 7 corners , with rotation*
0 The origin of the aperture is its center*
0 number of corners: always 7*
0 $1 to $14 corner X, Y*
0 $15 Rotation angle, in degrees counterclockwise*
0 create outline with 7 corners*
4,1,7,$1,$2,$3,$4,$5,$6,$7,$8,$9,$10,$11,$12,$13,$14,$1,$2,$15*%
%AMOutline8P*
0 Free polygon, 8 corners , with rotation*
0 The origin of the aperture is its center*
0 number of corners: always 8*
0 $1 to $16 corner X, Y*
0 $17 Rotation angle, in degrees counterclockwise*
0 create outline with 8 corners*
4,1,8,$1,$2,$3,$4,$5,$6,$7,$8,$9,$10,$11,$12,$13,$14,$15,$16,$1,$2,$17*%
G04 Aperture macros list end*
%TA.AperFunction,EtchedComponent*%
%ADD10C,0.020000*%
%TD*%
%TA.AperFunction,EtchedComponent*%
%ADD11C,0.010000*%
%TD*%
%TA.AperFunction,EtchedComponent*%
%ADD12C,0.130000*%
%TD*%
%TA.AperFunction,SMDPad,CuDef*%
%ADD13RoundRect,0.147500X0.147500X0.172500X-0.147500X0.172500X-0.147500X-0.172500X0.147500X-0.172500X0*%
%TD*%
%TA.AperFunction,ComponentPad*%
%ADD14C,5.400000*%
%TD*%
%TA.AperFunction,SMDPad,CuDef*%
%ADD15R,0.650000X1.525000*%
%TD*%
%TA.AperFunction,ComponentPad*%
%ADD16C,0.400000*%
%TD*%
%TA.AperFunction,SMDPad,CuDef*%
%ADD17R,3.400000X2.710000*%
%TD*%
%TA.AperFunction,SMDPad,CuDef*%
%ADD18RoundRect,0.147500X-0.147500X-0.172500X0.147500X-0.172500X0.147500X0.172500X-0.147500X0.172500X0*%
%TD*%
%TA.AperFunction,SMDPad,CuDef*%
%ADD19RoundRect,0.147500X0.172500X-0.147500X0.172500X0.147500X-0.172500X0.147500X-0.172500X-0.147500X0*%
%TD*%
%TA.AperFunction,SMDPad,CuDef*%
%ADD20RoundRect,0.058500X0.266500X-0.341500X0.266500X0.341500X-0.266500X0.341500X-0.266500X-0.341500X0*%
%TD*%
%TA.AperFunction,SMDPad,CuDef*%
%ADD21RoundRect,0.050000X0.050000X-0.300000X0.050000X0.300000X-0.050000X0.300000X-0.050000X-0.300000X0*%
%TD*%
%TA.AperFunction,SMDPad,CuDef*%
%ADD22RoundRect,0.050000X0.300000X0.050000X-0.300000X0.050000X-0.300000X-0.050000X0.300000X-0.050000X0*%
%TD*%
%TA.AperFunction,ComponentPad*%
%ADD23C,0.450000*%
%TD*%
%TA.AperFunction,SMDPad,CuDef*%
%ADD24RoundRect,0.100000X1.200000X0.775000X-1.200000X0.775000X-1.200000X-0.775000X1.200000X-0.775000X0*%
%TD*%
%TA.AperFunction,SMDPad,CuDef*%
%ADD25RoundRect,0.100000X1.175000X0.775000X-1.175000X0.775000X-1.175000X-0.775000X1.175000X-0.775000X0*%
%TD*%
%TA.AperFunction,SMDPad,CuDef*%
%ADD26RoundRect,0.100000X2.650000X1.600000X-2.650000X1.600000X-2.650000X-1.600000X2.650000X-1.600000X0*%
%TD*%
%TA.AperFunction,SMDPad,CuDef*%
%ADD27RoundRect,0.147500X-0.172500X0.147500X-0.172500X-0.147500X0.172500X-0.147500X0.172500X0.147500X0*%
%TD*%
%TA.AperFunction,SMDPad,CuDef*%
%ADD28R,3.050000X1.520000*%
%TD*%
%TA.AperFunction,SMDPad,CuDef*%
%ADD29RoundRect,0.075000X0.362500X0.075000X-0.362500X0.075000X-0.362500X-0.075000X0.362500X-0.075000X0*%
%TD*%
%TA.AperFunction,SMDPad,CuDef*%
%ADD30RoundRect,0.075000X-0.075000X0.362500X-0.075000X-0.362500X0.075000X-0.362500X0.075000X0.362500X0*%
%TD*%
%TA.AperFunction,SMDPad,CuDef*%
%ADD31R,5.900000X5.900000*%
%TD*%
%TA.AperFunction,SMDPad,CuDef*%
%ADD32C,0.750000*%
%TD*%
%TA.AperFunction,ComponentPad*%
%ADD33C,1.408000*%
%TD*%
%TA.AperFunction,ComponentPad*%
%ADD34C,1.530000*%
%TD*%
%TA.AperFunction,ComponentPad*%
%ADD35C,2.400000*%
%TD*%
%TA.AperFunction,SMDPad,CuDef*%
%ADD36RoundRect,0.077500X-0.297500X-0.077500X0.297500X-0.077500X0.297500X0.077500X-0.297500X0.077500X0*%
%TD*%
%TA.AperFunction,SMDPad,CuDef*%
%ADD37RoundRect,0.077500X-0.077500X-0.297500X0.077500X-0.297500X0.077500X0.297500X-0.077500X0.297500X0*%
%TD*%
%TA.AperFunction,SMDPad,CuDef*%
%ADD38R,2.200000X2.200000*%
%TD*%
%TA.AperFunction,SMDPad,CuDef*%
%ADD39RoundRect,0.160000X0.240000X0.340000X-0.240000X0.340000X-0.240000X-0.340000X0.240000X-0.340000X0*%
%TD*%
%TA.AperFunction,SMDPad,CuDef*%
%ADD40R,1.520000X3.050000*%
%TD*%
%TA.AperFunction,SMDPad,CuDef*%
%ADD41RoundRect,0.160000X-0.340000X0.240000X-0.340000X-0.240000X0.340000X-0.240000X0.340000X0.240000X0*%
%TD*%
%TA.AperFunction,SMDPad,CuDef*%
%ADD42RoundRect,0.125000X-0.175000X0.125000X-0.175000X-0.125000X0.175000X-0.125000X0.175000X0.125000X0*%
%TD*%
%TA.AperFunction,SMDPad,CuDef*%
%ADD43RoundRect,0.080000X2.070000X-0.320000X2.070000X0.320000X-2.070000X0.320000X-2.070000X-0.320000X0*%
%TD*%
%TA.AperFunction,SMDPad,CuDef*%
%ADD44RoundRect,0.120000X-0.580000X-0.120000X0.580000X-0.120000X0.580000X0.120000X-0.580000X0.120000X0*%
%TD*%
%TA.AperFunction,SMDPad,CuDef*%
%ADD45RoundRect,0.287500X0.612500X-0.287500X0.612500X0.287500X-0.612500X0.287500X-0.612500X-0.287500X0*%
%TD*%
%TA.AperFunction,SMDPad,CuDef*%
%ADD46RoundRect,0.287500X-0.287500X-0.612500X0.287500X-0.612500X0.287500X0.612500X-0.287500X0.612500X0*%
%TD*%
%TA.AperFunction,SMDPad,CuDef*%
%ADD47RoundRect,0.168000X1.512000X2.262000X-1.512000X2.262000X-1.512000X-2.262000X1.512000X-2.262000X0*%
%TD*%
%TA.AperFunction,SMDPad,CuDef*%
%ADD48RoundRect,0.347500X-0.347500X-0.352500X0.347500X-0.352500X0.347500X0.352500X-0.347500X0.352500X0*%
%TD*%
%TA.AperFunction,SMDPad,CuDef*%
%ADD49RoundRect,0.347500X0.347500X0.352500X-0.347500X0.352500X-0.347500X-0.352500X0.347500X-0.352500X0*%
%TD*%
%TA.AperFunction,SMDPad,CuDef*%
%ADD50Outline5P,-0.650000X0.550000X0.650000X0.550000X0.650000X-0.550000X-0.430000X-0.550000X-0.650000X-0.330000X270.000000*%
%TD*%
%TA.AperFunction,SMDPad,CuDef*%
%ADD51R,1.100000X1.300000*%
%TD*%
%TA.AperFunction,SMDPad,CuDef*%
%ADD52RoundRect,0.160000X0.340000X-0.240000X0.340000X0.240000X-0.340000X0.240000X-0.340000X-0.240000X0*%
%TD*%
%TA.AperFunction,SMDPad,CuDef*%
%ADD53R,1.000000X1.600000*%
%TD*%
%TA.AperFunction,SMDPad,CuDef*%
%ADD54RoundRect,0.160000X1.590000X0.640000X-1.590000X0.640000X-1.590000X-0.640000X1.590000X-0.640000X0*%
%TD*%
%TA.AperFunction,SMDPad,CuDef*%
%ADD55R,0.400000X0.510000*%
%TD*%
%TA.AperFunction,SMDPad,CuDef*%
%ADD56RoundRect,0.135000X0.315000X0.340000X-0.315000X0.340000X-0.315000X-0.340000X0.315000X-0.340000X0*%
%TD*%
%TA.AperFunction,ComponentPad*%
%ADD57C,1.397000*%
%TD*%
%TA.AperFunction,ComponentPad*%
%ADD58C,1.524000*%
%TD*%
%TA.AperFunction,ComponentPad*%
%ADD59C,2.100000*%
%TD*%
%TA.AperFunction,ComponentPad*%
%ADD60C,2.108200*%
%TD*%
%TA.AperFunction,SMDPad,CuDef*%
%ADD61RoundRect,0.300000X0.350000X-0.300000X0.350000X0.300000X-0.350000X0.300000X-0.350000X-0.300000X0*%
%TD*%
%TA.AperFunction,SMDPad,CuDef*%
%ADD62RoundRect,0.300000X-0.300000X0.300000X-0.300000X-0.300000X0.300000X-0.300000X0.300000X0.300000X0*%
%TD*%
%TA.AperFunction,SMDPad,CuDef*%
%ADD63R,1.525000X0.650000*%
%TD*%
%TA.AperFunction,SMDPad,CuDef*%
%ADD64R,2.710000X3.400000*%
%TD*%
%TA.AperFunction,SMDPad,CuDef*%
%ADD65O,0.900000X0.240000*%
%TD*%
%TA.AperFunction,SMDPad,CuDef*%
%ADD66O,0.240000X0.900000*%
%TD*%
%TA.AperFunction,SMDPad,CuDef*%
%ADD67RoundRect,0.225000X0.725000X-0.225000X0.725000X0.225000X-0.725000X0.225000X-0.725000X-0.225000X0*%
%TD*%
%TA.AperFunction,SMDPad,CuDef*%
%ADD68RoundRect,0.050000X0.075000X-0.250000X0.075000X0.250000X-0.075000X0.250000X-0.075000X-0.250000X0*%
%TD*%
%TA.AperFunction,SMDPad,CuDef*%
%ADD69RoundRect,0.050000X0.250000X0.075000X-0.250000X0.075000X-0.250000X-0.075000X0.250000X-0.075000X0*%
%TD*%
%TA.AperFunction,SMDPad,CuDef*%
%ADD70RoundRect,0.050000X-0.075000X0.250000X-0.075000X-0.250000X0.075000X-0.250000X0.075000X0.250000X0*%
%TD*%
%TA.AperFunction,SMDPad,CuDef*%
%ADD71RoundRect,0.050000X-0.250000X-0.075000X0.250000X-0.075000X0.250000X0.075000X-0.250000X0.075000X0*%
%TD*%
%TA.AperFunction,SMDPad,CuDef*%
%ADD72RoundRect,0.050000X0.790000X-0.790000X0.790000X0.790000X-0.790000X0.790000X-0.790000X-0.790000X0*%
%TD*%
%TA.AperFunction,SMDPad,CuDef*%
%ADD73RoundRect,0.150000X0.425000X-0.150000X0.425000X0.150000X-0.425000X0.150000X-0.425000X-0.150000X0*%
%TD*%
%TA.AperFunction,SMDPad,CuDef*%
%ADD74RoundRect,0.075000X0.500000X-0.075000X0.500000X0.075000X-0.500000X0.075000X-0.500000X-0.075000X0*%
%TD*%
%TA.AperFunction,ComponentPad*%
%ADD75O,2.100000X1.050000*%
%TD*%
%TA.AperFunction,ComponentPad*%
%ADD76O,2.000000X1.000000*%
%TD*%
%TA.AperFunction,SMDPad,CuDef*%
%ADD77R,2.750000X1.500000*%
%TD*%
%TA.AperFunction,SMDPad,CuDef*%
%ADD78RoundRect,0.125000X2.225000X-0.500000X2.225000X0.500000X-2.225000X0.500000X-2.225000X-0.500000X0*%
%TD*%
%TA.AperFunction,SMDPad,CuDef*%
%ADD79RoundRect,0.162500X0.600000X-0.162500X0.600000X0.162500X-0.600000X0.162500X-0.600000X-0.162500X0*%
%TD*%
%TA.AperFunction,ComponentPad*%
%ADD80C,2.030000*%
%TD*%
%TA.AperFunction,ComponentPad*%
%ADD81C,2.590000*%
%TD*%
%TA.AperFunction,SMDPad,CuDef*%
%ADD82C,1.500000*%
%TD*%
%TA.AperFunction,ViaPad*%
%ADD83C,0.600000*%
%TD*%
%TA.AperFunction,Conductor*%
%ADD84C,0.200000*%
%TD*%
%TA.AperFunction,Conductor*%
%ADD85C,0.300000*%
%TD*%
%TA.AperFunction,Conductor*%
%ADD86C,0.160000*%
%TD*%
%TA.AperFunction,Conductor*%
%ADD87C,0.155000*%
%TD*%
G04 APERTURE END LIST*
%TO.C,L2*%
D10*
X194918334Y-142210000D02*
X195018334Y-142340000D01*
X195108334Y-142440000D01*
X195198334Y-142520000D01*
X195298334Y-142590000D01*
X195398334Y-142650000D01*
X195508334Y-142700000D01*
X195618334Y-142740000D01*
X195728334Y-142770000D01*
X195848334Y-142790000D01*
X196008334Y-142800000D01*
X196168334Y-142790000D01*
X196288334Y-142770000D01*
X196398334Y-142740000D01*
X196508334Y-142700000D01*
X196618334Y-142650000D01*
X196718334Y-142590000D01*
X196818334Y-142520000D01*
X196908334Y-142440000D01*
X196998334Y-142340000D01*
X197098334Y-142210000D01*
X197188334Y-142060000D01*
X198148334Y-142060000D01*
X198148334Y-143570000D01*
X193868334Y-143570000D01*
X193868334Y-142060000D01*
X194828334Y-142060000D01*
X194918334Y-142210000D01*
%TA.AperFunction,EtchedComponent*%
G36*
X194918334Y-142210000D02*
G01*
X195018334Y-142340000D01*
X195108334Y-142440000D01*
X195198334Y-142520000D01*
X195298334Y-142590000D01*
X195398334Y-142650000D01*
X195508334Y-142700000D01*
X195618334Y-142740000D01*
X195728334Y-142770000D01*
X195848334Y-142790000D01*
X196008334Y-142800000D01*
X196168334Y-142790000D01*
X196288334Y-142770000D01*
X196398334Y-142740000D01*
X196508334Y-142700000D01*
X196618334Y-142650000D01*
X196718334Y-142590000D01*
X196818334Y-142520000D01*
X196908334Y-142440000D01*
X196998334Y-142340000D01*
X197098334Y-142210000D01*
X197188334Y-142060000D01*
X198148334Y-142060000D01*
X198148334Y-143570000D01*
X193868334Y-143570000D01*
X193868334Y-142060000D01*
X194828334Y-142060000D01*
X194918334Y-142210000D01*
G37*
%TD.AperFunction*%
X198148334Y-140940000D02*
X197188334Y-140940000D01*
X197098334Y-140790000D01*
X196998334Y-140660000D01*
X196908334Y-140560000D01*
X196818334Y-140480000D01*
X196718334Y-140410000D01*
X196618334Y-140350000D01*
X196508334Y-140300000D01*
X196398334Y-140260000D01*
X196288334Y-140230000D01*
X196168334Y-140210000D01*
X196008334Y-140200000D01*
X195848334Y-140210000D01*
X195728334Y-140230000D01*
X195618334Y-140260000D01*
X195508334Y-140300000D01*
X195398334Y-140350000D01*
X195298334Y-140410000D01*
X195198334Y-140480000D01*
X195108334Y-140560000D01*
X195018334Y-140660000D01*
X194918334Y-140790000D01*
X194828334Y-140940000D01*
X193868334Y-140940000D01*
X193868334Y-139430000D01*
X198148334Y-139430000D01*
X198148334Y-140940000D01*
%TA.AperFunction,EtchedComponent*%
G36*
X198148334Y-140940000D02*
G01*
X197188334Y-140940000D01*
X197098334Y-140790000D01*
X196998334Y-140660000D01*
X196908334Y-140560000D01*
X196818334Y-140480000D01*
X196718334Y-140410000D01*
X196618334Y-140350000D01*
X196508334Y-140300000D01*
X196398334Y-140260000D01*
X196288334Y-140230000D01*
X196168334Y-140210000D01*
X196008334Y-140200000D01*
X195848334Y-140210000D01*
X195728334Y-140230000D01*
X195618334Y-140260000D01*
X195508334Y-140300000D01*
X195398334Y-140350000D01*
X195298334Y-140410000D01*
X195198334Y-140480000D01*
X195108334Y-140560000D01*
X195018334Y-140660000D01*
X194918334Y-140790000D01*
X194828334Y-140940000D01*
X193868334Y-140940000D01*
X193868334Y-139430000D01*
X198148334Y-139430000D01*
X198148334Y-140940000D01*
G37*
%TD.AperFunction*%
%TO.C,REF\u002A\u002A*%
D11*
X173352600Y-136858752D02*
X173369948Y-136866334D01*
X173411356Y-136899128D01*
X173446765Y-136946547D01*
X173468664Y-136997151D01*
X173472229Y-137022098D01*
X173460279Y-137056927D01*
X173434067Y-137075357D01*
X173405964Y-137086516D01*
X173393095Y-137088572D01*
X173386829Y-137073649D01*
X173374456Y-137041175D01*
X173369028Y-137026502D01*
X173338590Y-136975744D01*
X173294520Y-136950427D01*
X173238010Y-136951206D01*
X173233825Y-136952203D01*
X173203655Y-136966507D01*
X173181476Y-136994393D01*
X173166327Y-137039287D01*
X173157250Y-137104615D01*
X173153286Y-137193804D01*
X173152914Y-137241261D01*
X173152730Y-137316071D01*
X173151522Y-137367069D01*
X173148309Y-137399471D01*
X173142109Y-137418495D01*
X173131940Y-137429356D01*
X173116819Y-137437272D01*
X173115946Y-137437670D01*
X173086828Y-137449981D01*
X173072403Y-137454514D01*
X173070186Y-137440809D01*
X173068289Y-137402925D01*
X173066847Y-137345715D01*
X173065998Y-137274027D01*
X173065829Y-137221565D01*
X173066692Y-137120047D01*
X173070070Y-137043032D01*
X173077142Y-136986023D01*
X173089088Y-136944526D01*
X173107090Y-136914043D01*
X173132327Y-136890080D01*
X173157247Y-136873355D01*
X173217171Y-136851097D01*
X173286911Y-136846076D01*
X173352600Y-136858752D01*
%TA.AperFunction,EtchedComponent*%
G36*
X173352600Y-136858752D02*
G01*
X173369948Y-136866334D01*
X173411356Y-136899128D01*
X173446765Y-136946547D01*
X173468664Y-136997151D01*
X173472229Y-137022098D01*
X173460279Y-137056927D01*
X173434067Y-137075357D01*
X173405964Y-137086516D01*
X173393095Y-137088572D01*
X173386829Y-137073649D01*
X173374456Y-137041175D01*
X173369028Y-137026502D01*
X173338590Y-136975744D01*
X173294520Y-136950427D01*
X173238010Y-136951206D01*
X173233825Y-136952203D01*
X173203655Y-136966507D01*
X173181476Y-136994393D01*
X173166327Y-137039287D01*
X173157250Y-137104615D01*
X173153286Y-137193804D01*
X173152914Y-137241261D01*
X173152730Y-137316071D01*
X173151522Y-137367069D01*
X173148309Y-137399471D01*
X173142109Y-137418495D01*
X173131940Y-137429356D01*
X173116819Y-137437272D01*
X173115946Y-137437670D01*
X173086828Y-137449981D01*
X173072403Y-137454514D01*
X173070186Y-137440809D01*
X173068289Y-137402925D01*
X173066847Y-137345715D01*
X173065998Y-137274027D01*
X173065829Y-137221565D01*
X173066692Y-137120047D01*
X173070070Y-137043032D01*
X173077142Y-136986023D01*
X173089088Y-136944526D01*
X173107090Y-136914043D01*
X173132327Y-136890080D01*
X173157247Y-136873355D01*
X173217171Y-136851097D01*
X173286911Y-136846076D01*
X173352600Y-136858752D01*
G37*
%TD.AperFunction*%
X169416093Y-136827780D02*
X169462672Y-136854723D01*
X169495057Y-136881466D01*
X169518742Y-136909484D01*
X169535059Y-136943748D01*
X169545339Y-136989227D01*
X169550914Y-137050892D01*
X169553116Y-137133711D01*
X169553371Y-137193246D01*
X169553371Y-137412391D01*
X169491686Y-137440044D01*
X169430000Y-137467697D01*
X169422743Y-137227670D01*
X169419744Y-137138028D01*
X169416598Y-137072962D01*
X169412701Y-137028026D01*
X169407447Y-136998770D01*
X169400231Y-136980748D01*
X169390450Y-136969511D01*
X169387312Y-136967079D01*
X169339761Y-136948083D01*
X169291697Y-136955600D01*
X169263086Y-136975543D01*
X169251447Y-136989675D01*
X169243391Y-137008220D01*
X169238271Y-137036334D01*
X169235441Y-137079173D01*
X169234256Y-137141895D01*
X169234057Y-137207261D01*
X169234018Y-137289268D01*
X169232614Y-137347316D01*
X169227914Y-137386465D01*
X169217987Y-137411780D01*
X169200903Y-137428323D01*
X169174732Y-137441156D01*
X169139775Y-137454491D01*
X169101596Y-137469007D01*
X169106141Y-137211389D01*
X169107971Y-137118519D01*
X169110112Y-137049889D01*
X169113181Y-137000711D01*
X169117794Y-136966198D01*
X169124568Y-136941562D01*
X169134119Y-136922016D01*
X169145634Y-136904770D01*
X169201190Y-136849680D01*
X169268980Y-136817822D01*
X169342713Y-136810191D01*
X169416093Y-136827780D01*
%TA.AperFunction,EtchedComponent*%
G36*
X169416093Y-136827780D02*
G01*
X169462672Y-136854723D01*
X169495057Y-136881466D01*
X169518742Y-136909484D01*
X169535059Y-136943748D01*
X169545339Y-136989227D01*
X169550914Y-137050892D01*
X169553116Y-137133711D01*
X169553371Y-137193246D01*
X169553371Y-137412391D01*
X169491686Y-137440044D01*
X169430000Y-137467697D01*
X169422743Y-137227670D01*
X169419744Y-137138028D01*
X169416598Y-137072962D01*
X169412701Y-137028026D01*
X169407447Y-136998770D01*
X169400231Y-136980748D01*
X169390450Y-136969511D01*
X169387312Y-136967079D01*
X169339761Y-136948083D01*
X169291697Y-136955600D01*
X169263086Y-136975543D01*
X169251447Y-136989675D01*
X169243391Y-137008220D01*
X169238271Y-137036334D01*
X169235441Y-137079173D01*
X169234256Y-137141895D01*
X169234057Y-137207261D01*
X169234018Y-137289268D01*
X169232614Y-137347316D01*
X169227914Y-137386465D01*
X169217987Y-137411780D01*
X169200903Y-137428323D01*
X169174732Y-137441156D01*
X169139775Y-137454491D01*
X169101596Y-137469007D01*
X169106141Y-137211389D01*
X169107971Y-137118519D01*
X169110112Y-137049889D01*
X169113181Y-137000711D01*
X169117794Y-136966198D01*
X169124568Y-136941562D01*
X169134119Y-136922016D01*
X169145634Y-136904770D01*
X169201190Y-136849680D01*
X169268980Y-136817822D01*
X169342713Y-136810191D01*
X169416093Y-136827780D01*
G37*
%TD.AperFunction*%
X171229926Y-136849755D02*
X171295858Y-136874084D01*
X171349273Y-136917117D01*
X171370164Y-136947409D01*
X171392939Y-137002994D01*
X171392466Y-137043186D01*
X171368562Y-137070217D01*
X171359717Y-137074813D01*
X171321530Y-137089144D01*
X171302028Y-137085472D01*
X171295422Y-137061407D01*
X171295086Y-137048114D01*
X171282992Y-136999210D01*
X171251471Y-136964999D01*
X171207659Y-136948476D01*
X171158695Y-136952634D01*
X171118894Y-136974227D01*
X171105450Y-136986544D01*
X171095921Y-137001487D01*
X171089485Y-137024075D01*
X171085317Y-137059328D01*
X171082597Y-137112266D01*
X171080502Y-137187907D01*
X171079960Y-137211857D01*
X171077981Y-137293790D01*
X171075731Y-137351455D01*
X171072357Y-137389608D01*
X171067006Y-137413004D01*
X171058824Y-137426398D01*
X171046959Y-137434545D01*
X171039362Y-137438144D01*
X171007102Y-137450452D01*
X170988111Y-137454514D01*
X170981836Y-137440948D01*
X170978006Y-137399934D01*
X170976600Y-137330999D01*
X170977598Y-137233669D01*
X170977908Y-137218657D01*
X170980101Y-137129859D01*
X170982693Y-137065019D01*
X170986382Y-137019067D01*
X170991864Y-136986935D01*
X170999835Y-136963553D01*
X171010993Y-136943852D01*
X171016830Y-136935410D01*
X171050296Y-136898057D01*
X171087727Y-136869003D01*
X171092309Y-136866467D01*
X171159426Y-136846443D01*
X171229926Y-136849755D01*
%TA.AperFunction,EtchedComponent*%
G36*
X171229926Y-136849755D02*
G01*
X171295858Y-136874084D01*
X171349273Y-136917117D01*
X171370164Y-136947409D01*
X171392939Y-137002994D01*
X171392466Y-137043186D01*
X171368562Y-137070217D01*
X171359717Y-137074813D01*
X171321530Y-137089144D01*
X171302028Y-137085472D01*
X171295422Y-137061407D01*
X171295086Y-137048114D01*
X171282992Y-136999210D01*
X171251471Y-136964999D01*
X171207659Y-136948476D01*
X171158695Y-136952634D01*
X171118894Y-136974227D01*
X171105450Y-136986544D01*
X171095921Y-137001487D01*
X171089485Y-137024075D01*
X171085317Y-137059328D01*
X171082597Y-137112266D01*
X171080502Y-137187907D01*
X171079960Y-137211857D01*
X171077981Y-137293790D01*
X171075731Y-137351455D01*
X171072357Y-137389608D01*
X171067006Y-137413004D01*
X171058824Y-137426398D01*
X171046959Y-137434545D01*
X171039362Y-137438144D01*
X171007102Y-137450452D01*
X170988111Y-137454514D01*
X170981836Y-137440948D01*
X170978006Y-137399934D01*
X170976600Y-137330999D01*
X170977598Y-137233669D01*
X170977908Y-137218657D01*
X170980101Y-137129859D01*
X170982693Y-137065019D01*
X170986382Y-137019067D01*
X170991864Y-136986935D01*
X170999835Y-136963553D01*
X171010993Y-136943852D01*
X171016830Y-136935410D01*
X171050296Y-136898057D01*
X171087727Y-136869003D01*
X171092309Y-136866467D01*
X171159426Y-136846443D01*
X171229926Y-136849755D01*
G37*
%TD.AperFunction*%
X170075886Y-136751289D02*
X170080139Y-136810613D01*
X170085025Y-136845572D01*
X170091795Y-136860820D01*
X170101702Y-136861015D01*
X170104914Y-136859195D01*
X170147644Y-136846015D01*
X170203227Y-136846785D01*
X170259737Y-136860333D01*
X170295082Y-136877861D01*
X170331321Y-136905861D01*
X170357813Y-136937549D01*
X170375999Y-136977813D01*
X170387322Y-137031543D01*
X170393222Y-137103626D01*
X170395143Y-137198951D01*
X170395177Y-137217237D01*
X170395200Y-137422646D01*
X170349491Y-137438580D01*
X170317027Y-137449420D01*
X170299215Y-137454468D01*
X170298691Y-137454514D01*
X170296937Y-137440828D01*
X170295444Y-137403076D01*
X170294326Y-137346224D01*
X170293697Y-137275234D01*
X170293600Y-137232073D01*
X170293398Y-137146973D01*
X170292358Y-137085981D01*
X170289831Y-137044177D01*
X170285164Y-137016642D01*
X170277707Y-136998456D01*
X170266811Y-136984698D01*
X170260007Y-136978073D01*
X170213272Y-136951375D01*
X170162272Y-136949375D01*
X170116001Y-136971955D01*
X170107444Y-136980107D01*
X170094893Y-136995436D01*
X170086188Y-137013618D01*
X170080631Y-137039909D01*
X170077526Y-137079562D01*
X170076176Y-137137832D01*
X170075886Y-137218173D01*
X170075886Y-137422646D01*
X170030177Y-137438580D01*
X169997713Y-137449420D01*
X169979901Y-137454468D01*
X169979377Y-137454514D01*
X169978037Y-137440623D01*
X169976828Y-137401439D01*
X169975801Y-137340700D01*
X169975002Y-137262141D01*
X169974481Y-137169498D01*
X169974286Y-137066509D01*
X169974286Y-136669342D01*
X170021457Y-136649444D01*
X170068629Y-136629547D01*
X170075886Y-136751289D01*
%TA.AperFunction,EtchedComponent*%
G36*
X170075886Y-136751289D02*
G01*
X170080139Y-136810613D01*
X170085025Y-136845572D01*
X170091795Y-136860820D01*
X170101702Y-136861015D01*
X170104914Y-136859195D01*
X170147644Y-136846015D01*
X170203227Y-136846785D01*
X170259737Y-136860333D01*
X170295082Y-136877861D01*
X170331321Y-136905861D01*
X170357813Y-136937549D01*
X170375999Y-136977813D01*
X170387322Y-137031543D01*
X170393222Y-137103626D01*
X170395143Y-137198951D01*
X170395177Y-137217237D01*
X170395200Y-137422646D01*
X170349491Y-137438580D01*
X170317027Y-137449420D01*
X170299215Y-137454468D01*
X170298691Y-137454514D01*
X170296937Y-137440828D01*
X170295444Y-137403076D01*
X170294326Y-137346224D01*
X170293697Y-137275234D01*
X170293600Y-137232073D01*
X170293398Y-137146973D01*
X170292358Y-137085981D01*
X170289831Y-137044177D01*
X170285164Y-137016642D01*
X170277707Y-136998456D01*
X170266811Y-136984698D01*
X170260007Y-136978073D01*
X170213272Y-136951375D01*
X170162272Y-136949375D01*
X170116001Y-136971955D01*
X170107444Y-136980107D01*
X170094893Y-136995436D01*
X170086188Y-137013618D01*
X170080631Y-137039909D01*
X170077526Y-137079562D01*
X170076176Y-137137832D01*
X170075886Y-137218173D01*
X170075886Y-137422646D01*
X170030177Y-137438580D01*
X169997713Y-137449420D01*
X169979901Y-137454468D01*
X169979377Y-137454514D01*
X169978037Y-137440623D01*
X169976828Y-137401439D01*
X169975801Y-137340700D01*
X169975002Y-137262141D01*
X169974481Y-137169498D01*
X169974286Y-137066509D01*
X169974286Y-136669342D01*
X170021457Y-136649444D01*
X170068629Y-136629547D01*
X170075886Y-136751289D01*
G37*
%TD.AperFunction*%
X172479833Y-136858663D02*
X172482048Y-136896850D01*
X172483784Y-136954886D01*
X172484899Y-137028180D01*
X172485257Y-137105055D01*
X172485257Y-137365196D01*
X172439326Y-137411127D01*
X172407675Y-137439429D01*
X172379890Y-137450893D01*
X172341915Y-137450168D01*
X172326840Y-137448321D01*
X172279726Y-137442948D01*
X172240756Y-137439869D01*
X172231257Y-137439585D01*
X172199233Y-137441445D01*
X172153432Y-137446114D01*
X172135674Y-137448321D01*
X172092057Y-137451735D01*
X172062745Y-137444320D01*
X172033680Y-137421427D01*
X172023188Y-137411127D01*
X171977257Y-137365196D01*
X171977257Y-136878602D01*
X172014226Y-136861758D01*
X172046059Y-136849282D01*
X172064683Y-136844914D01*
X172069458Y-136858718D01*
X172073921Y-136897286D01*
X172077775Y-136956356D01*
X172080722Y-137031663D01*
X172082143Y-137095286D01*
X172086114Y-137345657D01*
X172120759Y-137350556D01*
X172152268Y-137347131D01*
X172167708Y-137336041D01*
X172172023Y-137315308D01*
X172175708Y-137271145D01*
X172178469Y-137209146D01*
X172180012Y-137134909D01*
X172180235Y-137096706D01*
X172180457Y-136876783D01*
X172226166Y-136860849D01*
X172258518Y-136850015D01*
X172276115Y-136844962D01*
X172276623Y-136844914D01*
X172278388Y-136858648D01*
X172280329Y-136896730D01*
X172282282Y-136954482D01*
X172284084Y-137027227D01*
X172285343Y-137095286D01*
X172289314Y-137345657D01*
X172376400Y-137345657D01*
X172380396Y-137117240D01*
X172384392Y-136888822D01*
X172426847Y-136866868D01*
X172458192Y-136851793D01*
X172476744Y-136844951D01*
X172477279Y-136844914D01*
X172479833Y-136858663D01*
%TA.AperFunction,EtchedComponent*%
G36*
X172479833Y-136858663D02*
G01*
X172482048Y-136896850D01*
X172483784Y-136954886D01*
X172484899Y-137028180D01*
X172485257Y-137105055D01*
X172485257Y-137365196D01*
X172439326Y-137411127D01*
X172407675Y-137439429D01*
X172379890Y-137450893D01*
X172341915Y-137450168D01*
X172326840Y-137448321D01*
X172279726Y-137442948D01*
X172240756Y-137439869D01*
X172231257Y-137439585D01*
X172199233Y-137441445D01*
X172153432Y-137446114D01*
X172135674Y-137448321D01*
X172092057Y-137451735D01*
X172062745Y-137444320D01*
X172033680Y-137421427D01*
X172023188Y-137411127D01*
X171977257Y-137365196D01*
X171977257Y-136878602D01*
X172014226Y-136861758D01*
X172046059Y-136849282D01*
X172064683Y-136844914D01*
X172069458Y-136858718D01*
X172073921Y-136897286D01*
X172077775Y-136956356D01*
X172080722Y-137031663D01*
X172082143Y-137095286D01*
X172086114Y-137345657D01*
X172120759Y-137350556D01*
X172152268Y-137347131D01*
X172167708Y-137336041D01*
X172172023Y-137315308D01*
X172175708Y-137271145D01*
X172178469Y-137209146D01*
X172180012Y-137134909D01*
X172180235Y-137096706D01*
X172180457Y-136876783D01*
X172226166Y-136860849D01*
X172258518Y-136850015D01*
X172276115Y-136844962D01*
X172276623Y-136844914D01*
X172278388Y-136858648D01*
X172280329Y-136896730D01*
X172282282Y-136954482D01*
X172284084Y-137027227D01*
X172285343Y-137095286D01*
X172289314Y-137345657D01*
X172376400Y-137345657D01*
X172380396Y-137117240D01*
X172384392Y-136888822D01*
X172426847Y-136866868D01*
X172458192Y-136851793D01*
X172476744Y-136844951D01*
X172477279Y-136844914D01*
X172479833Y-136858663D01*
G37*
%TD.AperFunction*%
X167741115Y-136821962D02*
X167809145Y-136857733D01*
X167859351Y-136915301D01*
X167877185Y-136952312D01*
X167891063Y-137007882D01*
X167898167Y-137078096D01*
X167898840Y-137154727D01*
X167893427Y-137229552D01*
X167882270Y-137294342D01*
X167865714Y-137340873D01*
X167860626Y-137348887D01*
X167800355Y-137408707D01*
X167728769Y-137444535D01*
X167651092Y-137455020D01*
X167572548Y-137438810D01*
X167550689Y-137429092D01*
X167508122Y-137399143D01*
X167470763Y-137359433D01*
X167467232Y-137354397D01*
X167452881Y-137330124D01*
X167443394Y-137304178D01*
X167437790Y-137270022D01*
X167435086Y-137221119D01*
X167434299Y-137150935D01*
X167434286Y-137135200D01*
X167434322Y-137130192D01*
X167579429Y-137130192D01*
X167580273Y-137196430D01*
X167583596Y-137240386D01*
X167590583Y-137268779D01*
X167602416Y-137288325D01*
X167608457Y-137294857D01*
X167643186Y-137319680D01*
X167676903Y-137318548D01*
X167710995Y-137297016D01*
X167731329Y-137274029D01*
X167743371Y-137240478D01*
X167750134Y-137187569D01*
X167750598Y-137181399D01*
X167751752Y-137085513D01*
X167739688Y-137014299D01*
X167714570Y-136968194D01*
X167676560Y-136947635D01*
X167662992Y-136946514D01*
X167627364Y-136952152D01*
X167602994Y-136971686D01*
X167588093Y-137009042D01*
X167580875Y-137068150D01*
X167579429Y-137130192D01*
X167434322Y-137130192D01*
X167434826Y-137060413D01*
X167437096Y-137008159D01*
X167442068Y-136971949D01*
X167450713Y-136945299D01*
X167464005Y-136921722D01*
X167466943Y-136917338D01*
X167516313Y-136858249D01*
X167570109Y-136823947D01*
X167635602Y-136810331D01*
X167657842Y-136809665D01*
X167741115Y-136821962D01*
%TA.AperFunction,EtchedComponent*%
G36*
X167741115Y-136821962D02*
G01*
X167809145Y-136857733D01*
X167859351Y-136915301D01*
X167877185Y-136952312D01*
X167891063Y-137007882D01*
X167898167Y-137078096D01*
X167898840Y-137154727D01*
X167893427Y-137229552D01*
X167882270Y-137294342D01*
X167865714Y-137340873D01*
X167860626Y-137348887D01*
X167800355Y-137408707D01*
X167728769Y-137444535D01*
X167651092Y-137455020D01*
X167572548Y-137438810D01*
X167550689Y-137429092D01*
X167508122Y-137399143D01*
X167470763Y-137359433D01*
X167467232Y-137354397D01*
X167452881Y-137330124D01*
X167443394Y-137304178D01*
X167437790Y-137270022D01*
X167435086Y-137221119D01*
X167434299Y-137150935D01*
X167434286Y-137135200D01*
X167434322Y-137130192D01*
X167579429Y-137130192D01*
X167580273Y-137196430D01*
X167583596Y-137240386D01*
X167590583Y-137268779D01*
X167602416Y-137288325D01*
X167608457Y-137294857D01*
X167643186Y-137319680D01*
X167676903Y-137318548D01*
X167710995Y-137297016D01*
X167731329Y-137274029D01*
X167743371Y-137240478D01*
X167750134Y-137187569D01*
X167750598Y-137181399D01*
X167751752Y-137085513D01*
X167739688Y-137014299D01*
X167714570Y-136968194D01*
X167676560Y-136947635D01*
X167662992Y-136946514D01*
X167627364Y-136952152D01*
X167602994Y-136971686D01*
X167588093Y-137009042D01*
X167580875Y-137068150D01*
X167579429Y-137130192D01*
X167434322Y-137130192D01*
X167434826Y-137060413D01*
X167437096Y-137008159D01*
X167442068Y-136971949D01*
X167450713Y-136945299D01*
X167464005Y-136921722D01*
X167466943Y-136917338D01*
X167516313Y-136858249D01*
X167570109Y-136823947D01*
X167635602Y-136810331D01*
X167657842Y-136809665D01*
X167741115Y-136821962D01*
G37*
%TD.AperFunction*%
X173853595Y-136866966D02*
X173911021Y-136904497D01*
X173938719Y-136938096D01*
X173960662Y-136999064D01*
X173962405Y-137047308D01*
X173958457Y-137111816D01*
X173809686Y-137176934D01*
X173737349Y-137210202D01*
X173690084Y-137236964D01*
X173665507Y-137260144D01*
X173661237Y-137282667D01*
X173674889Y-137307455D01*
X173689943Y-137323886D01*
X173733746Y-137350235D01*
X173781389Y-137352081D01*
X173825145Y-137331546D01*
X173857289Y-137290752D01*
X173863038Y-137276347D01*
X173890576Y-137231356D01*
X173922258Y-137212182D01*
X173965714Y-137195779D01*
X173965714Y-137257966D01*
X173961872Y-137300283D01*
X173946823Y-137335969D01*
X173915280Y-137376943D01*
X173910592Y-137382267D01*
X173875506Y-137418720D01*
X173845347Y-137438283D01*
X173807615Y-137447283D01*
X173776335Y-137450230D01*
X173720385Y-137450965D01*
X173680555Y-137441660D01*
X173655708Y-137427846D01*
X173616656Y-137397467D01*
X173589625Y-137364613D01*
X173572517Y-137323294D01*
X173563238Y-137267521D01*
X173559693Y-137191305D01*
X173559410Y-137152622D01*
X173560372Y-137106247D01*
X173648007Y-137106247D01*
X173649023Y-137131126D01*
X173651556Y-137135200D01*
X173668274Y-137129665D01*
X173704249Y-137115017D01*
X173752331Y-137094190D01*
X173762386Y-137089714D01*
X173823152Y-137058814D01*
X173856632Y-137031657D01*
X173863990Y-137006220D01*
X173846391Y-136980481D01*
X173831856Y-136969109D01*
X173779410Y-136946364D01*
X173730322Y-136950122D01*
X173689227Y-136977884D01*
X173660758Y-137027152D01*
X173651631Y-137066257D01*
X173648007Y-137106247D01*
X173560372Y-137106247D01*
X173561285Y-137062249D01*
X173568196Y-136995384D01*
X173581884Y-136946695D01*
X173604096Y-136910849D01*
X173636574Y-136882513D01*
X173650733Y-136873355D01*
X173715053Y-136849507D01*
X173785473Y-136848006D01*
X173853595Y-136866966D01*
%TA.AperFunction,EtchedComponent*%
G36*
X173853595Y-136866966D02*
G01*
X173911021Y-136904497D01*
X173938719Y-136938096D01*
X173960662Y-136999064D01*
X173962405Y-137047308D01*
X173958457Y-137111816D01*
X173809686Y-137176934D01*
X173737349Y-137210202D01*
X173690084Y-137236964D01*
X173665507Y-137260144D01*
X173661237Y-137282667D01*
X173674889Y-137307455D01*
X173689943Y-137323886D01*
X173733746Y-137350235D01*
X173781389Y-137352081D01*
X173825145Y-137331546D01*
X173857289Y-137290752D01*
X173863038Y-137276347D01*
X173890576Y-137231356D01*
X173922258Y-137212182D01*
X173965714Y-137195779D01*
X173965714Y-137257966D01*
X173961872Y-137300283D01*
X173946823Y-137335969D01*
X173915280Y-137376943D01*
X173910592Y-137382267D01*
X173875506Y-137418720D01*
X173845347Y-137438283D01*
X173807615Y-137447283D01*
X173776335Y-137450230D01*
X173720385Y-137450965D01*
X173680555Y-137441660D01*
X173655708Y-137427846D01*
X173616656Y-137397467D01*
X173589625Y-137364613D01*
X173572517Y-137323294D01*
X173563238Y-137267521D01*
X173559693Y-137191305D01*
X173559410Y-137152622D01*
X173560372Y-137106247D01*
X173648007Y-137106247D01*
X173649023Y-137131126D01*
X173651556Y-137135200D01*
X173668274Y-137129665D01*
X173704249Y-137115017D01*
X173752331Y-137094190D01*
X173762386Y-137089714D01*
X173823152Y-137058814D01*
X173856632Y-137031657D01*
X173863990Y-137006220D01*
X173846391Y-136980481D01*
X173831856Y-136969109D01*
X173779410Y-136946364D01*
X173730322Y-136950122D01*
X173689227Y-136977884D01*
X173660758Y-137027152D01*
X173651631Y-137066257D01*
X173648007Y-137106247D01*
X173560372Y-137106247D01*
X173561285Y-137062249D01*
X173568196Y-136995384D01*
X173581884Y-136946695D01*
X173604096Y-136910849D01*
X173636574Y-136882513D01*
X173650733Y-136873355D01*
X173715053Y-136849507D01*
X173785473Y-136848006D01*
X173853595Y-136866966D01*
G37*
%TD.AperFunction*%
X171890117Y-136965358D02*
X171889933Y-137073837D01*
X171889219Y-137157287D01*
X171887675Y-137219704D01*
X171885001Y-137265085D01*
X171880894Y-137297429D01*
X171875055Y-137320733D01*
X171867182Y-137338995D01*
X171861221Y-137349418D01*
X171811855Y-137405945D01*
X171749264Y-137441377D01*
X171680013Y-137454090D01*
X171610668Y-137442463D01*
X171569375Y-137421568D01*
X171526025Y-137385422D01*
X171496481Y-137341276D01*
X171478655Y-137283462D01*
X171470463Y-137206313D01*
X171469302Y-137149714D01*
X171469458Y-137145647D01*
X171570857Y-137145647D01*
X171571476Y-137210550D01*
X171574314Y-137253514D01*
X171580840Y-137281622D01*
X171592523Y-137301953D01*
X171606483Y-137317288D01*
X171653365Y-137346890D01*
X171703701Y-137349419D01*
X171751276Y-137324705D01*
X171754979Y-137321356D01*
X171770783Y-137303935D01*
X171780693Y-137283209D01*
X171786058Y-137252362D01*
X171788228Y-137204577D01*
X171788571Y-137151748D01*
X171787827Y-137085381D01*
X171784748Y-137041106D01*
X171778061Y-137012009D01*
X171766496Y-136991173D01*
X171757013Y-136980107D01*
X171712960Y-136952198D01*
X171662224Y-136948843D01*
X171613796Y-136970159D01*
X171604450Y-136978073D01*
X171588540Y-136995647D01*
X171578610Y-137016587D01*
X171573278Y-137047782D01*
X171571163Y-137096122D01*
X171570857Y-137145647D01*
X171469458Y-137145647D01*
X171472810Y-137058568D01*
X171484726Y-136990086D01*
X171507135Y-136938600D01*
X171542124Y-136898443D01*
X171569375Y-136877861D01*
X171618907Y-136855625D01*
X171676316Y-136845304D01*
X171729682Y-136848067D01*
X171759543Y-136859212D01*
X171771261Y-136862383D01*
X171779037Y-136850557D01*
X171784465Y-136818866D01*
X171788571Y-136770593D01*
X171793067Y-136716829D01*
X171799313Y-136684482D01*
X171810676Y-136665985D01*
X171830528Y-136653770D01*
X171843000Y-136648362D01*
X171890171Y-136628601D01*
X171890117Y-136965358D01*
%TA.AperFunction,EtchedComponent*%
G36*
X171890117Y-136965358D02*
G01*
X171889933Y-137073837D01*
X171889219Y-137157287D01*
X171887675Y-137219704D01*
X171885001Y-137265085D01*
X171880894Y-137297429D01*
X171875055Y-137320733D01*
X171867182Y-137338995D01*
X171861221Y-137349418D01*
X171811855Y-137405945D01*
X171749264Y-137441377D01*
X171680013Y-137454090D01*
X171610668Y-137442463D01*
X171569375Y-137421568D01*
X171526025Y-137385422D01*
X171496481Y-137341276D01*
X171478655Y-137283462D01*
X171470463Y-137206313D01*
X171469302Y-137149714D01*
X171469458Y-137145647D01*
X171570857Y-137145647D01*
X171571476Y-137210550D01*
X171574314Y-137253514D01*
X171580840Y-137281622D01*
X171592523Y-137301953D01*
X171606483Y-137317288D01*
X171653365Y-137346890D01*
X171703701Y-137349419D01*
X171751276Y-137324705D01*
X171754979Y-137321356D01*
X171770783Y-137303935D01*
X171780693Y-137283209D01*
X171786058Y-137252362D01*
X171788228Y-137204577D01*
X171788571Y-137151748D01*
X171787827Y-137085381D01*
X171784748Y-137041106D01*
X171778061Y-137012009D01*
X171766496Y-136991173D01*
X171757013Y-136980107D01*
X171712960Y-136952198D01*
X171662224Y-136948843D01*
X171613796Y-136970159D01*
X171604450Y-136978073D01*
X171588540Y-136995647D01*
X171578610Y-137016587D01*
X171573278Y-137047782D01*
X171571163Y-137096122D01*
X171570857Y-137145647D01*
X171469458Y-137145647D01*
X171472810Y-137058568D01*
X171484726Y-136990086D01*
X171507135Y-136938600D01*
X171542124Y-136898443D01*
X171569375Y-136877861D01*
X171618907Y-136855625D01*
X171676316Y-136845304D01*
X171729682Y-136848067D01*
X171759543Y-136859212D01*
X171771261Y-136862383D01*
X171779037Y-136850557D01*
X171784465Y-136818866D01*
X171788571Y-136770593D01*
X171793067Y-136716829D01*
X171799313Y-136684482D01*
X171810676Y-136665985D01*
X171830528Y-136653770D01*
X171843000Y-136648362D01*
X171890171Y-136628601D01*
X171890117Y-136965358D01*
G37*
%TD.AperFunction*%
X168868303Y-136831239D02*
X168925527Y-136869735D01*
X168969749Y-136925335D01*
X168996167Y-136996086D01*
X169001510Y-137048162D01*
X169000903Y-137069893D01*
X168995822Y-137086531D01*
X168981855Y-137101437D01*
X168954589Y-137117973D01*
X168909612Y-137139498D01*
X168842511Y-137169374D01*
X168842171Y-137169524D01*
X168780407Y-137197813D01*
X168729759Y-137222933D01*
X168695404Y-137242179D01*
X168682518Y-137252848D01*
X168682514Y-137252934D01*
X168693872Y-137276166D01*
X168720431Y-137301774D01*
X168750923Y-137320221D01*
X168766370Y-137323886D01*
X168808515Y-137311212D01*
X168844808Y-137279471D01*
X168862517Y-137244572D01*
X168879552Y-137218845D01*
X168912922Y-137189546D01*
X168952149Y-137164235D01*
X168986756Y-137150471D01*
X168993993Y-137149714D01*
X169002139Y-137162160D01*
X169002630Y-137193972D01*
X168996643Y-137236866D01*
X168985357Y-137282558D01*
X168969950Y-137322761D01*
X168969171Y-137324322D01*
X168922804Y-137389062D01*
X168862711Y-137433097D01*
X168794465Y-137454711D01*
X168723638Y-137452185D01*
X168655804Y-137423804D01*
X168652788Y-137421808D01*
X168599427Y-137373448D01*
X168564340Y-137310352D01*
X168544922Y-137227387D01*
X168542316Y-137204078D01*
X168537701Y-137094055D01*
X168543233Y-137042748D01*
X168682514Y-137042748D01*
X168684324Y-137074753D01*
X168694222Y-137084093D01*
X168718898Y-137077105D01*
X168757795Y-137060587D01*
X168801275Y-137039881D01*
X168802356Y-137039333D01*
X168839209Y-137019949D01*
X168854000Y-137007013D01*
X168850353Y-136993451D01*
X168834995Y-136975632D01*
X168795923Y-136949845D01*
X168753846Y-136947950D01*
X168716103Y-136966717D01*
X168690034Y-137002915D01*
X168682514Y-137042748D01*
X168543233Y-137042748D01*
X168547194Y-137006027D01*
X168571550Y-136936212D01*
X168605456Y-136887302D01*
X168666653Y-136837878D01*
X168734063Y-136813359D01*
X168802880Y-136811797D01*
X168868303Y-136831239D01*
%TA.AperFunction,EtchedComponent*%
G36*
X168868303Y-136831239D02*
G01*
X168925527Y-136869735D01*
X168969749Y-136925335D01*
X168996167Y-136996086D01*
X169001510Y-137048162D01*
X169000903Y-137069893D01*
X168995822Y-137086531D01*
X168981855Y-137101437D01*
X168954589Y-137117973D01*
X168909612Y-137139498D01*
X168842511Y-137169374D01*
X168842171Y-137169524D01*
X168780407Y-137197813D01*
X168729759Y-137222933D01*
X168695404Y-137242179D01*
X168682518Y-137252848D01*
X168682514Y-137252934D01*
X168693872Y-137276166D01*
X168720431Y-137301774D01*
X168750923Y-137320221D01*
X168766370Y-137323886D01*
X168808515Y-137311212D01*
X168844808Y-137279471D01*
X168862517Y-137244572D01*
X168879552Y-137218845D01*
X168912922Y-137189546D01*
X168952149Y-137164235D01*
X168986756Y-137150471D01*
X168993993Y-137149714D01*
X169002139Y-137162160D01*
X169002630Y-137193972D01*
X168996643Y-137236866D01*
X168985357Y-137282558D01*
X168969950Y-137322761D01*
X168969171Y-137324322D01*
X168922804Y-137389062D01*
X168862711Y-137433097D01*
X168794465Y-137454711D01*
X168723638Y-137452185D01*
X168655804Y-137423804D01*
X168652788Y-137421808D01*
X168599427Y-137373448D01*
X168564340Y-137310352D01*
X168544922Y-137227387D01*
X168542316Y-137204078D01*
X168537701Y-137094055D01*
X168543233Y-137042748D01*
X168682514Y-137042748D01*
X168684324Y-137074753D01*
X168694222Y-137084093D01*
X168718898Y-137077105D01*
X168757795Y-137060587D01*
X168801275Y-137039881D01*
X168802356Y-137039333D01*
X168839209Y-137019949D01*
X168854000Y-137007013D01*
X168850353Y-136993451D01*
X168834995Y-136975632D01*
X168795923Y-136949845D01*
X168753846Y-136947950D01*
X168716103Y-136966717D01*
X168690034Y-137002915D01*
X168682514Y-137042748D01*
X168543233Y-137042748D01*
X168547194Y-137006027D01*
X168571550Y-136936212D01*
X168605456Y-136887302D01*
X168666653Y-136837878D01*
X168734063Y-136813359D01*
X168802880Y-136811797D01*
X168868303Y-136831239D01*
G37*
%TD.AperFunction*%
X170739744Y-136850968D02*
X170796616Y-136872087D01*
X170797267Y-136872493D01*
X170832440Y-136898380D01*
X170858407Y-136928633D01*
X170876670Y-136968058D01*
X170888732Y-137021462D01*
X170896096Y-137093651D01*
X170900264Y-137189432D01*
X170900629Y-137203078D01*
X170905876Y-137408842D01*
X170861716Y-137431678D01*
X170829763Y-137447110D01*
X170810470Y-137454423D01*
X170809578Y-137454514D01*
X170806239Y-137441022D01*
X170803587Y-137404626D01*
X170801956Y-137351452D01*
X170801600Y-137308393D01*
X170801592Y-137238641D01*
X170798403Y-137194837D01*
X170787288Y-137173944D01*
X170763501Y-137172925D01*
X170722296Y-137188741D01*
X170660086Y-137217815D01*
X170614341Y-137241963D01*
X170590813Y-137262913D01*
X170583896Y-137285747D01*
X170583886Y-137286877D01*
X170595299Y-137326212D01*
X170629092Y-137347462D01*
X170680809Y-137350539D01*
X170718061Y-137350006D01*
X170737703Y-137360735D01*
X170749952Y-137386505D01*
X170757002Y-137419337D01*
X170746842Y-137437966D01*
X170743017Y-137440632D01*
X170707001Y-137451340D01*
X170656566Y-137452856D01*
X170604626Y-137445759D01*
X170567822Y-137432788D01*
X170516938Y-137389585D01*
X170488014Y-137329446D01*
X170482286Y-137282462D01*
X170486657Y-137240082D01*
X170502475Y-137205488D01*
X170533797Y-137174763D01*
X170584678Y-137143990D01*
X170659176Y-137109252D01*
X170663714Y-137107288D01*
X170730821Y-137076287D01*
X170772232Y-137050862D01*
X170789981Y-137028014D01*
X170786107Y-137004745D01*
X170762643Y-136978056D01*
X170755627Y-136971914D01*
X170708630Y-136948100D01*
X170659933Y-136949103D01*
X170617522Y-136972451D01*
X170589384Y-137015675D01*
X170586769Y-137024160D01*
X170561308Y-137065308D01*
X170529001Y-137085128D01*
X170482286Y-137104770D01*
X170482286Y-137053950D01*
X170496496Y-136980082D01*
X170538675Y-136912327D01*
X170560624Y-136889661D01*
X170610517Y-136860569D01*
X170673967Y-136847400D01*
X170739744Y-136850968D01*
%TA.AperFunction,EtchedComponent*%
G36*
X170739744Y-136850968D02*
G01*
X170796616Y-136872087D01*
X170797267Y-136872493D01*
X170832440Y-136898380D01*
X170858407Y-136928633D01*
X170876670Y-136968058D01*
X170888732Y-137021462D01*
X170896096Y-137093651D01*
X170900264Y-137189432D01*
X170900629Y-137203078D01*
X170905876Y-137408842D01*
X170861716Y-137431678D01*
X170829763Y-137447110D01*
X170810470Y-137454423D01*
X170809578Y-137454514D01*
X170806239Y-137441022D01*
X170803587Y-137404626D01*
X170801956Y-137351452D01*
X170801600Y-137308393D01*
X170801592Y-137238641D01*
X170798403Y-137194837D01*
X170787288Y-137173944D01*
X170763501Y-137172925D01*
X170722296Y-137188741D01*
X170660086Y-137217815D01*
X170614341Y-137241963D01*
X170590813Y-137262913D01*
X170583896Y-137285747D01*
X170583886Y-137286877D01*
X170595299Y-137326212D01*
X170629092Y-137347462D01*
X170680809Y-137350539D01*
X170718061Y-137350006D01*
X170737703Y-137360735D01*
X170749952Y-137386505D01*
X170757002Y-137419337D01*
X170746842Y-137437966D01*
X170743017Y-137440632D01*
X170707001Y-137451340D01*
X170656566Y-137452856D01*
X170604626Y-137445759D01*
X170567822Y-137432788D01*
X170516938Y-137389585D01*
X170488014Y-137329446D01*
X170482286Y-137282462D01*
X170486657Y-137240082D01*
X170502475Y-137205488D01*
X170533797Y-137174763D01*
X170584678Y-137143990D01*
X170659176Y-137109252D01*
X170663714Y-137107288D01*
X170730821Y-137076287D01*
X170772232Y-137050862D01*
X170789981Y-137028014D01*
X170786107Y-137004745D01*
X170762643Y-136978056D01*
X170755627Y-136971914D01*
X170708630Y-136948100D01*
X170659933Y-136949103D01*
X170617522Y-136972451D01*
X170589384Y-137015675D01*
X170586769Y-137024160D01*
X170561308Y-137065308D01*
X170529001Y-137085128D01*
X170482286Y-137104770D01*
X170482286Y-137053950D01*
X170496496Y-136980082D01*
X170538675Y-136912327D01*
X170560624Y-136889661D01*
X170610517Y-136860569D01*
X170673967Y-136847400D01*
X170739744Y-136850968D01*
G37*
%TD.AperFunction*%
X168299744Y-136819918D02*
X168355201Y-136847568D01*
X168404148Y-136898480D01*
X168417629Y-136917338D01*
X168432314Y-136942015D01*
X168441842Y-136968816D01*
X168447293Y-137004587D01*
X168449747Y-137056169D01*
X168450286Y-137124267D01*
X168447852Y-137217588D01*
X168439394Y-137287657D01*
X168423174Y-137339931D01*
X168397454Y-137379869D01*
X168360497Y-137412929D01*
X168357782Y-137414886D01*
X168321360Y-137434908D01*
X168277502Y-137444815D01*
X168221724Y-137447257D01*
X168131048Y-137447257D01*
X168131010Y-137535283D01*
X168130166Y-137584308D01*
X168125024Y-137613065D01*
X168111587Y-137630311D01*
X168085858Y-137644808D01*
X168079679Y-137647769D01*
X168050764Y-137661648D01*
X168028376Y-137670414D01*
X168011729Y-137671171D01*
X168000036Y-137661023D01*
X167992510Y-137637073D01*
X167988366Y-137596426D01*
X167986815Y-137536186D01*
X167987071Y-137453455D01*
X167988349Y-137345339D01*
X167988748Y-137313000D01*
X167990185Y-137201524D01*
X167991472Y-137128603D01*
X168130971Y-137128603D01*
X168131755Y-137190499D01*
X168135240Y-137230997D01*
X168143124Y-137257708D01*
X168157105Y-137278244D01*
X168166597Y-137288260D01*
X168205404Y-137317567D01*
X168239763Y-137319952D01*
X168275216Y-137295750D01*
X168276114Y-137294857D01*
X168290539Y-137276153D01*
X168299313Y-137250732D01*
X168303739Y-137211584D01*
X168305118Y-137151697D01*
X168305143Y-137138430D01*
X168301812Y-137055901D01*
X168290969Y-136998691D01*
X168271340Y-136963766D01*
X168241650Y-136948094D01*
X168224491Y-136946514D01*
X168183766Y-136953926D01*
X168155832Y-136978330D01*
X168139017Y-137022980D01*
X168131650Y-137091130D01*
X168130971Y-137128603D01*
X167991472Y-137128603D01*
X167991708Y-137115245D01*
X167993677Y-137050333D01*
X167996450Y-137002958D01*
X168000388Y-136969290D01*
X168005849Y-136945498D01*
X168013192Y-136927753D01*
X168022777Y-136912224D01*
X168026887Y-136906381D01*
X168081405Y-136851185D01*
X168150336Y-136819890D01*
X168230072Y-136811165D01*
X168299744Y-136819918D01*
%TA.AperFunction,EtchedComponent*%
G36*
X168299744Y-136819918D02*
G01*
X168355201Y-136847568D01*
X168404148Y-136898480D01*
X168417629Y-136917338D01*
X168432314Y-136942015D01*
X168441842Y-136968816D01*
X168447293Y-137004587D01*
X168449747Y-137056169D01*
X168450286Y-137124267D01*
X168447852Y-137217588D01*
X168439394Y-137287657D01*
X168423174Y-137339931D01*
X168397454Y-137379869D01*
X168360497Y-137412929D01*
X168357782Y-137414886D01*
X168321360Y-137434908D01*
X168277502Y-137444815D01*
X168221724Y-137447257D01*
X168131048Y-137447257D01*
X168131010Y-137535283D01*
X168130166Y-137584308D01*
X168125024Y-137613065D01*
X168111587Y-137630311D01*
X168085858Y-137644808D01*
X168079679Y-137647769D01*
X168050764Y-137661648D01*
X168028376Y-137670414D01*
X168011729Y-137671171D01*
X168000036Y-137661023D01*
X167992510Y-137637073D01*
X167988366Y-137596426D01*
X167986815Y-137536186D01*
X167987071Y-137453455D01*
X167988349Y-137345339D01*
X167988748Y-137313000D01*
X167990185Y-137201524D01*
X167991472Y-137128603D01*
X168130971Y-137128603D01*
X168131755Y-137190499D01*
X168135240Y-137230997D01*
X168143124Y-137257708D01*
X168157105Y-137278244D01*
X168166597Y-137288260D01*
X168205404Y-137317567D01*
X168239763Y-137319952D01*
X168275216Y-137295750D01*
X168276114Y-137294857D01*
X168290539Y-137276153D01*
X168299313Y-137250732D01*
X168303739Y-137211584D01*
X168305118Y-137151697D01*
X168305143Y-137138430D01*
X168301812Y-137055901D01*
X168290969Y-136998691D01*
X168271340Y-136963766D01*
X168241650Y-136948094D01*
X168224491Y-136946514D01*
X168183766Y-136953926D01*
X168155832Y-136978330D01*
X168139017Y-137022980D01*
X168131650Y-137091130D01*
X168130971Y-137128603D01*
X167991472Y-137128603D01*
X167991708Y-137115245D01*
X167993677Y-137050333D01*
X167996450Y-137002958D01*
X168000388Y-136969290D01*
X168005849Y-136945498D01*
X168013192Y-136927753D01*
X168022777Y-136912224D01*
X168026887Y-136906381D01*
X168081405Y-136851185D01*
X168150336Y-136819890D01*
X168230072Y-136811165D01*
X168299744Y-136819918D01*
G37*
%TD.AperFunction*%
X172844876Y-136856335D02*
X172886667Y-136875344D01*
X172919469Y-136898378D01*
X172943503Y-136924133D01*
X172960097Y-136957358D01*
X172970577Y-137002800D01*
X172976271Y-137065207D01*
X172978507Y-137149327D01*
X172978743Y-137204721D01*
X172978743Y-137420826D01*
X172941774Y-137437670D01*
X172912656Y-137449981D01*
X172898231Y-137454514D01*
X172895472Y-137441025D01*
X172893282Y-137404653D01*
X172891942Y-137351542D01*
X172891657Y-137309372D01*
X172890434Y-137248447D01*
X172887136Y-137200115D01*
X172882321Y-137170518D01*
X172878496Y-137164229D01*
X172852783Y-137170652D01*
X172812418Y-137187125D01*
X172765679Y-137209458D01*
X172720845Y-137233457D01*
X172686193Y-137254930D01*
X172670002Y-137269685D01*
X172669938Y-137269845D01*
X172671330Y-137297152D01*
X172683818Y-137323219D01*
X172705743Y-137344392D01*
X172737743Y-137351474D01*
X172765092Y-137350649D01*
X172803826Y-137350042D01*
X172824158Y-137359116D01*
X172836369Y-137383092D01*
X172837909Y-137387613D01*
X172843203Y-137421806D01*
X172829047Y-137442568D01*
X172792148Y-137452462D01*
X172752289Y-137454292D01*
X172680562Y-137440727D01*
X172643432Y-137421355D01*
X172597576Y-137375845D01*
X172573256Y-137319983D01*
X172571073Y-137260957D01*
X172591629Y-137205953D01*
X172622549Y-137171486D01*
X172653420Y-137152189D01*
X172701942Y-137127759D01*
X172758485Y-137102985D01*
X172767910Y-137099199D01*
X172830019Y-137071791D01*
X172865822Y-137047634D01*
X172877337Y-137023619D01*
X172866580Y-136996635D01*
X172848114Y-136975543D01*
X172804469Y-136949572D01*
X172756446Y-136947624D01*
X172712406Y-136967637D01*
X172680709Y-137007551D01*
X172676549Y-137017848D01*
X172652327Y-137055724D01*
X172616965Y-137083842D01*
X172572343Y-137106917D01*
X172572343Y-137041485D01*
X172574969Y-137001506D01*
X172586230Y-136969997D01*
X172611199Y-136936378D01*
X172635169Y-136910484D01*
X172672441Y-136873817D01*
X172701401Y-136854121D01*
X172732505Y-136846220D01*
X172767713Y-136844914D01*
X172844876Y-136856335D01*
%TA.AperFunction,EtchedComponent*%
G36*
X172844876Y-136856335D02*
G01*
X172886667Y-136875344D01*
X172919469Y-136898378D01*
X172943503Y-136924133D01*
X172960097Y-136957358D01*
X172970577Y-137002800D01*
X172976271Y-137065207D01*
X172978507Y-137149327D01*
X172978743Y-137204721D01*
X172978743Y-137420826D01*
X172941774Y-137437670D01*
X172912656Y-137449981D01*
X172898231Y-137454514D01*
X172895472Y-137441025D01*
X172893282Y-137404653D01*
X172891942Y-137351542D01*
X172891657Y-137309372D01*
X172890434Y-137248447D01*
X172887136Y-137200115D01*
X172882321Y-137170518D01*
X172878496Y-137164229D01*
X172852783Y-137170652D01*
X172812418Y-137187125D01*
X172765679Y-137209458D01*
X172720845Y-137233457D01*
X172686193Y-137254930D01*
X172670002Y-137269685D01*
X172669938Y-137269845D01*
X172671330Y-137297152D01*
X172683818Y-137323219D01*
X172705743Y-137344392D01*
X172737743Y-137351474D01*
X172765092Y-137350649D01*
X172803826Y-137350042D01*
X172824158Y-137359116D01*
X172836369Y-137383092D01*
X172837909Y-137387613D01*
X172843203Y-137421806D01*
X172829047Y-137442568D01*
X172792148Y-137452462D01*
X172752289Y-137454292D01*
X172680562Y-137440727D01*
X172643432Y-137421355D01*
X172597576Y-137375845D01*
X172573256Y-137319983D01*
X172571073Y-137260957D01*
X172591629Y-137205953D01*
X172622549Y-137171486D01*
X172653420Y-137152189D01*
X172701942Y-137127759D01*
X172758485Y-137102985D01*
X172767910Y-137099199D01*
X172830019Y-137071791D01*
X172865822Y-137047634D01*
X172877337Y-137023619D01*
X172866580Y-136996635D01*
X172848114Y-136975543D01*
X172804469Y-136949572D01*
X172756446Y-136947624D01*
X172712406Y-136967637D01*
X172680709Y-137007551D01*
X172676549Y-137017848D01*
X172652327Y-137055724D01*
X172616965Y-137083842D01*
X172572343Y-137106917D01*
X172572343Y-137041485D01*
X172574969Y-137001506D01*
X172586230Y-136969997D01*
X172611199Y-136936378D01*
X172635169Y-136910484D01*
X172672441Y-136873817D01*
X172701401Y-136854121D01*
X172732505Y-136846220D01*
X172767713Y-136844914D01*
X172844876Y-136856335D01*
G37*
%TD.AperFunction*%
X170803910Y-132142348D02*
X170882454Y-132142778D01*
X170939298Y-132143942D01*
X170978105Y-132146207D01*
X171002538Y-132149940D01*
X171016262Y-132155506D01*
X171022940Y-132163273D01*
X171026236Y-132173605D01*
X171026556Y-132174943D01*
X171031562Y-132199079D01*
X171040829Y-132246701D01*
X171053392Y-132312741D01*
X171068287Y-132392128D01*
X171084551Y-132479796D01*
X171085119Y-132482875D01*
X171101410Y-132568789D01*
X171116652Y-132644696D01*
X171129861Y-132706045D01*
X171140054Y-132748282D01*
X171146248Y-132766855D01*
X171146543Y-132767184D01*
X171164788Y-132776253D01*
X171202405Y-132791367D01*
X171251271Y-132809262D01*
X171251543Y-132809358D01*
X171313093Y-132832493D01*
X171385657Y-132861965D01*
X171454057Y-132891597D01*
X171457294Y-132893062D01*
X171568702Y-132943626D01*
X171815399Y-132775160D01*
X171891077Y-132723803D01*
X171959631Y-132677889D01*
X172017088Y-132640030D01*
X172059476Y-132612837D01*
X172082825Y-132598921D01*
X172085042Y-132597889D01*
X172102010Y-132602484D01*
X172133701Y-132624655D01*
X172181352Y-132665447D01*
X172246198Y-132725905D01*
X172312397Y-132790227D01*
X172376214Y-132853612D01*
X172433329Y-132911451D01*
X172480305Y-132960175D01*
X172513703Y-132996210D01*
X172530085Y-133015984D01*
X172530694Y-133017002D01*
X172532505Y-133030572D01*
X172525683Y-133052733D01*
X172508540Y-133086478D01*
X172479393Y-133134800D01*
X172436555Y-133200692D01*
X172379448Y-133285517D01*
X172328766Y-133360177D01*
X172283461Y-133427140D01*
X172246150Y-133482516D01*
X172219452Y-133522420D01*
X172205985Y-133542962D01*
X172205137Y-133544356D01*
X172206781Y-133564038D01*
X172219245Y-133602293D01*
X172240048Y-133651889D01*
X172247462Y-133667728D01*
X172279814Y-133738290D01*
X172314328Y-133818353D01*
X172342365Y-133887629D01*
X172362568Y-133939045D01*
X172378615Y-133978119D01*
X172387888Y-133998541D01*
X172389041Y-134000114D01*
X172406096Y-134002721D01*
X172446298Y-134009863D01*
X172504302Y-134020523D01*
X172574763Y-134033685D01*
X172652335Y-134048333D01*
X172731672Y-134063449D01*
X172807431Y-134078018D01*
X172874264Y-134091022D01*
X172926828Y-134101445D01*
X172959776Y-134108270D01*
X172967857Y-134110199D01*
X172976205Y-134114962D01*
X172982506Y-134125718D01*
X172987045Y-134146098D01*
X172990104Y-134179734D01*
X172991967Y-134230255D01*
X172992918Y-134301292D01*
X172993240Y-134396476D01*
X172993257Y-134435492D01*
X172993257Y-134752799D01*
X172917057Y-134767839D01*
X172874663Y-134775995D01*
X172811400Y-134787899D01*
X172734962Y-134802116D01*
X172653043Y-134817210D01*
X172630400Y-134821355D01*
X172554806Y-134836053D01*
X172488953Y-134850505D01*
X172438366Y-134863375D01*
X172408574Y-134873322D01*
X172403612Y-134876287D01*
X172391426Y-134897283D01*
X172373953Y-134937967D01*
X172354577Y-134990322D01*
X172350734Y-135001600D01*
X172325339Y-135071523D01*
X172293817Y-135150418D01*
X172262969Y-135221266D01*
X172262817Y-135221595D01*
X172211447Y-135332733D01*
X172380399Y-135581253D01*
X172549352Y-135829772D01*
X172332429Y-136047058D01*
X172266819Y-136111726D01*
X172206979Y-136168733D01*
X172156267Y-136215033D01*
X172118046Y-136247584D01*
X172095675Y-136263343D01*
X172092466Y-136264343D01*
X172073626Y-136256469D01*
X172035180Y-136234578D01*
X171981330Y-136201267D01*
X171916276Y-136159131D01*
X171845940Y-136111943D01*
X171774555Y-136063810D01*
X171710908Y-136021928D01*
X171659041Y-135988871D01*
X171622995Y-135967218D01*
X171606867Y-135959543D01*
X171587189Y-135966037D01*
X171549875Y-135983150D01*
X171502621Y-136007326D01*
X171497612Y-136010013D01*
X171433977Y-136041927D01*
X171390341Y-136057579D01*
X171363202Y-136057745D01*
X171349057Y-136043204D01*
X171348975Y-136043000D01*
X171341905Y-136025779D01*
X171325042Y-135984899D01*
X171299695Y-135923525D01*
X171267171Y-135844819D01*
X171228778Y-135751947D01*
X171185822Y-135648072D01*
X171144222Y-135547502D01*
X171098504Y-135436516D01*
X171056526Y-135333703D01*
X171019548Y-135242215D01*
X170988827Y-135165201D01*
X170965622Y-135105815D01*
X170951190Y-135067209D01*
X170946743Y-135052800D01*
X170957896Y-135036272D01*
X170987069Y-135009930D01*
X171025971Y-134980887D01*
X171136757Y-134889039D01*
X171223351Y-134783759D01*
X171284716Y-134667266D01*
X171319815Y-134541776D01*
X171327608Y-134409507D01*
X171321943Y-134348457D01*
X171291078Y-134221795D01*
X171237920Y-134109941D01*
X171165767Y-134014001D01*
X171077917Y-133935076D01*
X170977665Y-133874270D01*
X170868310Y-133832687D01*
X170753147Y-133811428D01*
X170635475Y-133811599D01*
X170518590Y-133834301D01*
X170405789Y-133880638D01*
X170300369Y-133951713D01*
X170256368Y-133991911D01*
X170171979Y-134095129D01*
X170113222Y-134207925D01*
X170079704Y-134327010D01*
X170071035Y-134449095D01*
X170086823Y-134570893D01*
X170126678Y-134689116D01*
X170190207Y-134800475D01*
X170277021Y-134901684D01*
X170374029Y-134980887D01*
X170414437Y-135011162D01*
X170442982Y-135037219D01*
X170453257Y-135052825D01*
X170447877Y-135069843D01*
X170432575Y-135110500D01*
X170408612Y-135171642D01*
X170377244Y-135250119D01*
X170339732Y-135342780D01*
X170297333Y-135446472D01*
X170255663Y-135547526D01*
X170209690Y-135658607D01*
X170167107Y-135761541D01*
X170129221Y-135853165D01*
X170097340Y-135930316D01*
X170072771Y-135989831D01*
X170056820Y-136028544D01*
X170050910Y-136043000D01*
X170036948Y-136057685D01*
X170009940Y-136057642D01*
X169966413Y-136042099D01*
X169902890Y-136010284D01*
X169902388Y-136010013D01*
X169854560Y-135985323D01*
X169815897Y-135967338D01*
X169794095Y-135959614D01*
X169793133Y-135959543D01*
X169776721Y-135967378D01*
X169740487Y-135989165D01*
X169688474Y-136022328D01*
X169624725Y-136064291D01*
X169554060Y-136111943D01*
X169482116Y-136160191D01*
X169417274Y-136202151D01*
X169363735Y-136235227D01*
X169325697Y-136256821D01*
X169307533Y-136264343D01*
X169290808Y-136254457D01*
X169257180Y-136226826D01*
X169210010Y-136184495D01*
X169152658Y-136130505D01*
X169088484Y-136067899D01*
X169067497Y-136046983D01*
X168850499Y-135829623D01*
X169015668Y-135587220D01*
X169065864Y-135512781D01*
X169109919Y-135445972D01*
X169145362Y-135390665D01*
X169169719Y-135350729D01*
X169180522Y-135330036D01*
X169180838Y-135328563D01*
X169175143Y-135309058D01*
X169159826Y-135269822D01*
X169137537Y-135217430D01*
X169121893Y-135182355D01*
X169092641Y-135115201D01*
X169065094Y-135047358D01*
X169043737Y-134990034D01*
X169037935Y-134972572D01*
X169021452Y-134925938D01*
X169005340Y-134889905D01*
X168996490Y-134876287D01*
X168976960Y-134867952D01*
X168934334Y-134856137D01*
X168874145Y-134842181D01*
X168801922Y-134827422D01*
X168769600Y-134821355D01*
X168687522Y-134806273D01*
X168608795Y-134791669D01*
X168541109Y-134778980D01*
X168492160Y-134769642D01*
X168482943Y-134767839D01*
X168406743Y-134752799D01*
X168406743Y-134435492D01*
X168406914Y-134331154D01*
X168407616Y-134252213D01*
X168409134Y-134195038D01*
X168411749Y-134155999D01*
X168415746Y-134131465D01*
X168421409Y-134117805D01*
X168429020Y-134111389D01*
X168432143Y-134110199D01*
X168450978Y-134105980D01*
X168492588Y-134097562D01*
X168551630Y-134085961D01*
X168622757Y-134072195D01*
X168700625Y-134057280D01*
X168779887Y-134042232D01*
X168855198Y-134028069D01*
X168921213Y-134015806D01*
X168972587Y-134006461D01*
X169003975Y-134001050D01*
X169010959Y-134000114D01*
X169017285Y-133987596D01*
X169031290Y-133954246D01*
X169050355Y-133906377D01*
X169057634Y-133887629D01*
X169086996Y-133815195D01*
X169121571Y-133735170D01*
X169152537Y-133667728D01*
X169175323Y-133616159D01*
X169190482Y-133573785D01*
X169195542Y-133547834D01*
X169194736Y-133544356D01*
X169184041Y-133527936D01*
X169159620Y-133491417D01*
X169124095Y-133438687D01*
X169080087Y-133373635D01*
X169030217Y-133300151D01*
X169020356Y-133285645D01*
X168962492Y-133199704D01*
X168919956Y-133134261D01*
X168891054Y-133086304D01*
X168874090Y-133052820D01*
X168867367Y-133030795D01*
X168869190Y-133017217D01*
X168869236Y-133017131D01*
X168883586Y-132999297D01*
X168915323Y-132964817D01*
X168961010Y-132917268D01*
X169017204Y-132860222D01*
X169080468Y-132797255D01*
X169087602Y-132790227D01*
X169167330Y-132713020D01*
X169228857Y-132656330D01*
X169273421Y-132619110D01*
X169302257Y-132600315D01*
X169314958Y-132597889D01*
X169333494Y-132608471D01*
X169371961Y-132632916D01*
X169426386Y-132668612D01*
X169492798Y-132712947D01*
X169567225Y-132763311D01*
X169584601Y-132775160D01*
X169831297Y-132943626D01*
X169942706Y-132893062D01*
X170010457Y-132863595D01*
X170083183Y-132833959D01*
X170145703Y-132810330D01*
X170148457Y-132809358D01*
X170197360Y-132791457D01*
X170235057Y-132776320D01*
X170253425Y-132767210D01*
X170253456Y-132767184D01*
X170259285Y-132750717D01*
X170269192Y-132710219D01*
X170282195Y-132650242D01*
X170297309Y-132575340D01*
X170313552Y-132490064D01*
X170314881Y-132482875D01*
X170331175Y-132395014D01*
X170346133Y-132315260D01*
X170358791Y-132248681D01*
X170368186Y-132200347D01*
X170373354Y-132175325D01*
X170373444Y-132174943D01*
X170376589Y-132164299D01*
X170382704Y-132156262D01*
X170395453Y-132150467D01*
X170418500Y-132146547D01*
X170455509Y-132144135D01*
X170510144Y-132142865D01*
X170586067Y-132142371D01*
X170686944Y-132142286D01*
X170700000Y-132142286D01*
X170803910Y-132142348D01*
%TA.AperFunction,EtchedComponent*%
G36*
X170803910Y-132142348D02*
G01*
X170882454Y-132142778D01*
X170939298Y-132143942D01*
X170978105Y-132146207D01*
X171002538Y-132149940D01*
X171016262Y-132155506D01*
X171022940Y-132163273D01*
X171026236Y-132173605D01*
X171026556Y-132174943D01*
X171031562Y-132199079D01*
X171040829Y-132246701D01*
X171053392Y-132312741D01*
X171068287Y-132392128D01*
X171084551Y-132479796D01*
X171085119Y-132482875D01*
X171101410Y-132568789D01*
X171116652Y-132644696D01*
X171129861Y-132706045D01*
X171140054Y-132748282D01*
X171146248Y-132766855D01*
X171146543Y-132767184D01*
X171164788Y-132776253D01*
X171202405Y-132791367D01*
X171251271Y-132809262D01*
X171251543Y-132809358D01*
X171313093Y-132832493D01*
X171385657Y-132861965D01*
X171454057Y-132891597D01*
X171457294Y-132893062D01*
X171568702Y-132943626D01*
X171815399Y-132775160D01*
X171891077Y-132723803D01*
X171959631Y-132677889D01*
X172017088Y-132640030D01*
X172059476Y-132612837D01*
X172082825Y-132598921D01*
X172085042Y-132597889D01*
X172102010Y-132602484D01*
X172133701Y-132624655D01*
X172181352Y-132665447D01*
X172246198Y-132725905D01*
X172312397Y-132790227D01*
X172376214Y-132853612D01*
X172433329Y-132911451D01*
X172480305Y-132960175D01*
X172513703Y-132996210D01*
X172530085Y-133015984D01*
X172530694Y-133017002D01*
X172532505Y-133030572D01*
X172525683Y-133052733D01*
X172508540Y-133086478D01*
X172479393Y-133134800D01*
X172436555Y-133200692D01*
X172379448Y-133285517D01*
X172328766Y-133360177D01*
X172283461Y-133427140D01*
X172246150Y-133482516D01*
X172219452Y-133522420D01*
X172205985Y-133542962D01*
X172205137Y-133544356D01*
X172206781Y-133564038D01*
X172219245Y-133602293D01*
X172240048Y-133651889D01*
X172247462Y-133667728D01*
X172279814Y-133738290D01*
X172314328Y-133818353D01*
X172342365Y-133887629D01*
X172362568Y-133939045D01*
X172378615Y-133978119D01*
X172387888Y-133998541D01*
X172389041Y-134000114D01*
X172406096Y-134002721D01*
X172446298Y-134009863D01*
X172504302Y-134020523D01*
X172574763Y-134033685D01*
X172652335Y-134048333D01*
X172731672Y-134063449D01*
X172807431Y-134078018D01*
X172874264Y-134091022D01*
X172926828Y-134101445D01*
X172959776Y-134108270D01*
X172967857Y-134110199D01*
X172976205Y-134114962D01*
X172982506Y-134125718D01*
X172987045Y-134146098D01*
X172990104Y-134179734D01*
X172991967Y-134230255D01*
X172992918Y-134301292D01*
X172993240Y-134396476D01*
X172993257Y-134435492D01*
X172993257Y-134752799D01*
X172917057Y-134767839D01*
X172874663Y-134775995D01*
X172811400Y-134787899D01*
X172734962Y-134802116D01*
X172653043Y-134817210D01*
X172630400Y-134821355D01*
X172554806Y-134836053D01*
X172488953Y-134850505D01*
X172438366Y-134863375D01*
X172408574Y-134873322D01*
X172403612Y-134876287D01*
X172391426Y-134897283D01*
X172373953Y-134937967D01*
X172354577Y-134990322D01*
X172350734Y-135001600D01*
X172325339Y-135071523D01*
X172293817Y-135150418D01*
X172262969Y-135221266D01*
X172262817Y-135221595D01*
X172211447Y-135332733D01*
X172380399Y-135581253D01*
X172549352Y-135829772D01*
X172332429Y-136047058D01*
X172266819Y-136111726D01*
X172206979Y-136168733D01*
X172156267Y-136215033D01*
X172118046Y-136247584D01*
X172095675Y-136263343D01*
X172092466Y-136264343D01*
X172073626Y-136256469D01*
X172035180Y-136234578D01*
X171981330Y-136201267D01*
X171916276Y-136159131D01*
X171845940Y-136111943D01*
X171774555Y-136063810D01*
X171710908Y-136021928D01*
X171659041Y-135988871D01*
X171622995Y-135967218D01*
X171606867Y-135959543D01*
X171587189Y-135966037D01*
X171549875Y-135983150D01*
X171502621Y-136007326D01*
X171497612Y-136010013D01*
X171433977Y-136041927D01*
X171390341Y-136057579D01*
X171363202Y-136057745D01*
X171349057Y-136043204D01*
X171348975Y-136043000D01*
X171341905Y-136025779D01*
X171325042Y-135984899D01*
X171299695Y-135923525D01*
X171267171Y-135844819D01*
X171228778Y-135751947D01*
X171185822Y-135648072D01*
X171144222Y-135547502D01*
X171098504Y-135436516D01*
X171056526Y-135333703D01*
X171019548Y-135242215D01*
X170988827Y-135165201D01*
X170965622Y-135105815D01*
X170951190Y-135067209D01*
X170946743Y-135052800D01*
X170957896Y-135036272D01*
X170987069Y-135009930D01*
X171025971Y-134980887D01*
X171136757Y-134889039D01*
X171223351Y-134783759D01*
X171284716Y-134667266D01*
X171319815Y-134541776D01*
X171327608Y-134409507D01*
X171321943Y-134348457D01*
X171291078Y-134221795D01*
X171237920Y-134109941D01*
X171165767Y-134014001D01*
X171077917Y-133935076D01*
X170977665Y-133874270D01*
X170868310Y-133832687D01*
X170753147Y-133811428D01*
X170635475Y-133811599D01*
X170518590Y-133834301D01*
X170405789Y-133880638D01*
X170300369Y-133951713D01*
X170256368Y-133991911D01*
X170171979Y-134095129D01*
X170113222Y-134207925D01*
X170079704Y-134327010D01*
X170071035Y-134449095D01*
X170086823Y-134570893D01*
X170126678Y-134689116D01*
X170190207Y-134800475D01*
X170277021Y-134901684D01*
X170374029Y-134980887D01*
X170414437Y-135011162D01*
X170442982Y-135037219D01*
X170453257Y-135052825D01*
X170447877Y-135069843D01*
X170432575Y-135110500D01*
X170408612Y-135171642D01*
X170377244Y-135250119D01*
X170339732Y-135342780D01*
X170297333Y-135446472D01*
X170255663Y-135547526D01*
X170209690Y-135658607D01*
X170167107Y-135761541D01*
X170129221Y-135853165D01*
X170097340Y-135930316D01*
X170072771Y-135989831D01*
X170056820Y-136028544D01*
X170050910Y-136043000D01*
X170036948Y-136057685D01*
X170009940Y-136057642D01*
X169966413Y-136042099D01*
X169902890Y-136010284D01*
X169902388Y-136010013D01*
X169854560Y-135985323D01*
X169815897Y-135967338D01*
X169794095Y-135959614D01*
X169793133Y-135959543D01*
X169776721Y-135967378D01*
X169740487Y-135989165D01*
X169688474Y-136022328D01*
X169624725Y-136064291D01*
X169554060Y-136111943D01*
X169482116Y-136160191D01*
X169417274Y-136202151D01*
X169363735Y-136235227D01*
X169325697Y-136256821D01*
X169307533Y-136264343D01*
X169290808Y-136254457D01*
X169257180Y-136226826D01*
X169210010Y-136184495D01*
X169152658Y-136130505D01*
X169088484Y-136067899D01*
X169067497Y-136046983D01*
X168850499Y-135829623D01*
X169015668Y-135587220D01*
X169065864Y-135512781D01*
X169109919Y-135445972D01*
X169145362Y-135390665D01*
X169169719Y-135350729D01*
X169180522Y-135330036D01*
X169180838Y-135328563D01*
X169175143Y-135309058D01*
X169159826Y-135269822D01*
X169137537Y-135217430D01*
X169121893Y-135182355D01*
X169092641Y-135115201D01*
X169065094Y-135047358D01*
X169043737Y-134990034D01*
X169037935Y-134972572D01*
X169021452Y-134925938D01*
X169005340Y-134889905D01*
X168996490Y-134876287D01*
X168976960Y-134867952D01*
X168934334Y-134856137D01*
X168874145Y-134842181D01*
X168801922Y-134827422D01*
X168769600Y-134821355D01*
X168687522Y-134806273D01*
X168608795Y-134791669D01*
X168541109Y-134778980D01*
X168492160Y-134769642D01*
X168482943Y-134767839D01*
X168406743Y-134752799D01*
X168406743Y-134435492D01*
X168406914Y-134331154D01*
X168407616Y-134252213D01*
X168409134Y-134195038D01*
X168411749Y-134155999D01*
X168415746Y-134131465D01*
X168421409Y-134117805D01*
X168429020Y-134111389D01*
X168432143Y-134110199D01*
X168450978Y-134105980D01*
X168492588Y-134097562D01*
X168551630Y-134085961D01*
X168622757Y-134072195D01*
X168700625Y-134057280D01*
X168779887Y-134042232D01*
X168855198Y-134028069D01*
X168921213Y-134015806D01*
X168972587Y-134006461D01*
X169003975Y-134001050D01*
X169010959Y-134000114D01*
X169017285Y-133987596D01*
X169031290Y-133954246D01*
X169050355Y-133906377D01*
X169057634Y-133887629D01*
X169086996Y-133815195D01*
X169121571Y-133735170D01*
X169152537Y-133667728D01*
X169175323Y-133616159D01*
X169190482Y-133573785D01*
X169195542Y-133547834D01*
X169194736Y-133544356D01*
X169184041Y-133527936D01*
X169159620Y-133491417D01*
X169124095Y-133438687D01*
X169080087Y-133373635D01*
X169030217Y-133300151D01*
X169020356Y-133285645D01*
X168962492Y-133199704D01*
X168919956Y-133134261D01*
X168891054Y-133086304D01*
X168874090Y-133052820D01*
X168867367Y-133030795D01*
X168869190Y-133017217D01*
X168869236Y-133017131D01*
X168883586Y-132999297D01*
X168915323Y-132964817D01*
X168961010Y-132917268D01*
X169017204Y-132860222D01*
X169080468Y-132797255D01*
X169087602Y-132790227D01*
X169167330Y-132713020D01*
X169228857Y-132656330D01*
X169273421Y-132619110D01*
X169302257Y-132600315D01*
X169314958Y-132597889D01*
X169333494Y-132608471D01*
X169371961Y-132632916D01*
X169426386Y-132668612D01*
X169492798Y-132712947D01*
X169567225Y-132763311D01*
X169584601Y-132775160D01*
X169831297Y-132943626D01*
X169942706Y-132893062D01*
X170010457Y-132863595D01*
X170083183Y-132833959D01*
X170145703Y-132810330D01*
X170148457Y-132809358D01*
X170197360Y-132791457D01*
X170235057Y-132776320D01*
X170253425Y-132767210D01*
X170253456Y-132767184D01*
X170259285Y-132750717D01*
X170269192Y-132710219D01*
X170282195Y-132650242D01*
X170297309Y-132575340D01*
X170313552Y-132490064D01*
X170314881Y-132482875D01*
X170331175Y-132395014D01*
X170346133Y-132315260D01*
X170358791Y-132248681D01*
X170368186Y-132200347D01*
X170373354Y-132175325D01*
X170373444Y-132174943D01*
X170376589Y-132164299D01*
X170382704Y-132156262D01*
X170395453Y-132150467D01*
X170418500Y-132146547D01*
X170455509Y-132144135D01*
X170510144Y-132142865D01*
X170586067Y-132142371D01*
X170686944Y-132142286D01*
X170700000Y-132142286D01*
X170803910Y-132142348D01*
G37*
%TD.AperFunction*%
D12*
X179075000Y-134998000D02*
X179431000Y-134998000D01*
X179240000Y-134759000D02*
X179113000Y-134632000D01*
X179240000Y-134759000D02*
X179469000Y-134759000D01*
X179240000Y-135216000D02*
X179113000Y-135343000D01*
X179240000Y-135216000D02*
X179469000Y-135216000D01*
X179469000Y-134508000D02*
X179469000Y-135496000D01*
X179698000Y-134759000D02*
X179469000Y-134759000D01*
X179698000Y-134759000D02*
X179825000Y-134632000D01*
X179698000Y-135216000D02*
X179469000Y-135216000D01*
X179698000Y-135216000D02*
X179825000Y-135343000D01*
X179863000Y-135000000D02*
X179507000Y-135000000D01*
X179075000Y-134998000D02*
G75*
G03*
X178897000Y-134998000I-89000J0D01*
G01*
X178897000Y-134998000D02*
G75*
G03*
X179075000Y-134998000I89000J0D01*
G01*
X179139000Y-134556000D02*
G75*
G03*
X178961000Y-134556000I-89000J0D01*
G01*
X178961000Y-134556000D02*
G75*
G03*
X179139000Y-134556000I89000J0D01*
G01*
X179139000Y-135419000D02*
G75*
G03*
X178961000Y-135419000I-89000J0D01*
G01*
X178961000Y-135419000D02*
G75*
G03*
X179139000Y-135419000I89000J0D01*
G01*
X179586000Y-134391000D02*
G75*
G03*
X179352000Y-134391000I-117000J0D01*
G01*
X179352000Y-134391000D02*
G75*
G03*
X179586000Y-134391000I117000J0D01*
G01*
X179586000Y-135607000D02*
G75*
G03*
X179352000Y-135607000I-117000J0D01*
G01*
X179352000Y-135607000D02*
G75*
G03*
X179586000Y-135607000I117000J0D01*
G01*
X179977000Y-134556000D02*
G75*
G03*
X179799000Y-134556000I-89000J0D01*
G01*
X179799000Y-134556000D02*
G75*
G03*
X179977000Y-134556000I89000J0D01*
G01*
X179977000Y-135419000D02*
G75*
G03*
X179799000Y-135419000I-89000J0D01*
G01*
X179799000Y-135419000D02*
G75*
G03*
X179977000Y-135419000I89000J0D01*
G01*
X180040000Y-135000000D02*
G75*
G03*
X179862000Y-135000000I-89000J0D01*
G01*
X179862000Y-135000000D02*
G75*
G03*
X180040000Y-135000000I89000J0D01*
G01*
D11*
X186832000Y-135649000D02*
X186578000Y-135649000D01*
X186578000Y-134322000D01*
X186832000Y-134322000D01*
X186832000Y-135649000D01*
%TA.AperFunction,EtchedComponent*%
G36*
X186832000Y-135649000D02*
G01*
X186578000Y-135649000D01*
X186578000Y-134322000D01*
X186832000Y-134322000D01*
X186832000Y-135649000D01*
G37*
%TD.AperFunction*%
X188535000Y-134301000D02*
X188578000Y-134319000D01*
X188582000Y-134329000D01*
X188566000Y-134430000D01*
X188520000Y-134482000D01*
X188472000Y-134490000D01*
X188384000Y-134488000D01*
X188321000Y-134489000D01*
X188243000Y-134492000D01*
X188243000Y-135649000D01*
X187989000Y-135649000D01*
X187989000Y-134381000D01*
X188136000Y-134337000D01*
X188243000Y-134313000D01*
X188354000Y-134298000D01*
X188456000Y-134294000D01*
X188535000Y-134301000D01*
%TA.AperFunction,EtchedComponent*%
G36*
X188535000Y-134301000D02*
G01*
X188578000Y-134319000D01*
X188582000Y-134329000D01*
X188566000Y-134430000D01*
X188520000Y-134482000D01*
X188472000Y-134490000D01*
X188384000Y-134488000D01*
X188321000Y-134489000D01*
X188243000Y-134492000D01*
X188243000Y-135649000D01*
X187989000Y-135649000D01*
X187989000Y-134381000D01*
X188136000Y-134337000D01*
X188243000Y-134313000D01*
X188354000Y-134298000D01*
X188456000Y-134294000D01*
X188535000Y-134301000D01*
G37*
%TD.AperFunction*%
X183359000Y-134310000D02*
X183492000Y-134348000D01*
X183493000Y-134349000D01*
X183559000Y-134382000D01*
X183609000Y-134420000D01*
X183645000Y-134470000D01*
X183671000Y-134540000D01*
X183687000Y-134637000D01*
X183695000Y-134770000D01*
X183699000Y-134946000D01*
X183700000Y-135111000D01*
X183700000Y-135649000D01*
X183446000Y-135649000D01*
X183446000Y-135133000D01*
X183444000Y-134930000D01*
X183440000Y-134775000D01*
X183430000Y-134663000D01*
X183414000Y-134585000D01*
X183388000Y-134534000D01*
X183351000Y-134503000D01*
X183301000Y-134483000D01*
X183276000Y-134477000D01*
X183190000Y-134470000D01*
X183091000Y-134476000D01*
X183078000Y-134477000D01*
X182966000Y-134496000D01*
X182966000Y-135649000D01*
X182712000Y-135649000D01*
X182712000Y-134381000D01*
X182858000Y-134337000D01*
X183022000Y-134304000D01*
X183196000Y-134295000D01*
X183359000Y-134310000D01*
%TA.AperFunction,EtchedComponent*%
G36*
X183359000Y-134310000D02*
G01*
X183492000Y-134348000D01*
X183493000Y-134349000D01*
X183559000Y-134382000D01*
X183609000Y-134420000D01*
X183645000Y-134470000D01*
X183671000Y-134540000D01*
X183687000Y-134637000D01*
X183695000Y-134770000D01*
X183699000Y-134946000D01*
X183700000Y-135111000D01*
X183700000Y-135649000D01*
X183446000Y-135649000D01*
X183446000Y-135133000D01*
X183444000Y-134930000D01*
X183440000Y-134775000D01*
X183430000Y-134663000D01*
X183414000Y-134585000D01*
X183388000Y-134534000D01*
X183351000Y-134503000D01*
X183301000Y-134483000D01*
X183276000Y-134477000D01*
X183190000Y-134470000D01*
X183091000Y-134476000D01*
X183078000Y-134477000D01*
X182966000Y-134496000D01*
X182966000Y-135649000D01*
X182712000Y-135649000D01*
X182712000Y-134381000D01*
X182858000Y-134337000D01*
X183022000Y-134304000D01*
X183196000Y-134295000D01*
X183359000Y-134310000D01*
G37*
%TD.AperFunction*%
X187695000Y-134318000D02*
X187779000Y-134353000D01*
X187812000Y-134406000D01*
X187799000Y-134474000D01*
X187775000Y-134516000D01*
X187744000Y-134529000D01*
X187687000Y-134515000D01*
X187660000Y-134506000D01*
X187571000Y-134484000D01*
X187499000Y-134492000D01*
X187470000Y-134502000D01*
X187381000Y-134554000D01*
X187320000Y-134631000D01*
X187282000Y-134741000D01*
X187262000Y-134896000D01*
X187261000Y-134914000D01*
X187264000Y-135106000D01*
X187294000Y-135264000D01*
X187350000Y-135381000D01*
X187405000Y-135437000D01*
X187491000Y-135470000D01*
X187597000Y-135477000D01*
X187694000Y-135457000D01*
X187708000Y-135451000D01*
X187756000Y-135439000D01*
X187790000Y-135476000D01*
X187791000Y-135477000D01*
X187818000Y-135556000D01*
X187796000Y-135610000D01*
X187731000Y-135646000D01*
X187643000Y-135665000D01*
X187532000Y-135674000D01*
X187424000Y-135671000D01*
X187343000Y-135658000D01*
X187340000Y-135656000D01*
X187216000Y-135581000D01*
X187112000Y-135461000D01*
X187069000Y-135383000D01*
X187034000Y-135298000D01*
X187014000Y-135211000D01*
X187004000Y-135105000D01*
X187002000Y-134982000D01*
X187004000Y-134851000D01*
X187012000Y-134757000D01*
X187031000Y-134682000D01*
X187064000Y-134606000D01*
X187081000Y-134572000D01*
X187172000Y-134435000D01*
X187282000Y-134348000D01*
X187418000Y-134306000D01*
X187559000Y-134301000D01*
X187695000Y-134318000D01*
%TA.AperFunction,EtchedComponent*%
G36*
X187695000Y-134318000D02*
G01*
X187779000Y-134353000D01*
X187812000Y-134406000D01*
X187799000Y-134474000D01*
X187775000Y-134516000D01*
X187744000Y-134529000D01*
X187687000Y-134515000D01*
X187660000Y-134506000D01*
X187571000Y-134484000D01*
X187499000Y-134492000D01*
X187470000Y-134502000D01*
X187381000Y-134554000D01*
X187320000Y-134631000D01*
X187282000Y-134741000D01*
X187262000Y-134896000D01*
X187261000Y-134914000D01*
X187264000Y-135106000D01*
X187294000Y-135264000D01*
X187350000Y-135381000D01*
X187405000Y-135437000D01*
X187491000Y-135470000D01*
X187597000Y-135477000D01*
X187694000Y-135457000D01*
X187708000Y-135451000D01*
X187756000Y-135439000D01*
X187790000Y-135476000D01*
X187791000Y-135477000D01*
X187818000Y-135556000D01*
X187796000Y-135610000D01*
X187731000Y-135646000D01*
X187643000Y-135665000D01*
X187532000Y-135674000D01*
X187424000Y-135671000D01*
X187343000Y-135658000D01*
X187340000Y-135656000D01*
X187216000Y-135581000D01*
X187112000Y-135461000D01*
X187069000Y-135383000D01*
X187034000Y-135298000D01*
X187014000Y-135211000D01*
X187004000Y-135105000D01*
X187002000Y-134982000D01*
X187004000Y-134851000D01*
X187012000Y-134757000D01*
X187031000Y-134682000D01*
X187064000Y-134606000D01*
X187081000Y-134572000D01*
X187172000Y-134435000D01*
X187282000Y-134348000D01*
X187418000Y-134306000D01*
X187559000Y-134301000D01*
X187695000Y-134318000D01*
G37*
%TD.AperFunction*%
X184207000Y-134322000D02*
X184320000Y-134322000D01*
X184393000Y-134326000D01*
X184425000Y-134344000D01*
X184433000Y-134389000D01*
X184433000Y-134407000D01*
X184429000Y-134461000D01*
X184405000Y-134485000D01*
X184345000Y-134491000D01*
X184320000Y-134492000D01*
X184207000Y-134492000D01*
X184207000Y-134923000D01*
X184210000Y-135116000D01*
X184217000Y-135260000D01*
X184231000Y-135361000D01*
X184255000Y-135426000D01*
X184290000Y-135463000D01*
X184339000Y-135478000D01*
X184366000Y-135479000D01*
X184414000Y-135486000D01*
X184430000Y-135518000D01*
X184428000Y-135571000D01*
X184416000Y-135633000D01*
X184383000Y-135661000D01*
X184320000Y-135669000D01*
X184224000Y-135663000D01*
X184136000Y-135638000D01*
X184084000Y-135609000D01*
X184045000Y-135571000D01*
X184017000Y-135514000D01*
X183999000Y-135432000D01*
X183988000Y-135316000D01*
X183983000Y-135159000D01*
X183982000Y-134970000D01*
X183982000Y-134492000D01*
X183897000Y-134492000D01*
X183837000Y-134485000D01*
X183815000Y-134452000D01*
X183812000Y-134407000D01*
X183819000Y-134347000D01*
X183852000Y-134325000D01*
X183897000Y-134322000D01*
X183946000Y-134320000D01*
X183971000Y-134302000D01*
X183980000Y-134256000D01*
X183982000Y-134169000D01*
X183984000Y-134074000D01*
X183997000Y-134021000D01*
X184031000Y-133993000D01*
X184097000Y-133974000D01*
X184116000Y-133970000D01*
X184207000Y-133951000D01*
X184207000Y-134322000D01*
%TA.AperFunction,EtchedComponent*%
G36*
X184207000Y-134322000D02*
G01*
X184320000Y-134322000D01*
X184393000Y-134326000D01*
X184425000Y-134344000D01*
X184433000Y-134389000D01*
X184433000Y-134407000D01*
X184429000Y-134461000D01*
X184405000Y-134485000D01*
X184345000Y-134491000D01*
X184320000Y-134492000D01*
X184207000Y-134492000D01*
X184207000Y-134923000D01*
X184210000Y-135116000D01*
X184217000Y-135260000D01*
X184231000Y-135361000D01*
X184255000Y-135426000D01*
X184290000Y-135463000D01*
X184339000Y-135478000D01*
X184366000Y-135479000D01*
X184414000Y-135486000D01*
X184430000Y-135518000D01*
X184428000Y-135571000D01*
X184416000Y-135633000D01*
X184383000Y-135661000D01*
X184320000Y-135669000D01*
X184224000Y-135663000D01*
X184136000Y-135638000D01*
X184084000Y-135609000D01*
X184045000Y-135571000D01*
X184017000Y-135514000D01*
X183999000Y-135432000D01*
X183988000Y-135316000D01*
X183983000Y-135159000D01*
X183982000Y-134970000D01*
X183982000Y-134492000D01*
X183897000Y-134492000D01*
X183837000Y-134485000D01*
X183815000Y-134452000D01*
X183812000Y-134407000D01*
X183819000Y-134347000D01*
X183852000Y-134325000D01*
X183897000Y-134322000D01*
X183946000Y-134320000D01*
X183971000Y-134302000D01*
X183980000Y-134256000D01*
X183982000Y-134169000D01*
X183984000Y-134074000D01*
X183997000Y-134021000D01*
X184031000Y-133993000D01*
X184097000Y-133974000D01*
X184116000Y-133970000D01*
X184207000Y-133951000D01*
X184207000Y-134322000D01*
G37*
%TD.AperFunction*%
X186053000Y-134328000D02*
X186181000Y-134402000D01*
X186260000Y-134489000D01*
X186283000Y-134525000D01*
X186299000Y-134563000D01*
X186310000Y-134612000D01*
X186318000Y-134680000D01*
X186322000Y-134778000D01*
X186324000Y-134912000D01*
X186324000Y-135093000D01*
X186324000Y-135117000D01*
X186324000Y-135649000D01*
X186070000Y-135649000D01*
X186070000Y-135139000D01*
X186069000Y-134972000D01*
X186065000Y-134822000D01*
X186059000Y-134699000D01*
X186051000Y-134614000D01*
X186043000Y-134578000D01*
X185979000Y-134513000D01*
X185885000Y-134479000D01*
X185780000Y-134478000D01*
X185680000Y-134512000D01*
X185640000Y-134540000D01*
X185622000Y-134562000D01*
X185609000Y-134595000D01*
X185601000Y-134647000D01*
X185595000Y-134728000D01*
X185592000Y-134845000D01*
X185591000Y-135005000D01*
X185590000Y-135117000D01*
X185590000Y-135649000D01*
X185336000Y-135649000D01*
X185336000Y-135133000D01*
X185335000Y-134930000D01*
X185331000Y-134775000D01*
X185321000Y-134663000D01*
X185305000Y-134585000D01*
X185279000Y-134534000D01*
X185242000Y-134503000D01*
X185192000Y-134483000D01*
X185166000Y-134477000D01*
X185080000Y-134470000D01*
X184982000Y-134476000D01*
X184969000Y-134477000D01*
X184857000Y-134496000D01*
X184857000Y-135649000D01*
X184603000Y-135649000D01*
X184603000Y-134380000D01*
X184761000Y-134334000D01*
X184906000Y-134305000D01*
X185058000Y-134296000D01*
X185203000Y-134307000D01*
X185322000Y-134335000D01*
X185382000Y-134366000D01*
X185458000Y-134423000D01*
X185585000Y-134358000D01*
X185744000Y-134304000D01*
X185903000Y-134295000D01*
X186053000Y-134328000D01*
%TA.AperFunction,EtchedComponent*%
G36*
X186053000Y-134328000D02*
G01*
X186181000Y-134402000D01*
X186260000Y-134489000D01*
X186283000Y-134525000D01*
X186299000Y-134563000D01*
X186310000Y-134612000D01*
X186318000Y-134680000D01*
X186322000Y-134778000D01*
X186324000Y-134912000D01*
X186324000Y-135093000D01*
X186324000Y-135117000D01*
X186324000Y-135649000D01*
X186070000Y-135649000D01*
X186070000Y-135139000D01*
X186069000Y-134972000D01*
X186065000Y-134822000D01*
X186059000Y-134699000D01*
X186051000Y-134614000D01*
X186043000Y-134578000D01*
X185979000Y-134513000D01*
X185885000Y-134479000D01*
X185780000Y-134478000D01*
X185680000Y-134512000D01*
X185640000Y-134540000D01*
X185622000Y-134562000D01*
X185609000Y-134595000D01*
X185601000Y-134647000D01*
X185595000Y-134728000D01*
X185592000Y-134845000D01*
X185591000Y-135005000D01*
X185590000Y-135117000D01*
X185590000Y-135649000D01*
X185336000Y-135649000D01*
X185336000Y-135133000D01*
X185335000Y-134930000D01*
X185331000Y-134775000D01*
X185321000Y-134663000D01*
X185305000Y-134585000D01*
X185279000Y-134534000D01*
X185242000Y-134503000D01*
X185192000Y-134483000D01*
X185166000Y-134477000D01*
X185080000Y-134470000D01*
X184982000Y-134476000D01*
X184969000Y-134477000D01*
X184857000Y-134496000D01*
X184857000Y-135649000D01*
X184603000Y-135649000D01*
X184603000Y-134380000D01*
X184761000Y-134334000D01*
X184906000Y-134305000D01*
X185058000Y-134296000D01*
X185203000Y-134307000D01*
X185322000Y-134335000D01*
X185382000Y-134366000D01*
X185458000Y-134423000D01*
X185585000Y-134358000D01*
X185744000Y-134304000D01*
X185903000Y-134295000D01*
X186053000Y-134328000D01*
G37*
%TD.AperFunction*%
X189291000Y-134320000D02*
X189431000Y-134395000D01*
X189541000Y-134513000D01*
X189569000Y-134561000D01*
X189603000Y-134635000D01*
X189624000Y-134706000D01*
X189635000Y-134791000D01*
X189640000Y-134906000D01*
X189640000Y-134985000D01*
X189638000Y-135125000D01*
X189630000Y-135227000D01*
X189614000Y-135305000D01*
X189586000Y-135377000D01*
X189574000Y-135401000D01*
X189494000Y-135529000D01*
X189396000Y-135612000D01*
X189268000Y-135657000D01*
X189147000Y-135671000D01*
X189033000Y-135672000D01*
X188953000Y-135660000D01*
X188884000Y-135630000D01*
X188865000Y-135618000D01*
X188758000Y-135538000D01*
X188682000Y-135444000D01*
X188633000Y-135326000D01*
X188607000Y-135175000D01*
X188600000Y-135019000D01*
X188841000Y-135019000D01*
X188857000Y-135168000D01*
X188891000Y-135300000D01*
X188939000Y-135403000D01*
X188999000Y-135463000D01*
X189081000Y-135499000D01*
X189149000Y-135500000D01*
X189228000Y-135466000D01*
X189297000Y-135414000D01*
X189344000Y-135334000D01*
X189372000Y-135218000D01*
X189385000Y-135058000D01*
X189386000Y-134971000D01*
X189379000Y-134796000D01*
X189357000Y-134668000D01*
X189316000Y-134578000D01*
X189253000Y-134517000D01*
X189204000Y-134492000D01*
X189097000Y-134475000D01*
X188997000Y-134509000D01*
X188917000Y-134587000D01*
X188903000Y-134612000D01*
X188862000Y-134728000D01*
X188842000Y-134869000D01*
X188841000Y-135019000D01*
X188600000Y-135019000D01*
X188599000Y-134985000D01*
X188600000Y-134845000D01*
X188607000Y-134745000D01*
X188623000Y-134671000D01*
X188649000Y-134607000D01*
X188657000Y-134590000D01*
X188757000Y-134445000D01*
X188877000Y-134350000D01*
X189022000Y-134302000D01*
X189128000Y-134294000D01*
X189291000Y-134320000D01*
%TA.AperFunction,EtchedComponent*%
G36*
X189291000Y-134320000D02*
G01*
X189431000Y-134395000D01*
X189541000Y-134513000D01*
X189569000Y-134561000D01*
X189603000Y-134635000D01*
X189624000Y-134706000D01*
X189635000Y-134791000D01*
X189640000Y-134906000D01*
X189640000Y-134985000D01*
X189638000Y-135125000D01*
X189630000Y-135227000D01*
X189614000Y-135305000D01*
X189586000Y-135377000D01*
X189574000Y-135401000D01*
X189494000Y-135529000D01*
X189396000Y-135612000D01*
X189268000Y-135657000D01*
X189147000Y-135671000D01*
X189033000Y-135672000D01*
X188953000Y-135660000D01*
X188884000Y-135630000D01*
X188865000Y-135618000D01*
X188758000Y-135538000D01*
X188682000Y-135444000D01*
X188633000Y-135326000D01*
X188607000Y-135175000D01*
X188600000Y-135019000D01*
X188841000Y-135019000D01*
X188857000Y-135168000D01*
X188891000Y-135300000D01*
X188939000Y-135403000D01*
X188999000Y-135463000D01*
X189081000Y-135499000D01*
X189149000Y-135500000D01*
X189228000Y-135466000D01*
X189297000Y-135414000D01*
X189344000Y-135334000D01*
X189372000Y-135218000D01*
X189385000Y-135058000D01*
X189386000Y-134971000D01*
X189379000Y-134796000D01*
X189357000Y-134668000D01*
X189316000Y-134578000D01*
X189253000Y-134517000D01*
X189204000Y-134492000D01*
X189097000Y-134475000D01*
X188997000Y-134509000D01*
X188917000Y-134587000D01*
X188903000Y-134612000D01*
X188862000Y-134728000D01*
X188842000Y-134869000D01*
X188841000Y-135019000D01*
X188600000Y-135019000D01*
X188599000Y-134985000D01*
X188600000Y-134845000D01*
X188607000Y-134745000D01*
X188623000Y-134671000D01*
X188649000Y-134607000D01*
X188657000Y-134590000D01*
X188757000Y-134445000D01*
X188877000Y-134350000D01*
X189022000Y-134302000D01*
X189128000Y-134294000D01*
X189291000Y-134320000D01*
G37*
%TD.AperFunction*%
X182122000Y-134311000D02*
X182206000Y-134321000D01*
X182267000Y-134341000D01*
X182307000Y-134367000D01*
X182362000Y-134412000D01*
X182404000Y-134462000D01*
X182434000Y-134524000D01*
X182454000Y-134608000D01*
X182468000Y-134722000D01*
X182476000Y-134875000D01*
X182481000Y-135075000D01*
X182481000Y-135086000D01*
X182490000Y-135581000D01*
X182411000Y-135619000D01*
X182346000Y-135638000D01*
X182244000Y-135655000D01*
X182122000Y-135666000D01*
X182077000Y-135669000D01*
X181942000Y-135672000D01*
X181848000Y-135667000D01*
X181778000Y-135652000D01*
X181726000Y-135629000D01*
X181608000Y-135544000D01*
X181539000Y-135435000D01*
X181513000Y-135293000D01*
X181513000Y-135286000D01*
X181752000Y-135286000D01*
X181774000Y-135392000D01*
X181839000Y-135463000D01*
X181949000Y-135498000D01*
X182061000Y-135502000D01*
X182218000Y-135493000D01*
X182234000Y-134920000D01*
X182117000Y-134947000D01*
X181952000Y-134999000D01*
X181838000Y-135073000D01*
X181772000Y-135170000D01*
X181752000Y-135286000D01*
X181513000Y-135286000D01*
X181512000Y-135268000D01*
X181536000Y-135121000D01*
X181606000Y-135001000D01*
X181726000Y-134906000D01*
X181895000Y-134836000D01*
X182056000Y-134799000D01*
X182152000Y-134780000D01*
X182205000Y-134761000D01*
X182228000Y-134735000D01*
X182232000Y-134698000D01*
X182209000Y-134593000D01*
X182144000Y-134520000D01*
X182041000Y-134483000D01*
X181906000Y-134483000D01*
X181809000Y-134503000D01*
X181719000Y-134525000D01*
X181667000Y-134531000D01*
X181636000Y-134518000D01*
X181618000Y-134499000D01*
X181589000Y-134445000D01*
X181583000Y-134419000D01*
X181609000Y-134379000D01*
X181683000Y-134345000D01*
X181796000Y-134321000D01*
X181937000Y-134309000D01*
X181997000Y-134308000D01*
X182122000Y-134311000D01*
%TA.AperFunction,EtchedComponent*%
G36*
X182122000Y-134311000D02*
G01*
X182206000Y-134321000D01*
X182267000Y-134341000D01*
X182307000Y-134367000D01*
X182362000Y-134412000D01*
X182404000Y-134462000D01*
X182434000Y-134524000D01*
X182454000Y-134608000D01*
X182468000Y-134722000D01*
X182476000Y-134875000D01*
X182481000Y-135075000D01*
X182481000Y-135086000D01*
X182490000Y-135581000D01*
X182411000Y-135619000D01*
X182346000Y-135638000D01*
X182244000Y-135655000D01*
X182122000Y-135666000D01*
X182077000Y-135669000D01*
X181942000Y-135672000D01*
X181848000Y-135667000D01*
X181778000Y-135652000D01*
X181726000Y-135629000D01*
X181608000Y-135544000D01*
X181539000Y-135435000D01*
X181513000Y-135293000D01*
X181513000Y-135286000D01*
X181752000Y-135286000D01*
X181774000Y-135392000D01*
X181839000Y-135463000D01*
X181949000Y-135498000D01*
X182061000Y-135502000D01*
X182218000Y-135493000D01*
X182234000Y-134920000D01*
X182117000Y-134947000D01*
X181952000Y-134999000D01*
X181838000Y-135073000D01*
X181772000Y-135170000D01*
X181752000Y-135286000D01*
X181513000Y-135286000D01*
X181512000Y-135268000D01*
X181536000Y-135121000D01*
X181606000Y-135001000D01*
X181726000Y-134906000D01*
X181895000Y-134836000D01*
X182056000Y-134799000D01*
X182152000Y-134780000D01*
X182205000Y-134761000D01*
X182228000Y-134735000D01*
X182232000Y-134698000D01*
X182209000Y-134593000D01*
X182144000Y-134520000D01*
X182041000Y-134483000D01*
X181906000Y-134483000D01*
X181809000Y-134503000D01*
X181719000Y-134525000D01*
X181667000Y-134531000D01*
X181636000Y-134518000D01*
X181618000Y-134499000D01*
X181589000Y-134445000D01*
X181583000Y-134419000D01*
X181609000Y-134379000D01*
X181683000Y-134345000D01*
X181796000Y-134321000D01*
X181937000Y-134309000D01*
X181997000Y-134308000D01*
X182122000Y-134311000D01*
G37*
%TD.AperFunction*%
X179522000Y-133094000D02*
X179607000Y-133131000D01*
X179718000Y-133187000D01*
X179843000Y-133256000D01*
X179863000Y-133267000D01*
X180005000Y-133349000D01*
X180179000Y-133448000D01*
X180364000Y-133554000D01*
X180544000Y-133656000D01*
X180609000Y-133694000D01*
X180752000Y-133776000D01*
X180880000Y-133854000D01*
X180985000Y-133920000D01*
X181056000Y-133968000D01*
X181082000Y-133990000D01*
X181096000Y-134010000D01*
X181106000Y-134038000D01*
X181115000Y-134082000D01*
X181121000Y-134146000D01*
X181126000Y-134237000D01*
X181129000Y-134361000D01*
X181130000Y-134524000D01*
X181131000Y-134732000D01*
X181131000Y-134968000D01*
X181131000Y-135229000D01*
X181130000Y-135439000D01*
X181127000Y-135605000D01*
X181123000Y-135730000D01*
X181118000Y-135822000D01*
X181110000Y-135885000D01*
X181101000Y-135926000D01*
X181090000Y-135949000D01*
X181054000Y-135980000D01*
X180976000Y-136034000D01*
X180866000Y-136105000D01*
X180731000Y-136186000D01*
X180581000Y-136274000D01*
X180571000Y-136280000D01*
X180399000Y-136378000D01*
X180224000Y-136478000D01*
X180059000Y-136574000D01*
X179917000Y-136656000D01*
X179830000Y-136707000D01*
X179689000Y-136787000D01*
X179583000Y-136835000D01*
X179504000Y-136858000D01*
X179468000Y-136860000D01*
X179424000Y-136852000D01*
X179359000Y-136828000D01*
X179268000Y-136785000D01*
X179146000Y-136721000D01*
X178988000Y-136633000D01*
X178791000Y-136519000D01*
X178648000Y-136436000D01*
X178463000Y-136326000D01*
X178292000Y-136224000D01*
X178141000Y-136133000D01*
X178018000Y-136056000D01*
X177929000Y-135999000D01*
X177880000Y-135965000D01*
X177875000Y-135960000D01*
X177860000Y-135943000D01*
X177848000Y-135919000D01*
X177839000Y-135883000D01*
X177832000Y-135828000D01*
X177828000Y-135749000D01*
X177824000Y-135640000D01*
X177823000Y-135495000D01*
X177822000Y-135307000D01*
X177822000Y-135071000D01*
X177822000Y-134969000D01*
X178422000Y-134969000D01*
X178424000Y-135145000D01*
X178426000Y-135304000D01*
X178431000Y-135435000D01*
X178436000Y-135530000D01*
X178443000Y-135579000D01*
X178444000Y-135584000D01*
X178475000Y-135609000D01*
X178546000Y-135656000D01*
X178648000Y-135720000D01*
X178772000Y-135795000D01*
X178907000Y-135876000D01*
X179046000Y-135958000D01*
X179179000Y-136034000D01*
X179297000Y-136100000D01*
X179389000Y-136149000D01*
X179448000Y-136178000D01*
X179463000Y-136182000D01*
X179498000Y-136170000D01*
X179574000Y-136132000D01*
X179683000Y-136075000D01*
X179816000Y-136001000D01*
X179965000Y-135916000D01*
X179992000Y-135900000D01*
X180144000Y-135811000D01*
X180279000Y-135727000D01*
X180390000Y-135655000D01*
X180470000Y-135600000D01*
X180509000Y-135566000D01*
X180511000Y-135563000D01*
X180519000Y-135521000D01*
X180526000Y-135432000D01*
X180531000Y-135310000D01*
X180535000Y-135163000D01*
X180538000Y-135004000D01*
X180539000Y-134843000D01*
X180538000Y-134692000D01*
X180535000Y-134560000D01*
X180530000Y-134460000D01*
X180523000Y-134402000D01*
X180522000Y-134396000D01*
X180492000Y-134367000D01*
X180422000Y-134317000D01*
X180320000Y-134251000D01*
X180196000Y-134174000D01*
X180058000Y-134092000D01*
X179917000Y-134011000D01*
X179780000Y-133934000D01*
X179658000Y-133869000D01*
X179559000Y-133819000D01*
X179493000Y-133791000D01*
X179473000Y-133786000D01*
X179433000Y-133800000D01*
X179354000Y-133837000D01*
X179246000Y-133892000D01*
X179117000Y-133961000D01*
X178979000Y-134037000D01*
X178840000Y-134116000D01*
X178710000Y-134192000D01*
X178598000Y-134259000D01*
X178514000Y-134313000D01*
X178471000Y-134344000D01*
X178455000Y-134364000D01*
X178442000Y-134395000D01*
X178433000Y-134445000D01*
X178427000Y-134521000D01*
X178424000Y-134631000D01*
X178423000Y-134783000D01*
X178422000Y-134969000D01*
X177822000Y-134969000D01*
X177822000Y-134968000D01*
X177822000Y-134029000D01*
X177889000Y-133975000D01*
X177946000Y-133935000D01*
X178041000Y-133875000D01*
X178166000Y-133800000D01*
X178314000Y-133712000D01*
X178479000Y-133617000D01*
X178651000Y-133518000D01*
X178825000Y-133420000D01*
X178992000Y-133327000D01*
X179146000Y-133243000D01*
X179278000Y-133173000D01*
X179382000Y-133119000D01*
X179450000Y-133088000D01*
X179473000Y-133080000D01*
X179522000Y-133094000D01*
%TA.AperFunction,EtchedComponent*%
G36*
X179522000Y-133094000D02*
G01*
X179607000Y-133131000D01*
X179718000Y-133187000D01*
X179843000Y-133256000D01*
X179863000Y-133267000D01*
X180005000Y-133349000D01*
X180179000Y-133448000D01*
X180364000Y-133554000D01*
X180544000Y-133656000D01*
X180609000Y-133694000D01*
X180752000Y-133776000D01*
X180880000Y-133854000D01*
X180985000Y-133920000D01*
X181056000Y-133968000D01*
X181082000Y-133990000D01*
X181096000Y-134010000D01*
X181106000Y-134038000D01*
X181115000Y-134082000D01*
X181121000Y-134146000D01*
X181126000Y-134237000D01*
X181129000Y-134361000D01*
X181130000Y-134524000D01*
X181131000Y-134732000D01*
X181131000Y-134968000D01*
X181131000Y-135229000D01*
X181130000Y-135439000D01*
X181127000Y-135605000D01*
X181123000Y-135730000D01*
X181118000Y-135822000D01*
X181110000Y-135885000D01*
X181101000Y-135926000D01*
X181090000Y-135949000D01*
X181054000Y-135980000D01*
X180976000Y-136034000D01*
X180866000Y-136105000D01*
X180731000Y-136186000D01*
X180581000Y-136274000D01*
X180571000Y-136280000D01*
X180399000Y-136378000D01*
X180224000Y-136478000D01*
X180059000Y-136574000D01*
X179917000Y-136656000D01*
X179830000Y-136707000D01*
X179689000Y-136787000D01*
X179583000Y-136835000D01*
X179504000Y-136858000D01*
X179468000Y-136860000D01*
X179424000Y-136852000D01*
X179359000Y-136828000D01*
X179268000Y-136785000D01*
X179146000Y-136721000D01*
X178988000Y-136633000D01*
X178791000Y-136519000D01*
X178648000Y-136436000D01*
X178463000Y-136326000D01*
X178292000Y-136224000D01*
X178141000Y-136133000D01*
X178018000Y-136056000D01*
X177929000Y-135999000D01*
X177880000Y-135965000D01*
X177875000Y-135960000D01*
X177860000Y-135943000D01*
X177848000Y-135919000D01*
X177839000Y-135883000D01*
X177832000Y-135828000D01*
X177828000Y-135749000D01*
X177824000Y-135640000D01*
X177823000Y-135495000D01*
X177822000Y-135307000D01*
X177822000Y-135071000D01*
X177822000Y-134969000D01*
X178422000Y-134969000D01*
X178424000Y-135145000D01*
X178426000Y-135304000D01*
X178431000Y-135435000D01*
X178436000Y-135530000D01*
X178443000Y-135579000D01*
X178444000Y-135584000D01*
X178475000Y-135609000D01*
X178546000Y-135656000D01*
X178648000Y-135720000D01*
X178772000Y-135795000D01*
X178907000Y-135876000D01*
X179046000Y-135958000D01*
X179179000Y-136034000D01*
X179297000Y-136100000D01*
X179389000Y-136149000D01*
X179448000Y-136178000D01*
X179463000Y-136182000D01*
X179498000Y-136170000D01*
X179574000Y-136132000D01*
X179683000Y-136075000D01*
X179816000Y-136001000D01*
X179965000Y-135916000D01*
X179992000Y-135900000D01*
X180144000Y-135811000D01*
X180279000Y-135727000D01*
X180390000Y-135655000D01*
X180470000Y-135600000D01*
X180509000Y-135566000D01*
X180511000Y-135563000D01*
X180519000Y-135521000D01*
X180526000Y-135432000D01*
X180531000Y-135310000D01*
X180535000Y-135163000D01*
X180538000Y-135004000D01*
X180539000Y-134843000D01*
X180538000Y-134692000D01*
X180535000Y-134560000D01*
X180530000Y-134460000D01*
X180523000Y-134402000D01*
X180522000Y-134396000D01*
X180492000Y-134367000D01*
X180422000Y-134317000D01*
X180320000Y-134251000D01*
X180196000Y-134174000D01*
X180058000Y-134092000D01*
X179917000Y-134011000D01*
X179780000Y-133934000D01*
X179658000Y-133869000D01*
X179559000Y-133819000D01*
X179493000Y-133791000D01*
X179473000Y-133786000D01*
X179433000Y-133800000D01*
X179354000Y-133837000D01*
X179246000Y-133892000D01*
X179117000Y-133961000D01*
X178979000Y-134037000D01*
X178840000Y-134116000D01*
X178710000Y-134192000D01*
X178598000Y-134259000D01*
X178514000Y-134313000D01*
X178471000Y-134344000D01*
X178455000Y-134364000D01*
X178442000Y-134395000D01*
X178433000Y-134445000D01*
X178427000Y-134521000D01*
X178424000Y-134631000D01*
X178423000Y-134783000D01*
X178422000Y-134969000D01*
X177822000Y-134969000D01*
X177822000Y-134968000D01*
X177822000Y-134029000D01*
X177889000Y-133975000D01*
X177946000Y-133935000D01*
X178041000Y-133875000D01*
X178166000Y-133800000D01*
X178314000Y-133712000D01*
X178479000Y-133617000D01*
X178651000Y-133518000D01*
X178825000Y-133420000D01*
X178992000Y-133327000D01*
X179146000Y-133243000D01*
X179278000Y-133173000D01*
X179382000Y-133119000D01*
X179450000Y-133088000D01*
X179473000Y-133080000D01*
X179522000Y-133094000D01*
G37*
%TD.AperFunction*%
%TD*%
D13*
%TO.P,R42,1*%
%TO.N,Net-(U8-S)*%
X208456000Y-160214000D03*
%TO.P,R42,2*%
%TO.N,/FTDI/FTDI_MUX_SW*%
X207496000Y-160214000D03*
%TD*%
D14*
%TO.P,REF\u002A\u002A,1*%
%TO.N,N/C*%
X237800000Y-177000000D03*
%TD*%
D15*
%TO.P,U2,1,BOOT*%
%TO.N,Net-(U2-BOOT)*%
X195210000Y-166175000D03*
%TO.P,U2,2,VIN*%
%TO.N,+28V*%
X193940000Y-166175000D03*
%TO.P,U2,3,EN*%
X192670000Y-166175000D03*
%TO.P,U2,4,RT*%
%TO.N,Net-(U2-RT)*%
X191400000Y-166175000D03*
%TO.P,U2,5,FB*%
%TO.N,Net-(U2-FB)*%
X191400000Y-171600000D03*
%TO.P,U2,6,SS*%
%TO.N,Net-(U2-SS)*%
X192670000Y-171600000D03*
%TO.P,U2,7,GND*%
%TO.N,GND*%
X193940000Y-171600000D03*
%TO.P,U2,8,SW*%
%TO.N,Net-(D4-C)*%
X195210000Y-171600000D03*
D16*
%TO.P,U2,9,GND*%
%TO.N,GND*%
X193940000Y-168240000D03*
X192670000Y-168240000D03*
D17*
X193305000Y-168890000D03*
D16*
X193940000Y-169540000D03*
X192670000Y-169540000D03*
%TD*%
D18*
%TO.P,C35,1*%
%TO.N,Net-(C35-Pad1)*%
X144320000Y-130800000D03*
%TO.P,C35,2*%
%TO.N,GND*%
X145280000Y-130800000D03*
%TD*%
D19*
%TO.P,R15,1*%
%TO.N,/main_power_stage/FB2*%
X192350000Y-175050000D03*
%TO.P,R15,2*%
%TO.N,/main_power_stage/FB1*%
X192350000Y-174090000D03*
%TD*%
D20*
%TO.P,U6,1,PP_HV2*%
%TO.N,VBUS*%
X205351000Y-151998000D03*
%TO.P,U6,3,VBUS2*%
%TO.N,/USBPD_output/IN+*%
X206150000Y-151998000D03*
D21*
%TO.P,U6,5,VIN_3V3*%
%TO.N,+3V3*%
X206751000Y-151998000D03*
%TO.P,U6,6,ADCIN1*%
%TO.N,/main_power_stage/PDC_ADCIN1*%
X207151000Y-151998000D03*
%TO.P,U6,7,DRAIN2*%
%TO.N,/USBPD_output/DRAIN2*%
X207549000Y-151998000D03*
%TO.P,U6,8,DRAIN1*%
%TO.N,/USBPD_output/DRAIN1*%
X207951000Y-151998000D03*
%TO.P,U6,9,LDO_3V3*%
%TO.N,/main_power_stage/PDC_LDO_3V3*%
X208349000Y-151998000D03*
%TO.P,U6,10,ADCIN2*%
%TO.N,/main_power_stage/PDC_ADCIN2*%
X208749000Y-151998000D03*
D20*
%TO.P,U6,11,PP_HV1*%
%TO.N,Net-(U6B-PP_HV1)*%
X209351000Y-151998000D03*
%TO.P,U6,13,VBUS1*%
%TO.N,/USBPD_output/IN+*%
X210149000Y-151998000D03*
D22*
%TO.P,U6,15,DRAIN1*%
%TO.N,/USBPD_output/DRAIN1*%
X211101000Y-151248000D03*
%TO.P,U6,16,GPIO0*%
%TO.N,unconnected-(U6A-GPIO0-Pad16)*%
X211101000Y-150849000D03*
%TO.P,U6,17,GPIO1*%
%TO.N,Net-(U6A-GPIO1)*%
X211101000Y-150448000D03*
%TO.P,U6,18,GPIO2*%
%TO.N,unconnected-(U6A-GPIO2-Pad18)*%
X211101000Y-150048000D03*
%TO.P,U6,19,DRAIN1*%
%TO.N,/USBPD_output/DRAIN1*%
X211101000Y-149647000D03*
%TO.P,U6,20,GND*%
%TO.N,GND*%
X211101000Y-149247000D03*
%TO.P,U6,21,I2C3_SCL*%
%TO.N,Net-(U6A-I2C3_SCL)*%
X211101000Y-148849000D03*
%TO.P,U6,22,I2C3_SDA*%
%TO.N,Net-(U6A-I2C3_SDA)*%
X211101000Y-148447000D03*
%TO.P,U6,23,~{I2C3_IRQ}*%
%TO.N,Net-(U6A-~{I2C3_IRQ})*%
X211101000Y-148049000D03*
%TO.P,U6,24,C1_CC1*%
%TO.N,Net-(J3-CC_{1})*%
X211101000Y-147649000D03*
%TO.P,U6,25,PP1_CABLE*%
%TO.N,+5V*%
X211101000Y-147249000D03*
%TO.P,U6,26,C1_CC2*%
%TO.N,Net-(J3-CC_{2})*%
X211101000Y-146847000D03*
%TO.P,U6,27,I2C1_SCL*%
%TO.N,Net-(U6A-I2C1_SCL)*%
X211101000Y-146447000D03*
%TO.P,U6,28,I2C1_SDA*%
%TO.N,Net-(U6A-I2C1_SDA)*%
X211101000Y-146047000D03*
D21*
%TO.P,U6,29,~{I2C1_IRQ}*%
%TO.N,Net-(U6A-~{I2C1_IRQ})*%
X210351000Y-145297000D03*
%TO.P,U6,30,GPIO3*%
%TO.N,unconnected-(U6A-GPIO3-Pad30)*%
X209951000Y-145297000D03*
%TO.P,U6,31,GPIO4*%
%TO.N,unconnected-(U6A-GPIO4-Pad31)*%
X209551000Y-145297000D03*
%TO.P,U6,32,I2C2_SCL*%
%TO.N,Net-(U6A-I2C2_SCL)*%
X209149000Y-145297000D03*
%TO.P,U6,33,I2C2_SDA*%
%TO.N,Net-(U6A-I2C2_SDA)*%
X208749000Y-145297000D03*
%TO.P,U6,34,~{I2C2_IRQ}*%
%TO.N,Net-(U6A-~{I2C2_IRQ})*%
X208349000Y-145297000D03*
%TO.P,U6,35,LDO_1V8*%
%TO.N,/main_power_stage/PDC_LDO_1V8*%
X207951000Y-145297000D03*
%TO.P,U6,36,SPI_POCI*%
%TO.N,Net-(U6A-SPI_POCI)*%
X207549000Y-145297000D03*
%TO.P,U6,37,SPI_PICO*%
%TO.N,Net-(U6A-SPI_PICO)*%
X207151000Y-145297000D03*
%TO.P,U6,38,SPI_CLK*%
%TO.N,/main_power_stage/TPS_SCK*%
X206751000Y-145297000D03*
%TO.P,U6,39,~{SPI_CS}*%
%TO.N,/main_power_stage/TPS_CS*%
X206350000Y-145297000D03*
%TO.P,U6,40,GPIO12*%
%TO.N,/main_power_stage/FB4*%
X205950000Y-145297000D03*
%TO.P,U6,41,GPIO13*%
%TO.N,/main_power_stage/FB3*%
X205549000Y-145297000D03*
%TO.P,U6,42,GPIO14*%
%TO.N,/main_power_stage/FB2*%
X205150000Y-145297000D03*
D22*
%TO.P,U6,43,GPIO15*%
%TO.N,/main_power_stage/FB1*%
X204400000Y-146047000D03*
%TO.P,U6,44,HRESET*%
%TO.N,/main_power_stage/PDC_RESET*%
X204400000Y-146447000D03*
%TO.P,U6,45,GND*%
%TO.N,GND*%
X204400000Y-146847000D03*
%TO.P,U6,46,GND*%
X204400000Y-147249000D03*
%TO.P,U6,47,GND*%
X204400000Y-147649000D03*
%TO.P,U6,48,GPIO16*%
%TO.N,unconnected-(U6A-GPIO16-Pad48)*%
X204400000Y-148049000D03*
%TO.P,U6,49,GPIO17*%
%TO.N,unconnected-(U6A-GPIO17-Pad49)*%
X204400000Y-148447000D03*
%TO.P,U6,50,C1_USB_P*%
%TO.N,unconnected-(U6B-C1_USB_P-Pad50)*%
X204400000Y-148849000D03*
%TO.P,U6,51,GND*%
%TO.N,GND*%
X204400000Y-149247000D03*
%TO.P,U6,52,DRAIN2*%
%TO.N,/USBPD_output/DRAIN2*%
X204400000Y-149647000D03*
%TO.P,U6,53,C1_USB_N*%
%TO.N,unconnected-(U6B-C1_USB_N-Pad53)*%
X204400000Y-150048000D03*
%TO.P,U6,54,GPIO20*%
%TO.N,unconnected-(U6A-GPIO20-Pad54)*%
X204400000Y-150448000D03*
%TO.P,U6,55,GPIO21*%
%TO.N,unconnected-(U6A-GPIO21-Pad55)*%
X204400000Y-150849000D03*
%TO.P,U6,56,DRAIN2*%
%TO.N,/USBPD_output/DRAIN2*%
X204400000Y-151248000D03*
D23*
%TO.P,U6,57,DRAIN2*%
X205424000Y-150998000D03*
X206301000Y-150998000D03*
X207175000Y-150998000D03*
D24*
X206301000Y-150522000D03*
D23*
X205424000Y-150048000D03*
X206301000Y-150048000D03*
X207174000Y-150048000D03*
%TO.P,U6,58,DRAIN1*%
%TO.N,/USBPD_output/DRAIN1*%
X208349000Y-150998000D03*
X209226000Y-150998000D03*
X210101000Y-150998000D03*
D25*
X209226000Y-150522000D03*
D23*
X208349000Y-150048000D03*
X209226000Y-150048000D03*
X210100000Y-150048000D03*
%TO.P,U6,59,GND_EP*%
%TO.N,GND*%
X209073000Y-148799000D03*
X206430000Y-148797000D03*
X207751000Y-148797000D03*
X205247000Y-147599000D03*
X206424000Y-147599000D03*
X209073000Y-147599000D03*
X210247000Y-147599000D03*
X207751000Y-147597000D03*
D26*
X207751000Y-147597000D03*
D23*
X206424000Y-146399000D03*
X207750000Y-146399000D03*
X209073000Y-146399000D03*
%TD*%
D27*
%TO.P,C30,1*%
%TO.N,GND*%
X220412000Y-170040000D03*
%TO.P,C30,2*%
%TO.N,Net-(U5-V_{PHY})*%
X220412000Y-171000000D03*
%TD*%
D28*
%TO.P,C18,1*%
%TO.N,GND*%
X182241667Y-145165000D03*
%TO.P,C18,2*%
%TO.N,+28V*%
X182241667Y-147455000D03*
%TD*%
D19*
%TO.P,C2,1*%
%TO.N,GND*%
X190800000Y-161800000D03*
%TO.P,C2,2*%
%TO.N,Net-(U4-TRIM)*%
X190800000Y-160840000D03*
%TD*%
%TO.P,R50,1*%
%TO.N,Net-(U6A-SPI_PICO)*%
X205050000Y-143899000D03*
%TO.P,R50,2*%
%TO.N,/main_power_stage/TPS_SDO*%
X205050000Y-142939000D03*
%TD*%
%TO.P,C32,1*%
%TO.N,GND*%
X223988000Y-158958000D03*
%TO.P,C32,2*%
%TO.N,Net-(U9-VCC)*%
X223988000Y-157998000D03*
%TD*%
D28*
%TO.P,C19,1*%
%TO.N,GND*%
X178608334Y-145165000D03*
%TO.P,C19,2*%
%TO.N,+28V*%
X178608334Y-147455000D03*
%TD*%
D13*
%TO.P,R19,1*%
%TO.N,GND*%
X219105000Y-170601000D03*
%TO.P,R19,2*%
%TO.N,Net-(U5-REF)*%
X218145000Y-170601000D03*
%TD*%
D29*
%TO.P,U5,1,EECS*%
%TO.N,unconnected-(U5-EECS-Pad1)*%
X216900000Y-173500000D03*
%TO.P,U5,2,V_{CORE}*%
%TO.N,/FTDI/Vcore*%
X216900000Y-173000000D03*
%TO.P,U5,3,OSCI*%
%TO.N,/FTDI/OSCI*%
X216900000Y-172500000D03*
%TO.P,U5,4,OSCO*%
%TO.N,/FTDI/OSCO*%
X216900000Y-172000000D03*
%TO.P,U5,5,V_{PHY}*%
%TO.N,Net-(U5-V_{PHY})*%
X216900000Y-171500000D03*
%TO.P,U5,6,REF*%
%TO.N,Net-(U5-REF)*%
X216900000Y-171000000D03*
%TO.P,U5,7,D-*%
%TO.N,/FTDI/D-*%
X216900000Y-170500000D03*
%TO.P,U5,8,D+*%
%TO.N,/FTDI/D+*%
X216900000Y-170001000D03*
%TO.P,U5,9,V_{PLL}*%
%TO.N,Net-(U5-V_{PLL})*%
X216900000Y-169501000D03*
%TO.P,U5,10,TEST*%
%TO.N,GND*%
X216900000Y-169001000D03*
%TO.P,U5,11,~{RESET}*%
%TO.N,Net-(U5-~{RESET})*%
X216900000Y-168501000D03*
%TO.P,U5,12,ADBUS0*%
%TO.N,Net-(U5-ADBUS0)*%
X216900000Y-168001000D03*
%TO.P,U5,13,ADBUS1*%
%TO.N,Net-(U5-ADBUS1)*%
X216900000Y-167501000D03*
%TO.P,U5,14,ADBUS2*%
%TO.N,Net-(U5-ADBUS2)*%
X216900000Y-167001000D03*
D30*
%TO.P,U5,15,ADBUS3*%
%TO.N,/FTDI/WP1*%
X216212000Y-166313000D03*
%TO.P,U5,16,V_{CCIO}*%
%TO.N,+3V3*%
X215712000Y-166313000D03*
%TO.P,U5,17,ADBUS4*%
%TO.N,unconnected-(U5-ADBUS4-Pad17)*%
X215212000Y-166313000D03*
%TO.P,U5,18,ADBUS5*%
%TO.N,unconnected-(U5-ADBUS5-Pad18)*%
X214712000Y-166313000D03*
%TO.P,U5,19,ADBUS6*%
%TO.N,unconnected-(U5-ADBUS6-Pad19)*%
X214212000Y-166313000D03*
%TO.P,U5,20,ADBUS7*%
%TO.N,unconnected-(U5-ADBUS7-Pad20)*%
X213712000Y-166313000D03*
%TO.P,U5,21,GND*%
%TO.N,GND*%
X213212000Y-166313000D03*
%TO.P,U5,22,BDBUS0*%
%TO.N,/main_power_stage/FTDI_SCK*%
X212713000Y-166313000D03*
%TO.P,U5,23,BDBUS1*%
%TO.N,/main_power_stage/FTDI_SDO*%
X212213000Y-166313000D03*
%TO.P,U5,24,BDBUS2*%
%TO.N,/main_power_stage/FTDI_SDI*%
X211713000Y-166313000D03*
%TO.P,U5,25,BDBUS3*%
%TO.N,/main_power_stage/FTDI_CS*%
X211213000Y-166313000D03*
%TO.P,U5,26,BDBUS4*%
%TO.N,unconnected-(U5-BDBUS4-Pad26)*%
X210713000Y-166313000D03*
%TO.P,U5,27,BDBUS5*%
%TO.N,unconnected-(U5-BDBUS5-Pad27)*%
X210213000Y-166313000D03*
%TO.P,U5,28,BDBUS6*%
%TO.N,unconnected-(U5-BDBUS6-Pad28)*%
X209713000Y-166313000D03*
D29*
%TO.P,U5,29,BDBUS7*%
%TO.N,unconnected-(U5-BDBUS7-Pad29)*%
X209025000Y-167001000D03*
%TO.P,U5,30,~{SUSPEND}*%
%TO.N,unconnected-(U5-~{SUSPEND}-Pad30)*%
X209025000Y-167501000D03*
%TO.P,U5,31,V_{CORE}*%
%TO.N,/FTDI/Vcore*%
X209025000Y-168001000D03*
%TO.P,U5,32,CDBUS0*%
%TO.N,unconnected-(U5-CDBUS0-Pad32)*%
X209025000Y-168501000D03*
%TO.P,U5,33,CDBUS1*%
%TO.N,unconnected-(U5-CDBUS1-Pad33)*%
X209025000Y-169001000D03*
%TO.P,U5,34,CDBUS2*%
%TO.N,/FTDI/FTDI_MUX_SW*%
X209025000Y-169501000D03*
%TO.P,U5,35,CDBUS3*%
%TO.N,unconnected-(U5-CDBUS3-Pad35)*%
X209025000Y-170001000D03*
%TO.P,U5,36,V_{CCIO}*%
%TO.N,+3V3*%
X209025000Y-170500000D03*
%TO.P,U5,37,CDBUS4*%
%TO.N,/FTDI/FTDI_TPS_rst*%
X209025000Y-171000000D03*
%TO.P,U5,38,CDBUS5*%
%TO.N,unconnected-(U5-CDBUS5-Pad38)*%
X209025000Y-171500000D03*
%TO.P,U5,39,CDBUS6*%
%TO.N,unconnected-(U5-CDBUS6-Pad39)*%
X209025000Y-172000000D03*
%TO.P,U5,40,CDBUS7*%
%TO.N,unconnected-(U5-CDBUS7-Pad40)*%
X209025000Y-172500000D03*
%TO.P,U5,41,GND*%
%TO.N,GND*%
X209025000Y-173000000D03*
%TO.P,U5,42,DDBUS0*%
%TO.N,unconnected-(U5-DDBUS0-Pad42)*%
X209025000Y-173500000D03*
D30*
%TO.P,U5,43,V_{REGOUT}*%
%TO.N,/FTDI/Vcore*%
X209713000Y-174188000D03*
%TO.P,U5,44,V_{REGIN}*%
%TO.N,+3V3*%
X210213000Y-174188000D03*
%TO.P,U5,45,GND*%
%TO.N,GND*%
X210713000Y-174188000D03*
%TO.P,U5,46,DDBUS1*%
%TO.N,unconnected-(U5-DDBUS1-Pad46)*%
X211213000Y-174188000D03*
%TO.P,U5,47,DDBUS2*%
%TO.N,unconnected-(U5-DDBUS2-Pad47)*%
X211713000Y-174188000D03*
%TO.P,U5,48,DDBUS3*%
%TO.N,unconnected-(U5-DDBUS3-Pad48)*%
X212213000Y-174188000D03*
%TO.P,U5,49,DDBUS4*%
%TO.N,unconnected-(U5-DDBUS4-Pad49)*%
X212713000Y-174188000D03*
%TO.P,U5,50,V_{CCIO}*%
%TO.N,+3V3*%
X213212000Y-174188000D03*
%TO.P,U5,51,DDBUS5*%
%TO.N,unconnected-(U5-DDBUS5-Pad51)*%
X213712000Y-174188000D03*
%TO.P,U5,52,DDBUS6*%
%TO.N,unconnected-(U5-DDBUS6-Pad52)*%
X214212000Y-174188000D03*
%TO.P,U5,53,DDBUS7*%
%TO.N,unconnected-(U5-DDBUS7-Pad53)*%
X214712000Y-174188000D03*
%TO.P,U5,54,~{PWR_{EN}}*%
%TO.N,unconnected-(U5-~{PWR_{EN}}-Pad54)*%
X215212000Y-174188000D03*
%TO.P,U5,55,EEDATA*%
%TO.N,unconnected-(U5-EEDATA-Pad55)*%
X215712000Y-174188000D03*
%TO.P,U5,56,EECLK*%
%TO.N,unconnected-(U5-EECLK-Pad56)*%
X216212000Y-174188000D03*
D31*
%TO.P,U5,57,GND*%
%TO.N,GND*%
X212962000Y-170250000D03*
%TD*%
D32*
%TO.P,TP8,1,1*%
%TO.N,Net-(U6A-~{I2C1_IRQ})*%
X211424000Y-143899000D03*
%TD*%
%TO.P,TP6,1,1*%
%TO.N,Net-(U6A-I2C3_SDA)*%
X214724000Y-149099000D03*
%TD*%
D28*
%TO.P,C17,1*%
%TO.N,GND*%
X185875000Y-145155000D03*
%TO.P,C17,2*%
%TO.N,+28V*%
X185875000Y-147445000D03*
%TD*%
D33*
%TO.P,J2,1,D1+*%
%TO.N,/PoE_supply/MDI0_P*%
X219829000Y-146405000D03*
%TO.P,J2,2,D1-*%
%TO.N,/PoE_supply/MDI0_N*%
X222370000Y-145135000D03*
%TO.P,J2,3,D2+*%
%TO.N,/PoE_supply/MDI1_P*%
X219829000Y-143865000D03*
%TO.P,J2,4,D3+*%
%TO.N,/PoE_supply/MDI2_P*%
X222370000Y-142595000D03*
%TO.P,J2,5,D3-*%
%TO.N,/PoE_supply/MDI2_N*%
X219829000Y-141325000D03*
%TO.P,J2,6,D2-*%
%TO.N,/PoE_supply/MDI1_N*%
X222370000Y-140054000D03*
%TO.P,J2,7,D4+*%
%TO.N,/PoE_supply/MDI3_P*%
X219829000Y-138785000D03*
%TO.P,J2,8,D4-*%
%TO.N,/PoE_supply/MDI3_N*%
X222370000Y-137514000D03*
%TO.P,J2,9,VCC*%
%TO.N,Net-(J2-VCC)*%
X219829000Y-136245000D03*
%TO.P,J2,10,GND*%
%TO.N,Net-(J2-GND)*%
X222370000Y-134975000D03*
D34*
%TO.P,J2,11,LED1_Y+*%
%TO.N,unconnected-(J2-LED1_Y+-Pad11)*%
X232800000Y-147320000D03*
%TO.P,J2,12,LED1_Y-*%
%TO.N,unconnected-(J2-LED1_Y--Pad12)*%
X232800000Y-144780000D03*
%TO.P,J2,13,LED2_G+*%
%TO.N,unconnected-(J2-LED2_G+-Pad13)*%
X232800000Y-136600000D03*
%TO.P,J2,14,LED2_G-*%
%TO.N,unconnected-(J2-LED2_G--Pad14)*%
X232800000Y-134059000D03*
D35*
%TO.P,J2,SH*%
%TO.N,Net-(C36-Pad1)*%
X225671000Y-148435000D03*
X225671000Y-132943000D03*
%TD*%
D32*
%TO.P,TP3,1,1*%
%TO.N,Net-(U6A-I2C2_SCL)*%
X210424000Y-143899000D03*
%TD*%
D13*
%TO.P,C36,1*%
%TO.N,Net-(C36-Pad1)*%
X222800000Y-131000000D03*
%TO.P,C36,2*%
%TO.N,GND*%
X221840000Y-131000000D03*
%TD*%
D18*
%TO.P,C34,1*%
%TO.N,VBUS*%
X203864000Y-155219000D03*
%TO.P,C34,2*%
%TO.N,GND*%
X204824000Y-155219000D03*
%TD*%
D27*
%TO.P,C21,1*%
%TO.N,GND*%
X196975000Y-149020000D03*
%TO.P,C21,2*%
%TO.N,Net-(U7-SS)*%
X196975000Y-149980000D03*
%TD*%
D13*
%TO.P,R58,1*%
%TO.N,GND*%
X213304000Y-150499000D03*
%TO.P,R58,2*%
%TO.N,Net-(U6A-GPIO1)*%
X212344000Y-150499000D03*
%TD*%
D18*
%TO.P,R55,1*%
%TO.N,Net-(U6A-I2C1_SCL)*%
X212444000Y-146599000D03*
%TO.P,R55,2*%
%TO.N,/FTDI/SDA*%
X213404000Y-146599000D03*
%TD*%
D13*
%TO.P,R24,1*%
%TO.N,GND*%
X190880000Y-153000000D03*
%TO.P,R24,2*%
%TO.N,Net-(U7-RT)*%
X189920000Y-153000000D03*
%TD*%
D36*
%TO.P,U1,1,VDD*%
%TO.N,/PoE_supply/VDD*%
X166373000Y-141339000D03*
%TO.P,U1,2,DEN*%
%TO.N,Net-(U1-DEN)*%
X166373000Y-141988000D03*
%TO.P,U1,3,CLSA*%
%TO.N,/PoE_supply/CLSA*%
X166373000Y-142640000D03*
%TO.P,U1,4,VSSA*%
%TO.N,/PoE_supply/VSS*%
X166373000Y-143290000D03*
%TO.P,U1,5,VSSB*%
X166373000Y-143940000D03*
D37*
%TO.P,U1,6,CLSB*%
%TO.N,/PoE_supply/CLSB*%
X167399000Y-144965000D03*
%TO.P,U1,7,REF*%
%TO.N,Net-(U1-REF)*%
X168048000Y-144965000D03*
%TO.P,U1,8,AMPS_CTL*%
%TO.N,Net-(U1-AMPS_CTL)*%
X168700000Y-144965000D03*
%TO.P,U1,9,MPS_DUTY*%
%TO.N,Net-(U1-MPS_DUTY)*%
X169350000Y-144965000D03*
%TO.P,U1,10,~{AUTCLS}*%
%TO.N,unconnected-(U1-~{AUTCLS}-Pad10)*%
X170000000Y-144965000D03*
D36*
%TO.P,U1,11,RTNA*%
%TO.N,GNDD*%
X171025000Y-143940000D03*
%TO.P,U1,12,RTNB*%
X171025000Y-143290000D03*
%TO.P,U1,13,PG*%
%TO.N,Net-(U1-PG)*%
X171025000Y-142640000D03*
%TO.P,U1,14,NC*%
%TO.N,unconnected-(U1-NC-Pad14)*%
X171025000Y-141988000D03*
%TO.P,U1,15,NC*%
%TO.N,unconnected-(U1-NC-Pad15)*%
X171025000Y-141339000D03*
D37*
%TO.P,U1,16,IRSHDL_EN*%
%TO.N,unconnected-(U1-IRSHDL_EN-Pad16)*%
X170000000Y-140313000D03*
%TO.P,U1,17,TPL*%
%TO.N,unconnected-(U1-TPL-Pad17)*%
X169350000Y-140313000D03*
%TO.P,U1,18,TPH*%
%TO.N,unconnected-(U1-TPH-Pad18)*%
X168700000Y-140313000D03*
%TO.P,U1,19,~{BT}*%
%TO.N,unconnected-(U1-~{BT}-Pad19)*%
X168048000Y-140313000D03*
%TO.P,U1,20,NC*%
%TO.N,unconnected-(U1-NC-Pad20)*%
X167399000Y-140313000D03*
D38*
%TO.P,U1,21,PAD_VSSC*%
%TO.N,/PoE_supply/VSS*%
X168700000Y-142640000D03*
%TD*%
D13*
%TO.P,R48,1*%
%TO.N,GND*%
X224800000Y-131000000D03*
%TO.P,R48,2*%
%TO.N,Net-(C36-Pad1)*%
X223840000Y-131000000D03*
%TD*%
D39*
%TO.P,FB1,1*%
%TO.N,Net-(FB1-Pad1)*%
X233697000Y-161979000D03*
%TO.P,FB1,2*%
%TO.N,GND*%
X232297000Y-161979000D03*
%TD*%
D19*
%TO.P,R16,1*%
%TO.N,/main_power_stage/FB3*%
X193350000Y-175050000D03*
%TO.P,R16,2*%
%TO.N,/main_power_stage/FB2*%
X193350000Y-174090000D03*
%TD*%
D13*
%TO.P,C26,1*%
%TO.N,+3V3*%
X206824000Y-155219000D03*
%TO.P,C26,2*%
%TO.N,GND*%
X205864000Y-155219000D03*
%TD*%
D40*
%TO.P,C5,1*%
%TO.N,GND*%
X195459000Y-154700000D03*
%TO.P,C5,2*%
%TO.N,+28V*%
X193169000Y-154700000D03*
%TD*%
D19*
%TO.P,R6,1*%
%TO.N,/PoE_supply/VSS*%
X170400000Y-147800000D03*
%TO.P,R6,2*%
%TO.N,Net-(U1-MPS_DUTY)*%
X170400000Y-146840000D03*
%TD*%
D18*
%TO.P,R60,1*%
%TO.N,/main_power_stage/FLASH_SDO*%
X214340000Y-160798000D03*
%TO.P,R60,2*%
%TO.N,Net-(U9-SI{slash}IO0)*%
X215300000Y-160798000D03*
%TD*%
D27*
%TO.P,R40,1*%
%TO.N,/USBPD_output/A0*%
X229329000Y-166025000D03*
%TO.P,R40,2*%
%TO.N,/FTDI/SCL*%
X229329000Y-166985000D03*
%TD*%
D41*
%TO.P,C20,1*%
%TO.N,GND*%
X188475000Y-146500000D03*
%TO.P,C20,2*%
%TO.N,+28V*%
X188475000Y-147900000D03*
%TD*%
D19*
%TO.P,R38,1*%
%TO.N,/USBPD_output/A0*%
X230329000Y-165065000D03*
%TO.P,R38,2*%
%TO.N,/FTDI/SDA*%
X230329000Y-164105000D03*
%TD*%
D18*
%TO.P,C29,1*%
%TO.N,GND*%
X216632000Y-175340000D03*
%TO.P,C29,2*%
%TO.N,/FTDI/Vcore*%
X217592000Y-175340000D03*
%TD*%
D14*
%TO.P,REF\u002A\u002A,1*%
%TO.N,N/C*%
X131500000Y-176800000D03*
%TD*%
D40*
%TO.P,C3,1*%
%TO.N,GND*%
X195389000Y-162000000D03*
%TO.P,C3,2*%
%TO.N,+28V*%
X193099000Y-162000000D03*
%TD*%
D42*
%TO.P,D6,1,1*%
%TO.N,Net-(U9-VCC)*%
X225188000Y-157897000D03*
%TO.P,D6,2,2*%
%TO.N,/main_power_stage/PDC_LDO_3V3*%
X225188000Y-159297000D03*
%TD*%
D32*
%TO.P,TP2,1,1*%
%TO.N,Net-(U6A-~{I2C2_IRQ})*%
X208424000Y-143899000D03*
%TD*%
D19*
%TO.P,R9,1*%
%TO.N,GND*%
X189800000Y-167480000D03*
%TO.P,R9,2*%
%TO.N,Net-(U2-RT)*%
X189800000Y-166520000D03*
%TD*%
D43*
%TO.P,L2,1*%
%TO.N,Net-(D5-C)*%
X196008334Y-143250000D03*
%TO.P,L2,2*%
%TO.N,+3V3*%
X196008334Y-139750000D03*
%TD*%
D18*
%TO.P,R46,1*%
%TO.N,GND*%
X140020000Y-130800000D03*
%TO.P,R46,2*%
%TO.N,Net-(C35-Pad1)*%
X140980000Y-130800000D03*
%TD*%
D44*
%TO.P,D1,1,1*%
%TO.N,/PoE_supply/VSS*%
X158800000Y-137560000D03*
%TO.P,D1,2,2*%
%TO.N,/PoE_supply/VDD*%
X158800000Y-140100000D03*
%TO.P,D1,3,3*%
%TO.N,/PoE_supply/VC1*%
X155100000Y-137560000D03*
%TO.P,D1,4,4*%
%TO.N,/PoE_supply/VC2*%
X155100000Y-140100000D03*
%TD*%
D27*
%TO.P,R2,1*%
%TO.N,/PoE_supply/VDD*%
X165200000Y-140860000D03*
%TO.P,R2,2*%
%TO.N,Net-(U1-DEN)*%
X165200000Y-141820000D03*
%TD*%
D13*
%TO.P,R28,1*%
%TO.N,/main_power_stage/PDC_LDO_3V3*%
X208824000Y-154199000D03*
%TO.P,R28,2*%
%TO.N,/main_power_stage/PDC_ADCIN1*%
X207864000Y-154199000D03*
%TD*%
D19*
%TO.P,R37,1*%
%TO.N,/USBPD_output/A0*%
X229329000Y-165065000D03*
%TO.P,R37,2*%
%TO.N,+3V3*%
X229329000Y-164105000D03*
%TD*%
D14*
%TO.P,REF\u002A\u002A,1*%
%TO.N,N/C*%
X237800000Y-128400000D03*
%TD*%
D27*
%TO.P,C14,1*%
%TO.N,GND*%
X220412000Y-168001000D03*
%TO.P,C14,2*%
%TO.N,Net-(U5-V_{PLL})*%
X220412000Y-168961000D03*
%TD*%
D39*
%TO.P,C8,1*%
%TO.N,Net-(D4-C)*%
X198300000Y-166200000D03*
%TO.P,C8,2*%
%TO.N,Net-(U2-BOOT)*%
X196900000Y-166200000D03*
%TD*%
D45*
%TO.P,C23,1*%
%TO.N,GND*%
X192108334Y-143000000D03*
%TO.P,C23,2*%
%TO.N,+3V3*%
X192108334Y-140000000D03*
%TD*%
D27*
%TO.P,R45,1*%
%TO.N,Net-(U6B-PP_HV1)*%
X212824000Y-154139000D03*
%TO.P,R45,2*%
%TO.N,GND*%
X212824000Y-155099000D03*
%TD*%
D46*
%TO.P,C9,1*%
%TO.N,GND*%
X199799000Y-165100000D03*
%TO.P,C9,2*%
%TO.N,VBUS*%
X202799000Y-165100000D03*
%TD*%
D47*
%TO.P,D4,1,C*%
%TO.N,Net-(D4-C)*%
X198600000Y-173800000D03*
D48*
%TO.P,D4,2,A*%
%TO.N,GND*%
X199540000Y-169838000D03*
D49*
X197659000Y-169838000D03*
%TD*%
D14*
%TO.P,REF\u002A\u002A,1*%
%TO.N,N/C*%
X131500000Y-128400000D03*
%TD*%
D50*
%TO.P,Y1,1*%
%TO.N,/FTDI/OSCO*%
X220012000Y-172640000D03*
D51*
%TO.P,Y1,2,SH*%
%TO.N,GND*%
X220012000Y-174940000D03*
%TO.P,Y1,3*%
%TO.N,/FTDI/OSCI*%
X221811000Y-174940000D03*
%TO.P,Y1,4,SH*%
%TO.N,GND*%
X221811000Y-172640000D03*
%TD*%
D13*
%TO.P,C15,1*%
%TO.N,GND*%
X213404000Y-147599000D03*
%TO.P,C15,2*%
%TO.N,+5V*%
X212444000Y-147599000D03*
%TD*%
D27*
%TO.P,C13,1*%
%TO.N,GND*%
X221412000Y-170020000D03*
%TO.P,C13,2*%
%TO.N,Net-(U5-V_{PHY})*%
X221412000Y-170980000D03*
%TD*%
D18*
%TO.P,R47,1*%
%TO.N,GND*%
X219840000Y-131000000D03*
%TO.P,R47,2*%
%TO.N,Net-(J2-GND)*%
X220800000Y-131000000D03*
%TD*%
D41*
%TO.P,R11,1*%
%TO.N,+28V*%
X189600000Y-158100000D03*
%TO.P,R11,2*%
%TO.N,Net-(U4-TRIM)*%
X189600000Y-159500000D03*
%TD*%
D52*
%TO.P,R3,1*%
%TO.N,Net-(U6B-PP_HV1)*%
X202704000Y-155799000D03*
%TO.P,R3,2*%
%TO.N,VBUS*%
X202704000Y-154399000D03*
%TD*%
%TO.P,R1,1*%
%TO.N,/PoE_supply/VSS*%
X169200000Y-147920000D03*
%TO.P,R1,2*%
%TO.N,Net-(U1-AMPS_CTL)*%
X169200000Y-146520000D03*
%TD*%
D18*
%TO.P,C25,1*%
%TO.N,GND*%
X205864000Y-154219000D03*
%TO.P,C25,2*%
%TO.N,+3V3*%
X206824000Y-154219000D03*
%TD*%
D19*
%TO.P,R21,1*%
%TO.N,Net-(U5-ADBUS1)*%
X218325000Y-166881000D03*
%TO.P,R21,2*%
%TO.N,Net-(U5-ADBUS2)*%
X218325000Y-165921000D03*
%TD*%
%TO.P,R31,1*%
%TO.N,GND*%
X211824000Y-155119000D03*
%TO.P,R31,2*%
%TO.N,/main_power_stage/PDC_ADCIN2*%
X211824000Y-154159000D03*
%TD*%
%TO.P,R26,1*%
%TO.N,GND*%
X197000000Y-152000000D03*
%TO.P,R26,2*%
%TO.N,Net-(U7-FB)*%
X197000000Y-151040000D03*
%TD*%
D32*
%TO.P,TP7,1,1*%
%TO.N,Net-(U6A-~{I2C3_IRQ})*%
X214724000Y-148099000D03*
%TD*%
D19*
%TO.P,R34,1*%
%TO.N,/USBPD_output/A1*%
X228229000Y-165065000D03*
%TO.P,R34,2*%
%TO.N,/FTDI/SDA*%
X228229000Y-164105000D03*
%TD*%
%TO.P,R43,1*%
%TO.N,GND*%
X208400000Y-162194000D03*
%TO.P,R43,2*%
%TO.N,Net-(U8-S)*%
X208400000Y-161234000D03*
%TD*%
D27*
%TO.P,R36,1*%
%TO.N,/USBPD_output/A1*%
X228229000Y-166085000D03*
%TO.P,R36,2*%
%TO.N,/FTDI/SCL*%
X228229000Y-167045000D03*
%TD*%
D13*
%TO.P,C33,1*%
%TO.N,GND*%
X204824000Y-154219000D03*
%TO.P,C33,2*%
%TO.N,VBUS*%
X203864000Y-154219000D03*
%TD*%
D27*
%TO.P,R25,1*%
%TO.N,Net-(U7-FB)*%
X198000000Y-151040000D03*
%TO.P,R25,2*%
%TO.N,+3V3*%
X198000000Y-152000000D03*
%TD*%
D19*
%TO.P,R44,1*%
%TO.N,Net-(U6A-SPI_POCI)*%
X206050000Y-143899000D03*
%TO.P,R44,2*%
%TO.N,/main_power_stage/TPS_SDI*%
X206050000Y-142939000D03*
%TD*%
D53*
%TO.P,SW1,1*%
%TO.N,/main_power_stage/PDC_LDO_3V3*%
X208100000Y-138200000D03*
%TO.P,SW1,2*%
%TO.N,Net-(R59-Pad2)*%
X206350000Y-140499000D03*
%TO.P,SW1,3*%
%TO.N,GND*%
X204601000Y-138200000D03*
%TD*%
D18*
%TO.P,R10,1*%
%TO.N,GNDD*%
X172540000Y-144148000D03*
%TO.P,R10,2*%
%TO.N,Net-(Q1-G)*%
X173500000Y-144148000D03*
%TD*%
D27*
%TO.P,C11,1*%
%TO.N,GND*%
X221412000Y-167981000D03*
%TO.P,C11,2*%
%TO.N,Net-(U5-V_{PLL})*%
X221412000Y-168941000D03*
%TD*%
D52*
%TO.P,R64,1*%
%TO.N,/PoE_supply/VSS*%
X166800000Y-147860000D03*
%TO.P,R64,2*%
%TO.N,/PoE_supply/CLSB*%
X166800000Y-146460000D03*
%TD*%
D46*
%TO.P,C10,1*%
%TO.N,GND*%
X199799000Y-167600000D03*
%TO.P,C10,2*%
%TO.N,VBUS*%
X202799000Y-167600000D03*
%TD*%
D54*
%TO.P,C39,1*%
%TO.N,VBUS*%
X204399000Y-160300000D03*
%TO.P,C39,2*%
%TO.N,GND*%
X198801000Y-160300000D03*
%TD*%
D55*
%TO.P,Q1,1,G*%
%TO.N,Net-(Q1-G)*%
X173400000Y-146198000D03*
%TO.P,Q1,2,S*%
%TO.N,GNDD*%
X172402000Y-146198000D03*
%TO.P,Q1,3,D*%
%TO.N,Net-(Q1-D)*%
X172900000Y-147500000D03*
%TD*%
D56*
%TO.P,D5,1,C*%
%TO.N,Net-(D5-C)*%
X195833334Y-145301000D03*
%TO.P,D5,2,A*%
%TO.N,GND*%
X192583334Y-145301000D03*
%TD*%
D57*
%TO.P,J1,1,P1*%
%TO.N,/PoE_supply/MDI0_P*%
X148434000Y-133903000D03*
%TO.P,J1,2,P2*%
%TO.N,/PoE_supply/MDI0_N*%
X145895000Y-135172000D03*
%TO.P,J1,3,P3*%
%TO.N,/PoE_supply/MDI1_P*%
X148434000Y-136442000D03*
%TO.P,J1,4,P4*%
%TO.N,/PoE_supply/P4*%
X145895000Y-137712000D03*
%TO.P,J1,5,P5*%
X148434000Y-138981000D03*
%TO.P,J1,6,P6*%
%TO.N,/PoE_supply/MDI1_N*%
X145895000Y-140252000D03*
%TO.P,J1,7,P7*%
%TO.N,/PoE_supply/MDI2_P*%
X148434000Y-141521000D03*
%TO.P,J1,8,P8*%
%TO.N,/PoE_supply/MDI2_N*%
X145895000Y-142793000D03*
%TO.P,J1,9,P9*%
%TO.N,/PoE_supply/MDI3_P*%
X148434000Y-144062000D03*
%TO.P,J1,10,P10*%
%TO.N,/PoE_supply/MDI3_N*%
X145895000Y-145332000D03*
%TO.P,J1,11,VC1*%
%TO.N,/PoE_supply/VC1*%
X143356000Y-133903000D03*
%TO.P,J1,12,VC2*%
%TO.N,/PoE_supply/VC2*%
X142095000Y-136442000D03*
%TO.P,J1,13,VC3*%
%TO.N,/PoE_supply/VC3*%
X142095000Y-142793000D03*
%TO.P,J1,14,VC4*%
%TO.N,/PoE_supply/VC4*%
X143364000Y-145332000D03*
D58*
%TO.P,J1,15,LED_GRN+*%
%TO.N,unconnected-(J1-LED_GRN+-Pad15)*%
X135476000Y-132976000D03*
%TO.P,J1,16,LED_GRN-*%
%TO.N,unconnected-(J1-LED_GRN--Pad16)*%
X135476000Y-135517000D03*
%TO.P,J1,17,LED_YEL+*%
%TO.N,unconnected-(J1-LED_YEL+-Pad17)*%
X135476000Y-143717000D03*
%TO.P,J1,18,LED_YEL-*%
%TO.N,unconnected-(J1-LED_YEL--Pad18)*%
X135476000Y-146258000D03*
D59*
%TO.P,J1,19,SHIELD*%
%TO.N,Net-(C35-Pad1)*%
X142584000Y-131767000D03*
D60*
%TO.P,J1,20,SHIELD*%
X142584000Y-147466000D03*
%TD*%
D61*
%TO.P,C1,1*%
%TO.N,/PoE_supply/VSS*%
X163300000Y-143900000D03*
%TO.P,C1,2*%
%TO.N,/PoE_supply/VDD*%
X163300000Y-141700000D03*
%TD*%
D18*
%TO.P,R59,1*%
%TO.N,/main_power_stage/TPS_SDI*%
X206070000Y-141899000D03*
%TO.P,R59,2*%
%TO.N,Net-(R59-Pad2)*%
X207030000Y-141899000D03*
%TD*%
D62*
%TO.P,D3,1,C*%
%TO.N,/PoE_supply/VDD*%
X161200000Y-141409000D03*
%TO.P,D3,2,A*%
%TO.N,/PoE_supply/VSS*%
X161200000Y-144208000D03*
%TD*%
D40*
%TO.P,C4,1*%
%TO.N,GND*%
X195459000Y-158350000D03*
%TO.P,C4,2*%
%TO.N,+28V*%
X193169000Y-158350000D03*
%TD*%
D63*
%TO.P,U7,1,BOOT*%
%TO.N,Net-(U7-BOOT)*%
X190100000Y-147590000D03*
%TO.P,U7,2,VIN*%
%TO.N,+28V*%
X190100000Y-148860000D03*
%TO.P,U7,3,EN*%
X190100000Y-150130000D03*
%TO.P,U7,4,RT*%
%TO.N,Net-(U7-RT)*%
X190100000Y-151400000D03*
%TO.P,U7,5,FB*%
%TO.N,Net-(U7-FB)*%
X195525000Y-151400000D03*
%TO.P,U7,6,SS*%
%TO.N,Net-(U7-SS)*%
X195525000Y-150130000D03*
%TO.P,U7,7,GND*%
%TO.N,GND*%
X195525000Y-148860000D03*
%TO.P,U7,8,SW*%
%TO.N,Net-(D5-C)*%
X195525000Y-147590000D03*
D16*
%TO.P,U7,9,GND*%
%TO.N,GND*%
X192165000Y-148860000D03*
X192165000Y-150130000D03*
D64*
X192815000Y-149495000D03*
D16*
X193465000Y-148860000D03*
X193465000Y-150130000D03*
%TD*%
D19*
%TO.P,C31,1*%
%TO.N,GND*%
X218712000Y-175280000D03*
%TO.P,C31,2*%
%TO.N,/FTDI/OSCI*%
X218712000Y-174320000D03*
%TD*%
D13*
%TO.P,R20,1*%
%TO.N,+3V3*%
X219105000Y-168440000D03*
%TO.P,R20,2*%
%TO.N,Net-(U5-~{RESET})*%
X218145000Y-168440000D03*
%TD*%
D52*
%TO.P,R49,1*%
%TO.N,/PoE_supply/VSS*%
X165000000Y-144340000D03*
%TO.P,R49,2*%
%TO.N,/PoE_supply/CLSA*%
X165000000Y-142940000D03*
%TD*%
D19*
%TO.P,C28,1*%
%TO.N,GND*%
X209824000Y-155119000D03*
%TO.P,C28,2*%
%TO.N,/main_power_stage/PDC_LDO_3V3*%
X209824000Y-154159000D03*
%TD*%
%TO.P,R14,1*%
%TO.N,/main_power_stage/FB1*%
X191350000Y-175050000D03*
%TO.P,R14,2*%
%TO.N,Net-(U2-FB)*%
X191350000Y-174090000D03*
%TD*%
D27*
%TO.P,C40,1*%
%TO.N,GND*%
X208376000Y-158234000D03*
%TO.P,C40,2*%
%TO.N,+3V3*%
X208376000Y-159194000D03*
%TD*%
D52*
%TO.P,C37,1*%
%TO.N,GND*%
X155000000Y-143100000D03*
%TO.P,C37,2*%
%TO.N,/PoE_supply/P4*%
X155000000Y-141700000D03*
%TD*%
D19*
%TO.P,R35,1*%
%TO.N,GND*%
X227229000Y-167085000D03*
%TO.P,R35,2*%
%TO.N,/USBPD_output/A1*%
X227229000Y-166125000D03*
%TD*%
D27*
%TO.P,R63,1*%
%TO.N,/FTDI/FTDI_TPS_rst*%
X203224000Y-145219000D03*
%TO.P,R63,2*%
%TO.N,/main_power_stage/PDC_RESET*%
X203224000Y-146179000D03*
%TD*%
D19*
%TO.P,R30,1*%
%TO.N,/main_power_stage/PDC_LDO_3V3*%
X210824000Y-155119000D03*
%TO.P,R30,2*%
%TO.N,/main_power_stage/PDC_ADCIN2*%
X210824000Y-154159000D03*
%TD*%
%TO.P,R51,1*%
%TO.N,/FTDI/SCL*%
X232329000Y-164965000D03*
%TO.P,R51,2*%
%TO.N,Net-(U3-SCL)*%
X232329000Y-164005000D03*
%TD*%
D65*
%TO.P,U8,1,S*%
%TO.N,Net-(U8-S)*%
X209475000Y-159844000D03*
D66*
%TO.P,U8,2,1B1*%
%TO.N,/main_power_stage/TPS_SCK*%
X210026000Y-160895000D03*
%TO.P,U8,3,1B2*%
%TO.N,/main_power_stage/FTDI_SCK*%
X210526000Y-160895000D03*
%TO.P,U8,4,1A*%
%TO.N,/main_power_stage/FLASH_SCK*%
X211026000Y-160895000D03*
%TO.P,U8,5,2B1*%
%TO.N,/main_power_stage/TPS_SDO*%
X211525000Y-160895000D03*
%TO.P,U8,6,2B2*%
%TO.N,/main_power_stage/FTDI_SDO*%
X212025000Y-160895000D03*
%TO.P,U8,7,2A*%
%TO.N,/main_power_stage/FLASH_SDO*%
X212525000Y-160895000D03*
D65*
%TO.P,U8,8,GND*%
%TO.N,GND*%
X213076000Y-159844000D03*
%TO.P,U8,9,3A*%
%TO.N,/main_power_stage/FLASH_SDI*%
X213076000Y-159345000D03*
D66*
%TO.P,U8,10,3B2*%
%TO.N,/main_power_stage/FTDI_SDI*%
X212525000Y-158294000D03*
%TO.P,U8,11,3B1*%
%TO.N,/main_power_stage/TPS_SDI*%
X212025000Y-158294000D03*
%TO.P,U8,12,4A*%
%TO.N,/main_power_stage/FLASH_CS*%
X211525000Y-158294000D03*
%TO.P,U8,13,4B2*%
%TO.N,/main_power_stage/FTDI_CS*%
X211026000Y-158294000D03*
%TO.P,U8,14,4B1*%
%TO.N,/main_power_stage/TPS_CS*%
X210526000Y-158294000D03*
%TO.P,U8,15,OE*%
%TO.N,Net-(U8-OE)*%
X210026000Y-158294000D03*
D65*
%TO.P,U8,16,VCC*%
%TO.N,+3V3*%
X209475000Y-159345000D03*
D67*
%TO.P,U8,17,EP*%
%TO.N,unconnected-(U8-EP-Pad17)*%
X211276000Y-159594000D03*
%TD*%
D19*
%TO.P,R17,1*%
%TO.N,/main_power_stage/FB4*%
X194350000Y-175050000D03*
%TO.P,R17,2*%
%TO.N,/main_power_stage/FB3*%
X194350000Y-174090000D03*
%TD*%
%TO.P,R33,1*%
%TO.N,/USBPD_output/A1*%
X227229000Y-165065000D03*
%TO.P,R33,2*%
%TO.N,+3V3*%
X227229000Y-164105000D03*
%TD*%
D18*
%TO.P,R61,1*%
%TO.N,/main_power_stage/FLASH_SDI*%
X214340000Y-159798000D03*
%TO.P,R61,2*%
%TO.N,Net-(U9-SO{slash}IO1)*%
X215300000Y-159798000D03*
%TD*%
D45*
%TO.P,C24,1*%
%TO.N,GND*%
X189608334Y-143000000D03*
%TO.P,C24,2*%
%TO.N,+3V3*%
X189608334Y-140000000D03*
%TD*%
D68*
%TO.P,U3,1,A1*%
%TO.N,/USBPD_output/A1*%
X228679000Y-163015000D03*
%TO.P,U3,2,A0*%
%TO.N,/USBPD_output/A0*%
X229179000Y-163015000D03*
%TO.P,U3,3,ALERT*%
%TO.N,unconnected-(U3-ALERT-Pad3)*%
X229679000Y-163015000D03*
%TO.P,U3,4,SDA*%
%TO.N,Net-(U3-SDA)*%
X230179000Y-163015000D03*
D69*
%TO.P,U3,5,SCL*%
%TO.N,Net-(U3-SCL)*%
X230829000Y-162365000D03*
%TO.P,U3,6,NC*%
%TO.N,unconnected-(U3-NC-Pad6)*%
X230829000Y-161865000D03*
%TO.P,U3,7,NC*%
%TO.N,unconnected-(U3-NC-Pad7)*%
X230829000Y-161365000D03*
%TO.P,U3,8,NC*%
%TO.N,unconnected-(U3-NC-Pad8)*%
X230829000Y-160865000D03*
D70*
%TO.P,U3,9,Vs*%
%TO.N,+3V3*%
X230179000Y-160215000D03*
%TO.P,U3,10,GND*%
%TO.N,GND*%
X229679000Y-160215000D03*
%TO.P,U3,11,VBUS*%
%TO.N,/USBPD_output/IN-*%
X229179000Y-160215000D03*
%TO.P,U3,12,IN-*%
X228679000Y-160215000D03*
D71*
%TO.P,U3,13,IN+*%
%TO.N,/USBPD_output/IN+*%
X228029000Y-160865000D03*
%TO.P,U3,14,NC*%
%TO.N,unconnected-(U3-NC-Pad14)*%
X228029000Y-161365000D03*
%TO.P,U3,15,NC*%
%TO.N,unconnected-(U3-NC-Pad15)*%
X228029000Y-161865000D03*
%TO.P,U3,16,NC*%
%TO.N,unconnected-(U3-NC-Pad16)*%
X228029000Y-162365000D03*
D72*
%TO.P,U3,17,EP*%
%TO.N,GND*%
X229429000Y-161615000D03*
%TD*%
D13*
%TO.P,R8,1*%
%TO.N,Net-(Q1-G)*%
X173480000Y-145148000D03*
%TO.P,R8,2*%
%TO.N,/PoE_supply/VDD*%
X172520000Y-145148000D03*
%TD*%
D73*
%TO.P,J3,A1,GND*%
%TO.N,GND*%
X232645000Y-159281000D03*
%TO.P,J3,A4,VBUS*%
%TO.N,/USBPD_output/IN-*%
X232645000Y-158479000D03*
D74*
%TO.P,J3,A5,CC_{1}*%
%TO.N,Net-(J3-CC_{1})*%
X232645000Y-157329000D03*
%TO.P,J3,A6,D_{A}+*%
%TO.N,/FTDI/D+*%
X232645000Y-156329000D03*
%TO.P,J3,A7,D_{A}-*%
%TO.N,/FTDI/D-*%
X232645000Y-155831000D03*
%TO.P,J3,A8,SBU_{1}*%
%TO.N,unconnected-(J3-SBU_{1}-PadA8)*%
X232645000Y-154830000D03*
D73*
%TO.P,J3,A9,VBUS*%
%TO.N,/USBPD_output/IN-*%
X232645000Y-153681000D03*
%TO.P,J3,A12,GND*%
%TO.N,GND*%
X232645000Y-152879000D03*
%TO.P,J3,B1,GND*%
X232645000Y-152879000D03*
%TO.P,J3,B4,VBUS*%
%TO.N,/USBPD_output/IN-*%
X232645000Y-153681000D03*
D74*
%TO.P,J3,B5,CC_{2}*%
%TO.N,Net-(J3-CC_{2})*%
X232645000Y-154330000D03*
%TO.P,J3,B6,D_{B}+*%
%TO.N,/FTDI/D+*%
X232645000Y-155331000D03*
%TO.P,J3,B7,D_{B}-*%
%TO.N,/FTDI/D-*%
X232645000Y-156829000D03*
%TO.P,J3,B8,SBU_{2}*%
%TO.N,unconnected-(J3-SBU_{2}-PadB8)*%
X232645000Y-157829000D03*
D73*
%TO.P,J3,B9,VBUS*%
%TO.N,/USBPD_output/IN-*%
X232645000Y-158479000D03*
%TO.P,J3,B12,GND*%
%TO.N,GND*%
X232645000Y-159281000D03*
D75*
%TO.P,J3,SH,SH*%
%TO.N,Net-(FB1-Pad1)*%
X233219000Y-160400000D03*
D76*
X237400000Y-160400000D03*
D75*
X233219000Y-151759000D03*
D76*
X237400000Y-151759000D03*
%TD*%
D77*
%TO.P,R52,1*%
%TO.N,/USBPD_output/IN+*%
X229900000Y-153680000D03*
%TO.P,R52,2*%
%TO.N,/USBPD_output/IN-*%
X229900000Y-158320000D03*
%TD*%
D27*
%TO.P,R13,1*%
%TO.N,Net-(U2-FB)*%
X190350000Y-174090000D03*
%TO.P,R13,2*%
%TO.N,VBUS*%
X190350000Y-175050000D03*
%TD*%
D78*
%TO.P,L1,1*%
%TO.N,Net-(D4-C)*%
X204300000Y-175250000D03*
%TO.P,L1,2*%
%TO.N,VBUS*%
X204300000Y-172000000D03*
%TD*%
D18*
%TO.P,C16,1*%
%TO.N,GND*%
X205364000Y-153199000D03*
%TO.P,C16,2*%
%TO.N,/USBPD_output/IN+*%
X206324000Y-153199000D03*
%TD*%
%TO.P,R23,1*%
%TO.N,Net-(U5-ADBUS2)*%
X219325000Y-163901000D03*
%TO.P,R23,2*%
%TO.N,+3V3*%
X220285000Y-163901000D03*
%TD*%
D19*
%TO.P,R41,1*%
%TO.N,/FTDI/SDA*%
X231329000Y-164985000D03*
%TO.P,R41,2*%
%TO.N,Net-(U3-SDA)*%
X231329000Y-164025000D03*
%TD*%
D18*
%TO.P,R54,1*%
%TO.N,Net-(U5-ADBUS2)*%
X219325000Y-164901000D03*
%TO.P,R54,2*%
%TO.N,/FTDI/SDA*%
X220285000Y-164901000D03*
%TD*%
D32*
%TO.P,TP4,1,1*%
%TO.N,Net-(U6A-I2C2_SDA)*%
X209424000Y-143899000D03*
%TD*%
D19*
%TO.P,R39,1*%
%TO.N,GND*%
X230329000Y-166965000D03*
%TO.P,R39,2*%
%TO.N,/USBPD_output/A0*%
X230329000Y-166005000D03*
%TD*%
D79*
%TO.P,U9,1,~{CS}*%
%TO.N,/main_power_stage/FLASH_CS*%
X217074000Y-158293000D03*
%TO.P,U9,2,SO/IO1*%
%TO.N,Net-(U9-SO{slash}IO1)*%
X217074000Y-159563000D03*
%TO.P,U9,3,~{WP}/IO2*%
%TO.N,/main_power_stage/PDC_LDO_3V3*%
X217074000Y-160830000D03*
%TO.P,U9,4,VSS*%
%TO.N,GND*%
X217074000Y-162100000D03*
%TO.P,U9,5,SI/IO0*%
%TO.N,Net-(U9-SI{slash}IO0)*%
X222500000Y-162100000D03*
%TO.P,U9,6,SCLK*%
%TO.N,/main_power_stage/FLASH_SCK*%
X222500000Y-160830000D03*
%TO.P,U9,7,~{HOLD}/IO3*%
%TO.N,/main_power_stage/PDC_LDO_3V3*%
X222500000Y-159563000D03*
%TO.P,U9,8,VCC*%
%TO.N,Net-(U9-VCC)*%
X222500000Y-158293000D03*
%TD*%
D27*
%TO.P,C12,1*%
%TO.N,GND*%
X218712000Y-172340000D03*
%TO.P,C12,2*%
%TO.N,/FTDI/OSCO*%
X218712000Y-173300000D03*
%TD*%
D18*
%TO.P,R53,1*%
%TO.N,Net-(U5-ADBUS0)*%
X219325000Y-165901000D03*
%TO.P,R53,2*%
%TO.N,/FTDI/SCL*%
X220285000Y-165901000D03*
%TD*%
D19*
%TO.P,R5,1*%
%TO.N,/PoE_supply/VSS*%
X168000000Y-147740000D03*
%TO.P,R5,2*%
%TO.N,Net-(U1-REF)*%
X168000000Y-146780000D03*
%TD*%
D39*
%TO.P,C38,1*%
%TO.N,GND*%
X218700000Y-130800000D03*
%TO.P,C38,2*%
%TO.N,Net-(J2-VCC)*%
X217300000Y-130800000D03*
%TD*%
D18*
%TO.P,R22,1*%
%TO.N,Net-(U5-ADBUS0)*%
X219345000Y-166901000D03*
%TO.P,R22,2*%
%TO.N,+3V3*%
X220305000Y-166901000D03*
%TD*%
D27*
%TO.P,R62,1*%
%TO.N,Net-(U8-S)*%
X207400000Y-161234000D03*
%TO.P,R62,2*%
%TO.N,+3V3*%
X207400000Y-162194000D03*
%TD*%
D18*
%TO.P,R4,1*%
%TO.N,Net-(U1-PG)*%
X172540000Y-143100000D03*
%TO.P,R4,2*%
%TO.N,Net-(Q1-G)*%
X173500000Y-143100000D03*
%TD*%
D27*
%TO.P,R18,1*%
%TO.N,GND*%
X195350000Y-174070000D03*
%TO.P,R18,2*%
%TO.N,/main_power_stage/FB4*%
X195350000Y-175030000D03*
%TD*%
D41*
%TO.P,C22,1*%
%TO.N,Net-(D5-C)*%
X190175000Y-144500000D03*
%TO.P,C22,2*%
%TO.N,Net-(U7-BOOT)*%
X190175000Y-145900000D03*
%TD*%
%TO.P,FB3,1*%
%TO.N,+3V3*%
X222612000Y-169540000D03*
%TO.P,FB3,2*%
%TO.N,Net-(U5-V_{PHY})*%
X222612000Y-170940000D03*
%TD*%
D18*
%TO.P,R57,1*%
%TO.N,GND*%
X208996000Y-157194000D03*
%TO.P,R57,2*%
%TO.N,Net-(U8-OE)*%
X209956000Y-157194000D03*
%TD*%
D44*
%TO.P,D2,1,1*%
%TO.N,/PoE_supply/VSS*%
X158800000Y-144800000D03*
%TO.P,D2,2,2*%
%TO.N,/PoE_supply/VDD*%
X158800000Y-147340000D03*
%TO.P,D2,3,3*%
%TO.N,/PoE_supply/VC3*%
X155100000Y-144800000D03*
%TO.P,D2,4,4*%
%TO.N,/PoE_supply/VC4*%
X155100000Y-147340000D03*
%TD*%
D52*
%TO.P,R12,1*%
%TO.N,GND*%
X189600000Y-162100000D03*
%TO.P,R12,2*%
%TO.N,Net-(U4-TRIM)*%
X189600000Y-160700000D03*
%TD*%
D18*
%TO.P,R56,1*%
%TO.N,Net-(U6A-I2C1_SDA)*%
X212444000Y-145599000D03*
%TO.P,R56,2*%
%TO.N,/FTDI/SCL*%
X213404000Y-145599000D03*
%TD*%
D41*
%TO.P,FB2,1*%
%TO.N,+3V3*%
X222612000Y-166940000D03*
%TO.P,FB2,2*%
%TO.N,Net-(U5-V_{PLL})*%
X222612000Y-168340000D03*
%TD*%
D13*
%TO.P,R29,1*%
%TO.N,GND*%
X208824000Y-155199000D03*
%TO.P,R29,2*%
%TO.N,/main_power_stage/PDC_ADCIN1*%
X207864000Y-155199000D03*
%TD*%
D80*
%TO.P,U4,1,VIN+*%
%TO.N,/PoE_supply/VDD*%
X133220000Y-153480000D03*
%TO.P,U4,2,!ON*%
%TO.N,Net-(Q1-D)*%
X133220000Y-161100000D03*
%TO.P,U4,3,VIN-*%
%TO.N,GNDD*%
X133220000Y-168720000D03*
D81*
%TO.P,U4,4,VOUT-*%
%TO.N,GND*%
X184020000Y-168720000D03*
D80*
%TO.P,U4,5,SENSE-*%
X184020000Y-164910000D03*
%TO.P,U4,6,TRIM*%
%TO.N,Net-(U4-TRIM)*%
X184020000Y-161100000D03*
%TO.P,U4,7,SENSE+*%
%TO.N,+28V*%
X184020000Y-157290000D03*
D81*
%TO.P,U4,8,VOUT+*%
X184020000Y-153480000D03*
%TD*%
D39*
%TO.P,C6,1*%
%TO.N,GND*%
X194900000Y-164500000D03*
%TO.P,C6,2*%
%TO.N,+28V*%
X193500000Y-164500000D03*
%TD*%
D82*
%TO.P,TP1,1,1*%
%TO.N,/FTDI/WP1*%
X216212000Y-164713000D03*
%TD*%
D32*
%TO.P,TP5,1,1*%
%TO.N,Net-(U6A-I2C3_SCL)*%
X214724000Y-150099000D03*
%TD*%
D27*
%TO.P,C27,1*%
%TO.N,GND*%
X207050000Y-142939000D03*
%TO.P,C27,2*%
%TO.N,/main_power_stage/PDC_LDO_1V8*%
X207050000Y-143899000D03*
%TD*%
D19*
%TO.P,R32,1*%
%TO.N,GND*%
X203204000Y-148179000D03*
%TO.P,R32,2*%
%TO.N,/main_power_stage/PDC_RESET*%
X203204000Y-147219000D03*
%TD*%
D13*
%TO.P,C7,1*%
%TO.N,GND*%
X193680000Y-173000000D03*
%TO.P,C7,2*%
%TO.N,Net-(U2-SS)*%
X192720000Y-173000000D03*
%TD*%
D83*
%TO.N,VBUS*%
X190400000Y-175600000D03*
X206300000Y-170900000D03*
%TO.N,Net-(D5-C)*%
X198208334Y-144200000D03*
X190908334Y-144500000D03*
%TO.N,Net-(D4-C)*%
X198300000Y-165400000D03*
X195900000Y-171600000D03*
%TD*%
D84*
%TO.N,/PoE_supply/VSS*%
X158800000Y-137560000D02*
X159800000Y-138560000D01*
X158800000Y-144800000D02*
X159800000Y-144800000D01*
X159800000Y-144800000D02*
X160608000Y-144800000D01*
X160608000Y-144800000D02*
X161200000Y-144208000D01*
X159800000Y-138560000D02*
X159800000Y-144800000D01*
%TO.N,/PoE_supply/VDD*%
X158400000Y-136500000D02*
X160200000Y-136500000D01*
X157400000Y-137500000D02*
X158400000Y-136500000D01*
X157800000Y-141100000D02*
X157800000Y-146340000D01*
X161200000Y-137500000D02*
X161200000Y-141409000D01*
X157800000Y-146340000D02*
X158800000Y-147340000D01*
X158800000Y-140100000D02*
X157400000Y-138700000D01*
X157400000Y-138700000D02*
X157400000Y-137500000D01*
X158800000Y-140100000D02*
X157800000Y-141100000D01*
X160200000Y-136500000D02*
X161200000Y-137500000D01*
%TO.N,VBUS*%
X190350000Y-175550000D02*
X190400000Y-175600000D01*
X190350000Y-175050000D02*
X190350000Y-175550000D01*
%TO.N,Net-(D5-C)*%
X190175000Y-144500000D02*
X190908334Y-144500000D01*
D85*
%TO.N,Net-(U4-TRIM)*%
X189740000Y-160840000D02*
X189600000Y-160700000D01*
X189600000Y-159500000D02*
X189600000Y-160700000D01*
X184020000Y-161100000D02*
X184420000Y-160700000D01*
X184420000Y-160700000D02*
X189600000Y-160700000D01*
X190800000Y-160840000D02*
X189740000Y-160840000D01*
D86*
%TO.N,Net-(D4-C)*%
X198300000Y-166200000D02*
X198300000Y-165400000D01*
X195900000Y-171600000D02*
X195210000Y-171600000D01*
%TO.N,Net-(U2-RT)*%
X191400000Y-166175000D02*
X190145000Y-166175000D01*
X190145000Y-166175000D02*
X189800000Y-166520000D01*
D87*
%TO.N,Net-(U2-FB)*%
X191400000Y-174040000D02*
X191350000Y-174090000D01*
X190350000Y-174090000D02*
X191350000Y-174090000D01*
X191400000Y-171600000D02*
X191400000Y-174040000D01*
X191450000Y-173990000D02*
X191350000Y-174090000D01*
%TO.N,/main_power_stage/FB1*%
X192350000Y-174090000D02*
X192310000Y-174090000D01*
X192310000Y-174090000D02*
X191350000Y-175050000D01*
%TO.N,/main_power_stage/FB2*%
X193350000Y-174090000D02*
X193310000Y-174090000D01*
X193310000Y-174090000D02*
X192350000Y-175050000D01*
%TO.N,/main_power_stage/FB3*%
X194310000Y-174090000D02*
X193350000Y-175050000D01*
X194350000Y-174090000D02*
X194310000Y-174090000D01*
%TO.N,/main_power_stage/FB4*%
X194370000Y-175030000D02*
X194350000Y-175050000D01*
X195350000Y-175030000D02*
X194370000Y-175030000D01*
%TD*%
%TA.AperFunction,Conductor*%
%TO.N,+3V3*%
G36*
X198351373Y-138819685D02*
G01*
X198397128Y-138872489D01*
X198408334Y-138924000D01*
X198408334Y-139118219D01*
X198388649Y-139185258D01*
X198335845Y-139231013D01*
X198266687Y-139240957D01*
X198255840Y-139237654D01*
X198255630Y-139238577D01*
X198231912Y-139233162D01*
X198205713Y-139223994D01*
X198196382Y-139219500D01*
X198196379Y-139219500D01*
X198172050Y-139219500D01*
X193916379Y-139219500D01*
X193820289Y-139219500D01*
X193820288Y-139219500D01*
X193810951Y-139223996D01*
X193784756Y-139233162D01*
X193774658Y-139235467D01*
X193774654Y-139235468D01*
X193774653Y-139235469D01*
X193774652Y-139235469D01*
X193774647Y-139235472D01*
X193766543Y-139241934D01*
X193743053Y-139256693D01*
X193733714Y-139261190D01*
X193733712Y-139261192D01*
X193727252Y-139269293D01*
X193707627Y-139288918D01*
X193699526Y-139295378D01*
X193699524Y-139295380D01*
X193695027Y-139304719D01*
X193680268Y-139328209D01*
X193673806Y-139336313D01*
X193673801Y-139336324D01*
X193671496Y-139346422D01*
X193662330Y-139372617D01*
X193657834Y-139381954D01*
X193657834Y-140776000D01*
X193638149Y-140843039D01*
X193585345Y-140888794D01*
X193533834Y-140900000D01*
X188932334Y-140900000D01*
X188865295Y-140880315D01*
X188819540Y-140827511D01*
X188808334Y-140776000D01*
X188808334Y-138924000D01*
X188828019Y-138856961D01*
X188880823Y-138811206D01*
X188932334Y-138800000D01*
X198284334Y-138800000D01*
X198351373Y-138819685D01*
G37*
%TD.AperFunction*%
%TD*%
%TA.AperFunction,Conductor*%
%TO.N,Net-(U7-BOOT)*%
G36*
X190951373Y-145219685D02*
G01*
X190997128Y-145272489D01*
X191008334Y-145324000D01*
X191008334Y-148076000D01*
X190988649Y-148143039D01*
X190935845Y-148188794D01*
X190884334Y-148200000D01*
X189432334Y-148200000D01*
X189365295Y-148180315D01*
X189319540Y-148127511D01*
X189308334Y-148076000D01*
X189308334Y-145324000D01*
X189328019Y-145256961D01*
X189380823Y-145211206D01*
X189432334Y-145200000D01*
X190884334Y-145200000D01*
X190951373Y-145219685D01*
G37*
%TD.AperFunction*%
%TD*%
%TA.AperFunction,Conductor*%
%TO.N,Net-(D5-C)*%
G36*
X193713537Y-143716848D02*
G01*
X193729280Y-143733248D01*
X193733714Y-143738808D01*
X193743045Y-143743302D01*
X193766552Y-143758071D01*
X193774653Y-143764531D01*
X193784739Y-143766833D01*
X193784748Y-143766835D01*
X193810957Y-143776006D01*
X193820289Y-143780500D01*
X193820290Y-143780500D01*
X198196379Y-143780500D01*
X198205707Y-143776007D01*
X198231914Y-143766836D01*
X198242015Y-143764531D01*
X198250111Y-143758074D01*
X198273622Y-143743301D01*
X198282954Y-143738808D01*
X198287380Y-143733256D01*
X198344565Y-143693111D01*
X198414376Y-143690255D01*
X198474649Y-143725596D01*
X198506248Y-143787912D01*
X198508334Y-143810561D01*
X198508334Y-147976000D01*
X198488649Y-148043039D01*
X198435845Y-148088794D01*
X198384334Y-148100000D01*
X194632334Y-148100000D01*
X194565295Y-148080315D01*
X194519540Y-148027511D01*
X194508334Y-147976000D01*
X194508334Y-147224000D01*
X194528019Y-147156961D01*
X194580823Y-147111206D01*
X194632334Y-147100000D01*
X195008334Y-147100000D01*
X195008334Y-144100000D01*
X193632334Y-144100000D01*
X193565295Y-144080315D01*
X193519540Y-144027511D01*
X193508334Y-143976000D01*
X193508334Y-143810561D01*
X193528019Y-143743522D01*
X193580823Y-143697767D01*
X193649981Y-143687823D01*
X193713537Y-143716848D01*
G37*
%TD.AperFunction*%
%TD*%
%TA.AperFunction,Conductor*%
%TO.N,GND*%
G36*
X193151373Y-142019685D02*
G01*
X193197128Y-142072489D01*
X193208334Y-142124000D01*
X193208334Y-143900001D01*
X193564864Y-145112202D01*
X194198873Y-147267834D01*
X194203295Y-147282867D01*
X194208334Y-147317856D01*
X194208334Y-151076000D01*
X194188649Y-151143039D01*
X194135845Y-151188794D01*
X194084334Y-151200000D01*
X191432334Y-151200000D01*
X191365295Y-151180315D01*
X191319540Y-151127511D01*
X191308334Y-151076000D01*
X191308334Y-144848909D01*
X191328019Y-144781870D01*
X191329647Y-144779694D01*
X191333702Y-144773382D01*
X191333711Y-144773373D01*
X191393499Y-144642457D01*
X191413981Y-144500000D01*
X191393499Y-144357543D01*
X191333711Y-144226627D01*
X191333708Y-144226624D01*
X191328916Y-144219166D01*
X191331779Y-144217325D01*
X191309591Y-144168699D01*
X191308334Y-144151090D01*
X191308334Y-143800000D01*
X189208334Y-143800000D01*
X189208334Y-145034961D01*
X189188649Y-145102000D01*
X189180548Y-145111949D01*
X189180878Y-145112202D01*
X189175488Y-145119249D01*
X189130845Y-145199059D01*
X189130843Y-145199064D01*
X189111160Y-145266096D01*
X189102834Y-145324003D01*
X189102834Y-147200795D01*
X189083149Y-147267834D01*
X189030345Y-147313589D01*
X188961187Y-147323533D01*
X188924377Y-147312197D01*
X188919289Y-147309710D01*
X188919287Y-147309709D01*
X188919286Y-147309709D01*
X188849215Y-147299500D01*
X188849209Y-147299500D01*
X188100786Y-147299500D01*
X188051342Y-147306703D01*
X188030714Y-147309709D01*
X188030712Y-147309709D01*
X188030710Y-147309710D01*
X188030708Y-147309710D01*
X187922627Y-147362548D01*
X187922624Y-147362550D01*
X187837549Y-147447625D01*
X187835899Y-147451002D01*
X187832421Y-147454807D01*
X187831579Y-147455988D01*
X187831436Y-147455886D01*
X187788770Y-147502583D01*
X187721236Y-147520496D01*
X187654738Y-147499054D01*
X187610389Y-147445064D01*
X187600500Y-147396539D01*
X187600500Y-146665249D01*
X187600499Y-146665247D01*
X187588868Y-146606770D01*
X187588867Y-146606769D01*
X187544552Y-146540447D01*
X187478230Y-146496132D01*
X187478229Y-146496131D01*
X187419752Y-146484500D01*
X187419748Y-146484500D01*
X184330252Y-146484500D01*
X184330247Y-146484500D01*
X184271770Y-146496131D01*
X184271769Y-146496132D01*
X184205446Y-146540448D01*
X184158093Y-146611316D01*
X184104480Y-146656121D01*
X184035155Y-146664827D01*
X183972128Y-146634671D01*
X183951890Y-146611315D01*
X183911219Y-146550447D01*
X183844897Y-146506132D01*
X183844896Y-146506131D01*
X183786419Y-146494500D01*
X183786415Y-146494500D01*
X180696919Y-146494500D01*
X180696914Y-146494500D01*
X180638437Y-146506131D01*
X180638436Y-146506132D01*
X180572113Y-146550448D01*
X180528101Y-146616316D01*
X180474488Y-146661121D01*
X180405163Y-146669827D01*
X180342136Y-146639671D01*
X180321898Y-146616315D01*
X180277886Y-146550447D01*
X180211564Y-146506132D01*
X180211563Y-146506131D01*
X180153086Y-146494500D01*
X180153082Y-146494500D01*
X177132334Y-146494500D01*
X177065295Y-146474815D01*
X177019540Y-146422011D01*
X177008334Y-146370500D01*
X177008334Y-142124000D01*
X177028019Y-142056961D01*
X177080823Y-142011206D01*
X177132334Y-142000000D01*
X193084334Y-142000000D01*
X193151373Y-142019685D01*
G37*
%TD.AperFunction*%
%TD*%
%TA.AperFunction,Conductor*%
%TO.N,VBUS*%
G36*
X206543039Y-158719685D02*
G01*
X206588794Y-158772489D01*
X206600000Y-158824000D01*
X206600000Y-172576000D01*
X206580315Y-172643039D01*
X206527511Y-172688794D01*
X206476000Y-172700000D01*
X201724000Y-172700000D01*
X201656961Y-172680315D01*
X201611206Y-172627511D01*
X201600000Y-172576000D01*
X201600000Y-158824000D01*
X201619685Y-158756961D01*
X201672489Y-158711206D01*
X201724000Y-158700000D01*
X206476000Y-158700000D01*
X206543039Y-158719685D01*
G37*
%TD.AperFunction*%
%TD*%
%TA.AperFunction,Conductor*%
%TO.N,Net-(D4-C)*%
G36*
X200743039Y-170825185D02*
G01*
X200788794Y-170877989D01*
X200800000Y-170929500D01*
X200800000Y-173900000D01*
X206576000Y-173900000D01*
X206643039Y-173919685D01*
X206688794Y-173972489D01*
X206700000Y-174024000D01*
X206700000Y-176476000D01*
X206680315Y-176543039D01*
X206627511Y-176588794D01*
X206576000Y-176600000D01*
X196124000Y-176600000D01*
X196056961Y-176580315D01*
X196011206Y-176527511D01*
X196000000Y-176476000D01*
X196000000Y-174479278D01*
X196001262Y-174461630D01*
X196005500Y-174432155D01*
X196005500Y-172824008D01*
X196005499Y-172823992D01*
X196003926Y-172809363D01*
X196000803Y-172780316D01*
X195995756Y-172757115D01*
X195989602Y-172728825D01*
X195989348Y-172727789D01*
X195987110Y-172718627D01*
X195944100Y-172637915D01*
X195898345Y-172585111D01*
X195898339Y-172585104D01*
X195880757Y-172567160D01*
X195880756Y-172567159D01*
X195880754Y-172567157D01*
X195880752Y-172567156D01*
X195880750Y-172567154D01*
X195800940Y-172522511D01*
X195800935Y-172522509D01*
X195733903Y-172502826D01*
X195733899Y-172502825D01*
X195733898Y-172502825D01*
X195676000Y-172494500D01*
X195675996Y-172494500D01*
X194724000Y-172494500D01*
X194656961Y-172474815D01*
X194611206Y-172422011D01*
X194600000Y-172370500D01*
X194600000Y-170929500D01*
X194619685Y-170862461D01*
X194672489Y-170816706D01*
X194724000Y-170805500D01*
X200676000Y-170805500D01*
X200743039Y-170825185D01*
G37*
%TD.AperFunction*%
%TD*%
%TA.AperFunction,Conductor*%
%TO.N,Net-(U2-BOOT)*%
G36*
X197343039Y-165419685D02*
G01*
X197388794Y-165472489D01*
X197400000Y-165524000D01*
X197400000Y-166776000D01*
X197380315Y-166843039D01*
X197327511Y-166888794D01*
X197276000Y-166900000D01*
X194924000Y-166900000D01*
X194856961Y-166880315D01*
X194811206Y-166827511D01*
X194800000Y-166776000D01*
X194800000Y-165524000D01*
X194819685Y-165456961D01*
X194872489Y-165411206D01*
X194924000Y-165400000D01*
X197276000Y-165400000D01*
X197343039Y-165419685D01*
G37*
%TD.AperFunction*%
%TD*%
%TA.AperFunction,Conductor*%
%TO.N,GND*%
G36*
X201143039Y-152619685D02*
G01*
X201188794Y-152672489D01*
X201200000Y-152724000D01*
X201200000Y-170476000D01*
X201180315Y-170543039D01*
X201127511Y-170588794D01*
X201076000Y-170600000D01*
X194200000Y-170600000D01*
X194200000Y-172700000D01*
X195676000Y-172700000D01*
X195743039Y-172719685D01*
X195788794Y-172772489D01*
X195800000Y-172824000D01*
X195800000Y-174432157D01*
X195780315Y-174499196D01*
X195727511Y-174544951D01*
X195658353Y-174554895D01*
X195632457Y-174546920D01*
X195632372Y-174547198D01*
X195623175Y-174544356D01*
X195623170Y-174544355D01*
X195555528Y-174534500D01*
X195144472Y-174534500D01*
X195076830Y-174544355D01*
X195076829Y-174544355D01*
X195076824Y-174544356D01*
X195067628Y-174547198D01*
X195067102Y-174545497D01*
X195009582Y-174555316D01*
X194945286Y-174527970D01*
X194905981Y-174470204D01*
X194900000Y-174432157D01*
X194900000Y-173600000D01*
X194602265Y-173600000D01*
X194584390Y-173598705D01*
X194584004Y-173598648D01*
X194555528Y-173594500D01*
X194144472Y-173594500D01*
X194115995Y-173598648D01*
X194115610Y-173598705D01*
X194097735Y-173600000D01*
X193602265Y-173600000D01*
X193584390Y-173598705D01*
X193584004Y-173598648D01*
X193555528Y-173594500D01*
X193324000Y-173594500D01*
X193256961Y-173574815D01*
X193211206Y-173522011D01*
X193200000Y-173470500D01*
X193200000Y-173310159D01*
X193205528Y-173273549D01*
X193205643Y-173273174D01*
X193205642Y-173273174D01*
X193205645Y-173273170D01*
X193215500Y-173205528D01*
X193215500Y-172794472D01*
X193205645Y-172726830D01*
X193205643Y-172726827D01*
X193205525Y-172726443D01*
X193200000Y-172689840D01*
X193200000Y-170600000D01*
X189324000Y-170600000D01*
X189256961Y-170580315D01*
X189211206Y-170527511D01*
X189200000Y-170476000D01*
X189200000Y-167324000D01*
X189219685Y-167256961D01*
X189272489Y-167211206D01*
X189324000Y-167200000D01*
X199200000Y-167200000D01*
X199200000Y-165100000D01*
X198758934Y-165100000D01*
X198691895Y-165080315D01*
X198665221Y-165057203D01*
X198631128Y-165017857D01*
X198510053Y-164940047D01*
X198510051Y-164940046D01*
X198510049Y-164940045D01*
X198510050Y-164940045D01*
X198371963Y-164899500D01*
X198371961Y-164899500D01*
X198228039Y-164899500D01*
X198228036Y-164899500D01*
X198089949Y-164940045D01*
X197968873Y-165017856D01*
X197934779Y-165057203D01*
X197876001Y-165094977D01*
X197841066Y-165100000D01*
X194824000Y-165100000D01*
X194756961Y-165080315D01*
X194711206Y-165027511D01*
X194700000Y-164976000D01*
X194700000Y-152724000D01*
X194719685Y-152656961D01*
X194772489Y-152611206D01*
X194824000Y-152600000D01*
X201076000Y-152600000D01*
X201143039Y-152619685D01*
G37*
%TD.AperFunction*%
%TD*%
M02*
