%TF.GenerationSoftware,KiCad,Pcbnew,7.0.11+dfsg-1build4*%
%TF.CreationDate,2024-07-19T16:51:39+02:00*%
%TF.ProjectId,antmicro-poe-to-usbc-pd-adapter,616e746d-6963-4726-9f2d-706f652d746f,rev?*%
%TF.SameCoordinates,Original*%
%TF.FileFunction,Drillmap*%
%TF.FilePolarity,Positive*%
%FSLAX45Y45*%
G04 Gerber Fmt 4.5, Leading zero omitted, Abs format (unit mm)*
G04 Created by KiCad (PCBNEW 7.0.11+dfsg-1build4) date 2024-07-19 16:51:39 commit  9a9195e *
%MOMM*%
%LPD*%
G01*
G04 APERTURE LIST*
%ADD10C,0.050000*%
%ADD11C,0.200000*%
%ADD12C,0.100000*%
%ADD13C,0.101600*%
%ADD14C,0.102000*%
%ADD15C,0.157000*%
%ADD16C,0.160000*%
%ADD17C,0.160020*%
%ADD18C,0.270000*%
G04 APERTURE END LIST*
D10*
X12850000Y-12400000D02*
X24090000Y-12400000D01*
X24090000Y-18000000D01*
X12850000Y-18000000D01*
X12850000Y-12400000D01*
D11*
D12*
X20519700Y-14754900D02*
X20529700Y-14764900D01*
X20529700Y-14754900D02*
X20519700Y-14764900D01*
X20537400Y-14999800D02*
X20547400Y-15009800D01*
X20547400Y-14999800D02*
X20537400Y-15009800D01*
X20537400Y-15094800D02*
X20547400Y-15104800D01*
X20547400Y-15094800D02*
X20537400Y-15104800D01*
X20625100Y-14999800D02*
X20635100Y-15009800D01*
X20635100Y-14999800D02*
X20625100Y-15009800D01*
X20625100Y-15094800D02*
X20635100Y-15104800D01*
X20635100Y-15094800D02*
X20625100Y-15104800D01*
X20637400Y-14634900D02*
X20647400Y-14644900D01*
X20647400Y-14634900D02*
X20637400Y-14644900D01*
X20637400Y-14754900D02*
X20647400Y-14764900D01*
X20647400Y-14754900D02*
X20637400Y-14764900D01*
X20638000Y-14874700D02*
X20648000Y-14884700D01*
X20648000Y-14874700D02*
X20638000Y-14884700D01*
X20712400Y-14999800D02*
X20722400Y-15009800D01*
X20722400Y-14999800D02*
X20712400Y-15009800D01*
X20712500Y-15094800D02*
X20722500Y-15104800D01*
X20722500Y-15094800D02*
X20712500Y-15104800D01*
X20770000Y-14634900D02*
X20780000Y-14644900D01*
X20780000Y-14634900D02*
X20770000Y-14644900D01*
X20770100Y-14754700D02*
X20780100Y-14764700D01*
X20780100Y-14754700D02*
X20770100Y-14764700D01*
X20770100Y-14874700D02*
X20780100Y-14884700D01*
X20780100Y-14874700D02*
X20770100Y-14884700D01*
X20829900Y-14999800D02*
X20839900Y-15009800D01*
X20839900Y-14999800D02*
X20829900Y-15009800D01*
X20829900Y-15094800D02*
X20839900Y-15104800D01*
X20839900Y-15094800D02*
X20829900Y-15104800D01*
X20902300Y-14634900D02*
X20912300Y-14644900D01*
X20912300Y-14634900D02*
X20902300Y-14644900D01*
X20902300Y-14754900D02*
X20912300Y-14764900D01*
X20912300Y-14754900D02*
X20902300Y-14764900D01*
X20902300Y-14874900D02*
X20912300Y-14884900D01*
X20912300Y-14874900D02*
X20902300Y-14884900D01*
X20917600Y-14999800D02*
X20927600Y-15009800D01*
X20927600Y-14999800D02*
X20917600Y-15009800D01*
X20917600Y-15094800D02*
X20927600Y-15104800D01*
X20927600Y-15094800D02*
X20917600Y-15104800D01*
X21005000Y-14999800D02*
X21015000Y-15009800D01*
X21015000Y-14999800D02*
X21005000Y-15009800D01*
X21005100Y-15094800D02*
X21015100Y-15104800D01*
X21015100Y-15094800D02*
X21005100Y-15104800D01*
X21019700Y-14754900D02*
X21029700Y-14764900D01*
X21029700Y-14754900D02*
X21019700Y-14764900D01*
X19226500Y-14886000D02*
G75*
G03*
X19206500Y-14886000I-10000J0D01*
G01*
X19206500Y-14886000D02*
G75*
G03*
X19226500Y-14886000I10000J0D01*
G01*
X19226500Y-15013000D02*
G75*
G03*
X19206500Y-15013000I-10000J0D01*
G01*
X19206500Y-15013000D02*
G75*
G03*
X19226500Y-15013000I10000J0D01*
G01*
X19277000Y-16824000D02*
G75*
G03*
X19257000Y-16824000I-10000J0D01*
G01*
X19257000Y-16824000D02*
G75*
G03*
X19277000Y-16824000I10000J0D01*
G01*
X19277000Y-16954000D02*
G75*
G03*
X19257000Y-16954000I-10000J0D01*
G01*
X19257000Y-16954000D02*
G75*
G03*
X19277000Y-16954000I10000J0D01*
G01*
X19356500Y-14886000D02*
G75*
G03*
X19336500Y-14886000I-10000J0D01*
G01*
X19336500Y-14886000D02*
G75*
G03*
X19356500Y-14886000I10000J0D01*
G01*
X19356500Y-15013000D02*
G75*
G03*
X19336500Y-15013000I-10000J0D01*
G01*
X19336500Y-15013000D02*
G75*
G03*
X19356500Y-15013000I10000J0D01*
G01*
X19404000Y-16824000D02*
G75*
G03*
X19384000Y-16824000I-10000J0D01*
G01*
X19384000Y-16824000D02*
G75*
G03*
X19404000Y-16824000I10000J0D01*
G01*
X19404000Y-16954000D02*
G75*
G03*
X19384000Y-16954000I-10000J0D01*
G01*
X19384000Y-16954000D02*
G75*
G03*
X19404000Y-16954000I10000J0D01*
G01*
X19040000Y-17545000D02*
X19040000Y-17575000D01*
X19025000Y-17560000D02*
X19055000Y-17560000D01*
X19090833Y-14435000D02*
X19090833Y-14465000D01*
X19075833Y-14450000D02*
X19105833Y-14450000D01*
X19590000Y-17145000D02*
X19590000Y-17175000D01*
X19575000Y-17160000D02*
X19605000Y-17160000D01*
X19820833Y-14405000D02*
X19820833Y-14435000D01*
X19805833Y-14420000D02*
X19835833Y-14420000D01*
X19830000Y-16525000D02*
X19830000Y-16555000D01*
X19815000Y-16540000D02*
X19845000Y-16540000D01*
X20630000Y-17075000D02*
X20630000Y-17105000D01*
X20615000Y-17090000D02*
X20645000Y-17090000D01*
X23343113Y-15197113D02*
X23343113Y-15154687D01*
X23300687Y-15154687D01*
X23300687Y-15197113D01*
X23343113Y-15197113D01*
X23266900Y-15205900D02*
X23376900Y-15205900D01*
X23376900Y-15205900D02*
G75*
G03*
X23376900Y-15145900I0J30000D01*
G01*
X23376900Y-15145900D02*
X23266900Y-15145900D01*
X23266900Y-15145900D02*
G75*
G03*
X23266900Y-15205900I0J-30000D01*
G01*
X23343113Y-16061213D02*
X23343113Y-16018787D01*
X23300687Y-16018787D01*
X23300687Y-16061213D01*
X23343113Y-16061213D01*
X23266900Y-16070000D02*
X23376900Y-16070000D01*
X23376900Y-16070000D02*
G75*
G03*
X23376900Y-16010000I0J30000D01*
G01*
X23376900Y-16010000D02*
X23266900Y-16010000D01*
X23266900Y-16010000D02*
G75*
G03*
X23266900Y-16070000I0J-30000D01*
G01*
X23761213Y-15197113D02*
X23761213Y-15154687D01*
X23718787Y-15154687D01*
X23718787Y-15197113D01*
X23761213Y-15197113D01*
X23700000Y-15205900D02*
X23780000Y-15205900D01*
X23780000Y-15205900D02*
G75*
G03*
X23780000Y-15145900I0J30000D01*
G01*
X23780000Y-15145900D02*
X23700000Y-15145900D01*
X23700000Y-15145900D02*
G75*
G03*
X23700000Y-15205900I0J-30000D01*
G01*
X23761213Y-16061213D02*
X23761213Y-16018787D01*
X23718787Y-16018787D01*
X23718787Y-16061213D01*
X23761213Y-16061213D01*
X23700000Y-16070000D02*
X23780000Y-16070000D01*
X23780000Y-16070000D02*
G75*
G03*
X23780000Y-16010000I0J30000D01*
G01*
X23780000Y-16010000D02*
X23700000Y-16010000D01*
X23700000Y-16010000D02*
G75*
G03*
X23700000Y-16070000I0J-30000D01*
G01*
X14209500Y-13688650D02*
X14253950Y-13644200D01*
X14209500Y-13599750D01*
X14165050Y-13644200D01*
X14209500Y-13688650D01*
X14209500Y-14323750D02*
X14253950Y-14279300D01*
X14209500Y-14234850D01*
X14165050Y-14279300D01*
X14209500Y-14323750D01*
X14335600Y-13434750D02*
X14380050Y-13390300D01*
X14335600Y-13345850D01*
X14291150Y-13390300D01*
X14335600Y-13434750D01*
X14336400Y-14577650D02*
X14380850Y-14533200D01*
X14336400Y-14488750D01*
X14291950Y-14533200D01*
X14336400Y-14577650D01*
X14589500Y-13561650D02*
X14633950Y-13517200D01*
X14589500Y-13472750D01*
X14545050Y-13517200D01*
X14589500Y-13561650D01*
X14589500Y-13815650D02*
X14633950Y-13771200D01*
X14589500Y-13726750D01*
X14545050Y-13771200D01*
X14589500Y-13815650D01*
X14589500Y-14069650D02*
X14633950Y-14025200D01*
X14589500Y-13980750D01*
X14545050Y-14025200D01*
X14589500Y-14069650D01*
X14589500Y-14323750D02*
X14633950Y-14279300D01*
X14589500Y-14234850D01*
X14545050Y-14279300D01*
X14589500Y-14323750D01*
X14589500Y-14577650D02*
X14633950Y-14533200D01*
X14589500Y-14488750D01*
X14545050Y-14533200D01*
X14589500Y-14577650D01*
X14843400Y-13434750D02*
X14887850Y-13390300D01*
X14843400Y-13345850D01*
X14798950Y-13390300D01*
X14843400Y-13434750D01*
X14843400Y-13688650D02*
X14887850Y-13644200D01*
X14843400Y-13599750D01*
X14798950Y-13644200D01*
X14843400Y-13688650D01*
X14843400Y-13942550D02*
X14887850Y-13898100D01*
X14843400Y-13853650D01*
X14798950Y-13898100D01*
X14843400Y-13942550D01*
X14843400Y-14196550D02*
X14887850Y-14152100D01*
X14843400Y-14107650D01*
X14798950Y-14152100D01*
X14843400Y-14196550D01*
X14843400Y-14450650D02*
X14887850Y-14406200D01*
X14843400Y-14361750D01*
X14798950Y-14406200D01*
X14843400Y-14450650D01*
X21937900Y-13579500D02*
X22027900Y-13669500D01*
X22027900Y-13579500D02*
X21937900Y-13669500D01*
X22027900Y-13624500D02*
G75*
G03*
X21937900Y-13624500I-45000J0D01*
G01*
X21937900Y-13624500D02*
G75*
G03*
X22027900Y-13624500I45000J0D01*
G01*
X21937900Y-13833500D02*
X22027900Y-13923500D01*
X22027900Y-13833500D02*
X21937900Y-13923500D01*
X22027900Y-13878500D02*
G75*
G03*
X21937900Y-13878500I-45000J0D01*
G01*
X21937900Y-13878500D02*
G75*
G03*
X22027900Y-13878500I45000J0D01*
G01*
X21937900Y-14087500D02*
X22027900Y-14177500D01*
X22027900Y-14087500D02*
X21937900Y-14177500D01*
X22027900Y-14132500D02*
G75*
G03*
X21937900Y-14132500I-45000J0D01*
G01*
X21937900Y-14132500D02*
G75*
G03*
X22027900Y-14132500I45000J0D01*
G01*
X21937900Y-14341500D02*
X22027900Y-14431500D01*
X22027900Y-14341500D02*
X21937900Y-14431500D01*
X22027900Y-14386500D02*
G75*
G03*
X21937900Y-14386500I-45000J0D01*
G01*
X21937900Y-14386500D02*
G75*
G03*
X22027900Y-14386500I45000J0D01*
G01*
X21937900Y-14595500D02*
X22027900Y-14685500D01*
X22027900Y-14595500D02*
X21937900Y-14685500D01*
X22027900Y-14640500D02*
G75*
G03*
X21937900Y-14640500I-45000J0D01*
G01*
X21937900Y-14640500D02*
G75*
G03*
X22027900Y-14640500I45000J0D01*
G01*
X22192000Y-13452500D02*
X22282000Y-13542500D01*
X22282000Y-13452500D02*
X22192000Y-13542500D01*
X22282000Y-13497500D02*
G75*
G03*
X22192000Y-13497500I-45000J0D01*
G01*
X22192000Y-13497500D02*
G75*
G03*
X22282000Y-13497500I45000J0D01*
G01*
X22192000Y-13706400D02*
X22282000Y-13796400D01*
X22282000Y-13706400D02*
X22192000Y-13796400D01*
X22282000Y-13751400D02*
G75*
G03*
X22192000Y-13751400I-45000J0D01*
G01*
X22192000Y-13751400D02*
G75*
G03*
X22282000Y-13751400I45000J0D01*
G01*
X22192000Y-13960400D02*
X22282000Y-14050400D01*
X22282000Y-13960400D02*
X22192000Y-14050400D01*
X22282000Y-14005400D02*
G75*
G03*
X22192000Y-14005400I-45000J0D01*
G01*
X22192000Y-14005400D02*
G75*
G03*
X22282000Y-14005400I45000J0D01*
G01*
X22192000Y-14214500D02*
X22282000Y-14304500D01*
X22282000Y-14214500D02*
X22192000Y-14304500D01*
X22282000Y-14259500D02*
G75*
G03*
X22192000Y-14259500I-45000J0D01*
G01*
X22192000Y-14259500D02*
G75*
G03*
X22282000Y-14259500I45000J0D01*
G01*
X22192000Y-14468500D02*
X22282000Y-14558500D01*
X22282000Y-14468500D02*
X22192000Y-14558500D01*
X22282000Y-14513500D02*
G75*
G03*
X22192000Y-14513500I-45000J0D01*
G01*
X22192000Y-14513500D02*
G75*
G03*
X22282000Y-14513500I45000J0D01*
G01*
D13*
X13496800Y-13246800D02*
X13598400Y-13348400D01*
X13598400Y-13246800D02*
X13496800Y-13348400D01*
X13547600Y-13246800D02*
X13547600Y-13348400D01*
X13496800Y-13297600D02*
X13598400Y-13297600D01*
X13496800Y-13500900D02*
X13598400Y-13602500D01*
X13598400Y-13500900D02*
X13496800Y-13602500D01*
X13547600Y-13500900D02*
X13547600Y-13602500D01*
X13496800Y-13551700D02*
X13598400Y-13551700D01*
X13496800Y-14320900D02*
X13598400Y-14422500D01*
X13598400Y-14320900D02*
X13496800Y-14422500D01*
X13547600Y-14320900D02*
X13547600Y-14422500D01*
X13496800Y-14371700D02*
X13598400Y-14371700D01*
X13496800Y-14575000D02*
X13598400Y-14676600D01*
X13598400Y-14575000D02*
X13496800Y-14676600D01*
X13547600Y-14575000D02*
X13547600Y-14676600D01*
X13496800Y-14625800D02*
X13598400Y-14625800D01*
D14*
X13271000Y-15297000D02*
X13373000Y-15399000D01*
X13373000Y-15297000D02*
X13271000Y-15399000D01*
X13358063Y-15384063D02*
X13358063Y-15311937D01*
X13285937Y-15311937D01*
X13285937Y-15384063D01*
X13358063Y-15384063D01*
X13271000Y-16059000D02*
X13373000Y-16161000D01*
X13373000Y-16059000D02*
X13271000Y-16161000D01*
X13358063Y-16146063D02*
X13358063Y-16073937D01*
X13285937Y-16073937D01*
X13285937Y-16146063D01*
X13358063Y-16146063D01*
X13271000Y-16821000D02*
X13373000Y-16923000D01*
X13373000Y-16821000D02*
X13271000Y-16923000D01*
X13358063Y-16908063D02*
X13358063Y-16835937D01*
X13285937Y-16835937D01*
X13285937Y-16908063D01*
X13358063Y-16908063D01*
X18351000Y-15678000D02*
X18453000Y-15780000D01*
X18453000Y-15678000D02*
X18351000Y-15780000D01*
X18438063Y-15765063D02*
X18438063Y-15692937D01*
X18365937Y-15692937D01*
X18365937Y-15765063D01*
X18438063Y-15765063D01*
X18351000Y-16059000D02*
X18453000Y-16161000D01*
X18453000Y-16059000D02*
X18351000Y-16161000D01*
X18438063Y-16146063D02*
X18438063Y-16073937D01*
X18365937Y-16073937D01*
X18365937Y-16146063D01*
X18438063Y-16146063D01*
X18351000Y-16440000D02*
X18453000Y-16542000D01*
X18453000Y-16440000D02*
X18351000Y-16542000D01*
X18438063Y-16527063D02*
X18438063Y-16454937D01*
X18365937Y-16454937D01*
X18365937Y-16527063D01*
X18438063Y-16527063D01*
X23229000Y-13354900D02*
X23331000Y-13456900D01*
X23331000Y-13354900D02*
X23229000Y-13456900D01*
X23316063Y-13441963D02*
X23316063Y-13369837D01*
X23243937Y-13369837D01*
X23243937Y-13441963D01*
X23316063Y-13441963D01*
X23229000Y-13609000D02*
X23331000Y-13711000D01*
X23331000Y-13609000D02*
X23229000Y-13711000D01*
X23316063Y-13696063D02*
X23316063Y-13623937D01*
X23243937Y-13623937D01*
X23243937Y-13696063D01*
X23316063Y-13696063D01*
X23229000Y-14427000D02*
X23331000Y-14529000D01*
X23331000Y-14427000D02*
X23229000Y-14529000D01*
X23316063Y-14514063D02*
X23316063Y-14441937D01*
X23243937Y-14441937D01*
X23243937Y-14514063D01*
X23316063Y-14514063D01*
X23229000Y-14681000D02*
X23331000Y-14783000D01*
X23331000Y-14681000D02*
X23229000Y-14783000D01*
X23316063Y-14768063D02*
X23316063Y-14695937D01*
X23243937Y-14695937D01*
X23243937Y-14768063D01*
X23316063Y-14768063D01*
D15*
X18323500Y-15269500D02*
X18480500Y-15426500D01*
X18480500Y-15269500D02*
X18323500Y-15426500D01*
X18402000Y-15426500D02*
X18480500Y-15348000D01*
X18402000Y-15269500D01*
X18323500Y-15348000D01*
X18402000Y-15426500D01*
X18323500Y-16793500D02*
X18480500Y-16950500D01*
X18480500Y-16793500D02*
X18323500Y-16950500D01*
X18402000Y-16950500D02*
X18480500Y-16872000D01*
X18402000Y-16793500D01*
X18323500Y-16872000D01*
X18402000Y-16950500D01*
D16*
X14258400Y-13096700D02*
X14258400Y-13256700D01*
X14178400Y-13176700D02*
X14338400Y-13176700D01*
X14338400Y-13176700D02*
G75*
G03*
X14178400Y-13176700I-80000J0D01*
G01*
X14178400Y-13176700D02*
G75*
G03*
X14338400Y-13176700I80000J0D01*
G01*
X22567100Y-13214300D02*
X22567100Y-13374300D01*
X22487100Y-13294300D02*
X22647100Y-13294300D01*
X22647100Y-13294300D02*
G75*
G03*
X22487100Y-13294300I-80000J0D01*
G01*
X22487100Y-13294300D02*
G75*
G03*
X22647100Y-13294300I80000J0D01*
G01*
X22567100Y-14763500D02*
X22567100Y-14923500D01*
X22487100Y-14843500D02*
X22647100Y-14843500D01*
X22647100Y-14843500D02*
G75*
G03*
X22487100Y-14843500I-80000J0D01*
G01*
X22487100Y-14843500D02*
G75*
G03*
X22647100Y-14843500I80000J0D01*
G01*
D17*
X14314976Y-14803176D02*
X14314976Y-14690024D01*
X14201824Y-14690024D01*
X14201824Y-14803176D01*
X14314976Y-14803176D01*
X14338410Y-14746600D02*
G75*
G03*
X14178390Y-14746600I-80010J0D01*
G01*
X14178390Y-14746600D02*
G75*
G03*
X14338410Y-14746600I80010J0D01*
G01*
D18*
X13150000Y-12975000D02*
X13285000Y-12840000D01*
X13150000Y-12705000D01*
X13015000Y-12840000D01*
X13150000Y-12975000D01*
X13285000Y-12840000D02*
G75*
G03*
X13015000Y-12840000I-135000J0D01*
G01*
X13015000Y-12840000D02*
G75*
G03*
X13285000Y-12840000I135000J0D01*
G01*
X13150000Y-17815000D02*
X13285000Y-17680000D01*
X13150000Y-17545000D01*
X13015000Y-17680000D01*
X13150000Y-17815000D01*
X13285000Y-17680000D02*
G75*
G03*
X13015000Y-17680000I-135000J0D01*
G01*
X13015000Y-17680000D02*
G75*
G03*
X13285000Y-17680000I135000J0D01*
G01*
X23780000Y-12975000D02*
X23915000Y-12840000D01*
X23780000Y-12705000D01*
X23645000Y-12840000D01*
X23780000Y-12975000D01*
X23915000Y-12840000D02*
G75*
G03*
X23645000Y-12840000I-135000J0D01*
G01*
X23645000Y-12840000D02*
G75*
G03*
X23915000Y-12840000I135000J0D01*
G01*
X23780000Y-17835000D02*
X23915000Y-17700000D01*
X23780000Y-17565000D01*
X23645000Y-17700000D01*
X23780000Y-17835000D01*
X23915000Y-17700000D02*
G75*
G03*
X23645000Y-17700000I-135000J0D01*
G01*
X23645000Y-17700000D02*
G75*
G03*
X23915000Y-17700000I135000J0D01*
G01*
D11*
X13108277Y-18313984D02*
X13108277Y-18113984D01*
X13108277Y-18113984D02*
X13155896Y-18113984D01*
X13155896Y-18113984D02*
X13184467Y-18123508D01*
X13184467Y-18123508D02*
X13203515Y-18142555D01*
X13203515Y-18142555D02*
X13213039Y-18161603D01*
X13213039Y-18161603D02*
X13222562Y-18199698D01*
X13222562Y-18199698D02*
X13222562Y-18228270D01*
X13222562Y-18228270D02*
X13213039Y-18266365D01*
X13213039Y-18266365D02*
X13203515Y-18285412D01*
X13203515Y-18285412D02*
X13184467Y-18304460D01*
X13184467Y-18304460D02*
X13155896Y-18313984D01*
X13155896Y-18313984D02*
X13108277Y-18313984D01*
X13308277Y-18313984D02*
X13308277Y-18180650D01*
X13308277Y-18218746D02*
X13317801Y-18199698D01*
X13317801Y-18199698D02*
X13327324Y-18190174D01*
X13327324Y-18190174D02*
X13346372Y-18180650D01*
X13346372Y-18180650D02*
X13365420Y-18180650D01*
X13432086Y-18313984D02*
X13432086Y-18180650D01*
X13432086Y-18113984D02*
X13422562Y-18123508D01*
X13422562Y-18123508D02*
X13432086Y-18133031D01*
X13432086Y-18133031D02*
X13441610Y-18123508D01*
X13441610Y-18123508D02*
X13432086Y-18113984D01*
X13432086Y-18113984D02*
X13432086Y-18133031D01*
X13555896Y-18313984D02*
X13536848Y-18304460D01*
X13536848Y-18304460D02*
X13527324Y-18285412D01*
X13527324Y-18285412D02*
X13527324Y-18113984D01*
X13660658Y-18313984D02*
X13641610Y-18304460D01*
X13641610Y-18304460D02*
X13632086Y-18285412D01*
X13632086Y-18285412D02*
X13632086Y-18113984D01*
X13889229Y-18313984D02*
X13889229Y-18113984D01*
X13889229Y-18113984D02*
X13955896Y-18256841D01*
X13955896Y-18256841D02*
X14022562Y-18113984D01*
X14022562Y-18113984D02*
X14022562Y-18313984D01*
X14203515Y-18313984D02*
X14203515Y-18209222D01*
X14203515Y-18209222D02*
X14193991Y-18190174D01*
X14193991Y-18190174D02*
X14174943Y-18180650D01*
X14174943Y-18180650D02*
X14136848Y-18180650D01*
X14136848Y-18180650D02*
X14117801Y-18190174D01*
X14203515Y-18304460D02*
X14184467Y-18313984D01*
X14184467Y-18313984D02*
X14136848Y-18313984D01*
X14136848Y-18313984D02*
X14117801Y-18304460D01*
X14117801Y-18304460D02*
X14108277Y-18285412D01*
X14108277Y-18285412D02*
X14108277Y-18266365D01*
X14108277Y-18266365D02*
X14117801Y-18247317D01*
X14117801Y-18247317D02*
X14136848Y-18237793D01*
X14136848Y-18237793D02*
X14184467Y-18237793D01*
X14184467Y-18237793D02*
X14203515Y-18228270D01*
X14298753Y-18180650D02*
X14298753Y-18380650D01*
X14298753Y-18190174D02*
X14317801Y-18180650D01*
X14317801Y-18180650D02*
X14355896Y-18180650D01*
X14355896Y-18180650D02*
X14374943Y-18190174D01*
X14374943Y-18190174D02*
X14384467Y-18199698D01*
X14384467Y-18199698D02*
X14393991Y-18218746D01*
X14393991Y-18218746D02*
X14393991Y-18275889D01*
X14393991Y-18275889D02*
X14384467Y-18294936D01*
X14384467Y-18294936D02*
X14374943Y-18304460D01*
X14374943Y-18304460D02*
X14355896Y-18313984D01*
X14355896Y-18313984D02*
X14317801Y-18313984D01*
X14317801Y-18313984D02*
X14298753Y-18304460D01*
X14479705Y-18294936D02*
X14489229Y-18304460D01*
X14489229Y-18304460D02*
X14479705Y-18313984D01*
X14479705Y-18313984D02*
X14470182Y-18304460D01*
X14470182Y-18304460D02*
X14479705Y-18294936D01*
X14479705Y-18294936D02*
X14479705Y-18313984D01*
X14479705Y-18190174D02*
X14489229Y-18199698D01*
X14489229Y-18199698D02*
X14479705Y-18209222D01*
X14479705Y-18209222D02*
X14470182Y-18199698D01*
X14470182Y-18199698D02*
X14479705Y-18190174D01*
X14479705Y-18190174D02*
X14479705Y-18209222D01*
D12*
X12837500Y-18637500D02*
X12847500Y-18647500D01*
X12847500Y-18637500D02*
X12837500Y-18647500D01*
D11*
X13146372Y-18533984D02*
X13165420Y-18533984D01*
X13165420Y-18533984D02*
X13184467Y-18543508D01*
X13184467Y-18543508D02*
X13193991Y-18553031D01*
X13193991Y-18553031D02*
X13203515Y-18572079D01*
X13203515Y-18572079D02*
X13213039Y-18610174D01*
X13213039Y-18610174D02*
X13213039Y-18657793D01*
X13213039Y-18657793D02*
X13203515Y-18695889D01*
X13203515Y-18695889D02*
X13193991Y-18714936D01*
X13193991Y-18714936D02*
X13184467Y-18724460D01*
X13184467Y-18724460D02*
X13165420Y-18733984D01*
X13165420Y-18733984D02*
X13146372Y-18733984D01*
X13146372Y-18733984D02*
X13127324Y-18724460D01*
X13127324Y-18724460D02*
X13117801Y-18714936D01*
X13117801Y-18714936D02*
X13108277Y-18695889D01*
X13108277Y-18695889D02*
X13098753Y-18657793D01*
X13098753Y-18657793D02*
X13098753Y-18610174D01*
X13098753Y-18610174D02*
X13108277Y-18572079D01*
X13108277Y-18572079D02*
X13117801Y-18553031D01*
X13117801Y-18553031D02*
X13127324Y-18543508D01*
X13127324Y-18543508D02*
X13146372Y-18533984D01*
X13298753Y-18714936D02*
X13308277Y-18724460D01*
X13308277Y-18724460D02*
X13298753Y-18733984D01*
X13298753Y-18733984D02*
X13289229Y-18724460D01*
X13289229Y-18724460D02*
X13298753Y-18714936D01*
X13298753Y-18714936D02*
X13298753Y-18733984D01*
X13498753Y-18733984D02*
X13384467Y-18733984D01*
X13441610Y-18733984D02*
X13441610Y-18533984D01*
X13441610Y-18533984D02*
X13422562Y-18562555D01*
X13422562Y-18562555D02*
X13403515Y-18581603D01*
X13403515Y-18581603D02*
X13384467Y-18591127D01*
X13622562Y-18533984D02*
X13641610Y-18533984D01*
X13641610Y-18533984D02*
X13660658Y-18543508D01*
X13660658Y-18543508D02*
X13670182Y-18553031D01*
X13670182Y-18553031D02*
X13679705Y-18572079D01*
X13679705Y-18572079D02*
X13689229Y-18610174D01*
X13689229Y-18610174D02*
X13689229Y-18657793D01*
X13689229Y-18657793D02*
X13679705Y-18695889D01*
X13679705Y-18695889D02*
X13670182Y-18714936D01*
X13670182Y-18714936D02*
X13660658Y-18724460D01*
X13660658Y-18724460D02*
X13641610Y-18733984D01*
X13641610Y-18733984D02*
X13622562Y-18733984D01*
X13622562Y-18733984D02*
X13603515Y-18724460D01*
X13603515Y-18724460D02*
X13593991Y-18714936D01*
X13593991Y-18714936D02*
X13584467Y-18695889D01*
X13584467Y-18695889D02*
X13574943Y-18657793D01*
X13574943Y-18657793D02*
X13574943Y-18610174D01*
X13574943Y-18610174D02*
X13584467Y-18572079D01*
X13584467Y-18572079D02*
X13593991Y-18553031D01*
X13593991Y-18553031D02*
X13603515Y-18543508D01*
X13603515Y-18543508D02*
X13622562Y-18533984D01*
X13813039Y-18533984D02*
X13832086Y-18533984D01*
X13832086Y-18533984D02*
X13851134Y-18543508D01*
X13851134Y-18543508D02*
X13860658Y-18553031D01*
X13860658Y-18553031D02*
X13870182Y-18572079D01*
X13870182Y-18572079D02*
X13879705Y-18610174D01*
X13879705Y-18610174D02*
X13879705Y-18657793D01*
X13879705Y-18657793D02*
X13870182Y-18695889D01*
X13870182Y-18695889D02*
X13860658Y-18714936D01*
X13860658Y-18714936D02*
X13851134Y-18724460D01*
X13851134Y-18724460D02*
X13832086Y-18733984D01*
X13832086Y-18733984D02*
X13813039Y-18733984D01*
X13813039Y-18733984D02*
X13793991Y-18724460D01*
X13793991Y-18724460D02*
X13784467Y-18714936D01*
X13784467Y-18714936D02*
X13774943Y-18695889D01*
X13774943Y-18695889D02*
X13765420Y-18657793D01*
X13765420Y-18657793D02*
X13765420Y-18610174D01*
X13765420Y-18610174D02*
X13774943Y-18572079D01*
X13774943Y-18572079D02*
X13784467Y-18553031D01*
X13784467Y-18553031D02*
X13793991Y-18543508D01*
X13793991Y-18543508D02*
X13813039Y-18533984D01*
X13965420Y-18733984D02*
X13965420Y-18600650D01*
X13965420Y-18619698D02*
X13974943Y-18610174D01*
X13974943Y-18610174D02*
X13993991Y-18600650D01*
X13993991Y-18600650D02*
X14022563Y-18600650D01*
X14022563Y-18600650D02*
X14041610Y-18610174D01*
X14041610Y-18610174D02*
X14051134Y-18629222D01*
X14051134Y-18629222D02*
X14051134Y-18733984D01*
X14051134Y-18629222D02*
X14060658Y-18610174D01*
X14060658Y-18610174D02*
X14079705Y-18600650D01*
X14079705Y-18600650D02*
X14108277Y-18600650D01*
X14108277Y-18600650D02*
X14127324Y-18610174D01*
X14127324Y-18610174D02*
X14136848Y-18629222D01*
X14136848Y-18629222D02*
X14136848Y-18733984D01*
X14232086Y-18733984D02*
X14232086Y-18600650D01*
X14232086Y-18619698D02*
X14241610Y-18610174D01*
X14241610Y-18610174D02*
X14260658Y-18600650D01*
X14260658Y-18600650D02*
X14289229Y-18600650D01*
X14289229Y-18600650D02*
X14308277Y-18610174D01*
X14308277Y-18610174D02*
X14317801Y-18629222D01*
X14317801Y-18629222D02*
X14317801Y-18733984D01*
X14317801Y-18629222D02*
X14327324Y-18610174D01*
X14327324Y-18610174D02*
X14346372Y-18600650D01*
X14346372Y-18600650D02*
X14374943Y-18600650D01*
X14374943Y-18600650D02*
X14393991Y-18610174D01*
X14393991Y-18610174D02*
X14403515Y-18629222D01*
X14403515Y-18629222D02*
X14403515Y-18733984D01*
X14793991Y-18524460D02*
X14622563Y-18781603D01*
X15051134Y-18533984D02*
X15070182Y-18533984D01*
X15070182Y-18533984D02*
X15089229Y-18543508D01*
X15089229Y-18543508D02*
X15098753Y-18553031D01*
X15098753Y-18553031D02*
X15108277Y-18572079D01*
X15108277Y-18572079D02*
X15117801Y-18610174D01*
X15117801Y-18610174D02*
X15117801Y-18657793D01*
X15117801Y-18657793D02*
X15108277Y-18695889D01*
X15108277Y-18695889D02*
X15098753Y-18714936D01*
X15098753Y-18714936D02*
X15089229Y-18724460D01*
X15089229Y-18724460D02*
X15070182Y-18733984D01*
X15070182Y-18733984D02*
X15051134Y-18733984D01*
X15051134Y-18733984D02*
X15032086Y-18724460D01*
X15032086Y-18724460D02*
X15022563Y-18714936D01*
X15022563Y-18714936D02*
X15013039Y-18695889D01*
X15013039Y-18695889D02*
X15003515Y-18657793D01*
X15003515Y-18657793D02*
X15003515Y-18610174D01*
X15003515Y-18610174D02*
X15013039Y-18572079D01*
X15013039Y-18572079D02*
X15022563Y-18553031D01*
X15022563Y-18553031D02*
X15032086Y-18543508D01*
X15032086Y-18543508D02*
X15051134Y-18533984D01*
X15203515Y-18714936D02*
X15213039Y-18724460D01*
X15213039Y-18724460D02*
X15203515Y-18733984D01*
X15203515Y-18733984D02*
X15193991Y-18724460D01*
X15193991Y-18724460D02*
X15203515Y-18714936D01*
X15203515Y-18714936D02*
X15203515Y-18733984D01*
X15336848Y-18533984D02*
X15355896Y-18533984D01*
X15355896Y-18533984D02*
X15374944Y-18543508D01*
X15374944Y-18543508D02*
X15384467Y-18553031D01*
X15384467Y-18553031D02*
X15393991Y-18572079D01*
X15393991Y-18572079D02*
X15403515Y-18610174D01*
X15403515Y-18610174D02*
X15403515Y-18657793D01*
X15403515Y-18657793D02*
X15393991Y-18695889D01*
X15393991Y-18695889D02*
X15384467Y-18714936D01*
X15384467Y-18714936D02*
X15374944Y-18724460D01*
X15374944Y-18724460D02*
X15355896Y-18733984D01*
X15355896Y-18733984D02*
X15336848Y-18733984D01*
X15336848Y-18733984D02*
X15317801Y-18724460D01*
X15317801Y-18724460D02*
X15308277Y-18714936D01*
X15308277Y-18714936D02*
X15298753Y-18695889D01*
X15298753Y-18695889D02*
X15289229Y-18657793D01*
X15289229Y-18657793D02*
X15289229Y-18610174D01*
X15289229Y-18610174D02*
X15298753Y-18572079D01*
X15298753Y-18572079D02*
X15308277Y-18553031D01*
X15308277Y-18553031D02*
X15317801Y-18543508D01*
X15317801Y-18543508D02*
X15336848Y-18533984D01*
X15527325Y-18533984D02*
X15546372Y-18533984D01*
X15546372Y-18533984D02*
X15565420Y-18543508D01*
X15565420Y-18543508D02*
X15574944Y-18553031D01*
X15574944Y-18553031D02*
X15584467Y-18572079D01*
X15584467Y-18572079D02*
X15593991Y-18610174D01*
X15593991Y-18610174D02*
X15593991Y-18657793D01*
X15593991Y-18657793D02*
X15584467Y-18695889D01*
X15584467Y-18695889D02*
X15574944Y-18714936D01*
X15574944Y-18714936D02*
X15565420Y-18724460D01*
X15565420Y-18724460D02*
X15546372Y-18733984D01*
X15546372Y-18733984D02*
X15527325Y-18733984D01*
X15527325Y-18733984D02*
X15508277Y-18724460D01*
X15508277Y-18724460D02*
X15498753Y-18714936D01*
X15498753Y-18714936D02*
X15489229Y-18695889D01*
X15489229Y-18695889D02*
X15479706Y-18657793D01*
X15479706Y-18657793D02*
X15479706Y-18610174D01*
X15479706Y-18610174D02*
X15489229Y-18572079D01*
X15489229Y-18572079D02*
X15498753Y-18553031D01*
X15498753Y-18553031D02*
X15508277Y-18543508D01*
X15508277Y-18543508D02*
X15527325Y-18533984D01*
X15660658Y-18533984D02*
X15784467Y-18533984D01*
X15784467Y-18533984D02*
X15717801Y-18610174D01*
X15717801Y-18610174D02*
X15746372Y-18610174D01*
X15746372Y-18610174D02*
X15765420Y-18619698D01*
X15765420Y-18619698D02*
X15774944Y-18629222D01*
X15774944Y-18629222D02*
X15784467Y-18648270D01*
X15784467Y-18648270D02*
X15784467Y-18695889D01*
X15784467Y-18695889D02*
X15774944Y-18714936D01*
X15774944Y-18714936D02*
X15765420Y-18724460D01*
X15765420Y-18724460D02*
X15746372Y-18733984D01*
X15746372Y-18733984D02*
X15689229Y-18733984D01*
X15689229Y-18733984D02*
X15670182Y-18724460D01*
X15670182Y-18724460D02*
X15660658Y-18714936D01*
X15879706Y-18733984D02*
X15917801Y-18733984D01*
X15917801Y-18733984D02*
X15936848Y-18724460D01*
X15936848Y-18724460D02*
X15946372Y-18714936D01*
X15946372Y-18714936D02*
X15965420Y-18686365D01*
X15965420Y-18686365D02*
X15974944Y-18648270D01*
X15974944Y-18648270D02*
X15974944Y-18572079D01*
X15974944Y-18572079D02*
X15965420Y-18553031D01*
X15965420Y-18553031D02*
X15955896Y-18543508D01*
X15955896Y-18543508D02*
X15936848Y-18533984D01*
X15936848Y-18533984D02*
X15898753Y-18533984D01*
X15898753Y-18533984D02*
X15879706Y-18543508D01*
X15879706Y-18543508D02*
X15870182Y-18553031D01*
X15870182Y-18553031D02*
X15860658Y-18572079D01*
X15860658Y-18572079D02*
X15860658Y-18619698D01*
X15860658Y-18619698D02*
X15870182Y-18638746D01*
X15870182Y-18638746D02*
X15879706Y-18648270D01*
X15879706Y-18648270D02*
X15898753Y-18657793D01*
X15898753Y-18657793D02*
X15936848Y-18657793D01*
X15936848Y-18657793D02*
X15955896Y-18648270D01*
X15955896Y-18648270D02*
X15965420Y-18638746D01*
X15965420Y-18638746D02*
X15974944Y-18619698D01*
X16051134Y-18533984D02*
X16051134Y-18572079D01*
X16127325Y-18533984D02*
X16127325Y-18572079D01*
X16422563Y-18810174D02*
X16413039Y-18800650D01*
X16413039Y-18800650D02*
X16393991Y-18772079D01*
X16393991Y-18772079D02*
X16384468Y-18753031D01*
X16384468Y-18753031D02*
X16374944Y-18724460D01*
X16374944Y-18724460D02*
X16365420Y-18676841D01*
X16365420Y-18676841D02*
X16365420Y-18638746D01*
X16365420Y-18638746D02*
X16374944Y-18591127D01*
X16374944Y-18591127D02*
X16384468Y-18562555D01*
X16384468Y-18562555D02*
X16393991Y-18543508D01*
X16393991Y-18543508D02*
X16413039Y-18514936D01*
X16413039Y-18514936D02*
X16422563Y-18505412D01*
X16489229Y-18553031D02*
X16498753Y-18543508D01*
X16498753Y-18543508D02*
X16517801Y-18533984D01*
X16517801Y-18533984D02*
X16565420Y-18533984D01*
X16565420Y-18533984D02*
X16584468Y-18543508D01*
X16584468Y-18543508D02*
X16593991Y-18553031D01*
X16593991Y-18553031D02*
X16603515Y-18572079D01*
X16603515Y-18572079D02*
X16603515Y-18591127D01*
X16603515Y-18591127D02*
X16593991Y-18619698D01*
X16593991Y-18619698D02*
X16479706Y-18733984D01*
X16479706Y-18733984D02*
X16603515Y-18733984D01*
X16670182Y-18533984D02*
X16793991Y-18533984D01*
X16793991Y-18533984D02*
X16727325Y-18610174D01*
X16727325Y-18610174D02*
X16755896Y-18610174D01*
X16755896Y-18610174D02*
X16774944Y-18619698D01*
X16774944Y-18619698D02*
X16784468Y-18629222D01*
X16784468Y-18629222D02*
X16793991Y-18648270D01*
X16793991Y-18648270D02*
X16793991Y-18695889D01*
X16793991Y-18695889D02*
X16784468Y-18714936D01*
X16784468Y-18714936D02*
X16774944Y-18724460D01*
X16774944Y-18724460D02*
X16755896Y-18733984D01*
X16755896Y-18733984D02*
X16698753Y-18733984D01*
X16698753Y-18733984D02*
X16679706Y-18724460D01*
X16679706Y-18724460D02*
X16670182Y-18714936D01*
X17032087Y-18733984D02*
X17032087Y-18533984D01*
X17117801Y-18733984D02*
X17117801Y-18629222D01*
X17117801Y-18629222D02*
X17108277Y-18610174D01*
X17108277Y-18610174D02*
X17089230Y-18600650D01*
X17089230Y-18600650D02*
X17060658Y-18600650D01*
X17060658Y-18600650D02*
X17041611Y-18610174D01*
X17041611Y-18610174D02*
X17032087Y-18619698D01*
X17241611Y-18733984D02*
X17222563Y-18724460D01*
X17222563Y-18724460D02*
X17213039Y-18714936D01*
X17213039Y-18714936D02*
X17203515Y-18695889D01*
X17203515Y-18695889D02*
X17203515Y-18638746D01*
X17203515Y-18638746D02*
X17213039Y-18619698D01*
X17213039Y-18619698D02*
X17222563Y-18610174D01*
X17222563Y-18610174D02*
X17241611Y-18600650D01*
X17241611Y-18600650D02*
X17270182Y-18600650D01*
X17270182Y-18600650D02*
X17289230Y-18610174D01*
X17289230Y-18610174D02*
X17298753Y-18619698D01*
X17298753Y-18619698D02*
X17308277Y-18638746D01*
X17308277Y-18638746D02*
X17308277Y-18695889D01*
X17308277Y-18695889D02*
X17298753Y-18714936D01*
X17298753Y-18714936D02*
X17289230Y-18724460D01*
X17289230Y-18724460D02*
X17270182Y-18733984D01*
X17270182Y-18733984D02*
X17241611Y-18733984D01*
X17422563Y-18733984D02*
X17403515Y-18724460D01*
X17403515Y-18724460D02*
X17393992Y-18705412D01*
X17393992Y-18705412D02*
X17393992Y-18533984D01*
X17574944Y-18724460D02*
X17555896Y-18733984D01*
X17555896Y-18733984D02*
X17517801Y-18733984D01*
X17517801Y-18733984D02*
X17498753Y-18724460D01*
X17498753Y-18724460D02*
X17489230Y-18705412D01*
X17489230Y-18705412D02*
X17489230Y-18629222D01*
X17489230Y-18629222D02*
X17498753Y-18610174D01*
X17498753Y-18610174D02*
X17517801Y-18600650D01*
X17517801Y-18600650D02*
X17555896Y-18600650D01*
X17555896Y-18600650D02*
X17574944Y-18610174D01*
X17574944Y-18610174D02*
X17584468Y-18629222D01*
X17584468Y-18629222D02*
X17584468Y-18648270D01*
X17584468Y-18648270D02*
X17489230Y-18667317D01*
X17660658Y-18724460D02*
X17679706Y-18733984D01*
X17679706Y-18733984D02*
X17717801Y-18733984D01*
X17717801Y-18733984D02*
X17736849Y-18724460D01*
X17736849Y-18724460D02*
X17746373Y-18705412D01*
X17746373Y-18705412D02*
X17746373Y-18695889D01*
X17746373Y-18695889D02*
X17736849Y-18676841D01*
X17736849Y-18676841D02*
X17717801Y-18667317D01*
X17717801Y-18667317D02*
X17689230Y-18667317D01*
X17689230Y-18667317D02*
X17670182Y-18657793D01*
X17670182Y-18657793D02*
X17660658Y-18638746D01*
X17660658Y-18638746D02*
X17660658Y-18629222D01*
X17660658Y-18629222D02*
X17670182Y-18610174D01*
X17670182Y-18610174D02*
X17689230Y-18600650D01*
X17689230Y-18600650D02*
X17717801Y-18600650D01*
X17717801Y-18600650D02*
X17736849Y-18610174D01*
X17813039Y-18810174D02*
X17822563Y-18800650D01*
X17822563Y-18800650D02*
X17841611Y-18772079D01*
X17841611Y-18772079D02*
X17851134Y-18753031D01*
X17851134Y-18753031D02*
X17860658Y-18724460D01*
X17860658Y-18724460D02*
X17870182Y-18676841D01*
X17870182Y-18676841D02*
X17870182Y-18638746D01*
X17870182Y-18638746D02*
X17860658Y-18591127D01*
X17860658Y-18591127D02*
X17851134Y-18562555D01*
X17851134Y-18562555D02*
X17841611Y-18543508D01*
X17841611Y-18543508D02*
X17822563Y-18514936D01*
X17822563Y-18514936D02*
X17813039Y-18505412D01*
D12*
X12847500Y-18906500D02*
G75*
G03*
X12827500Y-18906500I-10000J0D01*
G01*
X12827500Y-18906500D02*
G75*
G03*
X12847500Y-18906500I10000J0D01*
G01*
D11*
X13146372Y-18797984D02*
X13165420Y-18797984D01*
X13165420Y-18797984D02*
X13184467Y-18807508D01*
X13184467Y-18807508D02*
X13193991Y-18817031D01*
X13193991Y-18817031D02*
X13203515Y-18836079D01*
X13203515Y-18836079D02*
X13213039Y-18874174D01*
X13213039Y-18874174D02*
X13213039Y-18921793D01*
X13213039Y-18921793D02*
X13203515Y-18959889D01*
X13203515Y-18959889D02*
X13193991Y-18978936D01*
X13193991Y-18978936D02*
X13184467Y-18988460D01*
X13184467Y-18988460D02*
X13165420Y-18997984D01*
X13165420Y-18997984D02*
X13146372Y-18997984D01*
X13146372Y-18997984D02*
X13127324Y-18988460D01*
X13127324Y-18988460D02*
X13117801Y-18978936D01*
X13117801Y-18978936D02*
X13108277Y-18959889D01*
X13108277Y-18959889D02*
X13098753Y-18921793D01*
X13098753Y-18921793D02*
X13098753Y-18874174D01*
X13098753Y-18874174D02*
X13108277Y-18836079D01*
X13108277Y-18836079D02*
X13117801Y-18817031D01*
X13117801Y-18817031D02*
X13127324Y-18807508D01*
X13127324Y-18807508D02*
X13146372Y-18797984D01*
X13298753Y-18978936D02*
X13308277Y-18988460D01*
X13308277Y-18988460D02*
X13298753Y-18997984D01*
X13298753Y-18997984D02*
X13289229Y-18988460D01*
X13289229Y-18988460D02*
X13298753Y-18978936D01*
X13298753Y-18978936D02*
X13298753Y-18997984D01*
X13384467Y-18817031D02*
X13393991Y-18807508D01*
X13393991Y-18807508D02*
X13413039Y-18797984D01*
X13413039Y-18797984D02*
X13460658Y-18797984D01*
X13460658Y-18797984D02*
X13479705Y-18807508D01*
X13479705Y-18807508D02*
X13489229Y-18817031D01*
X13489229Y-18817031D02*
X13498753Y-18836079D01*
X13498753Y-18836079D02*
X13498753Y-18855127D01*
X13498753Y-18855127D02*
X13489229Y-18883698D01*
X13489229Y-18883698D02*
X13374943Y-18997984D01*
X13374943Y-18997984D02*
X13498753Y-18997984D01*
X13622562Y-18797984D02*
X13641610Y-18797984D01*
X13641610Y-18797984D02*
X13660658Y-18807508D01*
X13660658Y-18807508D02*
X13670182Y-18817031D01*
X13670182Y-18817031D02*
X13679705Y-18836079D01*
X13679705Y-18836079D02*
X13689229Y-18874174D01*
X13689229Y-18874174D02*
X13689229Y-18921793D01*
X13689229Y-18921793D02*
X13679705Y-18959889D01*
X13679705Y-18959889D02*
X13670182Y-18978936D01*
X13670182Y-18978936D02*
X13660658Y-18988460D01*
X13660658Y-18988460D02*
X13641610Y-18997984D01*
X13641610Y-18997984D02*
X13622562Y-18997984D01*
X13622562Y-18997984D02*
X13603515Y-18988460D01*
X13603515Y-18988460D02*
X13593991Y-18978936D01*
X13593991Y-18978936D02*
X13584467Y-18959889D01*
X13584467Y-18959889D02*
X13574943Y-18921793D01*
X13574943Y-18921793D02*
X13574943Y-18874174D01*
X13574943Y-18874174D02*
X13584467Y-18836079D01*
X13584467Y-18836079D02*
X13593991Y-18817031D01*
X13593991Y-18817031D02*
X13603515Y-18807508D01*
X13603515Y-18807508D02*
X13622562Y-18797984D01*
X13813039Y-18797984D02*
X13832086Y-18797984D01*
X13832086Y-18797984D02*
X13851134Y-18807508D01*
X13851134Y-18807508D02*
X13860658Y-18817031D01*
X13860658Y-18817031D02*
X13870182Y-18836079D01*
X13870182Y-18836079D02*
X13879705Y-18874174D01*
X13879705Y-18874174D02*
X13879705Y-18921793D01*
X13879705Y-18921793D02*
X13870182Y-18959889D01*
X13870182Y-18959889D02*
X13860658Y-18978936D01*
X13860658Y-18978936D02*
X13851134Y-18988460D01*
X13851134Y-18988460D02*
X13832086Y-18997984D01*
X13832086Y-18997984D02*
X13813039Y-18997984D01*
X13813039Y-18997984D02*
X13793991Y-18988460D01*
X13793991Y-18988460D02*
X13784467Y-18978936D01*
X13784467Y-18978936D02*
X13774943Y-18959889D01*
X13774943Y-18959889D02*
X13765420Y-18921793D01*
X13765420Y-18921793D02*
X13765420Y-18874174D01*
X13765420Y-18874174D02*
X13774943Y-18836079D01*
X13774943Y-18836079D02*
X13784467Y-18817031D01*
X13784467Y-18817031D02*
X13793991Y-18807508D01*
X13793991Y-18807508D02*
X13813039Y-18797984D01*
X13965420Y-18997984D02*
X13965420Y-18864650D01*
X13965420Y-18883698D02*
X13974943Y-18874174D01*
X13974943Y-18874174D02*
X13993991Y-18864650D01*
X13993991Y-18864650D02*
X14022563Y-18864650D01*
X14022563Y-18864650D02*
X14041610Y-18874174D01*
X14041610Y-18874174D02*
X14051134Y-18893222D01*
X14051134Y-18893222D02*
X14051134Y-18997984D01*
X14051134Y-18893222D02*
X14060658Y-18874174D01*
X14060658Y-18874174D02*
X14079705Y-18864650D01*
X14079705Y-18864650D02*
X14108277Y-18864650D01*
X14108277Y-18864650D02*
X14127324Y-18874174D01*
X14127324Y-18874174D02*
X14136848Y-18893222D01*
X14136848Y-18893222D02*
X14136848Y-18997984D01*
X14232086Y-18997984D02*
X14232086Y-18864650D01*
X14232086Y-18883698D02*
X14241610Y-18874174D01*
X14241610Y-18874174D02*
X14260658Y-18864650D01*
X14260658Y-18864650D02*
X14289229Y-18864650D01*
X14289229Y-18864650D02*
X14308277Y-18874174D01*
X14308277Y-18874174D02*
X14317801Y-18893222D01*
X14317801Y-18893222D02*
X14317801Y-18997984D01*
X14317801Y-18893222D02*
X14327324Y-18874174D01*
X14327324Y-18874174D02*
X14346372Y-18864650D01*
X14346372Y-18864650D02*
X14374943Y-18864650D01*
X14374943Y-18864650D02*
X14393991Y-18874174D01*
X14393991Y-18874174D02*
X14403515Y-18893222D01*
X14403515Y-18893222D02*
X14403515Y-18997984D01*
X14793991Y-18788460D02*
X14622563Y-19045603D01*
X15051134Y-18797984D02*
X15070182Y-18797984D01*
X15070182Y-18797984D02*
X15089229Y-18807508D01*
X15089229Y-18807508D02*
X15098753Y-18817031D01*
X15098753Y-18817031D02*
X15108277Y-18836079D01*
X15108277Y-18836079D02*
X15117801Y-18874174D01*
X15117801Y-18874174D02*
X15117801Y-18921793D01*
X15117801Y-18921793D02*
X15108277Y-18959889D01*
X15108277Y-18959889D02*
X15098753Y-18978936D01*
X15098753Y-18978936D02*
X15089229Y-18988460D01*
X15089229Y-18988460D02*
X15070182Y-18997984D01*
X15070182Y-18997984D02*
X15051134Y-18997984D01*
X15051134Y-18997984D02*
X15032086Y-18988460D01*
X15032086Y-18988460D02*
X15022563Y-18978936D01*
X15022563Y-18978936D02*
X15013039Y-18959889D01*
X15013039Y-18959889D02*
X15003515Y-18921793D01*
X15003515Y-18921793D02*
X15003515Y-18874174D01*
X15003515Y-18874174D02*
X15013039Y-18836079D01*
X15013039Y-18836079D02*
X15022563Y-18817031D01*
X15022563Y-18817031D02*
X15032086Y-18807508D01*
X15032086Y-18807508D02*
X15051134Y-18797984D01*
X15203515Y-18978936D02*
X15213039Y-18988460D01*
X15213039Y-18988460D02*
X15203515Y-18997984D01*
X15203515Y-18997984D02*
X15193991Y-18988460D01*
X15193991Y-18988460D02*
X15203515Y-18978936D01*
X15203515Y-18978936D02*
X15203515Y-18997984D01*
X15336848Y-18797984D02*
X15355896Y-18797984D01*
X15355896Y-18797984D02*
X15374944Y-18807508D01*
X15374944Y-18807508D02*
X15384467Y-18817031D01*
X15384467Y-18817031D02*
X15393991Y-18836079D01*
X15393991Y-18836079D02*
X15403515Y-18874174D01*
X15403515Y-18874174D02*
X15403515Y-18921793D01*
X15403515Y-18921793D02*
X15393991Y-18959889D01*
X15393991Y-18959889D02*
X15384467Y-18978936D01*
X15384467Y-18978936D02*
X15374944Y-18988460D01*
X15374944Y-18988460D02*
X15355896Y-18997984D01*
X15355896Y-18997984D02*
X15336848Y-18997984D01*
X15336848Y-18997984D02*
X15317801Y-18988460D01*
X15317801Y-18988460D02*
X15308277Y-18978936D01*
X15308277Y-18978936D02*
X15298753Y-18959889D01*
X15298753Y-18959889D02*
X15289229Y-18921793D01*
X15289229Y-18921793D02*
X15289229Y-18874174D01*
X15289229Y-18874174D02*
X15298753Y-18836079D01*
X15298753Y-18836079D02*
X15308277Y-18817031D01*
X15308277Y-18817031D02*
X15317801Y-18807508D01*
X15317801Y-18807508D02*
X15336848Y-18797984D01*
X15527325Y-18797984D02*
X15546372Y-18797984D01*
X15546372Y-18797984D02*
X15565420Y-18807508D01*
X15565420Y-18807508D02*
X15574944Y-18817031D01*
X15574944Y-18817031D02*
X15584467Y-18836079D01*
X15584467Y-18836079D02*
X15593991Y-18874174D01*
X15593991Y-18874174D02*
X15593991Y-18921793D01*
X15593991Y-18921793D02*
X15584467Y-18959889D01*
X15584467Y-18959889D02*
X15574944Y-18978936D01*
X15574944Y-18978936D02*
X15565420Y-18988460D01*
X15565420Y-18988460D02*
X15546372Y-18997984D01*
X15546372Y-18997984D02*
X15527325Y-18997984D01*
X15527325Y-18997984D02*
X15508277Y-18988460D01*
X15508277Y-18988460D02*
X15498753Y-18978936D01*
X15498753Y-18978936D02*
X15489229Y-18959889D01*
X15489229Y-18959889D02*
X15479706Y-18921793D01*
X15479706Y-18921793D02*
X15479706Y-18874174D01*
X15479706Y-18874174D02*
X15489229Y-18836079D01*
X15489229Y-18836079D02*
X15498753Y-18817031D01*
X15498753Y-18817031D02*
X15508277Y-18807508D01*
X15508277Y-18807508D02*
X15527325Y-18797984D01*
X15660658Y-18797984D02*
X15793991Y-18797984D01*
X15793991Y-18797984D02*
X15708277Y-18997984D01*
X15879706Y-18997984D02*
X15917801Y-18997984D01*
X15917801Y-18997984D02*
X15936848Y-18988460D01*
X15936848Y-18988460D02*
X15946372Y-18978936D01*
X15946372Y-18978936D02*
X15965420Y-18950365D01*
X15965420Y-18950365D02*
X15974944Y-18912270D01*
X15974944Y-18912270D02*
X15974944Y-18836079D01*
X15974944Y-18836079D02*
X15965420Y-18817031D01*
X15965420Y-18817031D02*
X15955896Y-18807508D01*
X15955896Y-18807508D02*
X15936848Y-18797984D01*
X15936848Y-18797984D02*
X15898753Y-18797984D01*
X15898753Y-18797984D02*
X15879706Y-18807508D01*
X15879706Y-18807508D02*
X15870182Y-18817031D01*
X15870182Y-18817031D02*
X15860658Y-18836079D01*
X15860658Y-18836079D02*
X15860658Y-18883698D01*
X15860658Y-18883698D02*
X15870182Y-18902746D01*
X15870182Y-18902746D02*
X15879706Y-18912270D01*
X15879706Y-18912270D02*
X15898753Y-18921793D01*
X15898753Y-18921793D02*
X15936848Y-18921793D01*
X15936848Y-18921793D02*
X15955896Y-18912270D01*
X15955896Y-18912270D02*
X15965420Y-18902746D01*
X15965420Y-18902746D02*
X15974944Y-18883698D01*
X16051134Y-18797984D02*
X16051134Y-18836079D01*
X16127325Y-18797984D02*
X16127325Y-18836079D01*
X16422563Y-19074174D02*
X16413039Y-19064650D01*
X16413039Y-19064650D02*
X16393991Y-19036079D01*
X16393991Y-19036079D02*
X16384468Y-19017031D01*
X16384468Y-19017031D02*
X16374944Y-18988460D01*
X16374944Y-18988460D02*
X16365420Y-18940841D01*
X16365420Y-18940841D02*
X16365420Y-18902746D01*
X16365420Y-18902746D02*
X16374944Y-18855127D01*
X16374944Y-18855127D02*
X16384468Y-18826555D01*
X16384468Y-18826555D02*
X16393991Y-18807508D01*
X16393991Y-18807508D02*
X16413039Y-18778936D01*
X16413039Y-18778936D02*
X16422563Y-18769412D01*
X16527325Y-18883698D02*
X16508277Y-18874174D01*
X16508277Y-18874174D02*
X16498753Y-18864650D01*
X16498753Y-18864650D02*
X16489229Y-18845603D01*
X16489229Y-18845603D02*
X16489229Y-18836079D01*
X16489229Y-18836079D02*
X16498753Y-18817031D01*
X16498753Y-18817031D02*
X16508277Y-18807508D01*
X16508277Y-18807508D02*
X16527325Y-18797984D01*
X16527325Y-18797984D02*
X16565420Y-18797984D01*
X16565420Y-18797984D02*
X16584468Y-18807508D01*
X16584468Y-18807508D02*
X16593991Y-18817031D01*
X16593991Y-18817031D02*
X16603515Y-18836079D01*
X16603515Y-18836079D02*
X16603515Y-18845603D01*
X16603515Y-18845603D02*
X16593991Y-18864650D01*
X16593991Y-18864650D02*
X16584468Y-18874174D01*
X16584468Y-18874174D02*
X16565420Y-18883698D01*
X16565420Y-18883698D02*
X16527325Y-18883698D01*
X16527325Y-18883698D02*
X16508277Y-18893222D01*
X16508277Y-18893222D02*
X16498753Y-18902746D01*
X16498753Y-18902746D02*
X16489229Y-18921793D01*
X16489229Y-18921793D02*
X16489229Y-18959889D01*
X16489229Y-18959889D02*
X16498753Y-18978936D01*
X16498753Y-18978936D02*
X16508277Y-18988460D01*
X16508277Y-18988460D02*
X16527325Y-18997984D01*
X16527325Y-18997984D02*
X16565420Y-18997984D01*
X16565420Y-18997984D02*
X16584468Y-18988460D01*
X16584468Y-18988460D02*
X16593991Y-18978936D01*
X16593991Y-18978936D02*
X16603515Y-18959889D01*
X16603515Y-18959889D02*
X16603515Y-18921793D01*
X16603515Y-18921793D02*
X16593991Y-18902746D01*
X16593991Y-18902746D02*
X16584468Y-18893222D01*
X16584468Y-18893222D02*
X16565420Y-18883698D01*
X16841611Y-18997984D02*
X16841611Y-18797984D01*
X16927325Y-18997984D02*
X16927325Y-18893222D01*
X16927325Y-18893222D02*
X16917801Y-18874174D01*
X16917801Y-18874174D02*
X16898753Y-18864650D01*
X16898753Y-18864650D02*
X16870182Y-18864650D01*
X16870182Y-18864650D02*
X16851134Y-18874174D01*
X16851134Y-18874174D02*
X16841611Y-18883698D01*
X17051134Y-18997984D02*
X17032087Y-18988460D01*
X17032087Y-18988460D02*
X17022563Y-18978936D01*
X17022563Y-18978936D02*
X17013039Y-18959889D01*
X17013039Y-18959889D02*
X17013039Y-18902746D01*
X17013039Y-18902746D02*
X17022563Y-18883698D01*
X17022563Y-18883698D02*
X17032087Y-18874174D01*
X17032087Y-18874174D02*
X17051134Y-18864650D01*
X17051134Y-18864650D02*
X17079706Y-18864650D01*
X17079706Y-18864650D02*
X17098753Y-18874174D01*
X17098753Y-18874174D02*
X17108277Y-18883698D01*
X17108277Y-18883698D02*
X17117801Y-18902746D01*
X17117801Y-18902746D02*
X17117801Y-18959889D01*
X17117801Y-18959889D02*
X17108277Y-18978936D01*
X17108277Y-18978936D02*
X17098753Y-18988460D01*
X17098753Y-18988460D02*
X17079706Y-18997984D01*
X17079706Y-18997984D02*
X17051134Y-18997984D01*
X17232087Y-18997984D02*
X17213039Y-18988460D01*
X17213039Y-18988460D02*
X17203515Y-18969412D01*
X17203515Y-18969412D02*
X17203515Y-18797984D01*
X17384468Y-18988460D02*
X17365420Y-18997984D01*
X17365420Y-18997984D02*
X17327325Y-18997984D01*
X17327325Y-18997984D02*
X17308277Y-18988460D01*
X17308277Y-18988460D02*
X17298753Y-18969412D01*
X17298753Y-18969412D02*
X17298753Y-18893222D01*
X17298753Y-18893222D02*
X17308277Y-18874174D01*
X17308277Y-18874174D02*
X17327325Y-18864650D01*
X17327325Y-18864650D02*
X17365420Y-18864650D01*
X17365420Y-18864650D02*
X17384468Y-18874174D01*
X17384468Y-18874174D02*
X17393992Y-18893222D01*
X17393992Y-18893222D02*
X17393992Y-18912270D01*
X17393992Y-18912270D02*
X17298753Y-18931317D01*
X17470182Y-18988460D02*
X17489230Y-18997984D01*
X17489230Y-18997984D02*
X17527325Y-18997984D01*
X17527325Y-18997984D02*
X17546373Y-18988460D01*
X17546373Y-18988460D02*
X17555896Y-18969412D01*
X17555896Y-18969412D02*
X17555896Y-18959889D01*
X17555896Y-18959889D02*
X17546373Y-18940841D01*
X17546373Y-18940841D02*
X17527325Y-18931317D01*
X17527325Y-18931317D02*
X17498753Y-18931317D01*
X17498753Y-18931317D02*
X17479706Y-18921793D01*
X17479706Y-18921793D02*
X17470182Y-18902746D01*
X17470182Y-18902746D02*
X17470182Y-18893222D01*
X17470182Y-18893222D02*
X17479706Y-18874174D01*
X17479706Y-18874174D02*
X17498753Y-18864650D01*
X17498753Y-18864650D02*
X17527325Y-18864650D01*
X17527325Y-18864650D02*
X17546373Y-18874174D01*
X17622563Y-19074174D02*
X17632087Y-19064650D01*
X17632087Y-19064650D02*
X17651134Y-19036079D01*
X17651134Y-19036079D02*
X17660658Y-19017031D01*
X17660658Y-19017031D02*
X17670182Y-18988460D01*
X17670182Y-18988460D02*
X17679706Y-18940841D01*
X17679706Y-18940841D02*
X17679706Y-18902746D01*
X17679706Y-18902746D02*
X17670182Y-18855127D01*
X17670182Y-18855127D02*
X17660658Y-18826555D01*
X17660658Y-18826555D02*
X17651134Y-18807508D01*
X17651134Y-18807508D02*
X17632087Y-18778936D01*
X17632087Y-18778936D02*
X17622563Y-18769412D01*
D12*
X12832500Y-19155500D02*
X12832500Y-19185500D01*
X12817500Y-19170500D02*
X12847500Y-19170500D01*
D11*
X13146372Y-19061984D02*
X13165420Y-19061984D01*
X13165420Y-19061984D02*
X13184467Y-19071508D01*
X13184467Y-19071508D02*
X13193991Y-19081031D01*
X13193991Y-19081031D02*
X13203515Y-19100079D01*
X13203515Y-19100079D02*
X13213039Y-19138174D01*
X13213039Y-19138174D02*
X13213039Y-19185793D01*
X13213039Y-19185793D02*
X13203515Y-19223889D01*
X13203515Y-19223889D02*
X13193991Y-19242936D01*
X13193991Y-19242936D02*
X13184467Y-19252460D01*
X13184467Y-19252460D02*
X13165420Y-19261984D01*
X13165420Y-19261984D02*
X13146372Y-19261984D01*
X13146372Y-19261984D02*
X13127324Y-19252460D01*
X13127324Y-19252460D02*
X13117801Y-19242936D01*
X13117801Y-19242936D02*
X13108277Y-19223889D01*
X13108277Y-19223889D02*
X13098753Y-19185793D01*
X13098753Y-19185793D02*
X13098753Y-19138174D01*
X13098753Y-19138174D02*
X13108277Y-19100079D01*
X13108277Y-19100079D02*
X13117801Y-19081031D01*
X13117801Y-19081031D02*
X13127324Y-19071508D01*
X13127324Y-19071508D02*
X13146372Y-19061984D01*
X13298753Y-19242936D02*
X13308277Y-19252460D01*
X13308277Y-19252460D02*
X13298753Y-19261984D01*
X13298753Y-19261984D02*
X13289229Y-19252460D01*
X13289229Y-19252460D02*
X13298753Y-19242936D01*
X13298753Y-19242936D02*
X13298753Y-19261984D01*
X13374943Y-19061984D02*
X13498753Y-19061984D01*
X13498753Y-19061984D02*
X13432086Y-19138174D01*
X13432086Y-19138174D02*
X13460658Y-19138174D01*
X13460658Y-19138174D02*
X13479705Y-19147698D01*
X13479705Y-19147698D02*
X13489229Y-19157222D01*
X13489229Y-19157222D02*
X13498753Y-19176270D01*
X13498753Y-19176270D02*
X13498753Y-19223889D01*
X13498753Y-19223889D02*
X13489229Y-19242936D01*
X13489229Y-19242936D02*
X13479705Y-19252460D01*
X13479705Y-19252460D02*
X13460658Y-19261984D01*
X13460658Y-19261984D02*
X13403515Y-19261984D01*
X13403515Y-19261984D02*
X13384467Y-19252460D01*
X13384467Y-19252460D02*
X13374943Y-19242936D01*
X13622562Y-19061984D02*
X13641610Y-19061984D01*
X13641610Y-19061984D02*
X13660658Y-19071508D01*
X13660658Y-19071508D02*
X13670182Y-19081031D01*
X13670182Y-19081031D02*
X13679705Y-19100079D01*
X13679705Y-19100079D02*
X13689229Y-19138174D01*
X13689229Y-19138174D02*
X13689229Y-19185793D01*
X13689229Y-19185793D02*
X13679705Y-19223889D01*
X13679705Y-19223889D02*
X13670182Y-19242936D01*
X13670182Y-19242936D02*
X13660658Y-19252460D01*
X13660658Y-19252460D02*
X13641610Y-19261984D01*
X13641610Y-19261984D02*
X13622562Y-19261984D01*
X13622562Y-19261984D02*
X13603515Y-19252460D01*
X13603515Y-19252460D02*
X13593991Y-19242936D01*
X13593991Y-19242936D02*
X13584467Y-19223889D01*
X13584467Y-19223889D02*
X13574943Y-19185793D01*
X13574943Y-19185793D02*
X13574943Y-19138174D01*
X13574943Y-19138174D02*
X13584467Y-19100079D01*
X13584467Y-19100079D02*
X13593991Y-19081031D01*
X13593991Y-19081031D02*
X13603515Y-19071508D01*
X13603515Y-19071508D02*
X13622562Y-19061984D01*
X13813039Y-19061984D02*
X13832086Y-19061984D01*
X13832086Y-19061984D02*
X13851134Y-19071508D01*
X13851134Y-19071508D02*
X13860658Y-19081031D01*
X13860658Y-19081031D02*
X13870182Y-19100079D01*
X13870182Y-19100079D02*
X13879705Y-19138174D01*
X13879705Y-19138174D02*
X13879705Y-19185793D01*
X13879705Y-19185793D02*
X13870182Y-19223889D01*
X13870182Y-19223889D02*
X13860658Y-19242936D01*
X13860658Y-19242936D02*
X13851134Y-19252460D01*
X13851134Y-19252460D02*
X13832086Y-19261984D01*
X13832086Y-19261984D02*
X13813039Y-19261984D01*
X13813039Y-19261984D02*
X13793991Y-19252460D01*
X13793991Y-19252460D02*
X13784467Y-19242936D01*
X13784467Y-19242936D02*
X13774943Y-19223889D01*
X13774943Y-19223889D02*
X13765420Y-19185793D01*
X13765420Y-19185793D02*
X13765420Y-19138174D01*
X13765420Y-19138174D02*
X13774943Y-19100079D01*
X13774943Y-19100079D02*
X13784467Y-19081031D01*
X13784467Y-19081031D02*
X13793991Y-19071508D01*
X13793991Y-19071508D02*
X13813039Y-19061984D01*
X13965420Y-19261984D02*
X13965420Y-19128650D01*
X13965420Y-19147698D02*
X13974943Y-19138174D01*
X13974943Y-19138174D02*
X13993991Y-19128650D01*
X13993991Y-19128650D02*
X14022563Y-19128650D01*
X14022563Y-19128650D02*
X14041610Y-19138174D01*
X14041610Y-19138174D02*
X14051134Y-19157222D01*
X14051134Y-19157222D02*
X14051134Y-19261984D01*
X14051134Y-19157222D02*
X14060658Y-19138174D01*
X14060658Y-19138174D02*
X14079705Y-19128650D01*
X14079705Y-19128650D02*
X14108277Y-19128650D01*
X14108277Y-19128650D02*
X14127324Y-19138174D01*
X14127324Y-19138174D02*
X14136848Y-19157222D01*
X14136848Y-19157222D02*
X14136848Y-19261984D01*
X14232086Y-19261984D02*
X14232086Y-19128650D01*
X14232086Y-19147698D02*
X14241610Y-19138174D01*
X14241610Y-19138174D02*
X14260658Y-19128650D01*
X14260658Y-19128650D02*
X14289229Y-19128650D01*
X14289229Y-19128650D02*
X14308277Y-19138174D01*
X14308277Y-19138174D02*
X14317801Y-19157222D01*
X14317801Y-19157222D02*
X14317801Y-19261984D01*
X14317801Y-19157222D02*
X14327324Y-19138174D01*
X14327324Y-19138174D02*
X14346372Y-19128650D01*
X14346372Y-19128650D02*
X14374943Y-19128650D01*
X14374943Y-19128650D02*
X14393991Y-19138174D01*
X14393991Y-19138174D02*
X14403515Y-19157222D01*
X14403515Y-19157222D02*
X14403515Y-19261984D01*
X14793991Y-19052460D02*
X14622563Y-19309603D01*
X15051134Y-19061984D02*
X15070182Y-19061984D01*
X15070182Y-19061984D02*
X15089229Y-19071508D01*
X15089229Y-19071508D02*
X15098753Y-19081031D01*
X15098753Y-19081031D02*
X15108277Y-19100079D01*
X15108277Y-19100079D02*
X15117801Y-19138174D01*
X15117801Y-19138174D02*
X15117801Y-19185793D01*
X15117801Y-19185793D02*
X15108277Y-19223889D01*
X15108277Y-19223889D02*
X15098753Y-19242936D01*
X15098753Y-19242936D02*
X15089229Y-19252460D01*
X15089229Y-19252460D02*
X15070182Y-19261984D01*
X15070182Y-19261984D02*
X15051134Y-19261984D01*
X15051134Y-19261984D02*
X15032086Y-19252460D01*
X15032086Y-19252460D02*
X15022563Y-19242936D01*
X15022563Y-19242936D02*
X15013039Y-19223889D01*
X15013039Y-19223889D02*
X15003515Y-19185793D01*
X15003515Y-19185793D02*
X15003515Y-19138174D01*
X15003515Y-19138174D02*
X15013039Y-19100079D01*
X15013039Y-19100079D02*
X15022563Y-19081031D01*
X15022563Y-19081031D02*
X15032086Y-19071508D01*
X15032086Y-19071508D02*
X15051134Y-19061984D01*
X15203515Y-19242936D02*
X15213039Y-19252460D01*
X15213039Y-19252460D02*
X15203515Y-19261984D01*
X15203515Y-19261984D02*
X15193991Y-19252460D01*
X15193991Y-19252460D02*
X15203515Y-19242936D01*
X15203515Y-19242936D02*
X15203515Y-19261984D01*
X15336848Y-19061984D02*
X15355896Y-19061984D01*
X15355896Y-19061984D02*
X15374944Y-19071508D01*
X15374944Y-19071508D02*
X15384467Y-19081031D01*
X15384467Y-19081031D02*
X15393991Y-19100079D01*
X15393991Y-19100079D02*
X15403515Y-19138174D01*
X15403515Y-19138174D02*
X15403515Y-19185793D01*
X15403515Y-19185793D02*
X15393991Y-19223889D01*
X15393991Y-19223889D02*
X15384467Y-19242936D01*
X15384467Y-19242936D02*
X15374944Y-19252460D01*
X15374944Y-19252460D02*
X15355896Y-19261984D01*
X15355896Y-19261984D02*
X15336848Y-19261984D01*
X15336848Y-19261984D02*
X15317801Y-19252460D01*
X15317801Y-19252460D02*
X15308277Y-19242936D01*
X15308277Y-19242936D02*
X15298753Y-19223889D01*
X15298753Y-19223889D02*
X15289229Y-19185793D01*
X15289229Y-19185793D02*
X15289229Y-19138174D01*
X15289229Y-19138174D02*
X15298753Y-19100079D01*
X15298753Y-19100079D02*
X15308277Y-19081031D01*
X15308277Y-19081031D02*
X15317801Y-19071508D01*
X15317801Y-19071508D02*
X15336848Y-19061984D01*
X15593991Y-19261984D02*
X15479706Y-19261984D01*
X15536848Y-19261984D02*
X15536848Y-19061984D01*
X15536848Y-19061984D02*
X15517801Y-19090555D01*
X15517801Y-19090555D02*
X15498753Y-19109603D01*
X15498753Y-19109603D02*
X15479706Y-19119127D01*
X15784467Y-19261984D02*
X15670182Y-19261984D01*
X15727325Y-19261984D02*
X15727325Y-19061984D01*
X15727325Y-19061984D02*
X15708277Y-19090555D01*
X15708277Y-19090555D02*
X15689229Y-19109603D01*
X15689229Y-19109603D02*
X15670182Y-19119127D01*
X15898753Y-19147698D02*
X15879706Y-19138174D01*
X15879706Y-19138174D02*
X15870182Y-19128650D01*
X15870182Y-19128650D02*
X15860658Y-19109603D01*
X15860658Y-19109603D02*
X15860658Y-19100079D01*
X15860658Y-19100079D02*
X15870182Y-19081031D01*
X15870182Y-19081031D02*
X15879706Y-19071508D01*
X15879706Y-19071508D02*
X15898753Y-19061984D01*
X15898753Y-19061984D02*
X15936848Y-19061984D01*
X15936848Y-19061984D02*
X15955896Y-19071508D01*
X15955896Y-19071508D02*
X15965420Y-19081031D01*
X15965420Y-19081031D02*
X15974944Y-19100079D01*
X15974944Y-19100079D02*
X15974944Y-19109603D01*
X15974944Y-19109603D02*
X15965420Y-19128650D01*
X15965420Y-19128650D02*
X15955896Y-19138174D01*
X15955896Y-19138174D02*
X15936848Y-19147698D01*
X15936848Y-19147698D02*
X15898753Y-19147698D01*
X15898753Y-19147698D02*
X15879706Y-19157222D01*
X15879706Y-19157222D02*
X15870182Y-19166746D01*
X15870182Y-19166746D02*
X15860658Y-19185793D01*
X15860658Y-19185793D02*
X15860658Y-19223889D01*
X15860658Y-19223889D02*
X15870182Y-19242936D01*
X15870182Y-19242936D02*
X15879706Y-19252460D01*
X15879706Y-19252460D02*
X15898753Y-19261984D01*
X15898753Y-19261984D02*
X15936848Y-19261984D01*
X15936848Y-19261984D02*
X15955896Y-19252460D01*
X15955896Y-19252460D02*
X15965420Y-19242936D01*
X15965420Y-19242936D02*
X15974944Y-19223889D01*
X15974944Y-19223889D02*
X15974944Y-19185793D01*
X15974944Y-19185793D02*
X15965420Y-19166746D01*
X15965420Y-19166746D02*
X15955896Y-19157222D01*
X15955896Y-19157222D02*
X15936848Y-19147698D01*
X16051134Y-19061984D02*
X16051134Y-19100079D01*
X16127325Y-19061984D02*
X16127325Y-19100079D01*
X16422563Y-19338174D02*
X16413039Y-19328650D01*
X16413039Y-19328650D02*
X16393991Y-19300079D01*
X16393991Y-19300079D02*
X16384468Y-19281031D01*
X16384468Y-19281031D02*
X16374944Y-19252460D01*
X16374944Y-19252460D02*
X16365420Y-19204841D01*
X16365420Y-19204841D02*
X16365420Y-19166746D01*
X16365420Y-19166746D02*
X16374944Y-19119127D01*
X16374944Y-19119127D02*
X16384468Y-19090555D01*
X16384468Y-19090555D02*
X16393991Y-19071508D01*
X16393991Y-19071508D02*
X16413039Y-19042936D01*
X16413039Y-19042936D02*
X16422563Y-19033412D01*
X16584468Y-19061984D02*
X16546372Y-19061984D01*
X16546372Y-19061984D02*
X16527325Y-19071508D01*
X16527325Y-19071508D02*
X16517801Y-19081031D01*
X16517801Y-19081031D02*
X16498753Y-19109603D01*
X16498753Y-19109603D02*
X16489229Y-19147698D01*
X16489229Y-19147698D02*
X16489229Y-19223889D01*
X16489229Y-19223889D02*
X16498753Y-19242936D01*
X16498753Y-19242936D02*
X16508277Y-19252460D01*
X16508277Y-19252460D02*
X16527325Y-19261984D01*
X16527325Y-19261984D02*
X16565420Y-19261984D01*
X16565420Y-19261984D02*
X16584468Y-19252460D01*
X16584468Y-19252460D02*
X16593991Y-19242936D01*
X16593991Y-19242936D02*
X16603515Y-19223889D01*
X16603515Y-19223889D02*
X16603515Y-19176270D01*
X16603515Y-19176270D02*
X16593991Y-19157222D01*
X16593991Y-19157222D02*
X16584468Y-19147698D01*
X16584468Y-19147698D02*
X16565420Y-19138174D01*
X16565420Y-19138174D02*
X16527325Y-19138174D01*
X16527325Y-19138174D02*
X16508277Y-19147698D01*
X16508277Y-19147698D02*
X16498753Y-19157222D01*
X16498753Y-19157222D02*
X16489229Y-19176270D01*
X16841611Y-19261984D02*
X16841611Y-19061984D01*
X16927325Y-19261984D02*
X16927325Y-19157222D01*
X16927325Y-19157222D02*
X16917801Y-19138174D01*
X16917801Y-19138174D02*
X16898753Y-19128650D01*
X16898753Y-19128650D02*
X16870182Y-19128650D01*
X16870182Y-19128650D02*
X16851134Y-19138174D01*
X16851134Y-19138174D02*
X16841611Y-19147698D01*
X17051134Y-19261984D02*
X17032087Y-19252460D01*
X17032087Y-19252460D02*
X17022563Y-19242936D01*
X17022563Y-19242936D02*
X17013039Y-19223889D01*
X17013039Y-19223889D02*
X17013039Y-19166746D01*
X17013039Y-19166746D02*
X17022563Y-19147698D01*
X17022563Y-19147698D02*
X17032087Y-19138174D01*
X17032087Y-19138174D02*
X17051134Y-19128650D01*
X17051134Y-19128650D02*
X17079706Y-19128650D01*
X17079706Y-19128650D02*
X17098753Y-19138174D01*
X17098753Y-19138174D02*
X17108277Y-19147698D01*
X17108277Y-19147698D02*
X17117801Y-19166746D01*
X17117801Y-19166746D02*
X17117801Y-19223889D01*
X17117801Y-19223889D02*
X17108277Y-19242936D01*
X17108277Y-19242936D02*
X17098753Y-19252460D01*
X17098753Y-19252460D02*
X17079706Y-19261984D01*
X17079706Y-19261984D02*
X17051134Y-19261984D01*
X17232087Y-19261984D02*
X17213039Y-19252460D01*
X17213039Y-19252460D02*
X17203515Y-19233412D01*
X17203515Y-19233412D02*
X17203515Y-19061984D01*
X17384468Y-19252460D02*
X17365420Y-19261984D01*
X17365420Y-19261984D02*
X17327325Y-19261984D01*
X17327325Y-19261984D02*
X17308277Y-19252460D01*
X17308277Y-19252460D02*
X17298753Y-19233412D01*
X17298753Y-19233412D02*
X17298753Y-19157222D01*
X17298753Y-19157222D02*
X17308277Y-19138174D01*
X17308277Y-19138174D02*
X17327325Y-19128650D01*
X17327325Y-19128650D02*
X17365420Y-19128650D01*
X17365420Y-19128650D02*
X17384468Y-19138174D01*
X17384468Y-19138174D02*
X17393992Y-19157222D01*
X17393992Y-19157222D02*
X17393992Y-19176270D01*
X17393992Y-19176270D02*
X17298753Y-19195317D01*
X17470182Y-19252460D02*
X17489230Y-19261984D01*
X17489230Y-19261984D02*
X17527325Y-19261984D01*
X17527325Y-19261984D02*
X17546373Y-19252460D01*
X17546373Y-19252460D02*
X17555896Y-19233412D01*
X17555896Y-19233412D02*
X17555896Y-19223889D01*
X17555896Y-19223889D02*
X17546373Y-19204841D01*
X17546373Y-19204841D02*
X17527325Y-19195317D01*
X17527325Y-19195317D02*
X17498753Y-19195317D01*
X17498753Y-19195317D02*
X17479706Y-19185793D01*
X17479706Y-19185793D02*
X17470182Y-19166746D01*
X17470182Y-19166746D02*
X17470182Y-19157222D01*
X17470182Y-19157222D02*
X17479706Y-19138174D01*
X17479706Y-19138174D02*
X17498753Y-19128650D01*
X17498753Y-19128650D02*
X17527325Y-19128650D01*
X17527325Y-19128650D02*
X17546373Y-19138174D01*
X17622563Y-19338174D02*
X17632087Y-19328650D01*
X17632087Y-19328650D02*
X17651134Y-19300079D01*
X17651134Y-19300079D02*
X17660658Y-19281031D01*
X17660658Y-19281031D02*
X17670182Y-19252460D01*
X17670182Y-19252460D02*
X17679706Y-19204841D01*
X17679706Y-19204841D02*
X17679706Y-19166746D01*
X17679706Y-19166746D02*
X17670182Y-19119127D01*
X17670182Y-19119127D02*
X17660658Y-19090555D01*
X17660658Y-19090555D02*
X17651134Y-19071508D01*
X17651134Y-19071508D02*
X17632087Y-19042936D01*
X17632087Y-19042936D02*
X17622563Y-19033412D01*
D12*
X12838713Y-19455713D02*
X12838713Y-19413287D01*
X12796287Y-19413287D01*
X12796287Y-19455713D01*
X12838713Y-19455713D01*
D11*
X13146372Y-19325984D02*
X13165420Y-19325984D01*
X13165420Y-19325984D02*
X13184467Y-19335508D01*
X13184467Y-19335508D02*
X13193991Y-19345031D01*
X13193991Y-19345031D02*
X13203515Y-19364079D01*
X13203515Y-19364079D02*
X13213039Y-19402174D01*
X13213039Y-19402174D02*
X13213039Y-19449793D01*
X13213039Y-19449793D02*
X13203515Y-19487889D01*
X13203515Y-19487889D02*
X13193991Y-19506936D01*
X13193991Y-19506936D02*
X13184467Y-19516460D01*
X13184467Y-19516460D02*
X13165420Y-19525984D01*
X13165420Y-19525984D02*
X13146372Y-19525984D01*
X13146372Y-19525984D02*
X13127324Y-19516460D01*
X13127324Y-19516460D02*
X13117801Y-19506936D01*
X13117801Y-19506936D02*
X13108277Y-19487889D01*
X13108277Y-19487889D02*
X13098753Y-19449793D01*
X13098753Y-19449793D02*
X13098753Y-19402174D01*
X13098753Y-19402174D02*
X13108277Y-19364079D01*
X13108277Y-19364079D02*
X13117801Y-19345031D01*
X13117801Y-19345031D02*
X13127324Y-19335508D01*
X13127324Y-19335508D02*
X13146372Y-19325984D01*
X13298753Y-19506936D02*
X13308277Y-19516460D01*
X13308277Y-19516460D02*
X13298753Y-19525984D01*
X13298753Y-19525984D02*
X13289229Y-19516460D01*
X13289229Y-19516460D02*
X13298753Y-19506936D01*
X13298753Y-19506936D02*
X13298753Y-19525984D01*
X13479705Y-19325984D02*
X13441610Y-19325984D01*
X13441610Y-19325984D02*
X13422562Y-19335508D01*
X13422562Y-19335508D02*
X13413039Y-19345031D01*
X13413039Y-19345031D02*
X13393991Y-19373603D01*
X13393991Y-19373603D02*
X13384467Y-19411698D01*
X13384467Y-19411698D02*
X13384467Y-19487889D01*
X13384467Y-19487889D02*
X13393991Y-19506936D01*
X13393991Y-19506936D02*
X13403515Y-19516460D01*
X13403515Y-19516460D02*
X13422562Y-19525984D01*
X13422562Y-19525984D02*
X13460658Y-19525984D01*
X13460658Y-19525984D02*
X13479705Y-19516460D01*
X13479705Y-19516460D02*
X13489229Y-19506936D01*
X13489229Y-19506936D02*
X13498753Y-19487889D01*
X13498753Y-19487889D02*
X13498753Y-19440270D01*
X13498753Y-19440270D02*
X13489229Y-19421222D01*
X13489229Y-19421222D02*
X13479705Y-19411698D01*
X13479705Y-19411698D02*
X13460658Y-19402174D01*
X13460658Y-19402174D02*
X13422562Y-19402174D01*
X13422562Y-19402174D02*
X13403515Y-19411698D01*
X13403515Y-19411698D02*
X13393991Y-19421222D01*
X13393991Y-19421222D02*
X13384467Y-19440270D01*
X13622562Y-19325984D02*
X13641610Y-19325984D01*
X13641610Y-19325984D02*
X13660658Y-19335508D01*
X13660658Y-19335508D02*
X13670182Y-19345031D01*
X13670182Y-19345031D02*
X13679705Y-19364079D01*
X13679705Y-19364079D02*
X13689229Y-19402174D01*
X13689229Y-19402174D02*
X13689229Y-19449793D01*
X13689229Y-19449793D02*
X13679705Y-19487889D01*
X13679705Y-19487889D02*
X13670182Y-19506936D01*
X13670182Y-19506936D02*
X13660658Y-19516460D01*
X13660658Y-19516460D02*
X13641610Y-19525984D01*
X13641610Y-19525984D02*
X13622562Y-19525984D01*
X13622562Y-19525984D02*
X13603515Y-19516460D01*
X13603515Y-19516460D02*
X13593991Y-19506936D01*
X13593991Y-19506936D02*
X13584467Y-19487889D01*
X13584467Y-19487889D02*
X13574943Y-19449793D01*
X13574943Y-19449793D02*
X13574943Y-19402174D01*
X13574943Y-19402174D02*
X13584467Y-19364079D01*
X13584467Y-19364079D02*
X13593991Y-19345031D01*
X13593991Y-19345031D02*
X13603515Y-19335508D01*
X13603515Y-19335508D02*
X13622562Y-19325984D01*
X13813039Y-19325984D02*
X13832086Y-19325984D01*
X13832086Y-19325984D02*
X13851134Y-19335508D01*
X13851134Y-19335508D02*
X13860658Y-19345031D01*
X13860658Y-19345031D02*
X13870182Y-19364079D01*
X13870182Y-19364079D02*
X13879705Y-19402174D01*
X13879705Y-19402174D02*
X13879705Y-19449793D01*
X13879705Y-19449793D02*
X13870182Y-19487889D01*
X13870182Y-19487889D02*
X13860658Y-19506936D01*
X13860658Y-19506936D02*
X13851134Y-19516460D01*
X13851134Y-19516460D02*
X13832086Y-19525984D01*
X13832086Y-19525984D02*
X13813039Y-19525984D01*
X13813039Y-19525984D02*
X13793991Y-19516460D01*
X13793991Y-19516460D02*
X13784467Y-19506936D01*
X13784467Y-19506936D02*
X13774943Y-19487889D01*
X13774943Y-19487889D02*
X13765420Y-19449793D01*
X13765420Y-19449793D02*
X13765420Y-19402174D01*
X13765420Y-19402174D02*
X13774943Y-19364079D01*
X13774943Y-19364079D02*
X13784467Y-19345031D01*
X13784467Y-19345031D02*
X13793991Y-19335508D01*
X13793991Y-19335508D02*
X13813039Y-19325984D01*
X13965420Y-19525984D02*
X13965420Y-19392650D01*
X13965420Y-19411698D02*
X13974943Y-19402174D01*
X13974943Y-19402174D02*
X13993991Y-19392650D01*
X13993991Y-19392650D02*
X14022563Y-19392650D01*
X14022563Y-19392650D02*
X14041610Y-19402174D01*
X14041610Y-19402174D02*
X14051134Y-19421222D01*
X14051134Y-19421222D02*
X14051134Y-19525984D01*
X14051134Y-19421222D02*
X14060658Y-19402174D01*
X14060658Y-19402174D02*
X14079705Y-19392650D01*
X14079705Y-19392650D02*
X14108277Y-19392650D01*
X14108277Y-19392650D02*
X14127324Y-19402174D01*
X14127324Y-19402174D02*
X14136848Y-19421222D01*
X14136848Y-19421222D02*
X14136848Y-19525984D01*
X14232086Y-19525984D02*
X14232086Y-19392650D01*
X14232086Y-19411698D02*
X14241610Y-19402174D01*
X14241610Y-19402174D02*
X14260658Y-19392650D01*
X14260658Y-19392650D02*
X14289229Y-19392650D01*
X14289229Y-19392650D02*
X14308277Y-19402174D01*
X14308277Y-19402174D02*
X14317801Y-19421222D01*
X14317801Y-19421222D02*
X14317801Y-19525984D01*
X14317801Y-19421222D02*
X14327324Y-19402174D01*
X14327324Y-19402174D02*
X14346372Y-19392650D01*
X14346372Y-19392650D02*
X14374943Y-19392650D01*
X14374943Y-19392650D02*
X14393991Y-19402174D01*
X14393991Y-19402174D02*
X14403515Y-19421222D01*
X14403515Y-19421222D02*
X14403515Y-19525984D01*
X14793991Y-19316460D02*
X14622563Y-19573603D01*
X15051134Y-19325984D02*
X15070182Y-19325984D01*
X15070182Y-19325984D02*
X15089229Y-19335508D01*
X15089229Y-19335508D02*
X15098753Y-19345031D01*
X15098753Y-19345031D02*
X15108277Y-19364079D01*
X15108277Y-19364079D02*
X15117801Y-19402174D01*
X15117801Y-19402174D02*
X15117801Y-19449793D01*
X15117801Y-19449793D02*
X15108277Y-19487889D01*
X15108277Y-19487889D02*
X15098753Y-19506936D01*
X15098753Y-19506936D02*
X15089229Y-19516460D01*
X15089229Y-19516460D02*
X15070182Y-19525984D01*
X15070182Y-19525984D02*
X15051134Y-19525984D01*
X15051134Y-19525984D02*
X15032086Y-19516460D01*
X15032086Y-19516460D02*
X15022563Y-19506936D01*
X15022563Y-19506936D02*
X15013039Y-19487889D01*
X15013039Y-19487889D02*
X15003515Y-19449793D01*
X15003515Y-19449793D02*
X15003515Y-19402174D01*
X15003515Y-19402174D02*
X15013039Y-19364079D01*
X15013039Y-19364079D02*
X15022563Y-19345031D01*
X15022563Y-19345031D02*
X15032086Y-19335508D01*
X15032086Y-19335508D02*
X15051134Y-19325984D01*
X15203515Y-19506936D02*
X15213039Y-19516460D01*
X15213039Y-19516460D02*
X15203515Y-19525984D01*
X15203515Y-19525984D02*
X15193991Y-19516460D01*
X15193991Y-19516460D02*
X15203515Y-19506936D01*
X15203515Y-19506936D02*
X15203515Y-19525984D01*
X15336848Y-19325984D02*
X15355896Y-19325984D01*
X15355896Y-19325984D02*
X15374944Y-19335508D01*
X15374944Y-19335508D02*
X15384467Y-19345031D01*
X15384467Y-19345031D02*
X15393991Y-19364079D01*
X15393991Y-19364079D02*
X15403515Y-19402174D01*
X15403515Y-19402174D02*
X15403515Y-19449793D01*
X15403515Y-19449793D02*
X15393991Y-19487889D01*
X15393991Y-19487889D02*
X15384467Y-19506936D01*
X15384467Y-19506936D02*
X15374944Y-19516460D01*
X15374944Y-19516460D02*
X15355896Y-19525984D01*
X15355896Y-19525984D02*
X15336848Y-19525984D01*
X15336848Y-19525984D02*
X15317801Y-19516460D01*
X15317801Y-19516460D02*
X15308277Y-19506936D01*
X15308277Y-19506936D02*
X15298753Y-19487889D01*
X15298753Y-19487889D02*
X15289229Y-19449793D01*
X15289229Y-19449793D02*
X15289229Y-19402174D01*
X15289229Y-19402174D02*
X15298753Y-19364079D01*
X15298753Y-19364079D02*
X15308277Y-19345031D01*
X15308277Y-19345031D02*
X15317801Y-19335508D01*
X15317801Y-19335508D02*
X15336848Y-19325984D01*
X15479706Y-19345031D02*
X15489229Y-19335508D01*
X15489229Y-19335508D02*
X15508277Y-19325984D01*
X15508277Y-19325984D02*
X15555896Y-19325984D01*
X15555896Y-19325984D02*
X15574944Y-19335508D01*
X15574944Y-19335508D02*
X15584467Y-19345031D01*
X15584467Y-19345031D02*
X15593991Y-19364079D01*
X15593991Y-19364079D02*
X15593991Y-19383127D01*
X15593991Y-19383127D02*
X15584467Y-19411698D01*
X15584467Y-19411698D02*
X15470182Y-19525984D01*
X15470182Y-19525984D02*
X15593991Y-19525984D01*
X15660658Y-19325984D02*
X15784467Y-19325984D01*
X15784467Y-19325984D02*
X15717801Y-19402174D01*
X15717801Y-19402174D02*
X15746372Y-19402174D01*
X15746372Y-19402174D02*
X15765420Y-19411698D01*
X15765420Y-19411698D02*
X15774944Y-19421222D01*
X15774944Y-19421222D02*
X15784467Y-19440270D01*
X15784467Y-19440270D02*
X15784467Y-19487889D01*
X15784467Y-19487889D02*
X15774944Y-19506936D01*
X15774944Y-19506936D02*
X15765420Y-19516460D01*
X15765420Y-19516460D02*
X15746372Y-19525984D01*
X15746372Y-19525984D02*
X15689229Y-19525984D01*
X15689229Y-19525984D02*
X15670182Y-19516460D01*
X15670182Y-19516460D02*
X15660658Y-19506936D01*
X15955896Y-19325984D02*
X15917801Y-19325984D01*
X15917801Y-19325984D02*
X15898753Y-19335508D01*
X15898753Y-19335508D02*
X15889229Y-19345031D01*
X15889229Y-19345031D02*
X15870182Y-19373603D01*
X15870182Y-19373603D02*
X15860658Y-19411698D01*
X15860658Y-19411698D02*
X15860658Y-19487889D01*
X15860658Y-19487889D02*
X15870182Y-19506936D01*
X15870182Y-19506936D02*
X15879706Y-19516460D01*
X15879706Y-19516460D02*
X15898753Y-19525984D01*
X15898753Y-19525984D02*
X15936848Y-19525984D01*
X15936848Y-19525984D02*
X15955896Y-19516460D01*
X15955896Y-19516460D02*
X15965420Y-19506936D01*
X15965420Y-19506936D02*
X15974944Y-19487889D01*
X15974944Y-19487889D02*
X15974944Y-19440270D01*
X15974944Y-19440270D02*
X15965420Y-19421222D01*
X15965420Y-19421222D02*
X15955896Y-19411698D01*
X15955896Y-19411698D02*
X15936848Y-19402174D01*
X15936848Y-19402174D02*
X15898753Y-19402174D01*
X15898753Y-19402174D02*
X15879706Y-19411698D01*
X15879706Y-19411698D02*
X15870182Y-19421222D01*
X15870182Y-19421222D02*
X15860658Y-19440270D01*
X16051134Y-19325984D02*
X16051134Y-19364079D01*
X16127325Y-19325984D02*
X16127325Y-19364079D01*
X16422563Y-19602174D02*
X16413039Y-19592650D01*
X16413039Y-19592650D02*
X16393991Y-19564079D01*
X16393991Y-19564079D02*
X16384468Y-19545031D01*
X16384468Y-19545031D02*
X16374944Y-19516460D01*
X16374944Y-19516460D02*
X16365420Y-19468841D01*
X16365420Y-19468841D02*
X16365420Y-19430746D01*
X16365420Y-19430746D02*
X16374944Y-19383127D01*
X16374944Y-19383127D02*
X16384468Y-19354555D01*
X16384468Y-19354555D02*
X16393991Y-19335508D01*
X16393991Y-19335508D02*
X16413039Y-19306936D01*
X16413039Y-19306936D02*
X16422563Y-19297412D01*
X16536848Y-19325984D02*
X16555896Y-19325984D01*
X16555896Y-19325984D02*
X16574944Y-19335508D01*
X16574944Y-19335508D02*
X16584468Y-19345031D01*
X16584468Y-19345031D02*
X16593991Y-19364079D01*
X16593991Y-19364079D02*
X16603515Y-19402174D01*
X16603515Y-19402174D02*
X16603515Y-19449793D01*
X16603515Y-19449793D02*
X16593991Y-19487889D01*
X16593991Y-19487889D02*
X16584468Y-19506936D01*
X16584468Y-19506936D02*
X16574944Y-19516460D01*
X16574944Y-19516460D02*
X16555896Y-19525984D01*
X16555896Y-19525984D02*
X16536848Y-19525984D01*
X16536848Y-19525984D02*
X16517801Y-19516460D01*
X16517801Y-19516460D02*
X16508277Y-19506936D01*
X16508277Y-19506936D02*
X16498753Y-19487889D01*
X16498753Y-19487889D02*
X16489229Y-19449793D01*
X16489229Y-19449793D02*
X16489229Y-19402174D01*
X16489229Y-19402174D02*
X16498753Y-19364079D01*
X16498753Y-19364079D02*
X16508277Y-19345031D01*
X16508277Y-19345031D02*
X16517801Y-19335508D01*
X16517801Y-19335508D02*
X16536848Y-19325984D01*
X16841611Y-19525984D02*
X16841611Y-19325984D01*
X16927325Y-19525984D02*
X16927325Y-19421222D01*
X16927325Y-19421222D02*
X16917801Y-19402174D01*
X16917801Y-19402174D02*
X16898753Y-19392650D01*
X16898753Y-19392650D02*
X16870182Y-19392650D01*
X16870182Y-19392650D02*
X16851134Y-19402174D01*
X16851134Y-19402174D02*
X16841611Y-19411698D01*
X17051134Y-19525984D02*
X17032087Y-19516460D01*
X17032087Y-19516460D02*
X17022563Y-19506936D01*
X17022563Y-19506936D02*
X17013039Y-19487889D01*
X17013039Y-19487889D02*
X17013039Y-19430746D01*
X17013039Y-19430746D02*
X17022563Y-19411698D01*
X17022563Y-19411698D02*
X17032087Y-19402174D01*
X17032087Y-19402174D02*
X17051134Y-19392650D01*
X17051134Y-19392650D02*
X17079706Y-19392650D01*
X17079706Y-19392650D02*
X17098753Y-19402174D01*
X17098753Y-19402174D02*
X17108277Y-19411698D01*
X17108277Y-19411698D02*
X17117801Y-19430746D01*
X17117801Y-19430746D02*
X17117801Y-19487889D01*
X17117801Y-19487889D02*
X17108277Y-19506936D01*
X17108277Y-19506936D02*
X17098753Y-19516460D01*
X17098753Y-19516460D02*
X17079706Y-19525984D01*
X17079706Y-19525984D02*
X17051134Y-19525984D01*
X17232087Y-19525984D02*
X17213039Y-19516460D01*
X17213039Y-19516460D02*
X17203515Y-19497412D01*
X17203515Y-19497412D02*
X17203515Y-19325984D01*
X17384468Y-19516460D02*
X17365420Y-19525984D01*
X17365420Y-19525984D02*
X17327325Y-19525984D01*
X17327325Y-19525984D02*
X17308277Y-19516460D01*
X17308277Y-19516460D02*
X17298753Y-19497412D01*
X17298753Y-19497412D02*
X17298753Y-19421222D01*
X17298753Y-19421222D02*
X17308277Y-19402174D01*
X17308277Y-19402174D02*
X17327325Y-19392650D01*
X17327325Y-19392650D02*
X17365420Y-19392650D01*
X17365420Y-19392650D02*
X17384468Y-19402174D01*
X17384468Y-19402174D02*
X17393992Y-19421222D01*
X17393992Y-19421222D02*
X17393992Y-19440270D01*
X17393992Y-19440270D02*
X17298753Y-19459317D01*
X17470182Y-19516460D02*
X17489230Y-19525984D01*
X17489230Y-19525984D02*
X17527325Y-19525984D01*
X17527325Y-19525984D02*
X17546373Y-19516460D01*
X17546373Y-19516460D02*
X17555896Y-19497412D01*
X17555896Y-19497412D02*
X17555896Y-19487889D01*
X17555896Y-19487889D02*
X17546373Y-19468841D01*
X17546373Y-19468841D02*
X17527325Y-19459317D01*
X17527325Y-19459317D02*
X17498753Y-19459317D01*
X17498753Y-19459317D02*
X17479706Y-19449793D01*
X17479706Y-19449793D02*
X17470182Y-19430746D01*
X17470182Y-19430746D02*
X17470182Y-19421222D01*
X17470182Y-19421222D02*
X17479706Y-19402174D01*
X17479706Y-19402174D02*
X17498753Y-19392650D01*
X17498753Y-19392650D02*
X17527325Y-19392650D01*
X17527325Y-19392650D02*
X17546373Y-19402174D01*
X17793992Y-19449793D02*
X17946373Y-19449793D01*
X17870182Y-19525984D02*
X17870182Y-19373603D01*
X18279706Y-19392650D02*
X18279706Y-19525984D01*
X18232087Y-19316460D02*
X18184468Y-19459317D01*
X18184468Y-19459317D02*
X18308277Y-19459317D01*
X18527325Y-19516460D02*
X18546373Y-19525984D01*
X18546373Y-19525984D02*
X18584468Y-19525984D01*
X18584468Y-19525984D02*
X18603516Y-19516460D01*
X18603516Y-19516460D02*
X18613039Y-19497412D01*
X18613039Y-19497412D02*
X18613039Y-19487889D01*
X18613039Y-19487889D02*
X18603516Y-19468841D01*
X18603516Y-19468841D02*
X18584468Y-19459317D01*
X18584468Y-19459317D02*
X18555896Y-19459317D01*
X18555896Y-19459317D02*
X18536849Y-19449793D01*
X18536849Y-19449793D02*
X18527325Y-19430746D01*
X18527325Y-19430746D02*
X18527325Y-19421222D01*
X18527325Y-19421222D02*
X18536849Y-19402174D01*
X18536849Y-19402174D02*
X18555896Y-19392650D01*
X18555896Y-19392650D02*
X18584468Y-19392650D01*
X18584468Y-19392650D02*
X18603516Y-19402174D01*
X18727325Y-19525984D02*
X18708277Y-19516460D01*
X18708277Y-19516460D02*
X18698754Y-19497412D01*
X18698754Y-19497412D02*
X18698754Y-19325984D01*
X18832087Y-19525984D02*
X18813039Y-19516460D01*
X18813039Y-19516460D02*
X18803516Y-19506936D01*
X18803516Y-19506936D02*
X18793992Y-19487889D01*
X18793992Y-19487889D02*
X18793992Y-19430746D01*
X18793992Y-19430746D02*
X18803516Y-19411698D01*
X18803516Y-19411698D02*
X18813039Y-19402174D01*
X18813039Y-19402174D02*
X18832087Y-19392650D01*
X18832087Y-19392650D02*
X18860658Y-19392650D01*
X18860658Y-19392650D02*
X18879706Y-19402174D01*
X18879706Y-19402174D02*
X18889230Y-19411698D01*
X18889230Y-19411698D02*
X18898754Y-19430746D01*
X18898754Y-19430746D02*
X18898754Y-19487889D01*
X18898754Y-19487889D02*
X18889230Y-19506936D01*
X18889230Y-19506936D02*
X18879706Y-19516460D01*
X18879706Y-19516460D02*
X18860658Y-19525984D01*
X18860658Y-19525984D02*
X18832087Y-19525984D01*
X18955897Y-19392650D02*
X19032087Y-19392650D01*
X18984468Y-19325984D02*
X18984468Y-19497412D01*
X18984468Y-19497412D02*
X18993992Y-19516460D01*
X18993992Y-19516460D02*
X19013039Y-19525984D01*
X19013039Y-19525984D02*
X19032087Y-19525984D01*
X19089230Y-19516460D02*
X19108277Y-19525984D01*
X19108277Y-19525984D02*
X19146373Y-19525984D01*
X19146373Y-19525984D02*
X19165420Y-19516460D01*
X19165420Y-19516460D02*
X19174944Y-19497412D01*
X19174944Y-19497412D02*
X19174944Y-19487889D01*
X19174944Y-19487889D02*
X19165420Y-19468841D01*
X19165420Y-19468841D02*
X19146373Y-19459317D01*
X19146373Y-19459317D02*
X19117801Y-19459317D01*
X19117801Y-19459317D02*
X19098754Y-19449793D01*
X19098754Y-19449793D02*
X19089230Y-19430746D01*
X19089230Y-19430746D02*
X19089230Y-19421222D01*
X19089230Y-19421222D02*
X19098754Y-19402174D01*
X19098754Y-19402174D02*
X19117801Y-19392650D01*
X19117801Y-19392650D02*
X19146373Y-19392650D01*
X19146373Y-19392650D02*
X19165420Y-19402174D01*
X19241611Y-19602174D02*
X19251135Y-19592650D01*
X19251135Y-19592650D02*
X19270182Y-19564079D01*
X19270182Y-19564079D02*
X19279706Y-19545031D01*
X19279706Y-19545031D02*
X19289230Y-19516460D01*
X19289230Y-19516460D02*
X19298754Y-19468841D01*
X19298754Y-19468841D02*
X19298754Y-19430746D01*
X19298754Y-19430746D02*
X19289230Y-19383127D01*
X19289230Y-19383127D02*
X19279706Y-19354555D01*
X19279706Y-19354555D02*
X19270182Y-19335508D01*
X19270182Y-19335508D02*
X19251135Y-19306936D01*
X19251135Y-19306936D02*
X19241611Y-19297412D01*
D12*
X12803050Y-19742950D02*
X12847500Y-19698500D01*
X12803050Y-19654050D01*
X12758600Y-19698500D01*
X12803050Y-19742950D01*
D11*
X13146372Y-19589984D02*
X13165420Y-19589984D01*
X13165420Y-19589984D02*
X13184467Y-19599508D01*
X13184467Y-19599508D02*
X13193991Y-19609031D01*
X13193991Y-19609031D02*
X13203515Y-19628079D01*
X13203515Y-19628079D02*
X13213039Y-19666174D01*
X13213039Y-19666174D02*
X13213039Y-19713793D01*
X13213039Y-19713793D02*
X13203515Y-19751889D01*
X13203515Y-19751889D02*
X13193991Y-19770936D01*
X13193991Y-19770936D02*
X13184467Y-19780460D01*
X13184467Y-19780460D02*
X13165420Y-19789984D01*
X13165420Y-19789984D02*
X13146372Y-19789984D01*
X13146372Y-19789984D02*
X13127324Y-19780460D01*
X13127324Y-19780460D02*
X13117801Y-19770936D01*
X13117801Y-19770936D02*
X13108277Y-19751889D01*
X13108277Y-19751889D02*
X13098753Y-19713793D01*
X13098753Y-19713793D02*
X13098753Y-19666174D01*
X13098753Y-19666174D02*
X13108277Y-19628079D01*
X13108277Y-19628079D02*
X13117801Y-19609031D01*
X13117801Y-19609031D02*
X13127324Y-19599508D01*
X13127324Y-19599508D02*
X13146372Y-19589984D01*
X13298753Y-19770936D02*
X13308277Y-19780460D01*
X13308277Y-19780460D02*
X13298753Y-19789984D01*
X13298753Y-19789984D02*
X13289229Y-19780460D01*
X13289229Y-19780460D02*
X13298753Y-19770936D01*
X13298753Y-19770936D02*
X13298753Y-19789984D01*
X13422562Y-19675698D02*
X13403515Y-19666174D01*
X13403515Y-19666174D02*
X13393991Y-19656650D01*
X13393991Y-19656650D02*
X13384467Y-19637603D01*
X13384467Y-19637603D02*
X13384467Y-19628079D01*
X13384467Y-19628079D02*
X13393991Y-19609031D01*
X13393991Y-19609031D02*
X13403515Y-19599508D01*
X13403515Y-19599508D02*
X13422562Y-19589984D01*
X13422562Y-19589984D02*
X13460658Y-19589984D01*
X13460658Y-19589984D02*
X13479705Y-19599508D01*
X13479705Y-19599508D02*
X13489229Y-19609031D01*
X13489229Y-19609031D02*
X13498753Y-19628079D01*
X13498753Y-19628079D02*
X13498753Y-19637603D01*
X13498753Y-19637603D02*
X13489229Y-19656650D01*
X13489229Y-19656650D02*
X13479705Y-19666174D01*
X13479705Y-19666174D02*
X13460658Y-19675698D01*
X13460658Y-19675698D02*
X13422562Y-19675698D01*
X13422562Y-19675698D02*
X13403515Y-19685222D01*
X13403515Y-19685222D02*
X13393991Y-19694746D01*
X13393991Y-19694746D02*
X13384467Y-19713793D01*
X13384467Y-19713793D02*
X13384467Y-19751889D01*
X13384467Y-19751889D02*
X13393991Y-19770936D01*
X13393991Y-19770936D02*
X13403515Y-19780460D01*
X13403515Y-19780460D02*
X13422562Y-19789984D01*
X13422562Y-19789984D02*
X13460658Y-19789984D01*
X13460658Y-19789984D02*
X13479705Y-19780460D01*
X13479705Y-19780460D02*
X13489229Y-19770936D01*
X13489229Y-19770936D02*
X13498753Y-19751889D01*
X13498753Y-19751889D02*
X13498753Y-19713793D01*
X13498753Y-19713793D02*
X13489229Y-19694746D01*
X13489229Y-19694746D02*
X13479705Y-19685222D01*
X13479705Y-19685222D02*
X13460658Y-19675698D01*
X13613039Y-19675698D02*
X13593991Y-19666174D01*
X13593991Y-19666174D02*
X13584467Y-19656650D01*
X13584467Y-19656650D02*
X13574943Y-19637603D01*
X13574943Y-19637603D02*
X13574943Y-19628079D01*
X13574943Y-19628079D02*
X13584467Y-19609031D01*
X13584467Y-19609031D02*
X13593991Y-19599508D01*
X13593991Y-19599508D02*
X13613039Y-19589984D01*
X13613039Y-19589984D02*
X13651134Y-19589984D01*
X13651134Y-19589984D02*
X13670182Y-19599508D01*
X13670182Y-19599508D02*
X13679705Y-19609031D01*
X13679705Y-19609031D02*
X13689229Y-19628079D01*
X13689229Y-19628079D02*
X13689229Y-19637603D01*
X13689229Y-19637603D02*
X13679705Y-19656650D01*
X13679705Y-19656650D02*
X13670182Y-19666174D01*
X13670182Y-19666174D02*
X13651134Y-19675698D01*
X13651134Y-19675698D02*
X13613039Y-19675698D01*
X13613039Y-19675698D02*
X13593991Y-19685222D01*
X13593991Y-19685222D02*
X13584467Y-19694746D01*
X13584467Y-19694746D02*
X13574943Y-19713793D01*
X13574943Y-19713793D02*
X13574943Y-19751889D01*
X13574943Y-19751889D02*
X13584467Y-19770936D01*
X13584467Y-19770936D02*
X13593991Y-19780460D01*
X13593991Y-19780460D02*
X13613039Y-19789984D01*
X13613039Y-19789984D02*
X13651134Y-19789984D01*
X13651134Y-19789984D02*
X13670182Y-19780460D01*
X13670182Y-19780460D02*
X13679705Y-19770936D01*
X13679705Y-19770936D02*
X13689229Y-19751889D01*
X13689229Y-19751889D02*
X13689229Y-19713793D01*
X13689229Y-19713793D02*
X13679705Y-19694746D01*
X13679705Y-19694746D02*
X13670182Y-19685222D01*
X13670182Y-19685222D02*
X13651134Y-19675698D01*
X13784467Y-19789984D02*
X13822562Y-19789984D01*
X13822562Y-19789984D02*
X13841610Y-19780460D01*
X13841610Y-19780460D02*
X13851134Y-19770936D01*
X13851134Y-19770936D02*
X13870182Y-19742365D01*
X13870182Y-19742365D02*
X13879705Y-19704270D01*
X13879705Y-19704270D02*
X13879705Y-19628079D01*
X13879705Y-19628079D02*
X13870182Y-19609031D01*
X13870182Y-19609031D02*
X13860658Y-19599508D01*
X13860658Y-19599508D02*
X13841610Y-19589984D01*
X13841610Y-19589984D02*
X13803515Y-19589984D01*
X13803515Y-19589984D02*
X13784467Y-19599508D01*
X13784467Y-19599508D02*
X13774943Y-19609031D01*
X13774943Y-19609031D02*
X13765420Y-19628079D01*
X13765420Y-19628079D02*
X13765420Y-19675698D01*
X13765420Y-19675698D02*
X13774943Y-19694746D01*
X13774943Y-19694746D02*
X13784467Y-19704270D01*
X13784467Y-19704270D02*
X13803515Y-19713793D01*
X13803515Y-19713793D02*
X13841610Y-19713793D01*
X13841610Y-19713793D02*
X13860658Y-19704270D01*
X13860658Y-19704270D02*
X13870182Y-19694746D01*
X13870182Y-19694746D02*
X13879705Y-19675698D01*
X13965420Y-19789984D02*
X13965420Y-19656650D01*
X13965420Y-19675698D02*
X13974943Y-19666174D01*
X13974943Y-19666174D02*
X13993991Y-19656650D01*
X13993991Y-19656650D02*
X14022563Y-19656650D01*
X14022563Y-19656650D02*
X14041610Y-19666174D01*
X14041610Y-19666174D02*
X14051134Y-19685222D01*
X14051134Y-19685222D02*
X14051134Y-19789984D01*
X14051134Y-19685222D02*
X14060658Y-19666174D01*
X14060658Y-19666174D02*
X14079705Y-19656650D01*
X14079705Y-19656650D02*
X14108277Y-19656650D01*
X14108277Y-19656650D02*
X14127324Y-19666174D01*
X14127324Y-19666174D02*
X14136848Y-19685222D01*
X14136848Y-19685222D02*
X14136848Y-19789984D01*
X14232086Y-19789984D02*
X14232086Y-19656650D01*
X14232086Y-19675698D02*
X14241610Y-19666174D01*
X14241610Y-19666174D02*
X14260658Y-19656650D01*
X14260658Y-19656650D02*
X14289229Y-19656650D01*
X14289229Y-19656650D02*
X14308277Y-19666174D01*
X14308277Y-19666174D02*
X14317801Y-19685222D01*
X14317801Y-19685222D02*
X14317801Y-19789984D01*
X14317801Y-19685222D02*
X14327324Y-19666174D01*
X14327324Y-19666174D02*
X14346372Y-19656650D01*
X14346372Y-19656650D02*
X14374943Y-19656650D01*
X14374943Y-19656650D02*
X14393991Y-19666174D01*
X14393991Y-19666174D02*
X14403515Y-19685222D01*
X14403515Y-19685222D02*
X14403515Y-19789984D01*
X14793991Y-19580460D02*
X14622563Y-19837603D01*
X15051134Y-19589984D02*
X15070182Y-19589984D01*
X15070182Y-19589984D02*
X15089229Y-19599508D01*
X15089229Y-19599508D02*
X15098753Y-19609031D01*
X15098753Y-19609031D02*
X15108277Y-19628079D01*
X15108277Y-19628079D02*
X15117801Y-19666174D01*
X15117801Y-19666174D02*
X15117801Y-19713793D01*
X15117801Y-19713793D02*
X15108277Y-19751889D01*
X15108277Y-19751889D02*
X15098753Y-19770936D01*
X15098753Y-19770936D02*
X15089229Y-19780460D01*
X15089229Y-19780460D02*
X15070182Y-19789984D01*
X15070182Y-19789984D02*
X15051134Y-19789984D01*
X15051134Y-19789984D02*
X15032086Y-19780460D01*
X15032086Y-19780460D02*
X15022563Y-19770936D01*
X15022563Y-19770936D02*
X15013039Y-19751889D01*
X15013039Y-19751889D02*
X15003515Y-19713793D01*
X15003515Y-19713793D02*
X15003515Y-19666174D01*
X15003515Y-19666174D02*
X15013039Y-19628079D01*
X15013039Y-19628079D02*
X15022563Y-19609031D01*
X15022563Y-19609031D02*
X15032086Y-19599508D01*
X15032086Y-19599508D02*
X15051134Y-19589984D01*
X15203515Y-19770936D02*
X15213039Y-19780460D01*
X15213039Y-19780460D02*
X15203515Y-19789984D01*
X15203515Y-19789984D02*
X15193991Y-19780460D01*
X15193991Y-19780460D02*
X15203515Y-19770936D01*
X15203515Y-19770936D02*
X15203515Y-19789984D01*
X15336848Y-19589984D02*
X15355896Y-19589984D01*
X15355896Y-19589984D02*
X15374944Y-19599508D01*
X15374944Y-19599508D02*
X15384467Y-19609031D01*
X15384467Y-19609031D02*
X15393991Y-19628079D01*
X15393991Y-19628079D02*
X15403515Y-19666174D01*
X15403515Y-19666174D02*
X15403515Y-19713793D01*
X15403515Y-19713793D02*
X15393991Y-19751889D01*
X15393991Y-19751889D02*
X15384467Y-19770936D01*
X15384467Y-19770936D02*
X15374944Y-19780460D01*
X15374944Y-19780460D02*
X15355896Y-19789984D01*
X15355896Y-19789984D02*
X15336848Y-19789984D01*
X15336848Y-19789984D02*
X15317801Y-19780460D01*
X15317801Y-19780460D02*
X15308277Y-19770936D01*
X15308277Y-19770936D02*
X15298753Y-19751889D01*
X15298753Y-19751889D02*
X15289229Y-19713793D01*
X15289229Y-19713793D02*
X15289229Y-19666174D01*
X15289229Y-19666174D02*
X15298753Y-19628079D01*
X15298753Y-19628079D02*
X15308277Y-19609031D01*
X15308277Y-19609031D02*
X15317801Y-19599508D01*
X15317801Y-19599508D02*
X15336848Y-19589984D01*
X15470182Y-19589984D02*
X15593991Y-19589984D01*
X15593991Y-19589984D02*
X15527325Y-19666174D01*
X15527325Y-19666174D02*
X15555896Y-19666174D01*
X15555896Y-19666174D02*
X15574944Y-19675698D01*
X15574944Y-19675698D02*
X15584467Y-19685222D01*
X15584467Y-19685222D02*
X15593991Y-19704270D01*
X15593991Y-19704270D02*
X15593991Y-19751889D01*
X15593991Y-19751889D02*
X15584467Y-19770936D01*
X15584467Y-19770936D02*
X15574944Y-19780460D01*
X15574944Y-19780460D02*
X15555896Y-19789984D01*
X15555896Y-19789984D02*
X15498753Y-19789984D01*
X15498753Y-19789984D02*
X15479706Y-19780460D01*
X15479706Y-19780460D02*
X15470182Y-19770936D01*
X15774944Y-19589984D02*
X15679706Y-19589984D01*
X15679706Y-19589984D02*
X15670182Y-19685222D01*
X15670182Y-19685222D02*
X15679706Y-19675698D01*
X15679706Y-19675698D02*
X15698753Y-19666174D01*
X15698753Y-19666174D02*
X15746372Y-19666174D01*
X15746372Y-19666174D02*
X15765420Y-19675698D01*
X15765420Y-19675698D02*
X15774944Y-19685222D01*
X15774944Y-19685222D02*
X15784467Y-19704270D01*
X15784467Y-19704270D02*
X15784467Y-19751889D01*
X15784467Y-19751889D02*
X15774944Y-19770936D01*
X15774944Y-19770936D02*
X15765420Y-19780460D01*
X15765420Y-19780460D02*
X15746372Y-19789984D01*
X15746372Y-19789984D02*
X15698753Y-19789984D01*
X15698753Y-19789984D02*
X15679706Y-19780460D01*
X15679706Y-19780460D02*
X15670182Y-19770936D01*
X15908277Y-19589984D02*
X15927325Y-19589984D01*
X15927325Y-19589984D02*
X15946372Y-19599508D01*
X15946372Y-19599508D02*
X15955896Y-19609031D01*
X15955896Y-19609031D02*
X15965420Y-19628079D01*
X15965420Y-19628079D02*
X15974944Y-19666174D01*
X15974944Y-19666174D02*
X15974944Y-19713793D01*
X15974944Y-19713793D02*
X15965420Y-19751889D01*
X15965420Y-19751889D02*
X15955896Y-19770936D01*
X15955896Y-19770936D02*
X15946372Y-19780460D01*
X15946372Y-19780460D02*
X15927325Y-19789984D01*
X15927325Y-19789984D02*
X15908277Y-19789984D01*
X15908277Y-19789984D02*
X15889229Y-19780460D01*
X15889229Y-19780460D02*
X15879706Y-19770936D01*
X15879706Y-19770936D02*
X15870182Y-19751889D01*
X15870182Y-19751889D02*
X15860658Y-19713793D01*
X15860658Y-19713793D02*
X15860658Y-19666174D01*
X15860658Y-19666174D02*
X15870182Y-19628079D01*
X15870182Y-19628079D02*
X15879706Y-19609031D01*
X15879706Y-19609031D02*
X15889229Y-19599508D01*
X15889229Y-19599508D02*
X15908277Y-19589984D01*
X16051134Y-19589984D02*
X16051134Y-19628079D01*
X16127325Y-19589984D02*
X16127325Y-19628079D01*
X16422563Y-19866174D02*
X16413039Y-19856650D01*
X16413039Y-19856650D02*
X16393991Y-19828079D01*
X16393991Y-19828079D02*
X16384468Y-19809031D01*
X16384468Y-19809031D02*
X16374944Y-19780460D01*
X16374944Y-19780460D02*
X16365420Y-19732841D01*
X16365420Y-19732841D02*
X16365420Y-19694746D01*
X16365420Y-19694746D02*
X16374944Y-19647127D01*
X16374944Y-19647127D02*
X16384468Y-19618555D01*
X16384468Y-19618555D02*
X16393991Y-19599508D01*
X16393991Y-19599508D02*
X16413039Y-19570936D01*
X16413039Y-19570936D02*
X16422563Y-19561412D01*
X16603515Y-19789984D02*
X16489229Y-19789984D01*
X16546372Y-19789984D02*
X16546372Y-19589984D01*
X16546372Y-19589984D02*
X16527325Y-19618555D01*
X16527325Y-19618555D02*
X16508277Y-19637603D01*
X16508277Y-19637603D02*
X16489229Y-19647127D01*
X16774944Y-19656650D02*
X16774944Y-19789984D01*
X16727325Y-19580460D02*
X16679706Y-19723317D01*
X16679706Y-19723317D02*
X16803515Y-19723317D01*
X17032087Y-19789984D02*
X17032087Y-19589984D01*
X17117801Y-19789984D02*
X17117801Y-19685222D01*
X17117801Y-19685222D02*
X17108277Y-19666174D01*
X17108277Y-19666174D02*
X17089230Y-19656650D01*
X17089230Y-19656650D02*
X17060658Y-19656650D01*
X17060658Y-19656650D02*
X17041611Y-19666174D01*
X17041611Y-19666174D02*
X17032087Y-19675698D01*
X17241611Y-19789984D02*
X17222563Y-19780460D01*
X17222563Y-19780460D02*
X17213039Y-19770936D01*
X17213039Y-19770936D02*
X17203515Y-19751889D01*
X17203515Y-19751889D02*
X17203515Y-19694746D01*
X17203515Y-19694746D02*
X17213039Y-19675698D01*
X17213039Y-19675698D02*
X17222563Y-19666174D01*
X17222563Y-19666174D02*
X17241611Y-19656650D01*
X17241611Y-19656650D02*
X17270182Y-19656650D01*
X17270182Y-19656650D02*
X17289230Y-19666174D01*
X17289230Y-19666174D02*
X17298753Y-19675698D01*
X17298753Y-19675698D02*
X17308277Y-19694746D01*
X17308277Y-19694746D02*
X17308277Y-19751889D01*
X17308277Y-19751889D02*
X17298753Y-19770936D01*
X17298753Y-19770936D02*
X17289230Y-19780460D01*
X17289230Y-19780460D02*
X17270182Y-19789984D01*
X17270182Y-19789984D02*
X17241611Y-19789984D01*
X17422563Y-19789984D02*
X17403515Y-19780460D01*
X17403515Y-19780460D02*
X17393992Y-19761412D01*
X17393992Y-19761412D02*
X17393992Y-19589984D01*
X17574944Y-19780460D02*
X17555896Y-19789984D01*
X17555896Y-19789984D02*
X17517801Y-19789984D01*
X17517801Y-19789984D02*
X17498753Y-19780460D01*
X17498753Y-19780460D02*
X17489230Y-19761412D01*
X17489230Y-19761412D02*
X17489230Y-19685222D01*
X17489230Y-19685222D02*
X17498753Y-19666174D01*
X17498753Y-19666174D02*
X17517801Y-19656650D01*
X17517801Y-19656650D02*
X17555896Y-19656650D01*
X17555896Y-19656650D02*
X17574944Y-19666174D01*
X17574944Y-19666174D02*
X17584468Y-19685222D01*
X17584468Y-19685222D02*
X17584468Y-19704270D01*
X17584468Y-19704270D02*
X17489230Y-19723317D01*
X17660658Y-19780460D02*
X17679706Y-19789984D01*
X17679706Y-19789984D02*
X17717801Y-19789984D01*
X17717801Y-19789984D02*
X17736849Y-19780460D01*
X17736849Y-19780460D02*
X17746373Y-19761412D01*
X17746373Y-19761412D02*
X17746373Y-19751889D01*
X17746373Y-19751889D02*
X17736849Y-19732841D01*
X17736849Y-19732841D02*
X17717801Y-19723317D01*
X17717801Y-19723317D02*
X17689230Y-19723317D01*
X17689230Y-19723317D02*
X17670182Y-19713793D01*
X17670182Y-19713793D02*
X17660658Y-19694746D01*
X17660658Y-19694746D02*
X17660658Y-19685222D01*
X17660658Y-19685222D02*
X17670182Y-19666174D01*
X17670182Y-19666174D02*
X17689230Y-19656650D01*
X17689230Y-19656650D02*
X17717801Y-19656650D01*
X17717801Y-19656650D02*
X17736849Y-19666174D01*
X17813039Y-19866174D02*
X17822563Y-19856650D01*
X17822563Y-19856650D02*
X17841611Y-19828079D01*
X17841611Y-19828079D02*
X17851134Y-19809031D01*
X17851134Y-19809031D02*
X17860658Y-19780460D01*
X17860658Y-19780460D02*
X17870182Y-19732841D01*
X17870182Y-19732841D02*
X17870182Y-19694746D01*
X17870182Y-19694746D02*
X17860658Y-19647127D01*
X17860658Y-19647127D02*
X17851134Y-19618555D01*
X17851134Y-19618555D02*
X17841611Y-19599508D01*
X17841611Y-19599508D02*
X17822563Y-19570936D01*
X17822563Y-19570936D02*
X17813039Y-19561412D01*
D12*
X12757500Y-19917500D02*
X12847500Y-20007500D01*
X12847500Y-19917500D02*
X12757500Y-20007500D01*
X12847500Y-19962500D02*
G75*
G03*
X12757500Y-19962500I-45000J0D01*
G01*
X12757500Y-19962500D02*
G75*
G03*
X12847500Y-19962500I45000J0D01*
G01*
D11*
X13146372Y-19853984D02*
X13165420Y-19853984D01*
X13165420Y-19853984D02*
X13184467Y-19863508D01*
X13184467Y-19863508D02*
X13193991Y-19873031D01*
X13193991Y-19873031D02*
X13203515Y-19892079D01*
X13203515Y-19892079D02*
X13213039Y-19930174D01*
X13213039Y-19930174D02*
X13213039Y-19977793D01*
X13213039Y-19977793D02*
X13203515Y-20015889D01*
X13203515Y-20015889D02*
X13193991Y-20034936D01*
X13193991Y-20034936D02*
X13184467Y-20044460D01*
X13184467Y-20044460D02*
X13165420Y-20053984D01*
X13165420Y-20053984D02*
X13146372Y-20053984D01*
X13146372Y-20053984D02*
X13127324Y-20044460D01*
X13127324Y-20044460D02*
X13117801Y-20034936D01*
X13117801Y-20034936D02*
X13108277Y-20015889D01*
X13108277Y-20015889D02*
X13098753Y-19977793D01*
X13098753Y-19977793D02*
X13098753Y-19930174D01*
X13098753Y-19930174D02*
X13108277Y-19892079D01*
X13108277Y-19892079D02*
X13117801Y-19873031D01*
X13117801Y-19873031D02*
X13127324Y-19863508D01*
X13127324Y-19863508D02*
X13146372Y-19853984D01*
X13298753Y-20034936D02*
X13308277Y-20044460D01*
X13308277Y-20044460D02*
X13298753Y-20053984D01*
X13298753Y-20053984D02*
X13289229Y-20044460D01*
X13289229Y-20044460D02*
X13298753Y-20034936D01*
X13298753Y-20034936D02*
X13298753Y-20053984D01*
X13403515Y-20053984D02*
X13441610Y-20053984D01*
X13441610Y-20053984D02*
X13460658Y-20044460D01*
X13460658Y-20044460D02*
X13470182Y-20034936D01*
X13470182Y-20034936D02*
X13489229Y-20006365D01*
X13489229Y-20006365D02*
X13498753Y-19968270D01*
X13498753Y-19968270D02*
X13498753Y-19892079D01*
X13498753Y-19892079D02*
X13489229Y-19873031D01*
X13489229Y-19873031D02*
X13479705Y-19863508D01*
X13479705Y-19863508D02*
X13460658Y-19853984D01*
X13460658Y-19853984D02*
X13422562Y-19853984D01*
X13422562Y-19853984D02*
X13403515Y-19863508D01*
X13403515Y-19863508D02*
X13393991Y-19873031D01*
X13393991Y-19873031D02*
X13384467Y-19892079D01*
X13384467Y-19892079D02*
X13384467Y-19939698D01*
X13384467Y-19939698D02*
X13393991Y-19958746D01*
X13393991Y-19958746D02*
X13403515Y-19968270D01*
X13403515Y-19968270D02*
X13422562Y-19977793D01*
X13422562Y-19977793D02*
X13460658Y-19977793D01*
X13460658Y-19977793D02*
X13479705Y-19968270D01*
X13479705Y-19968270D02*
X13489229Y-19958746D01*
X13489229Y-19958746D02*
X13498753Y-19939698D01*
X13622562Y-19853984D02*
X13641610Y-19853984D01*
X13641610Y-19853984D02*
X13660658Y-19863508D01*
X13660658Y-19863508D02*
X13670182Y-19873031D01*
X13670182Y-19873031D02*
X13679705Y-19892079D01*
X13679705Y-19892079D02*
X13689229Y-19930174D01*
X13689229Y-19930174D02*
X13689229Y-19977793D01*
X13689229Y-19977793D02*
X13679705Y-20015889D01*
X13679705Y-20015889D02*
X13670182Y-20034936D01*
X13670182Y-20034936D02*
X13660658Y-20044460D01*
X13660658Y-20044460D02*
X13641610Y-20053984D01*
X13641610Y-20053984D02*
X13622562Y-20053984D01*
X13622562Y-20053984D02*
X13603515Y-20044460D01*
X13603515Y-20044460D02*
X13593991Y-20034936D01*
X13593991Y-20034936D02*
X13584467Y-20015889D01*
X13584467Y-20015889D02*
X13574943Y-19977793D01*
X13574943Y-19977793D02*
X13574943Y-19930174D01*
X13574943Y-19930174D02*
X13584467Y-19892079D01*
X13584467Y-19892079D02*
X13593991Y-19873031D01*
X13593991Y-19873031D02*
X13603515Y-19863508D01*
X13603515Y-19863508D02*
X13622562Y-19853984D01*
X13813039Y-19853984D02*
X13832086Y-19853984D01*
X13832086Y-19853984D02*
X13851134Y-19863508D01*
X13851134Y-19863508D02*
X13860658Y-19873031D01*
X13860658Y-19873031D02*
X13870182Y-19892079D01*
X13870182Y-19892079D02*
X13879705Y-19930174D01*
X13879705Y-19930174D02*
X13879705Y-19977793D01*
X13879705Y-19977793D02*
X13870182Y-20015889D01*
X13870182Y-20015889D02*
X13860658Y-20034936D01*
X13860658Y-20034936D02*
X13851134Y-20044460D01*
X13851134Y-20044460D02*
X13832086Y-20053984D01*
X13832086Y-20053984D02*
X13813039Y-20053984D01*
X13813039Y-20053984D02*
X13793991Y-20044460D01*
X13793991Y-20044460D02*
X13784467Y-20034936D01*
X13784467Y-20034936D02*
X13774943Y-20015889D01*
X13774943Y-20015889D02*
X13765420Y-19977793D01*
X13765420Y-19977793D02*
X13765420Y-19930174D01*
X13765420Y-19930174D02*
X13774943Y-19892079D01*
X13774943Y-19892079D02*
X13784467Y-19873031D01*
X13784467Y-19873031D02*
X13793991Y-19863508D01*
X13793991Y-19863508D02*
X13813039Y-19853984D01*
X13965420Y-20053984D02*
X13965420Y-19920650D01*
X13965420Y-19939698D02*
X13974943Y-19930174D01*
X13974943Y-19930174D02*
X13993991Y-19920650D01*
X13993991Y-19920650D02*
X14022563Y-19920650D01*
X14022563Y-19920650D02*
X14041610Y-19930174D01*
X14041610Y-19930174D02*
X14051134Y-19949222D01*
X14051134Y-19949222D02*
X14051134Y-20053984D01*
X14051134Y-19949222D02*
X14060658Y-19930174D01*
X14060658Y-19930174D02*
X14079705Y-19920650D01*
X14079705Y-19920650D02*
X14108277Y-19920650D01*
X14108277Y-19920650D02*
X14127324Y-19930174D01*
X14127324Y-19930174D02*
X14136848Y-19949222D01*
X14136848Y-19949222D02*
X14136848Y-20053984D01*
X14232086Y-20053984D02*
X14232086Y-19920650D01*
X14232086Y-19939698D02*
X14241610Y-19930174D01*
X14241610Y-19930174D02*
X14260658Y-19920650D01*
X14260658Y-19920650D02*
X14289229Y-19920650D01*
X14289229Y-19920650D02*
X14308277Y-19930174D01*
X14308277Y-19930174D02*
X14317801Y-19949222D01*
X14317801Y-19949222D02*
X14317801Y-20053984D01*
X14317801Y-19949222D02*
X14327324Y-19930174D01*
X14327324Y-19930174D02*
X14346372Y-19920650D01*
X14346372Y-19920650D02*
X14374943Y-19920650D01*
X14374943Y-19920650D02*
X14393991Y-19930174D01*
X14393991Y-19930174D02*
X14403515Y-19949222D01*
X14403515Y-19949222D02*
X14403515Y-20053984D01*
X14793991Y-19844460D02*
X14622563Y-20101603D01*
X15051134Y-19853984D02*
X15070182Y-19853984D01*
X15070182Y-19853984D02*
X15089229Y-19863508D01*
X15089229Y-19863508D02*
X15098753Y-19873031D01*
X15098753Y-19873031D02*
X15108277Y-19892079D01*
X15108277Y-19892079D02*
X15117801Y-19930174D01*
X15117801Y-19930174D02*
X15117801Y-19977793D01*
X15117801Y-19977793D02*
X15108277Y-20015889D01*
X15108277Y-20015889D02*
X15098753Y-20034936D01*
X15098753Y-20034936D02*
X15089229Y-20044460D01*
X15089229Y-20044460D02*
X15070182Y-20053984D01*
X15070182Y-20053984D02*
X15051134Y-20053984D01*
X15051134Y-20053984D02*
X15032086Y-20044460D01*
X15032086Y-20044460D02*
X15022563Y-20034936D01*
X15022563Y-20034936D02*
X15013039Y-20015889D01*
X15013039Y-20015889D02*
X15003515Y-19977793D01*
X15003515Y-19977793D02*
X15003515Y-19930174D01*
X15003515Y-19930174D02*
X15013039Y-19892079D01*
X15013039Y-19892079D02*
X15022563Y-19873031D01*
X15022563Y-19873031D02*
X15032086Y-19863508D01*
X15032086Y-19863508D02*
X15051134Y-19853984D01*
X15203515Y-20034936D02*
X15213039Y-20044460D01*
X15213039Y-20044460D02*
X15203515Y-20053984D01*
X15203515Y-20053984D02*
X15193991Y-20044460D01*
X15193991Y-20044460D02*
X15203515Y-20034936D01*
X15203515Y-20034936D02*
X15203515Y-20053984D01*
X15336848Y-19853984D02*
X15355896Y-19853984D01*
X15355896Y-19853984D02*
X15374944Y-19863508D01*
X15374944Y-19863508D02*
X15384467Y-19873031D01*
X15384467Y-19873031D02*
X15393991Y-19892079D01*
X15393991Y-19892079D02*
X15403515Y-19930174D01*
X15403515Y-19930174D02*
X15403515Y-19977793D01*
X15403515Y-19977793D02*
X15393991Y-20015889D01*
X15393991Y-20015889D02*
X15384467Y-20034936D01*
X15384467Y-20034936D02*
X15374944Y-20044460D01*
X15374944Y-20044460D02*
X15355896Y-20053984D01*
X15355896Y-20053984D02*
X15336848Y-20053984D01*
X15336848Y-20053984D02*
X15317801Y-20044460D01*
X15317801Y-20044460D02*
X15308277Y-20034936D01*
X15308277Y-20034936D02*
X15298753Y-20015889D01*
X15298753Y-20015889D02*
X15289229Y-19977793D01*
X15289229Y-19977793D02*
X15289229Y-19930174D01*
X15289229Y-19930174D02*
X15298753Y-19892079D01*
X15298753Y-19892079D02*
X15308277Y-19873031D01*
X15308277Y-19873031D02*
X15317801Y-19863508D01*
X15317801Y-19863508D02*
X15336848Y-19853984D01*
X15470182Y-19853984D02*
X15593991Y-19853984D01*
X15593991Y-19853984D02*
X15527325Y-19930174D01*
X15527325Y-19930174D02*
X15555896Y-19930174D01*
X15555896Y-19930174D02*
X15574944Y-19939698D01*
X15574944Y-19939698D02*
X15584467Y-19949222D01*
X15584467Y-19949222D02*
X15593991Y-19968270D01*
X15593991Y-19968270D02*
X15593991Y-20015889D01*
X15593991Y-20015889D02*
X15584467Y-20034936D01*
X15584467Y-20034936D02*
X15574944Y-20044460D01*
X15574944Y-20044460D02*
X15555896Y-20053984D01*
X15555896Y-20053984D02*
X15498753Y-20053984D01*
X15498753Y-20053984D02*
X15479706Y-20044460D01*
X15479706Y-20044460D02*
X15470182Y-20034936D01*
X15774944Y-19853984D02*
X15679706Y-19853984D01*
X15679706Y-19853984D02*
X15670182Y-19949222D01*
X15670182Y-19949222D02*
X15679706Y-19939698D01*
X15679706Y-19939698D02*
X15698753Y-19930174D01*
X15698753Y-19930174D02*
X15746372Y-19930174D01*
X15746372Y-19930174D02*
X15765420Y-19939698D01*
X15765420Y-19939698D02*
X15774944Y-19949222D01*
X15774944Y-19949222D02*
X15784467Y-19968270D01*
X15784467Y-19968270D02*
X15784467Y-20015889D01*
X15784467Y-20015889D02*
X15774944Y-20034936D01*
X15774944Y-20034936D02*
X15765420Y-20044460D01*
X15765420Y-20044460D02*
X15746372Y-20053984D01*
X15746372Y-20053984D02*
X15698753Y-20053984D01*
X15698753Y-20053984D02*
X15679706Y-20044460D01*
X15679706Y-20044460D02*
X15670182Y-20034936D01*
X15955896Y-19920650D02*
X15955896Y-20053984D01*
X15908277Y-19844460D02*
X15860658Y-19987317D01*
X15860658Y-19987317D02*
X15984467Y-19987317D01*
X16051134Y-19853984D02*
X16051134Y-19892079D01*
X16127325Y-19853984D02*
X16127325Y-19892079D01*
X16422563Y-20130174D02*
X16413039Y-20120650D01*
X16413039Y-20120650D02*
X16393991Y-20092079D01*
X16393991Y-20092079D02*
X16384468Y-20073031D01*
X16384468Y-20073031D02*
X16374944Y-20044460D01*
X16374944Y-20044460D02*
X16365420Y-19996841D01*
X16365420Y-19996841D02*
X16365420Y-19958746D01*
X16365420Y-19958746D02*
X16374944Y-19911127D01*
X16374944Y-19911127D02*
X16384468Y-19882555D01*
X16384468Y-19882555D02*
X16393991Y-19863508D01*
X16393991Y-19863508D02*
X16413039Y-19834936D01*
X16413039Y-19834936D02*
X16422563Y-19825412D01*
X16603515Y-20053984D02*
X16489229Y-20053984D01*
X16546372Y-20053984D02*
X16546372Y-19853984D01*
X16546372Y-19853984D02*
X16527325Y-19882555D01*
X16527325Y-19882555D02*
X16508277Y-19901603D01*
X16508277Y-19901603D02*
X16489229Y-19911127D01*
X16727325Y-19853984D02*
X16746372Y-19853984D01*
X16746372Y-19853984D02*
X16765420Y-19863508D01*
X16765420Y-19863508D02*
X16774944Y-19873031D01*
X16774944Y-19873031D02*
X16784468Y-19892079D01*
X16784468Y-19892079D02*
X16793991Y-19930174D01*
X16793991Y-19930174D02*
X16793991Y-19977793D01*
X16793991Y-19977793D02*
X16784468Y-20015889D01*
X16784468Y-20015889D02*
X16774944Y-20034936D01*
X16774944Y-20034936D02*
X16765420Y-20044460D01*
X16765420Y-20044460D02*
X16746372Y-20053984D01*
X16746372Y-20053984D02*
X16727325Y-20053984D01*
X16727325Y-20053984D02*
X16708277Y-20044460D01*
X16708277Y-20044460D02*
X16698753Y-20034936D01*
X16698753Y-20034936D02*
X16689229Y-20015889D01*
X16689229Y-20015889D02*
X16679706Y-19977793D01*
X16679706Y-19977793D02*
X16679706Y-19930174D01*
X16679706Y-19930174D02*
X16689229Y-19892079D01*
X16689229Y-19892079D02*
X16698753Y-19873031D01*
X16698753Y-19873031D02*
X16708277Y-19863508D01*
X16708277Y-19863508D02*
X16727325Y-19853984D01*
X17032087Y-20053984D02*
X17032087Y-19853984D01*
X17117801Y-20053984D02*
X17117801Y-19949222D01*
X17117801Y-19949222D02*
X17108277Y-19930174D01*
X17108277Y-19930174D02*
X17089230Y-19920650D01*
X17089230Y-19920650D02*
X17060658Y-19920650D01*
X17060658Y-19920650D02*
X17041611Y-19930174D01*
X17041611Y-19930174D02*
X17032087Y-19939698D01*
X17241611Y-20053984D02*
X17222563Y-20044460D01*
X17222563Y-20044460D02*
X17213039Y-20034936D01*
X17213039Y-20034936D02*
X17203515Y-20015889D01*
X17203515Y-20015889D02*
X17203515Y-19958746D01*
X17203515Y-19958746D02*
X17213039Y-19939698D01*
X17213039Y-19939698D02*
X17222563Y-19930174D01*
X17222563Y-19930174D02*
X17241611Y-19920650D01*
X17241611Y-19920650D02*
X17270182Y-19920650D01*
X17270182Y-19920650D02*
X17289230Y-19930174D01*
X17289230Y-19930174D02*
X17298753Y-19939698D01*
X17298753Y-19939698D02*
X17308277Y-19958746D01*
X17308277Y-19958746D02*
X17308277Y-20015889D01*
X17308277Y-20015889D02*
X17298753Y-20034936D01*
X17298753Y-20034936D02*
X17289230Y-20044460D01*
X17289230Y-20044460D02*
X17270182Y-20053984D01*
X17270182Y-20053984D02*
X17241611Y-20053984D01*
X17422563Y-20053984D02*
X17403515Y-20044460D01*
X17403515Y-20044460D02*
X17393992Y-20025412D01*
X17393992Y-20025412D02*
X17393992Y-19853984D01*
X17574944Y-20044460D02*
X17555896Y-20053984D01*
X17555896Y-20053984D02*
X17517801Y-20053984D01*
X17517801Y-20053984D02*
X17498753Y-20044460D01*
X17498753Y-20044460D02*
X17489230Y-20025412D01*
X17489230Y-20025412D02*
X17489230Y-19949222D01*
X17489230Y-19949222D02*
X17498753Y-19930174D01*
X17498753Y-19930174D02*
X17517801Y-19920650D01*
X17517801Y-19920650D02*
X17555896Y-19920650D01*
X17555896Y-19920650D02*
X17574944Y-19930174D01*
X17574944Y-19930174D02*
X17584468Y-19949222D01*
X17584468Y-19949222D02*
X17584468Y-19968270D01*
X17584468Y-19968270D02*
X17489230Y-19987317D01*
X17660658Y-20044460D02*
X17679706Y-20053984D01*
X17679706Y-20053984D02*
X17717801Y-20053984D01*
X17717801Y-20053984D02*
X17736849Y-20044460D01*
X17736849Y-20044460D02*
X17746373Y-20025412D01*
X17746373Y-20025412D02*
X17746373Y-20015889D01*
X17746373Y-20015889D02*
X17736849Y-19996841D01*
X17736849Y-19996841D02*
X17717801Y-19987317D01*
X17717801Y-19987317D02*
X17689230Y-19987317D01*
X17689230Y-19987317D02*
X17670182Y-19977793D01*
X17670182Y-19977793D02*
X17660658Y-19958746D01*
X17660658Y-19958746D02*
X17660658Y-19949222D01*
X17660658Y-19949222D02*
X17670182Y-19930174D01*
X17670182Y-19930174D02*
X17689230Y-19920650D01*
X17689230Y-19920650D02*
X17717801Y-19920650D01*
X17717801Y-19920650D02*
X17736849Y-19930174D01*
X17813039Y-20130174D02*
X17822563Y-20120650D01*
X17822563Y-20120650D02*
X17841611Y-20092079D01*
X17841611Y-20092079D02*
X17851134Y-20073031D01*
X17851134Y-20073031D02*
X17860658Y-20044460D01*
X17860658Y-20044460D02*
X17870182Y-19996841D01*
X17870182Y-19996841D02*
X17870182Y-19958746D01*
X17870182Y-19958746D02*
X17860658Y-19911127D01*
X17860658Y-19911127D02*
X17851134Y-19882555D01*
X17851134Y-19882555D02*
X17841611Y-19863508D01*
X17841611Y-19863508D02*
X17822563Y-19834936D01*
X17822563Y-19834936D02*
X17813039Y-19825412D01*
D13*
X12745900Y-20175700D02*
X12847500Y-20277300D01*
X12847500Y-20175700D02*
X12745900Y-20277300D01*
X12796700Y-20175700D02*
X12796700Y-20277300D01*
X12745900Y-20226500D02*
X12847500Y-20226500D01*
D11*
X13213039Y-20317984D02*
X13098753Y-20317984D01*
X13155896Y-20317984D02*
X13155896Y-20117984D01*
X13155896Y-20117984D02*
X13136848Y-20146555D01*
X13136848Y-20146555D02*
X13117801Y-20165603D01*
X13117801Y-20165603D02*
X13098753Y-20175127D01*
X13298753Y-20298936D02*
X13308277Y-20308460D01*
X13308277Y-20308460D02*
X13298753Y-20317984D01*
X13298753Y-20317984D02*
X13289229Y-20308460D01*
X13289229Y-20308460D02*
X13298753Y-20298936D01*
X13298753Y-20298936D02*
X13298753Y-20317984D01*
X13432086Y-20117984D02*
X13451134Y-20117984D01*
X13451134Y-20117984D02*
X13470182Y-20127508D01*
X13470182Y-20127508D02*
X13479705Y-20137031D01*
X13479705Y-20137031D02*
X13489229Y-20156079D01*
X13489229Y-20156079D02*
X13498753Y-20194174D01*
X13498753Y-20194174D02*
X13498753Y-20241793D01*
X13498753Y-20241793D02*
X13489229Y-20279889D01*
X13489229Y-20279889D02*
X13479705Y-20298936D01*
X13479705Y-20298936D02*
X13470182Y-20308460D01*
X13470182Y-20308460D02*
X13451134Y-20317984D01*
X13451134Y-20317984D02*
X13432086Y-20317984D01*
X13432086Y-20317984D02*
X13413039Y-20308460D01*
X13413039Y-20308460D02*
X13403515Y-20298936D01*
X13403515Y-20298936D02*
X13393991Y-20279889D01*
X13393991Y-20279889D02*
X13384467Y-20241793D01*
X13384467Y-20241793D02*
X13384467Y-20194174D01*
X13384467Y-20194174D02*
X13393991Y-20156079D01*
X13393991Y-20156079D02*
X13403515Y-20137031D01*
X13403515Y-20137031D02*
X13413039Y-20127508D01*
X13413039Y-20127508D02*
X13432086Y-20117984D01*
X13689229Y-20317984D02*
X13574943Y-20317984D01*
X13632086Y-20317984D02*
X13632086Y-20117984D01*
X13632086Y-20117984D02*
X13613039Y-20146555D01*
X13613039Y-20146555D02*
X13593991Y-20165603D01*
X13593991Y-20165603D02*
X13574943Y-20175127D01*
X13860658Y-20117984D02*
X13822562Y-20117984D01*
X13822562Y-20117984D02*
X13803515Y-20127508D01*
X13803515Y-20127508D02*
X13793991Y-20137031D01*
X13793991Y-20137031D02*
X13774943Y-20165603D01*
X13774943Y-20165603D02*
X13765420Y-20203698D01*
X13765420Y-20203698D02*
X13765420Y-20279889D01*
X13765420Y-20279889D02*
X13774943Y-20298936D01*
X13774943Y-20298936D02*
X13784467Y-20308460D01*
X13784467Y-20308460D02*
X13803515Y-20317984D01*
X13803515Y-20317984D02*
X13841610Y-20317984D01*
X13841610Y-20317984D02*
X13860658Y-20308460D01*
X13860658Y-20308460D02*
X13870182Y-20298936D01*
X13870182Y-20298936D02*
X13879705Y-20279889D01*
X13879705Y-20279889D02*
X13879705Y-20232270D01*
X13879705Y-20232270D02*
X13870182Y-20213222D01*
X13870182Y-20213222D02*
X13860658Y-20203698D01*
X13860658Y-20203698D02*
X13841610Y-20194174D01*
X13841610Y-20194174D02*
X13803515Y-20194174D01*
X13803515Y-20194174D02*
X13784467Y-20203698D01*
X13784467Y-20203698D02*
X13774943Y-20213222D01*
X13774943Y-20213222D02*
X13765420Y-20232270D01*
X13965420Y-20317984D02*
X13965420Y-20184650D01*
X13965420Y-20203698D02*
X13974943Y-20194174D01*
X13974943Y-20194174D02*
X13993991Y-20184650D01*
X13993991Y-20184650D02*
X14022563Y-20184650D01*
X14022563Y-20184650D02*
X14041610Y-20194174D01*
X14041610Y-20194174D02*
X14051134Y-20213222D01*
X14051134Y-20213222D02*
X14051134Y-20317984D01*
X14051134Y-20213222D02*
X14060658Y-20194174D01*
X14060658Y-20194174D02*
X14079705Y-20184650D01*
X14079705Y-20184650D02*
X14108277Y-20184650D01*
X14108277Y-20184650D02*
X14127324Y-20194174D01*
X14127324Y-20194174D02*
X14136848Y-20213222D01*
X14136848Y-20213222D02*
X14136848Y-20317984D01*
X14232086Y-20317984D02*
X14232086Y-20184650D01*
X14232086Y-20203698D02*
X14241610Y-20194174D01*
X14241610Y-20194174D02*
X14260658Y-20184650D01*
X14260658Y-20184650D02*
X14289229Y-20184650D01*
X14289229Y-20184650D02*
X14308277Y-20194174D01*
X14308277Y-20194174D02*
X14317801Y-20213222D01*
X14317801Y-20213222D02*
X14317801Y-20317984D01*
X14317801Y-20213222D02*
X14327324Y-20194174D01*
X14327324Y-20194174D02*
X14346372Y-20184650D01*
X14346372Y-20184650D02*
X14374943Y-20184650D01*
X14374943Y-20184650D02*
X14393991Y-20194174D01*
X14393991Y-20194174D02*
X14403515Y-20213222D01*
X14403515Y-20213222D02*
X14403515Y-20317984D01*
X14793991Y-20108460D02*
X14622563Y-20365603D01*
X15051134Y-20117984D02*
X15070182Y-20117984D01*
X15070182Y-20117984D02*
X15089229Y-20127508D01*
X15089229Y-20127508D02*
X15098753Y-20137031D01*
X15098753Y-20137031D02*
X15108277Y-20156079D01*
X15108277Y-20156079D02*
X15117801Y-20194174D01*
X15117801Y-20194174D02*
X15117801Y-20241793D01*
X15117801Y-20241793D02*
X15108277Y-20279889D01*
X15108277Y-20279889D02*
X15098753Y-20298936D01*
X15098753Y-20298936D02*
X15089229Y-20308460D01*
X15089229Y-20308460D02*
X15070182Y-20317984D01*
X15070182Y-20317984D02*
X15051134Y-20317984D01*
X15051134Y-20317984D02*
X15032086Y-20308460D01*
X15032086Y-20308460D02*
X15022563Y-20298936D01*
X15022563Y-20298936D02*
X15013039Y-20279889D01*
X15013039Y-20279889D02*
X15003515Y-20241793D01*
X15003515Y-20241793D02*
X15003515Y-20194174D01*
X15003515Y-20194174D02*
X15013039Y-20156079D01*
X15013039Y-20156079D02*
X15022563Y-20137031D01*
X15022563Y-20137031D02*
X15032086Y-20127508D01*
X15032086Y-20127508D02*
X15051134Y-20117984D01*
X15203515Y-20298936D02*
X15213039Y-20308460D01*
X15213039Y-20308460D02*
X15203515Y-20317984D01*
X15203515Y-20317984D02*
X15193991Y-20308460D01*
X15193991Y-20308460D02*
X15203515Y-20298936D01*
X15203515Y-20298936D02*
X15203515Y-20317984D01*
X15336848Y-20117984D02*
X15355896Y-20117984D01*
X15355896Y-20117984D02*
X15374944Y-20127508D01*
X15374944Y-20127508D02*
X15384467Y-20137031D01*
X15384467Y-20137031D02*
X15393991Y-20156079D01*
X15393991Y-20156079D02*
X15403515Y-20194174D01*
X15403515Y-20194174D02*
X15403515Y-20241793D01*
X15403515Y-20241793D02*
X15393991Y-20279889D01*
X15393991Y-20279889D02*
X15384467Y-20298936D01*
X15384467Y-20298936D02*
X15374944Y-20308460D01*
X15374944Y-20308460D02*
X15355896Y-20317984D01*
X15355896Y-20317984D02*
X15336848Y-20317984D01*
X15336848Y-20317984D02*
X15317801Y-20308460D01*
X15317801Y-20308460D02*
X15308277Y-20298936D01*
X15308277Y-20298936D02*
X15298753Y-20279889D01*
X15298753Y-20279889D02*
X15289229Y-20241793D01*
X15289229Y-20241793D02*
X15289229Y-20194174D01*
X15289229Y-20194174D02*
X15298753Y-20156079D01*
X15298753Y-20156079D02*
X15308277Y-20137031D01*
X15308277Y-20137031D02*
X15317801Y-20127508D01*
X15317801Y-20127508D02*
X15336848Y-20117984D01*
X15574944Y-20184650D02*
X15574944Y-20317984D01*
X15527325Y-20108460D02*
X15479706Y-20251317D01*
X15479706Y-20251317D02*
X15603515Y-20251317D01*
X15717801Y-20117984D02*
X15736848Y-20117984D01*
X15736848Y-20117984D02*
X15755896Y-20127508D01*
X15755896Y-20127508D02*
X15765420Y-20137031D01*
X15765420Y-20137031D02*
X15774944Y-20156079D01*
X15774944Y-20156079D02*
X15784467Y-20194174D01*
X15784467Y-20194174D02*
X15784467Y-20241793D01*
X15784467Y-20241793D02*
X15774944Y-20279889D01*
X15774944Y-20279889D02*
X15765420Y-20298936D01*
X15765420Y-20298936D02*
X15755896Y-20308460D01*
X15755896Y-20308460D02*
X15736848Y-20317984D01*
X15736848Y-20317984D02*
X15717801Y-20317984D01*
X15717801Y-20317984D02*
X15698753Y-20308460D01*
X15698753Y-20308460D02*
X15689229Y-20298936D01*
X15689229Y-20298936D02*
X15679706Y-20279889D01*
X15679706Y-20279889D02*
X15670182Y-20241793D01*
X15670182Y-20241793D02*
X15670182Y-20194174D01*
X15670182Y-20194174D02*
X15679706Y-20156079D01*
X15679706Y-20156079D02*
X15689229Y-20137031D01*
X15689229Y-20137031D02*
X15698753Y-20127508D01*
X15698753Y-20127508D02*
X15717801Y-20117984D01*
X15908277Y-20117984D02*
X15927325Y-20117984D01*
X15927325Y-20117984D02*
X15946372Y-20127508D01*
X15946372Y-20127508D02*
X15955896Y-20137031D01*
X15955896Y-20137031D02*
X15965420Y-20156079D01*
X15965420Y-20156079D02*
X15974944Y-20194174D01*
X15974944Y-20194174D02*
X15974944Y-20241793D01*
X15974944Y-20241793D02*
X15965420Y-20279889D01*
X15965420Y-20279889D02*
X15955896Y-20298936D01*
X15955896Y-20298936D02*
X15946372Y-20308460D01*
X15946372Y-20308460D02*
X15927325Y-20317984D01*
X15927325Y-20317984D02*
X15908277Y-20317984D01*
X15908277Y-20317984D02*
X15889229Y-20308460D01*
X15889229Y-20308460D02*
X15879706Y-20298936D01*
X15879706Y-20298936D02*
X15870182Y-20279889D01*
X15870182Y-20279889D02*
X15860658Y-20241793D01*
X15860658Y-20241793D02*
X15860658Y-20194174D01*
X15860658Y-20194174D02*
X15870182Y-20156079D01*
X15870182Y-20156079D02*
X15879706Y-20137031D01*
X15879706Y-20137031D02*
X15889229Y-20127508D01*
X15889229Y-20127508D02*
X15908277Y-20117984D01*
X16051134Y-20117984D02*
X16051134Y-20156079D01*
X16127325Y-20117984D02*
X16127325Y-20156079D01*
X16422563Y-20394174D02*
X16413039Y-20384650D01*
X16413039Y-20384650D02*
X16393991Y-20356079D01*
X16393991Y-20356079D02*
X16384468Y-20337031D01*
X16384468Y-20337031D02*
X16374944Y-20308460D01*
X16374944Y-20308460D02*
X16365420Y-20260841D01*
X16365420Y-20260841D02*
X16365420Y-20222746D01*
X16365420Y-20222746D02*
X16374944Y-20175127D01*
X16374944Y-20175127D02*
X16384468Y-20146555D01*
X16384468Y-20146555D02*
X16393991Y-20127508D01*
X16393991Y-20127508D02*
X16413039Y-20098936D01*
X16413039Y-20098936D02*
X16422563Y-20089412D01*
X16584468Y-20184650D02*
X16584468Y-20317984D01*
X16536848Y-20108460D02*
X16489229Y-20251317D01*
X16489229Y-20251317D02*
X16613039Y-20251317D01*
X16841611Y-20317984D02*
X16841611Y-20117984D01*
X16927325Y-20317984D02*
X16927325Y-20213222D01*
X16927325Y-20213222D02*
X16917801Y-20194174D01*
X16917801Y-20194174D02*
X16898753Y-20184650D01*
X16898753Y-20184650D02*
X16870182Y-20184650D01*
X16870182Y-20184650D02*
X16851134Y-20194174D01*
X16851134Y-20194174D02*
X16841611Y-20203698D01*
X17051134Y-20317984D02*
X17032087Y-20308460D01*
X17032087Y-20308460D02*
X17022563Y-20298936D01*
X17022563Y-20298936D02*
X17013039Y-20279889D01*
X17013039Y-20279889D02*
X17013039Y-20222746D01*
X17013039Y-20222746D02*
X17022563Y-20203698D01*
X17022563Y-20203698D02*
X17032087Y-20194174D01*
X17032087Y-20194174D02*
X17051134Y-20184650D01*
X17051134Y-20184650D02*
X17079706Y-20184650D01*
X17079706Y-20184650D02*
X17098753Y-20194174D01*
X17098753Y-20194174D02*
X17108277Y-20203698D01*
X17108277Y-20203698D02*
X17117801Y-20222746D01*
X17117801Y-20222746D02*
X17117801Y-20279889D01*
X17117801Y-20279889D02*
X17108277Y-20298936D01*
X17108277Y-20298936D02*
X17098753Y-20308460D01*
X17098753Y-20308460D02*
X17079706Y-20317984D01*
X17079706Y-20317984D02*
X17051134Y-20317984D01*
X17232087Y-20317984D02*
X17213039Y-20308460D01*
X17213039Y-20308460D02*
X17203515Y-20289412D01*
X17203515Y-20289412D02*
X17203515Y-20117984D01*
X17384468Y-20308460D02*
X17365420Y-20317984D01*
X17365420Y-20317984D02*
X17327325Y-20317984D01*
X17327325Y-20317984D02*
X17308277Y-20308460D01*
X17308277Y-20308460D02*
X17298753Y-20289412D01*
X17298753Y-20289412D02*
X17298753Y-20213222D01*
X17298753Y-20213222D02*
X17308277Y-20194174D01*
X17308277Y-20194174D02*
X17327325Y-20184650D01*
X17327325Y-20184650D02*
X17365420Y-20184650D01*
X17365420Y-20184650D02*
X17384468Y-20194174D01*
X17384468Y-20194174D02*
X17393992Y-20213222D01*
X17393992Y-20213222D02*
X17393992Y-20232270D01*
X17393992Y-20232270D02*
X17298753Y-20251317D01*
X17470182Y-20308460D02*
X17489230Y-20317984D01*
X17489230Y-20317984D02*
X17527325Y-20317984D01*
X17527325Y-20317984D02*
X17546373Y-20308460D01*
X17546373Y-20308460D02*
X17555896Y-20289412D01*
X17555896Y-20289412D02*
X17555896Y-20279889D01*
X17555896Y-20279889D02*
X17546373Y-20260841D01*
X17546373Y-20260841D02*
X17527325Y-20251317D01*
X17527325Y-20251317D02*
X17498753Y-20251317D01*
X17498753Y-20251317D02*
X17479706Y-20241793D01*
X17479706Y-20241793D02*
X17470182Y-20222746D01*
X17470182Y-20222746D02*
X17470182Y-20213222D01*
X17470182Y-20213222D02*
X17479706Y-20194174D01*
X17479706Y-20194174D02*
X17498753Y-20184650D01*
X17498753Y-20184650D02*
X17527325Y-20184650D01*
X17527325Y-20184650D02*
X17546373Y-20194174D01*
X17622563Y-20394174D02*
X17632087Y-20384650D01*
X17632087Y-20384650D02*
X17651134Y-20356079D01*
X17651134Y-20356079D02*
X17660658Y-20337031D01*
X17660658Y-20337031D02*
X17670182Y-20308460D01*
X17670182Y-20308460D02*
X17679706Y-20260841D01*
X17679706Y-20260841D02*
X17679706Y-20222746D01*
X17679706Y-20222746D02*
X17670182Y-20175127D01*
X17670182Y-20175127D02*
X17660658Y-20146555D01*
X17660658Y-20146555D02*
X17651134Y-20127508D01*
X17651134Y-20127508D02*
X17632087Y-20098936D01*
X17632087Y-20098936D02*
X17622563Y-20089412D01*
D14*
X12745500Y-20439500D02*
X12847500Y-20541500D01*
X12847500Y-20439500D02*
X12745500Y-20541500D01*
X12832563Y-20526563D02*
X12832563Y-20454437D01*
X12760437Y-20454437D01*
X12760437Y-20526563D01*
X12832563Y-20526563D01*
D11*
X13213039Y-20581984D02*
X13098753Y-20581984D01*
X13155896Y-20581984D02*
X13155896Y-20381984D01*
X13155896Y-20381984D02*
X13136848Y-20410555D01*
X13136848Y-20410555D02*
X13117801Y-20429603D01*
X13117801Y-20429603D02*
X13098753Y-20439127D01*
X13298753Y-20562936D02*
X13308277Y-20572460D01*
X13308277Y-20572460D02*
X13298753Y-20581984D01*
X13298753Y-20581984D02*
X13289229Y-20572460D01*
X13289229Y-20572460D02*
X13298753Y-20562936D01*
X13298753Y-20562936D02*
X13298753Y-20581984D01*
X13432086Y-20381984D02*
X13451134Y-20381984D01*
X13451134Y-20381984D02*
X13470182Y-20391508D01*
X13470182Y-20391508D02*
X13479705Y-20401031D01*
X13479705Y-20401031D02*
X13489229Y-20420079D01*
X13489229Y-20420079D02*
X13498753Y-20458174D01*
X13498753Y-20458174D02*
X13498753Y-20505793D01*
X13498753Y-20505793D02*
X13489229Y-20543889D01*
X13489229Y-20543889D02*
X13479705Y-20562936D01*
X13479705Y-20562936D02*
X13470182Y-20572460D01*
X13470182Y-20572460D02*
X13451134Y-20581984D01*
X13451134Y-20581984D02*
X13432086Y-20581984D01*
X13432086Y-20581984D02*
X13413039Y-20572460D01*
X13413039Y-20572460D02*
X13403515Y-20562936D01*
X13403515Y-20562936D02*
X13393991Y-20543889D01*
X13393991Y-20543889D02*
X13384467Y-20505793D01*
X13384467Y-20505793D02*
X13384467Y-20458174D01*
X13384467Y-20458174D02*
X13393991Y-20420079D01*
X13393991Y-20420079D02*
X13403515Y-20401031D01*
X13403515Y-20401031D02*
X13413039Y-20391508D01*
X13413039Y-20391508D02*
X13432086Y-20381984D01*
X13574943Y-20401031D02*
X13584467Y-20391508D01*
X13584467Y-20391508D02*
X13603515Y-20381984D01*
X13603515Y-20381984D02*
X13651134Y-20381984D01*
X13651134Y-20381984D02*
X13670182Y-20391508D01*
X13670182Y-20391508D02*
X13679705Y-20401031D01*
X13679705Y-20401031D02*
X13689229Y-20420079D01*
X13689229Y-20420079D02*
X13689229Y-20439127D01*
X13689229Y-20439127D02*
X13679705Y-20467698D01*
X13679705Y-20467698D02*
X13565420Y-20581984D01*
X13565420Y-20581984D02*
X13689229Y-20581984D01*
X13813039Y-20381984D02*
X13832086Y-20381984D01*
X13832086Y-20381984D02*
X13851134Y-20391508D01*
X13851134Y-20391508D02*
X13860658Y-20401031D01*
X13860658Y-20401031D02*
X13870182Y-20420079D01*
X13870182Y-20420079D02*
X13879705Y-20458174D01*
X13879705Y-20458174D02*
X13879705Y-20505793D01*
X13879705Y-20505793D02*
X13870182Y-20543889D01*
X13870182Y-20543889D02*
X13860658Y-20562936D01*
X13860658Y-20562936D02*
X13851134Y-20572460D01*
X13851134Y-20572460D02*
X13832086Y-20581984D01*
X13832086Y-20581984D02*
X13813039Y-20581984D01*
X13813039Y-20581984D02*
X13793991Y-20572460D01*
X13793991Y-20572460D02*
X13784467Y-20562936D01*
X13784467Y-20562936D02*
X13774943Y-20543889D01*
X13774943Y-20543889D02*
X13765420Y-20505793D01*
X13765420Y-20505793D02*
X13765420Y-20458174D01*
X13765420Y-20458174D02*
X13774943Y-20420079D01*
X13774943Y-20420079D02*
X13784467Y-20401031D01*
X13784467Y-20401031D02*
X13793991Y-20391508D01*
X13793991Y-20391508D02*
X13813039Y-20381984D01*
X13965420Y-20581984D02*
X13965420Y-20448650D01*
X13965420Y-20467698D02*
X13974943Y-20458174D01*
X13974943Y-20458174D02*
X13993991Y-20448650D01*
X13993991Y-20448650D02*
X14022563Y-20448650D01*
X14022563Y-20448650D02*
X14041610Y-20458174D01*
X14041610Y-20458174D02*
X14051134Y-20477222D01*
X14051134Y-20477222D02*
X14051134Y-20581984D01*
X14051134Y-20477222D02*
X14060658Y-20458174D01*
X14060658Y-20458174D02*
X14079705Y-20448650D01*
X14079705Y-20448650D02*
X14108277Y-20448650D01*
X14108277Y-20448650D02*
X14127324Y-20458174D01*
X14127324Y-20458174D02*
X14136848Y-20477222D01*
X14136848Y-20477222D02*
X14136848Y-20581984D01*
X14232086Y-20581984D02*
X14232086Y-20448650D01*
X14232086Y-20467698D02*
X14241610Y-20458174D01*
X14241610Y-20458174D02*
X14260658Y-20448650D01*
X14260658Y-20448650D02*
X14289229Y-20448650D01*
X14289229Y-20448650D02*
X14308277Y-20458174D01*
X14308277Y-20458174D02*
X14317801Y-20477222D01*
X14317801Y-20477222D02*
X14317801Y-20581984D01*
X14317801Y-20477222D02*
X14327324Y-20458174D01*
X14327324Y-20458174D02*
X14346372Y-20448650D01*
X14346372Y-20448650D02*
X14374943Y-20448650D01*
X14374943Y-20448650D02*
X14393991Y-20458174D01*
X14393991Y-20458174D02*
X14403515Y-20477222D01*
X14403515Y-20477222D02*
X14403515Y-20581984D01*
X14793991Y-20372460D02*
X14622563Y-20629603D01*
X15051134Y-20381984D02*
X15070182Y-20381984D01*
X15070182Y-20381984D02*
X15089229Y-20391508D01*
X15089229Y-20391508D02*
X15098753Y-20401031D01*
X15098753Y-20401031D02*
X15108277Y-20420079D01*
X15108277Y-20420079D02*
X15117801Y-20458174D01*
X15117801Y-20458174D02*
X15117801Y-20505793D01*
X15117801Y-20505793D02*
X15108277Y-20543889D01*
X15108277Y-20543889D02*
X15098753Y-20562936D01*
X15098753Y-20562936D02*
X15089229Y-20572460D01*
X15089229Y-20572460D02*
X15070182Y-20581984D01*
X15070182Y-20581984D02*
X15051134Y-20581984D01*
X15051134Y-20581984D02*
X15032086Y-20572460D01*
X15032086Y-20572460D02*
X15022563Y-20562936D01*
X15022563Y-20562936D02*
X15013039Y-20543889D01*
X15013039Y-20543889D02*
X15003515Y-20505793D01*
X15003515Y-20505793D02*
X15003515Y-20458174D01*
X15003515Y-20458174D02*
X15013039Y-20420079D01*
X15013039Y-20420079D02*
X15022563Y-20401031D01*
X15022563Y-20401031D02*
X15032086Y-20391508D01*
X15032086Y-20391508D02*
X15051134Y-20381984D01*
X15203515Y-20562936D02*
X15213039Y-20572460D01*
X15213039Y-20572460D02*
X15203515Y-20581984D01*
X15203515Y-20581984D02*
X15193991Y-20572460D01*
X15193991Y-20572460D02*
X15203515Y-20562936D01*
X15203515Y-20562936D02*
X15203515Y-20581984D01*
X15336848Y-20381984D02*
X15355896Y-20381984D01*
X15355896Y-20381984D02*
X15374944Y-20391508D01*
X15374944Y-20391508D02*
X15384467Y-20401031D01*
X15384467Y-20401031D02*
X15393991Y-20420079D01*
X15393991Y-20420079D02*
X15403515Y-20458174D01*
X15403515Y-20458174D02*
X15403515Y-20505793D01*
X15403515Y-20505793D02*
X15393991Y-20543889D01*
X15393991Y-20543889D02*
X15384467Y-20562936D01*
X15384467Y-20562936D02*
X15374944Y-20572460D01*
X15374944Y-20572460D02*
X15355896Y-20581984D01*
X15355896Y-20581984D02*
X15336848Y-20581984D01*
X15336848Y-20581984D02*
X15317801Y-20572460D01*
X15317801Y-20572460D02*
X15308277Y-20562936D01*
X15308277Y-20562936D02*
X15298753Y-20543889D01*
X15298753Y-20543889D02*
X15289229Y-20505793D01*
X15289229Y-20505793D02*
X15289229Y-20458174D01*
X15289229Y-20458174D02*
X15298753Y-20420079D01*
X15298753Y-20420079D02*
X15308277Y-20401031D01*
X15308277Y-20401031D02*
X15317801Y-20391508D01*
X15317801Y-20391508D02*
X15336848Y-20381984D01*
X15574944Y-20448650D02*
X15574944Y-20581984D01*
X15527325Y-20372460D02*
X15479706Y-20515317D01*
X15479706Y-20515317D02*
X15603515Y-20515317D01*
X15717801Y-20381984D02*
X15736848Y-20381984D01*
X15736848Y-20381984D02*
X15755896Y-20391508D01*
X15755896Y-20391508D02*
X15765420Y-20401031D01*
X15765420Y-20401031D02*
X15774944Y-20420079D01*
X15774944Y-20420079D02*
X15784467Y-20458174D01*
X15784467Y-20458174D02*
X15784467Y-20505793D01*
X15784467Y-20505793D02*
X15774944Y-20543889D01*
X15774944Y-20543889D02*
X15765420Y-20562936D01*
X15765420Y-20562936D02*
X15755896Y-20572460D01*
X15755896Y-20572460D02*
X15736848Y-20581984D01*
X15736848Y-20581984D02*
X15717801Y-20581984D01*
X15717801Y-20581984D02*
X15698753Y-20572460D01*
X15698753Y-20572460D02*
X15689229Y-20562936D01*
X15689229Y-20562936D02*
X15679706Y-20543889D01*
X15679706Y-20543889D02*
X15670182Y-20505793D01*
X15670182Y-20505793D02*
X15670182Y-20458174D01*
X15670182Y-20458174D02*
X15679706Y-20420079D01*
X15679706Y-20420079D02*
X15689229Y-20401031D01*
X15689229Y-20401031D02*
X15698753Y-20391508D01*
X15698753Y-20391508D02*
X15717801Y-20381984D01*
X15860658Y-20401031D02*
X15870182Y-20391508D01*
X15870182Y-20391508D02*
X15889229Y-20381984D01*
X15889229Y-20381984D02*
X15936848Y-20381984D01*
X15936848Y-20381984D02*
X15955896Y-20391508D01*
X15955896Y-20391508D02*
X15965420Y-20401031D01*
X15965420Y-20401031D02*
X15974944Y-20420079D01*
X15974944Y-20420079D02*
X15974944Y-20439127D01*
X15974944Y-20439127D02*
X15965420Y-20467698D01*
X15965420Y-20467698D02*
X15851134Y-20581984D01*
X15851134Y-20581984D02*
X15974944Y-20581984D01*
X16051134Y-20381984D02*
X16051134Y-20420079D01*
X16127325Y-20381984D02*
X16127325Y-20420079D01*
X16422563Y-20658174D02*
X16413039Y-20648650D01*
X16413039Y-20648650D02*
X16393991Y-20620079D01*
X16393991Y-20620079D02*
X16384468Y-20601031D01*
X16384468Y-20601031D02*
X16374944Y-20572460D01*
X16374944Y-20572460D02*
X16365420Y-20524841D01*
X16365420Y-20524841D02*
X16365420Y-20486746D01*
X16365420Y-20486746D02*
X16374944Y-20439127D01*
X16374944Y-20439127D02*
X16384468Y-20410555D01*
X16384468Y-20410555D02*
X16393991Y-20391508D01*
X16393991Y-20391508D02*
X16413039Y-20362936D01*
X16413039Y-20362936D02*
X16422563Y-20353412D01*
X16603515Y-20581984D02*
X16489229Y-20581984D01*
X16546372Y-20581984D02*
X16546372Y-20381984D01*
X16546372Y-20381984D02*
X16527325Y-20410555D01*
X16527325Y-20410555D02*
X16508277Y-20429603D01*
X16508277Y-20429603D02*
X16489229Y-20439127D01*
X16727325Y-20381984D02*
X16746372Y-20381984D01*
X16746372Y-20381984D02*
X16765420Y-20391508D01*
X16765420Y-20391508D02*
X16774944Y-20401031D01*
X16774944Y-20401031D02*
X16784468Y-20420079D01*
X16784468Y-20420079D02*
X16793991Y-20458174D01*
X16793991Y-20458174D02*
X16793991Y-20505793D01*
X16793991Y-20505793D02*
X16784468Y-20543889D01*
X16784468Y-20543889D02*
X16774944Y-20562936D01*
X16774944Y-20562936D02*
X16765420Y-20572460D01*
X16765420Y-20572460D02*
X16746372Y-20581984D01*
X16746372Y-20581984D02*
X16727325Y-20581984D01*
X16727325Y-20581984D02*
X16708277Y-20572460D01*
X16708277Y-20572460D02*
X16698753Y-20562936D01*
X16698753Y-20562936D02*
X16689229Y-20543889D01*
X16689229Y-20543889D02*
X16679706Y-20505793D01*
X16679706Y-20505793D02*
X16679706Y-20458174D01*
X16679706Y-20458174D02*
X16689229Y-20420079D01*
X16689229Y-20420079D02*
X16698753Y-20401031D01*
X16698753Y-20401031D02*
X16708277Y-20391508D01*
X16708277Y-20391508D02*
X16727325Y-20381984D01*
X17032087Y-20581984D02*
X17032087Y-20381984D01*
X17117801Y-20581984D02*
X17117801Y-20477222D01*
X17117801Y-20477222D02*
X17108277Y-20458174D01*
X17108277Y-20458174D02*
X17089230Y-20448650D01*
X17089230Y-20448650D02*
X17060658Y-20448650D01*
X17060658Y-20448650D02*
X17041611Y-20458174D01*
X17041611Y-20458174D02*
X17032087Y-20467698D01*
X17241611Y-20581984D02*
X17222563Y-20572460D01*
X17222563Y-20572460D02*
X17213039Y-20562936D01*
X17213039Y-20562936D02*
X17203515Y-20543889D01*
X17203515Y-20543889D02*
X17203515Y-20486746D01*
X17203515Y-20486746D02*
X17213039Y-20467698D01*
X17213039Y-20467698D02*
X17222563Y-20458174D01*
X17222563Y-20458174D02*
X17241611Y-20448650D01*
X17241611Y-20448650D02*
X17270182Y-20448650D01*
X17270182Y-20448650D02*
X17289230Y-20458174D01*
X17289230Y-20458174D02*
X17298753Y-20467698D01*
X17298753Y-20467698D02*
X17308277Y-20486746D01*
X17308277Y-20486746D02*
X17308277Y-20543889D01*
X17308277Y-20543889D02*
X17298753Y-20562936D01*
X17298753Y-20562936D02*
X17289230Y-20572460D01*
X17289230Y-20572460D02*
X17270182Y-20581984D01*
X17270182Y-20581984D02*
X17241611Y-20581984D01*
X17422563Y-20581984D02*
X17403515Y-20572460D01*
X17403515Y-20572460D02*
X17393992Y-20553412D01*
X17393992Y-20553412D02*
X17393992Y-20381984D01*
X17574944Y-20572460D02*
X17555896Y-20581984D01*
X17555896Y-20581984D02*
X17517801Y-20581984D01*
X17517801Y-20581984D02*
X17498753Y-20572460D01*
X17498753Y-20572460D02*
X17489230Y-20553412D01*
X17489230Y-20553412D02*
X17489230Y-20477222D01*
X17489230Y-20477222D02*
X17498753Y-20458174D01*
X17498753Y-20458174D02*
X17517801Y-20448650D01*
X17517801Y-20448650D02*
X17555896Y-20448650D01*
X17555896Y-20448650D02*
X17574944Y-20458174D01*
X17574944Y-20458174D02*
X17584468Y-20477222D01*
X17584468Y-20477222D02*
X17584468Y-20496270D01*
X17584468Y-20496270D02*
X17489230Y-20515317D01*
X17660658Y-20572460D02*
X17679706Y-20581984D01*
X17679706Y-20581984D02*
X17717801Y-20581984D01*
X17717801Y-20581984D02*
X17736849Y-20572460D01*
X17736849Y-20572460D02*
X17746373Y-20553412D01*
X17746373Y-20553412D02*
X17746373Y-20543889D01*
X17746373Y-20543889D02*
X17736849Y-20524841D01*
X17736849Y-20524841D02*
X17717801Y-20515317D01*
X17717801Y-20515317D02*
X17689230Y-20515317D01*
X17689230Y-20515317D02*
X17670182Y-20505793D01*
X17670182Y-20505793D02*
X17660658Y-20486746D01*
X17660658Y-20486746D02*
X17660658Y-20477222D01*
X17660658Y-20477222D02*
X17670182Y-20458174D01*
X17670182Y-20458174D02*
X17689230Y-20448650D01*
X17689230Y-20448650D02*
X17717801Y-20448650D01*
X17717801Y-20448650D02*
X17736849Y-20458174D01*
X17813039Y-20658174D02*
X17822563Y-20648650D01*
X17822563Y-20648650D02*
X17841611Y-20620079D01*
X17841611Y-20620079D02*
X17851134Y-20601031D01*
X17851134Y-20601031D02*
X17860658Y-20572460D01*
X17860658Y-20572460D02*
X17870182Y-20524841D01*
X17870182Y-20524841D02*
X17870182Y-20486746D01*
X17870182Y-20486746D02*
X17860658Y-20439127D01*
X17860658Y-20439127D02*
X17851134Y-20410555D01*
X17851134Y-20410555D02*
X17841611Y-20391508D01*
X17841611Y-20391508D02*
X17822563Y-20362936D01*
X17822563Y-20362936D02*
X17813039Y-20353412D01*
D15*
X12690500Y-20676000D02*
X12847500Y-20833000D01*
X12847500Y-20676000D02*
X12690500Y-20833000D01*
X12769000Y-20833000D02*
X12847500Y-20754500D01*
X12769000Y-20676000D01*
X12690500Y-20754500D01*
X12769000Y-20833000D01*
D11*
X13213039Y-20845984D02*
X13098753Y-20845984D01*
X13155896Y-20845984D02*
X13155896Y-20645984D01*
X13155896Y-20645984D02*
X13136848Y-20674555D01*
X13136848Y-20674555D02*
X13117801Y-20693603D01*
X13117801Y-20693603D02*
X13098753Y-20703127D01*
X13298753Y-20826936D02*
X13308277Y-20836460D01*
X13308277Y-20836460D02*
X13298753Y-20845984D01*
X13298753Y-20845984D02*
X13289229Y-20836460D01*
X13289229Y-20836460D02*
X13298753Y-20826936D01*
X13298753Y-20826936D02*
X13298753Y-20845984D01*
X13489229Y-20645984D02*
X13393991Y-20645984D01*
X13393991Y-20645984D02*
X13384467Y-20741222D01*
X13384467Y-20741222D02*
X13393991Y-20731698D01*
X13393991Y-20731698D02*
X13413039Y-20722174D01*
X13413039Y-20722174D02*
X13460658Y-20722174D01*
X13460658Y-20722174D02*
X13479705Y-20731698D01*
X13479705Y-20731698D02*
X13489229Y-20741222D01*
X13489229Y-20741222D02*
X13498753Y-20760270D01*
X13498753Y-20760270D02*
X13498753Y-20807889D01*
X13498753Y-20807889D02*
X13489229Y-20826936D01*
X13489229Y-20826936D02*
X13479705Y-20836460D01*
X13479705Y-20836460D02*
X13460658Y-20845984D01*
X13460658Y-20845984D02*
X13413039Y-20845984D01*
X13413039Y-20845984D02*
X13393991Y-20836460D01*
X13393991Y-20836460D02*
X13384467Y-20826936D01*
X13565420Y-20645984D02*
X13698753Y-20645984D01*
X13698753Y-20645984D02*
X13613039Y-20845984D01*
X13813039Y-20645984D02*
X13832086Y-20645984D01*
X13832086Y-20645984D02*
X13851134Y-20655508D01*
X13851134Y-20655508D02*
X13860658Y-20665031D01*
X13860658Y-20665031D02*
X13870182Y-20684079D01*
X13870182Y-20684079D02*
X13879705Y-20722174D01*
X13879705Y-20722174D02*
X13879705Y-20769793D01*
X13879705Y-20769793D02*
X13870182Y-20807889D01*
X13870182Y-20807889D02*
X13860658Y-20826936D01*
X13860658Y-20826936D02*
X13851134Y-20836460D01*
X13851134Y-20836460D02*
X13832086Y-20845984D01*
X13832086Y-20845984D02*
X13813039Y-20845984D01*
X13813039Y-20845984D02*
X13793991Y-20836460D01*
X13793991Y-20836460D02*
X13784467Y-20826936D01*
X13784467Y-20826936D02*
X13774943Y-20807889D01*
X13774943Y-20807889D02*
X13765420Y-20769793D01*
X13765420Y-20769793D02*
X13765420Y-20722174D01*
X13765420Y-20722174D02*
X13774943Y-20684079D01*
X13774943Y-20684079D02*
X13784467Y-20665031D01*
X13784467Y-20665031D02*
X13793991Y-20655508D01*
X13793991Y-20655508D02*
X13813039Y-20645984D01*
X13965420Y-20845984D02*
X13965420Y-20712650D01*
X13965420Y-20731698D02*
X13974943Y-20722174D01*
X13974943Y-20722174D02*
X13993991Y-20712650D01*
X13993991Y-20712650D02*
X14022563Y-20712650D01*
X14022563Y-20712650D02*
X14041610Y-20722174D01*
X14041610Y-20722174D02*
X14051134Y-20741222D01*
X14051134Y-20741222D02*
X14051134Y-20845984D01*
X14051134Y-20741222D02*
X14060658Y-20722174D01*
X14060658Y-20722174D02*
X14079705Y-20712650D01*
X14079705Y-20712650D02*
X14108277Y-20712650D01*
X14108277Y-20712650D02*
X14127324Y-20722174D01*
X14127324Y-20722174D02*
X14136848Y-20741222D01*
X14136848Y-20741222D02*
X14136848Y-20845984D01*
X14232086Y-20845984D02*
X14232086Y-20712650D01*
X14232086Y-20731698D02*
X14241610Y-20722174D01*
X14241610Y-20722174D02*
X14260658Y-20712650D01*
X14260658Y-20712650D02*
X14289229Y-20712650D01*
X14289229Y-20712650D02*
X14308277Y-20722174D01*
X14308277Y-20722174D02*
X14317801Y-20741222D01*
X14317801Y-20741222D02*
X14317801Y-20845984D01*
X14317801Y-20741222D02*
X14327324Y-20722174D01*
X14327324Y-20722174D02*
X14346372Y-20712650D01*
X14346372Y-20712650D02*
X14374943Y-20712650D01*
X14374943Y-20712650D02*
X14393991Y-20722174D01*
X14393991Y-20722174D02*
X14403515Y-20741222D01*
X14403515Y-20741222D02*
X14403515Y-20845984D01*
X14793991Y-20636460D02*
X14622563Y-20893603D01*
X15051134Y-20645984D02*
X15070182Y-20645984D01*
X15070182Y-20645984D02*
X15089229Y-20655508D01*
X15089229Y-20655508D02*
X15098753Y-20665031D01*
X15098753Y-20665031D02*
X15108277Y-20684079D01*
X15108277Y-20684079D02*
X15117801Y-20722174D01*
X15117801Y-20722174D02*
X15117801Y-20769793D01*
X15117801Y-20769793D02*
X15108277Y-20807889D01*
X15108277Y-20807889D02*
X15098753Y-20826936D01*
X15098753Y-20826936D02*
X15089229Y-20836460D01*
X15089229Y-20836460D02*
X15070182Y-20845984D01*
X15070182Y-20845984D02*
X15051134Y-20845984D01*
X15051134Y-20845984D02*
X15032086Y-20836460D01*
X15032086Y-20836460D02*
X15022563Y-20826936D01*
X15022563Y-20826936D02*
X15013039Y-20807889D01*
X15013039Y-20807889D02*
X15003515Y-20769793D01*
X15003515Y-20769793D02*
X15003515Y-20722174D01*
X15003515Y-20722174D02*
X15013039Y-20684079D01*
X15013039Y-20684079D02*
X15022563Y-20665031D01*
X15022563Y-20665031D02*
X15032086Y-20655508D01*
X15032086Y-20655508D02*
X15051134Y-20645984D01*
X15203515Y-20826936D02*
X15213039Y-20836460D01*
X15213039Y-20836460D02*
X15203515Y-20845984D01*
X15203515Y-20845984D02*
X15193991Y-20836460D01*
X15193991Y-20836460D02*
X15203515Y-20826936D01*
X15203515Y-20826936D02*
X15203515Y-20845984D01*
X15336848Y-20645984D02*
X15355896Y-20645984D01*
X15355896Y-20645984D02*
X15374944Y-20655508D01*
X15374944Y-20655508D02*
X15384467Y-20665031D01*
X15384467Y-20665031D02*
X15393991Y-20684079D01*
X15393991Y-20684079D02*
X15403515Y-20722174D01*
X15403515Y-20722174D02*
X15403515Y-20769793D01*
X15403515Y-20769793D02*
X15393991Y-20807889D01*
X15393991Y-20807889D02*
X15384467Y-20826936D01*
X15384467Y-20826936D02*
X15374944Y-20836460D01*
X15374944Y-20836460D02*
X15355896Y-20845984D01*
X15355896Y-20845984D02*
X15336848Y-20845984D01*
X15336848Y-20845984D02*
X15317801Y-20836460D01*
X15317801Y-20836460D02*
X15308277Y-20826936D01*
X15308277Y-20826936D02*
X15298753Y-20807889D01*
X15298753Y-20807889D02*
X15289229Y-20769793D01*
X15289229Y-20769793D02*
X15289229Y-20722174D01*
X15289229Y-20722174D02*
X15298753Y-20684079D01*
X15298753Y-20684079D02*
X15308277Y-20665031D01*
X15308277Y-20665031D02*
X15317801Y-20655508D01*
X15317801Y-20655508D02*
X15336848Y-20645984D01*
X15574944Y-20645984D02*
X15536848Y-20645984D01*
X15536848Y-20645984D02*
X15517801Y-20655508D01*
X15517801Y-20655508D02*
X15508277Y-20665031D01*
X15508277Y-20665031D02*
X15489229Y-20693603D01*
X15489229Y-20693603D02*
X15479706Y-20731698D01*
X15479706Y-20731698D02*
X15479706Y-20807889D01*
X15479706Y-20807889D02*
X15489229Y-20826936D01*
X15489229Y-20826936D02*
X15498753Y-20836460D01*
X15498753Y-20836460D02*
X15517801Y-20845984D01*
X15517801Y-20845984D02*
X15555896Y-20845984D01*
X15555896Y-20845984D02*
X15574944Y-20836460D01*
X15574944Y-20836460D02*
X15584467Y-20826936D01*
X15584467Y-20826936D02*
X15593991Y-20807889D01*
X15593991Y-20807889D02*
X15593991Y-20760270D01*
X15593991Y-20760270D02*
X15584467Y-20741222D01*
X15584467Y-20741222D02*
X15574944Y-20731698D01*
X15574944Y-20731698D02*
X15555896Y-20722174D01*
X15555896Y-20722174D02*
X15517801Y-20722174D01*
X15517801Y-20722174D02*
X15498753Y-20731698D01*
X15498753Y-20731698D02*
X15489229Y-20741222D01*
X15489229Y-20741222D02*
X15479706Y-20760270D01*
X15784467Y-20845984D02*
X15670182Y-20845984D01*
X15727325Y-20845984D02*
X15727325Y-20645984D01*
X15727325Y-20645984D02*
X15708277Y-20674555D01*
X15708277Y-20674555D02*
X15689229Y-20693603D01*
X15689229Y-20693603D02*
X15670182Y-20703127D01*
X15898753Y-20731698D02*
X15879706Y-20722174D01*
X15879706Y-20722174D02*
X15870182Y-20712650D01*
X15870182Y-20712650D02*
X15860658Y-20693603D01*
X15860658Y-20693603D02*
X15860658Y-20684079D01*
X15860658Y-20684079D02*
X15870182Y-20665031D01*
X15870182Y-20665031D02*
X15879706Y-20655508D01*
X15879706Y-20655508D02*
X15898753Y-20645984D01*
X15898753Y-20645984D02*
X15936848Y-20645984D01*
X15936848Y-20645984D02*
X15955896Y-20655508D01*
X15955896Y-20655508D02*
X15965420Y-20665031D01*
X15965420Y-20665031D02*
X15974944Y-20684079D01*
X15974944Y-20684079D02*
X15974944Y-20693603D01*
X15974944Y-20693603D02*
X15965420Y-20712650D01*
X15965420Y-20712650D02*
X15955896Y-20722174D01*
X15955896Y-20722174D02*
X15936848Y-20731698D01*
X15936848Y-20731698D02*
X15898753Y-20731698D01*
X15898753Y-20731698D02*
X15879706Y-20741222D01*
X15879706Y-20741222D02*
X15870182Y-20750746D01*
X15870182Y-20750746D02*
X15860658Y-20769793D01*
X15860658Y-20769793D02*
X15860658Y-20807889D01*
X15860658Y-20807889D02*
X15870182Y-20826936D01*
X15870182Y-20826936D02*
X15879706Y-20836460D01*
X15879706Y-20836460D02*
X15898753Y-20845984D01*
X15898753Y-20845984D02*
X15936848Y-20845984D01*
X15936848Y-20845984D02*
X15955896Y-20836460D01*
X15955896Y-20836460D02*
X15965420Y-20826936D01*
X15965420Y-20826936D02*
X15974944Y-20807889D01*
X15974944Y-20807889D02*
X15974944Y-20769793D01*
X15974944Y-20769793D02*
X15965420Y-20750746D01*
X15965420Y-20750746D02*
X15955896Y-20741222D01*
X15955896Y-20741222D02*
X15936848Y-20731698D01*
X16051134Y-20645984D02*
X16051134Y-20684079D01*
X16127325Y-20645984D02*
X16127325Y-20684079D01*
X16422563Y-20922174D02*
X16413039Y-20912650D01*
X16413039Y-20912650D02*
X16393991Y-20884079D01*
X16393991Y-20884079D02*
X16384468Y-20865031D01*
X16384468Y-20865031D02*
X16374944Y-20836460D01*
X16374944Y-20836460D02*
X16365420Y-20788841D01*
X16365420Y-20788841D02*
X16365420Y-20750746D01*
X16365420Y-20750746D02*
X16374944Y-20703127D01*
X16374944Y-20703127D02*
X16384468Y-20674555D01*
X16384468Y-20674555D02*
X16393991Y-20655508D01*
X16393991Y-20655508D02*
X16413039Y-20626936D01*
X16413039Y-20626936D02*
X16422563Y-20617412D01*
X16489229Y-20665031D02*
X16498753Y-20655508D01*
X16498753Y-20655508D02*
X16517801Y-20645984D01*
X16517801Y-20645984D02*
X16565420Y-20645984D01*
X16565420Y-20645984D02*
X16584468Y-20655508D01*
X16584468Y-20655508D02*
X16593991Y-20665031D01*
X16593991Y-20665031D02*
X16603515Y-20684079D01*
X16603515Y-20684079D02*
X16603515Y-20703127D01*
X16603515Y-20703127D02*
X16593991Y-20731698D01*
X16593991Y-20731698D02*
X16479706Y-20845984D01*
X16479706Y-20845984D02*
X16603515Y-20845984D01*
X16841611Y-20845984D02*
X16841611Y-20645984D01*
X16927325Y-20845984D02*
X16927325Y-20741222D01*
X16927325Y-20741222D02*
X16917801Y-20722174D01*
X16917801Y-20722174D02*
X16898753Y-20712650D01*
X16898753Y-20712650D02*
X16870182Y-20712650D01*
X16870182Y-20712650D02*
X16851134Y-20722174D01*
X16851134Y-20722174D02*
X16841611Y-20731698D01*
X17051134Y-20845984D02*
X17032087Y-20836460D01*
X17032087Y-20836460D02*
X17022563Y-20826936D01*
X17022563Y-20826936D02*
X17013039Y-20807889D01*
X17013039Y-20807889D02*
X17013039Y-20750746D01*
X17013039Y-20750746D02*
X17022563Y-20731698D01*
X17022563Y-20731698D02*
X17032087Y-20722174D01*
X17032087Y-20722174D02*
X17051134Y-20712650D01*
X17051134Y-20712650D02*
X17079706Y-20712650D01*
X17079706Y-20712650D02*
X17098753Y-20722174D01*
X17098753Y-20722174D02*
X17108277Y-20731698D01*
X17108277Y-20731698D02*
X17117801Y-20750746D01*
X17117801Y-20750746D02*
X17117801Y-20807889D01*
X17117801Y-20807889D02*
X17108277Y-20826936D01*
X17108277Y-20826936D02*
X17098753Y-20836460D01*
X17098753Y-20836460D02*
X17079706Y-20845984D01*
X17079706Y-20845984D02*
X17051134Y-20845984D01*
X17232087Y-20845984D02*
X17213039Y-20836460D01*
X17213039Y-20836460D02*
X17203515Y-20817412D01*
X17203515Y-20817412D02*
X17203515Y-20645984D01*
X17384468Y-20836460D02*
X17365420Y-20845984D01*
X17365420Y-20845984D02*
X17327325Y-20845984D01*
X17327325Y-20845984D02*
X17308277Y-20836460D01*
X17308277Y-20836460D02*
X17298753Y-20817412D01*
X17298753Y-20817412D02*
X17298753Y-20741222D01*
X17298753Y-20741222D02*
X17308277Y-20722174D01*
X17308277Y-20722174D02*
X17327325Y-20712650D01*
X17327325Y-20712650D02*
X17365420Y-20712650D01*
X17365420Y-20712650D02*
X17384468Y-20722174D01*
X17384468Y-20722174D02*
X17393992Y-20741222D01*
X17393992Y-20741222D02*
X17393992Y-20760270D01*
X17393992Y-20760270D02*
X17298753Y-20779317D01*
X17470182Y-20836460D02*
X17489230Y-20845984D01*
X17489230Y-20845984D02*
X17527325Y-20845984D01*
X17527325Y-20845984D02*
X17546373Y-20836460D01*
X17546373Y-20836460D02*
X17555896Y-20817412D01*
X17555896Y-20817412D02*
X17555896Y-20807889D01*
X17555896Y-20807889D02*
X17546373Y-20788841D01*
X17546373Y-20788841D02*
X17527325Y-20779317D01*
X17527325Y-20779317D02*
X17498753Y-20779317D01*
X17498753Y-20779317D02*
X17479706Y-20769793D01*
X17479706Y-20769793D02*
X17470182Y-20750746D01*
X17470182Y-20750746D02*
X17470182Y-20741222D01*
X17470182Y-20741222D02*
X17479706Y-20722174D01*
X17479706Y-20722174D02*
X17498753Y-20712650D01*
X17498753Y-20712650D02*
X17527325Y-20712650D01*
X17527325Y-20712650D02*
X17546373Y-20722174D01*
X17622563Y-20922174D02*
X17632087Y-20912650D01*
X17632087Y-20912650D02*
X17651134Y-20884079D01*
X17651134Y-20884079D02*
X17660658Y-20865031D01*
X17660658Y-20865031D02*
X17670182Y-20836460D01*
X17670182Y-20836460D02*
X17679706Y-20788841D01*
X17679706Y-20788841D02*
X17679706Y-20750746D01*
X17679706Y-20750746D02*
X17670182Y-20703127D01*
X17670182Y-20703127D02*
X17660658Y-20674555D01*
X17660658Y-20674555D02*
X17651134Y-20655508D01*
X17651134Y-20655508D02*
X17632087Y-20626936D01*
X17632087Y-20626936D02*
X17622563Y-20617412D01*
D16*
X12767500Y-20951500D02*
X12767500Y-21111500D01*
X12687500Y-21031500D02*
X12847500Y-21031500D01*
X12847500Y-21031500D02*
G75*
G03*
X12687500Y-21031500I-80000J0D01*
G01*
X12687500Y-21031500D02*
G75*
G03*
X12847500Y-21031500I80000J0D01*
G01*
D11*
X13213039Y-21122984D02*
X13098753Y-21122984D01*
X13155896Y-21122984D02*
X13155896Y-20922984D01*
X13155896Y-20922984D02*
X13136848Y-20951555D01*
X13136848Y-20951555D02*
X13117801Y-20970603D01*
X13117801Y-20970603D02*
X13098753Y-20980127D01*
X13298753Y-21103936D02*
X13308277Y-21113460D01*
X13308277Y-21113460D02*
X13298753Y-21122984D01*
X13298753Y-21122984D02*
X13289229Y-21113460D01*
X13289229Y-21113460D02*
X13298753Y-21103936D01*
X13298753Y-21103936D02*
X13298753Y-21122984D01*
X13479705Y-20922984D02*
X13441610Y-20922984D01*
X13441610Y-20922984D02*
X13422562Y-20932508D01*
X13422562Y-20932508D02*
X13413039Y-20942031D01*
X13413039Y-20942031D02*
X13393991Y-20970603D01*
X13393991Y-20970603D02*
X13384467Y-21008698D01*
X13384467Y-21008698D02*
X13384467Y-21084889D01*
X13384467Y-21084889D02*
X13393991Y-21103936D01*
X13393991Y-21103936D02*
X13403515Y-21113460D01*
X13403515Y-21113460D02*
X13422562Y-21122984D01*
X13422562Y-21122984D02*
X13460658Y-21122984D01*
X13460658Y-21122984D02*
X13479705Y-21113460D01*
X13479705Y-21113460D02*
X13489229Y-21103936D01*
X13489229Y-21103936D02*
X13498753Y-21084889D01*
X13498753Y-21084889D02*
X13498753Y-21037270D01*
X13498753Y-21037270D02*
X13489229Y-21018222D01*
X13489229Y-21018222D02*
X13479705Y-21008698D01*
X13479705Y-21008698D02*
X13460658Y-20999174D01*
X13460658Y-20999174D02*
X13422562Y-20999174D01*
X13422562Y-20999174D02*
X13403515Y-21008698D01*
X13403515Y-21008698D02*
X13393991Y-21018222D01*
X13393991Y-21018222D02*
X13384467Y-21037270D01*
X13622562Y-20922984D02*
X13641610Y-20922984D01*
X13641610Y-20922984D02*
X13660658Y-20932508D01*
X13660658Y-20932508D02*
X13670182Y-20942031D01*
X13670182Y-20942031D02*
X13679705Y-20961079D01*
X13679705Y-20961079D02*
X13689229Y-20999174D01*
X13689229Y-20999174D02*
X13689229Y-21046793D01*
X13689229Y-21046793D02*
X13679705Y-21084889D01*
X13679705Y-21084889D02*
X13670182Y-21103936D01*
X13670182Y-21103936D02*
X13660658Y-21113460D01*
X13660658Y-21113460D02*
X13641610Y-21122984D01*
X13641610Y-21122984D02*
X13622562Y-21122984D01*
X13622562Y-21122984D02*
X13603515Y-21113460D01*
X13603515Y-21113460D02*
X13593991Y-21103936D01*
X13593991Y-21103936D02*
X13584467Y-21084889D01*
X13584467Y-21084889D02*
X13574943Y-21046793D01*
X13574943Y-21046793D02*
X13574943Y-20999174D01*
X13574943Y-20999174D02*
X13584467Y-20961079D01*
X13584467Y-20961079D02*
X13593991Y-20942031D01*
X13593991Y-20942031D02*
X13603515Y-20932508D01*
X13603515Y-20932508D02*
X13622562Y-20922984D01*
X13813039Y-20922984D02*
X13832086Y-20922984D01*
X13832086Y-20922984D02*
X13851134Y-20932508D01*
X13851134Y-20932508D02*
X13860658Y-20942031D01*
X13860658Y-20942031D02*
X13870182Y-20961079D01*
X13870182Y-20961079D02*
X13879705Y-20999174D01*
X13879705Y-20999174D02*
X13879705Y-21046793D01*
X13879705Y-21046793D02*
X13870182Y-21084889D01*
X13870182Y-21084889D02*
X13860658Y-21103936D01*
X13860658Y-21103936D02*
X13851134Y-21113460D01*
X13851134Y-21113460D02*
X13832086Y-21122984D01*
X13832086Y-21122984D02*
X13813039Y-21122984D01*
X13813039Y-21122984D02*
X13793991Y-21113460D01*
X13793991Y-21113460D02*
X13784467Y-21103936D01*
X13784467Y-21103936D02*
X13774943Y-21084889D01*
X13774943Y-21084889D02*
X13765420Y-21046793D01*
X13765420Y-21046793D02*
X13765420Y-20999174D01*
X13765420Y-20999174D02*
X13774943Y-20961079D01*
X13774943Y-20961079D02*
X13784467Y-20942031D01*
X13784467Y-20942031D02*
X13793991Y-20932508D01*
X13793991Y-20932508D02*
X13813039Y-20922984D01*
X13965420Y-21122984D02*
X13965420Y-20989650D01*
X13965420Y-21008698D02*
X13974943Y-20999174D01*
X13974943Y-20999174D02*
X13993991Y-20989650D01*
X13993991Y-20989650D02*
X14022563Y-20989650D01*
X14022563Y-20989650D02*
X14041610Y-20999174D01*
X14041610Y-20999174D02*
X14051134Y-21018222D01*
X14051134Y-21018222D02*
X14051134Y-21122984D01*
X14051134Y-21018222D02*
X14060658Y-20999174D01*
X14060658Y-20999174D02*
X14079705Y-20989650D01*
X14079705Y-20989650D02*
X14108277Y-20989650D01*
X14108277Y-20989650D02*
X14127324Y-20999174D01*
X14127324Y-20999174D02*
X14136848Y-21018222D01*
X14136848Y-21018222D02*
X14136848Y-21122984D01*
X14232086Y-21122984D02*
X14232086Y-20989650D01*
X14232086Y-21008698D02*
X14241610Y-20999174D01*
X14241610Y-20999174D02*
X14260658Y-20989650D01*
X14260658Y-20989650D02*
X14289229Y-20989650D01*
X14289229Y-20989650D02*
X14308277Y-20999174D01*
X14308277Y-20999174D02*
X14317801Y-21018222D01*
X14317801Y-21018222D02*
X14317801Y-21122984D01*
X14317801Y-21018222D02*
X14327324Y-20999174D01*
X14327324Y-20999174D02*
X14346372Y-20989650D01*
X14346372Y-20989650D02*
X14374943Y-20989650D01*
X14374943Y-20989650D02*
X14393991Y-20999174D01*
X14393991Y-20999174D02*
X14403515Y-21018222D01*
X14403515Y-21018222D02*
X14403515Y-21122984D01*
X14793991Y-20913460D02*
X14622563Y-21170603D01*
X15051134Y-20922984D02*
X15070182Y-20922984D01*
X15070182Y-20922984D02*
X15089229Y-20932508D01*
X15089229Y-20932508D02*
X15098753Y-20942031D01*
X15098753Y-20942031D02*
X15108277Y-20961079D01*
X15108277Y-20961079D02*
X15117801Y-20999174D01*
X15117801Y-20999174D02*
X15117801Y-21046793D01*
X15117801Y-21046793D02*
X15108277Y-21084889D01*
X15108277Y-21084889D02*
X15098753Y-21103936D01*
X15098753Y-21103936D02*
X15089229Y-21113460D01*
X15089229Y-21113460D02*
X15070182Y-21122984D01*
X15070182Y-21122984D02*
X15051134Y-21122984D01*
X15051134Y-21122984D02*
X15032086Y-21113460D01*
X15032086Y-21113460D02*
X15022563Y-21103936D01*
X15022563Y-21103936D02*
X15013039Y-21084889D01*
X15013039Y-21084889D02*
X15003515Y-21046793D01*
X15003515Y-21046793D02*
X15003515Y-20999174D01*
X15003515Y-20999174D02*
X15013039Y-20961079D01*
X15013039Y-20961079D02*
X15022563Y-20942031D01*
X15022563Y-20942031D02*
X15032086Y-20932508D01*
X15032086Y-20932508D02*
X15051134Y-20922984D01*
X15203515Y-21103936D02*
X15213039Y-21113460D01*
X15213039Y-21113460D02*
X15203515Y-21122984D01*
X15203515Y-21122984D02*
X15193991Y-21113460D01*
X15193991Y-21113460D02*
X15203515Y-21103936D01*
X15203515Y-21103936D02*
X15203515Y-21122984D01*
X15336848Y-20922984D02*
X15355896Y-20922984D01*
X15355896Y-20922984D02*
X15374944Y-20932508D01*
X15374944Y-20932508D02*
X15384467Y-20942031D01*
X15384467Y-20942031D02*
X15393991Y-20961079D01*
X15393991Y-20961079D02*
X15403515Y-20999174D01*
X15403515Y-20999174D02*
X15403515Y-21046793D01*
X15403515Y-21046793D02*
X15393991Y-21084889D01*
X15393991Y-21084889D02*
X15384467Y-21103936D01*
X15384467Y-21103936D02*
X15374944Y-21113460D01*
X15374944Y-21113460D02*
X15355896Y-21122984D01*
X15355896Y-21122984D02*
X15336848Y-21122984D01*
X15336848Y-21122984D02*
X15317801Y-21113460D01*
X15317801Y-21113460D02*
X15308277Y-21103936D01*
X15308277Y-21103936D02*
X15298753Y-21084889D01*
X15298753Y-21084889D02*
X15289229Y-21046793D01*
X15289229Y-21046793D02*
X15289229Y-20999174D01*
X15289229Y-20999174D02*
X15298753Y-20961079D01*
X15298753Y-20961079D02*
X15308277Y-20942031D01*
X15308277Y-20942031D02*
X15317801Y-20932508D01*
X15317801Y-20932508D02*
X15336848Y-20922984D01*
X15574944Y-20922984D02*
X15536848Y-20922984D01*
X15536848Y-20922984D02*
X15517801Y-20932508D01*
X15517801Y-20932508D02*
X15508277Y-20942031D01*
X15508277Y-20942031D02*
X15489229Y-20970603D01*
X15489229Y-20970603D02*
X15479706Y-21008698D01*
X15479706Y-21008698D02*
X15479706Y-21084889D01*
X15479706Y-21084889D02*
X15489229Y-21103936D01*
X15489229Y-21103936D02*
X15498753Y-21113460D01*
X15498753Y-21113460D02*
X15517801Y-21122984D01*
X15517801Y-21122984D02*
X15555896Y-21122984D01*
X15555896Y-21122984D02*
X15574944Y-21113460D01*
X15574944Y-21113460D02*
X15584467Y-21103936D01*
X15584467Y-21103936D02*
X15593991Y-21084889D01*
X15593991Y-21084889D02*
X15593991Y-21037270D01*
X15593991Y-21037270D02*
X15584467Y-21018222D01*
X15584467Y-21018222D02*
X15574944Y-21008698D01*
X15574944Y-21008698D02*
X15555896Y-20999174D01*
X15555896Y-20999174D02*
X15517801Y-20999174D01*
X15517801Y-20999174D02*
X15498753Y-21008698D01*
X15498753Y-21008698D02*
X15489229Y-21018222D01*
X15489229Y-21018222D02*
X15479706Y-21037270D01*
X15660658Y-20922984D02*
X15784467Y-20922984D01*
X15784467Y-20922984D02*
X15717801Y-20999174D01*
X15717801Y-20999174D02*
X15746372Y-20999174D01*
X15746372Y-20999174D02*
X15765420Y-21008698D01*
X15765420Y-21008698D02*
X15774944Y-21018222D01*
X15774944Y-21018222D02*
X15784467Y-21037270D01*
X15784467Y-21037270D02*
X15784467Y-21084889D01*
X15784467Y-21084889D02*
X15774944Y-21103936D01*
X15774944Y-21103936D02*
X15765420Y-21113460D01*
X15765420Y-21113460D02*
X15746372Y-21122984D01*
X15746372Y-21122984D02*
X15689229Y-21122984D01*
X15689229Y-21122984D02*
X15670182Y-21113460D01*
X15670182Y-21113460D02*
X15660658Y-21103936D01*
X15908277Y-20922984D02*
X15927325Y-20922984D01*
X15927325Y-20922984D02*
X15946372Y-20932508D01*
X15946372Y-20932508D02*
X15955896Y-20942031D01*
X15955896Y-20942031D02*
X15965420Y-20961079D01*
X15965420Y-20961079D02*
X15974944Y-20999174D01*
X15974944Y-20999174D02*
X15974944Y-21046793D01*
X15974944Y-21046793D02*
X15965420Y-21084889D01*
X15965420Y-21084889D02*
X15955896Y-21103936D01*
X15955896Y-21103936D02*
X15946372Y-21113460D01*
X15946372Y-21113460D02*
X15927325Y-21122984D01*
X15927325Y-21122984D02*
X15908277Y-21122984D01*
X15908277Y-21122984D02*
X15889229Y-21113460D01*
X15889229Y-21113460D02*
X15879706Y-21103936D01*
X15879706Y-21103936D02*
X15870182Y-21084889D01*
X15870182Y-21084889D02*
X15860658Y-21046793D01*
X15860658Y-21046793D02*
X15860658Y-20999174D01*
X15860658Y-20999174D02*
X15870182Y-20961079D01*
X15870182Y-20961079D02*
X15879706Y-20942031D01*
X15879706Y-20942031D02*
X15889229Y-20932508D01*
X15889229Y-20932508D02*
X15908277Y-20922984D01*
X16051134Y-20922984D02*
X16051134Y-20961079D01*
X16127325Y-20922984D02*
X16127325Y-20961079D01*
X16422563Y-21199174D02*
X16413039Y-21189650D01*
X16413039Y-21189650D02*
X16393991Y-21161079D01*
X16393991Y-21161079D02*
X16384468Y-21142031D01*
X16384468Y-21142031D02*
X16374944Y-21113460D01*
X16374944Y-21113460D02*
X16365420Y-21065841D01*
X16365420Y-21065841D02*
X16365420Y-21027746D01*
X16365420Y-21027746D02*
X16374944Y-20980127D01*
X16374944Y-20980127D02*
X16384468Y-20951555D01*
X16384468Y-20951555D02*
X16393991Y-20932508D01*
X16393991Y-20932508D02*
X16413039Y-20903936D01*
X16413039Y-20903936D02*
X16422563Y-20894412D01*
X16479706Y-20922984D02*
X16603515Y-20922984D01*
X16603515Y-20922984D02*
X16536848Y-20999174D01*
X16536848Y-20999174D02*
X16565420Y-20999174D01*
X16565420Y-20999174D02*
X16584468Y-21008698D01*
X16584468Y-21008698D02*
X16593991Y-21018222D01*
X16593991Y-21018222D02*
X16603515Y-21037270D01*
X16603515Y-21037270D02*
X16603515Y-21084889D01*
X16603515Y-21084889D02*
X16593991Y-21103936D01*
X16593991Y-21103936D02*
X16584468Y-21113460D01*
X16584468Y-21113460D02*
X16565420Y-21122984D01*
X16565420Y-21122984D02*
X16508277Y-21122984D01*
X16508277Y-21122984D02*
X16489229Y-21113460D01*
X16489229Y-21113460D02*
X16479706Y-21103936D01*
X16841611Y-21122984D02*
X16841611Y-20922984D01*
X16927325Y-21122984D02*
X16927325Y-21018222D01*
X16927325Y-21018222D02*
X16917801Y-20999174D01*
X16917801Y-20999174D02*
X16898753Y-20989650D01*
X16898753Y-20989650D02*
X16870182Y-20989650D01*
X16870182Y-20989650D02*
X16851134Y-20999174D01*
X16851134Y-20999174D02*
X16841611Y-21008698D01*
X17051134Y-21122984D02*
X17032087Y-21113460D01*
X17032087Y-21113460D02*
X17022563Y-21103936D01*
X17022563Y-21103936D02*
X17013039Y-21084889D01*
X17013039Y-21084889D02*
X17013039Y-21027746D01*
X17013039Y-21027746D02*
X17022563Y-21008698D01*
X17022563Y-21008698D02*
X17032087Y-20999174D01*
X17032087Y-20999174D02*
X17051134Y-20989650D01*
X17051134Y-20989650D02*
X17079706Y-20989650D01*
X17079706Y-20989650D02*
X17098753Y-20999174D01*
X17098753Y-20999174D02*
X17108277Y-21008698D01*
X17108277Y-21008698D02*
X17117801Y-21027746D01*
X17117801Y-21027746D02*
X17117801Y-21084889D01*
X17117801Y-21084889D02*
X17108277Y-21103936D01*
X17108277Y-21103936D02*
X17098753Y-21113460D01*
X17098753Y-21113460D02*
X17079706Y-21122984D01*
X17079706Y-21122984D02*
X17051134Y-21122984D01*
X17232087Y-21122984D02*
X17213039Y-21113460D01*
X17213039Y-21113460D02*
X17203515Y-21094412D01*
X17203515Y-21094412D02*
X17203515Y-20922984D01*
X17384468Y-21113460D02*
X17365420Y-21122984D01*
X17365420Y-21122984D02*
X17327325Y-21122984D01*
X17327325Y-21122984D02*
X17308277Y-21113460D01*
X17308277Y-21113460D02*
X17298753Y-21094412D01*
X17298753Y-21094412D02*
X17298753Y-21018222D01*
X17298753Y-21018222D02*
X17308277Y-20999174D01*
X17308277Y-20999174D02*
X17327325Y-20989650D01*
X17327325Y-20989650D02*
X17365420Y-20989650D01*
X17365420Y-20989650D02*
X17384468Y-20999174D01*
X17384468Y-20999174D02*
X17393992Y-21018222D01*
X17393992Y-21018222D02*
X17393992Y-21037270D01*
X17393992Y-21037270D02*
X17298753Y-21056317D01*
X17470182Y-21113460D02*
X17489230Y-21122984D01*
X17489230Y-21122984D02*
X17527325Y-21122984D01*
X17527325Y-21122984D02*
X17546373Y-21113460D01*
X17546373Y-21113460D02*
X17555896Y-21094412D01*
X17555896Y-21094412D02*
X17555896Y-21084889D01*
X17555896Y-21084889D02*
X17546373Y-21065841D01*
X17546373Y-21065841D02*
X17527325Y-21056317D01*
X17527325Y-21056317D02*
X17498753Y-21056317D01*
X17498753Y-21056317D02*
X17479706Y-21046793D01*
X17479706Y-21046793D02*
X17470182Y-21027746D01*
X17470182Y-21027746D02*
X17470182Y-21018222D01*
X17470182Y-21018222D02*
X17479706Y-20999174D01*
X17479706Y-20999174D02*
X17498753Y-20989650D01*
X17498753Y-20989650D02*
X17527325Y-20989650D01*
X17527325Y-20989650D02*
X17546373Y-20999174D01*
X17622563Y-21199174D02*
X17632087Y-21189650D01*
X17632087Y-21189650D02*
X17651134Y-21161079D01*
X17651134Y-21161079D02*
X17660658Y-21142031D01*
X17660658Y-21142031D02*
X17670182Y-21113460D01*
X17670182Y-21113460D02*
X17679706Y-21065841D01*
X17679706Y-21065841D02*
X17679706Y-21027746D01*
X17679706Y-21027746D02*
X17670182Y-20980127D01*
X17670182Y-20980127D02*
X17660658Y-20951555D01*
X17660658Y-20951555D02*
X17651134Y-20932508D01*
X17651134Y-20932508D02*
X17632087Y-20903936D01*
X17632087Y-20903936D02*
X17622563Y-20894412D01*
D17*
X12824066Y-21368076D02*
X12824066Y-21254924D01*
X12710914Y-21254924D01*
X12710914Y-21368076D01*
X12824066Y-21368076D01*
X12847500Y-21311500D02*
G75*
G03*
X12687480Y-21311500I-80010J0D01*
G01*
X12687480Y-21311500D02*
G75*
G03*
X12847500Y-21311500I80010J0D01*
G01*
D11*
X13213039Y-21402984D02*
X13098753Y-21402984D01*
X13155896Y-21402984D02*
X13155896Y-21202984D01*
X13155896Y-21202984D02*
X13136848Y-21231555D01*
X13136848Y-21231555D02*
X13117801Y-21250603D01*
X13117801Y-21250603D02*
X13098753Y-21260127D01*
X13298753Y-21383936D02*
X13308277Y-21393460D01*
X13308277Y-21393460D02*
X13298753Y-21402984D01*
X13298753Y-21402984D02*
X13289229Y-21393460D01*
X13289229Y-21393460D02*
X13298753Y-21383936D01*
X13298753Y-21383936D02*
X13298753Y-21402984D01*
X13479705Y-21202984D02*
X13441610Y-21202984D01*
X13441610Y-21202984D02*
X13422562Y-21212508D01*
X13422562Y-21212508D02*
X13413039Y-21222031D01*
X13413039Y-21222031D02*
X13393991Y-21250603D01*
X13393991Y-21250603D02*
X13384467Y-21288698D01*
X13384467Y-21288698D02*
X13384467Y-21364889D01*
X13384467Y-21364889D02*
X13393991Y-21383936D01*
X13393991Y-21383936D02*
X13403515Y-21393460D01*
X13403515Y-21393460D02*
X13422562Y-21402984D01*
X13422562Y-21402984D02*
X13460658Y-21402984D01*
X13460658Y-21402984D02*
X13479705Y-21393460D01*
X13479705Y-21393460D02*
X13489229Y-21383936D01*
X13489229Y-21383936D02*
X13498753Y-21364889D01*
X13498753Y-21364889D02*
X13498753Y-21317270D01*
X13498753Y-21317270D02*
X13489229Y-21298222D01*
X13489229Y-21298222D02*
X13479705Y-21288698D01*
X13479705Y-21288698D02*
X13460658Y-21279174D01*
X13460658Y-21279174D02*
X13422562Y-21279174D01*
X13422562Y-21279174D02*
X13403515Y-21288698D01*
X13403515Y-21288698D02*
X13393991Y-21298222D01*
X13393991Y-21298222D02*
X13384467Y-21317270D01*
X13622562Y-21202984D02*
X13641610Y-21202984D01*
X13641610Y-21202984D02*
X13660658Y-21212508D01*
X13660658Y-21212508D02*
X13670182Y-21222031D01*
X13670182Y-21222031D02*
X13679705Y-21241079D01*
X13679705Y-21241079D02*
X13689229Y-21279174D01*
X13689229Y-21279174D02*
X13689229Y-21326793D01*
X13689229Y-21326793D02*
X13679705Y-21364889D01*
X13679705Y-21364889D02*
X13670182Y-21383936D01*
X13670182Y-21383936D02*
X13660658Y-21393460D01*
X13660658Y-21393460D02*
X13641610Y-21402984D01*
X13641610Y-21402984D02*
X13622562Y-21402984D01*
X13622562Y-21402984D02*
X13603515Y-21393460D01*
X13603515Y-21393460D02*
X13593991Y-21383936D01*
X13593991Y-21383936D02*
X13584467Y-21364889D01*
X13584467Y-21364889D02*
X13574943Y-21326793D01*
X13574943Y-21326793D02*
X13574943Y-21279174D01*
X13574943Y-21279174D02*
X13584467Y-21241079D01*
X13584467Y-21241079D02*
X13593991Y-21222031D01*
X13593991Y-21222031D02*
X13603515Y-21212508D01*
X13603515Y-21212508D02*
X13622562Y-21202984D01*
X13813039Y-21202984D02*
X13832086Y-21202984D01*
X13832086Y-21202984D02*
X13851134Y-21212508D01*
X13851134Y-21212508D02*
X13860658Y-21222031D01*
X13860658Y-21222031D02*
X13870182Y-21241079D01*
X13870182Y-21241079D02*
X13879705Y-21279174D01*
X13879705Y-21279174D02*
X13879705Y-21326793D01*
X13879705Y-21326793D02*
X13870182Y-21364889D01*
X13870182Y-21364889D02*
X13860658Y-21383936D01*
X13860658Y-21383936D02*
X13851134Y-21393460D01*
X13851134Y-21393460D02*
X13832086Y-21402984D01*
X13832086Y-21402984D02*
X13813039Y-21402984D01*
X13813039Y-21402984D02*
X13793991Y-21393460D01*
X13793991Y-21393460D02*
X13784467Y-21383936D01*
X13784467Y-21383936D02*
X13774943Y-21364889D01*
X13774943Y-21364889D02*
X13765420Y-21326793D01*
X13765420Y-21326793D02*
X13765420Y-21279174D01*
X13765420Y-21279174D02*
X13774943Y-21241079D01*
X13774943Y-21241079D02*
X13784467Y-21222031D01*
X13784467Y-21222031D02*
X13793991Y-21212508D01*
X13793991Y-21212508D02*
X13813039Y-21202984D01*
X13965420Y-21402984D02*
X13965420Y-21269650D01*
X13965420Y-21288698D02*
X13974943Y-21279174D01*
X13974943Y-21279174D02*
X13993991Y-21269650D01*
X13993991Y-21269650D02*
X14022563Y-21269650D01*
X14022563Y-21269650D02*
X14041610Y-21279174D01*
X14041610Y-21279174D02*
X14051134Y-21298222D01*
X14051134Y-21298222D02*
X14051134Y-21402984D01*
X14051134Y-21298222D02*
X14060658Y-21279174D01*
X14060658Y-21279174D02*
X14079705Y-21269650D01*
X14079705Y-21269650D02*
X14108277Y-21269650D01*
X14108277Y-21269650D02*
X14127324Y-21279174D01*
X14127324Y-21279174D02*
X14136848Y-21298222D01*
X14136848Y-21298222D02*
X14136848Y-21402984D01*
X14232086Y-21402984D02*
X14232086Y-21269650D01*
X14232086Y-21288698D02*
X14241610Y-21279174D01*
X14241610Y-21279174D02*
X14260658Y-21269650D01*
X14260658Y-21269650D02*
X14289229Y-21269650D01*
X14289229Y-21269650D02*
X14308277Y-21279174D01*
X14308277Y-21279174D02*
X14317801Y-21298222D01*
X14317801Y-21298222D02*
X14317801Y-21402984D01*
X14317801Y-21298222D02*
X14327324Y-21279174D01*
X14327324Y-21279174D02*
X14346372Y-21269650D01*
X14346372Y-21269650D02*
X14374943Y-21269650D01*
X14374943Y-21269650D02*
X14393991Y-21279174D01*
X14393991Y-21279174D02*
X14403515Y-21298222D01*
X14403515Y-21298222D02*
X14403515Y-21402984D01*
X14793991Y-21193460D02*
X14622563Y-21450603D01*
X15051134Y-21202984D02*
X15070182Y-21202984D01*
X15070182Y-21202984D02*
X15089229Y-21212508D01*
X15089229Y-21212508D02*
X15098753Y-21222031D01*
X15098753Y-21222031D02*
X15108277Y-21241079D01*
X15108277Y-21241079D02*
X15117801Y-21279174D01*
X15117801Y-21279174D02*
X15117801Y-21326793D01*
X15117801Y-21326793D02*
X15108277Y-21364889D01*
X15108277Y-21364889D02*
X15098753Y-21383936D01*
X15098753Y-21383936D02*
X15089229Y-21393460D01*
X15089229Y-21393460D02*
X15070182Y-21402984D01*
X15070182Y-21402984D02*
X15051134Y-21402984D01*
X15051134Y-21402984D02*
X15032086Y-21393460D01*
X15032086Y-21393460D02*
X15022563Y-21383936D01*
X15022563Y-21383936D02*
X15013039Y-21364889D01*
X15013039Y-21364889D02*
X15003515Y-21326793D01*
X15003515Y-21326793D02*
X15003515Y-21279174D01*
X15003515Y-21279174D02*
X15013039Y-21241079D01*
X15013039Y-21241079D02*
X15022563Y-21222031D01*
X15022563Y-21222031D02*
X15032086Y-21212508D01*
X15032086Y-21212508D02*
X15051134Y-21202984D01*
X15203515Y-21383936D02*
X15213039Y-21393460D01*
X15213039Y-21393460D02*
X15203515Y-21402984D01*
X15203515Y-21402984D02*
X15193991Y-21393460D01*
X15193991Y-21393460D02*
X15203515Y-21383936D01*
X15203515Y-21383936D02*
X15203515Y-21402984D01*
X15336848Y-21202984D02*
X15355896Y-21202984D01*
X15355896Y-21202984D02*
X15374944Y-21212508D01*
X15374944Y-21212508D02*
X15384467Y-21222031D01*
X15384467Y-21222031D02*
X15393991Y-21241079D01*
X15393991Y-21241079D02*
X15403515Y-21279174D01*
X15403515Y-21279174D02*
X15403515Y-21326793D01*
X15403515Y-21326793D02*
X15393991Y-21364889D01*
X15393991Y-21364889D02*
X15384467Y-21383936D01*
X15384467Y-21383936D02*
X15374944Y-21393460D01*
X15374944Y-21393460D02*
X15355896Y-21402984D01*
X15355896Y-21402984D02*
X15336848Y-21402984D01*
X15336848Y-21402984D02*
X15317801Y-21393460D01*
X15317801Y-21393460D02*
X15308277Y-21383936D01*
X15308277Y-21383936D02*
X15298753Y-21364889D01*
X15298753Y-21364889D02*
X15289229Y-21326793D01*
X15289229Y-21326793D02*
X15289229Y-21279174D01*
X15289229Y-21279174D02*
X15298753Y-21241079D01*
X15298753Y-21241079D02*
X15308277Y-21222031D01*
X15308277Y-21222031D02*
X15317801Y-21212508D01*
X15317801Y-21212508D02*
X15336848Y-21202984D01*
X15574944Y-21202984D02*
X15536848Y-21202984D01*
X15536848Y-21202984D02*
X15517801Y-21212508D01*
X15517801Y-21212508D02*
X15508277Y-21222031D01*
X15508277Y-21222031D02*
X15489229Y-21250603D01*
X15489229Y-21250603D02*
X15479706Y-21288698D01*
X15479706Y-21288698D02*
X15479706Y-21364889D01*
X15479706Y-21364889D02*
X15489229Y-21383936D01*
X15489229Y-21383936D02*
X15498753Y-21393460D01*
X15498753Y-21393460D02*
X15517801Y-21402984D01*
X15517801Y-21402984D02*
X15555896Y-21402984D01*
X15555896Y-21402984D02*
X15574944Y-21393460D01*
X15574944Y-21393460D02*
X15584467Y-21383936D01*
X15584467Y-21383936D02*
X15593991Y-21364889D01*
X15593991Y-21364889D02*
X15593991Y-21317270D01*
X15593991Y-21317270D02*
X15584467Y-21298222D01*
X15584467Y-21298222D02*
X15574944Y-21288698D01*
X15574944Y-21288698D02*
X15555896Y-21279174D01*
X15555896Y-21279174D02*
X15517801Y-21279174D01*
X15517801Y-21279174D02*
X15498753Y-21288698D01*
X15498753Y-21288698D02*
X15489229Y-21298222D01*
X15489229Y-21298222D02*
X15479706Y-21317270D01*
X15660658Y-21202984D02*
X15784467Y-21202984D01*
X15784467Y-21202984D02*
X15717801Y-21279174D01*
X15717801Y-21279174D02*
X15746372Y-21279174D01*
X15746372Y-21279174D02*
X15765420Y-21288698D01*
X15765420Y-21288698D02*
X15774944Y-21298222D01*
X15774944Y-21298222D02*
X15784467Y-21317270D01*
X15784467Y-21317270D02*
X15784467Y-21364889D01*
X15784467Y-21364889D02*
X15774944Y-21383936D01*
X15774944Y-21383936D02*
X15765420Y-21393460D01*
X15765420Y-21393460D02*
X15746372Y-21402984D01*
X15746372Y-21402984D02*
X15689229Y-21402984D01*
X15689229Y-21402984D02*
X15670182Y-21393460D01*
X15670182Y-21393460D02*
X15660658Y-21383936D01*
X15908277Y-21202984D02*
X15927325Y-21202984D01*
X15927325Y-21202984D02*
X15946372Y-21212508D01*
X15946372Y-21212508D02*
X15955896Y-21222031D01*
X15955896Y-21222031D02*
X15965420Y-21241079D01*
X15965420Y-21241079D02*
X15974944Y-21279174D01*
X15974944Y-21279174D02*
X15974944Y-21326793D01*
X15974944Y-21326793D02*
X15965420Y-21364889D01*
X15965420Y-21364889D02*
X15955896Y-21383936D01*
X15955896Y-21383936D02*
X15946372Y-21393460D01*
X15946372Y-21393460D02*
X15927325Y-21402984D01*
X15927325Y-21402984D02*
X15908277Y-21402984D01*
X15908277Y-21402984D02*
X15889229Y-21393460D01*
X15889229Y-21393460D02*
X15879706Y-21383936D01*
X15879706Y-21383936D02*
X15870182Y-21364889D01*
X15870182Y-21364889D02*
X15860658Y-21326793D01*
X15860658Y-21326793D02*
X15860658Y-21279174D01*
X15860658Y-21279174D02*
X15870182Y-21241079D01*
X15870182Y-21241079D02*
X15879706Y-21222031D01*
X15879706Y-21222031D02*
X15889229Y-21212508D01*
X15889229Y-21212508D02*
X15908277Y-21202984D01*
X16051134Y-21202984D02*
X16051134Y-21241079D01*
X16127325Y-21202984D02*
X16127325Y-21241079D01*
X16422563Y-21479174D02*
X16413039Y-21469650D01*
X16413039Y-21469650D02*
X16393991Y-21441079D01*
X16393991Y-21441079D02*
X16384468Y-21422031D01*
X16384468Y-21422031D02*
X16374944Y-21393460D01*
X16374944Y-21393460D02*
X16365420Y-21345841D01*
X16365420Y-21345841D02*
X16365420Y-21307746D01*
X16365420Y-21307746D02*
X16374944Y-21260127D01*
X16374944Y-21260127D02*
X16384468Y-21231555D01*
X16384468Y-21231555D02*
X16393991Y-21212508D01*
X16393991Y-21212508D02*
X16413039Y-21183936D01*
X16413039Y-21183936D02*
X16422563Y-21174412D01*
X16603515Y-21402984D02*
X16489229Y-21402984D01*
X16546372Y-21402984D02*
X16546372Y-21202984D01*
X16546372Y-21202984D02*
X16527325Y-21231555D01*
X16527325Y-21231555D02*
X16508277Y-21250603D01*
X16508277Y-21250603D02*
X16489229Y-21260127D01*
X16841611Y-21402984D02*
X16841611Y-21202984D01*
X16927325Y-21402984D02*
X16927325Y-21298222D01*
X16927325Y-21298222D02*
X16917801Y-21279174D01*
X16917801Y-21279174D02*
X16898753Y-21269650D01*
X16898753Y-21269650D02*
X16870182Y-21269650D01*
X16870182Y-21269650D02*
X16851134Y-21279174D01*
X16851134Y-21279174D02*
X16841611Y-21288698D01*
X17051134Y-21402984D02*
X17032087Y-21393460D01*
X17032087Y-21393460D02*
X17022563Y-21383936D01*
X17022563Y-21383936D02*
X17013039Y-21364889D01*
X17013039Y-21364889D02*
X17013039Y-21307746D01*
X17013039Y-21307746D02*
X17022563Y-21288698D01*
X17022563Y-21288698D02*
X17032087Y-21279174D01*
X17032087Y-21279174D02*
X17051134Y-21269650D01*
X17051134Y-21269650D02*
X17079706Y-21269650D01*
X17079706Y-21269650D02*
X17098753Y-21279174D01*
X17098753Y-21279174D02*
X17108277Y-21288698D01*
X17108277Y-21288698D02*
X17117801Y-21307746D01*
X17117801Y-21307746D02*
X17117801Y-21364889D01*
X17117801Y-21364889D02*
X17108277Y-21383936D01*
X17108277Y-21383936D02*
X17098753Y-21393460D01*
X17098753Y-21393460D02*
X17079706Y-21402984D01*
X17079706Y-21402984D02*
X17051134Y-21402984D01*
X17232087Y-21402984D02*
X17213039Y-21393460D01*
X17213039Y-21393460D02*
X17203515Y-21374412D01*
X17203515Y-21374412D02*
X17203515Y-21202984D01*
X17384468Y-21393460D02*
X17365420Y-21402984D01*
X17365420Y-21402984D02*
X17327325Y-21402984D01*
X17327325Y-21402984D02*
X17308277Y-21393460D01*
X17308277Y-21393460D02*
X17298753Y-21374412D01*
X17298753Y-21374412D02*
X17298753Y-21298222D01*
X17298753Y-21298222D02*
X17308277Y-21279174D01*
X17308277Y-21279174D02*
X17327325Y-21269650D01*
X17327325Y-21269650D02*
X17365420Y-21269650D01*
X17365420Y-21269650D02*
X17384468Y-21279174D01*
X17384468Y-21279174D02*
X17393992Y-21298222D01*
X17393992Y-21298222D02*
X17393992Y-21317270D01*
X17393992Y-21317270D02*
X17298753Y-21336317D01*
X17460658Y-21479174D02*
X17470182Y-21469650D01*
X17470182Y-21469650D02*
X17489230Y-21441079D01*
X17489230Y-21441079D02*
X17498753Y-21422031D01*
X17498753Y-21422031D02*
X17508277Y-21393460D01*
X17508277Y-21393460D02*
X17517801Y-21345841D01*
X17517801Y-21345841D02*
X17517801Y-21307746D01*
X17517801Y-21307746D02*
X17508277Y-21260127D01*
X17508277Y-21260127D02*
X17498753Y-21231555D01*
X17498753Y-21231555D02*
X17489230Y-21212508D01*
X17489230Y-21212508D02*
X17470182Y-21183936D01*
X17470182Y-21183936D02*
X17460658Y-21174412D01*
X12747500Y-21691520D02*
X12847500Y-21591520D01*
X12747500Y-21491520D01*
X12647500Y-21591520D01*
X12747500Y-21691520D01*
X12847500Y-21591520D02*
G75*
G03*
X12647500Y-21591520I-100000J0D01*
G01*
X12647500Y-21591520D02*
G75*
G03*
X12847500Y-21591520I100000J0D01*
G01*
X13098753Y-21502051D02*
X13108277Y-21492528D01*
X13108277Y-21492528D02*
X13127324Y-21483004D01*
X13127324Y-21483004D02*
X13174943Y-21483004D01*
X13174943Y-21483004D02*
X13193991Y-21492528D01*
X13193991Y-21492528D02*
X13203515Y-21502051D01*
X13203515Y-21502051D02*
X13213039Y-21521099D01*
X13213039Y-21521099D02*
X13213039Y-21540147D01*
X13213039Y-21540147D02*
X13203515Y-21568718D01*
X13203515Y-21568718D02*
X13089229Y-21683004D01*
X13089229Y-21683004D02*
X13213039Y-21683004D01*
X13298753Y-21663956D02*
X13308277Y-21673480D01*
X13308277Y-21673480D02*
X13298753Y-21683004D01*
X13298753Y-21683004D02*
X13289229Y-21673480D01*
X13289229Y-21673480D02*
X13298753Y-21663956D01*
X13298753Y-21663956D02*
X13298753Y-21683004D01*
X13374943Y-21483004D02*
X13508277Y-21483004D01*
X13508277Y-21483004D02*
X13422562Y-21683004D01*
X13622562Y-21483004D02*
X13641610Y-21483004D01*
X13641610Y-21483004D02*
X13660658Y-21492528D01*
X13660658Y-21492528D02*
X13670182Y-21502051D01*
X13670182Y-21502051D02*
X13679705Y-21521099D01*
X13679705Y-21521099D02*
X13689229Y-21559194D01*
X13689229Y-21559194D02*
X13689229Y-21606813D01*
X13689229Y-21606813D02*
X13679705Y-21644909D01*
X13679705Y-21644909D02*
X13670182Y-21663956D01*
X13670182Y-21663956D02*
X13660658Y-21673480D01*
X13660658Y-21673480D02*
X13641610Y-21683004D01*
X13641610Y-21683004D02*
X13622562Y-21683004D01*
X13622562Y-21683004D02*
X13603515Y-21673480D01*
X13603515Y-21673480D02*
X13593991Y-21663956D01*
X13593991Y-21663956D02*
X13584467Y-21644909D01*
X13584467Y-21644909D02*
X13574943Y-21606813D01*
X13574943Y-21606813D02*
X13574943Y-21559194D01*
X13574943Y-21559194D02*
X13584467Y-21521099D01*
X13584467Y-21521099D02*
X13593991Y-21502051D01*
X13593991Y-21502051D02*
X13603515Y-21492528D01*
X13603515Y-21492528D02*
X13622562Y-21483004D01*
X13813039Y-21483004D02*
X13832086Y-21483004D01*
X13832086Y-21483004D02*
X13851134Y-21492528D01*
X13851134Y-21492528D02*
X13860658Y-21502051D01*
X13860658Y-21502051D02*
X13870182Y-21521099D01*
X13870182Y-21521099D02*
X13879705Y-21559194D01*
X13879705Y-21559194D02*
X13879705Y-21606813D01*
X13879705Y-21606813D02*
X13870182Y-21644909D01*
X13870182Y-21644909D02*
X13860658Y-21663956D01*
X13860658Y-21663956D02*
X13851134Y-21673480D01*
X13851134Y-21673480D02*
X13832086Y-21683004D01*
X13832086Y-21683004D02*
X13813039Y-21683004D01*
X13813039Y-21683004D02*
X13793991Y-21673480D01*
X13793991Y-21673480D02*
X13784467Y-21663956D01*
X13784467Y-21663956D02*
X13774943Y-21644909D01*
X13774943Y-21644909D02*
X13765420Y-21606813D01*
X13765420Y-21606813D02*
X13765420Y-21559194D01*
X13765420Y-21559194D02*
X13774943Y-21521099D01*
X13774943Y-21521099D02*
X13784467Y-21502051D01*
X13784467Y-21502051D02*
X13793991Y-21492528D01*
X13793991Y-21492528D02*
X13813039Y-21483004D01*
X13965420Y-21683004D02*
X13965420Y-21549670D01*
X13965420Y-21568718D02*
X13974943Y-21559194D01*
X13974943Y-21559194D02*
X13993991Y-21549670D01*
X13993991Y-21549670D02*
X14022563Y-21549670D01*
X14022563Y-21549670D02*
X14041610Y-21559194D01*
X14041610Y-21559194D02*
X14051134Y-21578242D01*
X14051134Y-21578242D02*
X14051134Y-21683004D01*
X14051134Y-21578242D02*
X14060658Y-21559194D01*
X14060658Y-21559194D02*
X14079705Y-21549670D01*
X14079705Y-21549670D02*
X14108277Y-21549670D01*
X14108277Y-21549670D02*
X14127324Y-21559194D01*
X14127324Y-21559194D02*
X14136848Y-21578242D01*
X14136848Y-21578242D02*
X14136848Y-21683004D01*
X14232086Y-21683004D02*
X14232086Y-21549670D01*
X14232086Y-21568718D02*
X14241610Y-21559194D01*
X14241610Y-21559194D02*
X14260658Y-21549670D01*
X14260658Y-21549670D02*
X14289229Y-21549670D01*
X14289229Y-21549670D02*
X14308277Y-21559194D01*
X14308277Y-21559194D02*
X14317801Y-21578242D01*
X14317801Y-21578242D02*
X14317801Y-21683004D01*
X14317801Y-21578242D02*
X14327324Y-21559194D01*
X14327324Y-21559194D02*
X14346372Y-21549670D01*
X14346372Y-21549670D02*
X14374943Y-21549670D01*
X14374943Y-21549670D02*
X14393991Y-21559194D01*
X14393991Y-21559194D02*
X14403515Y-21578242D01*
X14403515Y-21578242D02*
X14403515Y-21683004D01*
X14793991Y-21473480D02*
X14622563Y-21730623D01*
X15051134Y-21483004D02*
X15070182Y-21483004D01*
X15070182Y-21483004D02*
X15089229Y-21492528D01*
X15089229Y-21492528D02*
X15098753Y-21502051D01*
X15098753Y-21502051D02*
X15108277Y-21521099D01*
X15108277Y-21521099D02*
X15117801Y-21559194D01*
X15117801Y-21559194D02*
X15117801Y-21606813D01*
X15117801Y-21606813D02*
X15108277Y-21644909D01*
X15108277Y-21644909D02*
X15098753Y-21663956D01*
X15098753Y-21663956D02*
X15089229Y-21673480D01*
X15089229Y-21673480D02*
X15070182Y-21683004D01*
X15070182Y-21683004D02*
X15051134Y-21683004D01*
X15051134Y-21683004D02*
X15032086Y-21673480D01*
X15032086Y-21673480D02*
X15022563Y-21663956D01*
X15022563Y-21663956D02*
X15013039Y-21644909D01*
X15013039Y-21644909D02*
X15003515Y-21606813D01*
X15003515Y-21606813D02*
X15003515Y-21559194D01*
X15003515Y-21559194D02*
X15013039Y-21521099D01*
X15013039Y-21521099D02*
X15022563Y-21502051D01*
X15022563Y-21502051D02*
X15032086Y-21492528D01*
X15032086Y-21492528D02*
X15051134Y-21483004D01*
X15203515Y-21663956D02*
X15213039Y-21673480D01*
X15213039Y-21673480D02*
X15203515Y-21683004D01*
X15203515Y-21683004D02*
X15193991Y-21673480D01*
X15193991Y-21673480D02*
X15203515Y-21663956D01*
X15203515Y-21663956D02*
X15203515Y-21683004D01*
X15403515Y-21683004D02*
X15289229Y-21683004D01*
X15346372Y-21683004D02*
X15346372Y-21483004D01*
X15346372Y-21483004D02*
X15327325Y-21511575D01*
X15327325Y-21511575D02*
X15308277Y-21530623D01*
X15308277Y-21530623D02*
X15289229Y-21540147D01*
X15527325Y-21483004D02*
X15546372Y-21483004D01*
X15546372Y-21483004D02*
X15565420Y-21492528D01*
X15565420Y-21492528D02*
X15574944Y-21502051D01*
X15574944Y-21502051D02*
X15584467Y-21521099D01*
X15584467Y-21521099D02*
X15593991Y-21559194D01*
X15593991Y-21559194D02*
X15593991Y-21606813D01*
X15593991Y-21606813D02*
X15584467Y-21644909D01*
X15584467Y-21644909D02*
X15574944Y-21663956D01*
X15574944Y-21663956D02*
X15565420Y-21673480D01*
X15565420Y-21673480D02*
X15546372Y-21683004D01*
X15546372Y-21683004D02*
X15527325Y-21683004D01*
X15527325Y-21683004D02*
X15508277Y-21673480D01*
X15508277Y-21673480D02*
X15498753Y-21663956D01*
X15498753Y-21663956D02*
X15489229Y-21644909D01*
X15489229Y-21644909D02*
X15479706Y-21606813D01*
X15479706Y-21606813D02*
X15479706Y-21559194D01*
X15479706Y-21559194D02*
X15489229Y-21521099D01*
X15489229Y-21521099D02*
X15498753Y-21502051D01*
X15498753Y-21502051D02*
X15508277Y-21492528D01*
X15508277Y-21492528D02*
X15527325Y-21483004D01*
X15765420Y-21483004D02*
X15727325Y-21483004D01*
X15727325Y-21483004D02*
X15708277Y-21492528D01*
X15708277Y-21492528D02*
X15698753Y-21502051D01*
X15698753Y-21502051D02*
X15679706Y-21530623D01*
X15679706Y-21530623D02*
X15670182Y-21568718D01*
X15670182Y-21568718D02*
X15670182Y-21644909D01*
X15670182Y-21644909D02*
X15679706Y-21663956D01*
X15679706Y-21663956D02*
X15689229Y-21673480D01*
X15689229Y-21673480D02*
X15708277Y-21683004D01*
X15708277Y-21683004D02*
X15746372Y-21683004D01*
X15746372Y-21683004D02*
X15765420Y-21673480D01*
X15765420Y-21673480D02*
X15774944Y-21663956D01*
X15774944Y-21663956D02*
X15784467Y-21644909D01*
X15784467Y-21644909D02*
X15784467Y-21597290D01*
X15784467Y-21597290D02*
X15774944Y-21578242D01*
X15774944Y-21578242D02*
X15765420Y-21568718D01*
X15765420Y-21568718D02*
X15746372Y-21559194D01*
X15746372Y-21559194D02*
X15708277Y-21559194D01*
X15708277Y-21559194D02*
X15689229Y-21568718D01*
X15689229Y-21568718D02*
X15679706Y-21578242D01*
X15679706Y-21578242D02*
X15670182Y-21597290D01*
X15851134Y-21483004D02*
X15974944Y-21483004D01*
X15974944Y-21483004D02*
X15908277Y-21559194D01*
X15908277Y-21559194D02*
X15936848Y-21559194D01*
X15936848Y-21559194D02*
X15955896Y-21568718D01*
X15955896Y-21568718D02*
X15965420Y-21578242D01*
X15965420Y-21578242D02*
X15974944Y-21597290D01*
X15974944Y-21597290D02*
X15974944Y-21644909D01*
X15974944Y-21644909D02*
X15965420Y-21663956D01*
X15965420Y-21663956D02*
X15955896Y-21673480D01*
X15955896Y-21673480D02*
X15936848Y-21683004D01*
X15936848Y-21683004D02*
X15879706Y-21683004D01*
X15879706Y-21683004D02*
X15860658Y-21673480D01*
X15860658Y-21673480D02*
X15851134Y-21663956D01*
X16051134Y-21483004D02*
X16051134Y-21521099D01*
X16127325Y-21483004D02*
X16127325Y-21521099D01*
X16422563Y-21759194D02*
X16413039Y-21749670D01*
X16413039Y-21749670D02*
X16393991Y-21721099D01*
X16393991Y-21721099D02*
X16384468Y-21702051D01*
X16384468Y-21702051D02*
X16374944Y-21673480D01*
X16374944Y-21673480D02*
X16365420Y-21625861D01*
X16365420Y-21625861D02*
X16365420Y-21587766D01*
X16365420Y-21587766D02*
X16374944Y-21540147D01*
X16374944Y-21540147D02*
X16384468Y-21511575D01*
X16384468Y-21511575D02*
X16393991Y-21492528D01*
X16393991Y-21492528D02*
X16413039Y-21463956D01*
X16413039Y-21463956D02*
X16422563Y-21454432D01*
X16584468Y-21549670D02*
X16584468Y-21683004D01*
X16536848Y-21473480D02*
X16489229Y-21616337D01*
X16489229Y-21616337D02*
X16613039Y-21616337D01*
X16841611Y-21683004D02*
X16841611Y-21483004D01*
X16927325Y-21683004D02*
X16927325Y-21578242D01*
X16927325Y-21578242D02*
X16917801Y-21559194D01*
X16917801Y-21559194D02*
X16898753Y-21549670D01*
X16898753Y-21549670D02*
X16870182Y-21549670D01*
X16870182Y-21549670D02*
X16851134Y-21559194D01*
X16851134Y-21559194D02*
X16841611Y-21568718D01*
X17051134Y-21683004D02*
X17032087Y-21673480D01*
X17032087Y-21673480D02*
X17022563Y-21663956D01*
X17022563Y-21663956D02*
X17013039Y-21644909D01*
X17013039Y-21644909D02*
X17013039Y-21587766D01*
X17013039Y-21587766D02*
X17022563Y-21568718D01*
X17022563Y-21568718D02*
X17032087Y-21559194D01*
X17032087Y-21559194D02*
X17051134Y-21549670D01*
X17051134Y-21549670D02*
X17079706Y-21549670D01*
X17079706Y-21549670D02*
X17098753Y-21559194D01*
X17098753Y-21559194D02*
X17108277Y-21568718D01*
X17108277Y-21568718D02*
X17117801Y-21587766D01*
X17117801Y-21587766D02*
X17117801Y-21644909D01*
X17117801Y-21644909D02*
X17108277Y-21663956D01*
X17108277Y-21663956D02*
X17098753Y-21673480D01*
X17098753Y-21673480D02*
X17079706Y-21683004D01*
X17079706Y-21683004D02*
X17051134Y-21683004D01*
X17232087Y-21683004D02*
X17213039Y-21673480D01*
X17213039Y-21673480D02*
X17203515Y-21654432D01*
X17203515Y-21654432D02*
X17203515Y-21483004D01*
X17384468Y-21673480D02*
X17365420Y-21683004D01*
X17365420Y-21683004D02*
X17327325Y-21683004D01*
X17327325Y-21683004D02*
X17308277Y-21673480D01*
X17308277Y-21673480D02*
X17298753Y-21654432D01*
X17298753Y-21654432D02*
X17298753Y-21578242D01*
X17298753Y-21578242D02*
X17308277Y-21559194D01*
X17308277Y-21559194D02*
X17327325Y-21549670D01*
X17327325Y-21549670D02*
X17365420Y-21549670D01*
X17365420Y-21549670D02*
X17384468Y-21559194D01*
X17384468Y-21559194D02*
X17393992Y-21578242D01*
X17393992Y-21578242D02*
X17393992Y-21597290D01*
X17393992Y-21597290D02*
X17298753Y-21616337D01*
X17470182Y-21673480D02*
X17489230Y-21683004D01*
X17489230Y-21683004D02*
X17527325Y-21683004D01*
X17527325Y-21683004D02*
X17546373Y-21673480D01*
X17546373Y-21673480D02*
X17555896Y-21654432D01*
X17555896Y-21654432D02*
X17555896Y-21644909D01*
X17555896Y-21644909D02*
X17546373Y-21625861D01*
X17546373Y-21625861D02*
X17527325Y-21616337D01*
X17527325Y-21616337D02*
X17498753Y-21616337D01*
X17498753Y-21616337D02*
X17479706Y-21606813D01*
X17479706Y-21606813D02*
X17470182Y-21587766D01*
X17470182Y-21587766D02*
X17470182Y-21578242D01*
X17470182Y-21578242D02*
X17479706Y-21559194D01*
X17479706Y-21559194D02*
X17498753Y-21549670D01*
X17498753Y-21549670D02*
X17527325Y-21549670D01*
X17527325Y-21549670D02*
X17546373Y-21559194D01*
X17622563Y-21759194D02*
X17632087Y-21749670D01*
X17632087Y-21749670D02*
X17651134Y-21721099D01*
X17651134Y-21721099D02*
X17660658Y-21702051D01*
X17660658Y-21702051D02*
X17670182Y-21673480D01*
X17670182Y-21673480D02*
X17679706Y-21625861D01*
X17679706Y-21625861D02*
X17679706Y-21587766D01*
X17679706Y-21587766D02*
X17670182Y-21540147D01*
X17670182Y-21540147D02*
X17660658Y-21511575D01*
X17660658Y-21511575D02*
X17651134Y-21492528D01*
X17651134Y-21492528D02*
X17632087Y-21463956D01*
X17632087Y-21463956D02*
X17622563Y-21454432D01*
M02*
