%TF.GenerationSoftware,KiCad,Pcbnew,7.0.11+dfsg-1build4*%
%TF.CreationDate,2024-07-15T15:28:05+02:00*%
%TF.ProjectId,antmicro-poe-to-usbc-pd-adapter,616e746d-6963-4726-9f2d-706f652d746f,rev?*%
%TF.SameCoordinates,Original*%
%TF.FileFunction,Legend,Top*%
%TF.FilePolarity,Positive*%
%FSLAX46Y46*%
G04 Gerber Fmt 4.6, Leading zero omitted, Abs format (unit mm)*
G04 Created by KiCad (PCBNEW 7.0.11+dfsg-1build4) date 2024-07-15 15:28:05 commit  463866a *
%MOMM*%
%LPD*%
G01*
G04 APERTURE LIST*
%ADD10C,0.150000*%
%ADD11C,0.120000*%
%ADD12C,0.125000*%
%ADD13C,0.139031*%
%ADD14C,0.145711*%
G04 APERTURE END LIST*
D10*
X151505350Y-43206533D02*
X151272017Y-42873200D01*
X151105350Y-43206533D02*
X151105350Y-42506533D01*
X151105350Y-42506533D02*
X151372017Y-42506533D01*
X151372017Y-42506533D02*
X151438684Y-42539866D01*
X151438684Y-42539866D02*
X151472017Y-42573200D01*
X151472017Y-42573200D02*
X151505350Y-42639866D01*
X151505350Y-42639866D02*
X151505350Y-42739866D01*
X151505350Y-42739866D02*
X151472017Y-42806533D01*
X151472017Y-42806533D02*
X151438684Y-42839866D01*
X151438684Y-42839866D02*
X151372017Y-42873200D01*
X151372017Y-42873200D02*
X151105350Y-42873200D01*
X151805350Y-42839866D02*
X152038684Y-42839866D01*
X152138684Y-43206533D02*
X151805350Y-43206533D01*
X151805350Y-43206533D02*
X151805350Y-42506533D01*
X151805350Y-42506533D02*
X152138684Y-42506533D01*
X152672017Y-42839866D02*
X152438683Y-42839866D01*
X152438683Y-43206533D02*
X152438683Y-42506533D01*
X152438683Y-42506533D02*
X152772017Y-42506533D01*
X153138683Y-42506533D02*
X153138683Y-42673200D01*
X152972017Y-42606533D02*
X153138683Y-42673200D01*
X153138683Y-42673200D02*
X153305350Y-42606533D01*
X153038683Y-42806533D02*
X153138683Y-42673200D01*
X153138683Y-42673200D02*
X153238683Y-42806533D01*
X153672016Y-42506533D02*
X153672016Y-42673200D01*
X153505350Y-42606533D02*
X153672016Y-42673200D01*
X153672016Y-42673200D02*
X153838683Y-42606533D01*
X153572016Y-42806533D02*
X153672016Y-42673200D01*
X153672016Y-42673200D02*
X153772016Y-42806533D01*
X60675350Y-91066533D02*
X60442017Y-90733200D01*
X60275350Y-91066533D02*
X60275350Y-90366533D01*
X60275350Y-90366533D02*
X60542017Y-90366533D01*
X60542017Y-90366533D02*
X60608684Y-90399866D01*
X60608684Y-90399866D02*
X60642017Y-90433200D01*
X60642017Y-90433200D02*
X60675350Y-90499866D01*
X60675350Y-90499866D02*
X60675350Y-90599866D01*
X60675350Y-90599866D02*
X60642017Y-90666533D01*
X60642017Y-90666533D02*
X60608684Y-90699866D01*
X60608684Y-90699866D02*
X60542017Y-90733200D01*
X60542017Y-90733200D02*
X60275350Y-90733200D01*
X60975350Y-90699866D02*
X61208684Y-90699866D01*
X61308684Y-91066533D02*
X60975350Y-91066533D01*
X60975350Y-91066533D02*
X60975350Y-90366533D01*
X60975350Y-90366533D02*
X61308684Y-90366533D01*
X61842017Y-90699866D02*
X61608683Y-90699866D01*
X61608683Y-91066533D02*
X61608683Y-90366533D01*
X61608683Y-90366533D02*
X61942017Y-90366533D01*
X62308683Y-90366533D02*
X62308683Y-90533200D01*
X62142017Y-90466533D02*
X62308683Y-90533200D01*
X62308683Y-90533200D02*
X62475350Y-90466533D01*
X62208683Y-90666533D02*
X62308683Y-90533200D01*
X62308683Y-90533200D02*
X62408683Y-90666533D01*
X62842016Y-90366533D02*
X62842016Y-90533200D01*
X62675350Y-90466533D02*
X62842016Y-90533200D01*
X62842016Y-90533200D02*
X63008683Y-90466533D01*
X62742016Y-90666533D02*
X62842016Y-90533200D01*
X62842016Y-90533200D02*
X62942016Y-90666533D01*
X151505350Y-91056533D02*
X151272017Y-90723200D01*
X151105350Y-91056533D02*
X151105350Y-90356533D01*
X151105350Y-90356533D02*
X151372017Y-90356533D01*
X151372017Y-90356533D02*
X151438684Y-90389866D01*
X151438684Y-90389866D02*
X151472017Y-90423200D01*
X151472017Y-90423200D02*
X151505350Y-90489866D01*
X151505350Y-90489866D02*
X151505350Y-90589866D01*
X151505350Y-90589866D02*
X151472017Y-90656533D01*
X151472017Y-90656533D02*
X151438684Y-90689866D01*
X151438684Y-90689866D02*
X151372017Y-90723200D01*
X151372017Y-90723200D02*
X151105350Y-90723200D01*
X151805350Y-90689866D02*
X152038684Y-90689866D01*
X152138684Y-91056533D02*
X151805350Y-91056533D01*
X151805350Y-91056533D02*
X151805350Y-90356533D01*
X151805350Y-90356533D02*
X152138684Y-90356533D01*
X152672017Y-90689866D02*
X152438683Y-90689866D01*
X152438683Y-91056533D02*
X152438683Y-90356533D01*
X152438683Y-90356533D02*
X152772017Y-90356533D01*
X153138683Y-90356533D02*
X153138683Y-90523200D01*
X152972017Y-90456533D02*
X153138683Y-90523200D01*
X153138683Y-90523200D02*
X153305350Y-90456533D01*
X153038683Y-90656533D02*
X153138683Y-90523200D01*
X153138683Y-90523200D02*
X153238683Y-90656533D01*
X153672016Y-90356533D02*
X153672016Y-90523200D01*
X153505350Y-90456533D02*
X153672016Y-90523200D01*
X153672016Y-90523200D02*
X153838683Y-90456533D01*
X153572016Y-90656533D02*
X153672016Y-90523200D01*
X153672016Y-90523200D02*
X153772016Y-90656533D01*
X60950350Y-43216533D02*
X60717017Y-42883200D01*
X60550350Y-43216533D02*
X60550350Y-42516533D01*
X60550350Y-42516533D02*
X60817017Y-42516533D01*
X60817017Y-42516533D02*
X60883684Y-42549866D01*
X60883684Y-42549866D02*
X60917017Y-42583200D01*
X60917017Y-42583200D02*
X60950350Y-42649866D01*
X60950350Y-42649866D02*
X60950350Y-42749866D01*
X60950350Y-42749866D02*
X60917017Y-42816533D01*
X60917017Y-42816533D02*
X60883684Y-42849866D01*
X60883684Y-42849866D02*
X60817017Y-42883200D01*
X60817017Y-42883200D02*
X60550350Y-42883200D01*
X61250350Y-42849866D02*
X61483684Y-42849866D01*
X61583684Y-43216533D02*
X61250350Y-43216533D01*
X61250350Y-43216533D02*
X61250350Y-42516533D01*
X61250350Y-42516533D02*
X61583684Y-42516533D01*
X62117017Y-42849866D02*
X61883683Y-42849866D01*
X61883683Y-43216533D02*
X61883683Y-42516533D01*
X61883683Y-42516533D02*
X62217017Y-42516533D01*
X62583683Y-42516533D02*
X62583683Y-42683200D01*
X62417017Y-42616533D02*
X62583683Y-42683200D01*
X62583683Y-42683200D02*
X62750350Y-42616533D01*
X62483683Y-42816533D02*
X62583683Y-42683200D01*
X62583683Y-42683200D02*
X62683683Y-42816533D01*
X63117016Y-42516533D02*
X63117016Y-42683200D01*
X62950350Y-42616533D02*
X63117016Y-42683200D01*
X63117016Y-42683200D02*
X63283683Y-42616533D01*
X63017016Y-42816533D02*
X63117016Y-42683200D01*
X63117016Y-42683200D02*
X63217016Y-42816533D01*
X84159866Y-63854649D02*
X84126533Y-63821316D01*
X84126533Y-63821316D02*
X84093200Y-63754649D01*
X84093200Y-63754649D02*
X84159866Y-63621316D01*
X84159866Y-63621316D02*
X84126533Y-63554649D01*
X84126533Y-63554649D02*
X84093200Y-63521316D01*
X79700133Y-51715350D02*
X79733466Y-51748684D01*
X79733466Y-51748684D02*
X79766800Y-51815350D01*
X79766800Y-51815350D02*
X79700133Y-51948684D01*
X79700133Y-51948684D02*
X79733466Y-52015350D01*
X79733466Y-52015350D02*
X79766800Y-52048684D01*
%TO.C,C1*%
X91100000Y-60100000D02*
X91100000Y-59500000D01*
X92500000Y-60100000D02*
X92500000Y-59500000D01*
%TO.C,J1*%
X79055000Y-49638000D02*
X72730000Y-49638000D01*
X69993000Y-49638000D02*
X57439000Y-49638000D01*
X57439000Y-49638000D02*
X57439000Y-65792000D01*
X79055000Y-65792000D02*
X79055000Y-49638000D01*
X72730000Y-65792000D02*
X79055000Y-65792000D01*
X57439000Y-65792000D02*
X69993000Y-65792000D01*
%TO.C,Y1*%
X126591000Y-62580000D02*
X126591000Y-62080000D01*
X127841000Y-61030000D02*
X128641000Y-61030000D01*
X127841000Y-63530000D02*
X128641000Y-63530000D01*
X129791000Y-62580000D02*
X129791000Y-62080000D01*
X126491000Y-63780000D02*
G75*
G03*
X126391000Y-63780000I-50000J0D01*
G01*
X126391000Y-63780000D02*
G75*
G03*
X126491000Y-63780000I50000J0D01*
G01*
%TO.C,C22*%
X124680000Y-60590000D02*
X124680000Y-60890000D01*
X123880000Y-60590000D02*
X123880000Y-60890000D01*
%TO.C,FB4*%
X121280000Y-68620000D02*
X121280000Y-68920000D01*
X120480000Y-68620000D02*
X120480000Y-68920000D01*
%TO.C,R27*%
X89410000Y-49840000D02*
X92210000Y-49840000D01*
X89410000Y-52560000D02*
X92210000Y-52560000D01*
%TO.C,R8*%
X122490000Y-60850000D02*
X122490000Y-60550000D01*
X123290000Y-60850000D02*
X123290000Y-60550000D01*
%TO.C,R2*%
X83640000Y-58240000D02*
X83340000Y-58240000D01*
X83640000Y-57440000D02*
X83340000Y-57440000D01*
%TO.C,C18*%
X116590000Y-61545000D02*
X116590000Y-62145000D01*
X113810000Y-61545000D02*
X113810000Y-62145000D01*
D11*
%TO.C,D4*%
X122790000Y-87340000D02*
X128190000Y-87340000D01*
X122790000Y-87540000D02*
X122790000Y-87340000D01*
X122790000Y-91363000D02*
X122790000Y-91163000D01*
X128190000Y-87340000D02*
X128190000Y-87540000D01*
X128190000Y-91163000D02*
X128190000Y-91363000D01*
X128190000Y-91363000D02*
X122790000Y-91363000D01*
D10*
%TO.C,D5*%
X113010000Y-50670000D02*
X113010000Y-50395000D01*
X113010000Y-52132500D02*
X113010000Y-51857500D01*
X113360000Y-50395000D02*
X113010000Y-50395000D01*
X113360000Y-52132500D02*
X113010000Y-52132500D01*
X113535000Y-50770000D02*
X113535000Y-51770000D01*
X115560000Y-50395000D02*
X115910000Y-50395000D01*
X115560000Y-52157500D02*
X115910000Y-52157500D01*
X115910000Y-50395000D02*
X115910000Y-50670000D01*
X115910000Y-51882500D02*
X115910000Y-52157500D01*
%TO.C,Q1*%
X86675000Y-64189000D02*
X86877000Y-63989000D01*
X86675000Y-64489000D02*
X86675000Y-64189000D01*
X86877000Y-63989000D02*
X87325000Y-63989000D01*
X87325000Y-63989000D02*
X87325000Y-63790000D01*
D12*
X86699300Y-65505200D02*
G75*
G03*
X86574300Y-65505200I-62500J0D01*
G01*
X86574300Y-65505200D02*
G75*
G03*
X86699300Y-65505200I62500J0D01*
G01*
D10*
%TO.C,C9*%
X121309000Y-89850000D02*
X121309000Y-88250000D01*
X119509000Y-89850000D02*
X119509000Y-88250000D01*
%TO.C,U4*%
X116740000Y-90230000D02*
X58320000Y-90230000D01*
X58320000Y-90230000D02*
X58320000Y-67370000D01*
X58320000Y-67370000D02*
X116740000Y-67370000D01*
X116740000Y-67370000D02*
X116740000Y-90230000D01*
D12*
X62192500Y-66070000D02*
G75*
G03*
X62067500Y-66070000I-62500J0D01*
G01*
X62067500Y-66070000D02*
G75*
G03*
X62192500Y-66070000I62500J0D01*
G01*
D10*
%TO.C,L2*%
X113840000Y-52740000D02*
X108140000Y-52740000D01*
X108140000Y-52740000D02*
X108140000Y-58240000D01*
X108140000Y-58240000D02*
X113840000Y-58240000D01*
X113840000Y-58240000D02*
X113840000Y-52740000D01*
%TO.C,U6*%
X97190000Y-49650000D02*
X97190000Y-50150000D01*
X97190000Y-56649000D02*
X97190000Y-56149000D01*
X97790000Y-49650000D02*
X97190000Y-49650000D01*
X97790000Y-56649000D02*
X97190000Y-56649000D01*
X103588000Y-49650000D02*
X104189000Y-49650000D01*
X103588000Y-56649000D02*
X104189000Y-56649000D01*
X104189000Y-49650000D02*
X104189000Y-50250000D01*
X104189000Y-56649000D02*
X104189000Y-56048000D01*
D13*
X96459515Y-50750000D02*
G75*
G03*
X96320485Y-50750000I-69515J0D01*
G01*
X96320485Y-50750000D02*
G75*
G03*
X96459515Y-50750000I69515J0D01*
G01*
D10*
%TO.C,R7*%
X121110000Y-60860000D02*
X121110000Y-60560000D01*
X121910000Y-60860000D02*
X121910000Y-60560000D01*
%TO.C,C19*%
X120290000Y-61575000D02*
X120290000Y-62175000D01*
X117510000Y-61575000D02*
X117510000Y-62175000D01*
%TO.C,U2*%
X128539000Y-85090000D02*
X128539000Y-81190000D01*
X123439000Y-85090000D02*
X123439000Y-81190000D01*
D12*
X127957500Y-79550000D02*
G75*
G03*
X127832500Y-79550000I-62500J0D01*
G01*
X127832500Y-79550000D02*
G75*
G03*
X127957500Y-79550000I62500J0D01*
G01*
D10*
%TO.C,C23*%
X122290000Y-55680000D02*
X122290000Y-54080000D01*
X120490000Y-55680000D02*
X120490000Y-54080000D01*
%TO.C,R41*%
X98090000Y-60500000D02*
X95290000Y-60500000D01*
X98090000Y-57780000D02*
X95290000Y-57780000D01*
%TO.C,C24*%
X120100000Y-50171000D02*
X118500000Y-50171000D01*
X120100000Y-51971000D02*
X118500000Y-51971000D01*
%TO.C,D3*%
X92600000Y-54950000D02*
X91400000Y-54950000D01*
%TO.C,C6*%
X130440000Y-84200000D02*
X130140000Y-84200000D01*
X130440000Y-83400000D02*
X130140000Y-83400000D01*
%TO.C,C20*%
X111930000Y-58620000D02*
X112230000Y-58620000D01*
X111930000Y-59420000D02*
X112230000Y-59420000D01*
%TO.C,FB5*%
X132130000Y-69780000D02*
X132130000Y-70080000D01*
X131330000Y-69780000D02*
X131330000Y-70080000D01*
%TO.C,U3*%
X95308000Y-62002666D02*
X95308000Y-62551666D01*
X95308000Y-65001666D02*
X95308000Y-64452666D01*
X95308000Y-65001666D02*
X95857000Y-65001666D01*
X95858000Y-62001666D02*
X95308000Y-62002666D01*
X97758000Y-65001666D02*
X98307000Y-65001666D01*
X98307000Y-62002666D02*
X97758000Y-62002666D01*
X98307000Y-64452666D02*
X98307000Y-65001666D01*
X98308000Y-62552666D02*
X98307000Y-62002666D01*
D12*
X95120500Y-62431956D02*
G75*
G03*
X94995500Y-62431956I-62500J0D01*
G01*
X94995500Y-62431956D02*
G75*
G03*
X95120500Y-62431956I62500J0D01*
G01*
D10*
%TO.C,FB1*%
X146740000Y-69960000D02*
X146440000Y-69960000D01*
X146740000Y-69160000D02*
X146440000Y-69160000D01*
%TO.C,C4*%
X125910000Y-76920000D02*
X125910000Y-77520000D01*
X123130000Y-76920000D02*
X123130000Y-77520000D01*
%TO.C,U1*%
X90359000Y-60280000D02*
X89649000Y-60280000D01*
X90359000Y-60280000D02*
X90359000Y-59570000D01*
X85360000Y-59405000D02*
X85360000Y-60280000D01*
X85360000Y-55281000D02*
X85360000Y-55991000D01*
X85360000Y-55281000D02*
X86070000Y-55281000D01*
X90359000Y-55281000D02*
X90359000Y-55991000D01*
X90359000Y-55281000D02*
X89649000Y-55281000D01*
D14*
X86057855Y-60555000D02*
G75*
G03*
X85912145Y-60555000I-72855J0D01*
G01*
X85912145Y-60555000D02*
G75*
G03*
X86057855Y-60555000I72855J0D01*
G01*
D10*
%TO.C,C5*%
X122270000Y-76940000D02*
X122270000Y-77540000D01*
X119490000Y-76940000D02*
X119490000Y-77540000D01*
%TO.C,J3*%
X148840000Y-80130000D02*
X150090000Y-80130000D01*
X152810000Y-80130000D02*
X154089000Y-80130000D01*
X154089000Y-80130000D02*
X154089000Y-70552000D01*
X148840000Y-70552000D02*
X150090000Y-70552000D01*
X154089000Y-70552000D02*
X152810000Y-70552000D01*
D14*
X146037145Y-79140000D02*
G75*
G03*
X145891435Y-79140000I-72855J0D01*
G01*
X145891435Y-79140000D02*
G75*
G03*
X146037145Y-79140000I72855J0D01*
G01*
D10*
%TO.C,C17*%
X112930000Y-61590000D02*
X112930000Y-62190000D01*
X110150000Y-61590000D02*
X110150000Y-62190000D01*
%TO.C,R3*%
X83310000Y-56000000D02*
X83610000Y-56000000D01*
X83310000Y-56800000D02*
X83610000Y-56800000D01*
%TO.C,L1*%
X135170000Y-84810000D02*
X129470000Y-84810000D01*
X129470000Y-84810000D02*
X129470000Y-90310000D01*
X129470000Y-90310000D02*
X135170000Y-90310000D01*
X135170000Y-90310000D02*
X135170000Y-84810000D01*
%TO.C,C8*%
X130440000Y-82750000D02*
X130140000Y-82750000D01*
X130440000Y-81950000D02*
X130140000Y-81950000D01*
%TO.C,J2*%
X132270000Y-66591000D02*
X138595000Y-66591000D01*
X141332000Y-66591000D02*
X153886000Y-66591000D01*
X153886000Y-66591000D02*
X153886000Y-50437000D01*
X132270000Y-50437000D02*
X132270000Y-66591000D01*
X138595000Y-50437000D02*
X132270000Y-50437000D01*
X153886000Y-50437000D02*
X141332000Y-50437000D01*
%TO.C,D2*%
X80430000Y-65510000D02*
X83980000Y-65510000D01*
X83980000Y-65510000D02*
X83980000Y-65310000D01*
X79930000Y-64660000D02*
X79930000Y-62760000D01*
X83980000Y-64660000D02*
X83980000Y-62760000D01*
X79680000Y-64612000D02*
X79680000Y-64310000D01*
X79478000Y-62962000D02*
X79780000Y-62962000D01*
X79629000Y-62810000D02*
X79629000Y-63112000D01*
X79930000Y-62110000D02*
X79930000Y-61910000D01*
X83980000Y-62110000D02*
X83980000Y-61910000D01*
X79930000Y-61910000D02*
X83980000Y-61910000D01*
%TO.C,U5*%
X129944000Y-65517000D02*
X130420000Y-65517000D01*
X122199000Y-65517000D02*
X122675000Y-65517000D01*
X130420000Y-65993000D02*
X130420000Y-65517000D01*
X122199000Y-65993000D02*
X122199000Y-65517000D01*
X130420000Y-73262000D02*
X130420000Y-73738000D01*
X122199000Y-73262000D02*
X122199000Y-73738000D01*
X130420000Y-73738000D02*
X129944000Y-73738000D01*
X122199000Y-73738000D02*
X122675000Y-73738000D01*
D12*
X129971500Y-65278000D02*
G75*
G03*
X129846500Y-65278000I-62500J0D01*
G01*
X129846500Y-65278000D02*
G75*
G03*
X129971500Y-65278000I62500J0D01*
G01*
D10*
%TO.C,C10*%
X118721000Y-81230000D02*
X118721000Y-82830000D01*
X120521000Y-81230000D02*
X120521000Y-82830000D01*
%TO.C,U7*%
X114506000Y-54010000D02*
X114506000Y-57910000D01*
X119606000Y-54010000D02*
X119606000Y-57910000D01*
D12*
X115212500Y-59550000D02*
G75*
G03*
X115087500Y-59550000I-62500J0D01*
G01*
X115087500Y-59550000D02*
G75*
G03*
X115212500Y-59550000I62500J0D01*
G01*
D10*
%TO.C,D1*%
X83430000Y-50060000D02*
X79880000Y-50060000D01*
X79880000Y-50060000D02*
X79880000Y-50260000D01*
X83930000Y-50910000D02*
X83930000Y-52810000D01*
X79880000Y-50910000D02*
X79880000Y-52810000D01*
X84180000Y-50958000D02*
X84180000Y-51260000D01*
X84382000Y-52608000D02*
X84080000Y-52608000D01*
X84231000Y-52760000D02*
X84231000Y-52458000D01*
X83930000Y-53460000D02*
X83930000Y-53660000D01*
X79880000Y-53460000D02*
X79880000Y-53660000D01*
X83930000Y-53660000D02*
X79880000Y-53660000D01*
%TO.C,C3*%
X129470000Y-76900000D02*
X129470000Y-77500000D01*
X126690000Y-76900000D02*
X126690000Y-77500000D01*
%TD*%
M02*
