%TF.GenerationSoftware,KiCad,Pcbnew,7.0.11+dfsg-1build4*%
%TF.CreationDate,2024-07-19T16:51:48+02:00*%
%TF.ProjectId,antmicro-poe-to-usbc-pd-adapter,616e746d-6963-4726-9f2d-706f652d746f,rev?*%
%TF.SameCoordinates,Original*%
%TF.FileFunction,Drillmap*%
%TF.FilePolarity,Positive*%
%FSLAX45Y45*%
G04 Gerber Fmt 4.5, Leading zero omitted, Abs format (unit mm)*
G04 Created by KiCad (PCBNEW 7.0.11+dfsg-1build4) date 2024-07-19 16:51:48 commit  9a9195e *
%MOMM*%
%LPD*%
G01*
G04 APERTURE LIST*
%ADD10C,0.120000*%
%ADD11C,0.200000*%
%ADD12C,0.100000*%
%ADD13C,0.101600*%
%ADD14C,0.102000*%
%ADD15C,0.157000*%
%ADD16C,0.160000*%
%ADD17C,0.160020*%
%ADD18C,0.270000*%
G04 APERTURE END LIST*
D10*
X12850000Y-12400000D02*
X24090000Y-12400000D01*
X24090000Y-18000000D01*
X12850000Y-18000000D01*
X12850000Y-12400000D01*
D11*
D12*
X20519700Y-14754900D02*
X20529700Y-14764900D01*
X20529700Y-14754900D02*
X20519700Y-14764900D01*
X20537400Y-14999800D02*
X20547400Y-15009800D01*
X20547400Y-14999800D02*
X20537400Y-15009800D01*
X20537400Y-15094800D02*
X20547400Y-15104800D01*
X20547400Y-15094800D02*
X20537400Y-15104800D01*
X20625100Y-14999800D02*
X20635100Y-15009800D01*
X20635100Y-14999800D02*
X20625100Y-15009800D01*
X20625100Y-15094800D02*
X20635100Y-15104800D01*
X20635100Y-15094800D02*
X20625100Y-15104800D01*
X20637400Y-14634900D02*
X20647400Y-14644900D01*
X20647400Y-14634900D02*
X20637400Y-14644900D01*
X20637400Y-14754900D02*
X20647400Y-14764900D01*
X20647400Y-14754900D02*
X20637400Y-14764900D01*
X20638000Y-14874700D02*
X20648000Y-14884700D01*
X20648000Y-14874700D02*
X20638000Y-14884700D01*
X20712400Y-14999800D02*
X20722400Y-15009800D01*
X20722400Y-14999800D02*
X20712400Y-15009800D01*
X20712500Y-15094800D02*
X20722500Y-15104800D01*
X20722500Y-15094800D02*
X20712500Y-15104800D01*
X20770000Y-14634900D02*
X20780000Y-14644900D01*
X20780000Y-14634900D02*
X20770000Y-14644900D01*
X20770100Y-14754700D02*
X20780100Y-14764700D01*
X20780100Y-14754700D02*
X20770100Y-14764700D01*
X20770100Y-14874700D02*
X20780100Y-14884700D01*
X20780100Y-14874700D02*
X20770100Y-14884700D01*
X20829900Y-14999800D02*
X20839900Y-15009800D01*
X20839900Y-14999800D02*
X20829900Y-15009800D01*
X20829900Y-15094800D02*
X20839900Y-15104800D01*
X20839900Y-15094800D02*
X20829900Y-15104800D01*
X20902300Y-14634900D02*
X20912300Y-14644900D01*
X20912300Y-14634900D02*
X20902300Y-14644900D01*
X20902300Y-14754900D02*
X20912300Y-14764900D01*
X20912300Y-14754900D02*
X20902300Y-14764900D01*
X20902300Y-14874900D02*
X20912300Y-14884900D01*
X20912300Y-14874900D02*
X20902300Y-14884900D01*
X20917600Y-14999800D02*
X20927600Y-15009800D01*
X20927600Y-14999800D02*
X20917600Y-15009800D01*
X20917600Y-15094800D02*
X20927600Y-15104800D01*
X20927600Y-15094800D02*
X20917600Y-15104800D01*
X21005000Y-14999800D02*
X21015000Y-15009800D01*
X21015000Y-14999800D02*
X21005000Y-15009800D01*
X21005100Y-15094800D02*
X21015100Y-15104800D01*
X21015100Y-15094800D02*
X21005100Y-15104800D01*
X21019700Y-14754900D02*
X21029700Y-14764900D01*
X21029700Y-14754900D02*
X21019700Y-14764900D01*
X19226500Y-14886000D02*
G75*
G03*
X19206500Y-14886000I-10000J0D01*
G01*
X19206500Y-14886000D02*
G75*
G03*
X19226500Y-14886000I10000J0D01*
G01*
X19226500Y-15013000D02*
G75*
G03*
X19206500Y-15013000I-10000J0D01*
G01*
X19206500Y-15013000D02*
G75*
G03*
X19226500Y-15013000I10000J0D01*
G01*
X19277000Y-16824000D02*
G75*
G03*
X19257000Y-16824000I-10000J0D01*
G01*
X19257000Y-16824000D02*
G75*
G03*
X19277000Y-16824000I10000J0D01*
G01*
X19277000Y-16954000D02*
G75*
G03*
X19257000Y-16954000I-10000J0D01*
G01*
X19257000Y-16954000D02*
G75*
G03*
X19277000Y-16954000I10000J0D01*
G01*
X19356500Y-14886000D02*
G75*
G03*
X19336500Y-14886000I-10000J0D01*
G01*
X19336500Y-14886000D02*
G75*
G03*
X19356500Y-14886000I10000J0D01*
G01*
X19356500Y-15013000D02*
G75*
G03*
X19336500Y-15013000I-10000J0D01*
G01*
X19336500Y-15013000D02*
G75*
G03*
X19356500Y-15013000I10000J0D01*
G01*
X19404000Y-16824000D02*
G75*
G03*
X19384000Y-16824000I-10000J0D01*
G01*
X19384000Y-16824000D02*
G75*
G03*
X19404000Y-16824000I10000J0D01*
G01*
X19404000Y-16954000D02*
G75*
G03*
X19384000Y-16954000I-10000J0D01*
G01*
X19384000Y-16954000D02*
G75*
G03*
X19404000Y-16954000I10000J0D01*
G01*
X19040000Y-17545000D02*
X19040000Y-17575000D01*
X19025000Y-17560000D02*
X19055000Y-17560000D01*
X19090833Y-14435000D02*
X19090833Y-14465000D01*
X19075833Y-14450000D02*
X19105833Y-14450000D01*
X19590000Y-17145000D02*
X19590000Y-17175000D01*
X19575000Y-17160000D02*
X19605000Y-17160000D01*
X19820833Y-14405000D02*
X19820833Y-14435000D01*
X19805833Y-14420000D02*
X19835833Y-14420000D01*
X19830000Y-16525000D02*
X19830000Y-16555000D01*
X19815000Y-16540000D02*
X19845000Y-16540000D01*
X20630000Y-17075000D02*
X20630000Y-17105000D01*
X20615000Y-17090000D02*
X20645000Y-17090000D01*
X23343113Y-15197113D02*
X23343113Y-15154687D01*
X23300687Y-15154687D01*
X23300687Y-15197113D01*
X23343113Y-15197113D01*
X23266900Y-15205900D02*
X23376900Y-15205900D01*
X23376900Y-15205900D02*
G75*
G03*
X23376900Y-15145900I0J30000D01*
G01*
X23376900Y-15145900D02*
X23266900Y-15145900D01*
X23266900Y-15145900D02*
G75*
G03*
X23266900Y-15205900I0J-30000D01*
G01*
X23343113Y-16061213D02*
X23343113Y-16018787D01*
X23300687Y-16018787D01*
X23300687Y-16061213D01*
X23343113Y-16061213D01*
X23266900Y-16070000D02*
X23376900Y-16070000D01*
X23376900Y-16070000D02*
G75*
G03*
X23376900Y-16010000I0J30000D01*
G01*
X23376900Y-16010000D02*
X23266900Y-16010000D01*
X23266900Y-16010000D02*
G75*
G03*
X23266900Y-16070000I0J-30000D01*
G01*
X23761213Y-15197113D02*
X23761213Y-15154687D01*
X23718787Y-15154687D01*
X23718787Y-15197113D01*
X23761213Y-15197113D01*
X23700000Y-15205900D02*
X23780000Y-15205900D01*
X23780000Y-15205900D02*
G75*
G03*
X23780000Y-15145900I0J30000D01*
G01*
X23780000Y-15145900D02*
X23700000Y-15145900D01*
X23700000Y-15145900D02*
G75*
G03*
X23700000Y-15205900I0J-30000D01*
G01*
X23761213Y-16061213D02*
X23761213Y-16018787D01*
X23718787Y-16018787D01*
X23718787Y-16061213D01*
X23761213Y-16061213D01*
X23700000Y-16070000D02*
X23780000Y-16070000D01*
X23780000Y-16070000D02*
G75*
G03*
X23780000Y-16010000I0J30000D01*
G01*
X23780000Y-16010000D02*
X23700000Y-16010000D01*
X23700000Y-16010000D02*
G75*
G03*
X23700000Y-16070000I0J-30000D01*
G01*
X14209500Y-13688650D02*
X14253950Y-13644200D01*
X14209500Y-13599750D01*
X14165050Y-13644200D01*
X14209500Y-13688650D01*
X14209500Y-14323750D02*
X14253950Y-14279300D01*
X14209500Y-14234850D01*
X14165050Y-14279300D01*
X14209500Y-14323750D01*
X14335600Y-13434750D02*
X14380050Y-13390300D01*
X14335600Y-13345850D01*
X14291150Y-13390300D01*
X14335600Y-13434750D01*
X14336400Y-14577650D02*
X14380850Y-14533200D01*
X14336400Y-14488750D01*
X14291950Y-14533200D01*
X14336400Y-14577650D01*
X14589500Y-13561650D02*
X14633950Y-13517200D01*
X14589500Y-13472750D01*
X14545050Y-13517200D01*
X14589500Y-13561650D01*
X14589500Y-13815650D02*
X14633950Y-13771200D01*
X14589500Y-13726750D01*
X14545050Y-13771200D01*
X14589500Y-13815650D01*
X14589500Y-14069650D02*
X14633950Y-14025200D01*
X14589500Y-13980750D01*
X14545050Y-14025200D01*
X14589500Y-14069650D01*
X14589500Y-14323750D02*
X14633950Y-14279300D01*
X14589500Y-14234850D01*
X14545050Y-14279300D01*
X14589500Y-14323750D01*
X14589500Y-14577650D02*
X14633950Y-14533200D01*
X14589500Y-14488750D01*
X14545050Y-14533200D01*
X14589500Y-14577650D01*
X14843400Y-13434750D02*
X14887850Y-13390300D01*
X14843400Y-13345850D01*
X14798950Y-13390300D01*
X14843400Y-13434750D01*
X14843400Y-13688650D02*
X14887850Y-13644200D01*
X14843400Y-13599750D01*
X14798950Y-13644200D01*
X14843400Y-13688650D01*
X14843400Y-13942550D02*
X14887850Y-13898100D01*
X14843400Y-13853650D01*
X14798950Y-13898100D01*
X14843400Y-13942550D01*
X14843400Y-14196550D02*
X14887850Y-14152100D01*
X14843400Y-14107650D01*
X14798950Y-14152100D01*
X14843400Y-14196550D01*
X14843400Y-14450650D02*
X14887850Y-14406200D01*
X14843400Y-14361750D01*
X14798950Y-14406200D01*
X14843400Y-14450650D01*
X21937900Y-13579500D02*
X22027900Y-13669500D01*
X22027900Y-13579500D02*
X21937900Y-13669500D01*
X22027900Y-13624500D02*
G75*
G03*
X21937900Y-13624500I-45000J0D01*
G01*
X21937900Y-13624500D02*
G75*
G03*
X22027900Y-13624500I45000J0D01*
G01*
X21937900Y-13833500D02*
X22027900Y-13923500D01*
X22027900Y-13833500D02*
X21937900Y-13923500D01*
X22027900Y-13878500D02*
G75*
G03*
X21937900Y-13878500I-45000J0D01*
G01*
X21937900Y-13878500D02*
G75*
G03*
X22027900Y-13878500I45000J0D01*
G01*
X21937900Y-14087500D02*
X22027900Y-14177500D01*
X22027900Y-14087500D02*
X21937900Y-14177500D01*
X22027900Y-14132500D02*
G75*
G03*
X21937900Y-14132500I-45000J0D01*
G01*
X21937900Y-14132500D02*
G75*
G03*
X22027900Y-14132500I45000J0D01*
G01*
X21937900Y-14341500D02*
X22027900Y-14431500D01*
X22027900Y-14341500D02*
X21937900Y-14431500D01*
X22027900Y-14386500D02*
G75*
G03*
X21937900Y-14386500I-45000J0D01*
G01*
X21937900Y-14386500D02*
G75*
G03*
X22027900Y-14386500I45000J0D01*
G01*
X21937900Y-14595500D02*
X22027900Y-14685500D01*
X22027900Y-14595500D02*
X21937900Y-14685500D01*
X22027900Y-14640500D02*
G75*
G03*
X21937900Y-14640500I-45000J0D01*
G01*
X21937900Y-14640500D02*
G75*
G03*
X22027900Y-14640500I45000J0D01*
G01*
X22192000Y-13452500D02*
X22282000Y-13542500D01*
X22282000Y-13452500D02*
X22192000Y-13542500D01*
X22282000Y-13497500D02*
G75*
G03*
X22192000Y-13497500I-45000J0D01*
G01*
X22192000Y-13497500D02*
G75*
G03*
X22282000Y-13497500I45000J0D01*
G01*
X22192000Y-13706400D02*
X22282000Y-13796400D01*
X22282000Y-13706400D02*
X22192000Y-13796400D01*
X22282000Y-13751400D02*
G75*
G03*
X22192000Y-13751400I-45000J0D01*
G01*
X22192000Y-13751400D02*
G75*
G03*
X22282000Y-13751400I45000J0D01*
G01*
X22192000Y-13960400D02*
X22282000Y-14050400D01*
X22282000Y-13960400D02*
X22192000Y-14050400D01*
X22282000Y-14005400D02*
G75*
G03*
X22192000Y-14005400I-45000J0D01*
G01*
X22192000Y-14005400D02*
G75*
G03*
X22282000Y-14005400I45000J0D01*
G01*
X22192000Y-14214500D02*
X22282000Y-14304500D01*
X22282000Y-14214500D02*
X22192000Y-14304500D01*
X22282000Y-14259500D02*
G75*
G03*
X22192000Y-14259500I-45000J0D01*
G01*
X22192000Y-14259500D02*
G75*
G03*
X22282000Y-14259500I45000J0D01*
G01*
X22192000Y-14468500D02*
X22282000Y-14558500D01*
X22282000Y-14468500D02*
X22192000Y-14558500D01*
X22282000Y-14513500D02*
G75*
G03*
X22192000Y-14513500I-45000J0D01*
G01*
X22192000Y-14513500D02*
G75*
G03*
X22282000Y-14513500I45000J0D01*
G01*
D13*
X13496800Y-13246800D02*
X13598400Y-13348400D01*
X13598400Y-13246800D02*
X13496800Y-13348400D01*
X13547600Y-13246800D02*
X13547600Y-13348400D01*
X13496800Y-13297600D02*
X13598400Y-13297600D01*
X13496800Y-13500900D02*
X13598400Y-13602500D01*
X13598400Y-13500900D02*
X13496800Y-13602500D01*
X13547600Y-13500900D02*
X13547600Y-13602500D01*
X13496800Y-13551700D02*
X13598400Y-13551700D01*
X13496800Y-14320900D02*
X13598400Y-14422500D01*
X13598400Y-14320900D02*
X13496800Y-14422500D01*
X13547600Y-14320900D02*
X13547600Y-14422500D01*
X13496800Y-14371700D02*
X13598400Y-14371700D01*
X13496800Y-14575000D02*
X13598400Y-14676600D01*
X13598400Y-14575000D02*
X13496800Y-14676600D01*
X13547600Y-14575000D02*
X13547600Y-14676600D01*
X13496800Y-14625800D02*
X13598400Y-14625800D01*
D14*
X13271000Y-15297000D02*
X13373000Y-15399000D01*
X13373000Y-15297000D02*
X13271000Y-15399000D01*
X13358063Y-15384063D02*
X13358063Y-15311937D01*
X13285937Y-15311937D01*
X13285937Y-15384063D01*
X13358063Y-15384063D01*
X13271000Y-16059000D02*
X13373000Y-16161000D01*
X13373000Y-16059000D02*
X13271000Y-16161000D01*
X13358063Y-16146063D02*
X13358063Y-16073937D01*
X13285937Y-16073937D01*
X13285937Y-16146063D01*
X13358063Y-16146063D01*
X13271000Y-16821000D02*
X13373000Y-16923000D01*
X13373000Y-16821000D02*
X13271000Y-16923000D01*
X13358063Y-16908063D02*
X13358063Y-16835937D01*
X13285937Y-16835937D01*
X13285937Y-16908063D01*
X13358063Y-16908063D01*
X18351000Y-15678000D02*
X18453000Y-15780000D01*
X18453000Y-15678000D02*
X18351000Y-15780000D01*
X18438063Y-15765063D02*
X18438063Y-15692937D01*
X18365937Y-15692937D01*
X18365937Y-15765063D01*
X18438063Y-15765063D01*
X18351000Y-16059000D02*
X18453000Y-16161000D01*
X18453000Y-16059000D02*
X18351000Y-16161000D01*
X18438063Y-16146063D02*
X18438063Y-16073937D01*
X18365937Y-16073937D01*
X18365937Y-16146063D01*
X18438063Y-16146063D01*
X18351000Y-16440000D02*
X18453000Y-16542000D01*
X18453000Y-16440000D02*
X18351000Y-16542000D01*
X18438063Y-16527063D02*
X18438063Y-16454937D01*
X18365937Y-16454937D01*
X18365937Y-16527063D01*
X18438063Y-16527063D01*
X23229000Y-13354900D02*
X23331000Y-13456900D01*
X23331000Y-13354900D02*
X23229000Y-13456900D01*
X23316063Y-13441963D02*
X23316063Y-13369837D01*
X23243937Y-13369837D01*
X23243937Y-13441963D01*
X23316063Y-13441963D01*
X23229000Y-13609000D02*
X23331000Y-13711000D01*
X23331000Y-13609000D02*
X23229000Y-13711000D01*
X23316063Y-13696063D02*
X23316063Y-13623937D01*
X23243937Y-13623937D01*
X23243937Y-13696063D01*
X23316063Y-13696063D01*
X23229000Y-14427000D02*
X23331000Y-14529000D01*
X23331000Y-14427000D02*
X23229000Y-14529000D01*
X23316063Y-14514063D02*
X23316063Y-14441937D01*
X23243937Y-14441937D01*
X23243937Y-14514063D01*
X23316063Y-14514063D01*
X23229000Y-14681000D02*
X23331000Y-14783000D01*
X23331000Y-14681000D02*
X23229000Y-14783000D01*
X23316063Y-14768063D02*
X23316063Y-14695937D01*
X23243937Y-14695937D01*
X23243937Y-14768063D01*
X23316063Y-14768063D01*
D15*
X18323500Y-15269500D02*
X18480500Y-15426500D01*
X18480500Y-15269500D02*
X18323500Y-15426500D01*
X18402000Y-15426500D02*
X18480500Y-15348000D01*
X18402000Y-15269500D01*
X18323500Y-15348000D01*
X18402000Y-15426500D01*
X18323500Y-16793500D02*
X18480500Y-16950500D01*
X18480500Y-16793500D02*
X18323500Y-16950500D01*
X18402000Y-16950500D02*
X18480500Y-16872000D01*
X18402000Y-16793500D01*
X18323500Y-16872000D01*
X18402000Y-16950500D01*
D16*
X14258400Y-13096700D02*
X14258400Y-13256700D01*
X14178400Y-13176700D02*
X14338400Y-13176700D01*
X14338400Y-13176700D02*
G75*
G03*
X14178400Y-13176700I-80000J0D01*
G01*
X14178400Y-13176700D02*
G75*
G03*
X14338400Y-13176700I80000J0D01*
G01*
X22567100Y-13214300D02*
X22567100Y-13374300D01*
X22487100Y-13294300D02*
X22647100Y-13294300D01*
X22647100Y-13294300D02*
G75*
G03*
X22487100Y-13294300I-80000J0D01*
G01*
X22487100Y-13294300D02*
G75*
G03*
X22647100Y-13294300I80000J0D01*
G01*
X22567100Y-14763500D02*
X22567100Y-14923500D01*
X22487100Y-14843500D02*
X22647100Y-14843500D01*
X22647100Y-14843500D02*
G75*
G03*
X22487100Y-14843500I-80000J0D01*
G01*
X22487100Y-14843500D02*
G75*
G03*
X22647100Y-14843500I80000J0D01*
G01*
D17*
X14314976Y-14803176D02*
X14314976Y-14690024D01*
X14201824Y-14690024D01*
X14201824Y-14803176D01*
X14314976Y-14803176D01*
X14338410Y-14746600D02*
G75*
G03*
X14178390Y-14746600I-80010J0D01*
G01*
X14178390Y-14746600D02*
G75*
G03*
X14338410Y-14746600I80010J0D01*
G01*
D18*
X13150000Y-12975000D02*
X13285000Y-12840000D01*
X13150000Y-12705000D01*
X13015000Y-12840000D01*
X13150000Y-12975000D01*
X13285000Y-12840000D02*
G75*
G03*
X13015000Y-12840000I-135000J0D01*
G01*
X13015000Y-12840000D02*
G75*
G03*
X13285000Y-12840000I135000J0D01*
G01*
X13150000Y-17815000D02*
X13285000Y-17680000D01*
X13150000Y-17545000D01*
X13015000Y-17680000D01*
X13150000Y-17815000D01*
X13285000Y-17680000D02*
G75*
G03*
X13015000Y-17680000I-135000J0D01*
G01*
X13015000Y-17680000D02*
G75*
G03*
X13285000Y-17680000I135000J0D01*
G01*
X23780000Y-12975000D02*
X23915000Y-12840000D01*
X23780000Y-12705000D01*
X23645000Y-12840000D01*
X23780000Y-12975000D01*
X23915000Y-12840000D02*
G75*
G03*
X23645000Y-12840000I-135000J0D01*
G01*
X23645000Y-12840000D02*
G75*
G03*
X23915000Y-12840000I135000J0D01*
G01*
X23780000Y-17835000D02*
X23915000Y-17700000D01*
X23780000Y-17565000D01*
X23645000Y-17700000D01*
X23780000Y-17835000D01*
X23915000Y-17700000D02*
G75*
G03*
X23645000Y-17700000I-135000J0D01*
G01*
X23645000Y-17700000D02*
G75*
G03*
X23915000Y-17700000I135000J0D01*
G01*
D11*
X13104777Y-18317484D02*
X13104777Y-18117484D01*
X13104777Y-18117484D02*
X13152396Y-18117484D01*
X13152396Y-18117484D02*
X13180967Y-18127008D01*
X13180967Y-18127008D02*
X13200015Y-18146055D01*
X13200015Y-18146055D02*
X13209539Y-18165103D01*
X13209539Y-18165103D02*
X13219062Y-18203198D01*
X13219062Y-18203198D02*
X13219062Y-18231770D01*
X13219062Y-18231770D02*
X13209539Y-18269865D01*
X13209539Y-18269865D02*
X13200015Y-18288912D01*
X13200015Y-18288912D02*
X13180967Y-18307960D01*
X13180967Y-18307960D02*
X13152396Y-18317484D01*
X13152396Y-18317484D02*
X13104777Y-18317484D01*
X13304777Y-18317484D02*
X13304777Y-18184150D01*
X13304777Y-18222246D02*
X13314301Y-18203198D01*
X13314301Y-18203198D02*
X13323824Y-18193674D01*
X13323824Y-18193674D02*
X13342872Y-18184150D01*
X13342872Y-18184150D02*
X13361920Y-18184150D01*
X13428586Y-18317484D02*
X13428586Y-18184150D01*
X13428586Y-18117484D02*
X13419062Y-18127008D01*
X13419062Y-18127008D02*
X13428586Y-18136531D01*
X13428586Y-18136531D02*
X13438110Y-18127008D01*
X13438110Y-18127008D02*
X13428586Y-18117484D01*
X13428586Y-18117484D02*
X13428586Y-18136531D01*
X13552396Y-18317484D02*
X13533348Y-18307960D01*
X13533348Y-18307960D02*
X13523824Y-18288912D01*
X13523824Y-18288912D02*
X13523824Y-18117484D01*
X13657158Y-18317484D02*
X13638110Y-18307960D01*
X13638110Y-18307960D02*
X13628586Y-18288912D01*
X13628586Y-18288912D02*
X13628586Y-18117484D01*
X13885729Y-18317484D02*
X13885729Y-18117484D01*
X13885729Y-18117484D02*
X13952396Y-18260341D01*
X13952396Y-18260341D02*
X14019062Y-18117484D01*
X14019062Y-18117484D02*
X14019062Y-18317484D01*
X14200015Y-18317484D02*
X14200015Y-18212722D01*
X14200015Y-18212722D02*
X14190491Y-18193674D01*
X14190491Y-18193674D02*
X14171443Y-18184150D01*
X14171443Y-18184150D02*
X14133348Y-18184150D01*
X14133348Y-18184150D02*
X14114301Y-18193674D01*
X14200015Y-18307960D02*
X14180967Y-18317484D01*
X14180967Y-18317484D02*
X14133348Y-18317484D01*
X14133348Y-18317484D02*
X14114301Y-18307960D01*
X14114301Y-18307960D02*
X14104777Y-18288912D01*
X14104777Y-18288912D02*
X14104777Y-18269865D01*
X14104777Y-18269865D02*
X14114301Y-18250817D01*
X14114301Y-18250817D02*
X14133348Y-18241293D01*
X14133348Y-18241293D02*
X14180967Y-18241293D01*
X14180967Y-18241293D02*
X14200015Y-18231770D01*
X14295253Y-18184150D02*
X14295253Y-18384150D01*
X14295253Y-18193674D02*
X14314301Y-18184150D01*
X14314301Y-18184150D02*
X14352396Y-18184150D01*
X14352396Y-18184150D02*
X14371443Y-18193674D01*
X14371443Y-18193674D02*
X14380967Y-18203198D01*
X14380967Y-18203198D02*
X14390491Y-18222246D01*
X14390491Y-18222246D02*
X14390491Y-18279389D01*
X14390491Y-18279389D02*
X14380967Y-18298436D01*
X14380967Y-18298436D02*
X14371443Y-18307960D01*
X14371443Y-18307960D02*
X14352396Y-18317484D01*
X14352396Y-18317484D02*
X14314301Y-18317484D01*
X14314301Y-18317484D02*
X14295253Y-18307960D01*
X14476205Y-18298436D02*
X14485729Y-18307960D01*
X14485729Y-18307960D02*
X14476205Y-18317484D01*
X14476205Y-18317484D02*
X14466682Y-18307960D01*
X14466682Y-18307960D02*
X14476205Y-18298436D01*
X14476205Y-18298436D02*
X14476205Y-18317484D01*
X14476205Y-18193674D02*
X14485729Y-18203198D01*
X14485729Y-18203198D02*
X14476205Y-18212722D01*
X14476205Y-18212722D02*
X14466682Y-18203198D01*
X14466682Y-18203198D02*
X14476205Y-18193674D01*
X14476205Y-18193674D02*
X14476205Y-18212722D01*
D12*
X12834000Y-18641000D02*
X12844000Y-18651000D01*
X12844000Y-18641000D02*
X12834000Y-18651000D01*
D11*
X13142872Y-18537484D02*
X13161920Y-18537484D01*
X13161920Y-18537484D02*
X13180967Y-18547008D01*
X13180967Y-18547008D02*
X13190491Y-18556531D01*
X13190491Y-18556531D02*
X13200015Y-18575579D01*
X13200015Y-18575579D02*
X13209539Y-18613674D01*
X13209539Y-18613674D02*
X13209539Y-18661293D01*
X13209539Y-18661293D02*
X13200015Y-18699389D01*
X13200015Y-18699389D02*
X13190491Y-18718436D01*
X13190491Y-18718436D02*
X13180967Y-18727960D01*
X13180967Y-18727960D02*
X13161920Y-18737484D01*
X13161920Y-18737484D02*
X13142872Y-18737484D01*
X13142872Y-18737484D02*
X13123824Y-18727960D01*
X13123824Y-18727960D02*
X13114301Y-18718436D01*
X13114301Y-18718436D02*
X13104777Y-18699389D01*
X13104777Y-18699389D02*
X13095253Y-18661293D01*
X13095253Y-18661293D02*
X13095253Y-18613674D01*
X13095253Y-18613674D02*
X13104777Y-18575579D01*
X13104777Y-18575579D02*
X13114301Y-18556531D01*
X13114301Y-18556531D02*
X13123824Y-18547008D01*
X13123824Y-18547008D02*
X13142872Y-18537484D01*
X13295253Y-18718436D02*
X13304777Y-18727960D01*
X13304777Y-18727960D02*
X13295253Y-18737484D01*
X13295253Y-18737484D02*
X13285729Y-18727960D01*
X13285729Y-18727960D02*
X13295253Y-18718436D01*
X13295253Y-18718436D02*
X13295253Y-18737484D01*
X13495253Y-18737484D02*
X13380967Y-18737484D01*
X13438110Y-18737484D02*
X13438110Y-18537484D01*
X13438110Y-18537484D02*
X13419062Y-18566055D01*
X13419062Y-18566055D02*
X13400015Y-18585103D01*
X13400015Y-18585103D02*
X13380967Y-18594627D01*
X13619062Y-18537484D02*
X13638110Y-18537484D01*
X13638110Y-18537484D02*
X13657158Y-18547008D01*
X13657158Y-18547008D02*
X13666682Y-18556531D01*
X13666682Y-18556531D02*
X13676205Y-18575579D01*
X13676205Y-18575579D02*
X13685729Y-18613674D01*
X13685729Y-18613674D02*
X13685729Y-18661293D01*
X13685729Y-18661293D02*
X13676205Y-18699389D01*
X13676205Y-18699389D02*
X13666682Y-18718436D01*
X13666682Y-18718436D02*
X13657158Y-18727960D01*
X13657158Y-18727960D02*
X13638110Y-18737484D01*
X13638110Y-18737484D02*
X13619062Y-18737484D01*
X13619062Y-18737484D02*
X13600015Y-18727960D01*
X13600015Y-18727960D02*
X13590491Y-18718436D01*
X13590491Y-18718436D02*
X13580967Y-18699389D01*
X13580967Y-18699389D02*
X13571443Y-18661293D01*
X13571443Y-18661293D02*
X13571443Y-18613674D01*
X13571443Y-18613674D02*
X13580967Y-18575579D01*
X13580967Y-18575579D02*
X13590491Y-18556531D01*
X13590491Y-18556531D02*
X13600015Y-18547008D01*
X13600015Y-18547008D02*
X13619062Y-18537484D01*
X13809539Y-18537484D02*
X13828586Y-18537484D01*
X13828586Y-18537484D02*
X13847634Y-18547008D01*
X13847634Y-18547008D02*
X13857158Y-18556531D01*
X13857158Y-18556531D02*
X13866682Y-18575579D01*
X13866682Y-18575579D02*
X13876205Y-18613674D01*
X13876205Y-18613674D02*
X13876205Y-18661293D01*
X13876205Y-18661293D02*
X13866682Y-18699389D01*
X13866682Y-18699389D02*
X13857158Y-18718436D01*
X13857158Y-18718436D02*
X13847634Y-18727960D01*
X13847634Y-18727960D02*
X13828586Y-18737484D01*
X13828586Y-18737484D02*
X13809539Y-18737484D01*
X13809539Y-18737484D02*
X13790491Y-18727960D01*
X13790491Y-18727960D02*
X13780967Y-18718436D01*
X13780967Y-18718436D02*
X13771443Y-18699389D01*
X13771443Y-18699389D02*
X13761920Y-18661293D01*
X13761920Y-18661293D02*
X13761920Y-18613674D01*
X13761920Y-18613674D02*
X13771443Y-18575579D01*
X13771443Y-18575579D02*
X13780967Y-18556531D01*
X13780967Y-18556531D02*
X13790491Y-18547008D01*
X13790491Y-18547008D02*
X13809539Y-18537484D01*
X13961920Y-18737484D02*
X13961920Y-18604150D01*
X13961920Y-18623198D02*
X13971443Y-18613674D01*
X13971443Y-18613674D02*
X13990491Y-18604150D01*
X13990491Y-18604150D02*
X14019063Y-18604150D01*
X14019063Y-18604150D02*
X14038110Y-18613674D01*
X14038110Y-18613674D02*
X14047634Y-18632722D01*
X14047634Y-18632722D02*
X14047634Y-18737484D01*
X14047634Y-18632722D02*
X14057158Y-18613674D01*
X14057158Y-18613674D02*
X14076205Y-18604150D01*
X14076205Y-18604150D02*
X14104777Y-18604150D01*
X14104777Y-18604150D02*
X14123824Y-18613674D01*
X14123824Y-18613674D02*
X14133348Y-18632722D01*
X14133348Y-18632722D02*
X14133348Y-18737484D01*
X14228586Y-18737484D02*
X14228586Y-18604150D01*
X14228586Y-18623198D02*
X14238110Y-18613674D01*
X14238110Y-18613674D02*
X14257158Y-18604150D01*
X14257158Y-18604150D02*
X14285729Y-18604150D01*
X14285729Y-18604150D02*
X14304777Y-18613674D01*
X14304777Y-18613674D02*
X14314301Y-18632722D01*
X14314301Y-18632722D02*
X14314301Y-18737484D01*
X14314301Y-18632722D02*
X14323824Y-18613674D01*
X14323824Y-18613674D02*
X14342872Y-18604150D01*
X14342872Y-18604150D02*
X14371443Y-18604150D01*
X14371443Y-18604150D02*
X14390491Y-18613674D01*
X14390491Y-18613674D02*
X14400015Y-18632722D01*
X14400015Y-18632722D02*
X14400015Y-18737484D01*
X14790491Y-18527960D02*
X14619063Y-18785103D01*
X15047634Y-18537484D02*
X15066682Y-18537484D01*
X15066682Y-18537484D02*
X15085729Y-18547008D01*
X15085729Y-18547008D02*
X15095253Y-18556531D01*
X15095253Y-18556531D02*
X15104777Y-18575579D01*
X15104777Y-18575579D02*
X15114301Y-18613674D01*
X15114301Y-18613674D02*
X15114301Y-18661293D01*
X15114301Y-18661293D02*
X15104777Y-18699389D01*
X15104777Y-18699389D02*
X15095253Y-18718436D01*
X15095253Y-18718436D02*
X15085729Y-18727960D01*
X15085729Y-18727960D02*
X15066682Y-18737484D01*
X15066682Y-18737484D02*
X15047634Y-18737484D01*
X15047634Y-18737484D02*
X15028586Y-18727960D01*
X15028586Y-18727960D02*
X15019063Y-18718436D01*
X15019063Y-18718436D02*
X15009539Y-18699389D01*
X15009539Y-18699389D02*
X15000015Y-18661293D01*
X15000015Y-18661293D02*
X15000015Y-18613674D01*
X15000015Y-18613674D02*
X15009539Y-18575579D01*
X15009539Y-18575579D02*
X15019063Y-18556531D01*
X15019063Y-18556531D02*
X15028586Y-18547008D01*
X15028586Y-18547008D02*
X15047634Y-18537484D01*
X15200015Y-18718436D02*
X15209539Y-18727960D01*
X15209539Y-18727960D02*
X15200015Y-18737484D01*
X15200015Y-18737484D02*
X15190491Y-18727960D01*
X15190491Y-18727960D02*
X15200015Y-18718436D01*
X15200015Y-18718436D02*
X15200015Y-18737484D01*
X15333348Y-18537484D02*
X15352396Y-18537484D01*
X15352396Y-18537484D02*
X15371444Y-18547008D01*
X15371444Y-18547008D02*
X15380967Y-18556531D01*
X15380967Y-18556531D02*
X15390491Y-18575579D01*
X15390491Y-18575579D02*
X15400015Y-18613674D01*
X15400015Y-18613674D02*
X15400015Y-18661293D01*
X15400015Y-18661293D02*
X15390491Y-18699389D01*
X15390491Y-18699389D02*
X15380967Y-18718436D01*
X15380967Y-18718436D02*
X15371444Y-18727960D01*
X15371444Y-18727960D02*
X15352396Y-18737484D01*
X15352396Y-18737484D02*
X15333348Y-18737484D01*
X15333348Y-18737484D02*
X15314301Y-18727960D01*
X15314301Y-18727960D02*
X15304777Y-18718436D01*
X15304777Y-18718436D02*
X15295253Y-18699389D01*
X15295253Y-18699389D02*
X15285729Y-18661293D01*
X15285729Y-18661293D02*
X15285729Y-18613674D01*
X15285729Y-18613674D02*
X15295253Y-18575579D01*
X15295253Y-18575579D02*
X15304777Y-18556531D01*
X15304777Y-18556531D02*
X15314301Y-18547008D01*
X15314301Y-18547008D02*
X15333348Y-18537484D01*
X15523825Y-18537484D02*
X15542872Y-18537484D01*
X15542872Y-18537484D02*
X15561920Y-18547008D01*
X15561920Y-18547008D02*
X15571444Y-18556531D01*
X15571444Y-18556531D02*
X15580967Y-18575579D01*
X15580967Y-18575579D02*
X15590491Y-18613674D01*
X15590491Y-18613674D02*
X15590491Y-18661293D01*
X15590491Y-18661293D02*
X15580967Y-18699389D01*
X15580967Y-18699389D02*
X15571444Y-18718436D01*
X15571444Y-18718436D02*
X15561920Y-18727960D01*
X15561920Y-18727960D02*
X15542872Y-18737484D01*
X15542872Y-18737484D02*
X15523825Y-18737484D01*
X15523825Y-18737484D02*
X15504777Y-18727960D01*
X15504777Y-18727960D02*
X15495253Y-18718436D01*
X15495253Y-18718436D02*
X15485729Y-18699389D01*
X15485729Y-18699389D02*
X15476206Y-18661293D01*
X15476206Y-18661293D02*
X15476206Y-18613674D01*
X15476206Y-18613674D02*
X15485729Y-18575579D01*
X15485729Y-18575579D02*
X15495253Y-18556531D01*
X15495253Y-18556531D02*
X15504777Y-18547008D01*
X15504777Y-18547008D02*
X15523825Y-18537484D01*
X15657158Y-18537484D02*
X15780967Y-18537484D01*
X15780967Y-18537484D02*
X15714301Y-18613674D01*
X15714301Y-18613674D02*
X15742872Y-18613674D01*
X15742872Y-18613674D02*
X15761920Y-18623198D01*
X15761920Y-18623198D02*
X15771444Y-18632722D01*
X15771444Y-18632722D02*
X15780967Y-18651770D01*
X15780967Y-18651770D02*
X15780967Y-18699389D01*
X15780967Y-18699389D02*
X15771444Y-18718436D01*
X15771444Y-18718436D02*
X15761920Y-18727960D01*
X15761920Y-18727960D02*
X15742872Y-18737484D01*
X15742872Y-18737484D02*
X15685729Y-18737484D01*
X15685729Y-18737484D02*
X15666682Y-18727960D01*
X15666682Y-18727960D02*
X15657158Y-18718436D01*
X15876206Y-18737484D02*
X15914301Y-18737484D01*
X15914301Y-18737484D02*
X15933348Y-18727960D01*
X15933348Y-18727960D02*
X15942872Y-18718436D01*
X15942872Y-18718436D02*
X15961920Y-18689865D01*
X15961920Y-18689865D02*
X15971444Y-18651770D01*
X15971444Y-18651770D02*
X15971444Y-18575579D01*
X15971444Y-18575579D02*
X15961920Y-18556531D01*
X15961920Y-18556531D02*
X15952396Y-18547008D01*
X15952396Y-18547008D02*
X15933348Y-18537484D01*
X15933348Y-18537484D02*
X15895253Y-18537484D01*
X15895253Y-18537484D02*
X15876206Y-18547008D01*
X15876206Y-18547008D02*
X15866682Y-18556531D01*
X15866682Y-18556531D02*
X15857158Y-18575579D01*
X15857158Y-18575579D02*
X15857158Y-18623198D01*
X15857158Y-18623198D02*
X15866682Y-18642246D01*
X15866682Y-18642246D02*
X15876206Y-18651770D01*
X15876206Y-18651770D02*
X15895253Y-18661293D01*
X15895253Y-18661293D02*
X15933348Y-18661293D01*
X15933348Y-18661293D02*
X15952396Y-18651770D01*
X15952396Y-18651770D02*
X15961920Y-18642246D01*
X15961920Y-18642246D02*
X15971444Y-18623198D01*
X16047634Y-18537484D02*
X16047634Y-18575579D01*
X16123825Y-18537484D02*
X16123825Y-18575579D01*
X16419063Y-18813674D02*
X16409539Y-18804150D01*
X16409539Y-18804150D02*
X16390491Y-18775579D01*
X16390491Y-18775579D02*
X16380968Y-18756531D01*
X16380968Y-18756531D02*
X16371444Y-18727960D01*
X16371444Y-18727960D02*
X16361920Y-18680341D01*
X16361920Y-18680341D02*
X16361920Y-18642246D01*
X16361920Y-18642246D02*
X16371444Y-18594627D01*
X16371444Y-18594627D02*
X16380968Y-18566055D01*
X16380968Y-18566055D02*
X16390491Y-18547008D01*
X16390491Y-18547008D02*
X16409539Y-18518436D01*
X16409539Y-18518436D02*
X16419063Y-18508912D01*
X16485729Y-18556531D02*
X16495253Y-18547008D01*
X16495253Y-18547008D02*
X16514301Y-18537484D01*
X16514301Y-18537484D02*
X16561920Y-18537484D01*
X16561920Y-18537484D02*
X16580968Y-18547008D01*
X16580968Y-18547008D02*
X16590491Y-18556531D01*
X16590491Y-18556531D02*
X16600015Y-18575579D01*
X16600015Y-18575579D02*
X16600015Y-18594627D01*
X16600015Y-18594627D02*
X16590491Y-18623198D01*
X16590491Y-18623198D02*
X16476206Y-18737484D01*
X16476206Y-18737484D02*
X16600015Y-18737484D01*
X16666682Y-18537484D02*
X16790491Y-18537484D01*
X16790491Y-18537484D02*
X16723825Y-18613674D01*
X16723825Y-18613674D02*
X16752396Y-18613674D01*
X16752396Y-18613674D02*
X16771444Y-18623198D01*
X16771444Y-18623198D02*
X16780968Y-18632722D01*
X16780968Y-18632722D02*
X16790491Y-18651770D01*
X16790491Y-18651770D02*
X16790491Y-18699389D01*
X16790491Y-18699389D02*
X16780968Y-18718436D01*
X16780968Y-18718436D02*
X16771444Y-18727960D01*
X16771444Y-18727960D02*
X16752396Y-18737484D01*
X16752396Y-18737484D02*
X16695253Y-18737484D01*
X16695253Y-18737484D02*
X16676206Y-18727960D01*
X16676206Y-18727960D02*
X16666682Y-18718436D01*
X17028587Y-18737484D02*
X17028587Y-18537484D01*
X17114301Y-18737484D02*
X17114301Y-18632722D01*
X17114301Y-18632722D02*
X17104777Y-18613674D01*
X17104777Y-18613674D02*
X17085730Y-18604150D01*
X17085730Y-18604150D02*
X17057158Y-18604150D01*
X17057158Y-18604150D02*
X17038111Y-18613674D01*
X17038111Y-18613674D02*
X17028587Y-18623198D01*
X17238111Y-18737484D02*
X17219063Y-18727960D01*
X17219063Y-18727960D02*
X17209539Y-18718436D01*
X17209539Y-18718436D02*
X17200015Y-18699389D01*
X17200015Y-18699389D02*
X17200015Y-18642246D01*
X17200015Y-18642246D02*
X17209539Y-18623198D01*
X17209539Y-18623198D02*
X17219063Y-18613674D01*
X17219063Y-18613674D02*
X17238111Y-18604150D01*
X17238111Y-18604150D02*
X17266682Y-18604150D01*
X17266682Y-18604150D02*
X17285730Y-18613674D01*
X17285730Y-18613674D02*
X17295253Y-18623198D01*
X17295253Y-18623198D02*
X17304777Y-18642246D01*
X17304777Y-18642246D02*
X17304777Y-18699389D01*
X17304777Y-18699389D02*
X17295253Y-18718436D01*
X17295253Y-18718436D02*
X17285730Y-18727960D01*
X17285730Y-18727960D02*
X17266682Y-18737484D01*
X17266682Y-18737484D02*
X17238111Y-18737484D01*
X17419063Y-18737484D02*
X17400015Y-18727960D01*
X17400015Y-18727960D02*
X17390492Y-18708912D01*
X17390492Y-18708912D02*
X17390492Y-18537484D01*
X17571444Y-18727960D02*
X17552396Y-18737484D01*
X17552396Y-18737484D02*
X17514301Y-18737484D01*
X17514301Y-18737484D02*
X17495253Y-18727960D01*
X17495253Y-18727960D02*
X17485730Y-18708912D01*
X17485730Y-18708912D02*
X17485730Y-18632722D01*
X17485730Y-18632722D02*
X17495253Y-18613674D01*
X17495253Y-18613674D02*
X17514301Y-18604150D01*
X17514301Y-18604150D02*
X17552396Y-18604150D01*
X17552396Y-18604150D02*
X17571444Y-18613674D01*
X17571444Y-18613674D02*
X17580968Y-18632722D01*
X17580968Y-18632722D02*
X17580968Y-18651770D01*
X17580968Y-18651770D02*
X17485730Y-18670817D01*
X17657158Y-18727960D02*
X17676206Y-18737484D01*
X17676206Y-18737484D02*
X17714301Y-18737484D01*
X17714301Y-18737484D02*
X17733349Y-18727960D01*
X17733349Y-18727960D02*
X17742873Y-18708912D01*
X17742873Y-18708912D02*
X17742873Y-18699389D01*
X17742873Y-18699389D02*
X17733349Y-18680341D01*
X17733349Y-18680341D02*
X17714301Y-18670817D01*
X17714301Y-18670817D02*
X17685730Y-18670817D01*
X17685730Y-18670817D02*
X17666682Y-18661293D01*
X17666682Y-18661293D02*
X17657158Y-18642246D01*
X17657158Y-18642246D02*
X17657158Y-18632722D01*
X17657158Y-18632722D02*
X17666682Y-18613674D01*
X17666682Y-18613674D02*
X17685730Y-18604150D01*
X17685730Y-18604150D02*
X17714301Y-18604150D01*
X17714301Y-18604150D02*
X17733349Y-18613674D01*
X17809539Y-18813674D02*
X17819063Y-18804150D01*
X17819063Y-18804150D02*
X17838111Y-18775579D01*
X17838111Y-18775579D02*
X17847634Y-18756531D01*
X17847634Y-18756531D02*
X17857158Y-18727960D01*
X17857158Y-18727960D02*
X17866682Y-18680341D01*
X17866682Y-18680341D02*
X17866682Y-18642246D01*
X17866682Y-18642246D02*
X17857158Y-18594627D01*
X17857158Y-18594627D02*
X17847634Y-18566055D01*
X17847634Y-18566055D02*
X17838111Y-18547008D01*
X17838111Y-18547008D02*
X17819063Y-18518436D01*
X17819063Y-18518436D02*
X17809539Y-18508912D01*
D12*
X12844000Y-18910000D02*
G75*
G03*
X12824000Y-18910000I-10000J0D01*
G01*
X12824000Y-18910000D02*
G75*
G03*
X12844000Y-18910000I10000J0D01*
G01*
D11*
X13142872Y-18801484D02*
X13161920Y-18801484D01*
X13161920Y-18801484D02*
X13180967Y-18811008D01*
X13180967Y-18811008D02*
X13190491Y-18820531D01*
X13190491Y-18820531D02*
X13200015Y-18839579D01*
X13200015Y-18839579D02*
X13209539Y-18877674D01*
X13209539Y-18877674D02*
X13209539Y-18925293D01*
X13209539Y-18925293D02*
X13200015Y-18963389D01*
X13200015Y-18963389D02*
X13190491Y-18982436D01*
X13190491Y-18982436D02*
X13180967Y-18991960D01*
X13180967Y-18991960D02*
X13161920Y-19001484D01*
X13161920Y-19001484D02*
X13142872Y-19001484D01*
X13142872Y-19001484D02*
X13123824Y-18991960D01*
X13123824Y-18991960D02*
X13114301Y-18982436D01*
X13114301Y-18982436D02*
X13104777Y-18963389D01*
X13104777Y-18963389D02*
X13095253Y-18925293D01*
X13095253Y-18925293D02*
X13095253Y-18877674D01*
X13095253Y-18877674D02*
X13104777Y-18839579D01*
X13104777Y-18839579D02*
X13114301Y-18820531D01*
X13114301Y-18820531D02*
X13123824Y-18811008D01*
X13123824Y-18811008D02*
X13142872Y-18801484D01*
X13295253Y-18982436D02*
X13304777Y-18991960D01*
X13304777Y-18991960D02*
X13295253Y-19001484D01*
X13295253Y-19001484D02*
X13285729Y-18991960D01*
X13285729Y-18991960D02*
X13295253Y-18982436D01*
X13295253Y-18982436D02*
X13295253Y-19001484D01*
X13380967Y-18820531D02*
X13390491Y-18811008D01*
X13390491Y-18811008D02*
X13409539Y-18801484D01*
X13409539Y-18801484D02*
X13457158Y-18801484D01*
X13457158Y-18801484D02*
X13476205Y-18811008D01*
X13476205Y-18811008D02*
X13485729Y-18820531D01*
X13485729Y-18820531D02*
X13495253Y-18839579D01*
X13495253Y-18839579D02*
X13495253Y-18858627D01*
X13495253Y-18858627D02*
X13485729Y-18887198D01*
X13485729Y-18887198D02*
X13371443Y-19001484D01*
X13371443Y-19001484D02*
X13495253Y-19001484D01*
X13619062Y-18801484D02*
X13638110Y-18801484D01*
X13638110Y-18801484D02*
X13657158Y-18811008D01*
X13657158Y-18811008D02*
X13666682Y-18820531D01*
X13666682Y-18820531D02*
X13676205Y-18839579D01*
X13676205Y-18839579D02*
X13685729Y-18877674D01*
X13685729Y-18877674D02*
X13685729Y-18925293D01*
X13685729Y-18925293D02*
X13676205Y-18963389D01*
X13676205Y-18963389D02*
X13666682Y-18982436D01*
X13666682Y-18982436D02*
X13657158Y-18991960D01*
X13657158Y-18991960D02*
X13638110Y-19001484D01*
X13638110Y-19001484D02*
X13619062Y-19001484D01*
X13619062Y-19001484D02*
X13600015Y-18991960D01*
X13600015Y-18991960D02*
X13590491Y-18982436D01*
X13590491Y-18982436D02*
X13580967Y-18963389D01*
X13580967Y-18963389D02*
X13571443Y-18925293D01*
X13571443Y-18925293D02*
X13571443Y-18877674D01*
X13571443Y-18877674D02*
X13580967Y-18839579D01*
X13580967Y-18839579D02*
X13590491Y-18820531D01*
X13590491Y-18820531D02*
X13600015Y-18811008D01*
X13600015Y-18811008D02*
X13619062Y-18801484D01*
X13809539Y-18801484D02*
X13828586Y-18801484D01*
X13828586Y-18801484D02*
X13847634Y-18811008D01*
X13847634Y-18811008D02*
X13857158Y-18820531D01*
X13857158Y-18820531D02*
X13866682Y-18839579D01*
X13866682Y-18839579D02*
X13876205Y-18877674D01*
X13876205Y-18877674D02*
X13876205Y-18925293D01*
X13876205Y-18925293D02*
X13866682Y-18963389D01*
X13866682Y-18963389D02*
X13857158Y-18982436D01*
X13857158Y-18982436D02*
X13847634Y-18991960D01*
X13847634Y-18991960D02*
X13828586Y-19001484D01*
X13828586Y-19001484D02*
X13809539Y-19001484D01*
X13809539Y-19001484D02*
X13790491Y-18991960D01*
X13790491Y-18991960D02*
X13780967Y-18982436D01*
X13780967Y-18982436D02*
X13771443Y-18963389D01*
X13771443Y-18963389D02*
X13761920Y-18925293D01*
X13761920Y-18925293D02*
X13761920Y-18877674D01*
X13761920Y-18877674D02*
X13771443Y-18839579D01*
X13771443Y-18839579D02*
X13780967Y-18820531D01*
X13780967Y-18820531D02*
X13790491Y-18811008D01*
X13790491Y-18811008D02*
X13809539Y-18801484D01*
X13961920Y-19001484D02*
X13961920Y-18868150D01*
X13961920Y-18887198D02*
X13971443Y-18877674D01*
X13971443Y-18877674D02*
X13990491Y-18868150D01*
X13990491Y-18868150D02*
X14019063Y-18868150D01*
X14019063Y-18868150D02*
X14038110Y-18877674D01*
X14038110Y-18877674D02*
X14047634Y-18896722D01*
X14047634Y-18896722D02*
X14047634Y-19001484D01*
X14047634Y-18896722D02*
X14057158Y-18877674D01*
X14057158Y-18877674D02*
X14076205Y-18868150D01*
X14076205Y-18868150D02*
X14104777Y-18868150D01*
X14104777Y-18868150D02*
X14123824Y-18877674D01*
X14123824Y-18877674D02*
X14133348Y-18896722D01*
X14133348Y-18896722D02*
X14133348Y-19001484D01*
X14228586Y-19001484D02*
X14228586Y-18868150D01*
X14228586Y-18887198D02*
X14238110Y-18877674D01*
X14238110Y-18877674D02*
X14257158Y-18868150D01*
X14257158Y-18868150D02*
X14285729Y-18868150D01*
X14285729Y-18868150D02*
X14304777Y-18877674D01*
X14304777Y-18877674D02*
X14314301Y-18896722D01*
X14314301Y-18896722D02*
X14314301Y-19001484D01*
X14314301Y-18896722D02*
X14323824Y-18877674D01*
X14323824Y-18877674D02*
X14342872Y-18868150D01*
X14342872Y-18868150D02*
X14371443Y-18868150D01*
X14371443Y-18868150D02*
X14390491Y-18877674D01*
X14390491Y-18877674D02*
X14400015Y-18896722D01*
X14400015Y-18896722D02*
X14400015Y-19001484D01*
X14790491Y-18791960D02*
X14619063Y-19049103D01*
X15047634Y-18801484D02*
X15066682Y-18801484D01*
X15066682Y-18801484D02*
X15085729Y-18811008D01*
X15085729Y-18811008D02*
X15095253Y-18820531D01*
X15095253Y-18820531D02*
X15104777Y-18839579D01*
X15104777Y-18839579D02*
X15114301Y-18877674D01*
X15114301Y-18877674D02*
X15114301Y-18925293D01*
X15114301Y-18925293D02*
X15104777Y-18963389D01*
X15104777Y-18963389D02*
X15095253Y-18982436D01*
X15095253Y-18982436D02*
X15085729Y-18991960D01*
X15085729Y-18991960D02*
X15066682Y-19001484D01*
X15066682Y-19001484D02*
X15047634Y-19001484D01*
X15047634Y-19001484D02*
X15028586Y-18991960D01*
X15028586Y-18991960D02*
X15019063Y-18982436D01*
X15019063Y-18982436D02*
X15009539Y-18963389D01*
X15009539Y-18963389D02*
X15000015Y-18925293D01*
X15000015Y-18925293D02*
X15000015Y-18877674D01*
X15000015Y-18877674D02*
X15009539Y-18839579D01*
X15009539Y-18839579D02*
X15019063Y-18820531D01*
X15019063Y-18820531D02*
X15028586Y-18811008D01*
X15028586Y-18811008D02*
X15047634Y-18801484D01*
X15200015Y-18982436D02*
X15209539Y-18991960D01*
X15209539Y-18991960D02*
X15200015Y-19001484D01*
X15200015Y-19001484D02*
X15190491Y-18991960D01*
X15190491Y-18991960D02*
X15200015Y-18982436D01*
X15200015Y-18982436D02*
X15200015Y-19001484D01*
X15333348Y-18801484D02*
X15352396Y-18801484D01*
X15352396Y-18801484D02*
X15371444Y-18811008D01*
X15371444Y-18811008D02*
X15380967Y-18820531D01*
X15380967Y-18820531D02*
X15390491Y-18839579D01*
X15390491Y-18839579D02*
X15400015Y-18877674D01*
X15400015Y-18877674D02*
X15400015Y-18925293D01*
X15400015Y-18925293D02*
X15390491Y-18963389D01*
X15390491Y-18963389D02*
X15380967Y-18982436D01*
X15380967Y-18982436D02*
X15371444Y-18991960D01*
X15371444Y-18991960D02*
X15352396Y-19001484D01*
X15352396Y-19001484D02*
X15333348Y-19001484D01*
X15333348Y-19001484D02*
X15314301Y-18991960D01*
X15314301Y-18991960D02*
X15304777Y-18982436D01*
X15304777Y-18982436D02*
X15295253Y-18963389D01*
X15295253Y-18963389D02*
X15285729Y-18925293D01*
X15285729Y-18925293D02*
X15285729Y-18877674D01*
X15285729Y-18877674D02*
X15295253Y-18839579D01*
X15295253Y-18839579D02*
X15304777Y-18820531D01*
X15304777Y-18820531D02*
X15314301Y-18811008D01*
X15314301Y-18811008D02*
X15333348Y-18801484D01*
X15523825Y-18801484D02*
X15542872Y-18801484D01*
X15542872Y-18801484D02*
X15561920Y-18811008D01*
X15561920Y-18811008D02*
X15571444Y-18820531D01*
X15571444Y-18820531D02*
X15580967Y-18839579D01*
X15580967Y-18839579D02*
X15590491Y-18877674D01*
X15590491Y-18877674D02*
X15590491Y-18925293D01*
X15590491Y-18925293D02*
X15580967Y-18963389D01*
X15580967Y-18963389D02*
X15571444Y-18982436D01*
X15571444Y-18982436D02*
X15561920Y-18991960D01*
X15561920Y-18991960D02*
X15542872Y-19001484D01*
X15542872Y-19001484D02*
X15523825Y-19001484D01*
X15523825Y-19001484D02*
X15504777Y-18991960D01*
X15504777Y-18991960D02*
X15495253Y-18982436D01*
X15495253Y-18982436D02*
X15485729Y-18963389D01*
X15485729Y-18963389D02*
X15476206Y-18925293D01*
X15476206Y-18925293D02*
X15476206Y-18877674D01*
X15476206Y-18877674D02*
X15485729Y-18839579D01*
X15485729Y-18839579D02*
X15495253Y-18820531D01*
X15495253Y-18820531D02*
X15504777Y-18811008D01*
X15504777Y-18811008D02*
X15523825Y-18801484D01*
X15657158Y-18801484D02*
X15790491Y-18801484D01*
X15790491Y-18801484D02*
X15704777Y-19001484D01*
X15876206Y-19001484D02*
X15914301Y-19001484D01*
X15914301Y-19001484D02*
X15933348Y-18991960D01*
X15933348Y-18991960D02*
X15942872Y-18982436D01*
X15942872Y-18982436D02*
X15961920Y-18953865D01*
X15961920Y-18953865D02*
X15971444Y-18915770D01*
X15971444Y-18915770D02*
X15971444Y-18839579D01*
X15971444Y-18839579D02*
X15961920Y-18820531D01*
X15961920Y-18820531D02*
X15952396Y-18811008D01*
X15952396Y-18811008D02*
X15933348Y-18801484D01*
X15933348Y-18801484D02*
X15895253Y-18801484D01*
X15895253Y-18801484D02*
X15876206Y-18811008D01*
X15876206Y-18811008D02*
X15866682Y-18820531D01*
X15866682Y-18820531D02*
X15857158Y-18839579D01*
X15857158Y-18839579D02*
X15857158Y-18887198D01*
X15857158Y-18887198D02*
X15866682Y-18906246D01*
X15866682Y-18906246D02*
X15876206Y-18915770D01*
X15876206Y-18915770D02*
X15895253Y-18925293D01*
X15895253Y-18925293D02*
X15933348Y-18925293D01*
X15933348Y-18925293D02*
X15952396Y-18915770D01*
X15952396Y-18915770D02*
X15961920Y-18906246D01*
X15961920Y-18906246D02*
X15971444Y-18887198D01*
X16047634Y-18801484D02*
X16047634Y-18839579D01*
X16123825Y-18801484D02*
X16123825Y-18839579D01*
X16419063Y-19077674D02*
X16409539Y-19068150D01*
X16409539Y-19068150D02*
X16390491Y-19039579D01*
X16390491Y-19039579D02*
X16380968Y-19020531D01*
X16380968Y-19020531D02*
X16371444Y-18991960D01*
X16371444Y-18991960D02*
X16361920Y-18944341D01*
X16361920Y-18944341D02*
X16361920Y-18906246D01*
X16361920Y-18906246D02*
X16371444Y-18858627D01*
X16371444Y-18858627D02*
X16380968Y-18830055D01*
X16380968Y-18830055D02*
X16390491Y-18811008D01*
X16390491Y-18811008D02*
X16409539Y-18782436D01*
X16409539Y-18782436D02*
X16419063Y-18772912D01*
X16523825Y-18887198D02*
X16504777Y-18877674D01*
X16504777Y-18877674D02*
X16495253Y-18868150D01*
X16495253Y-18868150D02*
X16485729Y-18849103D01*
X16485729Y-18849103D02*
X16485729Y-18839579D01*
X16485729Y-18839579D02*
X16495253Y-18820531D01*
X16495253Y-18820531D02*
X16504777Y-18811008D01*
X16504777Y-18811008D02*
X16523825Y-18801484D01*
X16523825Y-18801484D02*
X16561920Y-18801484D01*
X16561920Y-18801484D02*
X16580968Y-18811008D01*
X16580968Y-18811008D02*
X16590491Y-18820531D01*
X16590491Y-18820531D02*
X16600015Y-18839579D01*
X16600015Y-18839579D02*
X16600015Y-18849103D01*
X16600015Y-18849103D02*
X16590491Y-18868150D01*
X16590491Y-18868150D02*
X16580968Y-18877674D01*
X16580968Y-18877674D02*
X16561920Y-18887198D01*
X16561920Y-18887198D02*
X16523825Y-18887198D01*
X16523825Y-18887198D02*
X16504777Y-18896722D01*
X16504777Y-18896722D02*
X16495253Y-18906246D01*
X16495253Y-18906246D02*
X16485729Y-18925293D01*
X16485729Y-18925293D02*
X16485729Y-18963389D01*
X16485729Y-18963389D02*
X16495253Y-18982436D01*
X16495253Y-18982436D02*
X16504777Y-18991960D01*
X16504777Y-18991960D02*
X16523825Y-19001484D01*
X16523825Y-19001484D02*
X16561920Y-19001484D01*
X16561920Y-19001484D02*
X16580968Y-18991960D01*
X16580968Y-18991960D02*
X16590491Y-18982436D01*
X16590491Y-18982436D02*
X16600015Y-18963389D01*
X16600015Y-18963389D02*
X16600015Y-18925293D01*
X16600015Y-18925293D02*
X16590491Y-18906246D01*
X16590491Y-18906246D02*
X16580968Y-18896722D01*
X16580968Y-18896722D02*
X16561920Y-18887198D01*
X16838111Y-19001484D02*
X16838111Y-18801484D01*
X16923825Y-19001484D02*
X16923825Y-18896722D01*
X16923825Y-18896722D02*
X16914301Y-18877674D01*
X16914301Y-18877674D02*
X16895253Y-18868150D01*
X16895253Y-18868150D02*
X16866682Y-18868150D01*
X16866682Y-18868150D02*
X16847634Y-18877674D01*
X16847634Y-18877674D02*
X16838111Y-18887198D01*
X17047634Y-19001484D02*
X17028587Y-18991960D01*
X17028587Y-18991960D02*
X17019063Y-18982436D01*
X17019063Y-18982436D02*
X17009539Y-18963389D01*
X17009539Y-18963389D02*
X17009539Y-18906246D01*
X17009539Y-18906246D02*
X17019063Y-18887198D01*
X17019063Y-18887198D02*
X17028587Y-18877674D01*
X17028587Y-18877674D02*
X17047634Y-18868150D01*
X17047634Y-18868150D02*
X17076206Y-18868150D01*
X17076206Y-18868150D02*
X17095253Y-18877674D01*
X17095253Y-18877674D02*
X17104777Y-18887198D01*
X17104777Y-18887198D02*
X17114301Y-18906246D01*
X17114301Y-18906246D02*
X17114301Y-18963389D01*
X17114301Y-18963389D02*
X17104777Y-18982436D01*
X17104777Y-18982436D02*
X17095253Y-18991960D01*
X17095253Y-18991960D02*
X17076206Y-19001484D01*
X17076206Y-19001484D02*
X17047634Y-19001484D01*
X17228587Y-19001484D02*
X17209539Y-18991960D01*
X17209539Y-18991960D02*
X17200015Y-18972912D01*
X17200015Y-18972912D02*
X17200015Y-18801484D01*
X17380968Y-18991960D02*
X17361920Y-19001484D01*
X17361920Y-19001484D02*
X17323825Y-19001484D01*
X17323825Y-19001484D02*
X17304777Y-18991960D01*
X17304777Y-18991960D02*
X17295253Y-18972912D01*
X17295253Y-18972912D02*
X17295253Y-18896722D01*
X17295253Y-18896722D02*
X17304777Y-18877674D01*
X17304777Y-18877674D02*
X17323825Y-18868150D01*
X17323825Y-18868150D02*
X17361920Y-18868150D01*
X17361920Y-18868150D02*
X17380968Y-18877674D01*
X17380968Y-18877674D02*
X17390492Y-18896722D01*
X17390492Y-18896722D02*
X17390492Y-18915770D01*
X17390492Y-18915770D02*
X17295253Y-18934817D01*
X17466682Y-18991960D02*
X17485730Y-19001484D01*
X17485730Y-19001484D02*
X17523825Y-19001484D01*
X17523825Y-19001484D02*
X17542873Y-18991960D01*
X17542873Y-18991960D02*
X17552396Y-18972912D01*
X17552396Y-18972912D02*
X17552396Y-18963389D01*
X17552396Y-18963389D02*
X17542873Y-18944341D01*
X17542873Y-18944341D02*
X17523825Y-18934817D01*
X17523825Y-18934817D02*
X17495253Y-18934817D01*
X17495253Y-18934817D02*
X17476206Y-18925293D01*
X17476206Y-18925293D02*
X17466682Y-18906246D01*
X17466682Y-18906246D02*
X17466682Y-18896722D01*
X17466682Y-18896722D02*
X17476206Y-18877674D01*
X17476206Y-18877674D02*
X17495253Y-18868150D01*
X17495253Y-18868150D02*
X17523825Y-18868150D01*
X17523825Y-18868150D02*
X17542873Y-18877674D01*
X17619063Y-19077674D02*
X17628587Y-19068150D01*
X17628587Y-19068150D02*
X17647634Y-19039579D01*
X17647634Y-19039579D02*
X17657158Y-19020531D01*
X17657158Y-19020531D02*
X17666682Y-18991960D01*
X17666682Y-18991960D02*
X17676206Y-18944341D01*
X17676206Y-18944341D02*
X17676206Y-18906246D01*
X17676206Y-18906246D02*
X17666682Y-18858627D01*
X17666682Y-18858627D02*
X17657158Y-18830055D01*
X17657158Y-18830055D02*
X17647634Y-18811008D01*
X17647634Y-18811008D02*
X17628587Y-18782436D01*
X17628587Y-18782436D02*
X17619063Y-18772912D01*
D12*
X12829000Y-19159000D02*
X12829000Y-19189000D01*
X12814000Y-19174000D02*
X12844000Y-19174000D01*
D11*
X13142872Y-19065484D02*
X13161920Y-19065484D01*
X13161920Y-19065484D02*
X13180967Y-19075008D01*
X13180967Y-19075008D02*
X13190491Y-19084531D01*
X13190491Y-19084531D02*
X13200015Y-19103579D01*
X13200015Y-19103579D02*
X13209539Y-19141674D01*
X13209539Y-19141674D02*
X13209539Y-19189293D01*
X13209539Y-19189293D02*
X13200015Y-19227389D01*
X13200015Y-19227389D02*
X13190491Y-19246436D01*
X13190491Y-19246436D02*
X13180967Y-19255960D01*
X13180967Y-19255960D02*
X13161920Y-19265484D01*
X13161920Y-19265484D02*
X13142872Y-19265484D01*
X13142872Y-19265484D02*
X13123824Y-19255960D01*
X13123824Y-19255960D02*
X13114301Y-19246436D01*
X13114301Y-19246436D02*
X13104777Y-19227389D01*
X13104777Y-19227389D02*
X13095253Y-19189293D01*
X13095253Y-19189293D02*
X13095253Y-19141674D01*
X13095253Y-19141674D02*
X13104777Y-19103579D01*
X13104777Y-19103579D02*
X13114301Y-19084531D01*
X13114301Y-19084531D02*
X13123824Y-19075008D01*
X13123824Y-19075008D02*
X13142872Y-19065484D01*
X13295253Y-19246436D02*
X13304777Y-19255960D01*
X13304777Y-19255960D02*
X13295253Y-19265484D01*
X13295253Y-19265484D02*
X13285729Y-19255960D01*
X13285729Y-19255960D02*
X13295253Y-19246436D01*
X13295253Y-19246436D02*
X13295253Y-19265484D01*
X13371443Y-19065484D02*
X13495253Y-19065484D01*
X13495253Y-19065484D02*
X13428586Y-19141674D01*
X13428586Y-19141674D02*
X13457158Y-19141674D01*
X13457158Y-19141674D02*
X13476205Y-19151198D01*
X13476205Y-19151198D02*
X13485729Y-19160722D01*
X13485729Y-19160722D02*
X13495253Y-19179770D01*
X13495253Y-19179770D02*
X13495253Y-19227389D01*
X13495253Y-19227389D02*
X13485729Y-19246436D01*
X13485729Y-19246436D02*
X13476205Y-19255960D01*
X13476205Y-19255960D02*
X13457158Y-19265484D01*
X13457158Y-19265484D02*
X13400015Y-19265484D01*
X13400015Y-19265484D02*
X13380967Y-19255960D01*
X13380967Y-19255960D02*
X13371443Y-19246436D01*
X13619062Y-19065484D02*
X13638110Y-19065484D01*
X13638110Y-19065484D02*
X13657158Y-19075008D01*
X13657158Y-19075008D02*
X13666682Y-19084531D01*
X13666682Y-19084531D02*
X13676205Y-19103579D01*
X13676205Y-19103579D02*
X13685729Y-19141674D01*
X13685729Y-19141674D02*
X13685729Y-19189293D01*
X13685729Y-19189293D02*
X13676205Y-19227389D01*
X13676205Y-19227389D02*
X13666682Y-19246436D01*
X13666682Y-19246436D02*
X13657158Y-19255960D01*
X13657158Y-19255960D02*
X13638110Y-19265484D01*
X13638110Y-19265484D02*
X13619062Y-19265484D01*
X13619062Y-19265484D02*
X13600015Y-19255960D01*
X13600015Y-19255960D02*
X13590491Y-19246436D01*
X13590491Y-19246436D02*
X13580967Y-19227389D01*
X13580967Y-19227389D02*
X13571443Y-19189293D01*
X13571443Y-19189293D02*
X13571443Y-19141674D01*
X13571443Y-19141674D02*
X13580967Y-19103579D01*
X13580967Y-19103579D02*
X13590491Y-19084531D01*
X13590491Y-19084531D02*
X13600015Y-19075008D01*
X13600015Y-19075008D02*
X13619062Y-19065484D01*
X13809539Y-19065484D02*
X13828586Y-19065484D01*
X13828586Y-19065484D02*
X13847634Y-19075008D01*
X13847634Y-19075008D02*
X13857158Y-19084531D01*
X13857158Y-19084531D02*
X13866682Y-19103579D01*
X13866682Y-19103579D02*
X13876205Y-19141674D01*
X13876205Y-19141674D02*
X13876205Y-19189293D01*
X13876205Y-19189293D02*
X13866682Y-19227389D01*
X13866682Y-19227389D02*
X13857158Y-19246436D01*
X13857158Y-19246436D02*
X13847634Y-19255960D01*
X13847634Y-19255960D02*
X13828586Y-19265484D01*
X13828586Y-19265484D02*
X13809539Y-19265484D01*
X13809539Y-19265484D02*
X13790491Y-19255960D01*
X13790491Y-19255960D02*
X13780967Y-19246436D01*
X13780967Y-19246436D02*
X13771443Y-19227389D01*
X13771443Y-19227389D02*
X13761920Y-19189293D01*
X13761920Y-19189293D02*
X13761920Y-19141674D01*
X13761920Y-19141674D02*
X13771443Y-19103579D01*
X13771443Y-19103579D02*
X13780967Y-19084531D01*
X13780967Y-19084531D02*
X13790491Y-19075008D01*
X13790491Y-19075008D02*
X13809539Y-19065484D01*
X13961920Y-19265484D02*
X13961920Y-19132150D01*
X13961920Y-19151198D02*
X13971443Y-19141674D01*
X13971443Y-19141674D02*
X13990491Y-19132150D01*
X13990491Y-19132150D02*
X14019063Y-19132150D01*
X14019063Y-19132150D02*
X14038110Y-19141674D01*
X14038110Y-19141674D02*
X14047634Y-19160722D01*
X14047634Y-19160722D02*
X14047634Y-19265484D01*
X14047634Y-19160722D02*
X14057158Y-19141674D01*
X14057158Y-19141674D02*
X14076205Y-19132150D01*
X14076205Y-19132150D02*
X14104777Y-19132150D01*
X14104777Y-19132150D02*
X14123824Y-19141674D01*
X14123824Y-19141674D02*
X14133348Y-19160722D01*
X14133348Y-19160722D02*
X14133348Y-19265484D01*
X14228586Y-19265484D02*
X14228586Y-19132150D01*
X14228586Y-19151198D02*
X14238110Y-19141674D01*
X14238110Y-19141674D02*
X14257158Y-19132150D01*
X14257158Y-19132150D02*
X14285729Y-19132150D01*
X14285729Y-19132150D02*
X14304777Y-19141674D01*
X14304777Y-19141674D02*
X14314301Y-19160722D01*
X14314301Y-19160722D02*
X14314301Y-19265484D01*
X14314301Y-19160722D02*
X14323824Y-19141674D01*
X14323824Y-19141674D02*
X14342872Y-19132150D01*
X14342872Y-19132150D02*
X14371443Y-19132150D01*
X14371443Y-19132150D02*
X14390491Y-19141674D01*
X14390491Y-19141674D02*
X14400015Y-19160722D01*
X14400015Y-19160722D02*
X14400015Y-19265484D01*
X14790491Y-19055960D02*
X14619063Y-19313103D01*
X15047634Y-19065484D02*
X15066682Y-19065484D01*
X15066682Y-19065484D02*
X15085729Y-19075008D01*
X15085729Y-19075008D02*
X15095253Y-19084531D01*
X15095253Y-19084531D02*
X15104777Y-19103579D01*
X15104777Y-19103579D02*
X15114301Y-19141674D01*
X15114301Y-19141674D02*
X15114301Y-19189293D01*
X15114301Y-19189293D02*
X15104777Y-19227389D01*
X15104777Y-19227389D02*
X15095253Y-19246436D01*
X15095253Y-19246436D02*
X15085729Y-19255960D01*
X15085729Y-19255960D02*
X15066682Y-19265484D01*
X15066682Y-19265484D02*
X15047634Y-19265484D01*
X15047634Y-19265484D02*
X15028586Y-19255960D01*
X15028586Y-19255960D02*
X15019063Y-19246436D01*
X15019063Y-19246436D02*
X15009539Y-19227389D01*
X15009539Y-19227389D02*
X15000015Y-19189293D01*
X15000015Y-19189293D02*
X15000015Y-19141674D01*
X15000015Y-19141674D02*
X15009539Y-19103579D01*
X15009539Y-19103579D02*
X15019063Y-19084531D01*
X15019063Y-19084531D02*
X15028586Y-19075008D01*
X15028586Y-19075008D02*
X15047634Y-19065484D01*
X15200015Y-19246436D02*
X15209539Y-19255960D01*
X15209539Y-19255960D02*
X15200015Y-19265484D01*
X15200015Y-19265484D02*
X15190491Y-19255960D01*
X15190491Y-19255960D02*
X15200015Y-19246436D01*
X15200015Y-19246436D02*
X15200015Y-19265484D01*
X15333348Y-19065484D02*
X15352396Y-19065484D01*
X15352396Y-19065484D02*
X15371444Y-19075008D01*
X15371444Y-19075008D02*
X15380967Y-19084531D01*
X15380967Y-19084531D02*
X15390491Y-19103579D01*
X15390491Y-19103579D02*
X15400015Y-19141674D01*
X15400015Y-19141674D02*
X15400015Y-19189293D01*
X15400015Y-19189293D02*
X15390491Y-19227389D01*
X15390491Y-19227389D02*
X15380967Y-19246436D01*
X15380967Y-19246436D02*
X15371444Y-19255960D01*
X15371444Y-19255960D02*
X15352396Y-19265484D01*
X15352396Y-19265484D02*
X15333348Y-19265484D01*
X15333348Y-19265484D02*
X15314301Y-19255960D01*
X15314301Y-19255960D02*
X15304777Y-19246436D01*
X15304777Y-19246436D02*
X15295253Y-19227389D01*
X15295253Y-19227389D02*
X15285729Y-19189293D01*
X15285729Y-19189293D02*
X15285729Y-19141674D01*
X15285729Y-19141674D02*
X15295253Y-19103579D01*
X15295253Y-19103579D02*
X15304777Y-19084531D01*
X15304777Y-19084531D02*
X15314301Y-19075008D01*
X15314301Y-19075008D02*
X15333348Y-19065484D01*
X15590491Y-19265484D02*
X15476206Y-19265484D01*
X15533348Y-19265484D02*
X15533348Y-19065484D01*
X15533348Y-19065484D02*
X15514301Y-19094055D01*
X15514301Y-19094055D02*
X15495253Y-19113103D01*
X15495253Y-19113103D02*
X15476206Y-19122627D01*
X15780967Y-19265484D02*
X15666682Y-19265484D01*
X15723825Y-19265484D02*
X15723825Y-19065484D01*
X15723825Y-19065484D02*
X15704777Y-19094055D01*
X15704777Y-19094055D02*
X15685729Y-19113103D01*
X15685729Y-19113103D02*
X15666682Y-19122627D01*
X15895253Y-19151198D02*
X15876206Y-19141674D01*
X15876206Y-19141674D02*
X15866682Y-19132150D01*
X15866682Y-19132150D02*
X15857158Y-19113103D01*
X15857158Y-19113103D02*
X15857158Y-19103579D01*
X15857158Y-19103579D02*
X15866682Y-19084531D01*
X15866682Y-19084531D02*
X15876206Y-19075008D01*
X15876206Y-19075008D02*
X15895253Y-19065484D01*
X15895253Y-19065484D02*
X15933348Y-19065484D01*
X15933348Y-19065484D02*
X15952396Y-19075008D01*
X15952396Y-19075008D02*
X15961920Y-19084531D01*
X15961920Y-19084531D02*
X15971444Y-19103579D01*
X15971444Y-19103579D02*
X15971444Y-19113103D01*
X15971444Y-19113103D02*
X15961920Y-19132150D01*
X15961920Y-19132150D02*
X15952396Y-19141674D01*
X15952396Y-19141674D02*
X15933348Y-19151198D01*
X15933348Y-19151198D02*
X15895253Y-19151198D01*
X15895253Y-19151198D02*
X15876206Y-19160722D01*
X15876206Y-19160722D02*
X15866682Y-19170246D01*
X15866682Y-19170246D02*
X15857158Y-19189293D01*
X15857158Y-19189293D02*
X15857158Y-19227389D01*
X15857158Y-19227389D02*
X15866682Y-19246436D01*
X15866682Y-19246436D02*
X15876206Y-19255960D01*
X15876206Y-19255960D02*
X15895253Y-19265484D01*
X15895253Y-19265484D02*
X15933348Y-19265484D01*
X15933348Y-19265484D02*
X15952396Y-19255960D01*
X15952396Y-19255960D02*
X15961920Y-19246436D01*
X15961920Y-19246436D02*
X15971444Y-19227389D01*
X15971444Y-19227389D02*
X15971444Y-19189293D01*
X15971444Y-19189293D02*
X15961920Y-19170246D01*
X15961920Y-19170246D02*
X15952396Y-19160722D01*
X15952396Y-19160722D02*
X15933348Y-19151198D01*
X16047634Y-19065484D02*
X16047634Y-19103579D01*
X16123825Y-19065484D02*
X16123825Y-19103579D01*
X16419063Y-19341674D02*
X16409539Y-19332150D01*
X16409539Y-19332150D02*
X16390491Y-19303579D01*
X16390491Y-19303579D02*
X16380968Y-19284531D01*
X16380968Y-19284531D02*
X16371444Y-19255960D01*
X16371444Y-19255960D02*
X16361920Y-19208341D01*
X16361920Y-19208341D02*
X16361920Y-19170246D01*
X16361920Y-19170246D02*
X16371444Y-19122627D01*
X16371444Y-19122627D02*
X16380968Y-19094055D01*
X16380968Y-19094055D02*
X16390491Y-19075008D01*
X16390491Y-19075008D02*
X16409539Y-19046436D01*
X16409539Y-19046436D02*
X16419063Y-19036912D01*
X16580968Y-19065484D02*
X16542872Y-19065484D01*
X16542872Y-19065484D02*
X16523825Y-19075008D01*
X16523825Y-19075008D02*
X16514301Y-19084531D01*
X16514301Y-19084531D02*
X16495253Y-19113103D01*
X16495253Y-19113103D02*
X16485729Y-19151198D01*
X16485729Y-19151198D02*
X16485729Y-19227389D01*
X16485729Y-19227389D02*
X16495253Y-19246436D01*
X16495253Y-19246436D02*
X16504777Y-19255960D01*
X16504777Y-19255960D02*
X16523825Y-19265484D01*
X16523825Y-19265484D02*
X16561920Y-19265484D01*
X16561920Y-19265484D02*
X16580968Y-19255960D01*
X16580968Y-19255960D02*
X16590491Y-19246436D01*
X16590491Y-19246436D02*
X16600015Y-19227389D01*
X16600015Y-19227389D02*
X16600015Y-19179770D01*
X16600015Y-19179770D02*
X16590491Y-19160722D01*
X16590491Y-19160722D02*
X16580968Y-19151198D01*
X16580968Y-19151198D02*
X16561920Y-19141674D01*
X16561920Y-19141674D02*
X16523825Y-19141674D01*
X16523825Y-19141674D02*
X16504777Y-19151198D01*
X16504777Y-19151198D02*
X16495253Y-19160722D01*
X16495253Y-19160722D02*
X16485729Y-19179770D01*
X16838111Y-19265484D02*
X16838111Y-19065484D01*
X16923825Y-19265484D02*
X16923825Y-19160722D01*
X16923825Y-19160722D02*
X16914301Y-19141674D01*
X16914301Y-19141674D02*
X16895253Y-19132150D01*
X16895253Y-19132150D02*
X16866682Y-19132150D01*
X16866682Y-19132150D02*
X16847634Y-19141674D01*
X16847634Y-19141674D02*
X16838111Y-19151198D01*
X17047634Y-19265484D02*
X17028587Y-19255960D01*
X17028587Y-19255960D02*
X17019063Y-19246436D01*
X17019063Y-19246436D02*
X17009539Y-19227389D01*
X17009539Y-19227389D02*
X17009539Y-19170246D01*
X17009539Y-19170246D02*
X17019063Y-19151198D01*
X17019063Y-19151198D02*
X17028587Y-19141674D01*
X17028587Y-19141674D02*
X17047634Y-19132150D01*
X17047634Y-19132150D02*
X17076206Y-19132150D01*
X17076206Y-19132150D02*
X17095253Y-19141674D01*
X17095253Y-19141674D02*
X17104777Y-19151198D01*
X17104777Y-19151198D02*
X17114301Y-19170246D01*
X17114301Y-19170246D02*
X17114301Y-19227389D01*
X17114301Y-19227389D02*
X17104777Y-19246436D01*
X17104777Y-19246436D02*
X17095253Y-19255960D01*
X17095253Y-19255960D02*
X17076206Y-19265484D01*
X17076206Y-19265484D02*
X17047634Y-19265484D01*
X17228587Y-19265484D02*
X17209539Y-19255960D01*
X17209539Y-19255960D02*
X17200015Y-19236912D01*
X17200015Y-19236912D02*
X17200015Y-19065484D01*
X17380968Y-19255960D02*
X17361920Y-19265484D01*
X17361920Y-19265484D02*
X17323825Y-19265484D01*
X17323825Y-19265484D02*
X17304777Y-19255960D01*
X17304777Y-19255960D02*
X17295253Y-19236912D01*
X17295253Y-19236912D02*
X17295253Y-19160722D01*
X17295253Y-19160722D02*
X17304777Y-19141674D01*
X17304777Y-19141674D02*
X17323825Y-19132150D01*
X17323825Y-19132150D02*
X17361920Y-19132150D01*
X17361920Y-19132150D02*
X17380968Y-19141674D01*
X17380968Y-19141674D02*
X17390492Y-19160722D01*
X17390492Y-19160722D02*
X17390492Y-19179770D01*
X17390492Y-19179770D02*
X17295253Y-19198817D01*
X17466682Y-19255960D02*
X17485730Y-19265484D01*
X17485730Y-19265484D02*
X17523825Y-19265484D01*
X17523825Y-19265484D02*
X17542873Y-19255960D01*
X17542873Y-19255960D02*
X17552396Y-19236912D01*
X17552396Y-19236912D02*
X17552396Y-19227389D01*
X17552396Y-19227389D02*
X17542873Y-19208341D01*
X17542873Y-19208341D02*
X17523825Y-19198817D01*
X17523825Y-19198817D02*
X17495253Y-19198817D01*
X17495253Y-19198817D02*
X17476206Y-19189293D01*
X17476206Y-19189293D02*
X17466682Y-19170246D01*
X17466682Y-19170246D02*
X17466682Y-19160722D01*
X17466682Y-19160722D02*
X17476206Y-19141674D01*
X17476206Y-19141674D02*
X17495253Y-19132150D01*
X17495253Y-19132150D02*
X17523825Y-19132150D01*
X17523825Y-19132150D02*
X17542873Y-19141674D01*
X17619063Y-19341674D02*
X17628587Y-19332150D01*
X17628587Y-19332150D02*
X17647634Y-19303579D01*
X17647634Y-19303579D02*
X17657158Y-19284531D01*
X17657158Y-19284531D02*
X17666682Y-19255960D01*
X17666682Y-19255960D02*
X17676206Y-19208341D01*
X17676206Y-19208341D02*
X17676206Y-19170246D01*
X17676206Y-19170246D02*
X17666682Y-19122627D01*
X17666682Y-19122627D02*
X17657158Y-19094055D01*
X17657158Y-19094055D02*
X17647634Y-19075008D01*
X17647634Y-19075008D02*
X17628587Y-19046436D01*
X17628587Y-19046436D02*
X17619063Y-19036912D01*
D12*
X12835213Y-19459213D02*
X12835213Y-19416787D01*
X12792787Y-19416787D01*
X12792787Y-19459213D01*
X12835213Y-19459213D01*
D11*
X13142872Y-19329484D02*
X13161920Y-19329484D01*
X13161920Y-19329484D02*
X13180967Y-19339008D01*
X13180967Y-19339008D02*
X13190491Y-19348531D01*
X13190491Y-19348531D02*
X13200015Y-19367579D01*
X13200015Y-19367579D02*
X13209539Y-19405674D01*
X13209539Y-19405674D02*
X13209539Y-19453293D01*
X13209539Y-19453293D02*
X13200015Y-19491389D01*
X13200015Y-19491389D02*
X13190491Y-19510436D01*
X13190491Y-19510436D02*
X13180967Y-19519960D01*
X13180967Y-19519960D02*
X13161920Y-19529484D01*
X13161920Y-19529484D02*
X13142872Y-19529484D01*
X13142872Y-19529484D02*
X13123824Y-19519960D01*
X13123824Y-19519960D02*
X13114301Y-19510436D01*
X13114301Y-19510436D02*
X13104777Y-19491389D01*
X13104777Y-19491389D02*
X13095253Y-19453293D01*
X13095253Y-19453293D02*
X13095253Y-19405674D01*
X13095253Y-19405674D02*
X13104777Y-19367579D01*
X13104777Y-19367579D02*
X13114301Y-19348531D01*
X13114301Y-19348531D02*
X13123824Y-19339008D01*
X13123824Y-19339008D02*
X13142872Y-19329484D01*
X13295253Y-19510436D02*
X13304777Y-19519960D01*
X13304777Y-19519960D02*
X13295253Y-19529484D01*
X13295253Y-19529484D02*
X13285729Y-19519960D01*
X13285729Y-19519960D02*
X13295253Y-19510436D01*
X13295253Y-19510436D02*
X13295253Y-19529484D01*
X13476205Y-19329484D02*
X13438110Y-19329484D01*
X13438110Y-19329484D02*
X13419062Y-19339008D01*
X13419062Y-19339008D02*
X13409539Y-19348531D01*
X13409539Y-19348531D02*
X13390491Y-19377103D01*
X13390491Y-19377103D02*
X13380967Y-19415198D01*
X13380967Y-19415198D02*
X13380967Y-19491389D01*
X13380967Y-19491389D02*
X13390491Y-19510436D01*
X13390491Y-19510436D02*
X13400015Y-19519960D01*
X13400015Y-19519960D02*
X13419062Y-19529484D01*
X13419062Y-19529484D02*
X13457158Y-19529484D01*
X13457158Y-19529484D02*
X13476205Y-19519960D01*
X13476205Y-19519960D02*
X13485729Y-19510436D01*
X13485729Y-19510436D02*
X13495253Y-19491389D01*
X13495253Y-19491389D02*
X13495253Y-19443770D01*
X13495253Y-19443770D02*
X13485729Y-19424722D01*
X13485729Y-19424722D02*
X13476205Y-19415198D01*
X13476205Y-19415198D02*
X13457158Y-19405674D01*
X13457158Y-19405674D02*
X13419062Y-19405674D01*
X13419062Y-19405674D02*
X13400015Y-19415198D01*
X13400015Y-19415198D02*
X13390491Y-19424722D01*
X13390491Y-19424722D02*
X13380967Y-19443770D01*
X13619062Y-19329484D02*
X13638110Y-19329484D01*
X13638110Y-19329484D02*
X13657158Y-19339008D01*
X13657158Y-19339008D02*
X13666682Y-19348531D01*
X13666682Y-19348531D02*
X13676205Y-19367579D01*
X13676205Y-19367579D02*
X13685729Y-19405674D01*
X13685729Y-19405674D02*
X13685729Y-19453293D01*
X13685729Y-19453293D02*
X13676205Y-19491389D01*
X13676205Y-19491389D02*
X13666682Y-19510436D01*
X13666682Y-19510436D02*
X13657158Y-19519960D01*
X13657158Y-19519960D02*
X13638110Y-19529484D01*
X13638110Y-19529484D02*
X13619062Y-19529484D01*
X13619062Y-19529484D02*
X13600015Y-19519960D01*
X13600015Y-19519960D02*
X13590491Y-19510436D01*
X13590491Y-19510436D02*
X13580967Y-19491389D01*
X13580967Y-19491389D02*
X13571443Y-19453293D01*
X13571443Y-19453293D02*
X13571443Y-19405674D01*
X13571443Y-19405674D02*
X13580967Y-19367579D01*
X13580967Y-19367579D02*
X13590491Y-19348531D01*
X13590491Y-19348531D02*
X13600015Y-19339008D01*
X13600015Y-19339008D02*
X13619062Y-19329484D01*
X13809539Y-19329484D02*
X13828586Y-19329484D01*
X13828586Y-19329484D02*
X13847634Y-19339008D01*
X13847634Y-19339008D02*
X13857158Y-19348531D01*
X13857158Y-19348531D02*
X13866682Y-19367579D01*
X13866682Y-19367579D02*
X13876205Y-19405674D01*
X13876205Y-19405674D02*
X13876205Y-19453293D01*
X13876205Y-19453293D02*
X13866682Y-19491389D01*
X13866682Y-19491389D02*
X13857158Y-19510436D01*
X13857158Y-19510436D02*
X13847634Y-19519960D01*
X13847634Y-19519960D02*
X13828586Y-19529484D01*
X13828586Y-19529484D02*
X13809539Y-19529484D01*
X13809539Y-19529484D02*
X13790491Y-19519960D01*
X13790491Y-19519960D02*
X13780967Y-19510436D01*
X13780967Y-19510436D02*
X13771443Y-19491389D01*
X13771443Y-19491389D02*
X13761920Y-19453293D01*
X13761920Y-19453293D02*
X13761920Y-19405674D01*
X13761920Y-19405674D02*
X13771443Y-19367579D01*
X13771443Y-19367579D02*
X13780967Y-19348531D01*
X13780967Y-19348531D02*
X13790491Y-19339008D01*
X13790491Y-19339008D02*
X13809539Y-19329484D01*
X13961920Y-19529484D02*
X13961920Y-19396150D01*
X13961920Y-19415198D02*
X13971443Y-19405674D01*
X13971443Y-19405674D02*
X13990491Y-19396150D01*
X13990491Y-19396150D02*
X14019063Y-19396150D01*
X14019063Y-19396150D02*
X14038110Y-19405674D01*
X14038110Y-19405674D02*
X14047634Y-19424722D01*
X14047634Y-19424722D02*
X14047634Y-19529484D01*
X14047634Y-19424722D02*
X14057158Y-19405674D01*
X14057158Y-19405674D02*
X14076205Y-19396150D01*
X14076205Y-19396150D02*
X14104777Y-19396150D01*
X14104777Y-19396150D02*
X14123824Y-19405674D01*
X14123824Y-19405674D02*
X14133348Y-19424722D01*
X14133348Y-19424722D02*
X14133348Y-19529484D01*
X14228586Y-19529484D02*
X14228586Y-19396150D01*
X14228586Y-19415198D02*
X14238110Y-19405674D01*
X14238110Y-19405674D02*
X14257158Y-19396150D01*
X14257158Y-19396150D02*
X14285729Y-19396150D01*
X14285729Y-19396150D02*
X14304777Y-19405674D01*
X14304777Y-19405674D02*
X14314301Y-19424722D01*
X14314301Y-19424722D02*
X14314301Y-19529484D01*
X14314301Y-19424722D02*
X14323824Y-19405674D01*
X14323824Y-19405674D02*
X14342872Y-19396150D01*
X14342872Y-19396150D02*
X14371443Y-19396150D01*
X14371443Y-19396150D02*
X14390491Y-19405674D01*
X14390491Y-19405674D02*
X14400015Y-19424722D01*
X14400015Y-19424722D02*
X14400015Y-19529484D01*
X14790491Y-19319960D02*
X14619063Y-19577103D01*
X15047634Y-19329484D02*
X15066682Y-19329484D01*
X15066682Y-19329484D02*
X15085729Y-19339008D01*
X15085729Y-19339008D02*
X15095253Y-19348531D01*
X15095253Y-19348531D02*
X15104777Y-19367579D01*
X15104777Y-19367579D02*
X15114301Y-19405674D01*
X15114301Y-19405674D02*
X15114301Y-19453293D01*
X15114301Y-19453293D02*
X15104777Y-19491389D01*
X15104777Y-19491389D02*
X15095253Y-19510436D01*
X15095253Y-19510436D02*
X15085729Y-19519960D01*
X15085729Y-19519960D02*
X15066682Y-19529484D01*
X15066682Y-19529484D02*
X15047634Y-19529484D01*
X15047634Y-19529484D02*
X15028586Y-19519960D01*
X15028586Y-19519960D02*
X15019063Y-19510436D01*
X15019063Y-19510436D02*
X15009539Y-19491389D01*
X15009539Y-19491389D02*
X15000015Y-19453293D01*
X15000015Y-19453293D02*
X15000015Y-19405674D01*
X15000015Y-19405674D02*
X15009539Y-19367579D01*
X15009539Y-19367579D02*
X15019063Y-19348531D01*
X15019063Y-19348531D02*
X15028586Y-19339008D01*
X15028586Y-19339008D02*
X15047634Y-19329484D01*
X15200015Y-19510436D02*
X15209539Y-19519960D01*
X15209539Y-19519960D02*
X15200015Y-19529484D01*
X15200015Y-19529484D02*
X15190491Y-19519960D01*
X15190491Y-19519960D02*
X15200015Y-19510436D01*
X15200015Y-19510436D02*
X15200015Y-19529484D01*
X15333348Y-19329484D02*
X15352396Y-19329484D01*
X15352396Y-19329484D02*
X15371444Y-19339008D01*
X15371444Y-19339008D02*
X15380967Y-19348531D01*
X15380967Y-19348531D02*
X15390491Y-19367579D01*
X15390491Y-19367579D02*
X15400015Y-19405674D01*
X15400015Y-19405674D02*
X15400015Y-19453293D01*
X15400015Y-19453293D02*
X15390491Y-19491389D01*
X15390491Y-19491389D02*
X15380967Y-19510436D01*
X15380967Y-19510436D02*
X15371444Y-19519960D01*
X15371444Y-19519960D02*
X15352396Y-19529484D01*
X15352396Y-19529484D02*
X15333348Y-19529484D01*
X15333348Y-19529484D02*
X15314301Y-19519960D01*
X15314301Y-19519960D02*
X15304777Y-19510436D01*
X15304777Y-19510436D02*
X15295253Y-19491389D01*
X15295253Y-19491389D02*
X15285729Y-19453293D01*
X15285729Y-19453293D02*
X15285729Y-19405674D01*
X15285729Y-19405674D02*
X15295253Y-19367579D01*
X15295253Y-19367579D02*
X15304777Y-19348531D01*
X15304777Y-19348531D02*
X15314301Y-19339008D01*
X15314301Y-19339008D02*
X15333348Y-19329484D01*
X15476206Y-19348531D02*
X15485729Y-19339008D01*
X15485729Y-19339008D02*
X15504777Y-19329484D01*
X15504777Y-19329484D02*
X15552396Y-19329484D01*
X15552396Y-19329484D02*
X15571444Y-19339008D01*
X15571444Y-19339008D02*
X15580967Y-19348531D01*
X15580967Y-19348531D02*
X15590491Y-19367579D01*
X15590491Y-19367579D02*
X15590491Y-19386627D01*
X15590491Y-19386627D02*
X15580967Y-19415198D01*
X15580967Y-19415198D02*
X15466682Y-19529484D01*
X15466682Y-19529484D02*
X15590491Y-19529484D01*
X15657158Y-19329484D02*
X15780967Y-19329484D01*
X15780967Y-19329484D02*
X15714301Y-19405674D01*
X15714301Y-19405674D02*
X15742872Y-19405674D01*
X15742872Y-19405674D02*
X15761920Y-19415198D01*
X15761920Y-19415198D02*
X15771444Y-19424722D01*
X15771444Y-19424722D02*
X15780967Y-19443770D01*
X15780967Y-19443770D02*
X15780967Y-19491389D01*
X15780967Y-19491389D02*
X15771444Y-19510436D01*
X15771444Y-19510436D02*
X15761920Y-19519960D01*
X15761920Y-19519960D02*
X15742872Y-19529484D01*
X15742872Y-19529484D02*
X15685729Y-19529484D01*
X15685729Y-19529484D02*
X15666682Y-19519960D01*
X15666682Y-19519960D02*
X15657158Y-19510436D01*
X15952396Y-19329484D02*
X15914301Y-19329484D01*
X15914301Y-19329484D02*
X15895253Y-19339008D01*
X15895253Y-19339008D02*
X15885729Y-19348531D01*
X15885729Y-19348531D02*
X15866682Y-19377103D01*
X15866682Y-19377103D02*
X15857158Y-19415198D01*
X15857158Y-19415198D02*
X15857158Y-19491389D01*
X15857158Y-19491389D02*
X15866682Y-19510436D01*
X15866682Y-19510436D02*
X15876206Y-19519960D01*
X15876206Y-19519960D02*
X15895253Y-19529484D01*
X15895253Y-19529484D02*
X15933348Y-19529484D01*
X15933348Y-19529484D02*
X15952396Y-19519960D01*
X15952396Y-19519960D02*
X15961920Y-19510436D01*
X15961920Y-19510436D02*
X15971444Y-19491389D01*
X15971444Y-19491389D02*
X15971444Y-19443770D01*
X15971444Y-19443770D02*
X15961920Y-19424722D01*
X15961920Y-19424722D02*
X15952396Y-19415198D01*
X15952396Y-19415198D02*
X15933348Y-19405674D01*
X15933348Y-19405674D02*
X15895253Y-19405674D01*
X15895253Y-19405674D02*
X15876206Y-19415198D01*
X15876206Y-19415198D02*
X15866682Y-19424722D01*
X15866682Y-19424722D02*
X15857158Y-19443770D01*
X16047634Y-19329484D02*
X16047634Y-19367579D01*
X16123825Y-19329484D02*
X16123825Y-19367579D01*
X16419063Y-19605674D02*
X16409539Y-19596150D01*
X16409539Y-19596150D02*
X16390491Y-19567579D01*
X16390491Y-19567579D02*
X16380968Y-19548531D01*
X16380968Y-19548531D02*
X16371444Y-19519960D01*
X16371444Y-19519960D02*
X16361920Y-19472341D01*
X16361920Y-19472341D02*
X16361920Y-19434246D01*
X16361920Y-19434246D02*
X16371444Y-19386627D01*
X16371444Y-19386627D02*
X16380968Y-19358055D01*
X16380968Y-19358055D02*
X16390491Y-19339008D01*
X16390491Y-19339008D02*
X16409539Y-19310436D01*
X16409539Y-19310436D02*
X16419063Y-19300912D01*
X16533348Y-19329484D02*
X16552396Y-19329484D01*
X16552396Y-19329484D02*
X16571444Y-19339008D01*
X16571444Y-19339008D02*
X16580968Y-19348531D01*
X16580968Y-19348531D02*
X16590491Y-19367579D01*
X16590491Y-19367579D02*
X16600015Y-19405674D01*
X16600015Y-19405674D02*
X16600015Y-19453293D01*
X16600015Y-19453293D02*
X16590491Y-19491389D01*
X16590491Y-19491389D02*
X16580968Y-19510436D01*
X16580968Y-19510436D02*
X16571444Y-19519960D01*
X16571444Y-19519960D02*
X16552396Y-19529484D01*
X16552396Y-19529484D02*
X16533348Y-19529484D01*
X16533348Y-19529484D02*
X16514301Y-19519960D01*
X16514301Y-19519960D02*
X16504777Y-19510436D01*
X16504777Y-19510436D02*
X16495253Y-19491389D01*
X16495253Y-19491389D02*
X16485729Y-19453293D01*
X16485729Y-19453293D02*
X16485729Y-19405674D01*
X16485729Y-19405674D02*
X16495253Y-19367579D01*
X16495253Y-19367579D02*
X16504777Y-19348531D01*
X16504777Y-19348531D02*
X16514301Y-19339008D01*
X16514301Y-19339008D02*
X16533348Y-19329484D01*
X16838111Y-19529484D02*
X16838111Y-19329484D01*
X16923825Y-19529484D02*
X16923825Y-19424722D01*
X16923825Y-19424722D02*
X16914301Y-19405674D01*
X16914301Y-19405674D02*
X16895253Y-19396150D01*
X16895253Y-19396150D02*
X16866682Y-19396150D01*
X16866682Y-19396150D02*
X16847634Y-19405674D01*
X16847634Y-19405674D02*
X16838111Y-19415198D01*
X17047634Y-19529484D02*
X17028587Y-19519960D01*
X17028587Y-19519960D02*
X17019063Y-19510436D01*
X17019063Y-19510436D02*
X17009539Y-19491389D01*
X17009539Y-19491389D02*
X17009539Y-19434246D01*
X17009539Y-19434246D02*
X17019063Y-19415198D01*
X17019063Y-19415198D02*
X17028587Y-19405674D01*
X17028587Y-19405674D02*
X17047634Y-19396150D01*
X17047634Y-19396150D02*
X17076206Y-19396150D01*
X17076206Y-19396150D02*
X17095253Y-19405674D01*
X17095253Y-19405674D02*
X17104777Y-19415198D01*
X17104777Y-19415198D02*
X17114301Y-19434246D01*
X17114301Y-19434246D02*
X17114301Y-19491389D01*
X17114301Y-19491389D02*
X17104777Y-19510436D01*
X17104777Y-19510436D02*
X17095253Y-19519960D01*
X17095253Y-19519960D02*
X17076206Y-19529484D01*
X17076206Y-19529484D02*
X17047634Y-19529484D01*
X17228587Y-19529484D02*
X17209539Y-19519960D01*
X17209539Y-19519960D02*
X17200015Y-19500912D01*
X17200015Y-19500912D02*
X17200015Y-19329484D01*
X17380968Y-19519960D02*
X17361920Y-19529484D01*
X17361920Y-19529484D02*
X17323825Y-19529484D01*
X17323825Y-19529484D02*
X17304777Y-19519960D01*
X17304777Y-19519960D02*
X17295253Y-19500912D01*
X17295253Y-19500912D02*
X17295253Y-19424722D01*
X17295253Y-19424722D02*
X17304777Y-19405674D01*
X17304777Y-19405674D02*
X17323825Y-19396150D01*
X17323825Y-19396150D02*
X17361920Y-19396150D01*
X17361920Y-19396150D02*
X17380968Y-19405674D01*
X17380968Y-19405674D02*
X17390492Y-19424722D01*
X17390492Y-19424722D02*
X17390492Y-19443770D01*
X17390492Y-19443770D02*
X17295253Y-19462817D01*
X17466682Y-19519960D02*
X17485730Y-19529484D01*
X17485730Y-19529484D02*
X17523825Y-19529484D01*
X17523825Y-19529484D02*
X17542873Y-19519960D01*
X17542873Y-19519960D02*
X17552396Y-19500912D01*
X17552396Y-19500912D02*
X17552396Y-19491389D01*
X17552396Y-19491389D02*
X17542873Y-19472341D01*
X17542873Y-19472341D02*
X17523825Y-19462817D01*
X17523825Y-19462817D02*
X17495253Y-19462817D01*
X17495253Y-19462817D02*
X17476206Y-19453293D01*
X17476206Y-19453293D02*
X17466682Y-19434246D01*
X17466682Y-19434246D02*
X17466682Y-19424722D01*
X17466682Y-19424722D02*
X17476206Y-19405674D01*
X17476206Y-19405674D02*
X17495253Y-19396150D01*
X17495253Y-19396150D02*
X17523825Y-19396150D01*
X17523825Y-19396150D02*
X17542873Y-19405674D01*
X17790492Y-19453293D02*
X17942873Y-19453293D01*
X17866682Y-19529484D02*
X17866682Y-19377103D01*
X18276206Y-19396150D02*
X18276206Y-19529484D01*
X18228587Y-19319960D02*
X18180968Y-19462817D01*
X18180968Y-19462817D02*
X18304777Y-19462817D01*
X18523825Y-19519960D02*
X18542873Y-19529484D01*
X18542873Y-19529484D02*
X18580968Y-19529484D01*
X18580968Y-19529484D02*
X18600016Y-19519960D01*
X18600016Y-19519960D02*
X18609539Y-19500912D01*
X18609539Y-19500912D02*
X18609539Y-19491389D01*
X18609539Y-19491389D02*
X18600016Y-19472341D01*
X18600016Y-19472341D02*
X18580968Y-19462817D01*
X18580968Y-19462817D02*
X18552396Y-19462817D01*
X18552396Y-19462817D02*
X18533349Y-19453293D01*
X18533349Y-19453293D02*
X18523825Y-19434246D01*
X18523825Y-19434246D02*
X18523825Y-19424722D01*
X18523825Y-19424722D02*
X18533349Y-19405674D01*
X18533349Y-19405674D02*
X18552396Y-19396150D01*
X18552396Y-19396150D02*
X18580968Y-19396150D01*
X18580968Y-19396150D02*
X18600016Y-19405674D01*
X18723825Y-19529484D02*
X18704777Y-19519960D01*
X18704777Y-19519960D02*
X18695254Y-19500912D01*
X18695254Y-19500912D02*
X18695254Y-19329484D01*
X18828587Y-19529484D02*
X18809539Y-19519960D01*
X18809539Y-19519960D02*
X18800016Y-19510436D01*
X18800016Y-19510436D02*
X18790492Y-19491389D01*
X18790492Y-19491389D02*
X18790492Y-19434246D01*
X18790492Y-19434246D02*
X18800016Y-19415198D01*
X18800016Y-19415198D02*
X18809539Y-19405674D01*
X18809539Y-19405674D02*
X18828587Y-19396150D01*
X18828587Y-19396150D02*
X18857158Y-19396150D01*
X18857158Y-19396150D02*
X18876206Y-19405674D01*
X18876206Y-19405674D02*
X18885730Y-19415198D01*
X18885730Y-19415198D02*
X18895254Y-19434246D01*
X18895254Y-19434246D02*
X18895254Y-19491389D01*
X18895254Y-19491389D02*
X18885730Y-19510436D01*
X18885730Y-19510436D02*
X18876206Y-19519960D01*
X18876206Y-19519960D02*
X18857158Y-19529484D01*
X18857158Y-19529484D02*
X18828587Y-19529484D01*
X18952397Y-19396150D02*
X19028587Y-19396150D01*
X18980968Y-19329484D02*
X18980968Y-19500912D01*
X18980968Y-19500912D02*
X18990492Y-19519960D01*
X18990492Y-19519960D02*
X19009539Y-19529484D01*
X19009539Y-19529484D02*
X19028587Y-19529484D01*
X19085730Y-19519960D02*
X19104777Y-19529484D01*
X19104777Y-19529484D02*
X19142873Y-19529484D01*
X19142873Y-19529484D02*
X19161920Y-19519960D01*
X19161920Y-19519960D02*
X19171444Y-19500912D01*
X19171444Y-19500912D02*
X19171444Y-19491389D01*
X19171444Y-19491389D02*
X19161920Y-19472341D01*
X19161920Y-19472341D02*
X19142873Y-19462817D01*
X19142873Y-19462817D02*
X19114301Y-19462817D01*
X19114301Y-19462817D02*
X19095254Y-19453293D01*
X19095254Y-19453293D02*
X19085730Y-19434246D01*
X19085730Y-19434246D02*
X19085730Y-19424722D01*
X19085730Y-19424722D02*
X19095254Y-19405674D01*
X19095254Y-19405674D02*
X19114301Y-19396150D01*
X19114301Y-19396150D02*
X19142873Y-19396150D01*
X19142873Y-19396150D02*
X19161920Y-19405674D01*
X19238111Y-19605674D02*
X19247635Y-19596150D01*
X19247635Y-19596150D02*
X19266682Y-19567579D01*
X19266682Y-19567579D02*
X19276206Y-19548531D01*
X19276206Y-19548531D02*
X19285730Y-19519960D01*
X19285730Y-19519960D02*
X19295254Y-19472341D01*
X19295254Y-19472341D02*
X19295254Y-19434246D01*
X19295254Y-19434246D02*
X19285730Y-19386627D01*
X19285730Y-19386627D02*
X19276206Y-19358055D01*
X19276206Y-19358055D02*
X19266682Y-19339008D01*
X19266682Y-19339008D02*
X19247635Y-19310436D01*
X19247635Y-19310436D02*
X19238111Y-19300912D01*
D12*
X12799550Y-19746450D02*
X12844000Y-19702000D01*
X12799550Y-19657550D01*
X12755100Y-19702000D01*
X12799550Y-19746450D01*
D11*
X13142872Y-19593484D02*
X13161920Y-19593484D01*
X13161920Y-19593484D02*
X13180967Y-19603008D01*
X13180967Y-19603008D02*
X13190491Y-19612531D01*
X13190491Y-19612531D02*
X13200015Y-19631579D01*
X13200015Y-19631579D02*
X13209539Y-19669674D01*
X13209539Y-19669674D02*
X13209539Y-19717293D01*
X13209539Y-19717293D02*
X13200015Y-19755389D01*
X13200015Y-19755389D02*
X13190491Y-19774436D01*
X13190491Y-19774436D02*
X13180967Y-19783960D01*
X13180967Y-19783960D02*
X13161920Y-19793484D01*
X13161920Y-19793484D02*
X13142872Y-19793484D01*
X13142872Y-19793484D02*
X13123824Y-19783960D01*
X13123824Y-19783960D02*
X13114301Y-19774436D01*
X13114301Y-19774436D02*
X13104777Y-19755389D01*
X13104777Y-19755389D02*
X13095253Y-19717293D01*
X13095253Y-19717293D02*
X13095253Y-19669674D01*
X13095253Y-19669674D02*
X13104777Y-19631579D01*
X13104777Y-19631579D02*
X13114301Y-19612531D01*
X13114301Y-19612531D02*
X13123824Y-19603008D01*
X13123824Y-19603008D02*
X13142872Y-19593484D01*
X13295253Y-19774436D02*
X13304777Y-19783960D01*
X13304777Y-19783960D02*
X13295253Y-19793484D01*
X13295253Y-19793484D02*
X13285729Y-19783960D01*
X13285729Y-19783960D02*
X13295253Y-19774436D01*
X13295253Y-19774436D02*
X13295253Y-19793484D01*
X13419062Y-19679198D02*
X13400015Y-19669674D01*
X13400015Y-19669674D02*
X13390491Y-19660150D01*
X13390491Y-19660150D02*
X13380967Y-19641103D01*
X13380967Y-19641103D02*
X13380967Y-19631579D01*
X13380967Y-19631579D02*
X13390491Y-19612531D01*
X13390491Y-19612531D02*
X13400015Y-19603008D01*
X13400015Y-19603008D02*
X13419062Y-19593484D01*
X13419062Y-19593484D02*
X13457158Y-19593484D01*
X13457158Y-19593484D02*
X13476205Y-19603008D01*
X13476205Y-19603008D02*
X13485729Y-19612531D01*
X13485729Y-19612531D02*
X13495253Y-19631579D01*
X13495253Y-19631579D02*
X13495253Y-19641103D01*
X13495253Y-19641103D02*
X13485729Y-19660150D01*
X13485729Y-19660150D02*
X13476205Y-19669674D01*
X13476205Y-19669674D02*
X13457158Y-19679198D01*
X13457158Y-19679198D02*
X13419062Y-19679198D01*
X13419062Y-19679198D02*
X13400015Y-19688722D01*
X13400015Y-19688722D02*
X13390491Y-19698246D01*
X13390491Y-19698246D02*
X13380967Y-19717293D01*
X13380967Y-19717293D02*
X13380967Y-19755389D01*
X13380967Y-19755389D02*
X13390491Y-19774436D01*
X13390491Y-19774436D02*
X13400015Y-19783960D01*
X13400015Y-19783960D02*
X13419062Y-19793484D01*
X13419062Y-19793484D02*
X13457158Y-19793484D01*
X13457158Y-19793484D02*
X13476205Y-19783960D01*
X13476205Y-19783960D02*
X13485729Y-19774436D01*
X13485729Y-19774436D02*
X13495253Y-19755389D01*
X13495253Y-19755389D02*
X13495253Y-19717293D01*
X13495253Y-19717293D02*
X13485729Y-19698246D01*
X13485729Y-19698246D02*
X13476205Y-19688722D01*
X13476205Y-19688722D02*
X13457158Y-19679198D01*
X13609539Y-19679198D02*
X13590491Y-19669674D01*
X13590491Y-19669674D02*
X13580967Y-19660150D01*
X13580967Y-19660150D02*
X13571443Y-19641103D01*
X13571443Y-19641103D02*
X13571443Y-19631579D01*
X13571443Y-19631579D02*
X13580967Y-19612531D01*
X13580967Y-19612531D02*
X13590491Y-19603008D01*
X13590491Y-19603008D02*
X13609539Y-19593484D01*
X13609539Y-19593484D02*
X13647634Y-19593484D01*
X13647634Y-19593484D02*
X13666682Y-19603008D01*
X13666682Y-19603008D02*
X13676205Y-19612531D01*
X13676205Y-19612531D02*
X13685729Y-19631579D01*
X13685729Y-19631579D02*
X13685729Y-19641103D01*
X13685729Y-19641103D02*
X13676205Y-19660150D01*
X13676205Y-19660150D02*
X13666682Y-19669674D01*
X13666682Y-19669674D02*
X13647634Y-19679198D01*
X13647634Y-19679198D02*
X13609539Y-19679198D01*
X13609539Y-19679198D02*
X13590491Y-19688722D01*
X13590491Y-19688722D02*
X13580967Y-19698246D01*
X13580967Y-19698246D02*
X13571443Y-19717293D01*
X13571443Y-19717293D02*
X13571443Y-19755389D01*
X13571443Y-19755389D02*
X13580967Y-19774436D01*
X13580967Y-19774436D02*
X13590491Y-19783960D01*
X13590491Y-19783960D02*
X13609539Y-19793484D01*
X13609539Y-19793484D02*
X13647634Y-19793484D01*
X13647634Y-19793484D02*
X13666682Y-19783960D01*
X13666682Y-19783960D02*
X13676205Y-19774436D01*
X13676205Y-19774436D02*
X13685729Y-19755389D01*
X13685729Y-19755389D02*
X13685729Y-19717293D01*
X13685729Y-19717293D02*
X13676205Y-19698246D01*
X13676205Y-19698246D02*
X13666682Y-19688722D01*
X13666682Y-19688722D02*
X13647634Y-19679198D01*
X13780967Y-19793484D02*
X13819062Y-19793484D01*
X13819062Y-19793484D02*
X13838110Y-19783960D01*
X13838110Y-19783960D02*
X13847634Y-19774436D01*
X13847634Y-19774436D02*
X13866682Y-19745865D01*
X13866682Y-19745865D02*
X13876205Y-19707770D01*
X13876205Y-19707770D02*
X13876205Y-19631579D01*
X13876205Y-19631579D02*
X13866682Y-19612531D01*
X13866682Y-19612531D02*
X13857158Y-19603008D01*
X13857158Y-19603008D02*
X13838110Y-19593484D01*
X13838110Y-19593484D02*
X13800015Y-19593484D01*
X13800015Y-19593484D02*
X13780967Y-19603008D01*
X13780967Y-19603008D02*
X13771443Y-19612531D01*
X13771443Y-19612531D02*
X13761920Y-19631579D01*
X13761920Y-19631579D02*
X13761920Y-19679198D01*
X13761920Y-19679198D02*
X13771443Y-19698246D01*
X13771443Y-19698246D02*
X13780967Y-19707770D01*
X13780967Y-19707770D02*
X13800015Y-19717293D01*
X13800015Y-19717293D02*
X13838110Y-19717293D01*
X13838110Y-19717293D02*
X13857158Y-19707770D01*
X13857158Y-19707770D02*
X13866682Y-19698246D01*
X13866682Y-19698246D02*
X13876205Y-19679198D01*
X13961920Y-19793484D02*
X13961920Y-19660150D01*
X13961920Y-19679198D02*
X13971443Y-19669674D01*
X13971443Y-19669674D02*
X13990491Y-19660150D01*
X13990491Y-19660150D02*
X14019063Y-19660150D01*
X14019063Y-19660150D02*
X14038110Y-19669674D01*
X14038110Y-19669674D02*
X14047634Y-19688722D01*
X14047634Y-19688722D02*
X14047634Y-19793484D01*
X14047634Y-19688722D02*
X14057158Y-19669674D01*
X14057158Y-19669674D02*
X14076205Y-19660150D01*
X14076205Y-19660150D02*
X14104777Y-19660150D01*
X14104777Y-19660150D02*
X14123824Y-19669674D01*
X14123824Y-19669674D02*
X14133348Y-19688722D01*
X14133348Y-19688722D02*
X14133348Y-19793484D01*
X14228586Y-19793484D02*
X14228586Y-19660150D01*
X14228586Y-19679198D02*
X14238110Y-19669674D01*
X14238110Y-19669674D02*
X14257158Y-19660150D01*
X14257158Y-19660150D02*
X14285729Y-19660150D01*
X14285729Y-19660150D02*
X14304777Y-19669674D01*
X14304777Y-19669674D02*
X14314301Y-19688722D01*
X14314301Y-19688722D02*
X14314301Y-19793484D01*
X14314301Y-19688722D02*
X14323824Y-19669674D01*
X14323824Y-19669674D02*
X14342872Y-19660150D01*
X14342872Y-19660150D02*
X14371443Y-19660150D01*
X14371443Y-19660150D02*
X14390491Y-19669674D01*
X14390491Y-19669674D02*
X14400015Y-19688722D01*
X14400015Y-19688722D02*
X14400015Y-19793484D01*
X14790491Y-19583960D02*
X14619063Y-19841103D01*
X15047634Y-19593484D02*
X15066682Y-19593484D01*
X15066682Y-19593484D02*
X15085729Y-19603008D01*
X15085729Y-19603008D02*
X15095253Y-19612531D01*
X15095253Y-19612531D02*
X15104777Y-19631579D01*
X15104777Y-19631579D02*
X15114301Y-19669674D01*
X15114301Y-19669674D02*
X15114301Y-19717293D01*
X15114301Y-19717293D02*
X15104777Y-19755389D01*
X15104777Y-19755389D02*
X15095253Y-19774436D01*
X15095253Y-19774436D02*
X15085729Y-19783960D01*
X15085729Y-19783960D02*
X15066682Y-19793484D01*
X15066682Y-19793484D02*
X15047634Y-19793484D01*
X15047634Y-19793484D02*
X15028586Y-19783960D01*
X15028586Y-19783960D02*
X15019063Y-19774436D01*
X15019063Y-19774436D02*
X15009539Y-19755389D01*
X15009539Y-19755389D02*
X15000015Y-19717293D01*
X15000015Y-19717293D02*
X15000015Y-19669674D01*
X15000015Y-19669674D02*
X15009539Y-19631579D01*
X15009539Y-19631579D02*
X15019063Y-19612531D01*
X15019063Y-19612531D02*
X15028586Y-19603008D01*
X15028586Y-19603008D02*
X15047634Y-19593484D01*
X15200015Y-19774436D02*
X15209539Y-19783960D01*
X15209539Y-19783960D02*
X15200015Y-19793484D01*
X15200015Y-19793484D02*
X15190491Y-19783960D01*
X15190491Y-19783960D02*
X15200015Y-19774436D01*
X15200015Y-19774436D02*
X15200015Y-19793484D01*
X15333348Y-19593484D02*
X15352396Y-19593484D01*
X15352396Y-19593484D02*
X15371444Y-19603008D01*
X15371444Y-19603008D02*
X15380967Y-19612531D01*
X15380967Y-19612531D02*
X15390491Y-19631579D01*
X15390491Y-19631579D02*
X15400015Y-19669674D01*
X15400015Y-19669674D02*
X15400015Y-19717293D01*
X15400015Y-19717293D02*
X15390491Y-19755389D01*
X15390491Y-19755389D02*
X15380967Y-19774436D01*
X15380967Y-19774436D02*
X15371444Y-19783960D01*
X15371444Y-19783960D02*
X15352396Y-19793484D01*
X15352396Y-19793484D02*
X15333348Y-19793484D01*
X15333348Y-19793484D02*
X15314301Y-19783960D01*
X15314301Y-19783960D02*
X15304777Y-19774436D01*
X15304777Y-19774436D02*
X15295253Y-19755389D01*
X15295253Y-19755389D02*
X15285729Y-19717293D01*
X15285729Y-19717293D02*
X15285729Y-19669674D01*
X15285729Y-19669674D02*
X15295253Y-19631579D01*
X15295253Y-19631579D02*
X15304777Y-19612531D01*
X15304777Y-19612531D02*
X15314301Y-19603008D01*
X15314301Y-19603008D02*
X15333348Y-19593484D01*
X15466682Y-19593484D02*
X15590491Y-19593484D01*
X15590491Y-19593484D02*
X15523825Y-19669674D01*
X15523825Y-19669674D02*
X15552396Y-19669674D01*
X15552396Y-19669674D02*
X15571444Y-19679198D01*
X15571444Y-19679198D02*
X15580967Y-19688722D01*
X15580967Y-19688722D02*
X15590491Y-19707770D01*
X15590491Y-19707770D02*
X15590491Y-19755389D01*
X15590491Y-19755389D02*
X15580967Y-19774436D01*
X15580967Y-19774436D02*
X15571444Y-19783960D01*
X15571444Y-19783960D02*
X15552396Y-19793484D01*
X15552396Y-19793484D02*
X15495253Y-19793484D01*
X15495253Y-19793484D02*
X15476206Y-19783960D01*
X15476206Y-19783960D02*
X15466682Y-19774436D01*
X15771444Y-19593484D02*
X15676206Y-19593484D01*
X15676206Y-19593484D02*
X15666682Y-19688722D01*
X15666682Y-19688722D02*
X15676206Y-19679198D01*
X15676206Y-19679198D02*
X15695253Y-19669674D01*
X15695253Y-19669674D02*
X15742872Y-19669674D01*
X15742872Y-19669674D02*
X15761920Y-19679198D01*
X15761920Y-19679198D02*
X15771444Y-19688722D01*
X15771444Y-19688722D02*
X15780967Y-19707770D01*
X15780967Y-19707770D02*
X15780967Y-19755389D01*
X15780967Y-19755389D02*
X15771444Y-19774436D01*
X15771444Y-19774436D02*
X15761920Y-19783960D01*
X15761920Y-19783960D02*
X15742872Y-19793484D01*
X15742872Y-19793484D02*
X15695253Y-19793484D01*
X15695253Y-19793484D02*
X15676206Y-19783960D01*
X15676206Y-19783960D02*
X15666682Y-19774436D01*
X15904777Y-19593484D02*
X15923825Y-19593484D01*
X15923825Y-19593484D02*
X15942872Y-19603008D01*
X15942872Y-19603008D02*
X15952396Y-19612531D01*
X15952396Y-19612531D02*
X15961920Y-19631579D01*
X15961920Y-19631579D02*
X15971444Y-19669674D01*
X15971444Y-19669674D02*
X15971444Y-19717293D01*
X15971444Y-19717293D02*
X15961920Y-19755389D01*
X15961920Y-19755389D02*
X15952396Y-19774436D01*
X15952396Y-19774436D02*
X15942872Y-19783960D01*
X15942872Y-19783960D02*
X15923825Y-19793484D01*
X15923825Y-19793484D02*
X15904777Y-19793484D01*
X15904777Y-19793484D02*
X15885729Y-19783960D01*
X15885729Y-19783960D02*
X15876206Y-19774436D01*
X15876206Y-19774436D02*
X15866682Y-19755389D01*
X15866682Y-19755389D02*
X15857158Y-19717293D01*
X15857158Y-19717293D02*
X15857158Y-19669674D01*
X15857158Y-19669674D02*
X15866682Y-19631579D01*
X15866682Y-19631579D02*
X15876206Y-19612531D01*
X15876206Y-19612531D02*
X15885729Y-19603008D01*
X15885729Y-19603008D02*
X15904777Y-19593484D01*
X16047634Y-19593484D02*
X16047634Y-19631579D01*
X16123825Y-19593484D02*
X16123825Y-19631579D01*
X16419063Y-19869674D02*
X16409539Y-19860150D01*
X16409539Y-19860150D02*
X16390491Y-19831579D01*
X16390491Y-19831579D02*
X16380968Y-19812531D01*
X16380968Y-19812531D02*
X16371444Y-19783960D01*
X16371444Y-19783960D02*
X16361920Y-19736341D01*
X16361920Y-19736341D02*
X16361920Y-19698246D01*
X16361920Y-19698246D02*
X16371444Y-19650627D01*
X16371444Y-19650627D02*
X16380968Y-19622055D01*
X16380968Y-19622055D02*
X16390491Y-19603008D01*
X16390491Y-19603008D02*
X16409539Y-19574436D01*
X16409539Y-19574436D02*
X16419063Y-19564912D01*
X16600015Y-19793484D02*
X16485729Y-19793484D01*
X16542872Y-19793484D02*
X16542872Y-19593484D01*
X16542872Y-19593484D02*
X16523825Y-19622055D01*
X16523825Y-19622055D02*
X16504777Y-19641103D01*
X16504777Y-19641103D02*
X16485729Y-19650627D01*
X16771444Y-19660150D02*
X16771444Y-19793484D01*
X16723825Y-19583960D02*
X16676206Y-19726817D01*
X16676206Y-19726817D02*
X16800015Y-19726817D01*
X17028587Y-19793484D02*
X17028587Y-19593484D01*
X17114301Y-19793484D02*
X17114301Y-19688722D01*
X17114301Y-19688722D02*
X17104777Y-19669674D01*
X17104777Y-19669674D02*
X17085730Y-19660150D01*
X17085730Y-19660150D02*
X17057158Y-19660150D01*
X17057158Y-19660150D02*
X17038111Y-19669674D01*
X17038111Y-19669674D02*
X17028587Y-19679198D01*
X17238111Y-19793484D02*
X17219063Y-19783960D01*
X17219063Y-19783960D02*
X17209539Y-19774436D01*
X17209539Y-19774436D02*
X17200015Y-19755389D01*
X17200015Y-19755389D02*
X17200015Y-19698246D01*
X17200015Y-19698246D02*
X17209539Y-19679198D01*
X17209539Y-19679198D02*
X17219063Y-19669674D01*
X17219063Y-19669674D02*
X17238111Y-19660150D01*
X17238111Y-19660150D02*
X17266682Y-19660150D01*
X17266682Y-19660150D02*
X17285730Y-19669674D01*
X17285730Y-19669674D02*
X17295253Y-19679198D01*
X17295253Y-19679198D02*
X17304777Y-19698246D01*
X17304777Y-19698246D02*
X17304777Y-19755389D01*
X17304777Y-19755389D02*
X17295253Y-19774436D01*
X17295253Y-19774436D02*
X17285730Y-19783960D01*
X17285730Y-19783960D02*
X17266682Y-19793484D01*
X17266682Y-19793484D02*
X17238111Y-19793484D01*
X17419063Y-19793484D02*
X17400015Y-19783960D01*
X17400015Y-19783960D02*
X17390492Y-19764912D01*
X17390492Y-19764912D02*
X17390492Y-19593484D01*
X17571444Y-19783960D02*
X17552396Y-19793484D01*
X17552396Y-19793484D02*
X17514301Y-19793484D01*
X17514301Y-19793484D02*
X17495253Y-19783960D01*
X17495253Y-19783960D02*
X17485730Y-19764912D01*
X17485730Y-19764912D02*
X17485730Y-19688722D01*
X17485730Y-19688722D02*
X17495253Y-19669674D01*
X17495253Y-19669674D02*
X17514301Y-19660150D01*
X17514301Y-19660150D02*
X17552396Y-19660150D01*
X17552396Y-19660150D02*
X17571444Y-19669674D01*
X17571444Y-19669674D02*
X17580968Y-19688722D01*
X17580968Y-19688722D02*
X17580968Y-19707770D01*
X17580968Y-19707770D02*
X17485730Y-19726817D01*
X17657158Y-19783960D02*
X17676206Y-19793484D01*
X17676206Y-19793484D02*
X17714301Y-19793484D01*
X17714301Y-19793484D02*
X17733349Y-19783960D01*
X17733349Y-19783960D02*
X17742873Y-19764912D01*
X17742873Y-19764912D02*
X17742873Y-19755389D01*
X17742873Y-19755389D02*
X17733349Y-19736341D01*
X17733349Y-19736341D02*
X17714301Y-19726817D01*
X17714301Y-19726817D02*
X17685730Y-19726817D01*
X17685730Y-19726817D02*
X17666682Y-19717293D01*
X17666682Y-19717293D02*
X17657158Y-19698246D01*
X17657158Y-19698246D02*
X17657158Y-19688722D01*
X17657158Y-19688722D02*
X17666682Y-19669674D01*
X17666682Y-19669674D02*
X17685730Y-19660150D01*
X17685730Y-19660150D02*
X17714301Y-19660150D01*
X17714301Y-19660150D02*
X17733349Y-19669674D01*
X17809539Y-19869674D02*
X17819063Y-19860150D01*
X17819063Y-19860150D02*
X17838111Y-19831579D01*
X17838111Y-19831579D02*
X17847634Y-19812531D01*
X17847634Y-19812531D02*
X17857158Y-19783960D01*
X17857158Y-19783960D02*
X17866682Y-19736341D01*
X17866682Y-19736341D02*
X17866682Y-19698246D01*
X17866682Y-19698246D02*
X17857158Y-19650627D01*
X17857158Y-19650627D02*
X17847634Y-19622055D01*
X17847634Y-19622055D02*
X17838111Y-19603008D01*
X17838111Y-19603008D02*
X17819063Y-19574436D01*
X17819063Y-19574436D02*
X17809539Y-19564912D01*
D12*
X12754000Y-19921000D02*
X12844000Y-20011000D01*
X12844000Y-19921000D02*
X12754000Y-20011000D01*
X12844000Y-19966000D02*
G75*
G03*
X12754000Y-19966000I-45000J0D01*
G01*
X12754000Y-19966000D02*
G75*
G03*
X12844000Y-19966000I45000J0D01*
G01*
D11*
X13142872Y-19857484D02*
X13161920Y-19857484D01*
X13161920Y-19857484D02*
X13180967Y-19867008D01*
X13180967Y-19867008D02*
X13190491Y-19876531D01*
X13190491Y-19876531D02*
X13200015Y-19895579D01*
X13200015Y-19895579D02*
X13209539Y-19933674D01*
X13209539Y-19933674D02*
X13209539Y-19981293D01*
X13209539Y-19981293D02*
X13200015Y-20019389D01*
X13200015Y-20019389D02*
X13190491Y-20038436D01*
X13190491Y-20038436D02*
X13180967Y-20047960D01*
X13180967Y-20047960D02*
X13161920Y-20057484D01*
X13161920Y-20057484D02*
X13142872Y-20057484D01*
X13142872Y-20057484D02*
X13123824Y-20047960D01*
X13123824Y-20047960D02*
X13114301Y-20038436D01*
X13114301Y-20038436D02*
X13104777Y-20019389D01*
X13104777Y-20019389D02*
X13095253Y-19981293D01*
X13095253Y-19981293D02*
X13095253Y-19933674D01*
X13095253Y-19933674D02*
X13104777Y-19895579D01*
X13104777Y-19895579D02*
X13114301Y-19876531D01*
X13114301Y-19876531D02*
X13123824Y-19867008D01*
X13123824Y-19867008D02*
X13142872Y-19857484D01*
X13295253Y-20038436D02*
X13304777Y-20047960D01*
X13304777Y-20047960D02*
X13295253Y-20057484D01*
X13295253Y-20057484D02*
X13285729Y-20047960D01*
X13285729Y-20047960D02*
X13295253Y-20038436D01*
X13295253Y-20038436D02*
X13295253Y-20057484D01*
X13400015Y-20057484D02*
X13438110Y-20057484D01*
X13438110Y-20057484D02*
X13457158Y-20047960D01*
X13457158Y-20047960D02*
X13466682Y-20038436D01*
X13466682Y-20038436D02*
X13485729Y-20009865D01*
X13485729Y-20009865D02*
X13495253Y-19971770D01*
X13495253Y-19971770D02*
X13495253Y-19895579D01*
X13495253Y-19895579D02*
X13485729Y-19876531D01*
X13485729Y-19876531D02*
X13476205Y-19867008D01*
X13476205Y-19867008D02*
X13457158Y-19857484D01*
X13457158Y-19857484D02*
X13419062Y-19857484D01*
X13419062Y-19857484D02*
X13400015Y-19867008D01*
X13400015Y-19867008D02*
X13390491Y-19876531D01*
X13390491Y-19876531D02*
X13380967Y-19895579D01*
X13380967Y-19895579D02*
X13380967Y-19943198D01*
X13380967Y-19943198D02*
X13390491Y-19962246D01*
X13390491Y-19962246D02*
X13400015Y-19971770D01*
X13400015Y-19971770D02*
X13419062Y-19981293D01*
X13419062Y-19981293D02*
X13457158Y-19981293D01*
X13457158Y-19981293D02*
X13476205Y-19971770D01*
X13476205Y-19971770D02*
X13485729Y-19962246D01*
X13485729Y-19962246D02*
X13495253Y-19943198D01*
X13619062Y-19857484D02*
X13638110Y-19857484D01*
X13638110Y-19857484D02*
X13657158Y-19867008D01*
X13657158Y-19867008D02*
X13666682Y-19876531D01*
X13666682Y-19876531D02*
X13676205Y-19895579D01*
X13676205Y-19895579D02*
X13685729Y-19933674D01*
X13685729Y-19933674D02*
X13685729Y-19981293D01*
X13685729Y-19981293D02*
X13676205Y-20019389D01*
X13676205Y-20019389D02*
X13666682Y-20038436D01*
X13666682Y-20038436D02*
X13657158Y-20047960D01*
X13657158Y-20047960D02*
X13638110Y-20057484D01*
X13638110Y-20057484D02*
X13619062Y-20057484D01*
X13619062Y-20057484D02*
X13600015Y-20047960D01*
X13600015Y-20047960D02*
X13590491Y-20038436D01*
X13590491Y-20038436D02*
X13580967Y-20019389D01*
X13580967Y-20019389D02*
X13571443Y-19981293D01*
X13571443Y-19981293D02*
X13571443Y-19933674D01*
X13571443Y-19933674D02*
X13580967Y-19895579D01*
X13580967Y-19895579D02*
X13590491Y-19876531D01*
X13590491Y-19876531D02*
X13600015Y-19867008D01*
X13600015Y-19867008D02*
X13619062Y-19857484D01*
X13809539Y-19857484D02*
X13828586Y-19857484D01*
X13828586Y-19857484D02*
X13847634Y-19867008D01*
X13847634Y-19867008D02*
X13857158Y-19876531D01*
X13857158Y-19876531D02*
X13866682Y-19895579D01*
X13866682Y-19895579D02*
X13876205Y-19933674D01*
X13876205Y-19933674D02*
X13876205Y-19981293D01*
X13876205Y-19981293D02*
X13866682Y-20019389D01*
X13866682Y-20019389D02*
X13857158Y-20038436D01*
X13857158Y-20038436D02*
X13847634Y-20047960D01*
X13847634Y-20047960D02*
X13828586Y-20057484D01*
X13828586Y-20057484D02*
X13809539Y-20057484D01*
X13809539Y-20057484D02*
X13790491Y-20047960D01*
X13790491Y-20047960D02*
X13780967Y-20038436D01*
X13780967Y-20038436D02*
X13771443Y-20019389D01*
X13771443Y-20019389D02*
X13761920Y-19981293D01*
X13761920Y-19981293D02*
X13761920Y-19933674D01*
X13761920Y-19933674D02*
X13771443Y-19895579D01*
X13771443Y-19895579D02*
X13780967Y-19876531D01*
X13780967Y-19876531D02*
X13790491Y-19867008D01*
X13790491Y-19867008D02*
X13809539Y-19857484D01*
X13961920Y-20057484D02*
X13961920Y-19924150D01*
X13961920Y-19943198D02*
X13971443Y-19933674D01*
X13971443Y-19933674D02*
X13990491Y-19924150D01*
X13990491Y-19924150D02*
X14019063Y-19924150D01*
X14019063Y-19924150D02*
X14038110Y-19933674D01*
X14038110Y-19933674D02*
X14047634Y-19952722D01*
X14047634Y-19952722D02*
X14047634Y-20057484D01*
X14047634Y-19952722D02*
X14057158Y-19933674D01*
X14057158Y-19933674D02*
X14076205Y-19924150D01*
X14076205Y-19924150D02*
X14104777Y-19924150D01*
X14104777Y-19924150D02*
X14123824Y-19933674D01*
X14123824Y-19933674D02*
X14133348Y-19952722D01*
X14133348Y-19952722D02*
X14133348Y-20057484D01*
X14228586Y-20057484D02*
X14228586Y-19924150D01*
X14228586Y-19943198D02*
X14238110Y-19933674D01*
X14238110Y-19933674D02*
X14257158Y-19924150D01*
X14257158Y-19924150D02*
X14285729Y-19924150D01*
X14285729Y-19924150D02*
X14304777Y-19933674D01*
X14304777Y-19933674D02*
X14314301Y-19952722D01*
X14314301Y-19952722D02*
X14314301Y-20057484D01*
X14314301Y-19952722D02*
X14323824Y-19933674D01*
X14323824Y-19933674D02*
X14342872Y-19924150D01*
X14342872Y-19924150D02*
X14371443Y-19924150D01*
X14371443Y-19924150D02*
X14390491Y-19933674D01*
X14390491Y-19933674D02*
X14400015Y-19952722D01*
X14400015Y-19952722D02*
X14400015Y-20057484D01*
X14790491Y-19847960D02*
X14619063Y-20105103D01*
X15047634Y-19857484D02*
X15066682Y-19857484D01*
X15066682Y-19857484D02*
X15085729Y-19867008D01*
X15085729Y-19867008D02*
X15095253Y-19876531D01*
X15095253Y-19876531D02*
X15104777Y-19895579D01*
X15104777Y-19895579D02*
X15114301Y-19933674D01*
X15114301Y-19933674D02*
X15114301Y-19981293D01*
X15114301Y-19981293D02*
X15104777Y-20019389D01*
X15104777Y-20019389D02*
X15095253Y-20038436D01*
X15095253Y-20038436D02*
X15085729Y-20047960D01*
X15085729Y-20047960D02*
X15066682Y-20057484D01*
X15066682Y-20057484D02*
X15047634Y-20057484D01*
X15047634Y-20057484D02*
X15028586Y-20047960D01*
X15028586Y-20047960D02*
X15019063Y-20038436D01*
X15019063Y-20038436D02*
X15009539Y-20019389D01*
X15009539Y-20019389D02*
X15000015Y-19981293D01*
X15000015Y-19981293D02*
X15000015Y-19933674D01*
X15000015Y-19933674D02*
X15009539Y-19895579D01*
X15009539Y-19895579D02*
X15019063Y-19876531D01*
X15019063Y-19876531D02*
X15028586Y-19867008D01*
X15028586Y-19867008D02*
X15047634Y-19857484D01*
X15200015Y-20038436D02*
X15209539Y-20047960D01*
X15209539Y-20047960D02*
X15200015Y-20057484D01*
X15200015Y-20057484D02*
X15190491Y-20047960D01*
X15190491Y-20047960D02*
X15200015Y-20038436D01*
X15200015Y-20038436D02*
X15200015Y-20057484D01*
X15333348Y-19857484D02*
X15352396Y-19857484D01*
X15352396Y-19857484D02*
X15371444Y-19867008D01*
X15371444Y-19867008D02*
X15380967Y-19876531D01*
X15380967Y-19876531D02*
X15390491Y-19895579D01*
X15390491Y-19895579D02*
X15400015Y-19933674D01*
X15400015Y-19933674D02*
X15400015Y-19981293D01*
X15400015Y-19981293D02*
X15390491Y-20019389D01*
X15390491Y-20019389D02*
X15380967Y-20038436D01*
X15380967Y-20038436D02*
X15371444Y-20047960D01*
X15371444Y-20047960D02*
X15352396Y-20057484D01*
X15352396Y-20057484D02*
X15333348Y-20057484D01*
X15333348Y-20057484D02*
X15314301Y-20047960D01*
X15314301Y-20047960D02*
X15304777Y-20038436D01*
X15304777Y-20038436D02*
X15295253Y-20019389D01*
X15295253Y-20019389D02*
X15285729Y-19981293D01*
X15285729Y-19981293D02*
X15285729Y-19933674D01*
X15285729Y-19933674D02*
X15295253Y-19895579D01*
X15295253Y-19895579D02*
X15304777Y-19876531D01*
X15304777Y-19876531D02*
X15314301Y-19867008D01*
X15314301Y-19867008D02*
X15333348Y-19857484D01*
X15466682Y-19857484D02*
X15590491Y-19857484D01*
X15590491Y-19857484D02*
X15523825Y-19933674D01*
X15523825Y-19933674D02*
X15552396Y-19933674D01*
X15552396Y-19933674D02*
X15571444Y-19943198D01*
X15571444Y-19943198D02*
X15580967Y-19952722D01*
X15580967Y-19952722D02*
X15590491Y-19971770D01*
X15590491Y-19971770D02*
X15590491Y-20019389D01*
X15590491Y-20019389D02*
X15580967Y-20038436D01*
X15580967Y-20038436D02*
X15571444Y-20047960D01*
X15571444Y-20047960D02*
X15552396Y-20057484D01*
X15552396Y-20057484D02*
X15495253Y-20057484D01*
X15495253Y-20057484D02*
X15476206Y-20047960D01*
X15476206Y-20047960D02*
X15466682Y-20038436D01*
X15771444Y-19857484D02*
X15676206Y-19857484D01*
X15676206Y-19857484D02*
X15666682Y-19952722D01*
X15666682Y-19952722D02*
X15676206Y-19943198D01*
X15676206Y-19943198D02*
X15695253Y-19933674D01*
X15695253Y-19933674D02*
X15742872Y-19933674D01*
X15742872Y-19933674D02*
X15761920Y-19943198D01*
X15761920Y-19943198D02*
X15771444Y-19952722D01*
X15771444Y-19952722D02*
X15780967Y-19971770D01*
X15780967Y-19971770D02*
X15780967Y-20019389D01*
X15780967Y-20019389D02*
X15771444Y-20038436D01*
X15771444Y-20038436D02*
X15761920Y-20047960D01*
X15761920Y-20047960D02*
X15742872Y-20057484D01*
X15742872Y-20057484D02*
X15695253Y-20057484D01*
X15695253Y-20057484D02*
X15676206Y-20047960D01*
X15676206Y-20047960D02*
X15666682Y-20038436D01*
X15952396Y-19924150D02*
X15952396Y-20057484D01*
X15904777Y-19847960D02*
X15857158Y-19990817D01*
X15857158Y-19990817D02*
X15980967Y-19990817D01*
X16047634Y-19857484D02*
X16047634Y-19895579D01*
X16123825Y-19857484D02*
X16123825Y-19895579D01*
X16419063Y-20133674D02*
X16409539Y-20124150D01*
X16409539Y-20124150D02*
X16390491Y-20095579D01*
X16390491Y-20095579D02*
X16380968Y-20076531D01*
X16380968Y-20076531D02*
X16371444Y-20047960D01*
X16371444Y-20047960D02*
X16361920Y-20000341D01*
X16361920Y-20000341D02*
X16361920Y-19962246D01*
X16361920Y-19962246D02*
X16371444Y-19914627D01*
X16371444Y-19914627D02*
X16380968Y-19886055D01*
X16380968Y-19886055D02*
X16390491Y-19867008D01*
X16390491Y-19867008D02*
X16409539Y-19838436D01*
X16409539Y-19838436D02*
X16419063Y-19828912D01*
X16600015Y-20057484D02*
X16485729Y-20057484D01*
X16542872Y-20057484D02*
X16542872Y-19857484D01*
X16542872Y-19857484D02*
X16523825Y-19886055D01*
X16523825Y-19886055D02*
X16504777Y-19905103D01*
X16504777Y-19905103D02*
X16485729Y-19914627D01*
X16723825Y-19857484D02*
X16742872Y-19857484D01*
X16742872Y-19857484D02*
X16761920Y-19867008D01*
X16761920Y-19867008D02*
X16771444Y-19876531D01*
X16771444Y-19876531D02*
X16780968Y-19895579D01*
X16780968Y-19895579D02*
X16790491Y-19933674D01*
X16790491Y-19933674D02*
X16790491Y-19981293D01*
X16790491Y-19981293D02*
X16780968Y-20019389D01*
X16780968Y-20019389D02*
X16771444Y-20038436D01*
X16771444Y-20038436D02*
X16761920Y-20047960D01*
X16761920Y-20047960D02*
X16742872Y-20057484D01*
X16742872Y-20057484D02*
X16723825Y-20057484D01*
X16723825Y-20057484D02*
X16704777Y-20047960D01*
X16704777Y-20047960D02*
X16695253Y-20038436D01*
X16695253Y-20038436D02*
X16685729Y-20019389D01*
X16685729Y-20019389D02*
X16676206Y-19981293D01*
X16676206Y-19981293D02*
X16676206Y-19933674D01*
X16676206Y-19933674D02*
X16685729Y-19895579D01*
X16685729Y-19895579D02*
X16695253Y-19876531D01*
X16695253Y-19876531D02*
X16704777Y-19867008D01*
X16704777Y-19867008D02*
X16723825Y-19857484D01*
X17028587Y-20057484D02*
X17028587Y-19857484D01*
X17114301Y-20057484D02*
X17114301Y-19952722D01*
X17114301Y-19952722D02*
X17104777Y-19933674D01*
X17104777Y-19933674D02*
X17085730Y-19924150D01*
X17085730Y-19924150D02*
X17057158Y-19924150D01*
X17057158Y-19924150D02*
X17038111Y-19933674D01*
X17038111Y-19933674D02*
X17028587Y-19943198D01*
X17238111Y-20057484D02*
X17219063Y-20047960D01*
X17219063Y-20047960D02*
X17209539Y-20038436D01*
X17209539Y-20038436D02*
X17200015Y-20019389D01*
X17200015Y-20019389D02*
X17200015Y-19962246D01*
X17200015Y-19962246D02*
X17209539Y-19943198D01*
X17209539Y-19943198D02*
X17219063Y-19933674D01*
X17219063Y-19933674D02*
X17238111Y-19924150D01*
X17238111Y-19924150D02*
X17266682Y-19924150D01*
X17266682Y-19924150D02*
X17285730Y-19933674D01*
X17285730Y-19933674D02*
X17295253Y-19943198D01*
X17295253Y-19943198D02*
X17304777Y-19962246D01*
X17304777Y-19962246D02*
X17304777Y-20019389D01*
X17304777Y-20019389D02*
X17295253Y-20038436D01*
X17295253Y-20038436D02*
X17285730Y-20047960D01*
X17285730Y-20047960D02*
X17266682Y-20057484D01*
X17266682Y-20057484D02*
X17238111Y-20057484D01*
X17419063Y-20057484D02*
X17400015Y-20047960D01*
X17400015Y-20047960D02*
X17390492Y-20028912D01*
X17390492Y-20028912D02*
X17390492Y-19857484D01*
X17571444Y-20047960D02*
X17552396Y-20057484D01*
X17552396Y-20057484D02*
X17514301Y-20057484D01*
X17514301Y-20057484D02*
X17495253Y-20047960D01*
X17495253Y-20047960D02*
X17485730Y-20028912D01*
X17485730Y-20028912D02*
X17485730Y-19952722D01*
X17485730Y-19952722D02*
X17495253Y-19933674D01*
X17495253Y-19933674D02*
X17514301Y-19924150D01*
X17514301Y-19924150D02*
X17552396Y-19924150D01*
X17552396Y-19924150D02*
X17571444Y-19933674D01*
X17571444Y-19933674D02*
X17580968Y-19952722D01*
X17580968Y-19952722D02*
X17580968Y-19971770D01*
X17580968Y-19971770D02*
X17485730Y-19990817D01*
X17657158Y-20047960D02*
X17676206Y-20057484D01*
X17676206Y-20057484D02*
X17714301Y-20057484D01*
X17714301Y-20057484D02*
X17733349Y-20047960D01*
X17733349Y-20047960D02*
X17742873Y-20028912D01*
X17742873Y-20028912D02*
X17742873Y-20019389D01*
X17742873Y-20019389D02*
X17733349Y-20000341D01*
X17733349Y-20000341D02*
X17714301Y-19990817D01*
X17714301Y-19990817D02*
X17685730Y-19990817D01*
X17685730Y-19990817D02*
X17666682Y-19981293D01*
X17666682Y-19981293D02*
X17657158Y-19962246D01*
X17657158Y-19962246D02*
X17657158Y-19952722D01*
X17657158Y-19952722D02*
X17666682Y-19933674D01*
X17666682Y-19933674D02*
X17685730Y-19924150D01*
X17685730Y-19924150D02*
X17714301Y-19924150D01*
X17714301Y-19924150D02*
X17733349Y-19933674D01*
X17809539Y-20133674D02*
X17819063Y-20124150D01*
X17819063Y-20124150D02*
X17838111Y-20095579D01*
X17838111Y-20095579D02*
X17847634Y-20076531D01*
X17847634Y-20076531D02*
X17857158Y-20047960D01*
X17857158Y-20047960D02*
X17866682Y-20000341D01*
X17866682Y-20000341D02*
X17866682Y-19962246D01*
X17866682Y-19962246D02*
X17857158Y-19914627D01*
X17857158Y-19914627D02*
X17847634Y-19886055D01*
X17847634Y-19886055D02*
X17838111Y-19867008D01*
X17838111Y-19867008D02*
X17819063Y-19838436D01*
X17819063Y-19838436D02*
X17809539Y-19828912D01*
D13*
X12742400Y-20179200D02*
X12844000Y-20280800D01*
X12844000Y-20179200D02*
X12742400Y-20280800D01*
X12793200Y-20179200D02*
X12793200Y-20280800D01*
X12742400Y-20230000D02*
X12844000Y-20230000D01*
D11*
X13209539Y-20321484D02*
X13095253Y-20321484D01*
X13152396Y-20321484D02*
X13152396Y-20121484D01*
X13152396Y-20121484D02*
X13133348Y-20150055D01*
X13133348Y-20150055D02*
X13114301Y-20169103D01*
X13114301Y-20169103D02*
X13095253Y-20178627D01*
X13295253Y-20302436D02*
X13304777Y-20311960D01*
X13304777Y-20311960D02*
X13295253Y-20321484D01*
X13295253Y-20321484D02*
X13285729Y-20311960D01*
X13285729Y-20311960D02*
X13295253Y-20302436D01*
X13295253Y-20302436D02*
X13295253Y-20321484D01*
X13428586Y-20121484D02*
X13447634Y-20121484D01*
X13447634Y-20121484D02*
X13466682Y-20131008D01*
X13466682Y-20131008D02*
X13476205Y-20140531D01*
X13476205Y-20140531D02*
X13485729Y-20159579D01*
X13485729Y-20159579D02*
X13495253Y-20197674D01*
X13495253Y-20197674D02*
X13495253Y-20245293D01*
X13495253Y-20245293D02*
X13485729Y-20283389D01*
X13485729Y-20283389D02*
X13476205Y-20302436D01*
X13476205Y-20302436D02*
X13466682Y-20311960D01*
X13466682Y-20311960D02*
X13447634Y-20321484D01*
X13447634Y-20321484D02*
X13428586Y-20321484D01*
X13428586Y-20321484D02*
X13409539Y-20311960D01*
X13409539Y-20311960D02*
X13400015Y-20302436D01*
X13400015Y-20302436D02*
X13390491Y-20283389D01*
X13390491Y-20283389D02*
X13380967Y-20245293D01*
X13380967Y-20245293D02*
X13380967Y-20197674D01*
X13380967Y-20197674D02*
X13390491Y-20159579D01*
X13390491Y-20159579D02*
X13400015Y-20140531D01*
X13400015Y-20140531D02*
X13409539Y-20131008D01*
X13409539Y-20131008D02*
X13428586Y-20121484D01*
X13685729Y-20321484D02*
X13571443Y-20321484D01*
X13628586Y-20321484D02*
X13628586Y-20121484D01*
X13628586Y-20121484D02*
X13609539Y-20150055D01*
X13609539Y-20150055D02*
X13590491Y-20169103D01*
X13590491Y-20169103D02*
X13571443Y-20178627D01*
X13857158Y-20121484D02*
X13819062Y-20121484D01*
X13819062Y-20121484D02*
X13800015Y-20131008D01*
X13800015Y-20131008D02*
X13790491Y-20140531D01*
X13790491Y-20140531D02*
X13771443Y-20169103D01*
X13771443Y-20169103D02*
X13761920Y-20207198D01*
X13761920Y-20207198D02*
X13761920Y-20283389D01*
X13761920Y-20283389D02*
X13771443Y-20302436D01*
X13771443Y-20302436D02*
X13780967Y-20311960D01*
X13780967Y-20311960D02*
X13800015Y-20321484D01*
X13800015Y-20321484D02*
X13838110Y-20321484D01*
X13838110Y-20321484D02*
X13857158Y-20311960D01*
X13857158Y-20311960D02*
X13866682Y-20302436D01*
X13866682Y-20302436D02*
X13876205Y-20283389D01*
X13876205Y-20283389D02*
X13876205Y-20235770D01*
X13876205Y-20235770D02*
X13866682Y-20216722D01*
X13866682Y-20216722D02*
X13857158Y-20207198D01*
X13857158Y-20207198D02*
X13838110Y-20197674D01*
X13838110Y-20197674D02*
X13800015Y-20197674D01*
X13800015Y-20197674D02*
X13780967Y-20207198D01*
X13780967Y-20207198D02*
X13771443Y-20216722D01*
X13771443Y-20216722D02*
X13761920Y-20235770D01*
X13961920Y-20321484D02*
X13961920Y-20188150D01*
X13961920Y-20207198D02*
X13971443Y-20197674D01*
X13971443Y-20197674D02*
X13990491Y-20188150D01*
X13990491Y-20188150D02*
X14019063Y-20188150D01*
X14019063Y-20188150D02*
X14038110Y-20197674D01*
X14038110Y-20197674D02*
X14047634Y-20216722D01*
X14047634Y-20216722D02*
X14047634Y-20321484D01*
X14047634Y-20216722D02*
X14057158Y-20197674D01*
X14057158Y-20197674D02*
X14076205Y-20188150D01*
X14076205Y-20188150D02*
X14104777Y-20188150D01*
X14104777Y-20188150D02*
X14123824Y-20197674D01*
X14123824Y-20197674D02*
X14133348Y-20216722D01*
X14133348Y-20216722D02*
X14133348Y-20321484D01*
X14228586Y-20321484D02*
X14228586Y-20188150D01*
X14228586Y-20207198D02*
X14238110Y-20197674D01*
X14238110Y-20197674D02*
X14257158Y-20188150D01*
X14257158Y-20188150D02*
X14285729Y-20188150D01*
X14285729Y-20188150D02*
X14304777Y-20197674D01*
X14304777Y-20197674D02*
X14314301Y-20216722D01*
X14314301Y-20216722D02*
X14314301Y-20321484D01*
X14314301Y-20216722D02*
X14323824Y-20197674D01*
X14323824Y-20197674D02*
X14342872Y-20188150D01*
X14342872Y-20188150D02*
X14371443Y-20188150D01*
X14371443Y-20188150D02*
X14390491Y-20197674D01*
X14390491Y-20197674D02*
X14400015Y-20216722D01*
X14400015Y-20216722D02*
X14400015Y-20321484D01*
X14790491Y-20111960D02*
X14619063Y-20369103D01*
X15047634Y-20121484D02*
X15066682Y-20121484D01*
X15066682Y-20121484D02*
X15085729Y-20131008D01*
X15085729Y-20131008D02*
X15095253Y-20140531D01*
X15095253Y-20140531D02*
X15104777Y-20159579D01*
X15104777Y-20159579D02*
X15114301Y-20197674D01*
X15114301Y-20197674D02*
X15114301Y-20245293D01*
X15114301Y-20245293D02*
X15104777Y-20283389D01*
X15104777Y-20283389D02*
X15095253Y-20302436D01*
X15095253Y-20302436D02*
X15085729Y-20311960D01*
X15085729Y-20311960D02*
X15066682Y-20321484D01*
X15066682Y-20321484D02*
X15047634Y-20321484D01*
X15047634Y-20321484D02*
X15028586Y-20311960D01*
X15028586Y-20311960D02*
X15019063Y-20302436D01*
X15019063Y-20302436D02*
X15009539Y-20283389D01*
X15009539Y-20283389D02*
X15000015Y-20245293D01*
X15000015Y-20245293D02*
X15000015Y-20197674D01*
X15000015Y-20197674D02*
X15009539Y-20159579D01*
X15009539Y-20159579D02*
X15019063Y-20140531D01*
X15019063Y-20140531D02*
X15028586Y-20131008D01*
X15028586Y-20131008D02*
X15047634Y-20121484D01*
X15200015Y-20302436D02*
X15209539Y-20311960D01*
X15209539Y-20311960D02*
X15200015Y-20321484D01*
X15200015Y-20321484D02*
X15190491Y-20311960D01*
X15190491Y-20311960D02*
X15200015Y-20302436D01*
X15200015Y-20302436D02*
X15200015Y-20321484D01*
X15333348Y-20121484D02*
X15352396Y-20121484D01*
X15352396Y-20121484D02*
X15371444Y-20131008D01*
X15371444Y-20131008D02*
X15380967Y-20140531D01*
X15380967Y-20140531D02*
X15390491Y-20159579D01*
X15390491Y-20159579D02*
X15400015Y-20197674D01*
X15400015Y-20197674D02*
X15400015Y-20245293D01*
X15400015Y-20245293D02*
X15390491Y-20283389D01*
X15390491Y-20283389D02*
X15380967Y-20302436D01*
X15380967Y-20302436D02*
X15371444Y-20311960D01*
X15371444Y-20311960D02*
X15352396Y-20321484D01*
X15352396Y-20321484D02*
X15333348Y-20321484D01*
X15333348Y-20321484D02*
X15314301Y-20311960D01*
X15314301Y-20311960D02*
X15304777Y-20302436D01*
X15304777Y-20302436D02*
X15295253Y-20283389D01*
X15295253Y-20283389D02*
X15285729Y-20245293D01*
X15285729Y-20245293D02*
X15285729Y-20197674D01*
X15285729Y-20197674D02*
X15295253Y-20159579D01*
X15295253Y-20159579D02*
X15304777Y-20140531D01*
X15304777Y-20140531D02*
X15314301Y-20131008D01*
X15314301Y-20131008D02*
X15333348Y-20121484D01*
X15571444Y-20188150D02*
X15571444Y-20321484D01*
X15523825Y-20111960D02*
X15476206Y-20254817D01*
X15476206Y-20254817D02*
X15600015Y-20254817D01*
X15714301Y-20121484D02*
X15733348Y-20121484D01*
X15733348Y-20121484D02*
X15752396Y-20131008D01*
X15752396Y-20131008D02*
X15761920Y-20140531D01*
X15761920Y-20140531D02*
X15771444Y-20159579D01*
X15771444Y-20159579D02*
X15780967Y-20197674D01*
X15780967Y-20197674D02*
X15780967Y-20245293D01*
X15780967Y-20245293D02*
X15771444Y-20283389D01*
X15771444Y-20283389D02*
X15761920Y-20302436D01*
X15761920Y-20302436D02*
X15752396Y-20311960D01*
X15752396Y-20311960D02*
X15733348Y-20321484D01*
X15733348Y-20321484D02*
X15714301Y-20321484D01*
X15714301Y-20321484D02*
X15695253Y-20311960D01*
X15695253Y-20311960D02*
X15685729Y-20302436D01*
X15685729Y-20302436D02*
X15676206Y-20283389D01*
X15676206Y-20283389D02*
X15666682Y-20245293D01*
X15666682Y-20245293D02*
X15666682Y-20197674D01*
X15666682Y-20197674D02*
X15676206Y-20159579D01*
X15676206Y-20159579D02*
X15685729Y-20140531D01*
X15685729Y-20140531D02*
X15695253Y-20131008D01*
X15695253Y-20131008D02*
X15714301Y-20121484D01*
X15904777Y-20121484D02*
X15923825Y-20121484D01*
X15923825Y-20121484D02*
X15942872Y-20131008D01*
X15942872Y-20131008D02*
X15952396Y-20140531D01*
X15952396Y-20140531D02*
X15961920Y-20159579D01*
X15961920Y-20159579D02*
X15971444Y-20197674D01*
X15971444Y-20197674D02*
X15971444Y-20245293D01*
X15971444Y-20245293D02*
X15961920Y-20283389D01*
X15961920Y-20283389D02*
X15952396Y-20302436D01*
X15952396Y-20302436D02*
X15942872Y-20311960D01*
X15942872Y-20311960D02*
X15923825Y-20321484D01*
X15923825Y-20321484D02*
X15904777Y-20321484D01*
X15904777Y-20321484D02*
X15885729Y-20311960D01*
X15885729Y-20311960D02*
X15876206Y-20302436D01*
X15876206Y-20302436D02*
X15866682Y-20283389D01*
X15866682Y-20283389D02*
X15857158Y-20245293D01*
X15857158Y-20245293D02*
X15857158Y-20197674D01*
X15857158Y-20197674D02*
X15866682Y-20159579D01*
X15866682Y-20159579D02*
X15876206Y-20140531D01*
X15876206Y-20140531D02*
X15885729Y-20131008D01*
X15885729Y-20131008D02*
X15904777Y-20121484D01*
X16047634Y-20121484D02*
X16047634Y-20159579D01*
X16123825Y-20121484D02*
X16123825Y-20159579D01*
X16419063Y-20397674D02*
X16409539Y-20388150D01*
X16409539Y-20388150D02*
X16390491Y-20359579D01*
X16390491Y-20359579D02*
X16380968Y-20340531D01*
X16380968Y-20340531D02*
X16371444Y-20311960D01*
X16371444Y-20311960D02*
X16361920Y-20264341D01*
X16361920Y-20264341D02*
X16361920Y-20226246D01*
X16361920Y-20226246D02*
X16371444Y-20178627D01*
X16371444Y-20178627D02*
X16380968Y-20150055D01*
X16380968Y-20150055D02*
X16390491Y-20131008D01*
X16390491Y-20131008D02*
X16409539Y-20102436D01*
X16409539Y-20102436D02*
X16419063Y-20092912D01*
X16580968Y-20188150D02*
X16580968Y-20321484D01*
X16533348Y-20111960D02*
X16485729Y-20254817D01*
X16485729Y-20254817D02*
X16609539Y-20254817D01*
X16838111Y-20321484D02*
X16838111Y-20121484D01*
X16923825Y-20321484D02*
X16923825Y-20216722D01*
X16923825Y-20216722D02*
X16914301Y-20197674D01*
X16914301Y-20197674D02*
X16895253Y-20188150D01*
X16895253Y-20188150D02*
X16866682Y-20188150D01*
X16866682Y-20188150D02*
X16847634Y-20197674D01*
X16847634Y-20197674D02*
X16838111Y-20207198D01*
X17047634Y-20321484D02*
X17028587Y-20311960D01*
X17028587Y-20311960D02*
X17019063Y-20302436D01*
X17019063Y-20302436D02*
X17009539Y-20283389D01*
X17009539Y-20283389D02*
X17009539Y-20226246D01*
X17009539Y-20226246D02*
X17019063Y-20207198D01*
X17019063Y-20207198D02*
X17028587Y-20197674D01*
X17028587Y-20197674D02*
X17047634Y-20188150D01*
X17047634Y-20188150D02*
X17076206Y-20188150D01*
X17076206Y-20188150D02*
X17095253Y-20197674D01*
X17095253Y-20197674D02*
X17104777Y-20207198D01*
X17104777Y-20207198D02*
X17114301Y-20226246D01*
X17114301Y-20226246D02*
X17114301Y-20283389D01*
X17114301Y-20283389D02*
X17104777Y-20302436D01*
X17104777Y-20302436D02*
X17095253Y-20311960D01*
X17095253Y-20311960D02*
X17076206Y-20321484D01*
X17076206Y-20321484D02*
X17047634Y-20321484D01*
X17228587Y-20321484D02*
X17209539Y-20311960D01*
X17209539Y-20311960D02*
X17200015Y-20292912D01*
X17200015Y-20292912D02*
X17200015Y-20121484D01*
X17380968Y-20311960D02*
X17361920Y-20321484D01*
X17361920Y-20321484D02*
X17323825Y-20321484D01*
X17323825Y-20321484D02*
X17304777Y-20311960D01*
X17304777Y-20311960D02*
X17295253Y-20292912D01*
X17295253Y-20292912D02*
X17295253Y-20216722D01*
X17295253Y-20216722D02*
X17304777Y-20197674D01*
X17304777Y-20197674D02*
X17323825Y-20188150D01*
X17323825Y-20188150D02*
X17361920Y-20188150D01*
X17361920Y-20188150D02*
X17380968Y-20197674D01*
X17380968Y-20197674D02*
X17390492Y-20216722D01*
X17390492Y-20216722D02*
X17390492Y-20235770D01*
X17390492Y-20235770D02*
X17295253Y-20254817D01*
X17466682Y-20311960D02*
X17485730Y-20321484D01*
X17485730Y-20321484D02*
X17523825Y-20321484D01*
X17523825Y-20321484D02*
X17542873Y-20311960D01*
X17542873Y-20311960D02*
X17552396Y-20292912D01*
X17552396Y-20292912D02*
X17552396Y-20283389D01*
X17552396Y-20283389D02*
X17542873Y-20264341D01*
X17542873Y-20264341D02*
X17523825Y-20254817D01*
X17523825Y-20254817D02*
X17495253Y-20254817D01*
X17495253Y-20254817D02*
X17476206Y-20245293D01*
X17476206Y-20245293D02*
X17466682Y-20226246D01*
X17466682Y-20226246D02*
X17466682Y-20216722D01*
X17466682Y-20216722D02*
X17476206Y-20197674D01*
X17476206Y-20197674D02*
X17495253Y-20188150D01*
X17495253Y-20188150D02*
X17523825Y-20188150D01*
X17523825Y-20188150D02*
X17542873Y-20197674D01*
X17619063Y-20397674D02*
X17628587Y-20388150D01*
X17628587Y-20388150D02*
X17647634Y-20359579D01*
X17647634Y-20359579D02*
X17657158Y-20340531D01*
X17657158Y-20340531D02*
X17666682Y-20311960D01*
X17666682Y-20311960D02*
X17676206Y-20264341D01*
X17676206Y-20264341D02*
X17676206Y-20226246D01*
X17676206Y-20226246D02*
X17666682Y-20178627D01*
X17666682Y-20178627D02*
X17657158Y-20150055D01*
X17657158Y-20150055D02*
X17647634Y-20131008D01*
X17647634Y-20131008D02*
X17628587Y-20102436D01*
X17628587Y-20102436D02*
X17619063Y-20092912D01*
D14*
X12742000Y-20443000D02*
X12844000Y-20545000D01*
X12844000Y-20443000D02*
X12742000Y-20545000D01*
X12829063Y-20530063D02*
X12829063Y-20457937D01*
X12756937Y-20457937D01*
X12756937Y-20530063D01*
X12829063Y-20530063D01*
D11*
X13209539Y-20585484D02*
X13095253Y-20585484D01*
X13152396Y-20585484D02*
X13152396Y-20385484D01*
X13152396Y-20385484D02*
X13133348Y-20414055D01*
X13133348Y-20414055D02*
X13114301Y-20433103D01*
X13114301Y-20433103D02*
X13095253Y-20442627D01*
X13295253Y-20566436D02*
X13304777Y-20575960D01*
X13304777Y-20575960D02*
X13295253Y-20585484D01*
X13295253Y-20585484D02*
X13285729Y-20575960D01*
X13285729Y-20575960D02*
X13295253Y-20566436D01*
X13295253Y-20566436D02*
X13295253Y-20585484D01*
X13428586Y-20385484D02*
X13447634Y-20385484D01*
X13447634Y-20385484D02*
X13466682Y-20395008D01*
X13466682Y-20395008D02*
X13476205Y-20404531D01*
X13476205Y-20404531D02*
X13485729Y-20423579D01*
X13485729Y-20423579D02*
X13495253Y-20461674D01*
X13495253Y-20461674D02*
X13495253Y-20509293D01*
X13495253Y-20509293D02*
X13485729Y-20547389D01*
X13485729Y-20547389D02*
X13476205Y-20566436D01*
X13476205Y-20566436D02*
X13466682Y-20575960D01*
X13466682Y-20575960D02*
X13447634Y-20585484D01*
X13447634Y-20585484D02*
X13428586Y-20585484D01*
X13428586Y-20585484D02*
X13409539Y-20575960D01*
X13409539Y-20575960D02*
X13400015Y-20566436D01*
X13400015Y-20566436D02*
X13390491Y-20547389D01*
X13390491Y-20547389D02*
X13380967Y-20509293D01*
X13380967Y-20509293D02*
X13380967Y-20461674D01*
X13380967Y-20461674D02*
X13390491Y-20423579D01*
X13390491Y-20423579D02*
X13400015Y-20404531D01*
X13400015Y-20404531D02*
X13409539Y-20395008D01*
X13409539Y-20395008D02*
X13428586Y-20385484D01*
X13571443Y-20404531D02*
X13580967Y-20395008D01*
X13580967Y-20395008D02*
X13600015Y-20385484D01*
X13600015Y-20385484D02*
X13647634Y-20385484D01*
X13647634Y-20385484D02*
X13666682Y-20395008D01*
X13666682Y-20395008D02*
X13676205Y-20404531D01*
X13676205Y-20404531D02*
X13685729Y-20423579D01*
X13685729Y-20423579D02*
X13685729Y-20442627D01*
X13685729Y-20442627D02*
X13676205Y-20471198D01*
X13676205Y-20471198D02*
X13561920Y-20585484D01*
X13561920Y-20585484D02*
X13685729Y-20585484D01*
X13809539Y-20385484D02*
X13828586Y-20385484D01*
X13828586Y-20385484D02*
X13847634Y-20395008D01*
X13847634Y-20395008D02*
X13857158Y-20404531D01*
X13857158Y-20404531D02*
X13866682Y-20423579D01*
X13866682Y-20423579D02*
X13876205Y-20461674D01*
X13876205Y-20461674D02*
X13876205Y-20509293D01*
X13876205Y-20509293D02*
X13866682Y-20547389D01*
X13866682Y-20547389D02*
X13857158Y-20566436D01*
X13857158Y-20566436D02*
X13847634Y-20575960D01*
X13847634Y-20575960D02*
X13828586Y-20585484D01*
X13828586Y-20585484D02*
X13809539Y-20585484D01*
X13809539Y-20585484D02*
X13790491Y-20575960D01*
X13790491Y-20575960D02*
X13780967Y-20566436D01*
X13780967Y-20566436D02*
X13771443Y-20547389D01*
X13771443Y-20547389D02*
X13761920Y-20509293D01*
X13761920Y-20509293D02*
X13761920Y-20461674D01*
X13761920Y-20461674D02*
X13771443Y-20423579D01*
X13771443Y-20423579D02*
X13780967Y-20404531D01*
X13780967Y-20404531D02*
X13790491Y-20395008D01*
X13790491Y-20395008D02*
X13809539Y-20385484D01*
X13961920Y-20585484D02*
X13961920Y-20452150D01*
X13961920Y-20471198D02*
X13971443Y-20461674D01*
X13971443Y-20461674D02*
X13990491Y-20452150D01*
X13990491Y-20452150D02*
X14019063Y-20452150D01*
X14019063Y-20452150D02*
X14038110Y-20461674D01*
X14038110Y-20461674D02*
X14047634Y-20480722D01*
X14047634Y-20480722D02*
X14047634Y-20585484D01*
X14047634Y-20480722D02*
X14057158Y-20461674D01*
X14057158Y-20461674D02*
X14076205Y-20452150D01*
X14076205Y-20452150D02*
X14104777Y-20452150D01*
X14104777Y-20452150D02*
X14123824Y-20461674D01*
X14123824Y-20461674D02*
X14133348Y-20480722D01*
X14133348Y-20480722D02*
X14133348Y-20585484D01*
X14228586Y-20585484D02*
X14228586Y-20452150D01*
X14228586Y-20471198D02*
X14238110Y-20461674D01*
X14238110Y-20461674D02*
X14257158Y-20452150D01*
X14257158Y-20452150D02*
X14285729Y-20452150D01*
X14285729Y-20452150D02*
X14304777Y-20461674D01*
X14304777Y-20461674D02*
X14314301Y-20480722D01*
X14314301Y-20480722D02*
X14314301Y-20585484D01*
X14314301Y-20480722D02*
X14323824Y-20461674D01*
X14323824Y-20461674D02*
X14342872Y-20452150D01*
X14342872Y-20452150D02*
X14371443Y-20452150D01*
X14371443Y-20452150D02*
X14390491Y-20461674D01*
X14390491Y-20461674D02*
X14400015Y-20480722D01*
X14400015Y-20480722D02*
X14400015Y-20585484D01*
X14790491Y-20375960D02*
X14619063Y-20633103D01*
X15047634Y-20385484D02*
X15066682Y-20385484D01*
X15066682Y-20385484D02*
X15085729Y-20395008D01*
X15085729Y-20395008D02*
X15095253Y-20404531D01*
X15095253Y-20404531D02*
X15104777Y-20423579D01*
X15104777Y-20423579D02*
X15114301Y-20461674D01*
X15114301Y-20461674D02*
X15114301Y-20509293D01*
X15114301Y-20509293D02*
X15104777Y-20547389D01*
X15104777Y-20547389D02*
X15095253Y-20566436D01*
X15095253Y-20566436D02*
X15085729Y-20575960D01*
X15085729Y-20575960D02*
X15066682Y-20585484D01*
X15066682Y-20585484D02*
X15047634Y-20585484D01*
X15047634Y-20585484D02*
X15028586Y-20575960D01*
X15028586Y-20575960D02*
X15019063Y-20566436D01*
X15019063Y-20566436D02*
X15009539Y-20547389D01*
X15009539Y-20547389D02*
X15000015Y-20509293D01*
X15000015Y-20509293D02*
X15000015Y-20461674D01*
X15000015Y-20461674D02*
X15009539Y-20423579D01*
X15009539Y-20423579D02*
X15019063Y-20404531D01*
X15019063Y-20404531D02*
X15028586Y-20395008D01*
X15028586Y-20395008D02*
X15047634Y-20385484D01*
X15200015Y-20566436D02*
X15209539Y-20575960D01*
X15209539Y-20575960D02*
X15200015Y-20585484D01*
X15200015Y-20585484D02*
X15190491Y-20575960D01*
X15190491Y-20575960D02*
X15200015Y-20566436D01*
X15200015Y-20566436D02*
X15200015Y-20585484D01*
X15333348Y-20385484D02*
X15352396Y-20385484D01*
X15352396Y-20385484D02*
X15371444Y-20395008D01*
X15371444Y-20395008D02*
X15380967Y-20404531D01*
X15380967Y-20404531D02*
X15390491Y-20423579D01*
X15390491Y-20423579D02*
X15400015Y-20461674D01*
X15400015Y-20461674D02*
X15400015Y-20509293D01*
X15400015Y-20509293D02*
X15390491Y-20547389D01*
X15390491Y-20547389D02*
X15380967Y-20566436D01*
X15380967Y-20566436D02*
X15371444Y-20575960D01*
X15371444Y-20575960D02*
X15352396Y-20585484D01*
X15352396Y-20585484D02*
X15333348Y-20585484D01*
X15333348Y-20585484D02*
X15314301Y-20575960D01*
X15314301Y-20575960D02*
X15304777Y-20566436D01*
X15304777Y-20566436D02*
X15295253Y-20547389D01*
X15295253Y-20547389D02*
X15285729Y-20509293D01*
X15285729Y-20509293D02*
X15285729Y-20461674D01*
X15285729Y-20461674D02*
X15295253Y-20423579D01*
X15295253Y-20423579D02*
X15304777Y-20404531D01*
X15304777Y-20404531D02*
X15314301Y-20395008D01*
X15314301Y-20395008D02*
X15333348Y-20385484D01*
X15571444Y-20452150D02*
X15571444Y-20585484D01*
X15523825Y-20375960D02*
X15476206Y-20518817D01*
X15476206Y-20518817D02*
X15600015Y-20518817D01*
X15714301Y-20385484D02*
X15733348Y-20385484D01*
X15733348Y-20385484D02*
X15752396Y-20395008D01*
X15752396Y-20395008D02*
X15761920Y-20404531D01*
X15761920Y-20404531D02*
X15771444Y-20423579D01*
X15771444Y-20423579D02*
X15780967Y-20461674D01*
X15780967Y-20461674D02*
X15780967Y-20509293D01*
X15780967Y-20509293D02*
X15771444Y-20547389D01*
X15771444Y-20547389D02*
X15761920Y-20566436D01*
X15761920Y-20566436D02*
X15752396Y-20575960D01*
X15752396Y-20575960D02*
X15733348Y-20585484D01*
X15733348Y-20585484D02*
X15714301Y-20585484D01*
X15714301Y-20585484D02*
X15695253Y-20575960D01*
X15695253Y-20575960D02*
X15685729Y-20566436D01*
X15685729Y-20566436D02*
X15676206Y-20547389D01*
X15676206Y-20547389D02*
X15666682Y-20509293D01*
X15666682Y-20509293D02*
X15666682Y-20461674D01*
X15666682Y-20461674D02*
X15676206Y-20423579D01*
X15676206Y-20423579D02*
X15685729Y-20404531D01*
X15685729Y-20404531D02*
X15695253Y-20395008D01*
X15695253Y-20395008D02*
X15714301Y-20385484D01*
X15857158Y-20404531D02*
X15866682Y-20395008D01*
X15866682Y-20395008D02*
X15885729Y-20385484D01*
X15885729Y-20385484D02*
X15933348Y-20385484D01*
X15933348Y-20385484D02*
X15952396Y-20395008D01*
X15952396Y-20395008D02*
X15961920Y-20404531D01*
X15961920Y-20404531D02*
X15971444Y-20423579D01*
X15971444Y-20423579D02*
X15971444Y-20442627D01*
X15971444Y-20442627D02*
X15961920Y-20471198D01*
X15961920Y-20471198D02*
X15847634Y-20585484D01*
X15847634Y-20585484D02*
X15971444Y-20585484D01*
X16047634Y-20385484D02*
X16047634Y-20423579D01*
X16123825Y-20385484D02*
X16123825Y-20423579D01*
X16419063Y-20661674D02*
X16409539Y-20652150D01*
X16409539Y-20652150D02*
X16390491Y-20623579D01*
X16390491Y-20623579D02*
X16380968Y-20604531D01*
X16380968Y-20604531D02*
X16371444Y-20575960D01*
X16371444Y-20575960D02*
X16361920Y-20528341D01*
X16361920Y-20528341D02*
X16361920Y-20490246D01*
X16361920Y-20490246D02*
X16371444Y-20442627D01*
X16371444Y-20442627D02*
X16380968Y-20414055D01*
X16380968Y-20414055D02*
X16390491Y-20395008D01*
X16390491Y-20395008D02*
X16409539Y-20366436D01*
X16409539Y-20366436D02*
X16419063Y-20356912D01*
X16600015Y-20585484D02*
X16485729Y-20585484D01*
X16542872Y-20585484D02*
X16542872Y-20385484D01*
X16542872Y-20385484D02*
X16523825Y-20414055D01*
X16523825Y-20414055D02*
X16504777Y-20433103D01*
X16504777Y-20433103D02*
X16485729Y-20442627D01*
X16723825Y-20385484D02*
X16742872Y-20385484D01*
X16742872Y-20385484D02*
X16761920Y-20395008D01*
X16761920Y-20395008D02*
X16771444Y-20404531D01*
X16771444Y-20404531D02*
X16780968Y-20423579D01*
X16780968Y-20423579D02*
X16790491Y-20461674D01*
X16790491Y-20461674D02*
X16790491Y-20509293D01*
X16790491Y-20509293D02*
X16780968Y-20547389D01*
X16780968Y-20547389D02*
X16771444Y-20566436D01*
X16771444Y-20566436D02*
X16761920Y-20575960D01*
X16761920Y-20575960D02*
X16742872Y-20585484D01*
X16742872Y-20585484D02*
X16723825Y-20585484D01*
X16723825Y-20585484D02*
X16704777Y-20575960D01*
X16704777Y-20575960D02*
X16695253Y-20566436D01*
X16695253Y-20566436D02*
X16685729Y-20547389D01*
X16685729Y-20547389D02*
X16676206Y-20509293D01*
X16676206Y-20509293D02*
X16676206Y-20461674D01*
X16676206Y-20461674D02*
X16685729Y-20423579D01*
X16685729Y-20423579D02*
X16695253Y-20404531D01*
X16695253Y-20404531D02*
X16704777Y-20395008D01*
X16704777Y-20395008D02*
X16723825Y-20385484D01*
X17028587Y-20585484D02*
X17028587Y-20385484D01*
X17114301Y-20585484D02*
X17114301Y-20480722D01*
X17114301Y-20480722D02*
X17104777Y-20461674D01*
X17104777Y-20461674D02*
X17085730Y-20452150D01*
X17085730Y-20452150D02*
X17057158Y-20452150D01*
X17057158Y-20452150D02*
X17038111Y-20461674D01*
X17038111Y-20461674D02*
X17028587Y-20471198D01*
X17238111Y-20585484D02*
X17219063Y-20575960D01*
X17219063Y-20575960D02*
X17209539Y-20566436D01*
X17209539Y-20566436D02*
X17200015Y-20547389D01*
X17200015Y-20547389D02*
X17200015Y-20490246D01*
X17200015Y-20490246D02*
X17209539Y-20471198D01*
X17209539Y-20471198D02*
X17219063Y-20461674D01*
X17219063Y-20461674D02*
X17238111Y-20452150D01*
X17238111Y-20452150D02*
X17266682Y-20452150D01*
X17266682Y-20452150D02*
X17285730Y-20461674D01*
X17285730Y-20461674D02*
X17295253Y-20471198D01*
X17295253Y-20471198D02*
X17304777Y-20490246D01*
X17304777Y-20490246D02*
X17304777Y-20547389D01*
X17304777Y-20547389D02*
X17295253Y-20566436D01*
X17295253Y-20566436D02*
X17285730Y-20575960D01*
X17285730Y-20575960D02*
X17266682Y-20585484D01*
X17266682Y-20585484D02*
X17238111Y-20585484D01*
X17419063Y-20585484D02*
X17400015Y-20575960D01*
X17400015Y-20575960D02*
X17390492Y-20556912D01*
X17390492Y-20556912D02*
X17390492Y-20385484D01*
X17571444Y-20575960D02*
X17552396Y-20585484D01*
X17552396Y-20585484D02*
X17514301Y-20585484D01*
X17514301Y-20585484D02*
X17495253Y-20575960D01*
X17495253Y-20575960D02*
X17485730Y-20556912D01*
X17485730Y-20556912D02*
X17485730Y-20480722D01*
X17485730Y-20480722D02*
X17495253Y-20461674D01*
X17495253Y-20461674D02*
X17514301Y-20452150D01*
X17514301Y-20452150D02*
X17552396Y-20452150D01*
X17552396Y-20452150D02*
X17571444Y-20461674D01*
X17571444Y-20461674D02*
X17580968Y-20480722D01*
X17580968Y-20480722D02*
X17580968Y-20499770D01*
X17580968Y-20499770D02*
X17485730Y-20518817D01*
X17657158Y-20575960D02*
X17676206Y-20585484D01*
X17676206Y-20585484D02*
X17714301Y-20585484D01*
X17714301Y-20585484D02*
X17733349Y-20575960D01*
X17733349Y-20575960D02*
X17742873Y-20556912D01*
X17742873Y-20556912D02*
X17742873Y-20547389D01*
X17742873Y-20547389D02*
X17733349Y-20528341D01*
X17733349Y-20528341D02*
X17714301Y-20518817D01*
X17714301Y-20518817D02*
X17685730Y-20518817D01*
X17685730Y-20518817D02*
X17666682Y-20509293D01*
X17666682Y-20509293D02*
X17657158Y-20490246D01*
X17657158Y-20490246D02*
X17657158Y-20480722D01*
X17657158Y-20480722D02*
X17666682Y-20461674D01*
X17666682Y-20461674D02*
X17685730Y-20452150D01*
X17685730Y-20452150D02*
X17714301Y-20452150D01*
X17714301Y-20452150D02*
X17733349Y-20461674D01*
X17809539Y-20661674D02*
X17819063Y-20652150D01*
X17819063Y-20652150D02*
X17838111Y-20623579D01*
X17838111Y-20623579D02*
X17847634Y-20604531D01*
X17847634Y-20604531D02*
X17857158Y-20575960D01*
X17857158Y-20575960D02*
X17866682Y-20528341D01*
X17866682Y-20528341D02*
X17866682Y-20490246D01*
X17866682Y-20490246D02*
X17857158Y-20442627D01*
X17857158Y-20442627D02*
X17847634Y-20414055D01*
X17847634Y-20414055D02*
X17838111Y-20395008D01*
X17838111Y-20395008D02*
X17819063Y-20366436D01*
X17819063Y-20366436D02*
X17809539Y-20356912D01*
D15*
X12687000Y-20679500D02*
X12844000Y-20836500D01*
X12844000Y-20679500D02*
X12687000Y-20836500D01*
X12765500Y-20836500D02*
X12844000Y-20758000D01*
X12765500Y-20679500D01*
X12687000Y-20758000D01*
X12765500Y-20836500D01*
D11*
X13209539Y-20849484D02*
X13095253Y-20849484D01*
X13152396Y-20849484D02*
X13152396Y-20649484D01*
X13152396Y-20649484D02*
X13133348Y-20678055D01*
X13133348Y-20678055D02*
X13114301Y-20697103D01*
X13114301Y-20697103D02*
X13095253Y-20706627D01*
X13295253Y-20830436D02*
X13304777Y-20839960D01*
X13304777Y-20839960D02*
X13295253Y-20849484D01*
X13295253Y-20849484D02*
X13285729Y-20839960D01*
X13285729Y-20839960D02*
X13295253Y-20830436D01*
X13295253Y-20830436D02*
X13295253Y-20849484D01*
X13485729Y-20649484D02*
X13390491Y-20649484D01*
X13390491Y-20649484D02*
X13380967Y-20744722D01*
X13380967Y-20744722D02*
X13390491Y-20735198D01*
X13390491Y-20735198D02*
X13409539Y-20725674D01*
X13409539Y-20725674D02*
X13457158Y-20725674D01*
X13457158Y-20725674D02*
X13476205Y-20735198D01*
X13476205Y-20735198D02*
X13485729Y-20744722D01*
X13485729Y-20744722D02*
X13495253Y-20763770D01*
X13495253Y-20763770D02*
X13495253Y-20811389D01*
X13495253Y-20811389D02*
X13485729Y-20830436D01*
X13485729Y-20830436D02*
X13476205Y-20839960D01*
X13476205Y-20839960D02*
X13457158Y-20849484D01*
X13457158Y-20849484D02*
X13409539Y-20849484D01*
X13409539Y-20849484D02*
X13390491Y-20839960D01*
X13390491Y-20839960D02*
X13380967Y-20830436D01*
X13561920Y-20649484D02*
X13695253Y-20649484D01*
X13695253Y-20649484D02*
X13609539Y-20849484D01*
X13809539Y-20649484D02*
X13828586Y-20649484D01*
X13828586Y-20649484D02*
X13847634Y-20659008D01*
X13847634Y-20659008D02*
X13857158Y-20668531D01*
X13857158Y-20668531D02*
X13866682Y-20687579D01*
X13866682Y-20687579D02*
X13876205Y-20725674D01*
X13876205Y-20725674D02*
X13876205Y-20773293D01*
X13876205Y-20773293D02*
X13866682Y-20811389D01*
X13866682Y-20811389D02*
X13857158Y-20830436D01*
X13857158Y-20830436D02*
X13847634Y-20839960D01*
X13847634Y-20839960D02*
X13828586Y-20849484D01*
X13828586Y-20849484D02*
X13809539Y-20849484D01*
X13809539Y-20849484D02*
X13790491Y-20839960D01*
X13790491Y-20839960D02*
X13780967Y-20830436D01*
X13780967Y-20830436D02*
X13771443Y-20811389D01*
X13771443Y-20811389D02*
X13761920Y-20773293D01*
X13761920Y-20773293D02*
X13761920Y-20725674D01*
X13761920Y-20725674D02*
X13771443Y-20687579D01*
X13771443Y-20687579D02*
X13780967Y-20668531D01*
X13780967Y-20668531D02*
X13790491Y-20659008D01*
X13790491Y-20659008D02*
X13809539Y-20649484D01*
X13961920Y-20849484D02*
X13961920Y-20716150D01*
X13961920Y-20735198D02*
X13971443Y-20725674D01*
X13971443Y-20725674D02*
X13990491Y-20716150D01*
X13990491Y-20716150D02*
X14019063Y-20716150D01*
X14019063Y-20716150D02*
X14038110Y-20725674D01*
X14038110Y-20725674D02*
X14047634Y-20744722D01*
X14047634Y-20744722D02*
X14047634Y-20849484D01*
X14047634Y-20744722D02*
X14057158Y-20725674D01*
X14057158Y-20725674D02*
X14076205Y-20716150D01*
X14076205Y-20716150D02*
X14104777Y-20716150D01*
X14104777Y-20716150D02*
X14123824Y-20725674D01*
X14123824Y-20725674D02*
X14133348Y-20744722D01*
X14133348Y-20744722D02*
X14133348Y-20849484D01*
X14228586Y-20849484D02*
X14228586Y-20716150D01*
X14228586Y-20735198D02*
X14238110Y-20725674D01*
X14238110Y-20725674D02*
X14257158Y-20716150D01*
X14257158Y-20716150D02*
X14285729Y-20716150D01*
X14285729Y-20716150D02*
X14304777Y-20725674D01*
X14304777Y-20725674D02*
X14314301Y-20744722D01*
X14314301Y-20744722D02*
X14314301Y-20849484D01*
X14314301Y-20744722D02*
X14323824Y-20725674D01*
X14323824Y-20725674D02*
X14342872Y-20716150D01*
X14342872Y-20716150D02*
X14371443Y-20716150D01*
X14371443Y-20716150D02*
X14390491Y-20725674D01*
X14390491Y-20725674D02*
X14400015Y-20744722D01*
X14400015Y-20744722D02*
X14400015Y-20849484D01*
X14790491Y-20639960D02*
X14619063Y-20897103D01*
X15047634Y-20649484D02*
X15066682Y-20649484D01*
X15066682Y-20649484D02*
X15085729Y-20659008D01*
X15085729Y-20659008D02*
X15095253Y-20668531D01*
X15095253Y-20668531D02*
X15104777Y-20687579D01*
X15104777Y-20687579D02*
X15114301Y-20725674D01*
X15114301Y-20725674D02*
X15114301Y-20773293D01*
X15114301Y-20773293D02*
X15104777Y-20811389D01*
X15104777Y-20811389D02*
X15095253Y-20830436D01*
X15095253Y-20830436D02*
X15085729Y-20839960D01*
X15085729Y-20839960D02*
X15066682Y-20849484D01*
X15066682Y-20849484D02*
X15047634Y-20849484D01*
X15047634Y-20849484D02*
X15028586Y-20839960D01*
X15028586Y-20839960D02*
X15019063Y-20830436D01*
X15019063Y-20830436D02*
X15009539Y-20811389D01*
X15009539Y-20811389D02*
X15000015Y-20773293D01*
X15000015Y-20773293D02*
X15000015Y-20725674D01*
X15000015Y-20725674D02*
X15009539Y-20687579D01*
X15009539Y-20687579D02*
X15019063Y-20668531D01*
X15019063Y-20668531D02*
X15028586Y-20659008D01*
X15028586Y-20659008D02*
X15047634Y-20649484D01*
X15200015Y-20830436D02*
X15209539Y-20839960D01*
X15209539Y-20839960D02*
X15200015Y-20849484D01*
X15200015Y-20849484D02*
X15190491Y-20839960D01*
X15190491Y-20839960D02*
X15200015Y-20830436D01*
X15200015Y-20830436D02*
X15200015Y-20849484D01*
X15333348Y-20649484D02*
X15352396Y-20649484D01*
X15352396Y-20649484D02*
X15371444Y-20659008D01*
X15371444Y-20659008D02*
X15380967Y-20668531D01*
X15380967Y-20668531D02*
X15390491Y-20687579D01*
X15390491Y-20687579D02*
X15400015Y-20725674D01*
X15400015Y-20725674D02*
X15400015Y-20773293D01*
X15400015Y-20773293D02*
X15390491Y-20811389D01*
X15390491Y-20811389D02*
X15380967Y-20830436D01*
X15380967Y-20830436D02*
X15371444Y-20839960D01*
X15371444Y-20839960D02*
X15352396Y-20849484D01*
X15352396Y-20849484D02*
X15333348Y-20849484D01*
X15333348Y-20849484D02*
X15314301Y-20839960D01*
X15314301Y-20839960D02*
X15304777Y-20830436D01*
X15304777Y-20830436D02*
X15295253Y-20811389D01*
X15295253Y-20811389D02*
X15285729Y-20773293D01*
X15285729Y-20773293D02*
X15285729Y-20725674D01*
X15285729Y-20725674D02*
X15295253Y-20687579D01*
X15295253Y-20687579D02*
X15304777Y-20668531D01*
X15304777Y-20668531D02*
X15314301Y-20659008D01*
X15314301Y-20659008D02*
X15333348Y-20649484D01*
X15571444Y-20649484D02*
X15533348Y-20649484D01*
X15533348Y-20649484D02*
X15514301Y-20659008D01*
X15514301Y-20659008D02*
X15504777Y-20668531D01*
X15504777Y-20668531D02*
X15485729Y-20697103D01*
X15485729Y-20697103D02*
X15476206Y-20735198D01*
X15476206Y-20735198D02*
X15476206Y-20811389D01*
X15476206Y-20811389D02*
X15485729Y-20830436D01*
X15485729Y-20830436D02*
X15495253Y-20839960D01*
X15495253Y-20839960D02*
X15514301Y-20849484D01*
X15514301Y-20849484D02*
X15552396Y-20849484D01*
X15552396Y-20849484D02*
X15571444Y-20839960D01*
X15571444Y-20839960D02*
X15580967Y-20830436D01*
X15580967Y-20830436D02*
X15590491Y-20811389D01*
X15590491Y-20811389D02*
X15590491Y-20763770D01*
X15590491Y-20763770D02*
X15580967Y-20744722D01*
X15580967Y-20744722D02*
X15571444Y-20735198D01*
X15571444Y-20735198D02*
X15552396Y-20725674D01*
X15552396Y-20725674D02*
X15514301Y-20725674D01*
X15514301Y-20725674D02*
X15495253Y-20735198D01*
X15495253Y-20735198D02*
X15485729Y-20744722D01*
X15485729Y-20744722D02*
X15476206Y-20763770D01*
X15780967Y-20849484D02*
X15666682Y-20849484D01*
X15723825Y-20849484D02*
X15723825Y-20649484D01*
X15723825Y-20649484D02*
X15704777Y-20678055D01*
X15704777Y-20678055D02*
X15685729Y-20697103D01*
X15685729Y-20697103D02*
X15666682Y-20706627D01*
X15895253Y-20735198D02*
X15876206Y-20725674D01*
X15876206Y-20725674D02*
X15866682Y-20716150D01*
X15866682Y-20716150D02*
X15857158Y-20697103D01*
X15857158Y-20697103D02*
X15857158Y-20687579D01*
X15857158Y-20687579D02*
X15866682Y-20668531D01*
X15866682Y-20668531D02*
X15876206Y-20659008D01*
X15876206Y-20659008D02*
X15895253Y-20649484D01*
X15895253Y-20649484D02*
X15933348Y-20649484D01*
X15933348Y-20649484D02*
X15952396Y-20659008D01*
X15952396Y-20659008D02*
X15961920Y-20668531D01*
X15961920Y-20668531D02*
X15971444Y-20687579D01*
X15971444Y-20687579D02*
X15971444Y-20697103D01*
X15971444Y-20697103D02*
X15961920Y-20716150D01*
X15961920Y-20716150D02*
X15952396Y-20725674D01*
X15952396Y-20725674D02*
X15933348Y-20735198D01*
X15933348Y-20735198D02*
X15895253Y-20735198D01*
X15895253Y-20735198D02*
X15876206Y-20744722D01*
X15876206Y-20744722D02*
X15866682Y-20754246D01*
X15866682Y-20754246D02*
X15857158Y-20773293D01*
X15857158Y-20773293D02*
X15857158Y-20811389D01*
X15857158Y-20811389D02*
X15866682Y-20830436D01*
X15866682Y-20830436D02*
X15876206Y-20839960D01*
X15876206Y-20839960D02*
X15895253Y-20849484D01*
X15895253Y-20849484D02*
X15933348Y-20849484D01*
X15933348Y-20849484D02*
X15952396Y-20839960D01*
X15952396Y-20839960D02*
X15961920Y-20830436D01*
X15961920Y-20830436D02*
X15971444Y-20811389D01*
X15971444Y-20811389D02*
X15971444Y-20773293D01*
X15971444Y-20773293D02*
X15961920Y-20754246D01*
X15961920Y-20754246D02*
X15952396Y-20744722D01*
X15952396Y-20744722D02*
X15933348Y-20735198D01*
X16047634Y-20649484D02*
X16047634Y-20687579D01*
X16123825Y-20649484D02*
X16123825Y-20687579D01*
X16419063Y-20925674D02*
X16409539Y-20916150D01*
X16409539Y-20916150D02*
X16390491Y-20887579D01*
X16390491Y-20887579D02*
X16380968Y-20868531D01*
X16380968Y-20868531D02*
X16371444Y-20839960D01*
X16371444Y-20839960D02*
X16361920Y-20792341D01*
X16361920Y-20792341D02*
X16361920Y-20754246D01*
X16361920Y-20754246D02*
X16371444Y-20706627D01*
X16371444Y-20706627D02*
X16380968Y-20678055D01*
X16380968Y-20678055D02*
X16390491Y-20659008D01*
X16390491Y-20659008D02*
X16409539Y-20630436D01*
X16409539Y-20630436D02*
X16419063Y-20620912D01*
X16485729Y-20668531D02*
X16495253Y-20659008D01*
X16495253Y-20659008D02*
X16514301Y-20649484D01*
X16514301Y-20649484D02*
X16561920Y-20649484D01*
X16561920Y-20649484D02*
X16580968Y-20659008D01*
X16580968Y-20659008D02*
X16590491Y-20668531D01*
X16590491Y-20668531D02*
X16600015Y-20687579D01*
X16600015Y-20687579D02*
X16600015Y-20706627D01*
X16600015Y-20706627D02*
X16590491Y-20735198D01*
X16590491Y-20735198D02*
X16476206Y-20849484D01*
X16476206Y-20849484D02*
X16600015Y-20849484D01*
X16838111Y-20849484D02*
X16838111Y-20649484D01*
X16923825Y-20849484D02*
X16923825Y-20744722D01*
X16923825Y-20744722D02*
X16914301Y-20725674D01*
X16914301Y-20725674D02*
X16895253Y-20716150D01*
X16895253Y-20716150D02*
X16866682Y-20716150D01*
X16866682Y-20716150D02*
X16847634Y-20725674D01*
X16847634Y-20725674D02*
X16838111Y-20735198D01*
X17047634Y-20849484D02*
X17028587Y-20839960D01*
X17028587Y-20839960D02*
X17019063Y-20830436D01*
X17019063Y-20830436D02*
X17009539Y-20811389D01*
X17009539Y-20811389D02*
X17009539Y-20754246D01*
X17009539Y-20754246D02*
X17019063Y-20735198D01*
X17019063Y-20735198D02*
X17028587Y-20725674D01*
X17028587Y-20725674D02*
X17047634Y-20716150D01*
X17047634Y-20716150D02*
X17076206Y-20716150D01*
X17076206Y-20716150D02*
X17095253Y-20725674D01*
X17095253Y-20725674D02*
X17104777Y-20735198D01*
X17104777Y-20735198D02*
X17114301Y-20754246D01*
X17114301Y-20754246D02*
X17114301Y-20811389D01*
X17114301Y-20811389D02*
X17104777Y-20830436D01*
X17104777Y-20830436D02*
X17095253Y-20839960D01*
X17095253Y-20839960D02*
X17076206Y-20849484D01*
X17076206Y-20849484D02*
X17047634Y-20849484D01*
X17228587Y-20849484D02*
X17209539Y-20839960D01*
X17209539Y-20839960D02*
X17200015Y-20820912D01*
X17200015Y-20820912D02*
X17200015Y-20649484D01*
X17380968Y-20839960D02*
X17361920Y-20849484D01*
X17361920Y-20849484D02*
X17323825Y-20849484D01*
X17323825Y-20849484D02*
X17304777Y-20839960D01*
X17304777Y-20839960D02*
X17295253Y-20820912D01*
X17295253Y-20820912D02*
X17295253Y-20744722D01*
X17295253Y-20744722D02*
X17304777Y-20725674D01*
X17304777Y-20725674D02*
X17323825Y-20716150D01*
X17323825Y-20716150D02*
X17361920Y-20716150D01*
X17361920Y-20716150D02*
X17380968Y-20725674D01*
X17380968Y-20725674D02*
X17390492Y-20744722D01*
X17390492Y-20744722D02*
X17390492Y-20763770D01*
X17390492Y-20763770D02*
X17295253Y-20782817D01*
X17466682Y-20839960D02*
X17485730Y-20849484D01*
X17485730Y-20849484D02*
X17523825Y-20849484D01*
X17523825Y-20849484D02*
X17542873Y-20839960D01*
X17542873Y-20839960D02*
X17552396Y-20820912D01*
X17552396Y-20820912D02*
X17552396Y-20811389D01*
X17552396Y-20811389D02*
X17542873Y-20792341D01*
X17542873Y-20792341D02*
X17523825Y-20782817D01*
X17523825Y-20782817D02*
X17495253Y-20782817D01*
X17495253Y-20782817D02*
X17476206Y-20773293D01*
X17476206Y-20773293D02*
X17466682Y-20754246D01*
X17466682Y-20754246D02*
X17466682Y-20744722D01*
X17466682Y-20744722D02*
X17476206Y-20725674D01*
X17476206Y-20725674D02*
X17495253Y-20716150D01*
X17495253Y-20716150D02*
X17523825Y-20716150D01*
X17523825Y-20716150D02*
X17542873Y-20725674D01*
X17619063Y-20925674D02*
X17628587Y-20916150D01*
X17628587Y-20916150D02*
X17647634Y-20887579D01*
X17647634Y-20887579D02*
X17657158Y-20868531D01*
X17657158Y-20868531D02*
X17666682Y-20839960D01*
X17666682Y-20839960D02*
X17676206Y-20792341D01*
X17676206Y-20792341D02*
X17676206Y-20754246D01*
X17676206Y-20754246D02*
X17666682Y-20706627D01*
X17666682Y-20706627D02*
X17657158Y-20678055D01*
X17657158Y-20678055D02*
X17647634Y-20659008D01*
X17647634Y-20659008D02*
X17628587Y-20630436D01*
X17628587Y-20630436D02*
X17619063Y-20620912D01*
D16*
X12764000Y-20955000D02*
X12764000Y-21115000D01*
X12684000Y-21035000D02*
X12844000Y-21035000D01*
X12844000Y-21035000D02*
G75*
G03*
X12684000Y-21035000I-80000J0D01*
G01*
X12684000Y-21035000D02*
G75*
G03*
X12844000Y-21035000I80000J0D01*
G01*
D11*
X13209539Y-21126484D02*
X13095253Y-21126484D01*
X13152396Y-21126484D02*
X13152396Y-20926484D01*
X13152396Y-20926484D02*
X13133348Y-20955055D01*
X13133348Y-20955055D02*
X13114301Y-20974103D01*
X13114301Y-20974103D02*
X13095253Y-20983627D01*
X13295253Y-21107436D02*
X13304777Y-21116960D01*
X13304777Y-21116960D02*
X13295253Y-21126484D01*
X13295253Y-21126484D02*
X13285729Y-21116960D01*
X13285729Y-21116960D02*
X13295253Y-21107436D01*
X13295253Y-21107436D02*
X13295253Y-21126484D01*
X13476205Y-20926484D02*
X13438110Y-20926484D01*
X13438110Y-20926484D02*
X13419062Y-20936008D01*
X13419062Y-20936008D02*
X13409539Y-20945531D01*
X13409539Y-20945531D02*
X13390491Y-20974103D01*
X13390491Y-20974103D02*
X13380967Y-21012198D01*
X13380967Y-21012198D02*
X13380967Y-21088389D01*
X13380967Y-21088389D02*
X13390491Y-21107436D01*
X13390491Y-21107436D02*
X13400015Y-21116960D01*
X13400015Y-21116960D02*
X13419062Y-21126484D01*
X13419062Y-21126484D02*
X13457158Y-21126484D01*
X13457158Y-21126484D02*
X13476205Y-21116960D01*
X13476205Y-21116960D02*
X13485729Y-21107436D01*
X13485729Y-21107436D02*
X13495253Y-21088389D01*
X13495253Y-21088389D02*
X13495253Y-21040770D01*
X13495253Y-21040770D02*
X13485729Y-21021722D01*
X13485729Y-21021722D02*
X13476205Y-21012198D01*
X13476205Y-21012198D02*
X13457158Y-21002674D01*
X13457158Y-21002674D02*
X13419062Y-21002674D01*
X13419062Y-21002674D02*
X13400015Y-21012198D01*
X13400015Y-21012198D02*
X13390491Y-21021722D01*
X13390491Y-21021722D02*
X13380967Y-21040770D01*
X13619062Y-20926484D02*
X13638110Y-20926484D01*
X13638110Y-20926484D02*
X13657158Y-20936008D01*
X13657158Y-20936008D02*
X13666682Y-20945531D01*
X13666682Y-20945531D02*
X13676205Y-20964579D01*
X13676205Y-20964579D02*
X13685729Y-21002674D01*
X13685729Y-21002674D02*
X13685729Y-21050293D01*
X13685729Y-21050293D02*
X13676205Y-21088389D01*
X13676205Y-21088389D02*
X13666682Y-21107436D01*
X13666682Y-21107436D02*
X13657158Y-21116960D01*
X13657158Y-21116960D02*
X13638110Y-21126484D01*
X13638110Y-21126484D02*
X13619062Y-21126484D01*
X13619062Y-21126484D02*
X13600015Y-21116960D01*
X13600015Y-21116960D02*
X13590491Y-21107436D01*
X13590491Y-21107436D02*
X13580967Y-21088389D01*
X13580967Y-21088389D02*
X13571443Y-21050293D01*
X13571443Y-21050293D02*
X13571443Y-21002674D01*
X13571443Y-21002674D02*
X13580967Y-20964579D01*
X13580967Y-20964579D02*
X13590491Y-20945531D01*
X13590491Y-20945531D02*
X13600015Y-20936008D01*
X13600015Y-20936008D02*
X13619062Y-20926484D01*
X13809539Y-20926484D02*
X13828586Y-20926484D01*
X13828586Y-20926484D02*
X13847634Y-20936008D01*
X13847634Y-20936008D02*
X13857158Y-20945531D01*
X13857158Y-20945531D02*
X13866682Y-20964579D01*
X13866682Y-20964579D02*
X13876205Y-21002674D01*
X13876205Y-21002674D02*
X13876205Y-21050293D01*
X13876205Y-21050293D02*
X13866682Y-21088389D01*
X13866682Y-21088389D02*
X13857158Y-21107436D01*
X13857158Y-21107436D02*
X13847634Y-21116960D01*
X13847634Y-21116960D02*
X13828586Y-21126484D01*
X13828586Y-21126484D02*
X13809539Y-21126484D01*
X13809539Y-21126484D02*
X13790491Y-21116960D01*
X13790491Y-21116960D02*
X13780967Y-21107436D01*
X13780967Y-21107436D02*
X13771443Y-21088389D01*
X13771443Y-21088389D02*
X13761920Y-21050293D01*
X13761920Y-21050293D02*
X13761920Y-21002674D01*
X13761920Y-21002674D02*
X13771443Y-20964579D01*
X13771443Y-20964579D02*
X13780967Y-20945531D01*
X13780967Y-20945531D02*
X13790491Y-20936008D01*
X13790491Y-20936008D02*
X13809539Y-20926484D01*
X13961920Y-21126484D02*
X13961920Y-20993150D01*
X13961920Y-21012198D02*
X13971443Y-21002674D01*
X13971443Y-21002674D02*
X13990491Y-20993150D01*
X13990491Y-20993150D02*
X14019063Y-20993150D01*
X14019063Y-20993150D02*
X14038110Y-21002674D01*
X14038110Y-21002674D02*
X14047634Y-21021722D01*
X14047634Y-21021722D02*
X14047634Y-21126484D01*
X14047634Y-21021722D02*
X14057158Y-21002674D01*
X14057158Y-21002674D02*
X14076205Y-20993150D01*
X14076205Y-20993150D02*
X14104777Y-20993150D01*
X14104777Y-20993150D02*
X14123824Y-21002674D01*
X14123824Y-21002674D02*
X14133348Y-21021722D01*
X14133348Y-21021722D02*
X14133348Y-21126484D01*
X14228586Y-21126484D02*
X14228586Y-20993150D01*
X14228586Y-21012198D02*
X14238110Y-21002674D01*
X14238110Y-21002674D02*
X14257158Y-20993150D01*
X14257158Y-20993150D02*
X14285729Y-20993150D01*
X14285729Y-20993150D02*
X14304777Y-21002674D01*
X14304777Y-21002674D02*
X14314301Y-21021722D01*
X14314301Y-21021722D02*
X14314301Y-21126484D01*
X14314301Y-21021722D02*
X14323824Y-21002674D01*
X14323824Y-21002674D02*
X14342872Y-20993150D01*
X14342872Y-20993150D02*
X14371443Y-20993150D01*
X14371443Y-20993150D02*
X14390491Y-21002674D01*
X14390491Y-21002674D02*
X14400015Y-21021722D01*
X14400015Y-21021722D02*
X14400015Y-21126484D01*
X14790491Y-20916960D02*
X14619063Y-21174103D01*
X15047634Y-20926484D02*
X15066682Y-20926484D01*
X15066682Y-20926484D02*
X15085729Y-20936008D01*
X15085729Y-20936008D02*
X15095253Y-20945531D01*
X15095253Y-20945531D02*
X15104777Y-20964579D01*
X15104777Y-20964579D02*
X15114301Y-21002674D01*
X15114301Y-21002674D02*
X15114301Y-21050293D01*
X15114301Y-21050293D02*
X15104777Y-21088389D01*
X15104777Y-21088389D02*
X15095253Y-21107436D01*
X15095253Y-21107436D02*
X15085729Y-21116960D01*
X15085729Y-21116960D02*
X15066682Y-21126484D01*
X15066682Y-21126484D02*
X15047634Y-21126484D01*
X15047634Y-21126484D02*
X15028586Y-21116960D01*
X15028586Y-21116960D02*
X15019063Y-21107436D01*
X15019063Y-21107436D02*
X15009539Y-21088389D01*
X15009539Y-21088389D02*
X15000015Y-21050293D01*
X15000015Y-21050293D02*
X15000015Y-21002674D01*
X15000015Y-21002674D02*
X15009539Y-20964579D01*
X15009539Y-20964579D02*
X15019063Y-20945531D01*
X15019063Y-20945531D02*
X15028586Y-20936008D01*
X15028586Y-20936008D02*
X15047634Y-20926484D01*
X15200015Y-21107436D02*
X15209539Y-21116960D01*
X15209539Y-21116960D02*
X15200015Y-21126484D01*
X15200015Y-21126484D02*
X15190491Y-21116960D01*
X15190491Y-21116960D02*
X15200015Y-21107436D01*
X15200015Y-21107436D02*
X15200015Y-21126484D01*
X15333348Y-20926484D02*
X15352396Y-20926484D01*
X15352396Y-20926484D02*
X15371444Y-20936008D01*
X15371444Y-20936008D02*
X15380967Y-20945531D01*
X15380967Y-20945531D02*
X15390491Y-20964579D01*
X15390491Y-20964579D02*
X15400015Y-21002674D01*
X15400015Y-21002674D02*
X15400015Y-21050293D01*
X15400015Y-21050293D02*
X15390491Y-21088389D01*
X15390491Y-21088389D02*
X15380967Y-21107436D01*
X15380967Y-21107436D02*
X15371444Y-21116960D01*
X15371444Y-21116960D02*
X15352396Y-21126484D01*
X15352396Y-21126484D02*
X15333348Y-21126484D01*
X15333348Y-21126484D02*
X15314301Y-21116960D01*
X15314301Y-21116960D02*
X15304777Y-21107436D01*
X15304777Y-21107436D02*
X15295253Y-21088389D01*
X15295253Y-21088389D02*
X15285729Y-21050293D01*
X15285729Y-21050293D02*
X15285729Y-21002674D01*
X15285729Y-21002674D02*
X15295253Y-20964579D01*
X15295253Y-20964579D02*
X15304777Y-20945531D01*
X15304777Y-20945531D02*
X15314301Y-20936008D01*
X15314301Y-20936008D02*
X15333348Y-20926484D01*
X15571444Y-20926484D02*
X15533348Y-20926484D01*
X15533348Y-20926484D02*
X15514301Y-20936008D01*
X15514301Y-20936008D02*
X15504777Y-20945531D01*
X15504777Y-20945531D02*
X15485729Y-20974103D01*
X15485729Y-20974103D02*
X15476206Y-21012198D01*
X15476206Y-21012198D02*
X15476206Y-21088389D01*
X15476206Y-21088389D02*
X15485729Y-21107436D01*
X15485729Y-21107436D02*
X15495253Y-21116960D01*
X15495253Y-21116960D02*
X15514301Y-21126484D01*
X15514301Y-21126484D02*
X15552396Y-21126484D01*
X15552396Y-21126484D02*
X15571444Y-21116960D01*
X15571444Y-21116960D02*
X15580967Y-21107436D01*
X15580967Y-21107436D02*
X15590491Y-21088389D01*
X15590491Y-21088389D02*
X15590491Y-21040770D01*
X15590491Y-21040770D02*
X15580967Y-21021722D01*
X15580967Y-21021722D02*
X15571444Y-21012198D01*
X15571444Y-21012198D02*
X15552396Y-21002674D01*
X15552396Y-21002674D02*
X15514301Y-21002674D01*
X15514301Y-21002674D02*
X15495253Y-21012198D01*
X15495253Y-21012198D02*
X15485729Y-21021722D01*
X15485729Y-21021722D02*
X15476206Y-21040770D01*
X15657158Y-20926484D02*
X15780967Y-20926484D01*
X15780967Y-20926484D02*
X15714301Y-21002674D01*
X15714301Y-21002674D02*
X15742872Y-21002674D01*
X15742872Y-21002674D02*
X15761920Y-21012198D01*
X15761920Y-21012198D02*
X15771444Y-21021722D01*
X15771444Y-21021722D02*
X15780967Y-21040770D01*
X15780967Y-21040770D02*
X15780967Y-21088389D01*
X15780967Y-21088389D02*
X15771444Y-21107436D01*
X15771444Y-21107436D02*
X15761920Y-21116960D01*
X15761920Y-21116960D02*
X15742872Y-21126484D01*
X15742872Y-21126484D02*
X15685729Y-21126484D01*
X15685729Y-21126484D02*
X15666682Y-21116960D01*
X15666682Y-21116960D02*
X15657158Y-21107436D01*
X15904777Y-20926484D02*
X15923825Y-20926484D01*
X15923825Y-20926484D02*
X15942872Y-20936008D01*
X15942872Y-20936008D02*
X15952396Y-20945531D01*
X15952396Y-20945531D02*
X15961920Y-20964579D01*
X15961920Y-20964579D02*
X15971444Y-21002674D01*
X15971444Y-21002674D02*
X15971444Y-21050293D01*
X15971444Y-21050293D02*
X15961920Y-21088389D01*
X15961920Y-21088389D02*
X15952396Y-21107436D01*
X15952396Y-21107436D02*
X15942872Y-21116960D01*
X15942872Y-21116960D02*
X15923825Y-21126484D01*
X15923825Y-21126484D02*
X15904777Y-21126484D01*
X15904777Y-21126484D02*
X15885729Y-21116960D01*
X15885729Y-21116960D02*
X15876206Y-21107436D01*
X15876206Y-21107436D02*
X15866682Y-21088389D01*
X15866682Y-21088389D02*
X15857158Y-21050293D01*
X15857158Y-21050293D02*
X15857158Y-21002674D01*
X15857158Y-21002674D02*
X15866682Y-20964579D01*
X15866682Y-20964579D02*
X15876206Y-20945531D01*
X15876206Y-20945531D02*
X15885729Y-20936008D01*
X15885729Y-20936008D02*
X15904777Y-20926484D01*
X16047634Y-20926484D02*
X16047634Y-20964579D01*
X16123825Y-20926484D02*
X16123825Y-20964579D01*
X16419063Y-21202674D02*
X16409539Y-21193150D01*
X16409539Y-21193150D02*
X16390491Y-21164579D01*
X16390491Y-21164579D02*
X16380968Y-21145531D01*
X16380968Y-21145531D02*
X16371444Y-21116960D01*
X16371444Y-21116960D02*
X16361920Y-21069341D01*
X16361920Y-21069341D02*
X16361920Y-21031246D01*
X16361920Y-21031246D02*
X16371444Y-20983627D01*
X16371444Y-20983627D02*
X16380968Y-20955055D01*
X16380968Y-20955055D02*
X16390491Y-20936008D01*
X16390491Y-20936008D02*
X16409539Y-20907436D01*
X16409539Y-20907436D02*
X16419063Y-20897912D01*
X16476206Y-20926484D02*
X16600015Y-20926484D01*
X16600015Y-20926484D02*
X16533348Y-21002674D01*
X16533348Y-21002674D02*
X16561920Y-21002674D01*
X16561920Y-21002674D02*
X16580968Y-21012198D01*
X16580968Y-21012198D02*
X16590491Y-21021722D01*
X16590491Y-21021722D02*
X16600015Y-21040770D01*
X16600015Y-21040770D02*
X16600015Y-21088389D01*
X16600015Y-21088389D02*
X16590491Y-21107436D01*
X16590491Y-21107436D02*
X16580968Y-21116960D01*
X16580968Y-21116960D02*
X16561920Y-21126484D01*
X16561920Y-21126484D02*
X16504777Y-21126484D01*
X16504777Y-21126484D02*
X16485729Y-21116960D01*
X16485729Y-21116960D02*
X16476206Y-21107436D01*
X16838111Y-21126484D02*
X16838111Y-20926484D01*
X16923825Y-21126484D02*
X16923825Y-21021722D01*
X16923825Y-21021722D02*
X16914301Y-21002674D01*
X16914301Y-21002674D02*
X16895253Y-20993150D01*
X16895253Y-20993150D02*
X16866682Y-20993150D01*
X16866682Y-20993150D02*
X16847634Y-21002674D01*
X16847634Y-21002674D02*
X16838111Y-21012198D01*
X17047634Y-21126484D02*
X17028587Y-21116960D01*
X17028587Y-21116960D02*
X17019063Y-21107436D01*
X17019063Y-21107436D02*
X17009539Y-21088389D01*
X17009539Y-21088389D02*
X17009539Y-21031246D01*
X17009539Y-21031246D02*
X17019063Y-21012198D01*
X17019063Y-21012198D02*
X17028587Y-21002674D01*
X17028587Y-21002674D02*
X17047634Y-20993150D01*
X17047634Y-20993150D02*
X17076206Y-20993150D01*
X17076206Y-20993150D02*
X17095253Y-21002674D01*
X17095253Y-21002674D02*
X17104777Y-21012198D01*
X17104777Y-21012198D02*
X17114301Y-21031246D01*
X17114301Y-21031246D02*
X17114301Y-21088389D01*
X17114301Y-21088389D02*
X17104777Y-21107436D01*
X17104777Y-21107436D02*
X17095253Y-21116960D01*
X17095253Y-21116960D02*
X17076206Y-21126484D01*
X17076206Y-21126484D02*
X17047634Y-21126484D01*
X17228587Y-21126484D02*
X17209539Y-21116960D01*
X17209539Y-21116960D02*
X17200015Y-21097912D01*
X17200015Y-21097912D02*
X17200015Y-20926484D01*
X17380968Y-21116960D02*
X17361920Y-21126484D01*
X17361920Y-21126484D02*
X17323825Y-21126484D01*
X17323825Y-21126484D02*
X17304777Y-21116960D01*
X17304777Y-21116960D02*
X17295253Y-21097912D01*
X17295253Y-21097912D02*
X17295253Y-21021722D01*
X17295253Y-21021722D02*
X17304777Y-21002674D01*
X17304777Y-21002674D02*
X17323825Y-20993150D01*
X17323825Y-20993150D02*
X17361920Y-20993150D01*
X17361920Y-20993150D02*
X17380968Y-21002674D01*
X17380968Y-21002674D02*
X17390492Y-21021722D01*
X17390492Y-21021722D02*
X17390492Y-21040770D01*
X17390492Y-21040770D02*
X17295253Y-21059817D01*
X17466682Y-21116960D02*
X17485730Y-21126484D01*
X17485730Y-21126484D02*
X17523825Y-21126484D01*
X17523825Y-21126484D02*
X17542873Y-21116960D01*
X17542873Y-21116960D02*
X17552396Y-21097912D01*
X17552396Y-21097912D02*
X17552396Y-21088389D01*
X17552396Y-21088389D02*
X17542873Y-21069341D01*
X17542873Y-21069341D02*
X17523825Y-21059817D01*
X17523825Y-21059817D02*
X17495253Y-21059817D01*
X17495253Y-21059817D02*
X17476206Y-21050293D01*
X17476206Y-21050293D02*
X17466682Y-21031246D01*
X17466682Y-21031246D02*
X17466682Y-21021722D01*
X17466682Y-21021722D02*
X17476206Y-21002674D01*
X17476206Y-21002674D02*
X17495253Y-20993150D01*
X17495253Y-20993150D02*
X17523825Y-20993150D01*
X17523825Y-20993150D02*
X17542873Y-21002674D01*
X17619063Y-21202674D02*
X17628587Y-21193150D01*
X17628587Y-21193150D02*
X17647634Y-21164579D01*
X17647634Y-21164579D02*
X17657158Y-21145531D01*
X17657158Y-21145531D02*
X17666682Y-21116960D01*
X17666682Y-21116960D02*
X17676206Y-21069341D01*
X17676206Y-21069341D02*
X17676206Y-21031246D01*
X17676206Y-21031246D02*
X17666682Y-20983627D01*
X17666682Y-20983627D02*
X17657158Y-20955055D01*
X17657158Y-20955055D02*
X17647634Y-20936008D01*
X17647634Y-20936008D02*
X17628587Y-20907436D01*
X17628587Y-20907436D02*
X17619063Y-20897912D01*
D17*
X12820566Y-21371576D02*
X12820566Y-21258424D01*
X12707414Y-21258424D01*
X12707414Y-21371576D01*
X12820566Y-21371576D01*
X12844000Y-21315000D02*
G75*
G03*
X12683980Y-21315000I-80010J0D01*
G01*
X12683980Y-21315000D02*
G75*
G03*
X12844000Y-21315000I80010J0D01*
G01*
D11*
X13209539Y-21406484D02*
X13095253Y-21406484D01*
X13152396Y-21406484D02*
X13152396Y-21206484D01*
X13152396Y-21206484D02*
X13133348Y-21235055D01*
X13133348Y-21235055D02*
X13114301Y-21254103D01*
X13114301Y-21254103D02*
X13095253Y-21263627D01*
X13295253Y-21387436D02*
X13304777Y-21396960D01*
X13304777Y-21396960D02*
X13295253Y-21406484D01*
X13295253Y-21406484D02*
X13285729Y-21396960D01*
X13285729Y-21396960D02*
X13295253Y-21387436D01*
X13295253Y-21387436D02*
X13295253Y-21406484D01*
X13476205Y-21206484D02*
X13438110Y-21206484D01*
X13438110Y-21206484D02*
X13419062Y-21216008D01*
X13419062Y-21216008D02*
X13409539Y-21225531D01*
X13409539Y-21225531D02*
X13390491Y-21254103D01*
X13390491Y-21254103D02*
X13380967Y-21292198D01*
X13380967Y-21292198D02*
X13380967Y-21368389D01*
X13380967Y-21368389D02*
X13390491Y-21387436D01*
X13390491Y-21387436D02*
X13400015Y-21396960D01*
X13400015Y-21396960D02*
X13419062Y-21406484D01*
X13419062Y-21406484D02*
X13457158Y-21406484D01*
X13457158Y-21406484D02*
X13476205Y-21396960D01*
X13476205Y-21396960D02*
X13485729Y-21387436D01*
X13485729Y-21387436D02*
X13495253Y-21368389D01*
X13495253Y-21368389D02*
X13495253Y-21320770D01*
X13495253Y-21320770D02*
X13485729Y-21301722D01*
X13485729Y-21301722D02*
X13476205Y-21292198D01*
X13476205Y-21292198D02*
X13457158Y-21282674D01*
X13457158Y-21282674D02*
X13419062Y-21282674D01*
X13419062Y-21282674D02*
X13400015Y-21292198D01*
X13400015Y-21292198D02*
X13390491Y-21301722D01*
X13390491Y-21301722D02*
X13380967Y-21320770D01*
X13619062Y-21206484D02*
X13638110Y-21206484D01*
X13638110Y-21206484D02*
X13657158Y-21216008D01*
X13657158Y-21216008D02*
X13666682Y-21225531D01*
X13666682Y-21225531D02*
X13676205Y-21244579D01*
X13676205Y-21244579D02*
X13685729Y-21282674D01*
X13685729Y-21282674D02*
X13685729Y-21330293D01*
X13685729Y-21330293D02*
X13676205Y-21368389D01*
X13676205Y-21368389D02*
X13666682Y-21387436D01*
X13666682Y-21387436D02*
X13657158Y-21396960D01*
X13657158Y-21396960D02*
X13638110Y-21406484D01*
X13638110Y-21406484D02*
X13619062Y-21406484D01*
X13619062Y-21406484D02*
X13600015Y-21396960D01*
X13600015Y-21396960D02*
X13590491Y-21387436D01*
X13590491Y-21387436D02*
X13580967Y-21368389D01*
X13580967Y-21368389D02*
X13571443Y-21330293D01*
X13571443Y-21330293D02*
X13571443Y-21282674D01*
X13571443Y-21282674D02*
X13580967Y-21244579D01*
X13580967Y-21244579D02*
X13590491Y-21225531D01*
X13590491Y-21225531D02*
X13600015Y-21216008D01*
X13600015Y-21216008D02*
X13619062Y-21206484D01*
X13809539Y-21206484D02*
X13828586Y-21206484D01*
X13828586Y-21206484D02*
X13847634Y-21216008D01*
X13847634Y-21216008D02*
X13857158Y-21225531D01*
X13857158Y-21225531D02*
X13866682Y-21244579D01*
X13866682Y-21244579D02*
X13876205Y-21282674D01*
X13876205Y-21282674D02*
X13876205Y-21330293D01*
X13876205Y-21330293D02*
X13866682Y-21368389D01*
X13866682Y-21368389D02*
X13857158Y-21387436D01*
X13857158Y-21387436D02*
X13847634Y-21396960D01*
X13847634Y-21396960D02*
X13828586Y-21406484D01*
X13828586Y-21406484D02*
X13809539Y-21406484D01*
X13809539Y-21406484D02*
X13790491Y-21396960D01*
X13790491Y-21396960D02*
X13780967Y-21387436D01*
X13780967Y-21387436D02*
X13771443Y-21368389D01*
X13771443Y-21368389D02*
X13761920Y-21330293D01*
X13761920Y-21330293D02*
X13761920Y-21282674D01*
X13761920Y-21282674D02*
X13771443Y-21244579D01*
X13771443Y-21244579D02*
X13780967Y-21225531D01*
X13780967Y-21225531D02*
X13790491Y-21216008D01*
X13790491Y-21216008D02*
X13809539Y-21206484D01*
X13961920Y-21406484D02*
X13961920Y-21273150D01*
X13961920Y-21292198D02*
X13971443Y-21282674D01*
X13971443Y-21282674D02*
X13990491Y-21273150D01*
X13990491Y-21273150D02*
X14019063Y-21273150D01*
X14019063Y-21273150D02*
X14038110Y-21282674D01*
X14038110Y-21282674D02*
X14047634Y-21301722D01*
X14047634Y-21301722D02*
X14047634Y-21406484D01*
X14047634Y-21301722D02*
X14057158Y-21282674D01*
X14057158Y-21282674D02*
X14076205Y-21273150D01*
X14076205Y-21273150D02*
X14104777Y-21273150D01*
X14104777Y-21273150D02*
X14123824Y-21282674D01*
X14123824Y-21282674D02*
X14133348Y-21301722D01*
X14133348Y-21301722D02*
X14133348Y-21406484D01*
X14228586Y-21406484D02*
X14228586Y-21273150D01*
X14228586Y-21292198D02*
X14238110Y-21282674D01*
X14238110Y-21282674D02*
X14257158Y-21273150D01*
X14257158Y-21273150D02*
X14285729Y-21273150D01*
X14285729Y-21273150D02*
X14304777Y-21282674D01*
X14304777Y-21282674D02*
X14314301Y-21301722D01*
X14314301Y-21301722D02*
X14314301Y-21406484D01*
X14314301Y-21301722D02*
X14323824Y-21282674D01*
X14323824Y-21282674D02*
X14342872Y-21273150D01*
X14342872Y-21273150D02*
X14371443Y-21273150D01*
X14371443Y-21273150D02*
X14390491Y-21282674D01*
X14390491Y-21282674D02*
X14400015Y-21301722D01*
X14400015Y-21301722D02*
X14400015Y-21406484D01*
X14790491Y-21196960D02*
X14619063Y-21454103D01*
X15047634Y-21206484D02*
X15066682Y-21206484D01*
X15066682Y-21206484D02*
X15085729Y-21216008D01*
X15085729Y-21216008D02*
X15095253Y-21225531D01*
X15095253Y-21225531D02*
X15104777Y-21244579D01*
X15104777Y-21244579D02*
X15114301Y-21282674D01*
X15114301Y-21282674D02*
X15114301Y-21330293D01*
X15114301Y-21330293D02*
X15104777Y-21368389D01*
X15104777Y-21368389D02*
X15095253Y-21387436D01*
X15095253Y-21387436D02*
X15085729Y-21396960D01*
X15085729Y-21396960D02*
X15066682Y-21406484D01*
X15066682Y-21406484D02*
X15047634Y-21406484D01*
X15047634Y-21406484D02*
X15028586Y-21396960D01*
X15028586Y-21396960D02*
X15019063Y-21387436D01*
X15019063Y-21387436D02*
X15009539Y-21368389D01*
X15009539Y-21368389D02*
X15000015Y-21330293D01*
X15000015Y-21330293D02*
X15000015Y-21282674D01*
X15000015Y-21282674D02*
X15009539Y-21244579D01*
X15009539Y-21244579D02*
X15019063Y-21225531D01*
X15019063Y-21225531D02*
X15028586Y-21216008D01*
X15028586Y-21216008D02*
X15047634Y-21206484D01*
X15200015Y-21387436D02*
X15209539Y-21396960D01*
X15209539Y-21396960D02*
X15200015Y-21406484D01*
X15200015Y-21406484D02*
X15190491Y-21396960D01*
X15190491Y-21396960D02*
X15200015Y-21387436D01*
X15200015Y-21387436D02*
X15200015Y-21406484D01*
X15333348Y-21206484D02*
X15352396Y-21206484D01*
X15352396Y-21206484D02*
X15371444Y-21216008D01*
X15371444Y-21216008D02*
X15380967Y-21225531D01*
X15380967Y-21225531D02*
X15390491Y-21244579D01*
X15390491Y-21244579D02*
X15400015Y-21282674D01*
X15400015Y-21282674D02*
X15400015Y-21330293D01*
X15400015Y-21330293D02*
X15390491Y-21368389D01*
X15390491Y-21368389D02*
X15380967Y-21387436D01*
X15380967Y-21387436D02*
X15371444Y-21396960D01*
X15371444Y-21396960D02*
X15352396Y-21406484D01*
X15352396Y-21406484D02*
X15333348Y-21406484D01*
X15333348Y-21406484D02*
X15314301Y-21396960D01*
X15314301Y-21396960D02*
X15304777Y-21387436D01*
X15304777Y-21387436D02*
X15295253Y-21368389D01*
X15295253Y-21368389D02*
X15285729Y-21330293D01*
X15285729Y-21330293D02*
X15285729Y-21282674D01*
X15285729Y-21282674D02*
X15295253Y-21244579D01*
X15295253Y-21244579D02*
X15304777Y-21225531D01*
X15304777Y-21225531D02*
X15314301Y-21216008D01*
X15314301Y-21216008D02*
X15333348Y-21206484D01*
X15571444Y-21206484D02*
X15533348Y-21206484D01*
X15533348Y-21206484D02*
X15514301Y-21216008D01*
X15514301Y-21216008D02*
X15504777Y-21225531D01*
X15504777Y-21225531D02*
X15485729Y-21254103D01*
X15485729Y-21254103D02*
X15476206Y-21292198D01*
X15476206Y-21292198D02*
X15476206Y-21368389D01*
X15476206Y-21368389D02*
X15485729Y-21387436D01*
X15485729Y-21387436D02*
X15495253Y-21396960D01*
X15495253Y-21396960D02*
X15514301Y-21406484D01*
X15514301Y-21406484D02*
X15552396Y-21406484D01*
X15552396Y-21406484D02*
X15571444Y-21396960D01*
X15571444Y-21396960D02*
X15580967Y-21387436D01*
X15580967Y-21387436D02*
X15590491Y-21368389D01*
X15590491Y-21368389D02*
X15590491Y-21320770D01*
X15590491Y-21320770D02*
X15580967Y-21301722D01*
X15580967Y-21301722D02*
X15571444Y-21292198D01*
X15571444Y-21292198D02*
X15552396Y-21282674D01*
X15552396Y-21282674D02*
X15514301Y-21282674D01*
X15514301Y-21282674D02*
X15495253Y-21292198D01*
X15495253Y-21292198D02*
X15485729Y-21301722D01*
X15485729Y-21301722D02*
X15476206Y-21320770D01*
X15657158Y-21206484D02*
X15780967Y-21206484D01*
X15780967Y-21206484D02*
X15714301Y-21282674D01*
X15714301Y-21282674D02*
X15742872Y-21282674D01*
X15742872Y-21282674D02*
X15761920Y-21292198D01*
X15761920Y-21292198D02*
X15771444Y-21301722D01*
X15771444Y-21301722D02*
X15780967Y-21320770D01*
X15780967Y-21320770D02*
X15780967Y-21368389D01*
X15780967Y-21368389D02*
X15771444Y-21387436D01*
X15771444Y-21387436D02*
X15761920Y-21396960D01*
X15761920Y-21396960D02*
X15742872Y-21406484D01*
X15742872Y-21406484D02*
X15685729Y-21406484D01*
X15685729Y-21406484D02*
X15666682Y-21396960D01*
X15666682Y-21396960D02*
X15657158Y-21387436D01*
X15904777Y-21206484D02*
X15923825Y-21206484D01*
X15923825Y-21206484D02*
X15942872Y-21216008D01*
X15942872Y-21216008D02*
X15952396Y-21225531D01*
X15952396Y-21225531D02*
X15961920Y-21244579D01*
X15961920Y-21244579D02*
X15971444Y-21282674D01*
X15971444Y-21282674D02*
X15971444Y-21330293D01*
X15971444Y-21330293D02*
X15961920Y-21368389D01*
X15961920Y-21368389D02*
X15952396Y-21387436D01*
X15952396Y-21387436D02*
X15942872Y-21396960D01*
X15942872Y-21396960D02*
X15923825Y-21406484D01*
X15923825Y-21406484D02*
X15904777Y-21406484D01*
X15904777Y-21406484D02*
X15885729Y-21396960D01*
X15885729Y-21396960D02*
X15876206Y-21387436D01*
X15876206Y-21387436D02*
X15866682Y-21368389D01*
X15866682Y-21368389D02*
X15857158Y-21330293D01*
X15857158Y-21330293D02*
X15857158Y-21282674D01*
X15857158Y-21282674D02*
X15866682Y-21244579D01*
X15866682Y-21244579D02*
X15876206Y-21225531D01*
X15876206Y-21225531D02*
X15885729Y-21216008D01*
X15885729Y-21216008D02*
X15904777Y-21206484D01*
X16047634Y-21206484D02*
X16047634Y-21244579D01*
X16123825Y-21206484D02*
X16123825Y-21244579D01*
X16419063Y-21482674D02*
X16409539Y-21473150D01*
X16409539Y-21473150D02*
X16390491Y-21444579D01*
X16390491Y-21444579D02*
X16380968Y-21425531D01*
X16380968Y-21425531D02*
X16371444Y-21396960D01*
X16371444Y-21396960D02*
X16361920Y-21349341D01*
X16361920Y-21349341D02*
X16361920Y-21311246D01*
X16361920Y-21311246D02*
X16371444Y-21263627D01*
X16371444Y-21263627D02*
X16380968Y-21235055D01*
X16380968Y-21235055D02*
X16390491Y-21216008D01*
X16390491Y-21216008D02*
X16409539Y-21187436D01*
X16409539Y-21187436D02*
X16419063Y-21177912D01*
X16600015Y-21406484D02*
X16485729Y-21406484D01*
X16542872Y-21406484D02*
X16542872Y-21206484D01*
X16542872Y-21206484D02*
X16523825Y-21235055D01*
X16523825Y-21235055D02*
X16504777Y-21254103D01*
X16504777Y-21254103D02*
X16485729Y-21263627D01*
X16838111Y-21406484D02*
X16838111Y-21206484D01*
X16923825Y-21406484D02*
X16923825Y-21301722D01*
X16923825Y-21301722D02*
X16914301Y-21282674D01*
X16914301Y-21282674D02*
X16895253Y-21273150D01*
X16895253Y-21273150D02*
X16866682Y-21273150D01*
X16866682Y-21273150D02*
X16847634Y-21282674D01*
X16847634Y-21282674D02*
X16838111Y-21292198D01*
X17047634Y-21406484D02*
X17028587Y-21396960D01*
X17028587Y-21396960D02*
X17019063Y-21387436D01*
X17019063Y-21387436D02*
X17009539Y-21368389D01*
X17009539Y-21368389D02*
X17009539Y-21311246D01*
X17009539Y-21311246D02*
X17019063Y-21292198D01*
X17019063Y-21292198D02*
X17028587Y-21282674D01*
X17028587Y-21282674D02*
X17047634Y-21273150D01*
X17047634Y-21273150D02*
X17076206Y-21273150D01*
X17076206Y-21273150D02*
X17095253Y-21282674D01*
X17095253Y-21282674D02*
X17104777Y-21292198D01*
X17104777Y-21292198D02*
X17114301Y-21311246D01*
X17114301Y-21311246D02*
X17114301Y-21368389D01*
X17114301Y-21368389D02*
X17104777Y-21387436D01*
X17104777Y-21387436D02*
X17095253Y-21396960D01*
X17095253Y-21396960D02*
X17076206Y-21406484D01*
X17076206Y-21406484D02*
X17047634Y-21406484D01*
X17228587Y-21406484D02*
X17209539Y-21396960D01*
X17209539Y-21396960D02*
X17200015Y-21377912D01*
X17200015Y-21377912D02*
X17200015Y-21206484D01*
X17380968Y-21396960D02*
X17361920Y-21406484D01*
X17361920Y-21406484D02*
X17323825Y-21406484D01*
X17323825Y-21406484D02*
X17304777Y-21396960D01*
X17304777Y-21396960D02*
X17295253Y-21377912D01*
X17295253Y-21377912D02*
X17295253Y-21301722D01*
X17295253Y-21301722D02*
X17304777Y-21282674D01*
X17304777Y-21282674D02*
X17323825Y-21273150D01*
X17323825Y-21273150D02*
X17361920Y-21273150D01*
X17361920Y-21273150D02*
X17380968Y-21282674D01*
X17380968Y-21282674D02*
X17390492Y-21301722D01*
X17390492Y-21301722D02*
X17390492Y-21320770D01*
X17390492Y-21320770D02*
X17295253Y-21339817D01*
X17457158Y-21482674D02*
X17466682Y-21473150D01*
X17466682Y-21473150D02*
X17485730Y-21444579D01*
X17485730Y-21444579D02*
X17495253Y-21425531D01*
X17495253Y-21425531D02*
X17504777Y-21396960D01*
X17504777Y-21396960D02*
X17514301Y-21349341D01*
X17514301Y-21349341D02*
X17514301Y-21311246D01*
X17514301Y-21311246D02*
X17504777Y-21263627D01*
X17504777Y-21263627D02*
X17495253Y-21235055D01*
X17495253Y-21235055D02*
X17485730Y-21216008D01*
X17485730Y-21216008D02*
X17466682Y-21187436D01*
X17466682Y-21187436D02*
X17457158Y-21177912D01*
X12744000Y-21695020D02*
X12844000Y-21595020D01*
X12744000Y-21495020D01*
X12644000Y-21595020D01*
X12744000Y-21695020D01*
X12844000Y-21595020D02*
G75*
G03*
X12644000Y-21595020I-100000J0D01*
G01*
X12644000Y-21595020D02*
G75*
G03*
X12844000Y-21595020I100000J0D01*
G01*
X13095253Y-21505551D02*
X13104777Y-21496028D01*
X13104777Y-21496028D02*
X13123824Y-21486504D01*
X13123824Y-21486504D02*
X13171443Y-21486504D01*
X13171443Y-21486504D02*
X13190491Y-21496028D01*
X13190491Y-21496028D02*
X13200015Y-21505551D01*
X13200015Y-21505551D02*
X13209539Y-21524599D01*
X13209539Y-21524599D02*
X13209539Y-21543647D01*
X13209539Y-21543647D02*
X13200015Y-21572218D01*
X13200015Y-21572218D02*
X13085729Y-21686504D01*
X13085729Y-21686504D02*
X13209539Y-21686504D01*
X13295253Y-21667456D02*
X13304777Y-21676980D01*
X13304777Y-21676980D02*
X13295253Y-21686504D01*
X13295253Y-21686504D02*
X13285729Y-21676980D01*
X13285729Y-21676980D02*
X13295253Y-21667456D01*
X13295253Y-21667456D02*
X13295253Y-21686504D01*
X13371443Y-21486504D02*
X13504777Y-21486504D01*
X13504777Y-21486504D02*
X13419062Y-21686504D01*
X13619062Y-21486504D02*
X13638110Y-21486504D01*
X13638110Y-21486504D02*
X13657158Y-21496028D01*
X13657158Y-21496028D02*
X13666682Y-21505551D01*
X13666682Y-21505551D02*
X13676205Y-21524599D01*
X13676205Y-21524599D02*
X13685729Y-21562694D01*
X13685729Y-21562694D02*
X13685729Y-21610313D01*
X13685729Y-21610313D02*
X13676205Y-21648409D01*
X13676205Y-21648409D02*
X13666682Y-21667456D01*
X13666682Y-21667456D02*
X13657158Y-21676980D01*
X13657158Y-21676980D02*
X13638110Y-21686504D01*
X13638110Y-21686504D02*
X13619062Y-21686504D01*
X13619062Y-21686504D02*
X13600015Y-21676980D01*
X13600015Y-21676980D02*
X13590491Y-21667456D01*
X13590491Y-21667456D02*
X13580967Y-21648409D01*
X13580967Y-21648409D02*
X13571443Y-21610313D01*
X13571443Y-21610313D02*
X13571443Y-21562694D01*
X13571443Y-21562694D02*
X13580967Y-21524599D01*
X13580967Y-21524599D02*
X13590491Y-21505551D01*
X13590491Y-21505551D02*
X13600015Y-21496028D01*
X13600015Y-21496028D02*
X13619062Y-21486504D01*
X13809539Y-21486504D02*
X13828586Y-21486504D01*
X13828586Y-21486504D02*
X13847634Y-21496028D01*
X13847634Y-21496028D02*
X13857158Y-21505551D01*
X13857158Y-21505551D02*
X13866682Y-21524599D01*
X13866682Y-21524599D02*
X13876205Y-21562694D01*
X13876205Y-21562694D02*
X13876205Y-21610313D01*
X13876205Y-21610313D02*
X13866682Y-21648409D01*
X13866682Y-21648409D02*
X13857158Y-21667456D01*
X13857158Y-21667456D02*
X13847634Y-21676980D01*
X13847634Y-21676980D02*
X13828586Y-21686504D01*
X13828586Y-21686504D02*
X13809539Y-21686504D01*
X13809539Y-21686504D02*
X13790491Y-21676980D01*
X13790491Y-21676980D02*
X13780967Y-21667456D01*
X13780967Y-21667456D02*
X13771443Y-21648409D01*
X13771443Y-21648409D02*
X13761920Y-21610313D01*
X13761920Y-21610313D02*
X13761920Y-21562694D01*
X13761920Y-21562694D02*
X13771443Y-21524599D01*
X13771443Y-21524599D02*
X13780967Y-21505551D01*
X13780967Y-21505551D02*
X13790491Y-21496028D01*
X13790491Y-21496028D02*
X13809539Y-21486504D01*
X13961920Y-21686504D02*
X13961920Y-21553170D01*
X13961920Y-21572218D02*
X13971443Y-21562694D01*
X13971443Y-21562694D02*
X13990491Y-21553170D01*
X13990491Y-21553170D02*
X14019063Y-21553170D01*
X14019063Y-21553170D02*
X14038110Y-21562694D01*
X14038110Y-21562694D02*
X14047634Y-21581742D01*
X14047634Y-21581742D02*
X14047634Y-21686504D01*
X14047634Y-21581742D02*
X14057158Y-21562694D01*
X14057158Y-21562694D02*
X14076205Y-21553170D01*
X14076205Y-21553170D02*
X14104777Y-21553170D01*
X14104777Y-21553170D02*
X14123824Y-21562694D01*
X14123824Y-21562694D02*
X14133348Y-21581742D01*
X14133348Y-21581742D02*
X14133348Y-21686504D01*
X14228586Y-21686504D02*
X14228586Y-21553170D01*
X14228586Y-21572218D02*
X14238110Y-21562694D01*
X14238110Y-21562694D02*
X14257158Y-21553170D01*
X14257158Y-21553170D02*
X14285729Y-21553170D01*
X14285729Y-21553170D02*
X14304777Y-21562694D01*
X14304777Y-21562694D02*
X14314301Y-21581742D01*
X14314301Y-21581742D02*
X14314301Y-21686504D01*
X14314301Y-21581742D02*
X14323824Y-21562694D01*
X14323824Y-21562694D02*
X14342872Y-21553170D01*
X14342872Y-21553170D02*
X14371443Y-21553170D01*
X14371443Y-21553170D02*
X14390491Y-21562694D01*
X14390491Y-21562694D02*
X14400015Y-21581742D01*
X14400015Y-21581742D02*
X14400015Y-21686504D01*
X14790491Y-21476980D02*
X14619063Y-21734123D01*
X15047634Y-21486504D02*
X15066682Y-21486504D01*
X15066682Y-21486504D02*
X15085729Y-21496028D01*
X15085729Y-21496028D02*
X15095253Y-21505551D01*
X15095253Y-21505551D02*
X15104777Y-21524599D01*
X15104777Y-21524599D02*
X15114301Y-21562694D01*
X15114301Y-21562694D02*
X15114301Y-21610313D01*
X15114301Y-21610313D02*
X15104777Y-21648409D01*
X15104777Y-21648409D02*
X15095253Y-21667456D01*
X15095253Y-21667456D02*
X15085729Y-21676980D01*
X15085729Y-21676980D02*
X15066682Y-21686504D01*
X15066682Y-21686504D02*
X15047634Y-21686504D01*
X15047634Y-21686504D02*
X15028586Y-21676980D01*
X15028586Y-21676980D02*
X15019063Y-21667456D01*
X15019063Y-21667456D02*
X15009539Y-21648409D01*
X15009539Y-21648409D02*
X15000015Y-21610313D01*
X15000015Y-21610313D02*
X15000015Y-21562694D01*
X15000015Y-21562694D02*
X15009539Y-21524599D01*
X15009539Y-21524599D02*
X15019063Y-21505551D01*
X15019063Y-21505551D02*
X15028586Y-21496028D01*
X15028586Y-21496028D02*
X15047634Y-21486504D01*
X15200015Y-21667456D02*
X15209539Y-21676980D01*
X15209539Y-21676980D02*
X15200015Y-21686504D01*
X15200015Y-21686504D02*
X15190491Y-21676980D01*
X15190491Y-21676980D02*
X15200015Y-21667456D01*
X15200015Y-21667456D02*
X15200015Y-21686504D01*
X15400015Y-21686504D02*
X15285729Y-21686504D01*
X15342872Y-21686504D02*
X15342872Y-21486504D01*
X15342872Y-21486504D02*
X15323825Y-21515075D01*
X15323825Y-21515075D02*
X15304777Y-21534123D01*
X15304777Y-21534123D02*
X15285729Y-21543647D01*
X15523825Y-21486504D02*
X15542872Y-21486504D01*
X15542872Y-21486504D02*
X15561920Y-21496028D01*
X15561920Y-21496028D02*
X15571444Y-21505551D01*
X15571444Y-21505551D02*
X15580967Y-21524599D01*
X15580967Y-21524599D02*
X15590491Y-21562694D01*
X15590491Y-21562694D02*
X15590491Y-21610313D01*
X15590491Y-21610313D02*
X15580967Y-21648409D01*
X15580967Y-21648409D02*
X15571444Y-21667456D01*
X15571444Y-21667456D02*
X15561920Y-21676980D01*
X15561920Y-21676980D02*
X15542872Y-21686504D01*
X15542872Y-21686504D02*
X15523825Y-21686504D01*
X15523825Y-21686504D02*
X15504777Y-21676980D01*
X15504777Y-21676980D02*
X15495253Y-21667456D01*
X15495253Y-21667456D02*
X15485729Y-21648409D01*
X15485729Y-21648409D02*
X15476206Y-21610313D01*
X15476206Y-21610313D02*
X15476206Y-21562694D01*
X15476206Y-21562694D02*
X15485729Y-21524599D01*
X15485729Y-21524599D02*
X15495253Y-21505551D01*
X15495253Y-21505551D02*
X15504777Y-21496028D01*
X15504777Y-21496028D02*
X15523825Y-21486504D01*
X15761920Y-21486504D02*
X15723825Y-21486504D01*
X15723825Y-21486504D02*
X15704777Y-21496028D01*
X15704777Y-21496028D02*
X15695253Y-21505551D01*
X15695253Y-21505551D02*
X15676206Y-21534123D01*
X15676206Y-21534123D02*
X15666682Y-21572218D01*
X15666682Y-21572218D02*
X15666682Y-21648409D01*
X15666682Y-21648409D02*
X15676206Y-21667456D01*
X15676206Y-21667456D02*
X15685729Y-21676980D01*
X15685729Y-21676980D02*
X15704777Y-21686504D01*
X15704777Y-21686504D02*
X15742872Y-21686504D01*
X15742872Y-21686504D02*
X15761920Y-21676980D01*
X15761920Y-21676980D02*
X15771444Y-21667456D01*
X15771444Y-21667456D02*
X15780967Y-21648409D01*
X15780967Y-21648409D02*
X15780967Y-21600790D01*
X15780967Y-21600790D02*
X15771444Y-21581742D01*
X15771444Y-21581742D02*
X15761920Y-21572218D01*
X15761920Y-21572218D02*
X15742872Y-21562694D01*
X15742872Y-21562694D02*
X15704777Y-21562694D01*
X15704777Y-21562694D02*
X15685729Y-21572218D01*
X15685729Y-21572218D02*
X15676206Y-21581742D01*
X15676206Y-21581742D02*
X15666682Y-21600790D01*
X15847634Y-21486504D02*
X15971444Y-21486504D01*
X15971444Y-21486504D02*
X15904777Y-21562694D01*
X15904777Y-21562694D02*
X15933348Y-21562694D01*
X15933348Y-21562694D02*
X15952396Y-21572218D01*
X15952396Y-21572218D02*
X15961920Y-21581742D01*
X15961920Y-21581742D02*
X15971444Y-21600790D01*
X15971444Y-21600790D02*
X15971444Y-21648409D01*
X15971444Y-21648409D02*
X15961920Y-21667456D01*
X15961920Y-21667456D02*
X15952396Y-21676980D01*
X15952396Y-21676980D02*
X15933348Y-21686504D01*
X15933348Y-21686504D02*
X15876206Y-21686504D01*
X15876206Y-21686504D02*
X15857158Y-21676980D01*
X15857158Y-21676980D02*
X15847634Y-21667456D01*
X16047634Y-21486504D02*
X16047634Y-21524599D01*
X16123825Y-21486504D02*
X16123825Y-21524599D01*
X16419063Y-21762694D02*
X16409539Y-21753170D01*
X16409539Y-21753170D02*
X16390491Y-21724599D01*
X16390491Y-21724599D02*
X16380968Y-21705551D01*
X16380968Y-21705551D02*
X16371444Y-21676980D01*
X16371444Y-21676980D02*
X16361920Y-21629361D01*
X16361920Y-21629361D02*
X16361920Y-21591266D01*
X16361920Y-21591266D02*
X16371444Y-21543647D01*
X16371444Y-21543647D02*
X16380968Y-21515075D01*
X16380968Y-21515075D02*
X16390491Y-21496028D01*
X16390491Y-21496028D02*
X16409539Y-21467456D01*
X16409539Y-21467456D02*
X16419063Y-21457932D01*
X16580968Y-21553170D02*
X16580968Y-21686504D01*
X16533348Y-21476980D02*
X16485729Y-21619837D01*
X16485729Y-21619837D02*
X16609539Y-21619837D01*
X16838111Y-21686504D02*
X16838111Y-21486504D01*
X16923825Y-21686504D02*
X16923825Y-21581742D01*
X16923825Y-21581742D02*
X16914301Y-21562694D01*
X16914301Y-21562694D02*
X16895253Y-21553170D01*
X16895253Y-21553170D02*
X16866682Y-21553170D01*
X16866682Y-21553170D02*
X16847634Y-21562694D01*
X16847634Y-21562694D02*
X16838111Y-21572218D01*
X17047634Y-21686504D02*
X17028587Y-21676980D01*
X17028587Y-21676980D02*
X17019063Y-21667456D01*
X17019063Y-21667456D02*
X17009539Y-21648409D01*
X17009539Y-21648409D02*
X17009539Y-21591266D01*
X17009539Y-21591266D02*
X17019063Y-21572218D01*
X17019063Y-21572218D02*
X17028587Y-21562694D01*
X17028587Y-21562694D02*
X17047634Y-21553170D01*
X17047634Y-21553170D02*
X17076206Y-21553170D01*
X17076206Y-21553170D02*
X17095253Y-21562694D01*
X17095253Y-21562694D02*
X17104777Y-21572218D01*
X17104777Y-21572218D02*
X17114301Y-21591266D01*
X17114301Y-21591266D02*
X17114301Y-21648409D01*
X17114301Y-21648409D02*
X17104777Y-21667456D01*
X17104777Y-21667456D02*
X17095253Y-21676980D01*
X17095253Y-21676980D02*
X17076206Y-21686504D01*
X17076206Y-21686504D02*
X17047634Y-21686504D01*
X17228587Y-21686504D02*
X17209539Y-21676980D01*
X17209539Y-21676980D02*
X17200015Y-21657932D01*
X17200015Y-21657932D02*
X17200015Y-21486504D01*
X17380968Y-21676980D02*
X17361920Y-21686504D01*
X17361920Y-21686504D02*
X17323825Y-21686504D01*
X17323825Y-21686504D02*
X17304777Y-21676980D01*
X17304777Y-21676980D02*
X17295253Y-21657932D01*
X17295253Y-21657932D02*
X17295253Y-21581742D01*
X17295253Y-21581742D02*
X17304777Y-21562694D01*
X17304777Y-21562694D02*
X17323825Y-21553170D01*
X17323825Y-21553170D02*
X17361920Y-21553170D01*
X17361920Y-21553170D02*
X17380968Y-21562694D01*
X17380968Y-21562694D02*
X17390492Y-21581742D01*
X17390492Y-21581742D02*
X17390492Y-21600790D01*
X17390492Y-21600790D02*
X17295253Y-21619837D01*
X17466682Y-21676980D02*
X17485730Y-21686504D01*
X17485730Y-21686504D02*
X17523825Y-21686504D01*
X17523825Y-21686504D02*
X17542873Y-21676980D01*
X17542873Y-21676980D02*
X17552396Y-21657932D01*
X17552396Y-21657932D02*
X17552396Y-21648409D01*
X17552396Y-21648409D02*
X17542873Y-21629361D01*
X17542873Y-21629361D02*
X17523825Y-21619837D01*
X17523825Y-21619837D02*
X17495253Y-21619837D01*
X17495253Y-21619837D02*
X17476206Y-21610313D01*
X17476206Y-21610313D02*
X17466682Y-21591266D01*
X17466682Y-21591266D02*
X17466682Y-21581742D01*
X17466682Y-21581742D02*
X17476206Y-21562694D01*
X17476206Y-21562694D02*
X17495253Y-21553170D01*
X17495253Y-21553170D02*
X17523825Y-21553170D01*
X17523825Y-21553170D02*
X17542873Y-21562694D01*
X17619063Y-21762694D02*
X17628587Y-21753170D01*
X17628587Y-21753170D02*
X17647634Y-21724599D01*
X17647634Y-21724599D02*
X17657158Y-21705551D01*
X17657158Y-21705551D02*
X17666682Y-21676980D01*
X17666682Y-21676980D02*
X17676206Y-21629361D01*
X17676206Y-21629361D02*
X17676206Y-21591266D01*
X17676206Y-21591266D02*
X17666682Y-21543647D01*
X17666682Y-21543647D02*
X17657158Y-21515075D01*
X17657158Y-21515075D02*
X17647634Y-21496028D01*
X17647634Y-21496028D02*
X17628587Y-21467456D01*
X17628587Y-21467456D02*
X17619063Y-21457932D01*
M02*
