%TF.GenerationSoftware,KiCad,Pcbnew,7.0.11+dfsg-1build4*%
%TF.CreationDate,2024-07-15T15:28:05+02:00*%
%TF.ProjectId,antmicro-poe-to-usbc-pd-adapter,616e746d-6963-4726-9f2d-706f652d746f,rev?*%
%TF.SameCoordinates,Original*%
%TF.FileFunction,Other,User*%
%FSLAX46Y46*%
G04 Gerber Fmt 4.6, Leading zero omitted, Abs format (unit mm)*
G04 Created by KiCad (PCBNEW 7.0.11+dfsg-1build4) date 2024-07-15 15:28:05 commit  463866a *
%MOMM*%
%LPD*%
G01*
G04 APERTURE LIST*
%ADD10C,0.050000*%
G04 APERTURE END LIST*
D10*
%TO.C,C1*%
X90900000Y-57850000D02*
X92700000Y-57850000D01*
X92700000Y-57850000D02*
X92700000Y-61750000D01*
X92700000Y-61750000D02*
X90900000Y-61750000D01*
X90900000Y-61750000D02*
X90900000Y-57850000D01*
%TO.C,J1*%
X79010000Y-49601000D02*
X57211000Y-49601000D01*
X57211000Y-49601000D02*
X57211000Y-65901000D01*
X57211000Y-65901000D02*
X79010000Y-65901000D01*
X79010000Y-65901000D02*
X79010000Y-49601000D01*
%TO.C,C12*%
X131950000Y-71355000D02*
X131010000Y-71355000D01*
X131010000Y-71355000D02*
X131010000Y-73205000D01*
X131010000Y-73205000D02*
X131950000Y-73205000D01*
X131950000Y-73205000D02*
X131950000Y-71355000D01*
%TO.C,REF\u002A\u002A*%
X153790000Y-46200000D02*
G75*
G03*
X147890000Y-46200000I-2950000J0D01*
G01*
X147890000Y-46200000D02*
G75*
G03*
X153790000Y-46200000I2950000J0D01*
G01*
%TO.C,Y1*%
X126284000Y-60730000D02*
X130197000Y-60730000D01*
X130197000Y-60730000D02*
X130197000Y-63929000D01*
X130197000Y-63929000D02*
X126284000Y-63929000D01*
X126284000Y-63929000D02*
X126284000Y-60730000D01*
%TO.C,C22*%
X124930000Y-59490000D02*
X123630000Y-59490000D01*
X123630000Y-59490000D02*
X123630000Y-61990000D01*
X123630000Y-61990000D02*
X124930000Y-61990000D01*
X124930000Y-61990000D02*
X124930000Y-59490000D01*
%TO.C,R11*%
X88865000Y-64800000D02*
X90715000Y-64800000D01*
X90715000Y-64800000D02*
X90715000Y-65740000D01*
X90715000Y-65740000D02*
X88865000Y-65740000D01*
X88865000Y-65740000D02*
X88865000Y-64800000D01*
%TO.C,R36*%
X98705000Y-64390000D02*
X100555000Y-64390000D01*
X100555000Y-64390000D02*
X100555000Y-65330000D01*
X100555000Y-65330000D02*
X98705000Y-65330000D01*
X98705000Y-65330000D02*
X98705000Y-64390000D01*
%TO.C,R16*%
X120985000Y-79709800D02*
X122835000Y-79709800D01*
X122835000Y-79709800D02*
X122835000Y-80649800D01*
X122835000Y-80649800D02*
X120985000Y-80649800D01*
X120985000Y-80649800D02*
X120985000Y-79709800D01*
%TO.C,FB4*%
X121530000Y-67520000D02*
X120230000Y-67520000D01*
X120230000Y-67520000D02*
X120230000Y-70020000D01*
X120230000Y-70020000D02*
X121530000Y-70020000D01*
X121530000Y-70020000D02*
X121530000Y-67520000D01*
%TO.C,R27*%
X87470000Y-49450000D02*
X94150000Y-49450000D01*
X94150000Y-49450000D02*
X94150000Y-52950000D01*
X94150000Y-52950000D02*
X87470000Y-52950000D01*
X87470000Y-52950000D02*
X87470000Y-49450000D01*
%TO.C,R35*%
X98705000Y-63316666D02*
X100555000Y-63316666D01*
X100555000Y-63316666D02*
X100555000Y-64256666D01*
X100555000Y-64256666D02*
X98705000Y-64256666D01*
X98705000Y-64256666D02*
X98705000Y-63316666D01*
%TO.C,TP1*%
X121420000Y-66420000D02*
G75*
G03*
X119720000Y-66420000I-850000J0D01*
G01*
X119720000Y-66420000D02*
G75*
G03*
X121420000Y-66420000I850000J0D01*
G01*
%TO.C,R8*%
X122240000Y-61950000D02*
X123540000Y-61950000D01*
X123540000Y-61950000D02*
X123540000Y-59450000D01*
X123540000Y-59450000D02*
X122240000Y-59450000D01*
X122240000Y-59450000D02*
X122240000Y-61950000D01*
%TO.C,R2*%
X84740000Y-58490000D02*
X82240000Y-58490000D01*
X82240000Y-58490000D02*
X82240000Y-57190000D01*
X82240000Y-57190000D02*
X84740000Y-57190000D01*
X84740000Y-57190000D02*
X84740000Y-58490000D01*
%TO.C,R17*%
X121005000Y-80760000D02*
X122855000Y-80760000D01*
X122855000Y-80760000D02*
X122855000Y-81700000D01*
X122855000Y-81700000D02*
X121005000Y-81700000D01*
X121005000Y-81700000D02*
X121005000Y-80760000D01*
%TO.C,C18*%
X116950000Y-59745000D02*
X113450000Y-59745000D01*
X113450000Y-59745000D02*
X113450000Y-63945000D01*
X113450000Y-63945000D02*
X116950000Y-63945000D01*
X116950000Y-63945000D02*
X116950000Y-59745000D01*
%TO.C,R38*%
X93035000Y-62185000D02*
X94885000Y-62185000D01*
X94885000Y-62185000D02*
X94885000Y-63125000D01*
X94885000Y-63125000D02*
X93035000Y-63125000D01*
X93035000Y-63125000D02*
X93035000Y-62185000D01*
%TO.C,D4*%
X121788000Y-87040000D02*
X129190000Y-87040000D01*
X129190000Y-87040000D02*
X129190000Y-91640000D01*
X129190000Y-91640000D02*
X121788000Y-91640000D01*
X121788000Y-91640000D02*
X121788000Y-87040000D01*
%TO.C,C2*%
X85240000Y-65555000D02*
X86180000Y-65555000D01*
X86180000Y-65555000D02*
X86180000Y-63705000D01*
X86180000Y-63705000D02*
X85240000Y-63705000D01*
X85240000Y-63705000D02*
X85240000Y-65555000D01*
%TO.C,D5*%
X112185000Y-50220000D02*
X116735000Y-50220000D01*
X116735000Y-50220000D02*
X116735000Y-52320000D01*
X116735000Y-52320000D02*
X112185000Y-52320000D01*
X112185000Y-52320000D02*
X112185000Y-50220000D01*
%TO.C,R12*%
X85295000Y-62745000D02*
X86235000Y-62745000D01*
X86235000Y-62745000D02*
X86235000Y-60895000D01*
X86235000Y-60895000D02*
X85295000Y-60895000D01*
X85295000Y-60895000D02*
X85295000Y-62745000D01*
%TO.C,C29*%
X121540000Y-70275000D02*
X120600000Y-70275000D01*
X120600000Y-70275000D02*
X120600000Y-72125000D01*
X120600000Y-72125000D02*
X121540000Y-72125000D01*
X121540000Y-72125000D02*
X121540000Y-70275000D01*
%TO.C,R37*%
X93035000Y-61113334D02*
X94885000Y-61113334D01*
X94885000Y-61113334D02*
X94885000Y-62053334D01*
X94885000Y-62053334D02*
X93035000Y-62053334D01*
X93035000Y-62053334D02*
X93035000Y-61113334D01*
%TO.C,REF\u002A\u002A*%
X62960000Y-94060000D02*
G75*
G03*
X57060000Y-94060000I-2950000J0D01*
G01*
X57060000Y-94060000D02*
G75*
G03*
X62960000Y-94060000I2950000J0D01*
G01*
%TO.C,Q1*%
X86482000Y-63380000D02*
X86482000Y-65690000D01*
X86482000Y-63380000D02*
X88702000Y-63380000D01*
X86482000Y-65690000D02*
X88702000Y-65690000D01*
X88702000Y-63380000D02*
X88702000Y-65690000D01*
%TO.C,R5*%
X89465000Y-62735000D02*
X90405000Y-62735000D01*
X90405000Y-62735000D02*
X90405000Y-60885000D01*
X90405000Y-60885000D02*
X89465000Y-60885000D01*
X89465000Y-60885000D02*
X89465000Y-62735000D01*
%TO.C,C9*%
X121560000Y-86725000D02*
X119260000Y-86725000D01*
X119260000Y-86725000D02*
X119260000Y-91375000D01*
X119260000Y-91375000D02*
X121560000Y-91375000D01*
X121560000Y-91375000D02*
X121560000Y-86725000D01*
%TO.C,R34*%
X98705000Y-62243333D02*
X100555000Y-62243333D01*
X100555000Y-62243333D02*
X100555000Y-63183333D01*
X100555000Y-63183333D02*
X98705000Y-63183333D01*
X98705000Y-63183333D02*
X98705000Y-62243333D01*
%TO.C,R13*%
X121005000Y-82860400D02*
X122855000Y-82860400D01*
X122855000Y-82860400D02*
X122855000Y-83800400D01*
X122855000Y-83800400D02*
X121005000Y-83800400D01*
X121005000Y-83800400D02*
X121005000Y-82860400D01*
%TO.C,R4*%
X88422500Y-62735000D02*
X89362500Y-62735000D01*
X89362500Y-62735000D02*
X89362500Y-60885000D01*
X89362500Y-60885000D02*
X88422500Y-60885000D01*
X88422500Y-60885000D02*
X88422500Y-62735000D01*
%TO.C,U4*%
X57320000Y-66370000D02*
X117740000Y-66370000D01*
X117740000Y-66370000D02*
X117740000Y-91230000D01*
X117740000Y-91230000D02*
X57320000Y-91230000D01*
X57320000Y-91230000D02*
X57320000Y-66370000D01*
%TO.C,C26*%
X94745000Y-51010000D02*
X96595000Y-51010000D01*
X96595000Y-51010000D02*
X96595000Y-51950000D01*
X96595000Y-51950000D02*
X94745000Y-51950000D01*
X94745000Y-51950000D02*
X94745000Y-51010000D01*
%TO.C,L2*%
X113990000Y-52590000D02*
X107990000Y-52590000D01*
X107990000Y-52590000D02*
X107990000Y-58390000D01*
X107990000Y-58390000D02*
X113990000Y-58390000D01*
X113990000Y-58390000D02*
X113990000Y-52590000D01*
%TO.C,REF\u002A\u002A*%
X153790000Y-94050000D02*
G75*
G03*
X147890000Y-94050000I-2950000J0D01*
G01*
X147890000Y-94050000D02*
G75*
G03*
X153790000Y-94050000I2950000J0D01*
G01*
%TO.C,U6*%
X96740000Y-49200000D02*
X104640000Y-49200000D01*
X104640000Y-49200000D02*
X104640000Y-57100000D01*
X104640000Y-57100000D02*
X96740000Y-57100000D01*
X96740000Y-57100000D02*
X96740000Y-49200000D01*
%TO.C,C30*%
X120490000Y-70275000D02*
X119550000Y-70275000D01*
X119550000Y-70275000D02*
X119550000Y-72125000D01*
X119550000Y-72125000D02*
X120490000Y-72125000D01*
X120490000Y-72125000D02*
X120490000Y-70275000D01*
%TO.C,R28*%
X104945000Y-50280000D02*
X106795000Y-50280000D01*
X106795000Y-50280000D02*
X106795000Y-51220000D01*
X106795000Y-51220000D02*
X104945000Y-51220000D01*
X104945000Y-51220000D02*
X104945000Y-50280000D01*
%TO.C,R7*%
X120860000Y-61960000D02*
X122160000Y-61960000D01*
X122160000Y-61960000D02*
X122160000Y-59460000D01*
X122160000Y-59460000D02*
X120860000Y-59460000D01*
X120860000Y-59460000D02*
X120860000Y-61960000D01*
%TO.C,R30*%
X105025000Y-52915000D02*
X106875000Y-52915000D01*
X106875000Y-52915000D02*
X106875000Y-53855000D01*
X106875000Y-53855000D02*
X105025000Y-53855000D01*
X105025000Y-53855000D02*
X105025000Y-52915000D01*
%TO.C,REF\u002A\u002A*%
X63235000Y-46210000D02*
G75*
G03*
X57335000Y-46210000I-2950000J0D01*
G01*
X57335000Y-46210000D02*
G75*
G03*
X63235000Y-46210000I2950000J0D01*
G01*
%TO.C,C19*%
X120650000Y-59775000D02*
X117150000Y-59775000D01*
X117150000Y-59775000D02*
X117150000Y-63975000D01*
X117150000Y-63975000D02*
X120650000Y-63975000D01*
X120650000Y-63975000D02*
X120650000Y-59775000D01*
%TO.C,R18*%
X121005000Y-81810200D02*
X122855000Y-81810200D01*
X122855000Y-81810200D02*
X122855000Y-82750200D01*
X122855000Y-82750200D02*
X121005000Y-82750200D01*
X121005000Y-82750200D02*
X121005000Y-81810200D01*
%TO.C,R26*%
X122900000Y-57545000D02*
X121960000Y-57545000D01*
X121960000Y-57545000D02*
X121960000Y-59395000D01*
X121960000Y-59395000D02*
X122900000Y-59395000D01*
X122900000Y-59395000D02*
X122900000Y-57545000D01*
%TO.C,R39*%
X93035000Y-64328334D02*
X94885000Y-64328334D01*
X94885000Y-64328334D02*
X94885000Y-65268334D01*
X94885000Y-65268334D02*
X93035000Y-65268334D01*
X93035000Y-65268334D02*
X93035000Y-64328334D01*
%TO.C,U2*%
X128910000Y-79850000D02*
X123070000Y-79850000D01*
X123070000Y-79850000D02*
X123070000Y-86420000D01*
X123070000Y-86420000D02*
X128910000Y-86420000D01*
X128910000Y-86420000D02*
X128910000Y-79850000D01*
%TO.C,R40*%
X93035000Y-63256666D02*
X94885000Y-63256666D01*
X94885000Y-63256666D02*
X94885000Y-64196666D01*
X94885000Y-64196666D02*
X93035000Y-64196666D01*
X93035000Y-64196666D02*
X93035000Y-63256666D01*
%TO.C,C23*%
X122541000Y-52555000D02*
X120241000Y-52555000D01*
X120241000Y-52555000D02*
X120241000Y-57205000D01*
X120241000Y-57205000D02*
X122541000Y-57205000D01*
X122541000Y-57205000D02*
X122541000Y-52555000D01*
%TO.C,R1*%
X87380000Y-62735000D02*
X88320000Y-62735000D01*
X88320000Y-62735000D02*
X88320000Y-60885000D01*
X88320000Y-60885000D02*
X87380000Y-60885000D01*
X87380000Y-60885000D02*
X87380000Y-62735000D01*
%TO.C,R41*%
X100030000Y-60890000D02*
X93350000Y-60890000D01*
X93350000Y-60890000D02*
X93350000Y-57390000D01*
X93350000Y-57390000D02*
X100030000Y-57390000D01*
X100030000Y-57390000D02*
X100030000Y-60890000D01*
%TO.C,C21*%
X121880000Y-57525000D02*
X120940000Y-57525000D01*
X120940000Y-57525000D02*
X120940000Y-59375000D01*
X120940000Y-59375000D02*
X121880000Y-59375000D01*
X121880000Y-59375000D02*
X121880000Y-57525000D01*
%TO.C,R33*%
X100555000Y-62110000D02*
X98705000Y-62110000D01*
X98705000Y-62110000D02*
X98705000Y-61170000D01*
X98705000Y-61170000D02*
X100555000Y-61170000D01*
X100555000Y-61170000D02*
X100555000Y-62110000D01*
%TO.C,R22*%
X123980000Y-63175000D02*
X123040000Y-63175000D01*
X123040000Y-63175000D02*
X123040000Y-65025000D01*
X123040000Y-65025000D02*
X123980000Y-65025000D01*
X123980000Y-65025000D02*
X123980000Y-63175000D01*
%TO.C,C14*%
X128315000Y-64070000D02*
X130165000Y-64070000D01*
X130165000Y-64070000D02*
X130165000Y-65010000D01*
X130165000Y-65010000D02*
X128315000Y-65010000D01*
X128315000Y-65010000D02*
X128315000Y-64070000D01*
%TO.C,C11*%
X132980000Y-71345000D02*
X132040000Y-71345000D01*
X132040000Y-71345000D02*
X132040000Y-73195000D01*
X132040000Y-73195000D02*
X132980000Y-73195000D01*
X132980000Y-73195000D02*
X132980000Y-71345000D01*
%TO.C,C24*%
X116975000Y-49920000D02*
X121625000Y-49920000D01*
X121625000Y-49920000D02*
X121625000Y-52220000D01*
X121625000Y-52220000D02*
X116975000Y-52220000D01*
X116975000Y-52220000D02*
X116975000Y-49920000D01*
%TO.C,R15*%
X121005000Y-84960800D02*
X122855000Y-84960800D01*
X122855000Y-84960800D02*
X122855000Y-85900800D01*
X122855000Y-85900800D02*
X121005000Y-85900800D01*
X121005000Y-85900800D02*
X121005000Y-84960800D01*
%TO.C,D3*%
X90900000Y-53390000D02*
X93100000Y-53390000D01*
X93100000Y-57800000D02*
X93100000Y-53390000D01*
X93100000Y-57800000D02*
X90900000Y-57800000D01*
X90900000Y-57800000D02*
X90900000Y-53390000D01*
%TO.C,C6*%
X131540000Y-84450000D02*
X129040000Y-84450000D01*
X129040000Y-84450000D02*
X129040000Y-83150000D01*
X129040000Y-83150000D02*
X131540000Y-83150000D01*
X131540000Y-83150000D02*
X131540000Y-84450000D01*
%TO.C,C7*%
X130890000Y-81550000D02*
X129040000Y-81550000D01*
X129040000Y-81550000D02*
X129040000Y-80610000D01*
X129040000Y-80610000D02*
X130890000Y-80610000D01*
X130890000Y-80610000D02*
X130890000Y-81550000D01*
%TO.C,C20*%
X110830000Y-58370000D02*
X113330000Y-58370000D01*
X113330000Y-58370000D02*
X113330000Y-59670000D01*
X113330000Y-59670000D02*
X110830000Y-59670000D01*
X110830000Y-59670000D02*
X110830000Y-58370000D01*
%TO.C,R10*%
X88895000Y-63680000D02*
X90745000Y-63680000D01*
X90745000Y-63680000D02*
X90745000Y-64620000D01*
X90745000Y-64620000D02*
X88895000Y-64620000D01*
X88895000Y-64620000D02*
X88895000Y-63680000D01*
%TO.C,FB5*%
X132380000Y-68680000D02*
X131080000Y-68680000D01*
X131080000Y-68680000D02*
X131080000Y-71180000D01*
X131080000Y-71180000D02*
X132380000Y-71180000D01*
X132380000Y-71180000D02*
X132380000Y-68680000D01*
%TO.C,U3*%
X95058000Y-61752666D02*
X98558000Y-61752666D01*
X98558000Y-61752666D02*
X98558000Y-65252666D01*
X98558000Y-65252666D02*
X95058000Y-65252666D01*
X95058000Y-65252666D02*
X95058000Y-61752666D01*
%TO.C,FB1*%
X147840000Y-70210000D02*
X145340000Y-70210000D01*
X145340000Y-70210000D02*
X145340000Y-68910000D01*
X145340000Y-68910000D02*
X147840000Y-68910000D01*
X147840000Y-68910000D02*
X147840000Y-70210000D01*
%TO.C,C4*%
X126270000Y-75120000D02*
X122770000Y-75120000D01*
X122770000Y-75120000D02*
X122770000Y-79320000D01*
X122770000Y-79320000D02*
X126270000Y-79320000D01*
X126270000Y-79320000D02*
X126270000Y-75120000D01*
%TO.C,U1*%
X84910000Y-60730000D02*
X90810000Y-60730000D01*
X90810000Y-60730000D02*
X90810000Y-54830000D01*
X90810000Y-54830000D02*
X84910000Y-54830000D01*
X84910000Y-54830000D02*
X84910000Y-60730000D01*
%TO.C,C13*%
X128135000Y-64970000D02*
X126285000Y-64970000D01*
X126285000Y-64970000D02*
X126285000Y-64030000D01*
X126285000Y-64030000D02*
X128135000Y-64030000D01*
X128135000Y-64030000D02*
X128135000Y-64970000D01*
%TO.C,C5*%
X122630000Y-75140000D02*
X119130000Y-75140000D01*
X119130000Y-75140000D02*
X119130000Y-79340000D01*
X119130000Y-79340000D02*
X122630000Y-79340000D01*
X122630000Y-79340000D02*
X122630000Y-75140000D01*
%TO.C,C28*%
X94745000Y-53290000D02*
X96595000Y-53290000D01*
X96595000Y-53290000D02*
X96595000Y-54230000D01*
X96595000Y-54230000D02*
X94745000Y-54230000D01*
X94745000Y-54230000D02*
X94745000Y-53290000D01*
%TO.C,J3*%
X145835000Y-80440000D02*
X154135000Y-80440000D01*
X154135000Y-80440000D02*
X154135000Y-70240000D01*
X154135000Y-70240000D02*
X145835000Y-70240000D01*
X145835000Y-70240000D02*
X145835000Y-80440000D01*
%TO.C,C17*%
X113290000Y-59790000D02*
X109790000Y-59790000D01*
X109790000Y-59790000D02*
X109790000Y-63990000D01*
X109790000Y-63990000D02*
X113290000Y-63990000D01*
X113290000Y-63990000D02*
X113290000Y-59790000D01*
%TO.C,R25*%
X123921000Y-57558000D02*
X122981000Y-57558000D01*
X122981000Y-57558000D02*
X122981000Y-59408000D01*
X122981000Y-59408000D02*
X123921000Y-59408000D01*
X123921000Y-59408000D02*
X123921000Y-57558000D01*
%TO.C,R21*%
X125040000Y-63175000D02*
X124100000Y-63175000D01*
X124100000Y-63175000D02*
X124100000Y-65025000D01*
X124100000Y-65025000D02*
X125040000Y-65025000D01*
X125040000Y-65025000D02*
X125040000Y-63175000D01*
%TO.C,C27*%
X94745000Y-52150000D02*
X96595000Y-52150000D01*
X96595000Y-52150000D02*
X96595000Y-53090000D01*
X96595000Y-53090000D02*
X94745000Y-53090000D01*
X94745000Y-53090000D02*
X94745000Y-52150000D01*
%TO.C,C15*%
X131030000Y-68315000D02*
X131970000Y-68315000D01*
X131970000Y-68315000D02*
X131970000Y-66465000D01*
X131970000Y-66465000D02*
X131030000Y-66465000D01*
X131030000Y-66465000D02*
X131030000Y-68315000D01*
%TO.C,R9*%
X130890000Y-80460000D02*
X129040000Y-80460000D01*
X129040000Y-80460000D02*
X129040000Y-79520000D01*
X129040000Y-79520000D02*
X130890000Y-79520000D01*
X130890000Y-79520000D02*
X130890000Y-80460000D01*
%TO.C,R3*%
X82210000Y-55750000D02*
X84710000Y-55750000D01*
X84710000Y-55750000D02*
X84710000Y-57050000D01*
X84710000Y-57050000D02*
X82210000Y-57050000D01*
X82210000Y-57050000D02*
X82210000Y-55750000D01*
%TO.C,R23*%
X122920000Y-63175000D02*
X121980000Y-63175000D01*
X121980000Y-63175000D02*
X121980000Y-65025000D01*
X121980000Y-65025000D02*
X122920000Y-65025000D01*
X122920000Y-65025000D02*
X122920000Y-63175000D01*
%TO.C,R14*%
X121005000Y-83910600D02*
X122855000Y-83910600D01*
X122855000Y-83910600D02*
X122855000Y-84850600D01*
X122855000Y-84850600D02*
X121005000Y-84850600D01*
X121005000Y-84850600D02*
X121005000Y-83910600D01*
%TO.C,R32*%
X105045000Y-55550000D02*
X106895000Y-55550000D01*
X106895000Y-55550000D02*
X106895000Y-56490000D01*
X106895000Y-56490000D02*
X105045000Y-56490000D01*
X105045000Y-56490000D02*
X105045000Y-55550000D01*
%TO.C,L1*%
X135320000Y-84660000D02*
X129320000Y-84660000D01*
X129320000Y-84660000D02*
X129320000Y-90460000D01*
X129320000Y-90460000D02*
X135320000Y-90460000D01*
X135320000Y-90460000D02*
X135320000Y-84660000D01*
%TO.C,C8*%
X131540000Y-83000000D02*
X129040000Y-83000000D01*
X129040000Y-83000000D02*
X129040000Y-81700000D01*
X129040000Y-81700000D02*
X131540000Y-81700000D01*
X131540000Y-81700000D02*
X131540000Y-83000000D01*
%TO.C,REF\u002A\u002A*%
X136960000Y-76530000D02*
X145500000Y-76530000D01*
X145500000Y-76530000D02*
X145500000Y-84050000D01*
X145500000Y-84050000D02*
X136960000Y-84050000D01*
X136960000Y-84050000D02*
X136960000Y-76530000D01*
X136918000Y-84388000D02*
X151522000Y-84388000D01*
X151522000Y-84388000D02*
X151522000Y-90932000D01*
X151522000Y-90932000D02*
X136918000Y-90932000D01*
X136918000Y-90932000D02*
X136918000Y-84388000D01*
%TO.C,J2*%
X132315000Y-66628000D02*
X154114000Y-66628000D01*
X154114000Y-66628000D02*
X154114000Y-50328000D01*
X154114000Y-50328000D02*
X132315000Y-50328000D01*
X132315000Y-50328000D02*
X132315000Y-66628000D01*
%TO.C,D2*%
X79330000Y-65810000D02*
X84530000Y-65810000D01*
X84530000Y-65810000D02*
X84530000Y-61610000D01*
X84530000Y-61610000D02*
X79330000Y-61610000D01*
X79330000Y-61610000D02*
X79330000Y-65810000D01*
%TO.C,U5*%
X121909000Y-74028000D02*
X130709000Y-74028000D01*
X130709000Y-74028000D02*
X130709000Y-65228000D01*
X130709000Y-65228000D02*
X121909000Y-65228000D01*
X121909000Y-65228000D02*
X121909000Y-74028000D01*
%TO.C,R31*%
X105075000Y-54232500D02*
X106925000Y-54232500D01*
X106925000Y-54232500D02*
X106925000Y-55172500D01*
X106925000Y-55172500D02*
X105075000Y-55172500D01*
X105075000Y-55172500D02*
X105075000Y-54232500D01*
%TO.C,R6*%
X86337500Y-62735000D02*
X87277500Y-62735000D01*
X87277500Y-62735000D02*
X87277500Y-60885000D01*
X87277500Y-60885000D02*
X86337500Y-60885000D01*
X86337500Y-60885000D02*
X86337500Y-62735000D01*
%TO.C,R20*%
X126100000Y-63175000D02*
X125160000Y-63175000D01*
X125160000Y-63175000D02*
X125160000Y-65025000D01*
X125160000Y-65025000D02*
X126100000Y-65025000D01*
X126100000Y-65025000D02*
X126100000Y-63175000D01*
%TO.C,R29*%
X104995000Y-51597500D02*
X106845000Y-51597500D01*
X106845000Y-51597500D02*
X106845000Y-52537500D01*
X106845000Y-52537500D02*
X104995000Y-52537500D01*
X104995000Y-52537500D02*
X104995000Y-51597500D01*
%TO.C,R24*%
X124940000Y-57545000D02*
X124000000Y-57545000D01*
X124000000Y-57545000D02*
X124000000Y-59395000D01*
X124000000Y-59395000D02*
X124940000Y-59395000D01*
X124940000Y-59395000D02*
X124940000Y-57545000D01*
%TO.C,C10*%
X118470000Y-84355000D02*
X120770000Y-84355000D01*
X120770000Y-84355000D02*
X120770000Y-79705000D01*
X120770000Y-79705000D02*
X118470000Y-79705000D01*
X118470000Y-79705000D02*
X118470000Y-84355000D01*
%TO.C,U7*%
X114135000Y-59250000D02*
X119975000Y-59250000D01*
X119975000Y-59250000D02*
X119975000Y-52680000D01*
X119975000Y-52680000D02*
X114135000Y-52680000D01*
X114135000Y-52680000D02*
X114135000Y-59250000D01*
%TO.C,D1*%
X84530000Y-49760000D02*
X79330000Y-49760000D01*
X79330000Y-49760000D02*
X79330000Y-53960000D01*
X79330000Y-53960000D02*
X84530000Y-53960000D01*
X84530000Y-53960000D02*
X84530000Y-49760000D01*
%TO.C,R19*%
X131210000Y-63145000D02*
X130270000Y-63145000D01*
X130270000Y-63145000D02*
X130270000Y-64995000D01*
X130270000Y-64995000D02*
X131210000Y-64995000D01*
X131210000Y-64995000D02*
X131210000Y-63145000D01*
%TO.C,C25*%
X94745000Y-54430000D02*
X96595000Y-54430000D01*
X96595000Y-54430000D02*
X96595000Y-55370000D01*
X96595000Y-55370000D02*
X94745000Y-55370000D01*
X94745000Y-55370000D02*
X94745000Y-54430000D01*
%TO.C,C3*%
X129830000Y-75100000D02*
X126330000Y-75100000D01*
X126330000Y-75100000D02*
X126330000Y-79300000D01*
X126330000Y-79300000D02*
X129830000Y-79300000D01*
X129830000Y-79300000D02*
X129830000Y-75100000D01*
%TD*%
M02*
