%TF.GenerationSoftware,KiCad,Pcbnew,7.0.11+dfsg-1build4*%
%TF.CreationDate,2024-07-15T15:28:05+02:00*%
%TF.ProjectId,antmicro-poe-to-usbc-pd-adapter,616e746d-6963-4726-9f2d-706f652d746f,rev?*%
%TF.SameCoordinates,Original*%
%TF.FileFunction,Other,User*%
%FSLAX46Y46*%
G04 Gerber Fmt 4.6, Leading zero omitted, Abs format (unit mm)*
G04 Created by KiCad (PCBNEW 7.0.11+dfsg-1build4) date 2024-07-15 15:28:05 commit  463866a *
%MOMM*%
%LPD*%
G01*
G04 APERTURE LIST*
%ADD10C,0.100000*%
%ADD11C,0.150000*%
G04 APERTURE END LIST*
D10*
%TO.C,C1*%
X91176000Y-60800000D02*
X92424000Y-60800000D01*
X92424000Y-60800000D02*
X92424000Y-58800000D01*
X92424000Y-58800000D02*
X91176000Y-58800000D01*
X91176000Y-58800000D02*
X91176000Y-60800000D01*
%TO.C,J1*%
X78811000Y-49650000D02*
X57211000Y-49650000D01*
X57211000Y-49650000D02*
X57211000Y-65849000D01*
X57211000Y-65849000D02*
X78811000Y-65849000D01*
X78811000Y-65849000D02*
X78811000Y-49650000D01*
%TO.C,C12*%
X131724000Y-71786000D02*
X131723000Y-71786000D01*
X131723000Y-71786000D02*
X131723000Y-71786000D01*
X131723000Y-71786000D02*
X131722000Y-71786000D01*
X131722000Y-71786000D02*
X131722000Y-71786000D01*
X131722000Y-71786000D02*
X131722000Y-71786000D01*
X131722000Y-71786000D02*
X131721000Y-71786000D01*
X131721000Y-71786000D02*
X131721000Y-71786000D01*
X131721000Y-71786000D02*
X131720000Y-71786000D01*
X131720000Y-71786000D02*
X131718000Y-71786000D01*
X131718000Y-71786000D02*
X131718000Y-71786000D01*
X131718000Y-71786000D02*
X131718000Y-71786000D01*
X131718000Y-71786000D02*
X131718000Y-71786000D01*
X131240000Y-71786000D02*
X131718000Y-71786000D01*
X131240000Y-71786000D02*
X131240000Y-71786000D01*
X131240000Y-71786000D02*
X131240000Y-71786000D01*
X131240000Y-71786000D02*
X131240000Y-71786000D01*
X131240000Y-71786000D02*
X131240000Y-71786000D01*
X131240000Y-71786000D02*
X131240000Y-71786000D01*
X131240000Y-71786000D02*
X131239000Y-71786000D01*
X131239000Y-71786000D02*
X131239000Y-71786000D01*
X131239000Y-71786000D02*
X131239000Y-71786000D01*
X131239000Y-71786000D02*
X131238000Y-71786000D01*
X131238000Y-71786000D02*
X131238000Y-71786000D01*
X131238000Y-71786000D02*
X131237000Y-71786000D01*
X131237000Y-71786000D02*
X131237000Y-71787000D01*
X131725000Y-71787000D02*
X131725000Y-71787000D01*
X131725000Y-71787000D02*
X131725000Y-71787000D01*
X131725000Y-71787000D02*
X131724000Y-71787000D01*
X131724000Y-71787000D02*
X131724000Y-71786000D01*
X131237000Y-71787000D02*
X131236000Y-71787000D01*
X131236000Y-71787000D02*
X131236000Y-71787000D01*
X131236000Y-71787000D02*
X131236000Y-71787000D01*
X131236000Y-71787000D02*
X131235000Y-71788000D01*
X131727000Y-71788000D02*
X131726000Y-71788000D01*
X131726000Y-71788000D02*
X131725000Y-71787000D01*
X131726000Y-71788000D02*
X131726000Y-71788000D01*
X131235000Y-71788000D02*
X131235000Y-71788000D01*
X131235000Y-71788000D02*
X131234000Y-71788000D01*
X131234000Y-71788000D02*
X131234000Y-71789000D01*
X131727000Y-71789000D02*
X131727000Y-71788000D01*
X131727000Y-71789000D02*
X131727000Y-71789000D01*
X131234000Y-71789000D02*
X131234000Y-71789000D01*
X131234000Y-71789000D02*
X131233000Y-71790000D01*
X131728000Y-71790000D02*
X131727000Y-71789000D01*
X131728000Y-71790000D02*
X131728000Y-71790000D01*
X131728000Y-71790000D02*
X131728000Y-71790000D01*
X131233000Y-71790000D02*
X131233000Y-71790000D01*
X131233000Y-71790000D02*
X131233000Y-71790000D01*
X131233000Y-71790000D02*
X131233000Y-71791000D01*
X131729000Y-71791000D02*
X131728000Y-71791000D01*
X131728000Y-71791000D02*
X131728000Y-71790000D01*
X131233000Y-71791000D02*
X131232000Y-71791000D01*
X131232000Y-71791000D02*
X131232000Y-71792000D01*
X131729000Y-71792000D02*
X131729000Y-71791000D01*
X131729000Y-71792000D02*
X131729000Y-71792000D01*
X131232000Y-71792000D02*
X131232000Y-71792000D01*
X131232000Y-71792000D02*
X131232000Y-71793000D01*
X131729000Y-71793000D02*
X131729000Y-71792000D01*
X131729000Y-71793000D02*
X131729000Y-71793000D01*
X131729000Y-71793000D02*
X131729000Y-71793000D01*
X131232000Y-71793000D02*
X131232000Y-71793000D01*
X131232000Y-71793000D02*
X131232000Y-71793000D01*
X131232000Y-71793000D02*
X131232000Y-71794000D01*
X131729000Y-71794000D02*
X131729000Y-71793000D01*
X131729000Y-71794000D02*
X131729000Y-71794000D01*
X131232000Y-71794000D02*
X131232000Y-71794000D01*
X131232000Y-71794000D02*
X131232000Y-71795000D01*
X131729000Y-71796000D02*
X131729000Y-71986000D01*
X131729000Y-71986000D02*
X131718000Y-71986000D01*
X131718000Y-71986000D02*
X131240000Y-71986000D01*
X131718000Y-71986000D02*
X131718000Y-72583000D01*
X131240000Y-71986000D02*
X131232000Y-71986000D01*
X131240000Y-71986000D02*
X131240000Y-72583000D01*
X131232000Y-71986000D02*
X131232000Y-71796000D01*
X131729000Y-72583000D02*
X131718000Y-72583000D01*
X131718000Y-72583000D02*
X131240000Y-72583000D01*
X131240000Y-72583000D02*
X131232000Y-72583000D01*
X131232000Y-72583000D02*
X131232000Y-72773000D01*
X131729000Y-72773000D02*
X131729000Y-72583000D01*
X131232000Y-72775000D02*
X131232000Y-72776000D01*
X131729000Y-72776000D02*
X131729000Y-72775000D01*
X131729000Y-72776000D02*
X131729000Y-72776000D01*
X131729000Y-72776000D02*
X131729000Y-72776000D01*
X131232000Y-72776000D02*
X131232000Y-72776000D01*
X131232000Y-72776000D02*
X131232000Y-72776000D01*
X131232000Y-72776000D02*
X131232000Y-72777000D01*
X131729000Y-72777000D02*
X131729000Y-72776000D01*
X131729000Y-72777000D02*
X131729000Y-72777000D01*
X131232000Y-72777000D02*
X131232000Y-72777000D01*
X131232000Y-72777000D02*
X131232000Y-72778000D01*
X131729000Y-72778000D02*
X131729000Y-72777000D01*
X131728000Y-72778000D02*
X131729000Y-72778000D01*
X131233000Y-72778000D02*
X131233000Y-72779000D01*
X131232000Y-72778000D02*
X131233000Y-72778000D01*
X131728000Y-72779000D02*
X131728000Y-72778000D01*
X131728000Y-72779000D02*
X131728000Y-72779000D01*
X131728000Y-72779000D02*
X131728000Y-72779000D01*
X131233000Y-72779000D02*
X131233000Y-72779000D01*
X131233000Y-72779000D02*
X131233000Y-72779000D01*
X131233000Y-72779000D02*
X131234000Y-72780000D01*
X131727000Y-72780000D02*
X131728000Y-72779000D01*
X131727000Y-72780000D02*
X131727000Y-72780000D01*
X131234000Y-72780000D02*
X131234000Y-72780000D01*
X131234000Y-72780000D02*
X131234000Y-72781000D01*
X131727000Y-72781000D02*
X131727000Y-72780000D01*
X131726000Y-72781000D02*
X131727000Y-72781000D01*
X131726000Y-72781000D02*
X131726000Y-72781000D01*
X131235000Y-72781000D02*
X131235000Y-72781000D01*
X131235000Y-72781000D02*
X131236000Y-72782000D01*
X131234000Y-72781000D02*
X131235000Y-72781000D01*
X131725000Y-72782000D02*
X131726000Y-72781000D01*
X131725000Y-72782000D02*
X131725000Y-72782000D01*
X131725000Y-72782000D02*
X131725000Y-72782000D01*
X131724000Y-72782000D02*
X131725000Y-72782000D01*
X131237000Y-72782000D02*
X131237000Y-72783000D01*
X131236000Y-72782000D02*
X131237000Y-72782000D01*
X131236000Y-72782000D02*
X131236000Y-72782000D01*
X131236000Y-72782000D02*
X131236000Y-72782000D01*
X131724000Y-72783000D02*
X131724000Y-72782000D01*
X131723000Y-72783000D02*
X131724000Y-72783000D01*
X131723000Y-72783000D02*
X131723000Y-72783000D01*
X131722000Y-72783000D02*
X131723000Y-72783000D01*
X131722000Y-72783000D02*
X131722000Y-72783000D01*
X131722000Y-72783000D02*
X131722000Y-72783000D01*
X131721000Y-72783000D02*
X131722000Y-72783000D01*
X131721000Y-72783000D02*
X131721000Y-72783000D01*
X131720000Y-72783000D02*
X131721000Y-72783000D01*
X131240000Y-72783000D02*
X131718000Y-72783000D01*
X131240000Y-72783000D02*
X131240000Y-72783000D01*
X131239000Y-72783000D02*
X131240000Y-72783000D01*
X131239000Y-72783000D02*
X131239000Y-72783000D01*
X131239000Y-72783000D02*
X131239000Y-72783000D01*
X131238000Y-72783000D02*
X131239000Y-72783000D01*
X131238000Y-72783000D02*
X131238000Y-72783000D01*
X131237000Y-72783000D02*
X131238000Y-72783000D01*
%TO.C,Y1*%
X126584000Y-61030000D02*
X129797000Y-61030000D01*
X129797000Y-61030000D02*
X129797000Y-63529000D01*
X129797000Y-63529000D02*
X126584000Y-63529000D01*
X126584000Y-63529000D02*
X126584000Y-61030000D01*
%TO.C,C22*%
X124730000Y-59940000D02*
X123830000Y-59940000D01*
X123830000Y-59940000D02*
X123830000Y-61540000D01*
X123830000Y-61540000D02*
X124730000Y-61540000D01*
X124730000Y-61540000D02*
X124730000Y-59940000D01*
%TO.C,R11*%
X89290000Y-65020000D02*
X90290000Y-65020000D01*
X90290000Y-65020000D02*
X90290000Y-65520000D01*
X90290000Y-65520000D02*
X89290000Y-65520000D01*
X89290000Y-65520000D02*
X89290000Y-65020000D01*
%TO.C,R36*%
X99130000Y-64610000D02*
X100130000Y-64610000D01*
X100130000Y-64610000D02*
X100130000Y-65110000D01*
X100130000Y-65110000D02*
X99130000Y-65110000D01*
X99130000Y-65110000D02*
X99130000Y-64610000D01*
%TO.C,R16*%
X121410000Y-79929800D02*
X122410000Y-79929800D01*
X122410000Y-79929800D02*
X122410000Y-80429800D01*
X122410000Y-80429800D02*
X121410000Y-80429800D01*
X121410000Y-80429800D02*
X121410000Y-79929800D01*
%TO.C,FB4*%
X121282000Y-67968000D02*
X120480000Y-67968000D01*
X120480000Y-67968000D02*
X120480000Y-69570000D01*
X120480000Y-69570000D02*
X121282000Y-69570000D01*
X121282000Y-69570000D02*
X121282000Y-67968000D01*
%TO.C,R27*%
X88310000Y-49950000D02*
X93310000Y-49950000D01*
X93310000Y-49950000D02*
X93310000Y-52450000D01*
X93310000Y-52450000D02*
X88310000Y-52450000D01*
X88310000Y-52450000D02*
X88310000Y-49950000D01*
%TO.C,R35*%
X99130000Y-63536666D02*
X100130000Y-63536666D01*
X100130000Y-63536666D02*
X100130000Y-64036666D01*
X100130000Y-64036666D02*
X99130000Y-64036666D01*
X99130000Y-64036666D02*
X99130000Y-63536666D01*
%TO.C,R8*%
X122490000Y-61500000D02*
X123290000Y-61500000D01*
X123290000Y-61500000D02*
X123290000Y-59900000D01*
X123290000Y-59900000D02*
X122490000Y-59900000D01*
X122490000Y-59900000D02*
X122490000Y-61500000D01*
%TO.C,R2*%
X84290000Y-58240000D02*
X82690000Y-58240000D01*
X82690000Y-58240000D02*
X82690000Y-57440000D01*
X82690000Y-57440000D02*
X84290000Y-57440000D01*
X84290000Y-57440000D02*
X84290000Y-58240000D01*
%TO.C,R17*%
X121430000Y-80980000D02*
X122430000Y-80980000D01*
X122430000Y-80980000D02*
X122430000Y-81480000D01*
X122430000Y-81480000D02*
X121430000Y-81480000D01*
X121430000Y-81480000D02*
X121430000Y-80980000D01*
%TO.C,C18*%
X116450000Y-60245000D02*
X113950000Y-60245000D01*
X113950000Y-60245000D02*
X113950000Y-63445000D01*
X113950000Y-63445000D02*
X116450000Y-63445000D01*
X116450000Y-63445000D02*
X116450000Y-60245000D01*
%TO.C,R38*%
X93460000Y-62405000D02*
X94460000Y-62405000D01*
X94460000Y-62405000D02*
X94460000Y-62905000D01*
X94460000Y-62905000D02*
X93460000Y-62905000D01*
X93460000Y-62905000D02*
X93460000Y-62405000D01*
%TO.C,D4*%
X122188000Y-87315000D02*
X128790000Y-87315000D01*
X128790000Y-87315000D02*
X128790000Y-91363000D01*
X128790000Y-91363000D02*
X122188000Y-91363000D01*
X122188000Y-91363000D02*
X122188000Y-87315000D01*
%TO.C,C2*%
X85466000Y-65124000D02*
X85467000Y-65124000D01*
X85467000Y-65124000D02*
X85467000Y-65124000D01*
X85467000Y-65124000D02*
X85468000Y-65124000D01*
X85468000Y-65124000D02*
X85468000Y-65124000D01*
X85468000Y-65124000D02*
X85468000Y-65124000D01*
X85468000Y-65124000D02*
X85469000Y-65124000D01*
X85469000Y-65124000D02*
X85469000Y-65124000D01*
X85469000Y-65124000D02*
X85470000Y-65124000D01*
X85470000Y-65124000D02*
X85472000Y-65124000D01*
X85472000Y-65124000D02*
X85472000Y-65124000D01*
X85472000Y-65124000D02*
X85472000Y-65124000D01*
X85472000Y-65124000D02*
X85472000Y-65124000D01*
X85950000Y-65124000D02*
X85472000Y-65124000D01*
X85950000Y-65124000D02*
X85950000Y-65124000D01*
X85950000Y-65124000D02*
X85950000Y-65124000D01*
X85950000Y-65124000D02*
X85950000Y-65124000D01*
X85950000Y-65124000D02*
X85950000Y-65124000D01*
X85950000Y-65124000D02*
X85950000Y-65124000D01*
X85950000Y-65124000D02*
X85951000Y-65124000D01*
X85951000Y-65124000D02*
X85951000Y-65124000D01*
X85951000Y-65124000D02*
X85951000Y-65124000D01*
X85951000Y-65124000D02*
X85952000Y-65124000D01*
X85952000Y-65124000D02*
X85952000Y-65124000D01*
X85952000Y-65124000D02*
X85953000Y-65124000D01*
X85953000Y-65124000D02*
X85953000Y-65123000D01*
X85465000Y-65123000D02*
X85465000Y-65123000D01*
X85465000Y-65123000D02*
X85465000Y-65123000D01*
X85465000Y-65123000D02*
X85466000Y-65123000D01*
X85466000Y-65123000D02*
X85466000Y-65124000D01*
X85953000Y-65123000D02*
X85954000Y-65123000D01*
X85954000Y-65123000D02*
X85954000Y-65123000D01*
X85954000Y-65123000D02*
X85954000Y-65123000D01*
X85954000Y-65123000D02*
X85955000Y-65122000D01*
X85463000Y-65122000D02*
X85464000Y-65122000D01*
X85464000Y-65122000D02*
X85465000Y-65123000D01*
X85464000Y-65122000D02*
X85464000Y-65122000D01*
X85955000Y-65122000D02*
X85955000Y-65122000D01*
X85955000Y-65122000D02*
X85956000Y-65122000D01*
X85956000Y-65122000D02*
X85956000Y-65121000D01*
X85463000Y-65121000D02*
X85463000Y-65122000D01*
X85463000Y-65121000D02*
X85463000Y-65121000D01*
X85956000Y-65121000D02*
X85956000Y-65121000D01*
X85956000Y-65121000D02*
X85957000Y-65120000D01*
X85462000Y-65120000D02*
X85463000Y-65121000D01*
X85462000Y-65120000D02*
X85462000Y-65120000D01*
X85462000Y-65120000D02*
X85462000Y-65120000D01*
X85957000Y-65120000D02*
X85957000Y-65120000D01*
X85957000Y-65120000D02*
X85957000Y-65120000D01*
X85957000Y-65120000D02*
X85957000Y-65119000D01*
X85461000Y-65119000D02*
X85462000Y-65119000D01*
X85462000Y-65119000D02*
X85462000Y-65120000D01*
X85957000Y-65119000D02*
X85958000Y-65119000D01*
X85958000Y-65119000D02*
X85958000Y-65118000D01*
X85461000Y-65118000D02*
X85461000Y-65119000D01*
X85461000Y-65118000D02*
X85461000Y-65118000D01*
X85958000Y-65118000D02*
X85958000Y-65118000D01*
X85958000Y-65118000D02*
X85958000Y-65117000D01*
X85461000Y-65117000D02*
X85461000Y-65118000D01*
X85461000Y-65117000D02*
X85461000Y-65117000D01*
X85461000Y-65117000D02*
X85461000Y-65117000D01*
X85958000Y-65117000D02*
X85958000Y-65117000D01*
X85958000Y-65117000D02*
X85958000Y-65117000D01*
X85958000Y-65117000D02*
X85958000Y-65116000D01*
X85461000Y-65116000D02*
X85461000Y-65117000D01*
X85461000Y-65116000D02*
X85461000Y-65116000D01*
X85958000Y-65116000D02*
X85958000Y-65116000D01*
X85958000Y-65116000D02*
X85958000Y-65115000D01*
X85461000Y-65114000D02*
X85461000Y-64924000D01*
X85461000Y-64924000D02*
X85472000Y-64924000D01*
X85472000Y-64924000D02*
X85950000Y-64924000D01*
X85472000Y-64924000D02*
X85472000Y-64327000D01*
X85950000Y-64924000D02*
X85958000Y-64924000D01*
X85950000Y-64924000D02*
X85950000Y-64327000D01*
X85958000Y-64924000D02*
X85958000Y-65114000D01*
X85461000Y-64327000D02*
X85472000Y-64327000D01*
X85472000Y-64327000D02*
X85950000Y-64327000D01*
X85950000Y-64327000D02*
X85958000Y-64327000D01*
X85958000Y-64327000D02*
X85958000Y-64137000D01*
X85461000Y-64137000D02*
X85461000Y-64327000D01*
X85958000Y-64135000D02*
X85958000Y-64134000D01*
X85461000Y-64134000D02*
X85461000Y-64135000D01*
X85461000Y-64134000D02*
X85461000Y-64134000D01*
X85461000Y-64134000D02*
X85461000Y-64134000D01*
X85958000Y-64134000D02*
X85958000Y-64134000D01*
X85958000Y-64134000D02*
X85958000Y-64134000D01*
X85958000Y-64134000D02*
X85958000Y-64133000D01*
X85461000Y-64133000D02*
X85461000Y-64134000D01*
X85461000Y-64133000D02*
X85461000Y-64133000D01*
X85958000Y-64133000D02*
X85958000Y-64133000D01*
X85958000Y-64133000D02*
X85958000Y-64132000D01*
X85461000Y-64132000D02*
X85461000Y-64133000D01*
X85462000Y-64132000D02*
X85461000Y-64132000D01*
X85957000Y-64132000D02*
X85957000Y-64131000D01*
X85958000Y-64132000D02*
X85957000Y-64132000D01*
X85462000Y-64131000D02*
X85462000Y-64132000D01*
X85462000Y-64131000D02*
X85462000Y-64131000D01*
X85462000Y-64131000D02*
X85462000Y-64131000D01*
X85957000Y-64131000D02*
X85957000Y-64131000D01*
X85957000Y-64131000D02*
X85957000Y-64131000D01*
X85957000Y-64131000D02*
X85956000Y-64130000D01*
X85463000Y-64130000D02*
X85462000Y-64131000D01*
X85463000Y-64130000D02*
X85463000Y-64130000D01*
X85956000Y-64130000D02*
X85956000Y-64130000D01*
X85956000Y-64130000D02*
X85956000Y-64129000D01*
X85463000Y-64129000D02*
X85463000Y-64130000D01*
X85464000Y-64129000D02*
X85463000Y-64129000D01*
X85464000Y-64129000D02*
X85464000Y-64129000D01*
X85955000Y-64129000D02*
X85955000Y-64129000D01*
X85955000Y-64129000D02*
X85954000Y-64128000D01*
X85956000Y-64129000D02*
X85955000Y-64129000D01*
X85465000Y-64128000D02*
X85464000Y-64129000D01*
X85465000Y-64128000D02*
X85465000Y-64128000D01*
X85465000Y-64128000D02*
X85465000Y-64128000D01*
X85466000Y-64128000D02*
X85465000Y-64128000D01*
X85953000Y-64128000D02*
X85953000Y-64127000D01*
X85954000Y-64128000D02*
X85953000Y-64128000D01*
X85954000Y-64128000D02*
X85954000Y-64128000D01*
X85954000Y-64128000D02*
X85954000Y-64128000D01*
X85466000Y-64127000D02*
X85466000Y-64128000D01*
X85467000Y-64127000D02*
X85466000Y-64127000D01*
X85467000Y-64127000D02*
X85467000Y-64127000D01*
X85468000Y-64127000D02*
X85467000Y-64127000D01*
X85468000Y-64127000D02*
X85468000Y-64127000D01*
X85468000Y-64127000D02*
X85468000Y-64127000D01*
X85469000Y-64127000D02*
X85468000Y-64127000D01*
X85469000Y-64127000D02*
X85469000Y-64127000D01*
X85470000Y-64127000D02*
X85469000Y-64127000D01*
X85950000Y-64127000D02*
X85472000Y-64127000D01*
X85950000Y-64127000D02*
X85950000Y-64127000D01*
X85951000Y-64127000D02*
X85950000Y-64127000D01*
X85951000Y-64127000D02*
X85951000Y-64127000D01*
X85951000Y-64127000D02*
X85951000Y-64127000D01*
X85952000Y-64127000D02*
X85951000Y-64127000D01*
X85952000Y-64127000D02*
X85952000Y-64127000D01*
X85953000Y-64127000D02*
X85952000Y-64127000D01*
%TO.C,D5*%
X112609000Y-50468000D02*
X116310000Y-50468000D01*
X116310000Y-50468000D02*
X116310000Y-52070000D01*
X116310000Y-52070000D02*
X112609000Y-52070000D01*
X112609000Y-52070000D02*
X112609000Y-50468000D01*
%TO.C,R12*%
X85515000Y-62320000D02*
X86015000Y-62320000D01*
X86015000Y-62320000D02*
X86015000Y-61320000D01*
X86015000Y-61320000D02*
X85515000Y-61320000D01*
X85515000Y-61320000D02*
X85515000Y-62320000D01*
%TO.C,C29*%
X121314000Y-70706000D02*
X121313000Y-70706000D01*
X121313000Y-70706000D02*
X121313000Y-70706000D01*
X121313000Y-70706000D02*
X121312000Y-70706000D01*
X121312000Y-70706000D02*
X121312000Y-70706000D01*
X121312000Y-70706000D02*
X121312000Y-70706000D01*
X121312000Y-70706000D02*
X121311000Y-70706000D01*
X121311000Y-70706000D02*
X121311000Y-70706000D01*
X121311000Y-70706000D02*
X121310000Y-70706000D01*
X121310000Y-70706000D02*
X121308000Y-70706000D01*
X121308000Y-70706000D02*
X121308000Y-70706000D01*
X121308000Y-70706000D02*
X121308000Y-70706000D01*
X121308000Y-70706000D02*
X121308000Y-70706000D01*
X120830000Y-70706000D02*
X121308000Y-70706000D01*
X120830000Y-70706000D02*
X120830000Y-70706000D01*
X120830000Y-70706000D02*
X120830000Y-70706000D01*
X120830000Y-70706000D02*
X120830000Y-70706000D01*
X120830000Y-70706000D02*
X120830000Y-70706000D01*
X120830000Y-70706000D02*
X120830000Y-70706000D01*
X120830000Y-70706000D02*
X120829000Y-70706000D01*
X120829000Y-70706000D02*
X120829000Y-70706000D01*
X120829000Y-70706000D02*
X120829000Y-70706000D01*
X120829000Y-70706000D02*
X120828000Y-70706000D01*
X120828000Y-70706000D02*
X120828000Y-70706000D01*
X120828000Y-70706000D02*
X120827000Y-70706000D01*
X120827000Y-70706000D02*
X120827000Y-70707000D01*
X121315000Y-70707000D02*
X121315000Y-70707000D01*
X121315000Y-70707000D02*
X121315000Y-70707000D01*
X121315000Y-70707000D02*
X121314000Y-70707000D01*
X121314000Y-70707000D02*
X121314000Y-70706000D01*
X120827000Y-70707000D02*
X120826000Y-70707000D01*
X120826000Y-70707000D02*
X120826000Y-70707000D01*
X120826000Y-70707000D02*
X120826000Y-70707000D01*
X120826000Y-70707000D02*
X120825000Y-70708000D01*
X121317000Y-70708000D02*
X121316000Y-70708000D01*
X121316000Y-70708000D02*
X121315000Y-70707000D01*
X121316000Y-70708000D02*
X121316000Y-70708000D01*
X120825000Y-70708000D02*
X120825000Y-70708000D01*
X120825000Y-70708000D02*
X120824000Y-70708000D01*
X120824000Y-70708000D02*
X120824000Y-70709000D01*
X121317000Y-70709000D02*
X121317000Y-70708000D01*
X121317000Y-70709000D02*
X121317000Y-70709000D01*
X120824000Y-70709000D02*
X120824000Y-70709000D01*
X120824000Y-70709000D02*
X120823000Y-70710000D01*
X121318000Y-70710000D02*
X121317000Y-70709000D01*
X121318000Y-70710000D02*
X121318000Y-70710000D01*
X121318000Y-70710000D02*
X121318000Y-70710000D01*
X120823000Y-70710000D02*
X120823000Y-70710000D01*
X120823000Y-70710000D02*
X120823000Y-70710000D01*
X120823000Y-70710000D02*
X120823000Y-70711000D01*
X121319000Y-70711000D02*
X121318000Y-70711000D01*
X121318000Y-70711000D02*
X121318000Y-70710000D01*
X120823000Y-70711000D02*
X120822000Y-70711000D01*
X120822000Y-70711000D02*
X120822000Y-70712000D01*
X121319000Y-70712000D02*
X121319000Y-70711000D01*
X121319000Y-70712000D02*
X121319000Y-70712000D01*
X120822000Y-70712000D02*
X120822000Y-70712000D01*
X120822000Y-70712000D02*
X120822000Y-70713000D01*
X121319000Y-70713000D02*
X121319000Y-70712000D01*
X121319000Y-70713000D02*
X121319000Y-70713000D01*
X121319000Y-70713000D02*
X121319000Y-70713000D01*
X120822000Y-70713000D02*
X120822000Y-70713000D01*
X120822000Y-70713000D02*
X120822000Y-70713000D01*
X120822000Y-70713000D02*
X120822000Y-70714000D01*
X121319000Y-70714000D02*
X121319000Y-70713000D01*
X121319000Y-70714000D02*
X121319000Y-70714000D01*
X120822000Y-70714000D02*
X120822000Y-70714000D01*
X120822000Y-70714000D02*
X120822000Y-70715000D01*
X121319000Y-70716000D02*
X121319000Y-70906000D01*
X121319000Y-70906000D02*
X121308000Y-70906000D01*
X121308000Y-70906000D02*
X120830000Y-70906000D01*
X121308000Y-70906000D02*
X121308000Y-71503000D01*
X120830000Y-70906000D02*
X120822000Y-70906000D01*
X120830000Y-70906000D02*
X120830000Y-71503000D01*
X120822000Y-70906000D02*
X120822000Y-70716000D01*
X121319000Y-71503000D02*
X121308000Y-71503000D01*
X121308000Y-71503000D02*
X120830000Y-71503000D01*
X120830000Y-71503000D02*
X120822000Y-71503000D01*
X120822000Y-71503000D02*
X120822000Y-71693000D01*
X121319000Y-71693000D02*
X121319000Y-71503000D01*
X120822000Y-71695000D02*
X120822000Y-71696000D01*
X121319000Y-71696000D02*
X121319000Y-71695000D01*
X121319000Y-71696000D02*
X121319000Y-71696000D01*
X121319000Y-71696000D02*
X121319000Y-71696000D01*
X120822000Y-71696000D02*
X120822000Y-71696000D01*
X120822000Y-71696000D02*
X120822000Y-71696000D01*
X120822000Y-71696000D02*
X120822000Y-71697000D01*
X121319000Y-71697000D02*
X121319000Y-71696000D01*
X121319000Y-71697000D02*
X121319000Y-71697000D01*
X120822000Y-71697000D02*
X120822000Y-71697000D01*
X120822000Y-71697000D02*
X120822000Y-71698000D01*
X121319000Y-71698000D02*
X121319000Y-71697000D01*
X121318000Y-71698000D02*
X121319000Y-71698000D01*
X120823000Y-71698000D02*
X120823000Y-71699000D01*
X120822000Y-71698000D02*
X120823000Y-71698000D01*
X121318000Y-71699000D02*
X121318000Y-71698000D01*
X121318000Y-71699000D02*
X121318000Y-71699000D01*
X121318000Y-71699000D02*
X121318000Y-71699000D01*
X120823000Y-71699000D02*
X120823000Y-71699000D01*
X120823000Y-71699000D02*
X120823000Y-71699000D01*
X120823000Y-71699000D02*
X120824000Y-71700000D01*
X121317000Y-71700000D02*
X121318000Y-71699000D01*
X121317000Y-71700000D02*
X121317000Y-71700000D01*
X120824000Y-71700000D02*
X120824000Y-71700000D01*
X120824000Y-71700000D02*
X120824000Y-71701000D01*
X121317000Y-71701000D02*
X121317000Y-71700000D01*
X121316000Y-71701000D02*
X121317000Y-71701000D01*
X121316000Y-71701000D02*
X121316000Y-71701000D01*
X120825000Y-71701000D02*
X120825000Y-71701000D01*
X120825000Y-71701000D02*
X120826000Y-71702000D01*
X120824000Y-71701000D02*
X120825000Y-71701000D01*
X121315000Y-71702000D02*
X121316000Y-71701000D01*
X121315000Y-71702000D02*
X121315000Y-71702000D01*
X121315000Y-71702000D02*
X121315000Y-71702000D01*
X121314000Y-71702000D02*
X121315000Y-71702000D01*
X120827000Y-71702000D02*
X120827000Y-71703000D01*
X120826000Y-71702000D02*
X120827000Y-71702000D01*
X120826000Y-71702000D02*
X120826000Y-71702000D01*
X120826000Y-71702000D02*
X120826000Y-71702000D01*
X121314000Y-71703000D02*
X121314000Y-71702000D01*
X121313000Y-71703000D02*
X121314000Y-71703000D01*
X121313000Y-71703000D02*
X121313000Y-71703000D01*
X121312000Y-71703000D02*
X121313000Y-71703000D01*
X121312000Y-71703000D02*
X121312000Y-71703000D01*
X121312000Y-71703000D02*
X121312000Y-71703000D01*
X121311000Y-71703000D02*
X121312000Y-71703000D01*
X121311000Y-71703000D02*
X121311000Y-71703000D01*
X121310000Y-71703000D02*
X121311000Y-71703000D01*
X120830000Y-71703000D02*
X121308000Y-71703000D01*
X120830000Y-71703000D02*
X120830000Y-71703000D01*
X120829000Y-71703000D02*
X120830000Y-71703000D01*
X120829000Y-71703000D02*
X120829000Y-71703000D01*
X120829000Y-71703000D02*
X120829000Y-71703000D01*
X120828000Y-71703000D02*
X120829000Y-71703000D01*
X120828000Y-71703000D02*
X120828000Y-71703000D01*
X120827000Y-71703000D02*
X120828000Y-71703000D01*
%TO.C,R37*%
X93460000Y-61333334D02*
X94460000Y-61333334D01*
X94460000Y-61333334D02*
X94460000Y-61833334D01*
X94460000Y-61833334D02*
X93460000Y-61833334D01*
X93460000Y-61833334D02*
X93460000Y-61333334D01*
%TO.C,Q1*%
X86800000Y-63738000D02*
X88402000Y-63738000D01*
X88402000Y-63738000D02*
X88402000Y-65340000D01*
X88402000Y-65340000D02*
X86800000Y-65340000D01*
X86800000Y-65340000D02*
X86800000Y-63738000D01*
%TO.C,R5*%
X89685000Y-62310000D02*
X90185000Y-62310000D01*
X90185000Y-62310000D02*
X90185000Y-61310000D01*
X90185000Y-61310000D02*
X89685000Y-61310000D01*
X89685000Y-61310000D02*
X89685000Y-62310000D01*
%TO.C,C9*%
X121211000Y-87449000D02*
X119609000Y-87449000D01*
X119609000Y-87449000D02*
X119609000Y-90650000D01*
X119609000Y-90650000D02*
X121211000Y-90650000D01*
X121211000Y-90650000D02*
X121211000Y-87449000D01*
%TO.C,R34*%
X99130000Y-62463333D02*
X100130000Y-62463333D01*
X100130000Y-62463333D02*
X100130000Y-62963333D01*
X100130000Y-62963333D02*
X99130000Y-62963333D01*
X99130000Y-62963333D02*
X99130000Y-62463333D01*
%TO.C,R13*%
X121430000Y-83080400D02*
X122430000Y-83080400D01*
X122430000Y-83080400D02*
X122430000Y-83580400D01*
X122430000Y-83580400D02*
X121430000Y-83580400D01*
X121430000Y-83580400D02*
X121430000Y-83080400D01*
%TO.C,R4*%
X88642500Y-62310000D02*
X89142500Y-62310000D01*
X89142500Y-62310000D02*
X89142500Y-61310000D01*
X89142500Y-61310000D02*
X88642500Y-61310000D01*
X88642500Y-61310000D02*
X88642500Y-62310000D01*
%TO.C,U4*%
X58318000Y-67369000D02*
X116738000Y-67369000D01*
X116738000Y-67369000D02*
X116738000Y-90229000D01*
X116738000Y-90229000D02*
X58318000Y-90229000D01*
X58318000Y-90229000D02*
X58318000Y-67369000D01*
%TO.C,C26*%
X95176000Y-51236000D02*
X95176000Y-51237000D01*
X95176000Y-51237000D02*
X95176000Y-51237000D01*
X95176000Y-51237000D02*
X95176000Y-51238000D01*
X95176000Y-51238000D02*
X95176000Y-51238000D01*
X95176000Y-51238000D02*
X95176000Y-51238000D01*
X95176000Y-51238000D02*
X95176000Y-51239000D01*
X95176000Y-51239000D02*
X95176000Y-51239000D01*
X95176000Y-51239000D02*
X95176000Y-51240000D01*
X95176000Y-51240000D02*
X95176000Y-51242000D01*
X95176000Y-51242000D02*
X95176000Y-51242000D01*
X95176000Y-51242000D02*
X95176000Y-51242000D01*
X95176000Y-51242000D02*
X95176000Y-51242000D01*
X95176000Y-51720000D02*
X95176000Y-51242000D01*
X95176000Y-51720000D02*
X95176000Y-51720000D01*
X95176000Y-51720000D02*
X95176000Y-51720000D01*
X95176000Y-51720000D02*
X95176000Y-51720000D01*
X95176000Y-51720000D02*
X95176000Y-51720000D01*
X95176000Y-51720000D02*
X95176000Y-51720000D01*
X95176000Y-51720000D02*
X95176000Y-51721000D01*
X95176000Y-51721000D02*
X95176000Y-51721000D01*
X95176000Y-51721000D02*
X95176000Y-51721000D01*
X95176000Y-51721000D02*
X95176000Y-51722000D01*
X95176000Y-51722000D02*
X95176000Y-51722000D01*
X95176000Y-51722000D02*
X95176000Y-51723000D01*
X95176000Y-51723000D02*
X95177000Y-51723000D01*
X95177000Y-51235000D02*
X95177000Y-51235000D01*
X95177000Y-51235000D02*
X95177000Y-51235000D01*
X95177000Y-51235000D02*
X95177000Y-51236000D01*
X95177000Y-51236000D02*
X95176000Y-51236000D01*
X95177000Y-51723000D02*
X95177000Y-51724000D01*
X95177000Y-51724000D02*
X95177000Y-51724000D01*
X95177000Y-51724000D02*
X95177000Y-51724000D01*
X95177000Y-51724000D02*
X95178000Y-51725000D01*
X95178000Y-51233000D02*
X95178000Y-51234000D01*
X95178000Y-51234000D02*
X95177000Y-51235000D01*
X95178000Y-51234000D02*
X95178000Y-51234000D01*
X95178000Y-51725000D02*
X95178000Y-51725000D01*
X95178000Y-51725000D02*
X95178000Y-51726000D01*
X95178000Y-51726000D02*
X95179000Y-51726000D01*
X95179000Y-51233000D02*
X95178000Y-51233000D01*
X95179000Y-51233000D02*
X95179000Y-51233000D01*
X95179000Y-51726000D02*
X95179000Y-51726000D01*
X95179000Y-51726000D02*
X95180000Y-51727000D01*
X95180000Y-51232000D02*
X95179000Y-51233000D01*
X95180000Y-51232000D02*
X95180000Y-51232000D01*
X95180000Y-51232000D02*
X95180000Y-51232000D01*
X95180000Y-51727000D02*
X95180000Y-51727000D01*
X95180000Y-51727000D02*
X95180000Y-51727000D01*
X95180000Y-51727000D02*
X95181000Y-51727000D01*
X95181000Y-51231000D02*
X95181000Y-51232000D01*
X95181000Y-51232000D02*
X95180000Y-51232000D01*
X95181000Y-51727000D02*
X95181000Y-51728000D01*
X95181000Y-51728000D02*
X95182000Y-51728000D01*
X95182000Y-51231000D02*
X95181000Y-51231000D01*
X95182000Y-51231000D02*
X95182000Y-51231000D01*
X95182000Y-51728000D02*
X95182000Y-51728000D01*
X95182000Y-51728000D02*
X95183000Y-51728000D01*
X95183000Y-51231000D02*
X95182000Y-51231000D01*
X95183000Y-51231000D02*
X95183000Y-51231000D01*
X95183000Y-51231000D02*
X95183000Y-51231000D01*
X95183000Y-51728000D02*
X95183000Y-51728000D01*
X95183000Y-51728000D02*
X95183000Y-51728000D01*
X95183000Y-51728000D02*
X95184000Y-51728000D01*
X95184000Y-51231000D02*
X95183000Y-51231000D01*
X95184000Y-51231000D02*
X95184000Y-51231000D01*
X95184000Y-51728000D02*
X95184000Y-51728000D01*
X95184000Y-51728000D02*
X95185000Y-51728000D01*
X95186000Y-51231000D02*
X95376000Y-51231000D01*
X95376000Y-51231000D02*
X95376000Y-51242000D01*
X95376000Y-51242000D02*
X95376000Y-51720000D01*
X95376000Y-51242000D02*
X95973000Y-51242000D01*
X95376000Y-51720000D02*
X95376000Y-51728000D01*
X95376000Y-51720000D02*
X95973000Y-51720000D01*
X95376000Y-51728000D02*
X95186000Y-51728000D01*
X95973000Y-51231000D02*
X95973000Y-51242000D01*
X95973000Y-51242000D02*
X95973000Y-51720000D01*
X95973000Y-51720000D02*
X95973000Y-51728000D01*
X95973000Y-51728000D02*
X96163000Y-51728000D01*
X96163000Y-51231000D02*
X95973000Y-51231000D01*
X96165000Y-51728000D02*
X96166000Y-51728000D01*
X96166000Y-51231000D02*
X96165000Y-51231000D01*
X96166000Y-51231000D02*
X96166000Y-51231000D01*
X96166000Y-51231000D02*
X96166000Y-51231000D01*
X96166000Y-51728000D02*
X96166000Y-51728000D01*
X96166000Y-51728000D02*
X96166000Y-51728000D01*
X96166000Y-51728000D02*
X96167000Y-51728000D01*
X96167000Y-51231000D02*
X96166000Y-51231000D01*
X96167000Y-51231000D02*
X96167000Y-51231000D01*
X96167000Y-51728000D02*
X96167000Y-51728000D01*
X96167000Y-51728000D02*
X96168000Y-51728000D01*
X96168000Y-51231000D02*
X96167000Y-51231000D01*
X96168000Y-51232000D02*
X96168000Y-51231000D01*
X96168000Y-51727000D02*
X96169000Y-51727000D01*
X96168000Y-51728000D02*
X96168000Y-51727000D01*
X96169000Y-51232000D02*
X96168000Y-51232000D01*
X96169000Y-51232000D02*
X96169000Y-51232000D01*
X96169000Y-51232000D02*
X96169000Y-51232000D01*
X96169000Y-51727000D02*
X96169000Y-51727000D01*
X96169000Y-51727000D02*
X96169000Y-51727000D01*
X96169000Y-51727000D02*
X96170000Y-51726000D01*
X96170000Y-51233000D02*
X96169000Y-51232000D01*
X96170000Y-51233000D02*
X96170000Y-51233000D01*
X96170000Y-51726000D02*
X96170000Y-51726000D01*
X96170000Y-51726000D02*
X96171000Y-51726000D01*
X96171000Y-51233000D02*
X96170000Y-51233000D01*
X96171000Y-51234000D02*
X96171000Y-51233000D01*
X96171000Y-51234000D02*
X96171000Y-51234000D01*
X96171000Y-51725000D02*
X96171000Y-51725000D01*
X96171000Y-51725000D02*
X96172000Y-51724000D01*
X96171000Y-51726000D02*
X96171000Y-51725000D01*
X96172000Y-51235000D02*
X96171000Y-51234000D01*
X96172000Y-51235000D02*
X96172000Y-51235000D01*
X96172000Y-51235000D02*
X96172000Y-51235000D01*
X96172000Y-51236000D02*
X96172000Y-51235000D01*
X96172000Y-51723000D02*
X96173000Y-51723000D01*
X96172000Y-51724000D02*
X96172000Y-51723000D01*
X96172000Y-51724000D02*
X96172000Y-51724000D01*
X96172000Y-51724000D02*
X96172000Y-51724000D01*
X96173000Y-51236000D02*
X96172000Y-51236000D01*
X96173000Y-51237000D02*
X96173000Y-51236000D01*
X96173000Y-51237000D02*
X96173000Y-51237000D01*
X96173000Y-51238000D02*
X96173000Y-51237000D01*
X96173000Y-51238000D02*
X96173000Y-51238000D01*
X96173000Y-51238000D02*
X96173000Y-51238000D01*
X96173000Y-51239000D02*
X96173000Y-51238000D01*
X96173000Y-51239000D02*
X96173000Y-51239000D01*
X96173000Y-51240000D02*
X96173000Y-51239000D01*
X96173000Y-51720000D02*
X96173000Y-51242000D01*
X96173000Y-51720000D02*
X96173000Y-51720000D01*
X96173000Y-51721000D02*
X96173000Y-51720000D01*
X96173000Y-51721000D02*
X96173000Y-51721000D01*
X96173000Y-51721000D02*
X96173000Y-51721000D01*
X96173000Y-51722000D02*
X96173000Y-51721000D01*
X96173000Y-51722000D02*
X96173000Y-51722000D01*
X96173000Y-51723000D02*
X96173000Y-51722000D01*
%TO.C,L2*%
X113740000Y-52840000D02*
X108240000Y-52840000D01*
X108240000Y-52840000D02*
X108240000Y-58140000D01*
X108240000Y-58140000D02*
X113740000Y-58140000D01*
X113740000Y-58140000D02*
X113740000Y-52840000D01*
%TO.C,U6*%
X97190000Y-49650000D02*
X104189000Y-49650000D01*
X104189000Y-49650000D02*
X104189000Y-56649000D01*
X104189000Y-56649000D02*
X97190000Y-56649000D01*
X97190000Y-56649000D02*
X97190000Y-49650000D01*
%TO.C,C30*%
X120264000Y-70706000D02*
X120263000Y-70706000D01*
X120263000Y-70706000D02*
X120263000Y-70706000D01*
X120263000Y-70706000D02*
X120262000Y-70706000D01*
X120262000Y-70706000D02*
X120262000Y-70706000D01*
X120262000Y-70706000D02*
X120262000Y-70706000D01*
X120262000Y-70706000D02*
X120261000Y-70706000D01*
X120261000Y-70706000D02*
X120261000Y-70706000D01*
X120261000Y-70706000D02*
X120260000Y-70706000D01*
X120260000Y-70706000D02*
X120258000Y-70706000D01*
X120258000Y-70706000D02*
X120258000Y-70706000D01*
X120258000Y-70706000D02*
X120258000Y-70706000D01*
X120258000Y-70706000D02*
X120258000Y-70706000D01*
X119780000Y-70706000D02*
X120258000Y-70706000D01*
X119780000Y-70706000D02*
X119780000Y-70706000D01*
X119780000Y-70706000D02*
X119780000Y-70706000D01*
X119780000Y-70706000D02*
X119780000Y-70706000D01*
X119780000Y-70706000D02*
X119780000Y-70706000D01*
X119780000Y-70706000D02*
X119780000Y-70706000D01*
X119780000Y-70706000D02*
X119779000Y-70706000D01*
X119779000Y-70706000D02*
X119779000Y-70706000D01*
X119779000Y-70706000D02*
X119779000Y-70706000D01*
X119779000Y-70706000D02*
X119778000Y-70706000D01*
X119778000Y-70706000D02*
X119778000Y-70706000D01*
X119778000Y-70706000D02*
X119777000Y-70706000D01*
X119777000Y-70706000D02*
X119777000Y-70707000D01*
X120265000Y-70707000D02*
X120265000Y-70707000D01*
X120265000Y-70707000D02*
X120265000Y-70707000D01*
X120265000Y-70707000D02*
X120264000Y-70707000D01*
X120264000Y-70707000D02*
X120264000Y-70706000D01*
X119777000Y-70707000D02*
X119776000Y-70707000D01*
X119776000Y-70707000D02*
X119776000Y-70707000D01*
X119776000Y-70707000D02*
X119776000Y-70707000D01*
X119776000Y-70707000D02*
X119775000Y-70708000D01*
X120267000Y-70708000D02*
X120266000Y-70708000D01*
X120266000Y-70708000D02*
X120265000Y-70707000D01*
X120266000Y-70708000D02*
X120266000Y-70708000D01*
X119775000Y-70708000D02*
X119775000Y-70708000D01*
X119775000Y-70708000D02*
X119774000Y-70708000D01*
X119774000Y-70708000D02*
X119774000Y-70709000D01*
X120267000Y-70709000D02*
X120267000Y-70708000D01*
X120267000Y-70709000D02*
X120267000Y-70709000D01*
X119774000Y-70709000D02*
X119774000Y-70709000D01*
X119774000Y-70709000D02*
X119773000Y-70710000D01*
X120268000Y-70710000D02*
X120267000Y-70709000D01*
X120268000Y-70710000D02*
X120268000Y-70710000D01*
X120268000Y-70710000D02*
X120268000Y-70710000D01*
X119773000Y-70710000D02*
X119773000Y-70710000D01*
X119773000Y-70710000D02*
X119773000Y-70710000D01*
X119773000Y-70710000D02*
X119773000Y-70711000D01*
X120269000Y-70711000D02*
X120268000Y-70711000D01*
X120268000Y-70711000D02*
X120268000Y-70710000D01*
X119773000Y-70711000D02*
X119772000Y-70711000D01*
X119772000Y-70711000D02*
X119772000Y-70712000D01*
X120269000Y-70712000D02*
X120269000Y-70711000D01*
X120269000Y-70712000D02*
X120269000Y-70712000D01*
X119772000Y-70712000D02*
X119772000Y-70712000D01*
X119772000Y-70712000D02*
X119772000Y-70713000D01*
X120269000Y-70713000D02*
X120269000Y-70712000D01*
X120269000Y-70713000D02*
X120269000Y-70713000D01*
X120269000Y-70713000D02*
X120269000Y-70713000D01*
X119772000Y-70713000D02*
X119772000Y-70713000D01*
X119772000Y-70713000D02*
X119772000Y-70713000D01*
X119772000Y-70713000D02*
X119772000Y-70714000D01*
X120269000Y-70714000D02*
X120269000Y-70713000D01*
X120269000Y-70714000D02*
X120269000Y-70714000D01*
X119772000Y-70714000D02*
X119772000Y-70714000D01*
X119772000Y-70714000D02*
X119772000Y-70715000D01*
X120269000Y-70716000D02*
X120269000Y-70906000D01*
X120269000Y-70906000D02*
X120258000Y-70906000D01*
X120258000Y-70906000D02*
X119780000Y-70906000D01*
X120258000Y-70906000D02*
X120258000Y-71503000D01*
X119780000Y-70906000D02*
X119772000Y-70906000D01*
X119780000Y-70906000D02*
X119780000Y-71503000D01*
X119772000Y-70906000D02*
X119772000Y-70716000D01*
X120269000Y-71503000D02*
X120258000Y-71503000D01*
X120258000Y-71503000D02*
X119780000Y-71503000D01*
X119780000Y-71503000D02*
X119772000Y-71503000D01*
X119772000Y-71503000D02*
X119772000Y-71693000D01*
X120269000Y-71693000D02*
X120269000Y-71503000D01*
X119772000Y-71695000D02*
X119772000Y-71696000D01*
X120269000Y-71696000D02*
X120269000Y-71695000D01*
X120269000Y-71696000D02*
X120269000Y-71696000D01*
X120269000Y-71696000D02*
X120269000Y-71696000D01*
X119772000Y-71696000D02*
X119772000Y-71696000D01*
X119772000Y-71696000D02*
X119772000Y-71696000D01*
X119772000Y-71696000D02*
X119772000Y-71697000D01*
X120269000Y-71697000D02*
X120269000Y-71696000D01*
X120269000Y-71697000D02*
X120269000Y-71697000D01*
X119772000Y-71697000D02*
X119772000Y-71697000D01*
X119772000Y-71697000D02*
X119772000Y-71698000D01*
X120269000Y-71698000D02*
X120269000Y-71697000D01*
X120268000Y-71698000D02*
X120269000Y-71698000D01*
X119773000Y-71698000D02*
X119773000Y-71699000D01*
X119772000Y-71698000D02*
X119773000Y-71698000D01*
X120268000Y-71699000D02*
X120268000Y-71698000D01*
X120268000Y-71699000D02*
X120268000Y-71699000D01*
X120268000Y-71699000D02*
X120268000Y-71699000D01*
X119773000Y-71699000D02*
X119773000Y-71699000D01*
X119773000Y-71699000D02*
X119773000Y-71699000D01*
X119773000Y-71699000D02*
X119774000Y-71700000D01*
X120267000Y-71700000D02*
X120268000Y-71699000D01*
X120267000Y-71700000D02*
X120267000Y-71700000D01*
X119774000Y-71700000D02*
X119774000Y-71700000D01*
X119774000Y-71700000D02*
X119774000Y-71701000D01*
X120267000Y-71701000D02*
X120267000Y-71700000D01*
X120266000Y-71701000D02*
X120267000Y-71701000D01*
X120266000Y-71701000D02*
X120266000Y-71701000D01*
X119775000Y-71701000D02*
X119775000Y-71701000D01*
X119775000Y-71701000D02*
X119776000Y-71702000D01*
X119774000Y-71701000D02*
X119775000Y-71701000D01*
X120265000Y-71702000D02*
X120266000Y-71701000D01*
X120265000Y-71702000D02*
X120265000Y-71702000D01*
X120265000Y-71702000D02*
X120265000Y-71702000D01*
X120264000Y-71702000D02*
X120265000Y-71702000D01*
X119777000Y-71702000D02*
X119777000Y-71703000D01*
X119776000Y-71702000D02*
X119777000Y-71702000D01*
X119776000Y-71702000D02*
X119776000Y-71702000D01*
X119776000Y-71702000D02*
X119776000Y-71702000D01*
X120264000Y-71703000D02*
X120264000Y-71702000D01*
X120263000Y-71703000D02*
X120264000Y-71703000D01*
X120263000Y-71703000D02*
X120263000Y-71703000D01*
X120262000Y-71703000D02*
X120263000Y-71703000D01*
X120262000Y-71703000D02*
X120262000Y-71703000D01*
X120262000Y-71703000D02*
X120262000Y-71703000D01*
X120261000Y-71703000D02*
X120262000Y-71703000D01*
X120261000Y-71703000D02*
X120261000Y-71703000D01*
X120260000Y-71703000D02*
X120261000Y-71703000D01*
X119780000Y-71703000D02*
X120258000Y-71703000D01*
X119780000Y-71703000D02*
X119780000Y-71703000D01*
X119779000Y-71703000D02*
X119780000Y-71703000D01*
X119779000Y-71703000D02*
X119779000Y-71703000D01*
X119779000Y-71703000D02*
X119779000Y-71703000D01*
X119778000Y-71703000D02*
X119779000Y-71703000D01*
X119778000Y-71703000D02*
X119778000Y-71703000D01*
X119777000Y-71703000D02*
X119778000Y-71703000D01*
%TO.C,R28*%
X105370000Y-50500000D02*
X106370000Y-50500000D01*
X106370000Y-50500000D02*
X106370000Y-51000000D01*
X106370000Y-51000000D02*
X105370000Y-51000000D01*
X105370000Y-51000000D02*
X105370000Y-50500000D01*
%TO.C,R7*%
X121110000Y-61510000D02*
X121910000Y-61510000D01*
X121910000Y-61510000D02*
X121910000Y-59910000D01*
X121910000Y-59910000D02*
X121110000Y-59910000D01*
X121110000Y-59910000D02*
X121110000Y-61510000D01*
%TO.C,R30*%
X105450000Y-53135000D02*
X106450000Y-53135000D01*
X106450000Y-53135000D02*
X106450000Y-53635000D01*
X106450000Y-53635000D02*
X105450000Y-53635000D01*
X105450000Y-53635000D02*
X105450000Y-53135000D01*
%TO.C,C19*%
X120150000Y-60275000D02*
X117650000Y-60275000D01*
X117650000Y-60275000D02*
X117650000Y-63475000D01*
X117650000Y-63475000D02*
X120150000Y-63475000D01*
X120150000Y-63475000D02*
X120150000Y-60275000D01*
%TO.C,R18*%
X121430000Y-82030200D02*
X122430000Y-82030200D01*
X122430000Y-82030200D02*
X122430000Y-82530200D01*
X122430000Y-82530200D02*
X121430000Y-82530200D01*
X121430000Y-82530200D02*
X121430000Y-82030200D01*
%TO.C,R26*%
X122680000Y-57970000D02*
X122180000Y-57970000D01*
X122180000Y-57970000D02*
X122180000Y-58970000D01*
X122180000Y-58970000D02*
X122680000Y-58970000D01*
X122680000Y-58970000D02*
X122680000Y-57970000D01*
%TO.C,R39*%
X93460000Y-64548334D02*
X94460000Y-64548334D01*
X94460000Y-64548334D02*
X94460000Y-65048334D01*
X94460000Y-65048334D02*
X93460000Y-65048334D01*
X93460000Y-65048334D02*
X93460000Y-64548334D01*
%TO.C,U2*%
X128441000Y-80140000D02*
X123539000Y-80140000D01*
X123539000Y-80140000D02*
X123539000Y-86139000D01*
X123539000Y-86139000D02*
X128441000Y-86139000D01*
X128441000Y-86139000D02*
X128441000Y-80140000D01*
%TO.C,R40*%
X93460000Y-63476666D02*
X94460000Y-63476666D01*
X94460000Y-63476666D02*
X94460000Y-63976666D01*
X94460000Y-63976666D02*
X93460000Y-63976666D01*
X93460000Y-63976666D02*
X93460000Y-63476666D01*
%TO.C,C23*%
X122192000Y-53279000D02*
X120590000Y-53279000D01*
X120590000Y-53279000D02*
X120590000Y-56480000D01*
X120590000Y-56480000D02*
X122192000Y-56480000D01*
X122192000Y-56480000D02*
X122192000Y-53279000D01*
%TO.C,R1*%
X87600000Y-62310000D02*
X88100000Y-62310000D01*
X88100000Y-62310000D02*
X88100000Y-61310000D01*
X88100000Y-61310000D02*
X87600000Y-61310000D01*
X87600000Y-61310000D02*
X87600000Y-62310000D01*
%TO.C,R41*%
X99190000Y-60390000D02*
X94190000Y-60390000D01*
X94190000Y-60390000D02*
X94190000Y-57890000D01*
X94190000Y-57890000D02*
X99190000Y-57890000D01*
X99190000Y-57890000D02*
X99190000Y-60390000D01*
%TO.C,C21*%
X121654000Y-57956000D02*
X121653000Y-57956000D01*
X121653000Y-57956000D02*
X121653000Y-57956000D01*
X121653000Y-57956000D02*
X121652000Y-57956000D01*
X121652000Y-57956000D02*
X121652000Y-57956000D01*
X121652000Y-57956000D02*
X121652000Y-57956000D01*
X121652000Y-57956000D02*
X121651000Y-57956000D01*
X121651000Y-57956000D02*
X121651000Y-57956000D01*
X121651000Y-57956000D02*
X121650000Y-57956000D01*
X121650000Y-57956000D02*
X121648000Y-57956000D01*
X121648000Y-57956000D02*
X121648000Y-57956000D01*
X121648000Y-57956000D02*
X121648000Y-57956000D01*
X121648000Y-57956000D02*
X121648000Y-57956000D01*
X121170000Y-57956000D02*
X121648000Y-57956000D01*
X121170000Y-57956000D02*
X121170000Y-57956000D01*
X121170000Y-57956000D02*
X121170000Y-57956000D01*
X121170000Y-57956000D02*
X121170000Y-57956000D01*
X121170000Y-57956000D02*
X121170000Y-57956000D01*
X121170000Y-57956000D02*
X121170000Y-57956000D01*
X121170000Y-57956000D02*
X121169000Y-57956000D01*
X121169000Y-57956000D02*
X121169000Y-57956000D01*
X121169000Y-57956000D02*
X121169000Y-57956000D01*
X121169000Y-57956000D02*
X121168000Y-57956000D01*
X121168000Y-57956000D02*
X121168000Y-57956000D01*
X121168000Y-57956000D02*
X121167000Y-57956000D01*
X121167000Y-57956000D02*
X121167000Y-57957000D01*
X121655000Y-57957000D02*
X121655000Y-57957000D01*
X121655000Y-57957000D02*
X121655000Y-57957000D01*
X121655000Y-57957000D02*
X121654000Y-57957000D01*
X121654000Y-57957000D02*
X121654000Y-57956000D01*
X121167000Y-57957000D02*
X121166000Y-57957000D01*
X121166000Y-57957000D02*
X121166000Y-57957000D01*
X121166000Y-57957000D02*
X121166000Y-57957000D01*
X121166000Y-57957000D02*
X121165000Y-57958000D01*
X121657000Y-57958000D02*
X121656000Y-57958000D01*
X121656000Y-57958000D02*
X121655000Y-57957000D01*
X121656000Y-57958000D02*
X121656000Y-57958000D01*
X121165000Y-57958000D02*
X121165000Y-57958000D01*
X121165000Y-57958000D02*
X121164000Y-57958000D01*
X121164000Y-57958000D02*
X121164000Y-57959000D01*
X121657000Y-57959000D02*
X121657000Y-57958000D01*
X121657000Y-57959000D02*
X121657000Y-57959000D01*
X121164000Y-57959000D02*
X121164000Y-57959000D01*
X121164000Y-57959000D02*
X121163000Y-57960000D01*
X121658000Y-57960000D02*
X121657000Y-57959000D01*
X121658000Y-57960000D02*
X121658000Y-57960000D01*
X121658000Y-57960000D02*
X121658000Y-57960000D01*
X121163000Y-57960000D02*
X121163000Y-57960000D01*
X121163000Y-57960000D02*
X121163000Y-57960000D01*
X121163000Y-57960000D02*
X121163000Y-57961000D01*
X121659000Y-57961000D02*
X121658000Y-57961000D01*
X121658000Y-57961000D02*
X121658000Y-57960000D01*
X121163000Y-57961000D02*
X121162000Y-57961000D01*
X121162000Y-57961000D02*
X121162000Y-57962000D01*
X121659000Y-57962000D02*
X121659000Y-57961000D01*
X121659000Y-57962000D02*
X121659000Y-57962000D01*
X121162000Y-57962000D02*
X121162000Y-57962000D01*
X121162000Y-57962000D02*
X121162000Y-57963000D01*
X121659000Y-57963000D02*
X121659000Y-57962000D01*
X121659000Y-57963000D02*
X121659000Y-57963000D01*
X121659000Y-57963000D02*
X121659000Y-57963000D01*
X121162000Y-57963000D02*
X121162000Y-57963000D01*
X121162000Y-57963000D02*
X121162000Y-57963000D01*
X121162000Y-57963000D02*
X121162000Y-57964000D01*
X121659000Y-57964000D02*
X121659000Y-57963000D01*
X121659000Y-57964000D02*
X121659000Y-57964000D01*
X121162000Y-57964000D02*
X121162000Y-57964000D01*
X121162000Y-57964000D02*
X121162000Y-57965000D01*
X121659000Y-57966000D02*
X121659000Y-58156000D01*
X121659000Y-58156000D02*
X121648000Y-58156000D01*
X121648000Y-58156000D02*
X121170000Y-58156000D01*
X121648000Y-58156000D02*
X121648000Y-58753000D01*
X121170000Y-58156000D02*
X121162000Y-58156000D01*
X121170000Y-58156000D02*
X121170000Y-58753000D01*
X121162000Y-58156000D02*
X121162000Y-57966000D01*
X121659000Y-58753000D02*
X121648000Y-58753000D01*
X121648000Y-58753000D02*
X121170000Y-58753000D01*
X121170000Y-58753000D02*
X121162000Y-58753000D01*
X121162000Y-58753000D02*
X121162000Y-58943000D01*
X121659000Y-58943000D02*
X121659000Y-58753000D01*
X121162000Y-58945000D02*
X121162000Y-58946000D01*
X121659000Y-58946000D02*
X121659000Y-58945000D01*
X121659000Y-58946000D02*
X121659000Y-58946000D01*
X121659000Y-58946000D02*
X121659000Y-58946000D01*
X121162000Y-58946000D02*
X121162000Y-58946000D01*
X121162000Y-58946000D02*
X121162000Y-58946000D01*
X121162000Y-58946000D02*
X121162000Y-58947000D01*
X121659000Y-58947000D02*
X121659000Y-58946000D01*
X121659000Y-58947000D02*
X121659000Y-58947000D01*
X121162000Y-58947000D02*
X121162000Y-58947000D01*
X121162000Y-58947000D02*
X121162000Y-58948000D01*
X121659000Y-58948000D02*
X121659000Y-58947000D01*
X121658000Y-58948000D02*
X121659000Y-58948000D01*
X121163000Y-58948000D02*
X121163000Y-58949000D01*
X121162000Y-58948000D02*
X121163000Y-58948000D01*
X121658000Y-58949000D02*
X121658000Y-58948000D01*
X121658000Y-58949000D02*
X121658000Y-58949000D01*
X121658000Y-58949000D02*
X121658000Y-58949000D01*
X121163000Y-58949000D02*
X121163000Y-58949000D01*
X121163000Y-58949000D02*
X121163000Y-58949000D01*
X121163000Y-58949000D02*
X121164000Y-58950000D01*
X121657000Y-58950000D02*
X121658000Y-58949000D01*
X121657000Y-58950000D02*
X121657000Y-58950000D01*
X121164000Y-58950000D02*
X121164000Y-58950000D01*
X121164000Y-58950000D02*
X121164000Y-58951000D01*
X121657000Y-58951000D02*
X121657000Y-58950000D01*
X121656000Y-58951000D02*
X121657000Y-58951000D01*
X121656000Y-58951000D02*
X121656000Y-58951000D01*
X121165000Y-58951000D02*
X121165000Y-58951000D01*
X121165000Y-58951000D02*
X121166000Y-58952000D01*
X121164000Y-58951000D02*
X121165000Y-58951000D01*
X121655000Y-58952000D02*
X121656000Y-58951000D01*
X121655000Y-58952000D02*
X121655000Y-58952000D01*
X121655000Y-58952000D02*
X121655000Y-58952000D01*
X121654000Y-58952000D02*
X121655000Y-58952000D01*
X121167000Y-58952000D02*
X121167000Y-58953000D01*
X121166000Y-58952000D02*
X121167000Y-58952000D01*
X121166000Y-58952000D02*
X121166000Y-58952000D01*
X121166000Y-58952000D02*
X121166000Y-58952000D01*
X121654000Y-58953000D02*
X121654000Y-58952000D01*
X121653000Y-58953000D02*
X121654000Y-58953000D01*
X121653000Y-58953000D02*
X121653000Y-58953000D01*
X121652000Y-58953000D02*
X121653000Y-58953000D01*
X121652000Y-58953000D02*
X121652000Y-58953000D01*
X121652000Y-58953000D02*
X121652000Y-58953000D01*
X121651000Y-58953000D02*
X121652000Y-58953000D01*
X121651000Y-58953000D02*
X121651000Y-58953000D01*
X121650000Y-58953000D02*
X121651000Y-58953000D01*
X121170000Y-58953000D02*
X121648000Y-58953000D01*
X121170000Y-58953000D02*
X121170000Y-58953000D01*
X121169000Y-58953000D02*
X121170000Y-58953000D01*
X121169000Y-58953000D02*
X121169000Y-58953000D01*
X121169000Y-58953000D02*
X121169000Y-58953000D01*
X121168000Y-58953000D02*
X121169000Y-58953000D01*
X121168000Y-58953000D02*
X121168000Y-58953000D01*
X121167000Y-58953000D02*
X121168000Y-58953000D01*
%TO.C,R33*%
X100130000Y-61890000D02*
X99130000Y-61890000D01*
X99130000Y-61890000D02*
X99130000Y-61390000D01*
X99130000Y-61390000D02*
X100130000Y-61390000D01*
X100130000Y-61390000D02*
X100130000Y-61890000D01*
%TO.C,R22*%
X123760000Y-63600000D02*
X123260000Y-63600000D01*
X123260000Y-63600000D02*
X123260000Y-64600000D01*
X123260000Y-64600000D02*
X123760000Y-64600000D01*
X123760000Y-64600000D02*
X123760000Y-63600000D01*
%TO.C,C14*%
X128746000Y-64296000D02*
X128746000Y-64297000D01*
X128746000Y-64297000D02*
X128746000Y-64297000D01*
X128746000Y-64297000D02*
X128746000Y-64298000D01*
X128746000Y-64298000D02*
X128746000Y-64298000D01*
X128746000Y-64298000D02*
X128746000Y-64298000D01*
X128746000Y-64298000D02*
X128746000Y-64299000D01*
X128746000Y-64299000D02*
X128746000Y-64299000D01*
X128746000Y-64299000D02*
X128746000Y-64300000D01*
X128746000Y-64300000D02*
X128746000Y-64302000D01*
X128746000Y-64302000D02*
X128746000Y-64302000D01*
X128746000Y-64302000D02*
X128746000Y-64302000D01*
X128746000Y-64302000D02*
X128746000Y-64302000D01*
X128746000Y-64780000D02*
X128746000Y-64302000D01*
X128746000Y-64780000D02*
X128746000Y-64780000D01*
X128746000Y-64780000D02*
X128746000Y-64780000D01*
X128746000Y-64780000D02*
X128746000Y-64780000D01*
X128746000Y-64780000D02*
X128746000Y-64780000D01*
X128746000Y-64780000D02*
X128746000Y-64780000D01*
X128746000Y-64780000D02*
X128746000Y-64781000D01*
X128746000Y-64781000D02*
X128746000Y-64781000D01*
X128746000Y-64781000D02*
X128746000Y-64781000D01*
X128746000Y-64781000D02*
X128746000Y-64782000D01*
X128746000Y-64782000D02*
X128746000Y-64782000D01*
X128746000Y-64782000D02*
X128746000Y-64783000D01*
X128746000Y-64783000D02*
X128747000Y-64783000D01*
X128747000Y-64295000D02*
X128747000Y-64295000D01*
X128747000Y-64295000D02*
X128747000Y-64295000D01*
X128747000Y-64295000D02*
X128747000Y-64296000D01*
X128747000Y-64296000D02*
X128746000Y-64296000D01*
X128747000Y-64783000D02*
X128747000Y-64784000D01*
X128747000Y-64784000D02*
X128747000Y-64784000D01*
X128747000Y-64784000D02*
X128747000Y-64784000D01*
X128747000Y-64784000D02*
X128748000Y-64785000D01*
X128748000Y-64293000D02*
X128748000Y-64294000D01*
X128748000Y-64294000D02*
X128747000Y-64295000D01*
X128748000Y-64294000D02*
X128748000Y-64294000D01*
X128748000Y-64785000D02*
X128748000Y-64785000D01*
X128748000Y-64785000D02*
X128748000Y-64786000D01*
X128748000Y-64786000D02*
X128749000Y-64786000D01*
X128749000Y-64293000D02*
X128748000Y-64293000D01*
X128749000Y-64293000D02*
X128749000Y-64293000D01*
X128749000Y-64786000D02*
X128749000Y-64786000D01*
X128749000Y-64786000D02*
X128750000Y-64787000D01*
X128750000Y-64292000D02*
X128749000Y-64293000D01*
X128750000Y-64292000D02*
X128750000Y-64292000D01*
X128750000Y-64292000D02*
X128750000Y-64292000D01*
X128750000Y-64787000D02*
X128750000Y-64787000D01*
X128750000Y-64787000D02*
X128750000Y-64787000D01*
X128750000Y-64787000D02*
X128751000Y-64787000D01*
X128751000Y-64291000D02*
X128751000Y-64292000D01*
X128751000Y-64292000D02*
X128750000Y-64292000D01*
X128751000Y-64787000D02*
X128751000Y-64788000D01*
X128751000Y-64788000D02*
X128752000Y-64788000D01*
X128752000Y-64291000D02*
X128751000Y-64291000D01*
X128752000Y-64291000D02*
X128752000Y-64291000D01*
X128752000Y-64788000D02*
X128752000Y-64788000D01*
X128752000Y-64788000D02*
X128753000Y-64788000D01*
X128753000Y-64291000D02*
X128752000Y-64291000D01*
X128753000Y-64291000D02*
X128753000Y-64291000D01*
X128753000Y-64291000D02*
X128753000Y-64291000D01*
X128753000Y-64788000D02*
X128753000Y-64788000D01*
X128753000Y-64788000D02*
X128753000Y-64788000D01*
X128753000Y-64788000D02*
X128754000Y-64788000D01*
X128754000Y-64291000D02*
X128753000Y-64291000D01*
X128754000Y-64291000D02*
X128754000Y-64291000D01*
X128754000Y-64788000D02*
X128754000Y-64788000D01*
X128754000Y-64788000D02*
X128755000Y-64788000D01*
X128756000Y-64291000D02*
X128946000Y-64291000D01*
X128946000Y-64291000D02*
X128946000Y-64302000D01*
X128946000Y-64302000D02*
X128946000Y-64780000D01*
X128946000Y-64302000D02*
X129543000Y-64302000D01*
X128946000Y-64780000D02*
X128946000Y-64788000D01*
X128946000Y-64780000D02*
X129543000Y-64780000D01*
X128946000Y-64788000D02*
X128756000Y-64788000D01*
X129543000Y-64291000D02*
X129543000Y-64302000D01*
X129543000Y-64302000D02*
X129543000Y-64780000D01*
X129543000Y-64780000D02*
X129543000Y-64788000D01*
X129543000Y-64788000D02*
X129733000Y-64788000D01*
X129733000Y-64291000D02*
X129543000Y-64291000D01*
X129735000Y-64788000D02*
X129736000Y-64788000D01*
X129736000Y-64291000D02*
X129735000Y-64291000D01*
X129736000Y-64291000D02*
X129736000Y-64291000D01*
X129736000Y-64291000D02*
X129736000Y-64291000D01*
X129736000Y-64788000D02*
X129736000Y-64788000D01*
X129736000Y-64788000D02*
X129736000Y-64788000D01*
X129736000Y-64788000D02*
X129737000Y-64788000D01*
X129737000Y-64291000D02*
X129736000Y-64291000D01*
X129737000Y-64291000D02*
X129737000Y-64291000D01*
X129737000Y-64788000D02*
X129737000Y-64788000D01*
X129737000Y-64788000D02*
X129738000Y-64788000D01*
X129738000Y-64291000D02*
X129737000Y-64291000D01*
X129738000Y-64292000D02*
X129738000Y-64291000D01*
X129738000Y-64787000D02*
X129739000Y-64787000D01*
X129738000Y-64788000D02*
X129738000Y-64787000D01*
X129739000Y-64292000D02*
X129738000Y-64292000D01*
X129739000Y-64292000D02*
X129739000Y-64292000D01*
X129739000Y-64292000D02*
X129739000Y-64292000D01*
X129739000Y-64787000D02*
X129739000Y-64787000D01*
X129739000Y-64787000D02*
X129739000Y-64787000D01*
X129739000Y-64787000D02*
X129740000Y-64786000D01*
X129740000Y-64293000D02*
X129739000Y-64292000D01*
X129740000Y-64293000D02*
X129740000Y-64293000D01*
X129740000Y-64786000D02*
X129740000Y-64786000D01*
X129740000Y-64786000D02*
X129741000Y-64786000D01*
X129741000Y-64293000D02*
X129740000Y-64293000D01*
X129741000Y-64294000D02*
X129741000Y-64293000D01*
X129741000Y-64294000D02*
X129741000Y-64294000D01*
X129741000Y-64785000D02*
X129741000Y-64785000D01*
X129741000Y-64785000D02*
X129742000Y-64784000D01*
X129741000Y-64786000D02*
X129741000Y-64785000D01*
X129742000Y-64295000D02*
X129741000Y-64294000D01*
X129742000Y-64295000D02*
X129742000Y-64295000D01*
X129742000Y-64295000D02*
X129742000Y-64295000D01*
X129742000Y-64296000D02*
X129742000Y-64295000D01*
X129742000Y-64783000D02*
X129743000Y-64783000D01*
X129742000Y-64784000D02*
X129742000Y-64783000D01*
X129742000Y-64784000D02*
X129742000Y-64784000D01*
X129742000Y-64784000D02*
X129742000Y-64784000D01*
X129743000Y-64296000D02*
X129742000Y-64296000D01*
X129743000Y-64297000D02*
X129743000Y-64296000D01*
X129743000Y-64297000D02*
X129743000Y-64297000D01*
X129743000Y-64298000D02*
X129743000Y-64297000D01*
X129743000Y-64298000D02*
X129743000Y-64298000D01*
X129743000Y-64298000D02*
X129743000Y-64298000D01*
X129743000Y-64299000D02*
X129743000Y-64298000D01*
X129743000Y-64299000D02*
X129743000Y-64299000D01*
X129743000Y-64300000D02*
X129743000Y-64299000D01*
X129743000Y-64780000D02*
X129743000Y-64302000D01*
X129743000Y-64780000D02*
X129743000Y-64780000D01*
X129743000Y-64781000D02*
X129743000Y-64780000D01*
X129743000Y-64781000D02*
X129743000Y-64781000D01*
X129743000Y-64781000D02*
X129743000Y-64781000D01*
X129743000Y-64782000D02*
X129743000Y-64781000D01*
X129743000Y-64782000D02*
X129743000Y-64782000D01*
X129743000Y-64783000D02*
X129743000Y-64782000D01*
%TO.C,C11*%
X132754000Y-71776000D02*
X132753000Y-71776000D01*
X132753000Y-71776000D02*
X132753000Y-71776000D01*
X132753000Y-71776000D02*
X132752000Y-71776000D01*
X132752000Y-71776000D02*
X132752000Y-71776000D01*
X132752000Y-71776000D02*
X132752000Y-71776000D01*
X132752000Y-71776000D02*
X132751000Y-71776000D01*
X132751000Y-71776000D02*
X132751000Y-71776000D01*
X132751000Y-71776000D02*
X132750000Y-71776000D01*
X132750000Y-71776000D02*
X132748000Y-71776000D01*
X132748000Y-71776000D02*
X132748000Y-71776000D01*
X132748000Y-71776000D02*
X132748000Y-71776000D01*
X132748000Y-71776000D02*
X132748000Y-71776000D01*
X132270000Y-71776000D02*
X132748000Y-71776000D01*
X132270000Y-71776000D02*
X132270000Y-71776000D01*
X132270000Y-71776000D02*
X132270000Y-71776000D01*
X132270000Y-71776000D02*
X132270000Y-71776000D01*
X132270000Y-71776000D02*
X132270000Y-71776000D01*
X132270000Y-71776000D02*
X132270000Y-71776000D01*
X132270000Y-71776000D02*
X132269000Y-71776000D01*
X132269000Y-71776000D02*
X132269000Y-71776000D01*
X132269000Y-71776000D02*
X132269000Y-71776000D01*
X132269000Y-71776000D02*
X132268000Y-71776000D01*
X132268000Y-71776000D02*
X132268000Y-71776000D01*
X132268000Y-71776000D02*
X132267000Y-71776000D01*
X132267000Y-71776000D02*
X132267000Y-71777000D01*
X132755000Y-71777000D02*
X132755000Y-71777000D01*
X132755000Y-71777000D02*
X132755000Y-71777000D01*
X132755000Y-71777000D02*
X132754000Y-71777000D01*
X132754000Y-71777000D02*
X132754000Y-71776000D01*
X132267000Y-71777000D02*
X132266000Y-71777000D01*
X132266000Y-71777000D02*
X132266000Y-71777000D01*
X132266000Y-71777000D02*
X132266000Y-71777000D01*
X132266000Y-71777000D02*
X132265000Y-71778000D01*
X132757000Y-71778000D02*
X132756000Y-71778000D01*
X132756000Y-71778000D02*
X132755000Y-71777000D01*
X132756000Y-71778000D02*
X132756000Y-71778000D01*
X132265000Y-71778000D02*
X132265000Y-71778000D01*
X132265000Y-71778000D02*
X132264000Y-71778000D01*
X132264000Y-71778000D02*
X132264000Y-71779000D01*
X132757000Y-71779000D02*
X132757000Y-71778000D01*
X132757000Y-71779000D02*
X132757000Y-71779000D01*
X132264000Y-71779000D02*
X132264000Y-71779000D01*
X132264000Y-71779000D02*
X132263000Y-71780000D01*
X132758000Y-71780000D02*
X132757000Y-71779000D01*
X132758000Y-71780000D02*
X132758000Y-71780000D01*
X132758000Y-71780000D02*
X132758000Y-71780000D01*
X132263000Y-71780000D02*
X132263000Y-71780000D01*
X132263000Y-71780000D02*
X132263000Y-71780000D01*
X132263000Y-71780000D02*
X132263000Y-71781000D01*
X132759000Y-71781000D02*
X132758000Y-71781000D01*
X132758000Y-71781000D02*
X132758000Y-71780000D01*
X132263000Y-71781000D02*
X132262000Y-71781000D01*
X132262000Y-71781000D02*
X132262000Y-71782000D01*
X132759000Y-71782000D02*
X132759000Y-71781000D01*
X132759000Y-71782000D02*
X132759000Y-71782000D01*
X132262000Y-71782000D02*
X132262000Y-71782000D01*
X132262000Y-71782000D02*
X132262000Y-71783000D01*
X132759000Y-71783000D02*
X132759000Y-71782000D01*
X132759000Y-71783000D02*
X132759000Y-71783000D01*
X132759000Y-71783000D02*
X132759000Y-71783000D01*
X132262000Y-71783000D02*
X132262000Y-71783000D01*
X132262000Y-71783000D02*
X132262000Y-71783000D01*
X132262000Y-71783000D02*
X132262000Y-71784000D01*
X132759000Y-71784000D02*
X132759000Y-71783000D01*
X132759000Y-71784000D02*
X132759000Y-71784000D01*
X132262000Y-71784000D02*
X132262000Y-71784000D01*
X132262000Y-71784000D02*
X132262000Y-71785000D01*
X132759000Y-71786000D02*
X132759000Y-71976000D01*
X132759000Y-71976000D02*
X132748000Y-71976000D01*
X132748000Y-71976000D02*
X132270000Y-71976000D01*
X132748000Y-71976000D02*
X132748000Y-72573000D01*
X132270000Y-71976000D02*
X132262000Y-71976000D01*
X132270000Y-71976000D02*
X132270000Y-72573000D01*
X132262000Y-71976000D02*
X132262000Y-71786000D01*
X132759000Y-72573000D02*
X132748000Y-72573000D01*
X132748000Y-72573000D02*
X132270000Y-72573000D01*
X132270000Y-72573000D02*
X132262000Y-72573000D01*
X132262000Y-72573000D02*
X132262000Y-72763000D01*
X132759000Y-72763000D02*
X132759000Y-72573000D01*
X132262000Y-72765000D02*
X132262000Y-72766000D01*
X132759000Y-72766000D02*
X132759000Y-72765000D01*
X132759000Y-72766000D02*
X132759000Y-72766000D01*
X132759000Y-72766000D02*
X132759000Y-72766000D01*
X132262000Y-72766000D02*
X132262000Y-72766000D01*
X132262000Y-72766000D02*
X132262000Y-72766000D01*
X132262000Y-72766000D02*
X132262000Y-72767000D01*
X132759000Y-72767000D02*
X132759000Y-72766000D01*
X132759000Y-72767000D02*
X132759000Y-72767000D01*
X132262000Y-72767000D02*
X132262000Y-72767000D01*
X132262000Y-72767000D02*
X132262000Y-72768000D01*
X132759000Y-72768000D02*
X132759000Y-72767000D01*
X132758000Y-72768000D02*
X132759000Y-72768000D01*
X132263000Y-72768000D02*
X132263000Y-72769000D01*
X132262000Y-72768000D02*
X132263000Y-72768000D01*
X132758000Y-72769000D02*
X132758000Y-72768000D01*
X132758000Y-72769000D02*
X132758000Y-72769000D01*
X132758000Y-72769000D02*
X132758000Y-72769000D01*
X132263000Y-72769000D02*
X132263000Y-72769000D01*
X132263000Y-72769000D02*
X132263000Y-72769000D01*
X132263000Y-72769000D02*
X132264000Y-72770000D01*
X132757000Y-72770000D02*
X132758000Y-72769000D01*
X132757000Y-72770000D02*
X132757000Y-72770000D01*
X132264000Y-72770000D02*
X132264000Y-72770000D01*
X132264000Y-72770000D02*
X132264000Y-72771000D01*
X132757000Y-72771000D02*
X132757000Y-72770000D01*
X132756000Y-72771000D02*
X132757000Y-72771000D01*
X132756000Y-72771000D02*
X132756000Y-72771000D01*
X132265000Y-72771000D02*
X132265000Y-72771000D01*
X132265000Y-72771000D02*
X132266000Y-72772000D01*
X132264000Y-72771000D02*
X132265000Y-72771000D01*
X132755000Y-72772000D02*
X132756000Y-72771000D01*
X132755000Y-72772000D02*
X132755000Y-72772000D01*
X132755000Y-72772000D02*
X132755000Y-72772000D01*
X132754000Y-72772000D02*
X132755000Y-72772000D01*
X132267000Y-72772000D02*
X132267000Y-72773000D01*
X132266000Y-72772000D02*
X132267000Y-72772000D01*
X132266000Y-72772000D02*
X132266000Y-72772000D01*
X132266000Y-72772000D02*
X132266000Y-72772000D01*
X132754000Y-72773000D02*
X132754000Y-72772000D01*
X132753000Y-72773000D02*
X132754000Y-72773000D01*
X132753000Y-72773000D02*
X132753000Y-72773000D01*
X132752000Y-72773000D02*
X132753000Y-72773000D01*
X132752000Y-72773000D02*
X132752000Y-72773000D01*
X132752000Y-72773000D02*
X132752000Y-72773000D01*
X132751000Y-72773000D02*
X132752000Y-72773000D01*
X132751000Y-72773000D02*
X132751000Y-72773000D01*
X132750000Y-72773000D02*
X132751000Y-72773000D01*
X132270000Y-72773000D02*
X132748000Y-72773000D01*
X132270000Y-72773000D02*
X132270000Y-72773000D01*
X132269000Y-72773000D02*
X132270000Y-72773000D01*
X132269000Y-72773000D02*
X132269000Y-72773000D01*
X132269000Y-72773000D02*
X132269000Y-72773000D01*
X132268000Y-72773000D02*
X132269000Y-72773000D01*
X132268000Y-72773000D02*
X132268000Y-72773000D01*
X132267000Y-72773000D02*
X132268000Y-72773000D01*
%TO.C,C24*%
X117699000Y-50269000D02*
X120900000Y-50269000D01*
X120900000Y-50269000D02*
X120900000Y-51871000D01*
X120900000Y-51871000D02*
X117699000Y-51871000D01*
X117699000Y-51871000D02*
X117699000Y-50269000D01*
%TO.C,R15*%
X121430000Y-85180800D02*
X122430000Y-85180800D01*
X122430000Y-85180800D02*
X122430000Y-85680800D01*
X122430000Y-85680800D02*
X121430000Y-85680800D01*
X121430000Y-85680800D02*
X121430000Y-85180800D01*
%TO.C,D3*%
X92802000Y-53850000D02*
X91200000Y-53850000D01*
X91200000Y-53850000D02*
X91200000Y-57349000D01*
X91200000Y-57349000D02*
X92802000Y-57349000D01*
X92802000Y-57349000D02*
X92802000Y-53850000D01*
%TO.C,C6*%
X131090000Y-84250000D02*
X129490000Y-84250000D01*
X129490000Y-84250000D02*
X129490000Y-83350000D01*
X129490000Y-83350000D02*
X131090000Y-83350000D01*
X131090000Y-83350000D02*
X131090000Y-84250000D01*
%TO.C,C7*%
X130459000Y-81324000D02*
X130459000Y-81323000D01*
X130459000Y-81323000D02*
X130459000Y-81323000D01*
X130459000Y-81323000D02*
X130459000Y-81322000D01*
X130459000Y-81322000D02*
X130459000Y-81322000D01*
X130459000Y-81322000D02*
X130459000Y-81322000D01*
X130459000Y-81322000D02*
X130459000Y-81321000D01*
X130459000Y-81321000D02*
X130459000Y-81321000D01*
X130459000Y-81321000D02*
X130459000Y-81320000D01*
X130459000Y-81320000D02*
X130459000Y-81318000D01*
X130459000Y-81318000D02*
X130459000Y-81318000D01*
X130459000Y-81318000D02*
X130459000Y-81318000D01*
X130459000Y-81318000D02*
X130459000Y-81318000D01*
X130459000Y-80840000D02*
X130459000Y-81318000D01*
X130459000Y-80840000D02*
X130459000Y-80840000D01*
X130459000Y-80840000D02*
X130459000Y-80840000D01*
X130459000Y-80840000D02*
X130459000Y-80840000D01*
X130459000Y-80840000D02*
X130459000Y-80840000D01*
X130459000Y-80840000D02*
X130459000Y-80840000D01*
X130459000Y-80840000D02*
X130459000Y-80839000D01*
X130459000Y-80839000D02*
X130459000Y-80839000D01*
X130459000Y-80839000D02*
X130459000Y-80839000D01*
X130459000Y-80839000D02*
X130459000Y-80838000D01*
X130459000Y-80838000D02*
X130459000Y-80838000D01*
X130459000Y-80838000D02*
X130459000Y-80837000D01*
X130459000Y-80837000D02*
X130458000Y-80837000D01*
X130458000Y-81325000D02*
X130458000Y-81325000D01*
X130458000Y-81325000D02*
X130458000Y-81325000D01*
X130458000Y-81325000D02*
X130458000Y-81324000D01*
X130458000Y-81324000D02*
X130459000Y-81324000D01*
X130458000Y-80837000D02*
X130458000Y-80836000D01*
X130458000Y-80836000D02*
X130458000Y-80836000D01*
X130458000Y-80836000D02*
X130458000Y-80836000D01*
X130458000Y-80836000D02*
X130457000Y-80835000D01*
X130457000Y-81327000D02*
X130457000Y-81326000D01*
X130457000Y-81326000D02*
X130458000Y-81325000D01*
X130457000Y-81326000D02*
X130457000Y-81326000D01*
X130457000Y-80835000D02*
X130457000Y-80835000D01*
X130457000Y-80835000D02*
X130457000Y-80834000D01*
X130457000Y-80834000D02*
X130456000Y-80834000D01*
X130456000Y-81327000D02*
X130457000Y-81327000D01*
X130456000Y-81327000D02*
X130456000Y-81327000D01*
X130456000Y-80834000D02*
X130456000Y-80834000D01*
X130456000Y-80834000D02*
X130455000Y-80833000D01*
X130455000Y-81328000D02*
X130456000Y-81327000D01*
X130455000Y-81328000D02*
X130455000Y-81328000D01*
X130455000Y-81328000D02*
X130455000Y-81328000D01*
X130455000Y-80833000D02*
X130455000Y-80833000D01*
X130455000Y-80833000D02*
X130455000Y-80833000D01*
X130455000Y-80833000D02*
X130454000Y-80833000D01*
X130454000Y-81329000D02*
X130454000Y-81328000D01*
X130454000Y-81328000D02*
X130455000Y-81328000D01*
X130454000Y-80833000D02*
X130454000Y-80832000D01*
X130454000Y-80832000D02*
X130453000Y-80832000D01*
X130453000Y-81329000D02*
X130454000Y-81329000D01*
X130453000Y-81329000D02*
X130453000Y-81329000D01*
X130453000Y-80832000D02*
X130453000Y-80832000D01*
X130453000Y-80832000D02*
X130452000Y-80832000D01*
X130452000Y-81329000D02*
X130453000Y-81329000D01*
X130452000Y-81329000D02*
X130452000Y-81329000D01*
X130452000Y-81329000D02*
X130452000Y-81329000D01*
X130452000Y-80832000D02*
X130452000Y-80832000D01*
X130452000Y-80832000D02*
X130452000Y-80832000D01*
X130452000Y-80832000D02*
X130451000Y-80832000D01*
X130451000Y-81329000D02*
X130452000Y-81329000D01*
X130451000Y-81329000D02*
X130451000Y-81329000D01*
X130451000Y-80832000D02*
X130451000Y-80832000D01*
X130451000Y-80832000D02*
X130450000Y-80832000D01*
X130449000Y-81329000D02*
X130259000Y-81329000D01*
X130259000Y-81329000D02*
X130259000Y-81318000D01*
X130259000Y-81318000D02*
X130259000Y-80840000D01*
X130259000Y-81318000D02*
X129662000Y-81318000D01*
X130259000Y-80840000D02*
X130259000Y-80832000D01*
X130259000Y-80840000D02*
X129662000Y-80840000D01*
X130259000Y-80832000D02*
X130449000Y-80832000D01*
X129662000Y-81329000D02*
X129662000Y-81318000D01*
X129662000Y-81318000D02*
X129662000Y-80840000D01*
X129662000Y-80840000D02*
X129662000Y-80832000D01*
X129662000Y-80832000D02*
X129472000Y-80832000D01*
X129472000Y-81329000D02*
X129662000Y-81329000D01*
X129470000Y-80832000D02*
X129469000Y-80832000D01*
X129469000Y-81329000D02*
X129470000Y-81329000D01*
X129469000Y-81329000D02*
X129469000Y-81329000D01*
X129469000Y-81329000D02*
X129469000Y-81329000D01*
X129469000Y-80832000D02*
X129469000Y-80832000D01*
X129469000Y-80832000D02*
X129469000Y-80832000D01*
X129469000Y-80832000D02*
X129468000Y-80832000D01*
X129468000Y-81329000D02*
X129469000Y-81329000D01*
X129468000Y-81329000D02*
X129468000Y-81329000D01*
X129468000Y-80832000D02*
X129468000Y-80832000D01*
X129468000Y-80832000D02*
X129467000Y-80832000D01*
X129467000Y-81329000D02*
X129468000Y-81329000D01*
X129467000Y-81328000D02*
X129467000Y-81329000D01*
X129467000Y-80833000D02*
X129466000Y-80833000D01*
X129467000Y-80832000D02*
X129467000Y-80833000D01*
X129466000Y-81328000D02*
X129467000Y-81328000D01*
X129466000Y-81328000D02*
X129466000Y-81328000D01*
X129466000Y-81328000D02*
X129466000Y-81328000D01*
X129466000Y-80833000D02*
X129466000Y-80833000D01*
X129466000Y-80833000D02*
X129466000Y-80833000D01*
X129466000Y-80833000D02*
X129465000Y-80834000D01*
X129465000Y-81327000D02*
X129466000Y-81328000D01*
X129465000Y-81327000D02*
X129465000Y-81327000D01*
X129465000Y-80834000D02*
X129465000Y-80834000D01*
X129465000Y-80834000D02*
X129464000Y-80834000D01*
X129464000Y-81327000D02*
X129465000Y-81327000D01*
X129464000Y-81326000D02*
X129464000Y-81327000D01*
X129464000Y-81326000D02*
X129464000Y-81326000D01*
X129464000Y-80835000D02*
X129464000Y-80835000D01*
X129464000Y-80835000D02*
X129463000Y-80836000D01*
X129464000Y-80834000D02*
X129464000Y-80835000D01*
X129463000Y-81325000D02*
X129464000Y-81326000D01*
X129463000Y-81325000D02*
X129463000Y-81325000D01*
X129463000Y-81325000D02*
X129463000Y-81325000D01*
X129463000Y-81324000D02*
X129463000Y-81325000D01*
X129463000Y-80837000D02*
X129462000Y-80837000D01*
X129463000Y-80836000D02*
X129463000Y-80837000D01*
X129463000Y-80836000D02*
X129463000Y-80836000D01*
X129463000Y-80836000D02*
X129463000Y-80836000D01*
X129462000Y-81324000D02*
X129463000Y-81324000D01*
X129462000Y-81323000D02*
X129462000Y-81324000D01*
X129462000Y-81323000D02*
X129462000Y-81323000D01*
X129462000Y-81322000D02*
X129462000Y-81323000D01*
X129462000Y-81322000D02*
X129462000Y-81322000D01*
X129462000Y-81322000D02*
X129462000Y-81322000D01*
X129462000Y-81321000D02*
X129462000Y-81322000D01*
X129462000Y-81321000D02*
X129462000Y-81321000D01*
X129462000Y-81320000D02*
X129462000Y-81321000D01*
X129462000Y-80840000D02*
X129462000Y-81318000D01*
X129462000Y-80840000D02*
X129462000Y-80840000D01*
X129462000Y-80839000D02*
X129462000Y-80840000D01*
X129462000Y-80839000D02*
X129462000Y-80839000D01*
X129462000Y-80839000D02*
X129462000Y-80839000D01*
X129462000Y-80838000D02*
X129462000Y-80839000D01*
X129462000Y-80838000D02*
X129462000Y-80838000D01*
X129462000Y-80837000D02*
X129462000Y-80838000D01*
%TO.C,C20*%
X111280000Y-58570000D02*
X112880000Y-58570000D01*
X112880000Y-58570000D02*
X112880000Y-59470000D01*
X112880000Y-59470000D02*
X111280000Y-59470000D01*
X111280000Y-59470000D02*
X111280000Y-58570000D01*
%TO.C,R10*%
X89320000Y-63900000D02*
X90320000Y-63900000D01*
X90320000Y-63900000D02*
X90320000Y-64400000D01*
X90320000Y-64400000D02*
X89320000Y-64400000D01*
X89320000Y-64400000D02*
X89320000Y-63900000D01*
%TO.C,FB5*%
X132132000Y-69128000D02*
X131330000Y-69128000D01*
X131330000Y-69128000D02*
X131330000Y-70730000D01*
X131330000Y-70730000D02*
X132132000Y-70730000D01*
X132132000Y-70730000D02*
X132132000Y-69128000D01*
%TO.C,U3*%
X95308000Y-62002666D02*
X98307000Y-62002666D01*
X98307000Y-62002666D02*
X98307000Y-65001666D01*
X98307000Y-65001666D02*
X95308000Y-65001666D01*
X95308000Y-65001666D02*
X95308000Y-62002666D01*
%TO.C,FB1*%
X147392000Y-69962000D02*
X145790000Y-69962000D01*
X145790000Y-69962000D02*
X145790000Y-69160000D01*
X145790000Y-69160000D02*
X147392000Y-69160000D01*
X147392000Y-69160000D02*
X147392000Y-69962000D01*
%TO.C,C4*%
X125770000Y-75620000D02*
X123270000Y-75620000D01*
X123270000Y-75620000D02*
X123270000Y-78820000D01*
X123270000Y-78820000D02*
X125770000Y-78820000D01*
X125770000Y-78820000D02*
X125770000Y-75620000D01*
%TO.C,U1*%
X85360000Y-60280000D02*
X90359000Y-60280000D01*
X90359000Y-60280000D02*
X90359000Y-55281000D01*
X90359000Y-55281000D02*
X85360000Y-55281000D01*
X85360000Y-55281000D02*
X85360000Y-60280000D01*
%TO.C,C13*%
X127704000Y-64744000D02*
X127704000Y-64743000D01*
X127704000Y-64743000D02*
X127704000Y-64743000D01*
X127704000Y-64743000D02*
X127704000Y-64742000D01*
X127704000Y-64742000D02*
X127704000Y-64742000D01*
X127704000Y-64742000D02*
X127704000Y-64742000D01*
X127704000Y-64742000D02*
X127704000Y-64741000D01*
X127704000Y-64741000D02*
X127704000Y-64741000D01*
X127704000Y-64741000D02*
X127704000Y-64740000D01*
X127704000Y-64740000D02*
X127704000Y-64738000D01*
X127704000Y-64738000D02*
X127704000Y-64738000D01*
X127704000Y-64738000D02*
X127704000Y-64738000D01*
X127704000Y-64738000D02*
X127704000Y-64738000D01*
X127704000Y-64260000D02*
X127704000Y-64738000D01*
X127704000Y-64260000D02*
X127704000Y-64260000D01*
X127704000Y-64260000D02*
X127704000Y-64260000D01*
X127704000Y-64260000D02*
X127704000Y-64260000D01*
X127704000Y-64260000D02*
X127704000Y-64260000D01*
X127704000Y-64260000D02*
X127704000Y-64260000D01*
X127704000Y-64260000D02*
X127704000Y-64259000D01*
X127704000Y-64259000D02*
X127704000Y-64259000D01*
X127704000Y-64259000D02*
X127704000Y-64259000D01*
X127704000Y-64259000D02*
X127704000Y-64258000D01*
X127704000Y-64258000D02*
X127704000Y-64258000D01*
X127704000Y-64258000D02*
X127704000Y-64257000D01*
X127704000Y-64257000D02*
X127703000Y-64257000D01*
X127703000Y-64745000D02*
X127703000Y-64745000D01*
X127703000Y-64745000D02*
X127703000Y-64745000D01*
X127703000Y-64745000D02*
X127703000Y-64744000D01*
X127703000Y-64744000D02*
X127704000Y-64744000D01*
X127703000Y-64257000D02*
X127703000Y-64256000D01*
X127703000Y-64256000D02*
X127703000Y-64256000D01*
X127703000Y-64256000D02*
X127703000Y-64256000D01*
X127703000Y-64256000D02*
X127702000Y-64255000D01*
X127702000Y-64747000D02*
X127702000Y-64746000D01*
X127702000Y-64746000D02*
X127703000Y-64745000D01*
X127702000Y-64746000D02*
X127702000Y-64746000D01*
X127702000Y-64255000D02*
X127702000Y-64255000D01*
X127702000Y-64255000D02*
X127702000Y-64254000D01*
X127702000Y-64254000D02*
X127701000Y-64254000D01*
X127701000Y-64747000D02*
X127702000Y-64747000D01*
X127701000Y-64747000D02*
X127701000Y-64747000D01*
X127701000Y-64254000D02*
X127701000Y-64254000D01*
X127701000Y-64254000D02*
X127700000Y-64253000D01*
X127700000Y-64748000D02*
X127701000Y-64747000D01*
X127700000Y-64748000D02*
X127700000Y-64748000D01*
X127700000Y-64748000D02*
X127700000Y-64748000D01*
X127700000Y-64253000D02*
X127700000Y-64253000D01*
X127700000Y-64253000D02*
X127700000Y-64253000D01*
X127700000Y-64253000D02*
X127699000Y-64253000D01*
X127699000Y-64749000D02*
X127699000Y-64748000D01*
X127699000Y-64748000D02*
X127700000Y-64748000D01*
X127699000Y-64253000D02*
X127699000Y-64252000D01*
X127699000Y-64252000D02*
X127698000Y-64252000D01*
X127698000Y-64749000D02*
X127699000Y-64749000D01*
X127698000Y-64749000D02*
X127698000Y-64749000D01*
X127698000Y-64252000D02*
X127698000Y-64252000D01*
X127698000Y-64252000D02*
X127697000Y-64252000D01*
X127697000Y-64749000D02*
X127698000Y-64749000D01*
X127697000Y-64749000D02*
X127697000Y-64749000D01*
X127697000Y-64749000D02*
X127697000Y-64749000D01*
X127697000Y-64252000D02*
X127697000Y-64252000D01*
X127697000Y-64252000D02*
X127697000Y-64252000D01*
X127697000Y-64252000D02*
X127696000Y-64252000D01*
X127696000Y-64749000D02*
X127697000Y-64749000D01*
X127696000Y-64749000D02*
X127696000Y-64749000D01*
X127696000Y-64252000D02*
X127696000Y-64252000D01*
X127696000Y-64252000D02*
X127695000Y-64252000D01*
X127694000Y-64749000D02*
X127504000Y-64749000D01*
X127504000Y-64749000D02*
X127504000Y-64738000D01*
X127504000Y-64738000D02*
X127504000Y-64260000D01*
X127504000Y-64738000D02*
X126907000Y-64738000D01*
X127504000Y-64260000D02*
X127504000Y-64252000D01*
X127504000Y-64260000D02*
X126907000Y-64260000D01*
X127504000Y-64252000D02*
X127694000Y-64252000D01*
X126907000Y-64749000D02*
X126907000Y-64738000D01*
X126907000Y-64738000D02*
X126907000Y-64260000D01*
X126907000Y-64260000D02*
X126907000Y-64252000D01*
X126907000Y-64252000D02*
X126717000Y-64252000D01*
X126717000Y-64749000D02*
X126907000Y-64749000D01*
X126715000Y-64252000D02*
X126714000Y-64252000D01*
X126714000Y-64749000D02*
X126715000Y-64749000D01*
X126714000Y-64749000D02*
X126714000Y-64749000D01*
X126714000Y-64749000D02*
X126714000Y-64749000D01*
X126714000Y-64252000D02*
X126714000Y-64252000D01*
X126714000Y-64252000D02*
X126714000Y-64252000D01*
X126714000Y-64252000D02*
X126713000Y-64252000D01*
X126713000Y-64749000D02*
X126714000Y-64749000D01*
X126713000Y-64749000D02*
X126713000Y-64749000D01*
X126713000Y-64252000D02*
X126713000Y-64252000D01*
X126713000Y-64252000D02*
X126712000Y-64252000D01*
X126712000Y-64749000D02*
X126713000Y-64749000D01*
X126712000Y-64748000D02*
X126712000Y-64749000D01*
X126712000Y-64253000D02*
X126711000Y-64253000D01*
X126712000Y-64252000D02*
X126712000Y-64253000D01*
X126711000Y-64748000D02*
X126712000Y-64748000D01*
X126711000Y-64748000D02*
X126711000Y-64748000D01*
X126711000Y-64748000D02*
X126711000Y-64748000D01*
X126711000Y-64253000D02*
X126711000Y-64253000D01*
X126711000Y-64253000D02*
X126711000Y-64253000D01*
X126711000Y-64253000D02*
X126710000Y-64254000D01*
X126710000Y-64747000D02*
X126711000Y-64748000D01*
X126710000Y-64747000D02*
X126710000Y-64747000D01*
X126710000Y-64254000D02*
X126710000Y-64254000D01*
X126710000Y-64254000D02*
X126709000Y-64254000D01*
X126709000Y-64747000D02*
X126710000Y-64747000D01*
X126709000Y-64746000D02*
X126709000Y-64747000D01*
X126709000Y-64746000D02*
X126709000Y-64746000D01*
X126709000Y-64255000D02*
X126709000Y-64255000D01*
X126709000Y-64255000D02*
X126708000Y-64256000D01*
X126709000Y-64254000D02*
X126709000Y-64255000D01*
X126708000Y-64745000D02*
X126709000Y-64746000D01*
X126708000Y-64745000D02*
X126708000Y-64745000D01*
X126708000Y-64745000D02*
X126708000Y-64745000D01*
X126708000Y-64744000D02*
X126708000Y-64745000D01*
X126708000Y-64257000D02*
X126707000Y-64257000D01*
X126708000Y-64256000D02*
X126708000Y-64257000D01*
X126708000Y-64256000D02*
X126708000Y-64256000D01*
X126708000Y-64256000D02*
X126708000Y-64256000D01*
X126707000Y-64744000D02*
X126708000Y-64744000D01*
X126707000Y-64743000D02*
X126707000Y-64744000D01*
X126707000Y-64743000D02*
X126707000Y-64743000D01*
X126707000Y-64742000D02*
X126707000Y-64743000D01*
X126707000Y-64742000D02*
X126707000Y-64742000D01*
X126707000Y-64742000D02*
X126707000Y-64742000D01*
X126707000Y-64741000D02*
X126707000Y-64742000D01*
X126707000Y-64741000D02*
X126707000Y-64741000D01*
X126707000Y-64740000D02*
X126707000Y-64741000D01*
X126707000Y-64260000D02*
X126707000Y-64738000D01*
X126707000Y-64260000D02*
X126707000Y-64260000D01*
X126707000Y-64259000D02*
X126707000Y-64260000D01*
X126707000Y-64259000D02*
X126707000Y-64259000D01*
X126707000Y-64259000D02*
X126707000Y-64259000D01*
X126707000Y-64258000D02*
X126707000Y-64259000D01*
X126707000Y-64258000D02*
X126707000Y-64258000D01*
X126707000Y-64257000D02*
X126707000Y-64258000D01*
%TO.C,C5*%
X122130000Y-75640000D02*
X119630000Y-75640000D01*
X119630000Y-75640000D02*
X119630000Y-78840000D01*
X119630000Y-78840000D02*
X122130000Y-78840000D01*
X122130000Y-78840000D02*
X122130000Y-75640000D01*
%TO.C,C28*%
X95176000Y-53516000D02*
X95176000Y-53517000D01*
X95176000Y-53517000D02*
X95176000Y-53517000D01*
X95176000Y-53517000D02*
X95176000Y-53518000D01*
X95176000Y-53518000D02*
X95176000Y-53518000D01*
X95176000Y-53518000D02*
X95176000Y-53518000D01*
X95176000Y-53518000D02*
X95176000Y-53519000D01*
X95176000Y-53519000D02*
X95176000Y-53519000D01*
X95176000Y-53519000D02*
X95176000Y-53520000D01*
X95176000Y-53520000D02*
X95176000Y-53522000D01*
X95176000Y-53522000D02*
X95176000Y-53522000D01*
X95176000Y-53522000D02*
X95176000Y-53522000D01*
X95176000Y-53522000D02*
X95176000Y-53522000D01*
X95176000Y-54000000D02*
X95176000Y-53522000D01*
X95176000Y-54000000D02*
X95176000Y-54000000D01*
X95176000Y-54000000D02*
X95176000Y-54000000D01*
X95176000Y-54000000D02*
X95176000Y-54000000D01*
X95176000Y-54000000D02*
X95176000Y-54000000D01*
X95176000Y-54000000D02*
X95176000Y-54000000D01*
X95176000Y-54000000D02*
X95176000Y-54001000D01*
X95176000Y-54001000D02*
X95176000Y-54001000D01*
X95176000Y-54001000D02*
X95176000Y-54001000D01*
X95176000Y-54001000D02*
X95176000Y-54002000D01*
X95176000Y-54002000D02*
X95176000Y-54002000D01*
X95176000Y-54002000D02*
X95176000Y-54003000D01*
X95176000Y-54003000D02*
X95177000Y-54003000D01*
X95177000Y-53515000D02*
X95177000Y-53515000D01*
X95177000Y-53515000D02*
X95177000Y-53515000D01*
X95177000Y-53515000D02*
X95177000Y-53516000D01*
X95177000Y-53516000D02*
X95176000Y-53516000D01*
X95177000Y-54003000D02*
X95177000Y-54004000D01*
X95177000Y-54004000D02*
X95177000Y-54004000D01*
X95177000Y-54004000D02*
X95177000Y-54004000D01*
X95177000Y-54004000D02*
X95178000Y-54005000D01*
X95178000Y-53513000D02*
X95178000Y-53514000D01*
X95178000Y-53514000D02*
X95177000Y-53515000D01*
X95178000Y-53514000D02*
X95178000Y-53514000D01*
X95178000Y-54005000D02*
X95178000Y-54005000D01*
X95178000Y-54005000D02*
X95178000Y-54006000D01*
X95178000Y-54006000D02*
X95179000Y-54006000D01*
X95179000Y-53513000D02*
X95178000Y-53513000D01*
X95179000Y-53513000D02*
X95179000Y-53513000D01*
X95179000Y-54006000D02*
X95179000Y-54006000D01*
X95179000Y-54006000D02*
X95180000Y-54007000D01*
X95180000Y-53512000D02*
X95179000Y-53513000D01*
X95180000Y-53512000D02*
X95180000Y-53512000D01*
X95180000Y-53512000D02*
X95180000Y-53512000D01*
X95180000Y-54007000D02*
X95180000Y-54007000D01*
X95180000Y-54007000D02*
X95180000Y-54007000D01*
X95180000Y-54007000D02*
X95181000Y-54007000D01*
X95181000Y-53511000D02*
X95181000Y-53512000D01*
X95181000Y-53512000D02*
X95180000Y-53512000D01*
X95181000Y-54007000D02*
X95181000Y-54008000D01*
X95181000Y-54008000D02*
X95182000Y-54008000D01*
X95182000Y-53511000D02*
X95181000Y-53511000D01*
X95182000Y-53511000D02*
X95182000Y-53511000D01*
X95182000Y-54008000D02*
X95182000Y-54008000D01*
X95182000Y-54008000D02*
X95183000Y-54008000D01*
X95183000Y-53511000D02*
X95182000Y-53511000D01*
X95183000Y-53511000D02*
X95183000Y-53511000D01*
X95183000Y-53511000D02*
X95183000Y-53511000D01*
X95183000Y-54008000D02*
X95183000Y-54008000D01*
X95183000Y-54008000D02*
X95183000Y-54008000D01*
X95183000Y-54008000D02*
X95184000Y-54008000D01*
X95184000Y-53511000D02*
X95183000Y-53511000D01*
X95184000Y-53511000D02*
X95184000Y-53511000D01*
X95184000Y-54008000D02*
X95184000Y-54008000D01*
X95184000Y-54008000D02*
X95185000Y-54008000D01*
X95186000Y-53511000D02*
X95376000Y-53511000D01*
X95376000Y-53511000D02*
X95376000Y-53522000D01*
X95376000Y-53522000D02*
X95376000Y-54000000D01*
X95376000Y-53522000D02*
X95973000Y-53522000D01*
X95376000Y-54000000D02*
X95376000Y-54008000D01*
X95376000Y-54000000D02*
X95973000Y-54000000D01*
X95376000Y-54008000D02*
X95186000Y-54008000D01*
X95973000Y-53511000D02*
X95973000Y-53522000D01*
X95973000Y-53522000D02*
X95973000Y-54000000D01*
X95973000Y-54000000D02*
X95973000Y-54008000D01*
X95973000Y-54008000D02*
X96163000Y-54008000D01*
X96163000Y-53511000D02*
X95973000Y-53511000D01*
X96165000Y-54008000D02*
X96166000Y-54008000D01*
X96166000Y-53511000D02*
X96165000Y-53511000D01*
X96166000Y-53511000D02*
X96166000Y-53511000D01*
X96166000Y-53511000D02*
X96166000Y-53511000D01*
X96166000Y-54008000D02*
X96166000Y-54008000D01*
X96166000Y-54008000D02*
X96166000Y-54008000D01*
X96166000Y-54008000D02*
X96167000Y-54008000D01*
X96167000Y-53511000D02*
X96166000Y-53511000D01*
X96167000Y-53511000D02*
X96167000Y-53511000D01*
X96167000Y-54008000D02*
X96167000Y-54008000D01*
X96167000Y-54008000D02*
X96168000Y-54008000D01*
X96168000Y-53511000D02*
X96167000Y-53511000D01*
X96168000Y-53512000D02*
X96168000Y-53511000D01*
X96168000Y-54007000D02*
X96169000Y-54007000D01*
X96168000Y-54008000D02*
X96168000Y-54007000D01*
X96169000Y-53512000D02*
X96168000Y-53512000D01*
X96169000Y-53512000D02*
X96169000Y-53512000D01*
X96169000Y-53512000D02*
X96169000Y-53512000D01*
X96169000Y-54007000D02*
X96169000Y-54007000D01*
X96169000Y-54007000D02*
X96169000Y-54007000D01*
X96169000Y-54007000D02*
X96170000Y-54006000D01*
X96170000Y-53513000D02*
X96169000Y-53512000D01*
X96170000Y-53513000D02*
X96170000Y-53513000D01*
X96170000Y-54006000D02*
X96170000Y-54006000D01*
X96170000Y-54006000D02*
X96171000Y-54006000D01*
X96171000Y-53513000D02*
X96170000Y-53513000D01*
X96171000Y-53514000D02*
X96171000Y-53513000D01*
X96171000Y-53514000D02*
X96171000Y-53514000D01*
X96171000Y-54005000D02*
X96171000Y-54005000D01*
X96171000Y-54005000D02*
X96172000Y-54004000D01*
X96171000Y-54006000D02*
X96171000Y-54005000D01*
X96172000Y-53515000D02*
X96171000Y-53514000D01*
X96172000Y-53515000D02*
X96172000Y-53515000D01*
X96172000Y-53515000D02*
X96172000Y-53515000D01*
X96172000Y-53516000D02*
X96172000Y-53515000D01*
X96172000Y-54003000D02*
X96173000Y-54003000D01*
X96172000Y-54004000D02*
X96172000Y-54003000D01*
X96172000Y-54004000D02*
X96172000Y-54004000D01*
X96172000Y-54004000D02*
X96172000Y-54004000D01*
X96173000Y-53516000D02*
X96172000Y-53516000D01*
X96173000Y-53517000D02*
X96173000Y-53516000D01*
X96173000Y-53517000D02*
X96173000Y-53517000D01*
X96173000Y-53518000D02*
X96173000Y-53517000D01*
X96173000Y-53518000D02*
X96173000Y-53518000D01*
X96173000Y-53518000D02*
X96173000Y-53518000D01*
X96173000Y-53519000D02*
X96173000Y-53518000D01*
X96173000Y-53519000D02*
X96173000Y-53519000D01*
X96173000Y-53520000D02*
X96173000Y-53519000D01*
X96173000Y-54000000D02*
X96173000Y-53522000D01*
X96173000Y-54000000D02*
X96173000Y-54000000D01*
X96173000Y-54001000D02*
X96173000Y-54000000D01*
X96173000Y-54001000D02*
X96173000Y-54001000D01*
X96173000Y-54001000D02*
X96173000Y-54001000D01*
X96173000Y-54002000D02*
X96173000Y-54001000D01*
X96173000Y-54002000D02*
X96173000Y-54002000D01*
X96173000Y-54003000D02*
X96173000Y-54002000D01*
%TO.C,J3*%
X146379000Y-80130000D02*
X154089000Y-80130000D01*
X154089000Y-80130000D02*
X154089000Y-70552000D01*
X154089000Y-70552000D02*
X146379000Y-70552000D01*
X146379000Y-70552000D02*
X146379000Y-80130000D01*
%TO.C,C17*%
X112790000Y-60290000D02*
X110290000Y-60290000D01*
X110290000Y-60290000D02*
X110290000Y-63490000D01*
X110290000Y-63490000D02*
X112790000Y-63490000D01*
X112790000Y-63490000D02*
X112790000Y-60290000D01*
%TO.C,R25*%
X123701000Y-57983000D02*
X123201000Y-57983000D01*
X123201000Y-57983000D02*
X123201000Y-58983000D01*
X123201000Y-58983000D02*
X123701000Y-58983000D01*
X123701000Y-58983000D02*
X123701000Y-57983000D01*
%TO.C,R21*%
X124820000Y-63600000D02*
X124320000Y-63600000D01*
X124320000Y-63600000D02*
X124320000Y-64600000D01*
X124320000Y-64600000D02*
X124820000Y-64600000D01*
X124820000Y-64600000D02*
X124820000Y-63600000D01*
%TO.C,C27*%
X95176000Y-52376000D02*
X95176000Y-52377000D01*
X95176000Y-52377000D02*
X95176000Y-52377000D01*
X95176000Y-52377000D02*
X95176000Y-52378000D01*
X95176000Y-52378000D02*
X95176000Y-52378000D01*
X95176000Y-52378000D02*
X95176000Y-52378000D01*
X95176000Y-52378000D02*
X95176000Y-52379000D01*
X95176000Y-52379000D02*
X95176000Y-52379000D01*
X95176000Y-52379000D02*
X95176000Y-52380000D01*
X95176000Y-52380000D02*
X95176000Y-52382000D01*
X95176000Y-52382000D02*
X95176000Y-52382000D01*
X95176000Y-52382000D02*
X95176000Y-52382000D01*
X95176000Y-52382000D02*
X95176000Y-52382000D01*
X95176000Y-52860000D02*
X95176000Y-52382000D01*
X95176000Y-52860000D02*
X95176000Y-52860000D01*
X95176000Y-52860000D02*
X95176000Y-52860000D01*
X95176000Y-52860000D02*
X95176000Y-52860000D01*
X95176000Y-52860000D02*
X95176000Y-52860000D01*
X95176000Y-52860000D02*
X95176000Y-52860000D01*
X95176000Y-52860000D02*
X95176000Y-52861000D01*
X95176000Y-52861000D02*
X95176000Y-52861000D01*
X95176000Y-52861000D02*
X95176000Y-52861000D01*
X95176000Y-52861000D02*
X95176000Y-52862000D01*
X95176000Y-52862000D02*
X95176000Y-52862000D01*
X95176000Y-52862000D02*
X95176000Y-52863000D01*
X95176000Y-52863000D02*
X95177000Y-52863000D01*
X95177000Y-52375000D02*
X95177000Y-52375000D01*
X95177000Y-52375000D02*
X95177000Y-52375000D01*
X95177000Y-52375000D02*
X95177000Y-52376000D01*
X95177000Y-52376000D02*
X95176000Y-52376000D01*
X95177000Y-52863000D02*
X95177000Y-52864000D01*
X95177000Y-52864000D02*
X95177000Y-52864000D01*
X95177000Y-52864000D02*
X95177000Y-52864000D01*
X95177000Y-52864000D02*
X95178000Y-52865000D01*
X95178000Y-52373000D02*
X95178000Y-52374000D01*
X95178000Y-52374000D02*
X95177000Y-52375000D01*
X95178000Y-52374000D02*
X95178000Y-52374000D01*
X95178000Y-52865000D02*
X95178000Y-52865000D01*
X95178000Y-52865000D02*
X95178000Y-52866000D01*
X95178000Y-52866000D02*
X95179000Y-52866000D01*
X95179000Y-52373000D02*
X95178000Y-52373000D01*
X95179000Y-52373000D02*
X95179000Y-52373000D01*
X95179000Y-52866000D02*
X95179000Y-52866000D01*
X95179000Y-52866000D02*
X95180000Y-52867000D01*
X95180000Y-52372000D02*
X95179000Y-52373000D01*
X95180000Y-52372000D02*
X95180000Y-52372000D01*
X95180000Y-52372000D02*
X95180000Y-52372000D01*
X95180000Y-52867000D02*
X95180000Y-52867000D01*
X95180000Y-52867000D02*
X95180000Y-52867000D01*
X95180000Y-52867000D02*
X95181000Y-52867000D01*
X95181000Y-52371000D02*
X95181000Y-52372000D01*
X95181000Y-52372000D02*
X95180000Y-52372000D01*
X95181000Y-52867000D02*
X95181000Y-52868000D01*
X95181000Y-52868000D02*
X95182000Y-52868000D01*
X95182000Y-52371000D02*
X95181000Y-52371000D01*
X95182000Y-52371000D02*
X95182000Y-52371000D01*
X95182000Y-52868000D02*
X95182000Y-52868000D01*
X95182000Y-52868000D02*
X95183000Y-52868000D01*
X95183000Y-52371000D02*
X95182000Y-52371000D01*
X95183000Y-52371000D02*
X95183000Y-52371000D01*
X95183000Y-52371000D02*
X95183000Y-52371000D01*
X95183000Y-52868000D02*
X95183000Y-52868000D01*
X95183000Y-52868000D02*
X95183000Y-52868000D01*
X95183000Y-52868000D02*
X95184000Y-52868000D01*
X95184000Y-52371000D02*
X95183000Y-52371000D01*
X95184000Y-52371000D02*
X95184000Y-52371000D01*
X95184000Y-52868000D02*
X95184000Y-52868000D01*
X95184000Y-52868000D02*
X95185000Y-52868000D01*
X95186000Y-52371000D02*
X95376000Y-52371000D01*
X95376000Y-52371000D02*
X95376000Y-52382000D01*
X95376000Y-52382000D02*
X95376000Y-52860000D01*
X95376000Y-52382000D02*
X95973000Y-52382000D01*
X95376000Y-52860000D02*
X95376000Y-52868000D01*
X95376000Y-52860000D02*
X95973000Y-52860000D01*
X95376000Y-52868000D02*
X95186000Y-52868000D01*
X95973000Y-52371000D02*
X95973000Y-52382000D01*
X95973000Y-52382000D02*
X95973000Y-52860000D01*
X95973000Y-52860000D02*
X95973000Y-52868000D01*
X95973000Y-52868000D02*
X96163000Y-52868000D01*
X96163000Y-52371000D02*
X95973000Y-52371000D01*
X96165000Y-52868000D02*
X96166000Y-52868000D01*
X96166000Y-52371000D02*
X96165000Y-52371000D01*
X96166000Y-52371000D02*
X96166000Y-52371000D01*
X96166000Y-52371000D02*
X96166000Y-52371000D01*
X96166000Y-52868000D02*
X96166000Y-52868000D01*
X96166000Y-52868000D02*
X96166000Y-52868000D01*
X96166000Y-52868000D02*
X96167000Y-52868000D01*
X96167000Y-52371000D02*
X96166000Y-52371000D01*
X96167000Y-52371000D02*
X96167000Y-52371000D01*
X96167000Y-52868000D02*
X96167000Y-52868000D01*
X96167000Y-52868000D02*
X96168000Y-52868000D01*
X96168000Y-52371000D02*
X96167000Y-52371000D01*
X96168000Y-52372000D02*
X96168000Y-52371000D01*
X96168000Y-52867000D02*
X96169000Y-52867000D01*
X96168000Y-52868000D02*
X96168000Y-52867000D01*
X96169000Y-52372000D02*
X96168000Y-52372000D01*
X96169000Y-52372000D02*
X96169000Y-52372000D01*
X96169000Y-52372000D02*
X96169000Y-52372000D01*
X96169000Y-52867000D02*
X96169000Y-52867000D01*
X96169000Y-52867000D02*
X96169000Y-52867000D01*
X96169000Y-52867000D02*
X96170000Y-52866000D01*
X96170000Y-52373000D02*
X96169000Y-52372000D01*
X96170000Y-52373000D02*
X96170000Y-52373000D01*
X96170000Y-52866000D02*
X96170000Y-52866000D01*
X96170000Y-52866000D02*
X96171000Y-52866000D01*
X96171000Y-52373000D02*
X96170000Y-52373000D01*
X96171000Y-52374000D02*
X96171000Y-52373000D01*
X96171000Y-52374000D02*
X96171000Y-52374000D01*
X96171000Y-52865000D02*
X96171000Y-52865000D01*
X96171000Y-52865000D02*
X96172000Y-52864000D01*
X96171000Y-52866000D02*
X96171000Y-52865000D01*
X96172000Y-52375000D02*
X96171000Y-52374000D01*
X96172000Y-52375000D02*
X96172000Y-52375000D01*
X96172000Y-52375000D02*
X96172000Y-52375000D01*
X96172000Y-52376000D02*
X96172000Y-52375000D01*
X96172000Y-52863000D02*
X96173000Y-52863000D01*
X96172000Y-52864000D02*
X96172000Y-52863000D01*
X96172000Y-52864000D02*
X96172000Y-52864000D01*
X96172000Y-52864000D02*
X96172000Y-52864000D01*
X96173000Y-52376000D02*
X96172000Y-52376000D01*
X96173000Y-52377000D02*
X96173000Y-52376000D01*
X96173000Y-52377000D02*
X96173000Y-52377000D01*
X96173000Y-52378000D02*
X96173000Y-52377000D01*
X96173000Y-52378000D02*
X96173000Y-52378000D01*
X96173000Y-52378000D02*
X96173000Y-52378000D01*
X96173000Y-52379000D02*
X96173000Y-52378000D01*
X96173000Y-52379000D02*
X96173000Y-52379000D01*
X96173000Y-52380000D02*
X96173000Y-52379000D01*
X96173000Y-52860000D02*
X96173000Y-52382000D01*
X96173000Y-52860000D02*
X96173000Y-52860000D01*
X96173000Y-52861000D02*
X96173000Y-52860000D01*
X96173000Y-52861000D02*
X96173000Y-52861000D01*
X96173000Y-52861000D02*
X96173000Y-52861000D01*
X96173000Y-52862000D02*
X96173000Y-52861000D01*
X96173000Y-52862000D02*
X96173000Y-52862000D01*
X96173000Y-52863000D02*
X96173000Y-52862000D01*
%TO.C,C15*%
X131256000Y-67884000D02*
X131257000Y-67884000D01*
X131257000Y-67884000D02*
X131257000Y-67884000D01*
X131257000Y-67884000D02*
X131258000Y-67884000D01*
X131258000Y-67884000D02*
X131258000Y-67884000D01*
X131258000Y-67884000D02*
X131258000Y-67884000D01*
X131258000Y-67884000D02*
X131259000Y-67884000D01*
X131259000Y-67884000D02*
X131259000Y-67884000D01*
X131259000Y-67884000D02*
X131260000Y-67884000D01*
X131260000Y-67884000D02*
X131262000Y-67884000D01*
X131262000Y-67884000D02*
X131262000Y-67884000D01*
X131262000Y-67884000D02*
X131262000Y-67884000D01*
X131262000Y-67884000D02*
X131262000Y-67884000D01*
X131740000Y-67884000D02*
X131262000Y-67884000D01*
X131740000Y-67884000D02*
X131740000Y-67884000D01*
X131740000Y-67884000D02*
X131740000Y-67884000D01*
X131740000Y-67884000D02*
X131740000Y-67884000D01*
X131740000Y-67884000D02*
X131740000Y-67884000D01*
X131740000Y-67884000D02*
X131740000Y-67884000D01*
X131740000Y-67884000D02*
X131741000Y-67884000D01*
X131741000Y-67884000D02*
X131741000Y-67884000D01*
X131741000Y-67884000D02*
X131741000Y-67884000D01*
X131741000Y-67884000D02*
X131742000Y-67884000D01*
X131742000Y-67884000D02*
X131742000Y-67884000D01*
X131742000Y-67884000D02*
X131743000Y-67884000D01*
X131743000Y-67884000D02*
X131743000Y-67883000D01*
X131255000Y-67883000D02*
X131255000Y-67883000D01*
X131255000Y-67883000D02*
X131255000Y-67883000D01*
X131255000Y-67883000D02*
X131256000Y-67883000D01*
X131256000Y-67883000D02*
X131256000Y-67884000D01*
X131743000Y-67883000D02*
X131744000Y-67883000D01*
X131744000Y-67883000D02*
X131744000Y-67883000D01*
X131744000Y-67883000D02*
X131744000Y-67883000D01*
X131744000Y-67883000D02*
X131745000Y-67882000D01*
X131253000Y-67882000D02*
X131254000Y-67882000D01*
X131254000Y-67882000D02*
X131255000Y-67883000D01*
X131254000Y-67882000D02*
X131254000Y-67882000D01*
X131745000Y-67882000D02*
X131745000Y-67882000D01*
X131745000Y-67882000D02*
X131746000Y-67882000D01*
X131746000Y-67882000D02*
X131746000Y-67881000D01*
X131253000Y-67881000D02*
X131253000Y-67882000D01*
X131253000Y-67881000D02*
X131253000Y-67881000D01*
X131746000Y-67881000D02*
X131746000Y-67881000D01*
X131746000Y-67881000D02*
X131747000Y-67880000D01*
X131252000Y-67880000D02*
X131253000Y-67881000D01*
X131252000Y-67880000D02*
X131252000Y-67880000D01*
X131252000Y-67880000D02*
X131252000Y-67880000D01*
X131747000Y-67880000D02*
X131747000Y-67880000D01*
X131747000Y-67880000D02*
X131747000Y-67880000D01*
X131747000Y-67880000D02*
X131747000Y-67879000D01*
X131251000Y-67879000D02*
X131252000Y-67879000D01*
X131252000Y-67879000D02*
X131252000Y-67880000D01*
X131747000Y-67879000D02*
X131748000Y-67879000D01*
X131748000Y-67879000D02*
X131748000Y-67878000D01*
X131251000Y-67878000D02*
X131251000Y-67879000D01*
X131251000Y-67878000D02*
X131251000Y-67878000D01*
X131748000Y-67878000D02*
X131748000Y-67878000D01*
X131748000Y-67878000D02*
X131748000Y-67877000D01*
X131251000Y-67877000D02*
X131251000Y-67878000D01*
X131251000Y-67877000D02*
X131251000Y-67877000D01*
X131251000Y-67877000D02*
X131251000Y-67877000D01*
X131748000Y-67877000D02*
X131748000Y-67877000D01*
X131748000Y-67877000D02*
X131748000Y-67877000D01*
X131748000Y-67877000D02*
X131748000Y-67876000D01*
X131251000Y-67876000D02*
X131251000Y-67877000D01*
X131251000Y-67876000D02*
X131251000Y-67876000D01*
X131748000Y-67876000D02*
X131748000Y-67876000D01*
X131748000Y-67876000D02*
X131748000Y-67875000D01*
X131251000Y-67874000D02*
X131251000Y-67684000D01*
X131251000Y-67684000D02*
X131262000Y-67684000D01*
X131262000Y-67684000D02*
X131740000Y-67684000D01*
X131262000Y-67684000D02*
X131262000Y-67087000D01*
X131740000Y-67684000D02*
X131748000Y-67684000D01*
X131740000Y-67684000D02*
X131740000Y-67087000D01*
X131748000Y-67684000D02*
X131748000Y-67874000D01*
X131251000Y-67087000D02*
X131262000Y-67087000D01*
X131262000Y-67087000D02*
X131740000Y-67087000D01*
X131740000Y-67087000D02*
X131748000Y-67087000D01*
X131748000Y-67087000D02*
X131748000Y-66897000D01*
X131251000Y-66897000D02*
X131251000Y-67087000D01*
X131748000Y-66895000D02*
X131748000Y-66894000D01*
X131251000Y-66894000D02*
X131251000Y-66895000D01*
X131251000Y-66894000D02*
X131251000Y-66894000D01*
X131251000Y-66894000D02*
X131251000Y-66894000D01*
X131748000Y-66894000D02*
X131748000Y-66894000D01*
X131748000Y-66894000D02*
X131748000Y-66894000D01*
X131748000Y-66894000D02*
X131748000Y-66893000D01*
X131251000Y-66893000D02*
X131251000Y-66894000D01*
X131251000Y-66893000D02*
X131251000Y-66893000D01*
X131748000Y-66893000D02*
X131748000Y-66893000D01*
X131748000Y-66893000D02*
X131748000Y-66892000D01*
X131251000Y-66892000D02*
X131251000Y-66893000D01*
X131252000Y-66892000D02*
X131251000Y-66892000D01*
X131747000Y-66892000D02*
X131747000Y-66891000D01*
X131748000Y-66892000D02*
X131747000Y-66892000D01*
X131252000Y-66891000D02*
X131252000Y-66892000D01*
X131252000Y-66891000D02*
X131252000Y-66891000D01*
X131252000Y-66891000D02*
X131252000Y-66891000D01*
X131747000Y-66891000D02*
X131747000Y-66891000D01*
X131747000Y-66891000D02*
X131747000Y-66891000D01*
X131747000Y-66891000D02*
X131746000Y-66890000D01*
X131253000Y-66890000D02*
X131252000Y-66891000D01*
X131253000Y-66890000D02*
X131253000Y-66890000D01*
X131746000Y-66890000D02*
X131746000Y-66890000D01*
X131746000Y-66890000D02*
X131746000Y-66889000D01*
X131253000Y-66889000D02*
X131253000Y-66890000D01*
X131254000Y-66889000D02*
X131253000Y-66889000D01*
X131254000Y-66889000D02*
X131254000Y-66889000D01*
X131745000Y-66889000D02*
X131745000Y-66889000D01*
X131745000Y-66889000D02*
X131744000Y-66888000D01*
X131746000Y-66889000D02*
X131745000Y-66889000D01*
X131255000Y-66888000D02*
X131254000Y-66889000D01*
X131255000Y-66888000D02*
X131255000Y-66888000D01*
X131255000Y-66888000D02*
X131255000Y-66888000D01*
X131256000Y-66888000D02*
X131255000Y-66888000D01*
X131743000Y-66888000D02*
X131743000Y-66887000D01*
X131744000Y-66888000D02*
X131743000Y-66888000D01*
X131744000Y-66888000D02*
X131744000Y-66888000D01*
X131744000Y-66888000D02*
X131744000Y-66888000D01*
X131256000Y-66887000D02*
X131256000Y-66888000D01*
X131257000Y-66887000D02*
X131256000Y-66887000D01*
X131257000Y-66887000D02*
X131257000Y-66887000D01*
X131258000Y-66887000D02*
X131257000Y-66887000D01*
X131258000Y-66887000D02*
X131258000Y-66887000D01*
X131258000Y-66887000D02*
X131258000Y-66887000D01*
X131259000Y-66887000D02*
X131258000Y-66887000D01*
X131259000Y-66887000D02*
X131259000Y-66887000D01*
X131260000Y-66887000D02*
X131259000Y-66887000D01*
X131740000Y-66887000D02*
X131262000Y-66887000D01*
X131740000Y-66887000D02*
X131740000Y-66887000D01*
X131741000Y-66887000D02*
X131740000Y-66887000D01*
X131741000Y-66887000D02*
X131741000Y-66887000D01*
X131741000Y-66887000D02*
X131741000Y-66887000D01*
X131742000Y-66887000D02*
X131741000Y-66887000D01*
X131742000Y-66887000D02*
X131742000Y-66887000D01*
X131743000Y-66887000D02*
X131742000Y-66887000D01*
%TO.C,R9*%
X130465000Y-80240000D02*
X129465000Y-80240000D01*
X129465000Y-80240000D02*
X129465000Y-79740000D01*
X129465000Y-79740000D02*
X130465000Y-79740000D01*
X130465000Y-79740000D02*
X130465000Y-80240000D01*
%TO.C,R3*%
X82660000Y-56000000D02*
X84260000Y-56000000D01*
X84260000Y-56000000D02*
X84260000Y-56800000D01*
X84260000Y-56800000D02*
X82660000Y-56800000D01*
X82660000Y-56800000D02*
X82660000Y-56000000D01*
%TO.C,R23*%
X122700000Y-63600000D02*
X122200000Y-63600000D01*
X122200000Y-63600000D02*
X122200000Y-64600000D01*
X122200000Y-64600000D02*
X122700000Y-64600000D01*
X122700000Y-64600000D02*
X122700000Y-63600000D01*
%TO.C,R14*%
X121430000Y-84130600D02*
X122430000Y-84130600D01*
X122430000Y-84130600D02*
X122430000Y-84630600D01*
X122430000Y-84630600D02*
X121430000Y-84630600D01*
X121430000Y-84630600D02*
X121430000Y-84130600D01*
%TO.C,R32*%
X105470000Y-55770000D02*
X106470000Y-55770000D01*
X106470000Y-55770000D02*
X106470000Y-56270000D01*
X106470000Y-56270000D02*
X105470000Y-56270000D01*
X105470000Y-56270000D02*
X105470000Y-55770000D01*
%TO.C,L1*%
X135070000Y-84910000D02*
X129570000Y-84910000D01*
X129570000Y-84910000D02*
X129570000Y-90210000D01*
X129570000Y-90210000D02*
X135070000Y-90210000D01*
X135070000Y-90210000D02*
X135070000Y-84910000D01*
%TO.C,C8*%
X131090000Y-82800000D02*
X129490000Y-82800000D01*
X129490000Y-82800000D02*
X129490000Y-81900000D01*
X129490000Y-81900000D02*
X131090000Y-81900000D01*
X131090000Y-81900000D02*
X131090000Y-82800000D01*
%TO.C,J2*%
X132514000Y-66579000D02*
X154114000Y-66579000D01*
X154114000Y-66579000D02*
X154114000Y-50380000D01*
X154114000Y-50380000D02*
X132514000Y-50380000D01*
X132514000Y-50380000D02*
X132514000Y-66579000D01*
%TO.C,D2*%
X80030000Y-65460000D02*
X83830000Y-65460000D01*
X83830000Y-65460000D02*
X83830000Y-61960000D01*
X83830000Y-61960000D02*
X80030000Y-61960000D01*
X80030000Y-61960000D02*
X80030000Y-65460000D01*
D11*
%TO.C,U5*%
X130359000Y-65578000D02*
X122259000Y-65578000D01*
X122259000Y-65578000D02*
X122259000Y-73678000D01*
X122259000Y-73678000D02*
X130359000Y-73678000D01*
X130359000Y-73678000D02*
X130359000Y-65578000D01*
D10*
%TO.C,R31*%
X105500000Y-54452500D02*
X106500000Y-54452500D01*
X106500000Y-54452500D02*
X106500000Y-54952500D01*
X106500000Y-54952500D02*
X105500000Y-54952500D01*
X105500000Y-54952500D02*
X105500000Y-54452500D01*
%TO.C,R6*%
X86557500Y-62310000D02*
X87057500Y-62310000D01*
X87057500Y-62310000D02*
X87057500Y-61310000D01*
X87057500Y-61310000D02*
X86557500Y-61310000D01*
X86557500Y-61310000D02*
X86557500Y-62310000D01*
%TO.C,R20*%
X125880000Y-63600000D02*
X125380000Y-63600000D01*
X125380000Y-63600000D02*
X125380000Y-64600000D01*
X125380000Y-64600000D02*
X125880000Y-64600000D01*
X125880000Y-64600000D02*
X125880000Y-63600000D01*
%TO.C,R29*%
X105420000Y-51817500D02*
X106420000Y-51817500D01*
X106420000Y-51817500D02*
X106420000Y-52317500D01*
X106420000Y-52317500D02*
X105420000Y-52317500D01*
X105420000Y-52317500D02*
X105420000Y-51817500D01*
%TO.C,R24*%
X124720000Y-57970000D02*
X124220000Y-57970000D01*
X124220000Y-57970000D02*
X124220000Y-58970000D01*
X124220000Y-58970000D02*
X124720000Y-58970000D01*
X124720000Y-58970000D02*
X124720000Y-57970000D01*
%TO.C,C10*%
X118819000Y-83631000D02*
X120421000Y-83631000D01*
X120421000Y-83631000D02*
X120421000Y-80430000D01*
X120421000Y-80430000D02*
X118819000Y-80430000D01*
X118819000Y-80430000D02*
X118819000Y-83631000D01*
%TO.C,U7*%
X114604000Y-58960000D02*
X119506000Y-58960000D01*
X119506000Y-58960000D02*
X119506000Y-52961000D01*
X119506000Y-52961000D02*
X114604000Y-52961000D01*
X114604000Y-52961000D02*
X114604000Y-58960000D01*
%TO.C,D1*%
X83830000Y-50110000D02*
X80030000Y-50110000D01*
X80030000Y-50110000D02*
X80030000Y-53610000D01*
X80030000Y-53610000D02*
X83830000Y-53610000D01*
X83830000Y-53610000D02*
X83830000Y-50110000D01*
%TO.C,R19*%
X130990000Y-63570000D02*
X130490000Y-63570000D01*
X130490000Y-63570000D02*
X130490000Y-64570000D01*
X130490000Y-64570000D02*
X130990000Y-64570000D01*
X130990000Y-64570000D02*
X130990000Y-63570000D01*
%TO.C,C25*%
X95176000Y-54656000D02*
X95176000Y-54657000D01*
X95176000Y-54657000D02*
X95176000Y-54657000D01*
X95176000Y-54657000D02*
X95176000Y-54658000D01*
X95176000Y-54658000D02*
X95176000Y-54658000D01*
X95176000Y-54658000D02*
X95176000Y-54658000D01*
X95176000Y-54658000D02*
X95176000Y-54659000D01*
X95176000Y-54659000D02*
X95176000Y-54659000D01*
X95176000Y-54659000D02*
X95176000Y-54660000D01*
X95176000Y-54660000D02*
X95176000Y-54662000D01*
X95176000Y-54662000D02*
X95176000Y-54662000D01*
X95176000Y-54662000D02*
X95176000Y-54662000D01*
X95176000Y-54662000D02*
X95176000Y-54662000D01*
X95176000Y-55140000D02*
X95176000Y-54662000D01*
X95176000Y-55140000D02*
X95176000Y-55140000D01*
X95176000Y-55140000D02*
X95176000Y-55140000D01*
X95176000Y-55140000D02*
X95176000Y-55140000D01*
X95176000Y-55140000D02*
X95176000Y-55140000D01*
X95176000Y-55140000D02*
X95176000Y-55140000D01*
X95176000Y-55140000D02*
X95176000Y-55141000D01*
X95176000Y-55141000D02*
X95176000Y-55141000D01*
X95176000Y-55141000D02*
X95176000Y-55141000D01*
X95176000Y-55141000D02*
X95176000Y-55142000D01*
X95176000Y-55142000D02*
X95176000Y-55142000D01*
X95176000Y-55142000D02*
X95176000Y-55143000D01*
X95176000Y-55143000D02*
X95177000Y-55143000D01*
X95177000Y-54655000D02*
X95177000Y-54655000D01*
X95177000Y-54655000D02*
X95177000Y-54655000D01*
X95177000Y-54655000D02*
X95177000Y-54656000D01*
X95177000Y-54656000D02*
X95176000Y-54656000D01*
X95177000Y-55143000D02*
X95177000Y-55144000D01*
X95177000Y-55144000D02*
X95177000Y-55144000D01*
X95177000Y-55144000D02*
X95177000Y-55144000D01*
X95177000Y-55144000D02*
X95178000Y-55145000D01*
X95178000Y-54653000D02*
X95178000Y-54654000D01*
X95178000Y-54654000D02*
X95177000Y-54655000D01*
X95178000Y-54654000D02*
X95178000Y-54654000D01*
X95178000Y-55145000D02*
X95178000Y-55145000D01*
X95178000Y-55145000D02*
X95178000Y-55146000D01*
X95178000Y-55146000D02*
X95179000Y-55146000D01*
X95179000Y-54653000D02*
X95178000Y-54653000D01*
X95179000Y-54653000D02*
X95179000Y-54653000D01*
X95179000Y-55146000D02*
X95179000Y-55146000D01*
X95179000Y-55146000D02*
X95180000Y-55147000D01*
X95180000Y-54652000D02*
X95179000Y-54653000D01*
X95180000Y-54652000D02*
X95180000Y-54652000D01*
X95180000Y-54652000D02*
X95180000Y-54652000D01*
X95180000Y-55147000D02*
X95180000Y-55147000D01*
X95180000Y-55147000D02*
X95180000Y-55147000D01*
X95180000Y-55147000D02*
X95181000Y-55147000D01*
X95181000Y-54651000D02*
X95181000Y-54652000D01*
X95181000Y-54652000D02*
X95180000Y-54652000D01*
X95181000Y-55147000D02*
X95181000Y-55148000D01*
X95181000Y-55148000D02*
X95182000Y-55148000D01*
X95182000Y-54651000D02*
X95181000Y-54651000D01*
X95182000Y-54651000D02*
X95182000Y-54651000D01*
X95182000Y-55148000D02*
X95182000Y-55148000D01*
X95182000Y-55148000D02*
X95183000Y-55148000D01*
X95183000Y-54651000D02*
X95182000Y-54651000D01*
X95183000Y-54651000D02*
X95183000Y-54651000D01*
X95183000Y-54651000D02*
X95183000Y-54651000D01*
X95183000Y-55148000D02*
X95183000Y-55148000D01*
X95183000Y-55148000D02*
X95183000Y-55148000D01*
X95183000Y-55148000D02*
X95184000Y-55148000D01*
X95184000Y-54651000D02*
X95183000Y-54651000D01*
X95184000Y-54651000D02*
X95184000Y-54651000D01*
X95184000Y-55148000D02*
X95184000Y-55148000D01*
X95184000Y-55148000D02*
X95185000Y-55148000D01*
X95186000Y-54651000D02*
X95376000Y-54651000D01*
X95376000Y-54651000D02*
X95376000Y-54662000D01*
X95376000Y-54662000D02*
X95376000Y-55140000D01*
X95376000Y-54662000D02*
X95973000Y-54662000D01*
X95376000Y-55140000D02*
X95376000Y-55148000D01*
X95376000Y-55140000D02*
X95973000Y-55140000D01*
X95376000Y-55148000D02*
X95186000Y-55148000D01*
X95973000Y-54651000D02*
X95973000Y-54662000D01*
X95973000Y-54662000D02*
X95973000Y-55140000D01*
X95973000Y-55140000D02*
X95973000Y-55148000D01*
X95973000Y-55148000D02*
X96163000Y-55148000D01*
X96163000Y-54651000D02*
X95973000Y-54651000D01*
X96165000Y-55148000D02*
X96166000Y-55148000D01*
X96166000Y-54651000D02*
X96165000Y-54651000D01*
X96166000Y-54651000D02*
X96166000Y-54651000D01*
X96166000Y-54651000D02*
X96166000Y-54651000D01*
X96166000Y-55148000D02*
X96166000Y-55148000D01*
X96166000Y-55148000D02*
X96166000Y-55148000D01*
X96166000Y-55148000D02*
X96167000Y-55148000D01*
X96167000Y-54651000D02*
X96166000Y-54651000D01*
X96167000Y-54651000D02*
X96167000Y-54651000D01*
X96167000Y-55148000D02*
X96167000Y-55148000D01*
X96167000Y-55148000D02*
X96168000Y-55148000D01*
X96168000Y-54651000D02*
X96167000Y-54651000D01*
X96168000Y-54652000D02*
X96168000Y-54651000D01*
X96168000Y-55147000D02*
X96169000Y-55147000D01*
X96168000Y-55148000D02*
X96168000Y-55147000D01*
X96169000Y-54652000D02*
X96168000Y-54652000D01*
X96169000Y-54652000D02*
X96169000Y-54652000D01*
X96169000Y-54652000D02*
X96169000Y-54652000D01*
X96169000Y-55147000D02*
X96169000Y-55147000D01*
X96169000Y-55147000D02*
X96169000Y-55147000D01*
X96169000Y-55147000D02*
X96170000Y-55146000D01*
X96170000Y-54653000D02*
X96169000Y-54652000D01*
X96170000Y-54653000D02*
X96170000Y-54653000D01*
X96170000Y-55146000D02*
X96170000Y-55146000D01*
X96170000Y-55146000D02*
X96171000Y-55146000D01*
X96171000Y-54653000D02*
X96170000Y-54653000D01*
X96171000Y-54654000D02*
X96171000Y-54653000D01*
X96171000Y-54654000D02*
X96171000Y-54654000D01*
X96171000Y-55145000D02*
X96171000Y-55145000D01*
X96171000Y-55145000D02*
X96172000Y-55144000D01*
X96171000Y-55146000D02*
X96171000Y-55145000D01*
X96172000Y-54655000D02*
X96171000Y-54654000D01*
X96172000Y-54655000D02*
X96172000Y-54655000D01*
X96172000Y-54655000D02*
X96172000Y-54655000D01*
X96172000Y-54656000D02*
X96172000Y-54655000D01*
X96172000Y-55143000D02*
X96173000Y-55143000D01*
X96172000Y-55144000D02*
X96172000Y-55143000D01*
X96172000Y-55144000D02*
X96172000Y-55144000D01*
X96172000Y-55144000D02*
X96172000Y-55144000D01*
X96173000Y-54656000D02*
X96172000Y-54656000D01*
X96173000Y-54657000D02*
X96173000Y-54656000D01*
X96173000Y-54657000D02*
X96173000Y-54657000D01*
X96173000Y-54658000D02*
X96173000Y-54657000D01*
X96173000Y-54658000D02*
X96173000Y-54658000D01*
X96173000Y-54658000D02*
X96173000Y-54658000D01*
X96173000Y-54659000D02*
X96173000Y-54658000D01*
X96173000Y-54659000D02*
X96173000Y-54659000D01*
X96173000Y-54660000D02*
X96173000Y-54659000D01*
X96173000Y-55140000D02*
X96173000Y-54662000D01*
X96173000Y-55140000D02*
X96173000Y-55140000D01*
X96173000Y-55141000D02*
X96173000Y-55140000D01*
X96173000Y-55141000D02*
X96173000Y-55141000D01*
X96173000Y-55141000D02*
X96173000Y-55141000D01*
X96173000Y-55142000D02*
X96173000Y-55141000D01*
X96173000Y-55142000D02*
X96173000Y-55142000D01*
X96173000Y-55143000D02*
X96173000Y-55142000D01*
%TO.C,C3*%
X129330000Y-75600000D02*
X126830000Y-75600000D01*
X126830000Y-75600000D02*
X126830000Y-78800000D01*
X126830000Y-78800000D02*
X129330000Y-78800000D01*
X129330000Y-78800000D02*
X129330000Y-75600000D01*
%TD*%
M02*
