%TF.GenerationSoftware,KiCad,Pcbnew,7.0.11+dfsg-1build4*%
%TF.CreationDate,2024-07-15T15:28:05+02:00*%
%TF.ProjectId,antmicro-poe-to-usbc-pd-adapter,616e746d-6963-4726-9f2d-706f652d746f,rev?*%
%TF.SameCoordinates,Original*%
%TF.FileFunction,Soldermask,Bot*%
%TF.FilePolarity,Negative*%
%FSLAX46Y46*%
G04 Gerber Fmt 4.6, Leading zero omitted, Abs format (unit mm)*
G04 Created by KiCad (PCBNEW 7.0.11+dfsg-1build4) date 2024-07-15 15:28:05 commit  463866a *
%MOMM*%
%LPD*%
G01*
G04 APERTURE LIST*
%ADD10C,3.250000*%
%ADD11C,1.397000*%
%ADD12C,1.524000*%
%ADD13C,2.100000*%
%ADD14C,2.108200*%
%ADD15C,5.400000*%
%ADD16C,2.030000*%
%ADD17C,2.590000*%
%ADD18C,0.400000*%
%ADD19C,0.650000*%
%ADD20O,2.100000X1.050000*%
%ADD21O,2.000000X1.000000*%
G04 APERTURE END LIST*
D10*
%TO.C,J1*%
X68310000Y-52001000D03*
X68310000Y-63430000D03*
D11*
X77210000Y-52001000D03*
X74671000Y-53270000D03*
X77210000Y-54540000D03*
X74671000Y-55810000D03*
X77210000Y-57079000D03*
X74671000Y-58350000D03*
X77210000Y-59619000D03*
X74671000Y-60891000D03*
X77210000Y-62160000D03*
X74671000Y-63430000D03*
X72132000Y-52001000D03*
X70871000Y-54540000D03*
X70871000Y-60891000D03*
X72140000Y-63430000D03*
D12*
X64252000Y-51074000D03*
X64252000Y-53615000D03*
X64252000Y-61815000D03*
X64252000Y-64356000D03*
D13*
X71360000Y-49865000D03*
D14*
X71360000Y-65564000D03*
%TD*%
D15*
%TO.C,REF\u002A\u002A*%
X150840000Y-46200000D03*
%TD*%
%TO.C,REF\u002A\u002A*%
X60010000Y-94060000D03*
%TD*%
D16*
%TO.C,U4*%
X62130000Y-71180000D03*
X62130000Y-78800000D03*
X62130000Y-86420000D03*
D17*
X112930000Y-86420000D03*
D16*
X112930000Y-82610000D03*
X112930000Y-78800000D03*
X112930000Y-74990000D03*
D17*
X112930000Y-71180000D03*
%TD*%
D15*
%TO.C,REF\u002A\u002A*%
X150840000Y-94050000D03*
%TD*%
%TO.C,REF\u002A\u002A*%
X60285000Y-46210000D03*
%TD*%
D18*
%TO.C,U2*%
X126625000Y-82490000D03*
X125355000Y-82490000D03*
X126625000Y-83790000D03*
X125355000Y-83790000D03*
%TD*%
D19*
%TO.C,J3*%
X147809000Y-78231000D03*
X147809000Y-72450000D03*
D20*
X147309000Y-79661000D03*
D21*
X151490000Y-79661000D03*
D20*
X147309000Y-71020000D03*
D21*
X151490000Y-71020000D03*
%TD*%
D10*
%TO.C,J2*%
X143015000Y-64228000D03*
X143015000Y-52799000D03*
D11*
X134115000Y-64228000D03*
X136654000Y-62959000D03*
X134115000Y-61689000D03*
X136654000Y-60419000D03*
X134115000Y-59150000D03*
X136654000Y-57879000D03*
X134115000Y-56610000D03*
X136654000Y-55338000D03*
X134115000Y-54069000D03*
X136654000Y-52799000D03*
X139193000Y-64228000D03*
X140454000Y-61689000D03*
X140454000Y-55338000D03*
X139185000Y-52799000D03*
D12*
X147073000Y-65155000D03*
X147073000Y-62614000D03*
X147073000Y-54414000D03*
X147073000Y-51873000D03*
D13*
X139965000Y-66364000D03*
D14*
X139965000Y-50665000D03*
%TD*%
D18*
%TO.C,U7*%
X116420000Y-56610000D03*
X117690000Y-56610000D03*
X116420000Y-55310000D03*
X117690000Y-55310000D03*
%TD*%
M02*
