%TF.GenerationSoftware,KiCad,Pcbnew,7.0.11+dfsg-1build4*%
%TF.CreationDate,2024-07-15T15:28:05+02:00*%
%TF.ProjectId,antmicro-poe-to-usbc-pd-adapter,616e746d-6963-4726-9f2d-706f652d746f,rev?*%
%TF.SameCoordinates,Original*%
%TF.FileFunction,Paste,Top*%
%TF.FilePolarity,Positive*%
%FSLAX46Y46*%
G04 Gerber Fmt 4.6, Leading zero omitted, Abs format (unit mm)*
G04 Created by KiCad (PCBNEW 7.0.11+dfsg-1build4) date 2024-07-15 15:28:05 commit  463866a *
%MOMM*%
%LPD*%
G01*
G04 APERTURE LIST*
G04 Aperture macros list*
%AMRoundRect*
0 Rectangle with rounded corners*
0 $1 Rounding radius*
0 $2 $3 $4 $5 $6 $7 $8 $9 X,Y pos of 4 corners*
0 Add a 4 corners polygon primitive as box body*
4,1,4,$2,$3,$4,$5,$6,$7,$8,$9,$2,$3,0*
0 Add four circle primitives for the rounded corners*
1,1,$1+$1,$2,$3*
1,1,$1+$1,$4,$5*
1,1,$1+$1,$6,$7*
1,1,$1+$1,$8,$9*
0 Add four rect primitives between the rounded corners*
20,1,$1+$1,$2,$3,$4,$5,0*
20,1,$1+$1,$4,$5,$6,$7,0*
20,1,$1+$1,$6,$7,$8,$9,0*
20,1,$1+$1,$8,$9,$2,$3,0*%
%AMOutline5P*
0 Free polygon, 5 corners , with rotation*
0 The origin of the aperture is its center*
0 number of corners: always 5*
0 $1 to $10 corner X, Y*
0 $11 Rotation angle, in degrees counterclockwise*
0 create outline with 5 corners*
4,1,5,$1,$2,$3,$4,$5,$6,$7,$8,$9,$10,$1,$2,$11*%
%AMOutline6P*
0 Free polygon, 6 corners , with rotation*
0 The origin of the aperture is its center*
0 number of corners: always 6*
0 $1 to $12 corner X, Y*
0 $13 Rotation angle, in degrees counterclockwise*
0 create outline with 6 corners*
4,1,6,$1,$2,$3,$4,$5,$6,$7,$8,$9,$10,$11,$12,$1,$2,$13*%
%AMOutline7P*
0 Free polygon, 7 corners , with rotation*
0 The origin of the aperture is its center*
0 number of corners: always 7*
0 $1 to $14 corner X, Y*
0 $15 Rotation angle, in degrees counterclockwise*
0 create outline with 7 corners*
4,1,7,$1,$2,$3,$4,$5,$6,$7,$8,$9,$10,$11,$12,$13,$14,$1,$2,$15*%
%AMOutline8P*
0 Free polygon, 8 corners , with rotation*
0 The origin of the aperture is its center*
0 number of corners: always 8*
0 $1 to $16 corner X, Y*
0 $17 Rotation angle, in degrees counterclockwise*
0 create outline with 8 corners*
4,1,8,$1,$2,$3,$4,$5,$6,$7,$8,$9,$10,$11,$12,$13,$14,$15,$16,$1,$2,$17*%
G04 Aperture macros list end*
%ADD10C,0.010000*%
%ADD11C,0.000100*%
%ADD12RoundRect,0.300000X0.350000X-0.300000X0.350000X0.300000X-0.350000X0.300000X-0.350000X-0.300000X0*%
%ADD13RoundRect,0.147500X-0.172500X0.147500X-0.172500X-0.147500X0.172500X-0.147500X0.172500X0.147500X0*%
%ADD14Outline5P,-0.650000X0.550000X0.650000X0.550000X0.650000X-0.550000X-0.430000X-0.550000X-0.650000X-0.330000X0.000000*%
%ADD15R,1.300000X1.100000*%
%ADD16RoundRect,0.160000X-0.340000X0.240000X-0.340000X-0.240000X0.340000X-0.240000X0.340000X0.240000X0*%
%ADD17RoundRect,0.147500X-0.147500X-0.172500X0.147500X-0.172500X0.147500X0.172500X-0.147500X0.172500X0*%
%ADD18R,1.500000X2.750000*%
%ADD19RoundRect,0.160000X0.340000X-0.240000X0.340000X0.240000X-0.340000X0.240000X-0.340000X-0.240000X0*%
%ADD20RoundRect,0.160000X0.240000X0.340000X-0.240000X0.340000X-0.240000X-0.340000X0.240000X-0.340000X0*%
%ADD21R,3.050000X1.520000*%
%ADD22RoundRect,0.168000X-2.262000X1.512000X-2.262000X-1.512000X2.262000X-1.512000X2.262000X1.512000X0*%
%ADD23RoundRect,0.347500X0.352500X-0.347500X0.352500X0.347500X-0.352500X0.347500X-0.352500X-0.347500X0*%
%ADD24RoundRect,0.347500X-0.352500X0.347500X-0.352500X-0.347500X0.352500X-0.347500X0.352500X0.347500X0*%
%ADD25RoundRect,0.147500X0.172500X-0.147500X0.172500X0.147500X-0.172500X0.147500X-0.172500X-0.147500X0*%
%ADD26RoundRect,0.135000X-0.315000X-0.340000X0.315000X-0.340000X0.315000X0.340000X-0.315000X0.340000X0*%
%ADD27R,0.400000X0.510000*%
%ADD28RoundRect,0.287500X-0.612500X0.287500X-0.612500X-0.287500X0.612500X-0.287500X0.612500X0.287500X0*%
%ADD29RoundRect,0.125000X-2.225000X0.500000X-2.225000X-0.500000X2.225000X-0.500000X2.225000X0.500000X0*%
%ADD30RoundRect,0.050000X-0.300000X-0.050000X0.300000X-0.050000X0.300000X0.050000X-0.300000X0.050000X0*%
%ADD31RoundRect,0.050000X0.050000X-0.300000X0.050000X0.300000X-0.050000X0.300000X-0.050000X-0.300000X0*%
%ADD32R,0.650000X1.525000*%
%ADD33R,3.400000X2.710000*%
%ADD34RoundRect,0.147500X0.147500X0.172500X-0.147500X0.172500X-0.147500X-0.172500X0.147500X-0.172500X0*%
%ADD35RoundRect,0.287500X-0.287500X-0.612500X0.287500X-0.612500X0.287500X0.612500X-0.287500X0.612500X0*%
%ADD36RoundRect,0.300000X-0.300000X0.300000X-0.300000X-0.300000X0.300000X-0.300000X0.300000X0.300000X0*%
%ADD37RoundRect,0.160000X-0.240000X-0.340000X0.240000X-0.340000X0.240000X0.340000X-0.240000X0.340000X0*%
%ADD38RoundRect,0.050000X-0.250000X-0.075000X0.250000X-0.075000X0.250000X0.075000X-0.250000X0.075000X0*%
%ADD39RoundRect,0.050000X0.075000X-0.250000X0.075000X0.250000X-0.075000X0.250000X-0.075000X-0.250000X0*%
%ADD40RoundRect,0.050000X0.250000X0.075000X-0.250000X0.075000X-0.250000X-0.075000X0.250000X-0.075000X0*%
%ADD41RoundRect,0.050000X-0.075000X0.250000X-0.075000X-0.250000X0.075000X-0.250000X0.075000X0.250000X0*%
%ADD42RoundRect,0.050000X-0.790000X-0.790000X0.790000X-0.790000X0.790000X0.790000X-0.790000X0.790000X0*%
%ADD43RoundRect,0.077500X0.077500X-0.297500X0.077500X0.297500X-0.077500X0.297500X-0.077500X-0.297500X0*%
%ADD44RoundRect,0.077500X0.297500X-0.077500X0.297500X0.077500X-0.297500X0.077500X-0.297500X-0.077500X0*%
%ADD45RoundRect,0.150000X0.425000X-0.150000X0.425000X0.150000X-0.425000X0.150000X-0.425000X-0.150000X0*%
%ADD46RoundRect,0.075000X0.500000X-0.075000X0.500000X0.075000X-0.500000X0.075000X-0.500000X-0.075000X0*%
%ADD47RoundRect,0.120000X0.580000X0.120000X-0.580000X0.120000X-0.580000X-0.120000X0.580000X-0.120000X0*%
%ADD48RoundRect,0.250000X-0.315000X0.315000X-0.315000X-0.315000X0.315000X-0.315000X0.315000X0.315000X0*%
%ADD49RoundRect,0.075000X-0.075000X0.362500X-0.075000X-0.362500X0.075000X-0.362500X0.075000X0.362500X0*%
%ADD50RoundRect,0.075000X-0.362500X-0.075000X0.362500X-0.075000X0.362500X0.075000X-0.362500X0.075000X0*%
%ADD51RoundRect,0.287500X0.612500X-0.287500X0.612500X0.287500X-0.612500X0.287500X-0.612500X-0.287500X0*%
%ADD52RoundRect,0.120000X-0.580000X-0.120000X0.580000X-0.120000X0.580000X0.120000X-0.580000X0.120000X0*%
G04 APERTURE END LIST*
%TO.C,U6*%
D10*
X99549000Y-51599000D02*
X98080000Y-51599000D01*
X98080000Y-50448000D01*
X99549000Y-50448000D01*
X99549000Y-51599000D01*
G36*
X99549000Y-51599000D02*
G01*
X98080000Y-51599000D01*
X98080000Y-50448000D01*
X99549000Y-50448000D01*
X99549000Y-51599000D01*
G37*
X99549000Y-52948000D02*
X98080000Y-52948000D01*
X98080000Y-51799000D01*
X99549000Y-51799000D01*
X99549000Y-52948000D01*
G36*
X99549000Y-52948000D02*
G01*
X98080000Y-52948000D01*
X98080000Y-51799000D01*
X99549000Y-51799000D01*
X99549000Y-52948000D01*
G37*
X99549000Y-54524000D02*
X98080000Y-54524000D01*
X98080000Y-53375000D01*
X99549000Y-53375000D01*
X99549000Y-54524000D01*
G36*
X99549000Y-54524000D02*
G01*
X98080000Y-54524000D01*
X98080000Y-53375000D01*
X99549000Y-53375000D01*
X99549000Y-54524000D01*
G37*
X99549000Y-55875000D02*
X98080000Y-55875000D01*
X98080000Y-54724000D01*
X99549000Y-54724000D01*
X99549000Y-55875000D01*
G36*
X99549000Y-55875000D02*
G01*
X98080000Y-55875000D01*
X98080000Y-54724000D01*
X99549000Y-54724000D01*
X99549000Y-55875000D01*
G37*
X101639000Y-51730000D02*
X100168000Y-51730000D01*
X100168000Y-50610000D01*
X101639000Y-50610000D01*
X101639000Y-51730000D01*
G36*
X101639000Y-51730000D02*
G01*
X100168000Y-51730000D01*
X100168000Y-50610000D01*
X101639000Y-50610000D01*
X101639000Y-51730000D01*
G37*
X101639000Y-53048000D02*
X100168000Y-53048000D01*
X100168000Y-51930000D01*
X101639000Y-51930000D01*
X101639000Y-53048000D01*
G36*
X101639000Y-53048000D02*
G01*
X100168000Y-53048000D01*
X100168000Y-51930000D01*
X101639000Y-51930000D01*
X101639000Y-53048000D01*
G37*
X101639000Y-54369000D02*
X100168000Y-54369000D01*
X100168000Y-53250000D01*
X101639000Y-53250000D01*
X101639000Y-54369000D01*
G36*
X101639000Y-54369000D02*
G01*
X100168000Y-54369000D01*
X100168000Y-53250000D01*
X101639000Y-53250000D01*
X101639000Y-54369000D01*
G37*
X101639000Y-55689000D02*
X100168000Y-55689000D01*
X100168000Y-54569000D01*
X101639000Y-54569000D01*
X101639000Y-55689000D01*
G36*
X101639000Y-55689000D02*
G01*
X100168000Y-55689000D01*
X100168000Y-54569000D01*
X101639000Y-54569000D01*
X101639000Y-55689000D01*
G37*
X103310000Y-51730000D02*
X101838000Y-51730000D01*
X101838000Y-50610000D01*
X103310000Y-50610000D01*
X103310000Y-51730000D01*
G36*
X103310000Y-51730000D02*
G01*
X101838000Y-51730000D01*
X101838000Y-50610000D01*
X103310000Y-50610000D01*
X103310000Y-51730000D01*
G37*
X103310000Y-53048000D02*
X101838000Y-53048000D01*
X101838000Y-51930000D01*
X103310000Y-51930000D01*
X103310000Y-53048000D01*
G36*
X103310000Y-53048000D02*
G01*
X101838000Y-53048000D01*
X101838000Y-51930000D01*
X103310000Y-51930000D01*
X103310000Y-53048000D01*
G37*
X103310000Y-54369000D02*
X101838000Y-54369000D01*
X101838000Y-53250000D01*
X103310000Y-53250000D01*
X103310000Y-54369000D01*
G36*
X103310000Y-54369000D02*
G01*
X101838000Y-54369000D01*
X101838000Y-53250000D01*
X103310000Y-53250000D01*
X103310000Y-54369000D01*
G37*
X103310000Y-55689000D02*
X101838000Y-55689000D01*
X101838000Y-54569000D01*
X103310000Y-54569000D01*
X103310000Y-55689000D01*
G36*
X103310000Y-55689000D02*
G01*
X101838000Y-55689000D01*
X101838000Y-54569000D01*
X103310000Y-54569000D01*
X103310000Y-55689000D01*
G37*
D11*
X97658000Y-55253000D02*
X97659000Y-55254000D01*
X97662000Y-55254000D01*
X97665000Y-55257000D01*
X97666000Y-55258000D01*
X97669000Y-55258000D01*
X97670000Y-55261000D01*
X97673000Y-55262000D01*
X97674000Y-55265000D01*
X97677000Y-55266000D01*
X97678000Y-55269000D01*
X97679000Y-55270000D01*
X97682000Y-55273000D01*
X97682000Y-55274000D01*
X97685000Y-55275000D01*
X97686000Y-55278000D01*
X97686000Y-55282000D01*
X97687000Y-55283000D01*
X97687000Y-55286000D01*
X97689000Y-55290000D01*
X97690000Y-55294000D01*
X97690000Y-55295000D01*
X97690000Y-55298000D01*
X97690000Y-55798000D01*
X97690000Y-55802000D01*
X97690000Y-55803000D01*
X97689000Y-55806000D01*
X97689000Y-55810000D01*
X97687000Y-55811000D01*
X97687000Y-55814000D01*
X97686000Y-55818000D01*
X97685000Y-55822000D01*
X97682000Y-55823000D01*
X97682000Y-55826000D01*
X97679000Y-55827000D01*
X97678000Y-55830000D01*
X97677000Y-55831000D01*
X97674000Y-55834000D01*
X97673000Y-55835000D01*
X97670000Y-55839000D01*
X97669000Y-55839000D01*
X97666000Y-55842000D01*
X97665000Y-55843000D01*
X97662000Y-55843000D01*
X97659000Y-55846000D01*
X97658000Y-55847000D01*
X97654000Y-55847000D01*
X97653000Y-55847000D01*
X97650000Y-55847000D01*
X97647000Y-55847000D01*
X97645000Y-55850000D01*
X97642000Y-55850000D01*
X97639000Y-55850000D01*
X97040000Y-55850000D01*
X97037000Y-55850000D01*
X97034000Y-55850000D01*
X97032000Y-55847000D01*
X97029000Y-55847000D01*
X97026000Y-55847000D01*
X97025000Y-55847000D01*
X97021000Y-55847000D01*
X97020000Y-55846000D01*
X97017000Y-55843000D01*
X97014000Y-55843000D01*
X97013000Y-55842000D01*
X97010000Y-55839000D01*
X97009000Y-55839000D01*
X97006000Y-55835000D01*
X97005000Y-55834000D01*
X97002000Y-55831000D01*
X97001000Y-55830000D01*
X97000000Y-55827000D01*
X96997000Y-55826000D01*
X96997000Y-55823000D01*
X96994000Y-55822000D01*
X96993000Y-55818000D01*
X96992000Y-55814000D01*
X96992000Y-55811000D01*
X96990000Y-55810000D01*
X96990000Y-55806000D01*
X96989000Y-55803000D01*
X96989000Y-55802000D01*
X96989000Y-55798000D01*
X96989000Y-55698000D01*
X96989000Y-55697000D01*
X96989000Y-55693000D01*
X96990000Y-55690000D01*
X96990000Y-55689000D01*
X96992000Y-55685000D01*
X96993000Y-55681000D01*
X96993000Y-55678000D01*
X96994000Y-55677000D01*
X96997000Y-55673000D01*
X97000000Y-55669000D01*
X97001000Y-55669000D01*
X97002000Y-55665000D01*
X97005000Y-55665000D01*
X97006000Y-55661000D01*
X97009000Y-55661000D01*
X97010000Y-55658000D01*
X97013000Y-55657000D01*
X97014000Y-55657000D01*
X97017000Y-55653000D01*
X97020000Y-55653000D01*
X97021000Y-55653000D01*
X97025000Y-55650000D01*
X97026000Y-55650000D01*
X97029000Y-55649000D01*
X97032000Y-55649000D01*
X97034000Y-55649000D01*
X97037000Y-55649000D01*
X97040000Y-55649000D01*
X97440000Y-55649000D01*
X97443000Y-55649000D01*
X97444000Y-55649000D01*
X97448000Y-55649000D01*
X97452000Y-55648000D01*
X97455000Y-55648000D01*
X97456000Y-55645000D01*
X97460000Y-55645000D01*
X97463000Y-55645000D01*
X97464000Y-55641000D01*
X97467000Y-55641000D01*
X97468000Y-55640000D01*
X97471000Y-55637000D01*
X97472000Y-55637000D01*
X97475000Y-55633000D01*
X97476000Y-55633000D01*
X97479000Y-55629000D01*
X97480000Y-55629000D01*
X97480000Y-55625000D01*
X97483000Y-55625000D01*
X97484000Y-55621000D01*
X97484000Y-55620000D01*
X97487000Y-55617000D01*
X97488000Y-55613000D01*
X97488000Y-55609000D01*
X97488000Y-55608000D01*
X97488000Y-55605000D01*
X97488000Y-55601000D01*
X97488000Y-55600000D01*
X97488000Y-55500000D01*
X97488000Y-55496000D01*
X97488000Y-55495000D01*
X97488000Y-55492000D01*
X97488000Y-55488000D01*
X97488000Y-55487000D01*
X97488000Y-55484000D01*
X97487000Y-55480000D01*
X97484000Y-55480000D01*
X97484000Y-55476000D01*
X97483000Y-55475000D01*
X97480000Y-55472000D01*
X97480000Y-55471000D01*
X97479000Y-55468000D01*
X97476000Y-55467000D01*
X97475000Y-55464000D01*
X97472000Y-55463000D01*
X97471000Y-55460000D01*
X97468000Y-55460000D01*
X97467000Y-55456000D01*
X97464000Y-55456000D01*
X97463000Y-55455000D01*
X97460000Y-55452000D01*
X97456000Y-55451000D01*
X97455000Y-55451000D01*
X97452000Y-55451000D01*
X97448000Y-55451000D01*
X97444000Y-55448000D01*
X97443000Y-55448000D01*
X97440000Y-55448000D01*
X97040000Y-55448000D01*
X97037000Y-55448000D01*
X97034000Y-55448000D01*
X97032000Y-55447000D01*
X97029000Y-55447000D01*
X97026000Y-55447000D01*
X97025000Y-55447000D01*
X97021000Y-55447000D01*
X97020000Y-55444000D01*
X97017000Y-55443000D01*
X97014000Y-55443000D01*
X97013000Y-55440000D01*
X97010000Y-55439000D01*
X97009000Y-55439000D01*
X97006000Y-55435000D01*
X97005000Y-55435000D01*
X97002000Y-55431000D01*
X97001000Y-55431000D01*
X97000000Y-55427000D01*
X96997000Y-55427000D01*
X96997000Y-55423000D01*
X96994000Y-55423000D01*
X96993000Y-55419000D01*
X96993000Y-55416000D01*
X96992000Y-55415000D01*
X96992000Y-55411000D01*
X96990000Y-55408000D01*
X96990000Y-55407000D01*
X96989000Y-55403000D01*
X96989000Y-55399000D01*
X96989000Y-55298000D01*
X96989000Y-55295000D01*
X96989000Y-55294000D01*
X96990000Y-55290000D01*
X96992000Y-55286000D01*
X96992000Y-55283000D01*
X96993000Y-55282000D01*
X96993000Y-55278000D01*
X96994000Y-55275000D01*
X96997000Y-55274000D01*
X96997000Y-55273000D01*
X97000000Y-55270000D01*
X97001000Y-55269000D01*
X97002000Y-55266000D01*
X97005000Y-55265000D01*
X97006000Y-55262000D01*
X97009000Y-55261000D01*
X97010000Y-55258000D01*
X97013000Y-55258000D01*
X97014000Y-55257000D01*
X97017000Y-55254000D01*
X97020000Y-55254000D01*
X97021000Y-55253000D01*
X97025000Y-55250000D01*
X97026000Y-55250000D01*
X97029000Y-55250000D01*
X97032000Y-55250000D01*
X97034000Y-55250000D01*
X97037000Y-55250000D01*
X97040000Y-55250000D01*
X97639000Y-55250000D01*
X97642000Y-55250000D01*
X97645000Y-55250000D01*
X97647000Y-55250000D01*
X97650000Y-55250000D01*
X97653000Y-55250000D01*
X97654000Y-55250000D01*
X97658000Y-55253000D01*
G36*
X97658000Y-55253000D02*
G01*
X97659000Y-55254000D01*
X97662000Y-55254000D01*
X97665000Y-55257000D01*
X97666000Y-55258000D01*
X97669000Y-55258000D01*
X97670000Y-55261000D01*
X97673000Y-55262000D01*
X97674000Y-55265000D01*
X97677000Y-55266000D01*
X97678000Y-55269000D01*
X97679000Y-55270000D01*
X97682000Y-55273000D01*
X97682000Y-55274000D01*
X97685000Y-55275000D01*
X97686000Y-55278000D01*
X97686000Y-55282000D01*
X97687000Y-55283000D01*
X97687000Y-55286000D01*
X97689000Y-55290000D01*
X97690000Y-55294000D01*
X97690000Y-55295000D01*
X97690000Y-55298000D01*
X97690000Y-55798000D01*
X97690000Y-55802000D01*
X97690000Y-55803000D01*
X97689000Y-55806000D01*
X97689000Y-55810000D01*
X97687000Y-55811000D01*
X97687000Y-55814000D01*
X97686000Y-55818000D01*
X97685000Y-55822000D01*
X97682000Y-55823000D01*
X97682000Y-55826000D01*
X97679000Y-55827000D01*
X97678000Y-55830000D01*
X97677000Y-55831000D01*
X97674000Y-55834000D01*
X97673000Y-55835000D01*
X97670000Y-55839000D01*
X97669000Y-55839000D01*
X97666000Y-55842000D01*
X97665000Y-55843000D01*
X97662000Y-55843000D01*
X97659000Y-55846000D01*
X97658000Y-55847000D01*
X97654000Y-55847000D01*
X97653000Y-55847000D01*
X97650000Y-55847000D01*
X97647000Y-55847000D01*
X97645000Y-55850000D01*
X97642000Y-55850000D01*
X97639000Y-55850000D01*
X97040000Y-55850000D01*
X97037000Y-55850000D01*
X97034000Y-55850000D01*
X97032000Y-55847000D01*
X97029000Y-55847000D01*
X97026000Y-55847000D01*
X97025000Y-55847000D01*
X97021000Y-55847000D01*
X97020000Y-55846000D01*
X97017000Y-55843000D01*
X97014000Y-55843000D01*
X97013000Y-55842000D01*
X97010000Y-55839000D01*
X97009000Y-55839000D01*
X97006000Y-55835000D01*
X97005000Y-55834000D01*
X97002000Y-55831000D01*
X97001000Y-55830000D01*
X97000000Y-55827000D01*
X96997000Y-55826000D01*
X96997000Y-55823000D01*
X96994000Y-55822000D01*
X96993000Y-55818000D01*
X96992000Y-55814000D01*
X96992000Y-55811000D01*
X96990000Y-55810000D01*
X96990000Y-55806000D01*
X96989000Y-55803000D01*
X96989000Y-55802000D01*
X96989000Y-55798000D01*
X96989000Y-55698000D01*
X96989000Y-55697000D01*
X96989000Y-55693000D01*
X96990000Y-55690000D01*
X96990000Y-55689000D01*
X96992000Y-55685000D01*
X96993000Y-55681000D01*
X96993000Y-55678000D01*
X96994000Y-55677000D01*
X96997000Y-55673000D01*
X97000000Y-55669000D01*
X97001000Y-55669000D01*
X97002000Y-55665000D01*
X97005000Y-55665000D01*
X97006000Y-55661000D01*
X97009000Y-55661000D01*
X97010000Y-55658000D01*
X97013000Y-55657000D01*
X97014000Y-55657000D01*
X97017000Y-55653000D01*
X97020000Y-55653000D01*
X97021000Y-55653000D01*
X97025000Y-55650000D01*
X97026000Y-55650000D01*
X97029000Y-55649000D01*
X97032000Y-55649000D01*
X97034000Y-55649000D01*
X97037000Y-55649000D01*
X97040000Y-55649000D01*
X97440000Y-55649000D01*
X97443000Y-55649000D01*
X97444000Y-55649000D01*
X97448000Y-55649000D01*
X97452000Y-55648000D01*
X97455000Y-55648000D01*
X97456000Y-55645000D01*
X97460000Y-55645000D01*
X97463000Y-55645000D01*
X97464000Y-55641000D01*
X97467000Y-55641000D01*
X97468000Y-55640000D01*
X97471000Y-55637000D01*
X97472000Y-55637000D01*
X97475000Y-55633000D01*
X97476000Y-55633000D01*
X97479000Y-55629000D01*
X97480000Y-55629000D01*
X97480000Y-55625000D01*
X97483000Y-55625000D01*
X97484000Y-55621000D01*
X97484000Y-55620000D01*
X97487000Y-55617000D01*
X97488000Y-55613000D01*
X97488000Y-55609000D01*
X97488000Y-55608000D01*
X97488000Y-55605000D01*
X97488000Y-55601000D01*
X97488000Y-55600000D01*
X97488000Y-55500000D01*
X97488000Y-55496000D01*
X97488000Y-55495000D01*
X97488000Y-55492000D01*
X97488000Y-55488000D01*
X97488000Y-55487000D01*
X97488000Y-55484000D01*
X97487000Y-55480000D01*
X97484000Y-55480000D01*
X97484000Y-55476000D01*
X97483000Y-55475000D01*
X97480000Y-55472000D01*
X97480000Y-55471000D01*
X97479000Y-55468000D01*
X97476000Y-55467000D01*
X97475000Y-55464000D01*
X97472000Y-55463000D01*
X97471000Y-55460000D01*
X97468000Y-55460000D01*
X97467000Y-55456000D01*
X97464000Y-55456000D01*
X97463000Y-55455000D01*
X97460000Y-55452000D01*
X97456000Y-55451000D01*
X97455000Y-55451000D01*
X97452000Y-55451000D01*
X97448000Y-55451000D01*
X97444000Y-55448000D01*
X97443000Y-55448000D01*
X97440000Y-55448000D01*
X97040000Y-55448000D01*
X97037000Y-55448000D01*
X97034000Y-55448000D01*
X97032000Y-55447000D01*
X97029000Y-55447000D01*
X97026000Y-55447000D01*
X97025000Y-55447000D01*
X97021000Y-55447000D01*
X97020000Y-55444000D01*
X97017000Y-55443000D01*
X97014000Y-55443000D01*
X97013000Y-55440000D01*
X97010000Y-55439000D01*
X97009000Y-55439000D01*
X97006000Y-55435000D01*
X97005000Y-55435000D01*
X97002000Y-55431000D01*
X97001000Y-55431000D01*
X97000000Y-55427000D01*
X96997000Y-55427000D01*
X96997000Y-55423000D01*
X96994000Y-55423000D01*
X96993000Y-55419000D01*
X96993000Y-55416000D01*
X96992000Y-55415000D01*
X96992000Y-55411000D01*
X96990000Y-55408000D01*
X96990000Y-55407000D01*
X96989000Y-55403000D01*
X96989000Y-55399000D01*
X96989000Y-55298000D01*
X96989000Y-55295000D01*
X96989000Y-55294000D01*
X96990000Y-55290000D01*
X96992000Y-55286000D01*
X96992000Y-55283000D01*
X96993000Y-55282000D01*
X96993000Y-55278000D01*
X96994000Y-55275000D01*
X96997000Y-55274000D01*
X96997000Y-55273000D01*
X97000000Y-55270000D01*
X97001000Y-55269000D01*
X97002000Y-55266000D01*
X97005000Y-55265000D01*
X97006000Y-55262000D01*
X97009000Y-55261000D01*
X97010000Y-55258000D01*
X97013000Y-55258000D01*
X97014000Y-55257000D01*
X97017000Y-55254000D01*
X97020000Y-55254000D01*
X97021000Y-55253000D01*
X97025000Y-55250000D01*
X97026000Y-55250000D01*
X97029000Y-55250000D01*
X97032000Y-55250000D01*
X97034000Y-55250000D01*
X97037000Y-55250000D01*
X97040000Y-55250000D01*
X97639000Y-55250000D01*
X97642000Y-55250000D01*
X97645000Y-55250000D01*
X97647000Y-55250000D01*
X97650000Y-55250000D01*
X97653000Y-55250000D01*
X97654000Y-55250000D01*
X97658000Y-55253000D01*
G37*
X97647000Y-50451000D02*
X97650000Y-50451000D01*
X97653000Y-50452000D01*
X97654000Y-50452000D01*
X97658000Y-50452000D01*
X97659000Y-50452000D01*
X97662000Y-50455000D01*
X97665000Y-50456000D01*
X97666000Y-50456000D01*
X97669000Y-50460000D01*
X97670000Y-50460000D01*
X97673000Y-50462000D01*
X97674000Y-50465000D01*
X97677000Y-50466000D01*
X97678000Y-50469000D01*
X97679000Y-50470000D01*
X97682000Y-50473000D01*
X97682000Y-50474000D01*
X97685000Y-50477000D01*
X97686000Y-50480000D01*
X97686000Y-50481000D01*
X97687000Y-50485000D01*
X97687000Y-50486000D01*
X97689000Y-50489000D01*
X97689000Y-50492000D01*
X97690000Y-50494000D01*
X97690000Y-50497000D01*
X97690000Y-50500000D01*
X97690000Y-51000000D01*
X97690000Y-51002000D01*
X97690000Y-51005000D01*
X97689000Y-51008000D01*
X97689000Y-51009000D01*
X97687000Y-51013000D01*
X97687000Y-51014000D01*
X97686000Y-51017000D01*
X97686000Y-51020000D01*
X97685000Y-51022000D01*
X97682000Y-51025000D01*
X97679000Y-51029000D01*
X97678000Y-51029000D01*
X97677000Y-51033000D01*
X97674000Y-51033000D01*
X97673000Y-51037000D01*
X97670000Y-51037000D01*
X97669000Y-51040000D01*
X97666000Y-51041000D01*
X97665000Y-51041000D01*
X97662000Y-51045000D01*
X97659000Y-51045000D01*
X97658000Y-51045000D01*
X97654000Y-51048000D01*
X97653000Y-51048000D01*
X97650000Y-51049000D01*
X97647000Y-51049000D01*
X97645000Y-51049000D01*
X97642000Y-51049000D01*
X97639000Y-51049000D01*
X97040000Y-51049000D01*
X97037000Y-51049000D01*
X97034000Y-51049000D01*
X97032000Y-51049000D01*
X97029000Y-51049000D01*
X97026000Y-51048000D01*
X97025000Y-51048000D01*
X97021000Y-51045000D01*
X97020000Y-51045000D01*
X97017000Y-51045000D01*
X97014000Y-51041000D01*
X97013000Y-51041000D01*
X97010000Y-51040000D01*
X97009000Y-51037000D01*
X97006000Y-51037000D01*
X97005000Y-51033000D01*
X97002000Y-51033000D01*
X97001000Y-51029000D01*
X97000000Y-51029000D01*
X96997000Y-51025000D01*
X96994000Y-51022000D01*
X96993000Y-51020000D01*
X96993000Y-51017000D01*
X96992000Y-51014000D01*
X96992000Y-51013000D01*
X96990000Y-51009000D01*
X96990000Y-51008000D01*
X96989000Y-51005000D01*
X96989000Y-51002000D01*
X96989000Y-51000000D01*
X96989000Y-50900000D01*
X96989000Y-50896000D01*
X96989000Y-50895000D01*
X96990000Y-50892000D01*
X96990000Y-50889000D01*
X96992000Y-50887000D01*
X96992000Y-50884000D01*
X96993000Y-50881000D01*
X96993000Y-50880000D01*
X96994000Y-50876000D01*
X96997000Y-50875000D01*
X96997000Y-50872000D01*
X97000000Y-50871000D01*
X97001000Y-50868000D01*
X97002000Y-50867000D01*
X97005000Y-50864000D01*
X97006000Y-50863000D01*
X97009000Y-50860000D01*
X97010000Y-50860000D01*
X97013000Y-50857000D01*
X97014000Y-50856000D01*
X97017000Y-50855000D01*
X97020000Y-50853000D01*
X97021000Y-50852000D01*
X97025000Y-50852000D01*
X97026000Y-50852000D01*
X97029000Y-50851000D01*
X97032000Y-50851000D01*
X97034000Y-50849000D01*
X97037000Y-50849000D01*
X97040000Y-50849000D01*
X97440000Y-50849000D01*
X97443000Y-50849000D01*
X97444000Y-50849000D01*
X97448000Y-50848000D01*
X97452000Y-50848000D01*
X97455000Y-50848000D01*
X97456000Y-50847000D01*
X97460000Y-50845000D01*
X97463000Y-50843000D01*
X97464000Y-50843000D01*
X97467000Y-50842000D01*
X97468000Y-50839000D01*
X97471000Y-50839000D01*
X97472000Y-50835000D01*
X97475000Y-50835000D01*
X97476000Y-50831000D01*
X97479000Y-50831000D01*
X97480000Y-50827000D01*
X97483000Y-50823000D01*
X97484000Y-50823000D01*
X97484000Y-50819000D01*
X97487000Y-50818000D01*
X97488000Y-50815000D01*
X97488000Y-50811000D01*
X97488000Y-50810000D01*
X97488000Y-50807000D01*
X97488000Y-50803000D01*
X97488000Y-50799000D01*
X97488000Y-50698000D01*
X97488000Y-50697000D01*
X97488000Y-50694000D01*
X97488000Y-50690000D01*
X97488000Y-50686000D01*
X97488000Y-50685000D01*
X97487000Y-50682000D01*
X97484000Y-50678000D01*
X97484000Y-50677000D01*
X97483000Y-50674000D01*
X97480000Y-50673000D01*
X97480000Y-50670000D01*
X97479000Y-50669000D01*
X97476000Y-50666000D01*
X97475000Y-50665000D01*
X97472000Y-50662000D01*
X97471000Y-50661000D01*
X97468000Y-50658000D01*
X97467000Y-50658000D01*
X97464000Y-50657000D01*
X97463000Y-50654000D01*
X97460000Y-50654000D01*
X97456000Y-50653000D01*
X97455000Y-50650000D01*
X97452000Y-50650000D01*
X97448000Y-50650000D01*
X97444000Y-50650000D01*
X97443000Y-50650000D01*
X97440000Y-50650000D01*
X97040000Y-50650000D01*
X97037000Y-50650000D01*
X97034000Y-50650000D01*
X97032000Y-50649000D01*
X97029000Y-50649000D01*
X97026000Y-50647000D01*
X97025000Y-50647000D01*
X97021000Y-50646000D01*
X97020000Y-50646000D01*
X97017000Y-50645000D01*
X97014000Y-50642000D01*
X97013000Y-50642000D01*
X97010000Y-50639000D01*
X97009000Y-50638000D01*
X97006000Y-50637000D01*
X97005000Y-50634000D01*
X97002000Y-50633000D01*
X97001000Y-50630000D01*
X97000000Y-50629000D01*
X96997000Y-50626000D01*
X96997000Y-50625000D01*
X96994000Y-50622000D01*
X96993000Y-50619000D01*
X96993000Y-50618000D01*
X96992000Y-50614000D01*
X96992000Y-50613000D01*
X96990000Y-50610000D01*
X96990000Y-50607000D01*
X96989000Y-50605000D01*
X96989000Y-50602000D01*
X96989000Y-50599000D01*
X96989000Y-50500000D01*
X96989000Y-50497000D01*
X96989000Y-50494000D01*
X96990000Y-50492000D01*
X96990000Y-50489000D01*
X96992000Y-50486000D01*
X96992000Y-50485000D01*
X96993000Y-50481000D01*
X96993000Y-50480000D01*
X96994000Y-50477000D01*
X96997000Y-50474000D01*
X96997000Y-50473000D01*
X97000000Y-50470000D01*
X97001000Y-50469000D01*
X97002000Y-50466000D01*
X97005000Y-50465000D01*
X97006000Y-50462000D01*
X97009000Y-50460000D01*
X97010000Y-50460000D01*
X97013000Y-50456000D01*
X97014000Y-50456000D01*
X97017000Y-50455000D01*
X97020000Y-50452000D01*
X97021000Y-50452000D01*
X97025000Y-50452000D01*
X97026000Y-50452000D01*
X97029000Y-50451000D01*
X97032000Y-50451000D01*
X97034000Y-50448000D01*
X97037000Y-50448000D01*
X97040000Y-50448000D01*
X97639000Y-50448000D01*
X97642000Y-50448000D01*
X97645000Y-50448000D01*
X97647000Y-50451000D01*
G36*
X97647000Y-50451000D02*
G01*
X97650000Y-50451000D01*
X97653000Y-50452000D01*
X97654000Y-50452000D01*
X97658000Y-50452000D01*
X97659000Y-50452000D01*
X97662000Y-50455000D01*
X97665000Y-50456000D01*
X97666000Y-50456000D01*
X97669000Y-50460000D01*
X97670000Y-50460000D01*
X97673000Y-50462000D01*
X97674000Y-50465000D01*
X97677000Y-50466000D01*
X97678000Y-50469000D01*
X97679000Y-50470000D01*
X97682000Y-50473000D01*
X97682000Y-50474000D01*
X97685000Y-50477000D01*
X97686000Y-50480000D01*
X97686000Y-50481000D01*
X97687000Y-50485000D01*
X97687000Y-50486000D01*
X97689000Y-50489000D01*
X97689000Y-50492000D01*
X97690000Y-50494000D01*
X97690000Y-50497000D01*
X97690000Y-50500000D01*
X97690000Y-51000000D01*
X97690000Y-51002000D01*
X97690000Y-51005000D01*
X97689000Y-51008000D01*
X97689000Y-51009000D01*
X97687000Y-51013000D01*
X97687000Y-51014000D01*
X97686000Y-51017000D01*
X97686000Y-51020000D01*
X97685000Y-51022000D01*
X97682000Y-51025000D01*
X97679000Y-51029000D01*
X97678000Y-51029000D01*
X97677000Y-51033000D01*
X97674000Y-51033000D01*
X97673000Y-51037000D01*
X97670000Y-51037000D01*
X97669000Y-51040000D01*
X97666000Y-51041000D01*
X97665000Y-51041000D01*
X97662000Y-51045000D01*
X97659000Y-51045000D01*
X97658000Y-51045000D01*
X97654000Y-51048000D01*
X97653000Y-51048000D01*
X97650000Y-51049000D01*
X97647000Y-51049000D01*
X97645000Y-51049000D01*
X97642000Y-51049000D01*
X97639000Y-51049000D01*
X97040000Y-51049000D01*
X97037000Y-51049000D01*
X97034000Y-51049000D01*
X97032000Y-51049000D01*
X97029000Y-51049000D01*
X97026000Y-51048000D01*
X97025000Y-51048000D01*
X97021000Y-51045000D01*
X97020000Y-51045000D01*
X97017000Y-51045000D01*
X97014000Y-51041000D01*
X97013000Y-51041000D01*
X97010000Y-51040000D01*
X97009000Y-51037000D01*
X97006000Y-51037000D01*
X97005000Y-51033000D01*
X97002000Y-51033000D01*
X97001000Y-51029000D01*
X97000000Y-51029000D01*
X96997000Y-51025000D01*
X96994000Y-51022000D01*
X96993000Y-51020000D01*
X96993000Y-51017000D01*
X96992000Y-51014000D01*
X96992000Y-51013000D01*
X96990000Y-51009000D01*
X96990000Y-51008000D01*
X96989000Y-51005000D01*
X96989000Y-51002000D01*
X96989000Y-51000000D01*
X96989000Y-50900000D01*
X96989000Y-50896000D01*
X96989000Y-50895000D01*
X96990000Y-50892000D01*
X96990000Y-50889000D01*
X96992000Y-50887000D01*
X96992000Y-50884000D01*
X96993000Y-50881000D01*
X96993000Y-50880000D01*
X96994000Y-50876000D01*
X96997000Y-50875000D01*
X96997000Y-50872000D01*
X97000000Y-50871000D01*
X97001000Y-50868000D01*
X97002000Y-50867000D01*
X97005000Y-50864000D01*
X97006000Y-50863000D01*
X97009000Y-50860000D01*
X97010000Y-50860000D01*
X97013000Y-50857000D01*
X97014000Y-50856000D01*
X97017000Y-50855000D01*
X97020000Y-50853000D01*
X97021000Y-50852000D01*
X97025000Y-50852000D01*
X97026000Y-50852000D01*
X97029000Y-50851000D01*
X97032000Y-50851000D01*
X97034000Y-50849000D01*
X97037000Y-50849000D01*
X97040000Y-50849000D01*
X97440000Y-50849000D01*
X97443000Y-50849000D01*
X97444000Y-50849000D01*
X97448000Y-50848000D01*
X97452000Y-50848000D01*
X97455000Y-50848000D01*
X97456000Y-50847000D01*
X97460000Y-50845000D01*
X97463000Y-50843000D01*
X97464000Y-50843000D01*
X97467000Y-50842000D01*
X97468000Y-50839000D01*
X97471000Y-50839000D01*
X97472000Y-50835000D01*
X97475000Y-50835000D01*
X97476000Y-50831000D01*
X97479000Y-50831000D01*
X97480000Y-50827000D01*
X97483000Y-50823000D01*
X97484000Y-50823000D01*
X97484000Y-50819000D01*
X97487000Y-50818000D01*
X97488000Y-50815000D01*
X97488000Y-50811000D01*
X97488000Y-50810000D01*
X97488000Y-50807000D01*
X97488000Y-50803000D01*
X97488000Y-50799000D01*
X97488000Y-50698000D01*
X97488000Y-50697000D01*
X97488000Y-50694000D01*
X97488000Y-50690000D01*
X97488000Y-50686000D01*
X97488000Y-50685000D01*
X97487000Y-50682000D01*
X97484000Y-50678000D01*
X97484000Y-50677000D01*
X97483000Y-50674000D01*
X97480000Y-50673000D01*
X97480000Y-50670000D01*
X97479000Y-50669000D01*
X97476000Y-50666000D01*
X97475000Y-50665000D01*
X97472000Y-50662000D01*
X97471000Y-50661000D01*
X97468000Y-50658000D01*
X97467000Y-50658000D01*
X97464000Y-50657000D01*
X97463000Y-50654000D01*
X97460000Y-50654000D01*
X97456000Y-50653000D01*
X97455000Y-50650000D01*
X97452000Y-50650000D01*
X97448000Y-50650000D01*
X97444000Y-50650000D01*
X97443000Y-50650000D01*
X97440000Y-50650000D01*
X97040000Y-50650000D01*
X97037000Y-50650000D01*
X97034000Y-50650000D01*
X97032000Y-50649000D01*
X97029000Y-50649000D01*
X97026000Y-50647000D01*
X97025000Y-50647000D01*
X97021000Y-50646000D01*
X97020000Y-50646000D01*
X97017000Y-50645000D01*
X97014000Y-50642000D01*
X97013000Y-50642000D01*
X97010000Y-50639000D01*
X97009000Y-50638000D01*
X97006000Y-50637000D01*
X97005000Y-50634000D01*
X97002000Y-50633000D01*
X97001000Y-50630000D01*
X97000000Y-50629000D01*
X96997000Y-50626000D01*
X96997000Y-50625000D01*
X96994000Y-50622000D01*
X96993000Y-50619000D01*
X96993000Y-50618000D01*
X96992000Y-50614000D01*
X96992000Y-50613000D01*
X96990000Y-50610000D01*
X96990000Y-50607000D01*
X96989000Y-50605000D01*
X96989000Y-50602000D01*
X96989000Y-50599000D01*
X96989000Y-50500000D01*
X96989000Y-50497000D01*
X96989000Y-50494000D01*
X96990000Y-50492000D01*
X96990000Y-50489000D01*
X96992000Y-50486000D01*
X96992000Y-50485000D01*
X96993000Y-50481000D01*
X96993000Y-50480000D01*
X96994000Y-50477000D01*
X96997000Y-50474000D01*
X96997000Y-50473000D01*
X97000000Y-50470000D01*
X97001000Y-50469000D01*
X97002000Y-50466000D01*
X97005000Y-50465000D01*
X97006000Y-50462000D01*
X97009000Y-50460000D01*
X97010000Y-50460000D01*
X97013000Y-50456000D01*
X97014000Y-50456000D01*
X97017000Y-50455000D01*
X97020000Y-50452000D01*
X97021000Y-50452000D01*
X97025000Y-50452000D01*
X97026000Y-50452000D01*
X97029000Y-50451000D01*
X97032000Y-50451000D01*
X97034000Y-50448000D01*
X97037000Y-50448000D01*
X97040000Y-50448000D01*
X97639000Y-50448000D01*
X97642000Y-50448000D01*
X97645000Y-50448000D01*
X97647000Y-50451000D01*
G37*
X97647000Y-51251000D02*
X97650000Y-51251000D01*
X97653000Y-51251000D01*
X97654000Y-51251000D01*
X97658000Y-51253000D01*
X97659000Y-51253000D01*
X97662000Y-51255000D01*
X97665000Y-51257000D01*
X97666000Y-51257000D01*
X97669000Y-51259000D01*
X97670000Y-51261000D01*
X97673000Y-51263000D01*
X97674000Y-51265000D01*
X97677000Y-51267000D01*
X97678000Y-51269000D01*
X97679000Y-51271000D01*
X97682000Y-51273000D01*
X97682000Y-51275000D01*
X97685000Y-51277000D01*
X97686000Y-51279000D01*
X97686000Y-51281000D01*
X97687000Y-51285000D01*
X97687000Y-51287000D01*
X97689000Y-51289000D01*
X97689000Y-51291000D01*
X97690000Y-51295000D01*
X97690000Y-51297000D01*
X97690000Y-51299000D01*
X97690000Y-51799000D01*
X97690000Y-51803000D01*
X97690000Y-51805000D01*
X97689000Y-51807000D01*
X97689000Y-51809000D01*
X97687000Y-51813000D01*
X97687000Y-51815000D01*
X97686000Y-51817000D01*
X97686000Y-51819000D01*
X97685000Y-51823000D01*
X97682000Y-51825000D01*
X97682000Y-51827000D01*
X97679000Y-51829000D01*
X97678000Y-51831000D01*
X97677000Y-51833000D01*
X97674000Y-51835000D01*
X97673000Y-51837000D01*
X97670000Y-51839000D01*
X97669000Y-51839000D01*
X97666000Y-51841000D01*
X97665000Y-51843000D01*
X97662000Y-51845000D01*
X97659000Y-51845000D01*
X97658000Y-51847000D01*
X97654000Y-51847000D01*
X97653000Y-51847000D01*
X97650000Y-51849000D01*
X97647000Y-51849000D01*
X97645000Y-51849000D01*
X97642000Y-51849000D01*
X97639000Y-51849000D01*
X97040000Y-51849000D01*
X97037000Y-51849000D01*
X97034000Y-51849000D01*
X97032000Y-51849000D01*
X97029000Y-51849000D01*
X97026000Y-51847000D01*
X97025000Y-51847000D01*
X97021000Y-51847000D01*
X97020000Y-51845000D01*
X97017000Y-51845000D01*
X97014000Y-51843000D01*
X97013000Y-51841000D01*
X97010000Y-51839000D01*
X97009000Y-51839000D01*
X97006000Y-51837000D01*
X97005000Y-51835000D01*
X97002000Y-51833000D01*
X97001000Y-51831000D01*
X97000000Y-51829000D01*
X96997000Y-51827000D01*
X96997000Y-51825000D01*
X96994000Y-51823000D01*
X96993000Y-51819000D01*
X96993000Y-51817000D01*
X96992000Y-51815000D01*
X96992000Y-51813000D01*
X96990000Y-51809000D01*
X96990000Y-51807000D01*
X96989000Y-51805000D01*
X96989000Y-51803000D01*
X96989000Y-51799000D01*
X96989000Y-51700000D01*
X96989000Y-51696000D01*
X96989000Y-51694000D01*
X96990000Y-51692000D01*
X96990000Y-51690000D01*
X96992000Y-51686000D01*
X96992000Y-51684000D01*
X96993000Y-51682000D01*
X96993000Y-51680000D01*
X96994000Y-51676000D01*
X96997000Y-51674000D01*
X96997000Y-51672000D01*
X97000000Y-51670000D01*
X97001000Y-51668000D01*
X97002000Y-51666000D01*
X97005000Y-51664000D01*
X97006000Y-51662000D01*
X97009000Y-51660000D01*
X97010000Y-51660000D01*
X97013000Y-51658000D01*
X97014000Y-51656000D01*
X97017000Y-51654000D01*
X97020000Y-51654000D01*
X97021000Y-51652000D01*
X97025000Y-51652000D01*
X97026000Y-51652000D01*
X97029000Y-51650000D01*
X97032000Y-51650000D01*
X97034000Y-51650000D01*
X97037000Y-51650000D01*
X97040000Y-51650000D01*
X97440000Y-51650000D01*
X97443000Y-51650000D01*
X97444000Y-51650000D01*
X97448000Y-51648000D01*
X97452000Y-51648000D01*
X97455000Y-51648000D01*
X97456000Y-51646000D01*
X97460000Y-51646000D01*
X97463000Y-51644000D01*
X97464000Y-51642000D01*
X97467000Y-51642000D01*
X97468000Y-51640000D01*
X97471000Y-51638000D01*
X97472000Y-51636000D01*
X97475000Y-51634000D01*
X97476000Y-51632000D01*
X97479000Y-51630000D01*
X97480000Y-51628000D01*
X97480000Y-51626000D01*
X97483000Y-51624000D01*
X97484000Y-51622000D01*
X97484000Y-51620000D01*
X97487000Y-51618000D01*
X97488000Y-51614000D01*
X97488000Y-51613000D01*
X97488000Y-51609000D01*
X97488000Y-51607000D01*
X97488000Y-51605000D01*
X97488000Y-51603000D01*
X97488000Y-51599000D01*
X97488000Y-51499000D01*
X97488000Y-51497000D01*
X97488000Y-51495000D01*
X97488000Y-51491000D01*
X97488000Y-51489000D01*
X97488000Y-51487000D01*
X97488000Y-51484000D01*
X97487000Y-51482000D01*
X97484000Y-51480000D01*
X97484000Y-51476000D01*
X97483000Y-51474000D01*
X97480000Y-51472000D01*
X97480000Y-51470000D01*
X97479000Y-51468000D01*
X97476000Y-51466000D01*
X97475000Y-51464000D01*
X97472000Y-51462000D01*
X97471000Y-51460000D01*
X97468000Y-51460000D01*
X97467000Y-51458000D01*
X97464000Y-51456000D01*
X97463000Y-51454000D01*
X97460000Y-51454000D01*
X97456000Y-51452000D01*
X97455000Y-51452000D01*
X97452000Y-51452000D01*
X97448000Y-51450000D01*
X97444000Y-51450000D01*
X97443000Y-51450000D01*
X97440000Y-51450000D01*
X97040000Y-51450000D01*
X97037000Y-51450000D01*
X97034000Y-51450000D01*
X97032000Y-51448000D01*
X97029000Y-51448000D01*
X97026000Y-51448000D01*
X97025000Y-51448000D01*
X97021000Y-51446000D01*
X97020000Y-51446000D01*
X97017000Y-51444000D01*
X97014000Y-51442000D01*
X97013000Y-51442000D01*
X97010000Y-51440000D01*
X97009000Y-51438000D01*
X97006000Y-51436000D01*
X97005000Y-51434000D01*
X97002000Y-51432000D01*
X97001000Y-51430000D01*
X97000000Y-51428000D01*
X96997000Y-51426000D01*
X96997000Y-51424000D01*
X96994000Y-51422000D01*
X96993000Y-51420000D01*
X96993000Y-51418000D01*
X96992000Y-51414000D01*
X96992000Y-51412000D01*
X96990000Y-51410000D01*
X96990000Y-51408000D01*
X96989000Y-51404000D01*
X96989000Y-51402000D01*
X96989000Y-51400000D01*
X96989000Y-51299000D01*
X96989000Y-51297000D01*
X96989000Y-51295000D01*
X96990000Y-51291000D01*
X96990000Y-51289000D01*
X96992000Y-51287000D01*
X96992000Y-51285000D01*
X96993000Y-51281000D01*
X96993000Y-51279000D01*
X96994000Y-51277000D01*
X96997000Y-51275000D01*
X96997000Y-51273000D01*
X97000000Y-51271000D01*
X97001000Y-51269000D01*
X97002000Y-51267000D01*
X97005000Y-51265000D01*
X97006000Y-51263000D01*
X97009000Y-51261000D01*
X97010000Y-51259000D01*
X97013000Y-51257000D01*
X97014000Y-51257000D01*
X97017000Y-51255000D01*
X97020000Y-51253000D01*
X97021000Y-51253000D01*
X97025000Y-51251000D01*
X97026000Y-51251000D01*
X97029000Y-51251000D01*
X97032000Y-51251000D01*
X97034000Y-51249000D01*
X97037000Y-51249000D01*
X97040000Y-51249000D01*
X97639000Y-51249000D01*
X97642000Y-51249000D01*
X97645000Y-51249000D01*
X97647000Y-51251000D01*
G36*
X97647000Y-51251000D02*
G01*
X97650000Y-51251000D01*
X97653000Y-51251000D01*
X97654000Y-51251000D01*
X97658000Y-51253000D01*
X97659000Y-51253000D01*
X97662000Y-51255000D01*
X97665000Y-51257000D01*
X97666000Y-51257000D01*
X97669000Y-51259000D01*
X97670000Y-51261000D01*
X97673000Y-51263000D01*
X97674000Y-51265000D01*
X97677000Y-51267000D01*
X97678000Y-51269000D01*
X97679000Y-51271000D01*
X97682000Y-51273000D01*
X97682000Y-51275000D01*
X97685000Y-51277000D01*
X97686000Y-51279000D01*
X97686000Y-51281000D01*
X97687000Y-51285000D01*
X97687000Y-51287000D01*
X97689000Y-51289000D01*
X97689000Y-51291000D01*
X97690000Y-51295000D01*
X97690000Y-51297000D01*
X97690000Y-51299000D01*
X97690000Y-51799000D01*
X97690000Y-51803000D01*
X97690000Y-51805000D01*
X97689000Y-51807000D01*
X97689000Y-51809000D01*
X97687000Y-51813000D01*
X97687000Y-51815000D01*
X97686000Y-51817000D01*
X97686000Y-51819000D01*
X97685000Y-51823000D01*
X97682000Y-51825000D01*
X97682000Y-51827000D01*
X97679000Y-51829000D01*
X97678000Y-51831000D01*
X97677000Y-51833000D01*
X97674000Y-51835000D01*
X97673000Y-51837000D01*
X97670000Y-51839000D01*
X97669000Y-51839000D01*
X97666000Y-51841000D01*
X97665000Y-51843000D01*
X97662000Y-51845000D01*
X97659000Y-51845000D01*
X97658000Y-51847000D01*
X97654000Y-51847000D01*
X97653000Y-51847000D01*
X97650000Y-51849000D01*
X97647000Y-51849000D01*
X97645000Y-51849000D01*
X97642000Y-51849000D01*
X97639000Y-51849000D01*
X97040000Y-51849000D01*
X97037000Y-51849000D01*
X97034000Y-51849000D01*
X97032000Y-51849000D01*
X97029000Y-51849000D01*
X97026000Y-51847000D01*
X97025000Y-51847000D01*
X97021000Y-51847000D01*
X97020000Y-51845000D01*
X97017000Y-51845000D01*
X97014000Y-51843000D01*
X97013000Y-51841000D01*
X97010000Y-51839000D01*
X97009000Y-51839000D01*
X97006000Y-51837000D01*
X97005000Y-51835000D01*
X97002000Y-51833000D01*
X97001000Y-51831000D01*
X97000000Y-51829000D01*
X96997000Y-51827000D01*
X96997000Y-51825000D01*
X96994000Y-51823000D01*
X96993000Y-51819000D01*
X96993000Y-51817000D01*
X96992000Y-51815000D01*
X96992000Y-51813000D01*
X96990000Y-51809000D01*
X96990000Y-51807000D01*
X96989000Y-51805000D01*
X96989000Y-51803000D01*
X96989000Y-51799000D01*
X96989000Y-51700000D01*
X96989000Y-51696000D01*
X96989000Y-51694000D01*
X96990000Y-51692000D01*
X96990000Y-51690000D01*
X96992000Y-51686000D01*
X96992000Y-51684000D01*
X96993000Y-51682000D01*
X96993000Y-51680000D01*
X96994000Y-51676000D01*
X96997000Y-51674000D01*
X96997000Y-51672000D01*
X97000000Y-51670000D01*
X97001000Y-51668000D01*
X97002000Y-51666000D01*
X97005000Y-51664000D01*
X97006000Y-51662000D01*
X97009000Y-51660000D01*
X97010000Y-51660000D01*
X97013000Y-51658000D01*
X97014000Y-51656000D01*
X97017000Y-51654000D01*
X97020000Y-51654000D01*
X97021000Y-51652000D01*
X97025000Y-51652000D01*
X97026000Y-51652000D01*
X97029000Y-51650000D01*
X97032000Y-51650000D01*
X97034000Y-51650000D01*
X97037000Y-51650000D01*
X97040000Y-51650000D01*
X97440000Y-51650000D01*
X97443000Y-51650000D01*
X97444000Y-51650000D01*
X97448000Y-51648000D01*
X97452000Y-51648000D01*
X97455000Y-51648000D01*
X97456000Y-51646000D01*
X97460000Y-51646000D01*
X97463000Y-51644000D01*
X97464000Y-51642000D01*
X97467000Y-51642000D01*
X97468000Y-51640000D01*
X97471000Y-51638000D01*
X97472000Y-51636000D01*
X97475000Y-51634000D01*
X97476000Y-51632000D01*
X97479000Y-51630000D01*
X97480000Y-51628000D01*
X97480000Y-51626000D01*
X97483000Y-51624000D01*
X97484000Y-51622000D01*
X97484000Y-51620000D01*
X97487000Y-51618000D01*
X97488000Y-51614000D01*
X97488000Y-51613000D01*
X97488000Y-51609000D01*
X97488000Y-51607000D01*
X97488000Y-51605000D01*
X97488000Y-51603000D01*
X97488000Y-51599000D01*
X97488000Y-51499000D01*
X97488000Y-51497000D01*
X97488000Y-51495000D01*
X97488000Y-51491000D01*
X97488000Y-51489000D01*
X97488000Y-51487000D01*
X97488000Y-51484000D01*
X97487000Y-51482000D01*
X97484000Y-51480000D01*
X97484000Y-51476000D01*
X97483000Y-51474000D01*
X97480000Y-51472000D01*
X97480000Y-51470000D01*
X97479000Y-51468000D01*
X97476000Y-51466000D01*
X97475000Y-51464000D01*
X97472000Y-51462000D01*
X97471000Y-51460000D01*
X97468000Y-51460000D01*
X97467000Y-51458000D01*
X97464000Y-51456000D01*
X97463000Y-51454000D01*
X97460000Y-51454000D01*
X97456000Y-51452000D01*
X97455000Y-51452000D01*
X97452000Y-51452000D01*
X97448000Y-51450000D01*
X97444000Y-51450000D01*
X97443000Y-51450000D01*
X97440000Y-51450000D01*
X97040000Y-51450000D01*
X97037000Y-51450000D01*
X97034000Y-51450000D01*
X97032000Y-51448000D01*
X97029000Y-51448000D01*
X97026000Y-51448000D01*
X97025000Y-51448000D01*
X97021000Y-51446000D01*
X97020000Y-51446000D01*
X97017000Y-51444000D01*
X97014000Y-51442000D01*
X97013000Y-51442000D01*
X97010000Y-51440000D01*
X97009000Y-51438000D01*
X97006000Y-51436000D01*
X97005000Y-51434000D01*
X97002000Y-51432000D01*
X97001000Y-51430000D01*
X97000000Y-51428000D01*
X96997000Y-51426000D01*
X96997000Y-51424000D01*
X96994000Y-51422000D01*
X96993000Y-51420000D01*
X96993000Y-51418000D01*
X96992000Y-51414000D01*
X96992000Y-51412000D01*
X96990000Y-51410000D01*
X96990000Y-51408000D01*
X96989000Y-51404000D01*
X96989000Y-51402000D01*
X96989000Y-51400000D01*
X96989000Y-51299000D01*
X96989000Y-51297000D01*
X96989000Y-51295000D01*
X96990000Y-51291000D01*
X96990000Y-51289000D01*
X96992000Y-51287000D01*
X96992000Y-51285000D01*
X96993000Y-51281000D01*
X96993000Y-51279000D01*
X96994000Y-51277000D01*
X96997000Y-51275000D01*
X96997000Y-51273000D01*
X97000000Y-51271000D01*
X97001000Y-51269000D01*
X97002000Y-51267000D01*
X97005000Y-51265000D01*
X97006000Y-51263000D01*
X97009000Y-51261000D01*
X97010000Y-51259000D01*
X97013000Y-51257000D01*
X97014000Y-51257000D01*
X97017000Y-51255000D01*
X97020000Y-51253000D01*
X97021000Y-51253000D01*
X97025000Y-51251000D01*
X97026000Y-51251000D01*
X97029000Y-51251000D01*
X97032000Y-51251000D01*
X97034000Y-51249000D01*
X97037000Y-51249000D01*
X97040000Y-51249000D01*
X97639000Y-51249000D01*
X97642000Y-51249000D01*
X97645000Y-51249000D01*
X97647000Y-51251000D01*
G37*
X97653000Y-54452000D02*
X97654000Y-54452000D01*
X97658000Y-54452000D01*
X97659000Y-54454000D01*
X97662000Y-54454000D01*
X97665000Y-54456000D01*
X97666000Y-54458000D01*
X97669000Y-54460000D01*
X97670000Y-54460000D01*
X97673000Y-54462000D01*
X97674000Y-54464000D01*
X97677000Y-54466000D01*
X97678000Y-54468000D01*
X97679000Y-54470000D01*
X97682000Y-54472000D01*
X97682000Y-54474000D01*
X97685000Y-54476000D01*
X97686000Y-54480000D01*
X97686000Y-54482000D01*
X97687000Y-54484000D01*
X97687000Y-54486000D01*
X97689000Y-54490000D01*
X97689000Y-54492000D01*
X97690000Y-54494000D01*
X97690000Y-54496000D01*
X97690000Y-54500000D01*
X97690000Y-55000000D01*
X97690000Y-55002000D01*
X97690000Y-55004000D01*
X97689000Y-55008000D01*
X97689000Y-55010000D01*
X97687000Y-55012000D01*
X97687000Y-55014000D01*
X97686000Y-55018000D01*
X97686000Y-55020000D01*
X97685000Y-55022000D01*
X97682000Y-55024000D01*
X97682000Y-55026000D01*
X97679000Y-55028000D01*
X97678000Y-55030000D01*
X97677000Y-55032000D01*
X97674000Y-55034000D01*
X97673000Y-55036000D01*
X97670000Y-55038000D01*
X97669000Y-55038000D01*
X97666000Y-55040000D01*
X97665000Y-55042000D01*
X97662000Y-55044000D01*
X97659000Y-55044000D01*
X97658000Y-55046000D01*
X97654000Y-55046000D01*
X97653000Y-55046000D01*
X97650000Y-55048000D01*
X97647000Y-55048000D01*
X97645000Y-55048000D01*
X97642000Y-55048000D01*
X97639000Y-55048000D01*
X97040000Y-55048000D01*
X97037000Y-55048000D01*
X97034000Y-55048000D01*
X97032000Y-55048000D01*
X97029000Y-55048000D01*
X97026000Y-55046000D01*
X97025000Y-55046000D01*
X97021000Y-55046000D01*
X97020000Y-55044000D01*
X97017000Y-55044000D01*
X97014000Y-55042000D01*
X97013000Y-55040000D01*
X97010000Y-55038000D01*
X97009000Y-55038000D01*
X97006000Y-55036000D01*
X97005000Y-55034000D01*
X97002000Y-55032000D01*
X97001000Y-55030000D01*
X97000000Y-55028000D01*
X96997000Y-55026000D01*
X96997000Y-55024000D01*
X96994000Y-55022000D01*
X96993000Y-55020000D01*
X96993000Y-55018000D01*
X96992000Y-55014000D01*
X96992000Y-55012000D01*
X96990000Y-55010000D01*
X96990000Y-55008000D01*
X96989000Y-55004000D01*
X96989000Y-55002000D01*
X96989000Y-55000000D01*
X96989000Y-54899000D01*
X96989000Y-54897000D01*
X96989000Y-54895000D01*
X96990000Y-54891000D01*
X96990000Y-54889000D01*
X96992000Y-54887000D01*
X96992000Y-54885000D01*
X96993000Y-54881000D01*
X96993000Y-54879000D01*
X96994000Y-54877000D01*
X96997000Y-54875000D01*
X96997000Y-54873000D01*
X97000000Y-54871000D01*
X97001000Y-54869000D01*
X97002000Y-54867000D01*
X97005000Y-54865000D01*
X97006000Y-54863000D01*
X97009000Y-54861000D01*
X97010000Y-54859000D01*
X97013000Y-54857000D01*
X97014000Y-54857000D01*
X97017000Y-54855000D01*
X97020000Y-54853000D01*
X97021000Y-54853000D01*
X97025000Y-54851000D01*
X97026000Y-54851000D01*
X97029000Y-54851000D01*
X97032000Y-54851000D01*
X97034000Y-54849000D01*
X97037000Y-54849000D01*
X97040000Y-54849000D01*
X97440000Y-54849000D01*
X97443000Y-54849000D01*
X97444000Y-54849000D01*
X97448000Y-54849000D01*
X97452000Y-54847000D01*
X97455000Y-54847000D01*
X97456000Y-54847000D01*
X97460000Y-54845000D01*
X97463000Y-54845000D01*
X97464000Y-54843000D01*
X97467000Y-54841000D01*
X97468000Y-54839000D01*
X97471000Y-54839000D01*
X97472000Y-54837000D01*
X97475000Y-54835000D01*
X97476000Y-54833000D01*
X97479000Y-54831000D01*
X97480000Y-54829000D01*
X97480000Y-54827000D01*
X97483000Y-54825000D01*
X97484000Y-54823000D01*
X97484000Y-54819000D01*
X97487000Y-54817000D01*
X97488000Y-54815000D01*
X97488000Y-54812000D01*
X97488000Y-54808000D01*
X97488000Y-54806000D01*
X97488000Y-54804000D01*
X97488000Y-54802000D01*
X97488000Y-54798000D01*
X97488000Y-54700000D01*
X97488000Y-54696000D01*
X97488000Y-54694000D01*
X97488000Y-54692000D01*
X97488000Y-54690000D01*
X97488000Y-54686000D01*
X97488000Y-54683000D01*
X97487000Y-54681000D01*
X97484000Y-54679000D01*
X97484000Y-54675000D01*
X97483000Y-54673000D01*
X97480000Y-54671000D01*
X97480000Y-54669000D01*
X97479000Y-54667000D01*
X97476000Y-54665000D01*
X97475000Y-54663000D01*
X97472000Y-54661000D01*
X97471000Y-54659000D01*
X97468000Y-54659000D01*
X97467000Y-54657000D01*
X97464000Y-54655000D01*
X97463000Y-54653000D01*
X97460000Y-54653000D01*
X97456000Y-54651000D01*
X97455000Y-54651000D01*
X97452000Y-54651000D01*
X97448000Y-54649000D01*
X97444000Y-54649000D01*
X97443000Y-54649000D01*
X97440000Y-54649000D01*
X97040000Y-54649000D01*
X97037000Y-54649000D01*
X97034000Y-54649000D01*
X97032000Y-54649000D01*
X97029000Y-54649000D01*
X97026000Y-54647000D01*
X97025000Y-54647000D01*
X97021000Y-54647000D01*
X97020000Y-54645000D01*
X97017000Y-54645000D01*
X97014000Y-54643000D01*
X97013000Y-54641000D01*
X97010000Y-54639000D01*
X97009000Y-54639000D01*
X97006000Y-54637000D01*
X97005000Y-54635000D01*
X97002000Y-54633000D01*
X97001000Y-54631000D01*
X97000000Y-54629000D01*
X96997000Y-54627000D01*
X96997000Y-54625000D01*
X96994000Y-54623000D01*
X96993000Y-54619000D01*
X96993000Y-54617000D01*
X96992000Y-54615000D01*
X96992000Y-54613000D01*
X96990000Y-54609000D01*
X96990000Y-54607000D01*
X96989000Y-54605000D01*
X96989000Y-54603000D01*
X96989000Y-54599000D01*
X96989000Y-54500000D01*
X96989000Y-54496000D01*
X96989000Y-54494000D01*
X96990000Y-54492000D01*
X96990000Y-54490000D01*
X96992000Y-54486000D01*
X96992000Y-54484000D01*
X96993000Y-54482000D01*
X96993000Y-54480000D01*
X96994000Y-54476000D01*
X96997000Y-54474000D01*
X96997000Y-54472000D01*
X97000000Y-54470000D01*
X97001000Y-54468000D01*
X97002000Y-54466000D01*
X97005000Y-54464000D01*
X97006000Y-54462000D01*
X97009000Y-54460000D01*
X97010000Y-54460000D01*
X97013000Y-54458000D01*
X97014000Y-54456000D01*
X97017000Y-54454000D01*
X97020000Y-54454000D01*
X97021000Y-54452000D01*
X97025000Y-54452000D01*
X97026000Y-54452000D01*
X97029000Y-54450000D01*
X97032000Y-54450000D01*
X97034000Y-54450000D01*
X97037000Y-54450000D01*
X97040000Y-54450000D01*
X97639000Y-54450000D01*
X97642000Y-54450000D01*
X97645000Y-54450000D01*
X97647000Y-54450000D01*
X97650000Y-54450000D01*
X97653000Y-54452000D01*
G36*
X97653000Y-54452000D02*
G01*
X97654000Y-54452000D01*
X97658000Y-54452000D01*
X97659000Y-54454000D01*
X97662000Y-54454000D01*
X97665000Y-54456000D01*
X97666000Y-54458000D01*
X97669000Y-54460000D01*
X97670000Y-54460000D01*
X97673000Y-54462000D01*
X97674000Y-54464000D01*
X97677000Y-54466000D01*
X97678000Y-54468000D01*
X97679000Y-54470000D01*
X97682000Y-54472000D01*
X97682000Y-54474000D01*
X97685000Y-54476000D01*
X97686000Y-54480000D01*
X97686000Y-54482000D01*
X97687000Y-54484000D01*
X97687000Y-54486000D01*
X97689000Y-54490000D01*
X97689000Y-54492000D01*
X97690000Y-54494000D01*
X97690000Y-54496000D01*
X97690000Y-54500000D01*
X97690000Y-55000000D01*
X97690000Y-55002000D01*
X97690000Y-55004000D01*
X97689000Y-55008000D01*
X97689000Y-55010000D01*
X97687000Y-55012000D01*
X97687000Y-55014000D01*
X97686000Y-55018000D01*
X97686000Y-55020000D01*
X97685000Y-55022000D01*
X97682000Y-55024000D01*
X97682000Y-55026000D01*
X97679000Y-55028000D01*
X97678000Y-55030000D01*
X97677000Y-55032000D01*
X97674000Y-55034000D01*
X97673000Y-55036000D01*
X97670000Y-55038000D01*
X97669000Y-55038000D01*
X97666000Y-55040000D01*
X97665000Y-55042000D01*
X97662000Y-55044000D01*
X97659000Y-55044000D01*
X97658000Y-55046000D01*
X97654000Y-55046000D01*
X97653000Y-55046000D01*
X97650000Y-55048000D01*
X97647000Y-55048000D01*
X97645000Y-55048000D01*
X97642000Y-55048000D01*
X97639000Y-55048000D01*
X97040000Y-55048000D01*
X97037000Y-55048000D01*
X97034000Y-55048000D01*
X97032000Y-55048000D01*
X97029000Y-55048000D01*
X97026000Y-55046000D01*
X97025000Y-55046000D01*
X97021000Y-55046000D01*
X97020000Y-55044000D01*
X97017000Y-55044000D01*
X97014000Y-55042000D01*
X97013000Y-55040000D01*
X97010000Y-55038000D01*
X97009000Y-55038000D01*
X97006000Y-55036000D01*
X97005000Y-55034000D01*
X97002000Y-55032000D01*
X97001000Y-55030000D01*
X97000000Y-55028000D01*
X96997000Y-55026000D01*
X96997000Y-55024000D01*
X96994000Y-55022000D01*
X96993000Y-55020000D01*
X96993000Y-55018000D01*
X96992000Y-55014000D01*
X96992000Y-55012000D01*
X96990000Y-55010000D01*
X96990000Y-55008000D01*
X96989000Y-55004000D01*
X96989000Y-55002000D01*
X96989000Y-55000000D01*
X96989000Y-54899000D01*
X96989000Y-54897000D01*
X96989000Y-54895000D01*
X96990000Y-54891000D01*
X96990000Y-54889000D01*
X96992000Y-54887000D01*
X96992000Y-54885000D01*
X96993000Y-54881000D01*
X96993000Y-54879000D01*
X96994000Y-54877000D01*
X96997000Y-54875000D01*
X96997000Y-54873000D01*
X97000000Y-54871000D01*
X97001000Y-54869000D01*
X97002000Y-54867000D01*
X97005000Y-54865000D01*
X97006000Y-54863000D01*
X97009000Y-54861000D01*
X97010000Y-54859000D01*
X97013000Y-54857000D01*
X97014000Y-54857000D01*
X97017000Y-54855000D01*
X97020000Y-54853000D01*
X97021000Y-54853000D01*
X97025000Y-54851000D01*
X97026000Y-54851000D01*
X97029000Y-54851000D01*
X97032000Y-54851000D01*
X97034000Y-54849000D01*
X97037000Y-54849000D01*
X97040000Y-54849000D01*
X97440000Y-54849000D01*
X97443000Y-54849000D01*
X97444000Y-54849000D01*
X97448000Y-54849000D01*
X97452000Y-54847000D01*
X97455000Y-54847000D01*
X97456000Y-54847000D01*
X97460000Y-54845000D01*
X97463000Y-54845000D01*
X97464000Y-54843000D01*
X97467000Y-54841000D01*
X97468000Y-54839000D01*
X97471000Y-54839000D01*
X97472000Y-54837000D01*
X97475000Y-54835000D01*
X97476000Y-54833000D01*
X97479000Y-54831000D01*
X97480000Y-54829000D01*
X97480000Y-54827000D01*
X97483000Y-54825000D01*
X97484000Y-54823000D01*
X97484000Y-54819000D01*
X97487000Y-54817000D01*
X97488000Y-54815000D01*
X97488000Y-54812000D01*
X97488000Y-54808000D01*
X97488000Y-54806000D01*
X97488000Y-54804000D01*
X97488000Y-54802000D01*
X97488000Y-54798000D01*
X97488000Y-54700000D01*
X97488000Y-54696000D01*
X97488000Y-54694000D01*
X97488000Y-54692000D01*
X97488000Y-54690000D01*
X97488000Y-54686000D01*
X97488000Y-54683000D01*
X97487000Y-54681000D01*
X97484000Y-54679000D01*
X97484000Y-54675000D01*
X97483000Y-54673000D01*
X97480000Y-54671000D01*
X97480000Y-54669000D01*
X97479000Y-54667000D01*
X97476000Y-54665000D01*
X97475000Y-54663000D01*
X97472000Y-54661000D01*
X97471000Y-54659000D01*
X97468000Y-54659000D01*
X97467000Y-54657000D01*
X97464000Y-54655000D01*
X97463000Y-54653000D01*
X97460000Y-54653000D01*
X97456000Y-54651000D01*
X97455000Y-54651000D01*
X97452000Y-54651000D01*
X97448000Y-54649000D01*
X97444000Y-54649000D01*
X97443000Y-54649000D01*
X97440000Y-54649000D01*
X97040000Y-54649000D01*
X97037000Y-54649000D01*
X97034000Y-54649000D01*
X97032000Y-54649000D01*
X97029000Y-54649000D01*
X97026000Y-54647000D01*
X97025000Y-54647000D01*
X97021000Y-54647000D01*
X97020000Y-54645000D01*
X97017000Y-54645000D01*
X97014000Y-54643000D01*
X97013000Y-54641000D01*
X97010000Y-54639000D01*
X97009000Y-54639000D01*
X97006000Y-54637000D01*
X97005000Y-54635000D01*
X97002000Y-54633000D01*
X97001000Y-54631000D01*
X97000000Y-54629000D01*
X96997000Y-54627000D01*
X96997000Y-54625000D01*
X96994000Y-54623000D01*
X96993000Y-54619000D01*
X96993000Y-54617000D01*
X96992000Y-54615000D01*
X96992000Y-54613000D01*
X96990000Y-54609000D01*
X96990000Y-54607000D01*
X96989000Y-54605000D01*
X96989000Y-54603000D01*
X96989000Y-54599000D01*
X96989000Y-54500000D01*
X96989000Y-54496000D01*
X96989000Y-54494000D01*
X96990000Y-54492000D01*
X96990000Y-54490000D01*
X96992000Y-54486000D01*
X96992000Y-54484000D01*
X96993000Y-54482000D01*
X96993000Y-54480000D01*
X96994000Y-54476000D01*
X96997000Y-54474000D01*
X96997000Y-54472000D01*
X97000000Y-54470000D01*
X97001000Y-54468000D01*
X97002000Y-54466000D01*
X97005000Y-54464000D01*
X97006000Y-54462000D01*
X97009000Y-54460000D01*
X97010000Y-54460000D01*
X97013000Y-54458000D01*
X97014000Y-54456000D01*
X97017000Y-54454000D01*
X97020000Y-54454000D01*
X97021000Y-54452000D01*
X97025000Y-54452000D01*
X97026000Y-54452000D01*
X97029000Y-54450000D01*
X97032000Y-54450000D01*
X97034000Y-54450000D01*
X97037000Y-54450000D01*
X97040000Y-54450000D01*
X97639000Y-54450000D01*
X97642000Y-54450000D01*
X97645000Y-54450000D01*
X97647000Y-54450000D01*
X97650000Y-54450000D01*
X97653000Y-54452000D01*
G37*
%TO.C,U1*%
D10*
X87770000Y-58861000D02*
X86779000Y-58861000D01*
X86779000Y-57890000D01*
X87770000Y-57890000D01*
X87770000Y-58861000D01*
G36*
X87770000Y-58861000D02*
G01*
X86779000Y-58861000D01*
X86779000Y-57890000D01*
X87770000Y-57890000D01*
X87770000Y-58861000D01*
G37*
X88940000Y-58861000D02*
X87948000Y-58861000D01*
X87948000Y-57890000D01*
X88940000Y-57890000D01*
X88940000Y-58861000D01*
G36*
X88940000Y-58861000D02*
G01*
X87948000Y-58861000D01*
X87948000Y-57890000D01*
X88940000Y-57890000D01*
X88940000Y-58861000D01*
G37*
X87770000Y-57672000D02*
X86779000Y-57672000D01*
X86779000Y-56700000D01*
X87770000Y-56700000D01*
X87770000Y-57672000D01*
G36*
X87770000Y-57672000D02*
G01*
X86779000Y-57672000D01*
X86779000Y-56700000D01*
X87770000Y-56700000D01*
X87770000Y-57672000D01*
G37*
X88940000Y-57672000D02*
X87948000Y-57672000D01*
X87948000Y-56700000D01*
X88940000Y-56700000D01*
X88940000Y-57672000D01*
G36*
X88940000Y-57672000D02*
G01*
X87948000Y-57672000D01*
X87948000Y-56700000D01*
X88940000Y-56700000D01*
X88940000Y-57672000D01*
G37*
%TD*%
D12*
%TO.C,C1*%
X91800000Y-60900000D03*
X91800000Y-58700000D03*
%TD*%
D13*
%TO.C,C12*%
X131480000Y-71800000D03*
X131480000Y-72760000D03*
%TD*%
D14*
%TO.C,Y1*%
X127090000Y-63229000D03*
D15*
X129390000Y-63229000D03*
X129390000Y-61430000D03*
X127090000Y-61430000D03*
%TD*%
D16*
%TO.C,C22*%
X124280000Y-60040000D03*
X124280000Y-61440000D03*
%TD*%
D17*
%TO.C,R11*%
X89310000Y-65270000D03*
X90270000Y-65270000D03*
%TD*%
%TO.C,R36*%
X99150000Y-64860000D03*
X100110000Y-64860000D03*
%TD*%
%TO.C,R16*%
X121430000Y-80179800D03*
X122390000Y-80179800D03*
%TD*%
D16*
%TO.C,FB4*%
X120880000Y-68070000D03*
X120880000Y-69470000D03*
%TD*%
D18*
%TO.C,R27*%
X88490000Y-51200000D03*
X93130000Y-51200000D03*
%TD*%
D17*
%TO.C,R35*%
X99150000Y-63786666D03*
X100110000Y-63786666D03*
%TD*%
D19*
%TO.C,R8*%
X122890000Y-61400000D03*
X122890000Y-60000000D03*
%TD*%
D20*
%TO.C,R2*%
X84190000Y-57840000D03*
X82790000Y-57840000D03*
%TD*%
D17*
%TO.C,R17*%
X121450000Y-81230000D03*
X122410000Y-81230000D03*
%TD*%
D21*
%TO.C,C18*%
X115200000Y-60700000D03*
X115200000Y-62990000D03*
%TD*%
D17*
%TO.C,R38*%
X93480000Y-62655000D03*
X94440000Y-62655000D03*
%TD*%
D22*
%TO.C,D4*%
X126590000Y-89340000D03*
D23*
X122628000Y-88400000D03*
D24*
X122628000Y-90281000D03*
%TD*%
D25*
%TO.C,C2*%
X85710000Y-65110000D03*
X85710000Y-64150000D03*
%TD*%
D26*
%TO.C,D5*%
X112835000Y-51269000D03*
X116085000Y-51269000D03*
%TD*%
D25*
%TO.C,R12*%
X85765000Y-62300000D03*
X85765000Y-61340000D03*
%TD*%
D13*
%TO.C,C29*%
X121070000Y-70720000D03*
X121070000Y-71680000D03*
%TD*%
D17*
%TO.C,R37*%
X93480000Y-61583334D03*
X94440000Y-61583334D03*
%TD*%
D27*
%TO.C,Q1*%
X87102000Y-65190000D03*
X88100000Y-65190000D03*
X87602000Y-63888000D03*
%TD*%
D25*
%TO.C,R5*%
X89935000Y-62290000D03*
X89935000Y-61330000D03*
%TD*%
D28*
%TO.C,C9*%
X120409000Y-87550000D03*
X120409000Y-90550000D03*
%TD*%
D17*
%TO.C,R34*%
X99150000Y-62713333D03*
X100110000Y-62713333D03*
%TD*%
%TO.C,R13*%
X121450000Y-83330400D03*
X122410000Y-83330400D03*
%TD*%
D25*
%TO.C,R4*%
X88892500Y-62290000D03*
X88892500Y-61330000D03*
%TD*%
D17*
%TO.C,C26*%
X95190000Y-51480000D03*
X96150000Y-51480000D03*
%TD*%
D29*
%TO.C,L2*%
X110990000Y-53865000D03*
X110990000Y-57115000D03*
%TD*%
D30*
%TO.C,U6*%
X97339000Y-52150000D03*
X97339000Y-52550000D03*
X97339000Y-52948000D03*
X97339000Y-53350000D03*
X97339000Y-53748000D03*
X97339000Y-54148000D03*
D31*
X98089000Y-56500000D03*
X98488000Y-56500000D03*
X98889000Y-56500000D03*
X99289000Y-56500000D03*
X99690000Y-56500000D03*
X100090000Y-56500000D03*
X100488000Y-56500000D03*
X100890000Y-56500000D03*
X101288000Y-56500000D03*
X101688000Y-56500000D03*
X102088000Y-56500000D03*
X102490000Y-56500000D03*
X102890000Y-56500000D03*
X103290000Y-56500000D03*
D30*
X104040000Y-55750000D03*
X104040000Y-55350000D03*
X104040000Y-54950000D03*
X104040000Y-54548000D03*
X104040000Y-54148000D03*
X104040000Y-53748000D03*
X104040000Y-53350000D03*
X104040000Y-52948000D03*
X104040000Y-52550000D03*
X104040000Y-52150000D03*
X104040000Y-51749000D03*
X104040000Y-51349000D03*
X104040000Y-50948000D03*
X104040000Y-50549000D03*
D31*
X103290000Y-49799000D03*
X102890000Y-49799000D03*
X102490000Y-49799000D03*
X102088000Y-49799000D03*
X101688000Y-49799000D03*
X101288000Y-49799000D03*
X100890000Y-49799000D03*
X100488000Y-49799000D03*
X100090000Y-49799000D03*
X99690000Y-49799000D03*
X99289000Y-49799000D03*
X98889000Y-49799000D03*
X98488000Y-49799000D03*
X98089000Y-49799000D03*
%TD*%
D13*
%TO.C,C30*%
X120020000Y-70720000D03*
X120020000Y-71680000D03*
%TD*%
D17*
%TO.C,R28*%
X105390000Y-50750000D03*
X106350000Y-50750000D03*
%TD*%
D19*
%TO.C,R7*%
X121510000Y-61410000D03*
X121510000Y-60010000D03*
%TD*%
D17*
%TO.C,R30*%
X105470000Y-53385000D03*
X106430000Y-53385000D03*
%TD*%
D21*
%TO.C,C19*%
X118900000Y-60730000D03*
X118900000Y-63020000D03*
%TD*%
D17*
%TO.C,R18*%
X121450000Y-82280200D03*
X122410000Y-82280200D03*
%TD*%
D13*
%TO.C,R26*%
X122430000Y-57990000D03*
X122430000Y-58950000D03*
%TD*%
D17*
%TO.C,R39*%
X93480000Y-64798334D03*
X94440000Y-64798334D03*
%TD*%
D32*
%TO.C,U2*%
X127895000Y-80425000D03*
X126625000Y-80425000D03*
X125355000Y-80425000D03*
X124085000Y-80425000D03*
X124085000Y-85850000D03*
X125355000Y-85850000D03*
X126625000Y-85850000D03*
X127895000Y-85850000D03*
D33*
X125990000Y-83140000D03*
%TD*%
D17*
%TO.C,R40*%
X93480000Y-63726666D03*
X94440000Y-63726666D03*
%TD*%
D28*
%TO.C,C23*%
X121390000Y-53380000D03*
X121390000Y-56380000D03*
%TD*%
D25*
%TO.C,R1*%
X87850000Y-62290000D03*
X87850000Y-61330000D03*
%TD*%
D18*
%TO.C,R41*%
X99010000Y-59140000D03*
X94370000Y-59140000D03*
%TD*%
D13*
%TO.C,C21*%
X121410000Y-57970000D03*
X121410000Y-58930000D03*
%TD*%
D34*
%TO.C,R33*%
X100110000Y-61640000D03*
X99150000Y-61640000D03*
%TD*%
D13*
%TO.C,R22*%
X123510000Y-63620000D03*
X123510000Y-64580000D03*
%TD*%
D17*
%TO.C,C14*%
X128760000Y-64540000D03*
X129720000Y-64540000D03*
%TD*%
D13*
%TO.C,C11*%
X132510000Y-71790000D03*
X132510000Y-72750000D03*
%TD*%
D35*
%TO.C,C24*%
X117800000Y-51071000D03*
X120800000Y-51071000D03*
%TD*%
D17*
%TO.C,R15*%
X121450000Y-85430800D03*
X122410000Y-85430800D03*
%TD*%
D36*
%TO.C,D3*%
X92000000Y-54199000D03*
X92000000Y-56998000D03*
%TD*%
D20*
%TO.C,C6*%
X130990000Y-83800000D03*
X129590000Y-83800000D03*
%TD*%
D34*
%TO.C,C7*%
X130445000Y-81080000D03*
X129485000Y-81080000D03*
%TD*%
D37*
%TO.C,C20*%
X111380000Y-59020000D03*
X112780000Y-59020000D03*
%TD*%
D17*
%TO.C,R10*%
X89340000Y-64150000D03*
X90300000Y-64150000D03*
%TD*%
D16*
%TO.C,FB5*%
X131730000Y-69230000D03*
X131730000Y-70630000D03*
%TD*%
D38*
%TO.C,U3*%
X95408000Y-62752666D03*
X95408000Y-63252666D03*
X95408000Y-63752666D03*
X95408000Y-64252666D03*
D39*
X96058000Y-64902666D03*
X96558000Y-64902666D03*
X97058000Y-64902666D03*
X97558000Y-64902666D03*
D40*
X98208000Y-64252666D03*
X98208000Y-63752666D03*
X98208000Y-63252666D03*
X98208000Y-62752666D03*
D41*
X97558000Y-62102666D03*
X97058000Y-62102666D03*
X96558000Y-62102666D03*
X96058000Y-62102666D03*
D42*
X96808000Y-63502666D03*
%TD*%
D20*
%TO.C,FB1*%
X147290000Y-69560000D03*
X145890000Y-69560000D03*
%TD*%
D21*
%TO.C,C4*%
X124520000Y-76075000D03*
X124520000Y-78365000D03*
%TD*%
D43*
%TO.C,U1*%
X86559000Y-60107000D03*
X87208000Y-60107000D03*
X87860000Y-60107000D03*
X88510000Y-60107000D03*
X89160000Y-60107000D03*
D44*
X90185000Y-59081000D03*
X90185000Y-58432000D03*
X90185000Y-57780000D03*
X90185000Y-57130000D03*
X90185000Y-56480000D03*
D43*
X89160000Y-55455000D03*
X88510000Y-55455000D03*
X87860000Y-55455000D03*
X87208000Y-55455000D03*
X86559000Y-55455000D03*
D44*
X85533000Y-56480000D03*
X85533000Y-57130000D03*
X85533000Y-57780000D03*
X85533000Y-58432000D03*
X85533000Y-59081000D03*
%TD*%
D34*
%TO.C,C13*%
X127690000Y-64500000D03*
X126730000Y-64500000D03*
%TD*%
D21*
%TO.C,C5*%
X120880000Y-76095000D03*
X120880000Y-78385000D03*
%TD*%
D17*
%TO.C,C28*%
X95190000Y-53760000D03*
X96150000Y-53760000D03*
%TD*%
D45*
%TO.C,J3*%
X146735000Y-78542000D03*
X146735000Y-77740000D03*
D46*
X146735000Y-76590000D03*
X146735000Y-75590000D03*
X146735000Y-75092000D03*
X146735000Y-74091000D03*
D45*
X146735000Y-72942000D03*
X146735000Y-72140000D03*
X146735000Y-72140000D03*
X146735000Y-72942000D03*
D46*
X146735000Y-73591000D03*
X146735000Y-74592000D03*
X146735000Y-76090000D03*
X146735000Y-77090000D03*
D45*
X146735000Y-77740000D03*
X146735000Y-78542000D03*
%TD*%
D21*
%TO.C,C17*%
X111540000Y-60745000D03*
X111540000Y-63035000D03*
%TD*%
D13*
%TO.C,R25*%
X123451000Y-58003000D03*
X123451000Y-58963000D03*
%TD*%
%TO.C,R21*%
X124570000Y-63620000D03*
X124570000Y-64580000D03*
%TD*%
D17*
%TO.C,C27*%
X95190000Y-52620000D03*
X96150000Y-52620000D03*
%TD*%
D25*
%TO.C,C15*%
X131500000Y-67870000D03*
X131500000Y-66910000D03*
%TD*%
D34*
%TO.C,R9*%
X130445000Y-79990000D03*
X129485000Y-79990000D03*
%TD*%
D37*
%TO.C,R3*%
X82760000Y-56400000D03*
X84160000Y-56400000D03*
%TD*%
D13*
%TO.C,R23*%
X122450000Y-63620000D03*
X122450000Y-64580000D03*
%TD*%
D17*
%TO.C,R14*%
X121450000Y-84380600D03*
X122410000Y-84380600D03*
%TD*%
%TO.C,R32*%
X105490000Y-56020000D03*
X106450000Y-56020000D03*
%TD*%
D29*
%TO.C,L1*%
X132320000Y-85935000D03*
X132320000Y-89185000D03*
%TD*%
D20*
%TO.C,C8*%
X130990000Y-82350000D03*
X129590000Y-82350000D03*
%TD*%
D47*
%TO.C,D2*%
X80080000Y-64980000D03*
X80080000Y-62440000D03*
X83780000Y-64980000D03*
X83780000Y-62440000D03*
%TD*%
D48*
%TO.C,U5*%
X128410000Y-67527000D03*
X127009000Y-67527000D03*
X125610000Y-67527000D03*
X124209000Y-67527000D03*
X128410000Y-68928000D03*
X127009000Y-68928000D03*
X125610000Y-68928000D03*
X124209000Y-68928000D03*
X128410000Y-70327000D03*
X127009000Y-70327000D03*
X125610000Y-70327000D03*
X124209000Y-70327000D03*
X128410000Y-71728000D03*
X127009000Y-71728000D03*
X125610000Y-71728000D03*
X124209000Y-71728000D03*
D49*
X129559000Y-65690000D03*
X129059000Y-65690000D03*
X128559000Y-65690000D03*
X128059000Y-65690000D03*
X127559000Y-65690000D03*
X127059000Y-65690000D03*
X126559000Y-65690000D03*
X126060000Y-65690000D03*
X125560000Y-65690000D03*
X125060000Y-65690000D03*
X124560000Y-65690000D03*
X124060000Y-65690000D03*
X123560000Y-65690000D03*
X123060000Y-65690000D03*
D50*
X122372000Y-66378000D03*
X122372000Y-66878000D03*
X122372000Y-67378000D03*
X122372000Y-67878000D03*
X122372000Y-68378000D03*
X122372000Y-68878000D03*
X122372000Y-69378000D03*
X122372000Y-69877000D03*
X122372000Y-70377000D03*
X122372000Y-70877000D03*
X122372000Y-71377000D03*
X122372000Y-71877000D03*
X122372000Y-72377000D03*
X122372000Y-72877000D03*
D49*
X123060000Y-73565000D03*
X123560000Y-73565000D03*
X124060000Y-73565000D03*
X124560000Y-73565000D03*
X125060000Y-73565000D03*
X125560000Y-73565000D03*
X126060000Y-73565000D03*
X126559000Y-73565000D03*
X127059000Y-73565000D03*
X127559000Y-73565000D03*
X128059000Y-73565000D03*
X128559000Y-73565000D03*
X129059000Y-73565000D03*
X129559000Y-73565000D03*
D50*
X130247000Y-72877000D03*
X130247000Y-72377000D03*
X130247000Y-71877000D03*
X130247000Y-71377000D03*
X130247000Y-70877000D03*
X130247000Y-70377000D03*
X130247000Y-69877000D03*
X130247000Y-69378000D03*
X130247000Y-68878000D03*
X130247000Y-68378000D03*
X130247000Y-67878000D03*
X130247000Y-67378000D03*
X130247000Y-66878000D03*
X130247000Y-66378000D03*
%TD*%
D17*
%TO.C,R31*%
X105520000Y-54702500D03*
X106480000Y-54702500D03*
%TD*%
D25*
%TO.C,R6*%
X86807500Y-62290000D03*
X86807500Y-61330000D03*
%TD*%
D13*
%TO.C,R20*%
X125630000Y-63620000D03*
X125630000Y-64580000D03*
%TD*%
D17*
%TO.C,R29*%
X105440000Y-52067500D03*
X106400000Y-52067500D03*
%TD*%
D13*
%TO.C,R24*%
X124470000Y-57990000D03*
X124470000Y-58950000D03*
%TD*%
D51*
%TO.C,C10*%
X119621000Y-83530000D03*
X119621000Y-80530000D03*
%TD*%
D32*
%TO.C,U7*%
X115150000Y-58675000D03*
X116420000Y-58675000D03*
X117690000Y-58675000D03*
X118960000Y-58675000D03*
X118960000Y-53250000D03*
X117690000Y-53250000D03*
X116420000Y-53250000D03*
X115150000Y-53250000D03*
D33*
X117055000Y-55960000D03*
%TD*%
D52*
%TO.C,D1*%
X83780000Y-50590000D03*
X83780000Y-53130000D03*
X80080000Y-50590000D03*
X80080000Y-53130000D03*
%TD*%
D13*
%TO.C,R19*%
X130740000Y-63590000D03*
X130740000Y-64550000D03*
%TD*%
D17*
%TO.C,C25*%
X95190000Y-54900000D03*
X96150000Y-54900000D03*
%TD*%
D21*
%TO.C,C3*%
X128080000Y-76055000D03*
X128080000Y-78345000D03*
%TD*%
M02*
