%TF.GenerationSoftware,KiCad,Pcbnew,7.0.11+dfsg-1build4*%
%TF.CreationDate,2024-07-15T15:28:05+02:00*%
%TF.ProjectId,antmicro-poe-to-usbc-pd-adapter,616e746d-6963-4726-9f2d-706f652d746f,rev?*%
%TF.SameCoordinates,Original*%
%TF.FileFunction,Drillmap*%
%TF.FilePolarity,Positive*%
%FSLAX45Y45*%
G04 Gerber Fmt 4.5, Leading zero omitted, Abs format (unit mm)*
G04 Created by KiCad (PCBNEW 7.0.11+dfsg-1build4) date 2024-07-15 15:28:05 commit  463866a *
%MOMM*%
%LPD*%
G01*
G04 APERTURE LIST*
%ADD10C,0.120000*%
%ADD11C,0.200000*%
%ADD12C,0.100000*%
%ADD13C,0.101600*%
%ADD14C,0.102000*%
%ADD15C,0.157000*%
%ADD16C,0.160000*%
%ADD17C,0.160020*%
%ADD18C,0.270000*%
G04 APERTURE END LIST*
D10*
X5675000Y-4244000D02*
X15413000Y-4244000D01*
X15413000Y-9703000D01*
X5675000Y-9703000D01*
X5675000Y-4244000D01*
D11*
D12*
X9828900Y-5077300D02*
X9838900Y-5087300D01*
X9838900Y-5077300D02*
X9828900Y-5087300D01*
X9828900Y-5165000D02*
X9838900Y-5175000D01*
X9838900Y-5165000D02*
X9828900Y-5175000D01*
X9828900Y-5252400D02*
X9838900Y-5262400D01*
X9838900Y-5252400D02*
X9828900Y-5262400D01*
X9828900Y-5369800D02*
X9838900Y-5379800D01*
X9838900Y-5369800D02*
X9828900Y-5379800D01*
X9828900Y-5457500D02*
X9838900Y-5467500D01*
X9838900Y-5457500D02*
X9828900Y-5467500D01*
X9828900Y-5545000D02*
X9838900Y-5555000D01*
X9838900Y-5545000D02*
X9828900Y-5555000D01*
X9923900Y-5077300D02*
X9933900Y-5087300D01*
X9933900Y-5077300D02*
X9923900Y-5087300D01*
X9923900Y-5165000D02*
X9933900Y-5175000D01*
X9933900Y-5165000D02*
X9923900Y-5175000D01*
X9923900Y-5252300D02*
X9933900Y-5262300D01*
X9933900Y-5252300D02*
X9923900Y-5262300D01*
X9923900Y-5369800D02*
X9933900Y-5379800D01*
X9933900Y-5369800D02*
X9923900Y-5379800D01*
X9923900Y-5457500D02*
X9933900Y-5467500D01*
X9933900Y-5457500D02*
X9923900Y-5467500D01*
X9923900Y-5544900D02*
X9933900Y-5554900D01*
X9933900Y-5544900D02*
X9923900Y-5554900D01*
X10048800Y-5442200D02*
X10058800Y-5452200D01*
X10058800Y-5442200D02*
X10048800Y-5452200D01*
X10049000Y-5177900D02*
X10059000Y-5187900D01*
X10059000Y-5177900D02*
X10049000Y-5187900D01*
X10049000Y-5310000D02*
X10059000Y-5320000D01*
X10059000Y-5310000D02*
X10049000Y-5320000D01*
X10168800Y-5059600D02*
X10178800Y-5069600D01*
X10178800Y-5059600D02*
X10168800Y-5069600D01*
X10168800Y-5177300D02*
X10178800Y-5187300D01*
X10178800Y-5177300D02*
X10168800Y-5187300D01*
X10168800Y-5442200D02*
X10178800Y-5452200D01*
X10178800Y-5442200D02*
X10168800Y-5452200D01*
X10168800Y-5559600D02*
X10178800Y-5569600D01*
X10178800Y-5559600D02*
X10168800Y-5569600D01*
X10169000Y-5310000D02*
X10179000Y-5320000D01*
X10179000Y-5310000D02*
X10169000Y-5320000D01*
X10288800Y-5177300D02*
X10298800Y-5187300D01*
X10298800Y-5177300D02*
X10288800Y-5187300D01*
X10288800Y-5309900D02*
X10298800Y-5319900D01*
X10298800Y-5309900D02*
X10288800Y-5319900D01*
X10288800Y-5442200D02*
X10298800Y-5452200D01*
X10298800Y-5442200D02*
X10288800Y-5452200D01*
X11652000Y-5531000D02*
G75*
G03*
X11632000Y-5531000I-10000J0D01*
G01*
X11632000Y-5531000D02*
G75*
G03*
X11652000Y-5531000I10000J0D01*
G01*
X11652000Y-5661000D02*
G75*
G03*
X11632000Y-5661000I-10000J0D01*
G01*
X11632000Y-5661000D02*
G75*
G03*
X11652000Y-5661000I10000J0D01*
G01*
X11779000Y-5531000D02*
G75*
G03*
X11759000Y-5531000I-10000J0D01*
G01*
X11759000Y-5531000D02*
G75*
G03*
X11779000Y-5531000I10000J0D01*
G01*
X11779000Y-5661000D02*
G75*
G03*
X11759000Y-5661000I-10000J0D01*
G01*
X11759000Y-5661000D02*
G75*
G03*
X11779000Y-5661000I10000J0D01*
G01*
X12545500Y-8249000D02*
G75*
G03*
X12525500Y-8249000I-10000J0D01*
G01*
X12525500Y-8249000D02*
G75*
G03*
X12545500Y-8249000I10000J0D01*
G01*
X12545500Y-8379000D02*
G75*
G03*
X12525500Y-8379000I-10000J0D01*
G01*
X12525500Y-8379000D02*
G75*
G03*
X12545500Y-8379000I10000J0D01*
G01*
X12672500Y-8249000D02*
G75*
G03*
X12652500Y-8249000I-10000J0D01*
G01*
X12652500Y-8249000D02*
G75*
G03*
X12672500Y-8249000I10000J0D01*
G01*
X12672500Y-8379000D02*
G75*
G03*
X12652500Y-8379000I-10000J0D01*
G01*
X12652500Y-8379000D02*
G75*
G03*
X12672500Y-8379000I10000J0D01*
G01*
X14730900Y-7072000D02*
X14730900Y-7132000D01*
X14700900Y-7102000D02*
X14760900Y-7102000D01*
X14675900Y-7132000D02*
X14785900Y-7132000D01*
X14785900Y-7132000D02*
G75*
G03*
X14785900Y-7072000I0J30000D01*
G01*
X14785900Y-7072000D02*
X14675900Y-7072000D01*
X14675900Y-7072000D02*
G75*
G03*
X14675900Y-7132000I0J-30000D01*
G01*
X14730900Y-7936100D02*
X14730900Y-7996100D01*
X14700900Y-7966100D02*
X14760900Y-7966100D01*
X14675900Y-7996100D02*
X14785900Y-7996100D01*
X14785900Y-7996100D02*
G75*
G03*
X14785900Y-7936100I0J30000D01*
G01*
X14785900Y-7936100D02*
X14675900Y-7936100D01*
X14675900Y-7936100D02*
G75*
G03*
X14675900Y-7996100I0J-30000D01*
G01*
X15149000Y-7072000D02*
X15149000Y-7132000D01*
X15119000Y-7102000D02*
X15179000Y-7102000D01*
X15109000Y-7132000D02*
X15189000Y-7132000D01*
X15189000Y-7132000D02*
G75*
G03*
X15189000Y-7072000I0J30000D01*
G01*
X15189000Y-7072000D02*
X15109000Y-7072000D01*
X15109000Y-7072000D02*
G75*
G03*
X15109000Y-7132000I0J-30000D01*
G01*
X15149000Y-7936100D02*
X15149000Y-7996100D01*
X15119000Y-7966100D02*
X15179000Y-7966100D01*
X15109000Y-7996100D02*
X15189000Y-7996100D01*
X15189000Y-7996100D02*
G75*
G03*
X15189000Y-7936100I0J30000D01*
G01*
X15189000Y-7936100D02*
X15109000Y-7936100D01*
X15109000Y-7936100D02*
G75*
G03*
X15109000Y-7996100I0J-30000D01*
G01*
X7118531Y-5485431D02*
X7118531Y-5422569D01*
X7055669Y-5422569D01*
X7055669Y-5485431D01*
X7118531Y-5485431D01*
X7118531Y-6120531D02*
X7118531Y-6057669D01*
X7055669Y-6057669D01*
X7055669Y-6120531D01*
X7118531Y-6120531D01*
X7244631Y-5231531D02*
X7244631Y-5168669D01*
X7181769Y-5168669D01*
X7181769Y-5231531D01*
X7244631Y-5231531D01*
X7245431Y-6374431D02*
X7245431Y-6311569D01*
X7182569Y-6311569D01*
X7182569Y-6374431D01*
X7245431Y-6374431D01*
X7498531Y-5358431D02*
X7498531Y-5295569D01*
X7435669Y-5295569D01*
X7435669Y-5358431D01*
X7498531Y-5358431D01*
X7498531Y-5612431D02*
X7498531Y-5549569D01*
X7435669Y-5549569D01*
X7435669Y-5612431D01*
X7498531Y-5612431D01*
X7498531Y-5866431D02*
X7498531Y-5803569D01*
X7435669Y-5803569D01*
X7435669Y-5866431D01*
X7498531Y-5866431D01*
X7498531Y-6120531D02*
X7498531Y-6057669D01*
X7435669Y-6057669D01*
X7435669Y-6120531D01*
X7498531Y-6120531D01*
X7498531Y-6374431D02*
X7498531Y-6311569D01*
X7435669Y-6311569D01*
X7435669Y-6374431D01*
X7498531Y-6374431D01*
X7752431Y-5231531D02*
X7752431Y-5168669D01*
X7689569Y-5168669D01*
X7689569Y-5231531D01*
X7752431Y-5231531D01*
X7752431Y-5485431D02*
X7752431Y-5422569D01*
X7689569Y-5422569D01*
X7689569Y-5485431D01*
X7752431Y-5485431D01*
X7752431Y-5739331D02*
X7752431Y-5676469D01*
X7689569Y-5676469D01*
X7689569Y-5739331D01*
X7752431Y-5739331D01*
X7752431Y-5993331D02*
X7752431Y-5930469D01*
X7689569Y-5930469D01*
X7689569Y-5993331D01*
X7752431Y-5993331D01*
X7752431Y-6247431D02*
X7752431Y-6184569D01*
X7689569Y-6184569D01*
X7689569Y-6247431D01*
X7752431Y-6247431D01*
X13442931Y-5438331D02*
X13442931Y-5375469D01*
X13380069Y-5375469D01*
X13380069Y-5438331D01*
X13442931Y-5438331D01*
X13442931Y-5692431D02*
X13442931Y-5629569D01*
X13380069Y-5629569D01*
X13380069Y-5692431D01*
X13442931Y-5692431D01*
X13442931Y-5946431D02*
X13442931Y-5883569D01*
X13380069Y-5883569D01*
X13380069Y-5946431D01*
X13442931Y-5946431D01*
X13442931Y-6200331D02*
X13442931Y-6137469D01*
X13380069Y-6137469D01*
X13380069Y-6200331D01*
X13442931Y-6200331D01*
X13442931Y-6454231D02*
X13442931Y-6391369D01*
X13380069Y-6391369D01*
X13380069Y-6454231D01*
X13442931Y-6454231D01*
X13696831Y-5311331D02*
X13696831Y-5248469D01*
X13633969Y-5248469D01*
X13633969Y-5311331D01*
X13696831Y-5311331D01*
X13696831Y-5565231D02*
X13696831Y-5502369D01*
X13633969Y-5502369D01*
X13633969Y-5565231D01*
X13696831Y-5565231D01*
X13696831Y-5819331D02*
X13696831Y-5756469D01*
X13633969Y-5756469D01*
X13633969Y-5819331D01*
X13696831Y-5819331D01*
X13696831Y-6073331D02*
X13696831Y-6010469D01*
X13633969Y-6010469D01*
X13633969Y-6073331D01*
X13696831Y-6073331D01*
X13696831Y-6327331D02*
X13696831Y-6264469D01*
X13633969Y-6264469D01*
X13633969Y-6327331D01*
X13696831Y-6327331D01*
X13949931Y-5311331D02*
X13949931Y-5248469D01*
X13887069Y-5248469D01*
X13887069Y-5311331D01*
X13949931Y-5311331D01*
X13950731Y-6454231D02*
X13950731Y-6391369D01*
X13887869Y-6391369D01*
X13887869Y-6454231D01*
X13950731Y-6454231D01*
X14076831Y-5565231D02*
X14076831Y-5502369D01*
X14013969Y-5502369D01*
X14013969Y-5565231D01*
X14076831Y-5565231D01*
X14076831Y-6200331D02*
X14076831Y-6137469D01*
X14013969Y-6137469D01*
X14013969Y-6200331D01*
X14076831Y-6200331D01*
D13*
X6425200Y-5158200D02*
X6476000Y-5107400D01*
X6425200Y-5056600D01*
X6374400Y-5107400D01*
X6425200Y-5158200D01*
X6425200Y-5412300D02*
X6476000Y-5361500D01*
X6425200Y-5310700D01*
X6374400Y-5361500D01*
X6425200Y-5412300D01*
X6425200Y-6232300D02*
X6476000Y-6181500D01*
X6425200Y-6130700D01*
X6374400Y-6181500D01*
X6425200Y-6232300D01*
X6425200Y-6486400D02*
X6476000Y-6435600D01*
X6425200Y-6384800D01*
X6374400Y-6435600D01*
X6425200Y-6486400D01*
X14707300Y-5238100D02*
X14758100Y-5187300D01*
X14707300Y-5136500D01*
X14656500Y-5187300D01*
X14707300Y-5238100D01*
X14707300Y-5492200D02*
X14758100Y-5441400D01*
X14707300Y-5390600D01*
X14656500Y-5441400D01*
X14707300Y-5492200D01*
X14707300Y-6312200D02*
X14758100Y-6261400D01*
X14707300Y-6210600D01*
X14656500Y-6261400D01*
X14707300Y-6312200D01*
X14707300Y-6566300D02*
X14758100Y-6515500D01*
X14707300Y-6464700D01*
X14656500Y-6515500D01*
X14707300Y-6566300D01*
D14*
X6162000Y-7067000D02*
X6264000Y-7169000D01*
X6264000Y-7067000D02*
X6162000Y-7169000D01*
X6264000Y-7118000D02*
G75*
G03*
X6162000Y-7118000I-51000J0D01*
G01*
X6162000Y-7118000D02*
G75*
G03*
X6264000Y-7118000I51000J0D01*
G01*
X6162000Y-7829000D02*
X6264000Y-7931000D01*
X6264000Y-7829000D02*
X6162000Y-7931000D01*
X6264000Y-7880000D02*
G75*
G03*
X6162000Y-7880000I-51000J0D01*
G01*
X6162000Y-7880000D02*
G75*
G03*
X6264000Y-7880000I51000J0D01*
G01*
X6162000Y-8591000D02*
X6264000Y-8693000D01*
X6264000Y-8591000D02*
X6162000Y-8693000D01*
X6264000Y-8642000D02*
G75*
G03*
X6162000Y-8642000I-51000J0D01*
G01*
X6162000Y-8642000D02*
G75*
G03*
X6264000Y-8642000I51000J0D01*
G01*
X11242000Y-7448000D02*
X11344000Y-7550000D01*
X11344000Y-7448000D02*
X11242000Y-7550000D01*
X11344000Y-7499000D02*
G75*
G03*
X11242000Y-7499000I-51000J0D01*
G01*
X11242000Y-7499000D02*
G75*
G03*
X11344000Y-7499000I51000J0D01*
G01*
X11242000Y-7829000D02*
X11344000Y-7931000D01*
X11344000Y-7829000D02*
X11242000Y-7931000D01*
X11344000Y-7880000D02*
G75*
G03*
X11242000Y-7880000I-51000J0D01*
G01*
X11242000Y-7880000D02*
G75*
G03*
X11344000Y-7880000I51000J0D01*
G01*
X11242000Y-8210000D02*
X11344000Y-8312000D01*
X11344000Y-8210000D02*
X11242000Y-8312000D01*
X11344000Y-8261000D02*
G75*
G03*
X11242000Y-8261000I-51000J0D01*
G01*
X11242000Y-8261000D02*
G75*
G03*
X11344000Y-8261000I51000J0D01*
G01*
D15*
X11214500Y-7039500D02*
X11371500Y-7196500D01*
X11371500Y-7039500D02*
X11214500Y-7196500D01*
X11293000Y-7039500D02*
X11293000Y-7196500D01*
X11214500Y-7118000D02*
X11371500Y-7118000D01*
X11214500Y-8563500D02*
X11371500Y-8720500D01*
X11371500Y-8563500D02*
X11214500Y-8720500D01*
X11293000Y-8563500D02*
X11293000Y-8720500D01*
X11214500Y-8642000D02*
X11371500Y-8642000D01*
D16*
X7056000Y-4906500D02*
X7216000Y-5066500D01*
X7216000Y-4906500D02*
X7056000Y-5066500D01*
X7192569Y-5043069D02*
X7192569Y-4929931D01*
X7079431Y-4929931D01*
X7079431Y-5043069D01*
X7192569Y-5043069D01*
X13916500Y-6556400D02*
X14076500Y-6716400D01*
X14076500Y-6556400D02*
X13916500Y-6716400D01*
X14053069Y-6692969D02*
X14053069Y-6579831D01*
X13939931Y-6579831D01*
X13939931Y-6692969D01*
X14053069Y-6692969D01*
D17*
X7055990Y-6476390D02*
X7216010Y-6636410D01*
X7216010Y-6476390D02*
X7055990Y-6636410D01*
X7136000Y-6636410D02*
X7216010Y-6556400D01*
X7136000Y-6476390D01*
X7055990Y-6556400D01*
X7136000Y-6636410D01*
X13916490Y-4986490D02*
X14076510Y-5146510D01*
X14076510Y-4986490D02*
X13916490Y-5146510D01*
X13996500Y-5146510D02*
X14076510Y-5066500D01*
X13996500Y-4986490D01*
X13916490Y-5066500D01*
X13996500Y-5146510D01*
D18*
X6001000Y-9271000D02*
X6001000Y-9541000D01*
X5866000Y-9406000D02*
X6136000Y-9406000D01*
X6136000Y-9406000D02*
G75*
G03*
X5866000Y-9406000I-135000J0D01*
G01*
X5866000Y-9406000D02*
G75*
G03*
X6136000Y-9406000I135000J0D01*
G01*
X6028500Y-4486000D02*
X6028500Y-4756000D01*
X5893500Y-4621000D02*
X6163500Y-4621000D01*
X6163500Y-4621000D02*
G75*
G03*
X5893500Y-4621000I-135000J0D01*
G01*
X5893500Y-4621000D02*
G75*
G03*
X6163500Y-4621000I135000J0D01*
G01*
X15084000Y-4485000D02*
X15084000Y-4755000D01*
X14949000Y-4620000D02*
X15219000Y-4620000D01*
X15219000Y-4620000D02*
G75*
G03*
X14949000Y-4620000I-135000J0D01*
G01*
X14949000Y-4620000D02*
G75*
G03*
X15219000Y-4620000I135000J0D01*
G01*
X15084000Y-9270000D02*
X15084000Y-9540000D01*
X14949000Y-9405000D02*
X15219000Y-9405000D01*
X15219000Y-9405000D02*
G75*
G03*
X14949000Y-9405000I-135000J0D01*
G01*
X14949000Y-9405000D02*
G75*
G03*
X15219000Y-9405000I135000J0D01*
G01*
D11*
X5929777Y-10020484D02*
X5929777Y-9820484D01*
X5929777Y-9820484D02*
X5977396Y-9820484D01*
X5977396Y-9820484D02*
X6005967Y-9830008D01*
X6005967Y-9830008D02*
X6025015Y-9849055D01*
X6025015Y-9849055D02*
X6034539Y-9868103D01*
X6034539Y-9868103D02*
X6044062Y-9906198D01*
X6044062Y-9906198D02*
X6044062Y-9934770D01*
X6044062Y-9934770D02*
X6034539Y-9972865D01*
X6034539Y-9972865D02*
X6025015Y-9991912D01*
X6025015Y-9991912D02*
X6005967Y-10010960D01*
X6005967Y-10010960D02*
X5977396Y-10020484D01*
X5977396Y-10020484D02*
X5929777Y-10020484D01*
X6129777Y-10020484D02*
X6129777Y-9887150D01*
X6129777Y-9925246D02*
X6139301Y-9906198D01*
X6139301Y-9906198D02*
X6148824Y-9896674D01*
X6148824Y-9896674D02*
X6167872Y-9887150D01*
X6167872Y-9887150D02*
X6186920Y-9887150D01*
X6253586Y-10020484D02*
X6253586Y-9887150D01*
X6253586Y-9820484D02*
X6244062Y-9830008D01*
X6244062Y-9830008D02*
X6253586Y-9839531D01*
X6253586Y-9839531D02*
X6263110Y-9830008D01*
X6263110Y-9830008D02*
X6253586Y-9820484D01*
X6253586Y-9820484D02*
X6253586Y-9839531D01*
X6377396Y-10020484D02*
X6358348Y-10010960D01*
X6358348Y-10010960D02*
X6348824Y-9991912D01*
X6348824Y-9991912D02*
X6348824Y-9820484D01*
X6482158Y-10020484D02*
X6463110Y-10010960D01*
X6463110Y-10010960D02*
X6453586Y-9991912D01*
X6453586Y-9991912D02*
X6453586Y-9820484D01*
X6710729Y-10020484D02*
X6710729Y-9820484D01*
X6710729Y-9820484D02*
X6777396Y-9963341D01*
X6777396Y-9963341D02*
X6844062Y-9820484D01*
X6844062Y-9820484D02*
X6844062Y-10020484D01*
X7025015Y-10020484D02*
X7025015Y-9915722D01*
X7025015Y-9915722D02*
X7015491Y-9896674D01*
X7015491Y-9896674D02*
X6996443Y-9887150D01*
X6996443Y-9887150D02*
X6958348Y-9887150D01*
X6958348Y-9887150D02*
X6939301Y-9896674D01*
X7025015Y-10010960D02*
X7005967Y-10020484D01*
X7005967Y-10020484D02*
X6958348Y-10020484D01*
X6958348Y-10020484D02*
X6939301Y-10010960D01*
X6939301Y-10010960D02*
X6929777Y-9991912D01*
X6929777Y-9991912D02*
X6929777Y-9972865D01*
X6929777Y-9972865D02*
X6939301Y-9953817D01*
X6939301Y-9953817D02*
X6958348Y-9944293D01*
X6958348Y-9944293D02*
X7005967Y-9944293D01*
X7005967Y-9944293D02*
X7025015Y-9934770D01*
X7120253Y-9887150D02*
X7120253Y-10087150D01*
X7120253Y-9896674D02*
X7139301Y-9887150D01*
X7139301Y-9887150D02*
X7177396Y-9887150D01*
X7177396Y-9887150D02*
X7196443Y-9896674D01*
X7196443Y-9896674D02*
X7205967Y-9906198D01*
X7205967Y-9906198D02*
X7215491Y-9925246D01*
X7215491Y-9925246D02*
X7215491Y-9982389D01*
X7215491Y-9982389D02*
X7205967Y-10001436D01*
X7205967Y-10001436D02*
X7196443Y-10010960D01*
X7196443Y-10010960D02*
X7177396Y-10020484D01*
X7177396Y-10020484D02*
X7139301Y-10020484D01*
X7139301Y-10020484D02*
X7120253Y-10010960D01*
X7301205Y-10001436D02*
X7310729Y-10010960D01*
X7310729Y-10010960D02*
X7301205Y-10020484D01*
X7301205Y-10020484D02*
X7291682Y-10010960D01*
X7291682Y-10010960D02*
X7301205Y-10001436D01*
X7301205Y-10001436D02*
X7301205Y-10020484D01*
X7301205Y-9896674D02*
X7310729Y-9906198D01*
X7310729Y-9906198D02*
X7301205Y-9915722D01*
X7301205Y-9915722D02*
X7291682Y-9906198D01*
X7291682Y-9906198D02*
X7301205Y-9896674D01*
X7301205Y-9896674D02*
X7301205Y-9915722D01*
D12*
X5659000Y-10344000D02*
X5669000Y-10354000D01*
X5669000Y-10344000D02*
X5659000Y-10354000D01*
D11*
X5967872Y-10240484D02*
X5986920Y-10240484D01*
X5986920Y-10240484D02*
X6005967Y-10250008D01*
X6005967Y-10250008D02*
X6015491Y-10259531D01*
X6015491Y-10259531D02*
X6025015Y-10278579D01*
X6025015Y-10278579D02*
X6034539Y-10316674D01*
X6034539Y-10316674D02*
X6034539Y-10364293D01*
X6034539Y-10364293D02*
X6025015Y-10402389D01*
X6025015Y-10402389D02*
X6015491Y-10421436D01*
X6015491Y-10421436D02*
X6005967Y-10430960D01*
X6005967Y-10430960D02*
X5986920Y-10440484D01*
X5986920Y-10440484D02*
X5967872Y-10440484D01*
X5967872Y-10440484D02*
X5948824Y-10430960D01*
X5948824Y-10430960D02*
X5939301Y-10421436D01*
X5939301Y-10421436D02*
X5929777Y-10402389D01*
X5929777Y-10402389D02*
X5920253Y-10364293D01*
X5920253Y-10364293D02*
X5920253Y-10316674D01*
X5920253Y-10316674D02*
X5929777Y-10278579D01*
X5929777Y-10278579D02*
X5939301Y-10259531D01*
X5939301Y-10259531D02*
X5948824Y-10250008D01*
X5948824Y-10250008D02*
X5967872Y-10240484D01*
X6120253Y-10421436D02*
X6129777Y-10430960D01*
X6129777Y-10430960D02*
X6120253Y-10440484D01*
X6120253Y-10440484D02*
X6110729Y-10430960D01*
X6110729Y-10430960D02*
X6120253Y-10421436D01*
X6120253Y-10421436D02*
X6120253Y-10440484D01*
X6320253Y-10440484D02*
X6205967Y-10440484D01*
X6263110Y-10440484D02*
X6263110Y-10240484D01*
X6263110Y-10240484D02*
X6244062Y-10269055D01*
X6244062Y-10269055D02*
X6225015Y-10288103D01*
X6225015Y-10288103D02*
X6205967Y-10297627D01*
X6444062Y-10240484D02*
X6463110Y-10240484D01*
X6463110Y-10240484D02*
X6482158Y-10250008D01*
X6482158Y-10250008D02*
X6491682Y-10259531D01*
X6491682Y-10259531D02*
X6501205Y-10278579D01*
X6501205Y-10278579D02*
X6510729Y-10316674D01*
X6510729Y-10316674D02*
X6510729Y-10364293D01*
X6510729Y-10364293D02*
X6501205Y-10402389D01*
X6501205Y-10402389D02*
X6491682Y-10421436D01*
X6491682Y-10421436D02*
X6482158Y-10430960D01*
X6482158Y-10430960D02*
X6463110Y-10440484D01*
X6463110Y-10440484D02*
X6444062Y-10440484D01*
X6444062Y-10440484D02*
X6425015Y-10430960D01*
X6425015Y-10430960D02*
X6415491Y-10421436D01*
X6415491Y-10421436D02*
X6405967Y-10402389D01*
X6405967Y-10402389D02*
X6396443Y-10364293D01*
X6396443Y-10364293D02*
X6396443Y-10316674D01*
X6396443Y-10316674D02*
X6405967Y-10278579D01*
X6405967Y-10278579D02*
X6415491Y-10259531D01*
X6415491Y-10259531D02*
X6425015Y-10250008D01*
X6425015Y-10250008D02*
X6444062Y-10240484D01*
X6634539Y-10240484D02*
X6653586Y-10240484D01*
X6653586Y-10240484D02*
X6672634Y-10250008D01*
X6672634Y-10250008D02*
X6682158Y-10259531D01*
X6682158Y-10259531D02*
X6691682Y-10278579D01*
X6691682Y-10278579D02*
X6701205Y-10316674D01*
X6701205Y-10316674D02*
X6701205Y-10364293D01*
X6701205Y-10364293D02*
X6691682Y-10402389D01*
X6691682Y-10402389D02*
X6682158Y-10421436D01*
X6682158Y-10421436D02*
X6672634Y-10430960D01*
X6672634Y-10430960D02*
X6653586Y-10440484D01*
X6653586Y-10440484D02*
X6634539Y-10440484D01*
X6634539Y-10440484D02*
X6615491Y-10430960D01*
X6615491Y-10430960D02*
X6605967Y-10421436D01*
X6605967Y-10421436D02*
X6596443Y-10402389D01*
X6596443Y-10402389D02*
X6586920Y-10364293D01*
X6586920Y-10364293D02*
X6586920Y-10316674D01*
X6586920Y-10316674D02*
X6596443Y-10278579D01*
X6596443Y-10278579D02*
X6605967Y-10259531D01*
X6605967Y-10259531D02*
X6615491Y-10250008D01*
X6615491Y-10250008D02*
X6634539Y-10240484D01*
X6786920Y-10440484D02*
X6786920Y-10307150D01*
X6786920Y-10326198D02*
X6796443Y-10316674D01*
X6796443Y-10316674D02*
X6815491Y-10307150D01*
X6815491Y-10307150D02*
X6844063Y-10307150D01*
X6844063Y-10307150D02*
X6863110Y-10316674D01*
X6863110Y-10316674D02*
X6872634Y-10335722D01*
X6872634Y-10335722D02*
X6872634Y-10440484D01*
X6872634Y-10335722D02*
X6882158Y-10316674D01*
X6882158Y-10316674D02*
X6901205Y-10307150D01*
X6901205Y-10307150D02*
X6929777Y-10307150D01*
X6929777Y-10307150D02*
X6948824Y-10316674D01*
X6948824Y-10316674D02*
X6958348Y-10335722D01*
X6958348Y-10335722D02*
X6958348Y-10440484D01*
X7053586Y-10440484D02*
X7053586Y-10307150D01*
X7053586Y-10326198D02*
X7063110Y-10316674D01*
X7063110Y-10316674D02*
X7082158Y-10307150D01*
X7082158Y-10307150D02*
X7110729Y-10307150D01*
X7110729Y-10307150D02*
X7129777Y-10316674D01*
X7129777Y-10316674D02*
X7139301Y-10335722D01*
X7139301Y-10335722D02*
X7139301Y-10440484D01*
X7139301Y-10335722D02*
X7148824Y-10316674D01*
X7148824Y-10316674D02*
X7167872Y-10307150D01*
X7167872Y-10307150D02*
X7196443Y-10307150D01*
X7196443Y-10307150D02*
X7215491Y-10316674D01*
X7215491Y-10316674D02*
X7225015Y-10335722D01*
X7225015Y-10335722D02*
X7225015Y-10440484D01*
X7615491Y-10230960D02*
X7444063Y-10488103D01*
X7872634Y-10240484D02*
X7891682Y-10240484D01*
X7891682Y-10240484D02*
X7910729Y-10250008D01*
X7910729Y-10250008D02*
X7920253Y-10259531D01*
X7920253Y-10259531D02*
X7929777Y-10278579D01*
X7929777Y-10278579D02*
X7939301Y-10316674D01*
X7939301Y-10316674D02*
X7939301Y-10364293D01*
X7939301Y-10364293D02*
X7929777Y-10402389D01*
X7929777Y-10402389D02*
X7920253Y-10421436D01*
X7920253Y-10421436D02*
X7910729Y-10430960D01*
X7910729Y-10430960D02*
X7891682Y-10440484D01*
X7891682Y-10440484D02*
X7872634Y-10440484D01*
X7872634Y-10440484D02*
X7853586Y-10430960D01*
X7853586Y-10430960D02*
X7844063Y-10421436D01*
X7844063Y-10421436D02*
X7834539Y-10402389D01*
X7834539Y-10402389D02*
X7825015Y-10364293D01*
X7825015Y-10364293D02*
X7825015Y-10316674D01*
X7825015Y-10316674D02*
X7834539Y-10278579D01*
X7834539Y-10278579D02*
X7844063Y-10259531D01*
X7844063Y-10259531D02*
X7853586Y-10250008D01*
X7853586Y-10250008D02*
X7872634Y-10240484D01*
X8025015Y-10421436D02*
X8034539Y-10430960D01*
X8034539Y-10430960D02*
X8025015Y-10440484D01*
X8025015Y-10440484D02*
X8015491Y-10430960D01*
X8015491Y-10430960D02*
X8025015Y-10421436D01*
X8025015Y-10421436D02*
X8025015Y-10440484D01*
X8158348Y-10240484D02*
X8177396Y-10240484D01*
X8177396Y-10240484D02*
X8196444Y-10250008D01*
X8196444Y-10250008D02*
X8205967Y-10259531D01*
X8205967Y-10259531D02*
X8215491Y-10278579D01*
X8215491Y-10278579D02*
X8225015Y-10316674D01*
X8225015Y-10316674D02*
X8225015Y-10364293D01*
X8225015Y-10364293D02*
X8215491Y-10402389D01*
X8215491Y-10402389D02*
X8205967Y-10421436D01*
X8205967Y-10421436D02*
X8196444Y-10430960D01*
X8196444Y-10430960D02*
X8177396Y-10440484D01*
X8177396Y-10440484D02*
X8158348Y-10440484D01*
X8158348Y-10440484D02*
X8139301Y-10430960D01*
X8139301Y-10430960D02*
X8129777Y-10421436D01*
X8129777Y-10421436D02*
X8120253Y-10402389D01*
X8120253Y-10402389D02*
X8110729Y-10364293D01*
X8110729Y-10364293D02*
X8110729Y-10316674D01*
X8110729Y-10316674D02*
X8120253Y-10278579D01*
X8120253Y-10278579D02*
X8129777Y-10259531D01*
X8129777Y-10259531D02*
X8139301Y-10250008D01*
X8139301Y-10250008D02*
X8158348Y-10240484D01*
X8348825Y-10240484D02*
X8367872Y-10240484D01*
X8367872Y-10240484D02*
X8386920Y-10250008D01*
X8386920Y-10250008D02*
X8396444Y-10259531D01*
X8396444Y-10259531D02*
X8405968Y-10278579D01*
X8405968Y-10278579D02*
X8415491Y-10316674D01*
X8415491Y-10316674D02*
X8415491Y-10364293D01*
X8415491Y-10364293D02*
X8405968Y-10402389D01*
X8405968Y-10402389D02*
X8396444Y-10421436D01*
X8396444Y-10421436D02*
X8386920Y-10430960D01*
X8386920Y-10430960D02*
X8367872Y-10440484D01*
X8367872Y-10440484D02*
X8348825Y-10440484D01*
X8348825Y-10440484D02*
X8329777Y-10430960D01*
X8329777Y-10430960D02*
X8320253Y-10421436D01*
X8320253Y-10421436D02*
X8310729Y-10402389D01*
X8310729Y-10402389D02*
X8301206Y-10364293D01*
X8301206Y-10364293D02*
X8301206Y-10316674D01*
X8301206Y-10316674D02*
X8310729Y-10278579D01*
X8310729Y-10278579D02*
X8320253Y-10259531D01*
X8320253Y-10259531D02*
X8329777Y-10250008D01*
X8329777Y-10250008D02*
X8348825Y-10240484D01*
X8482158Y-10240484D02*
X8605968Y-10240484D01*
X8605968Y-10240484D02*
X8539301Y-10316674D01*
X8539301Y-10316674D02*
X8567872Y-10316674D01*
X8567872Y-10316674D02*
X8586920Y-10326198D01*
X8586920Y-10326198D02*
X8596444Y-10335722D01*
X8596444Y-10335722D02*
X8605968Y-10354770D01*
X8605968Y-10354770D02*
X8605968Y-10402389D01*
X8605968Y-10402389D02*
X8596444Y-10421436D01*
X8596444Y-10421436D02*
X8586920Y-10430960D01*
X8586920Y-10430960D02*
X8567872Y-10440484D01*
X8567872Y-10440484D02*
X8510729Y-10440484D01*
X8510729Y-10440484D02*
X8491682Y-10430960D01*
X8491682Y-10430960D02*
X8482158Y-10421436D01*
X8701206Y-10440484D02*
X8739301Y-10440484D01*
X8739301Y-10440484D02*
X8758349Y-10430960D01*
X8758349Y-10430960D02*
X8767872Y-10421436D01*
X8767872Y-10421436D02*
X8786920Y-10392865D01*
X8786920Y-10392865D02*
X8796444Y-10354770D01*
X8796444Y-10354770D02*
X8796444Y-10278579D01*
X8796444Y-10278579D02*
X8786920Y-10259531D01*
X8786920Y-10259531D02*
X8777396Y-10250008D01*
X8777396Y-10250008D02*
X8758349Y-10240484D01*
X8758349Y-10240484D02*
X8720253Y-10240484D01*
X8720253Y-10240484D02*
X8701206Y-10250008D01*
X8701206Y-10250008D02*
X8691682Y-10259531D01*
X8691682Y-10259531D02*
X8682158Y-10278579D01*
X8682158Y-10278579D02*
X8682158Y-10326198D01*
X8682158Y-10326198D02*
X8691682Y-10345246D01*
X8691682Y-10345246D02*
X8701206Y-10354770D01*
X8701206Y-10354770D02*
X8720253Y-10364293D01*
X8720253Y-10364293D02*
X8758349Y-10364293D01*
X8758349Y-10364293D02*
X8777396Y-10354770D01*
X8777396Y-10354770D02*
X8786920Y-10345246D01*
X8786920Y-10345246D02*
X8796444Y-10326198D01*
X8872634Y-10240484D02*
X8872634Y-10278579D01*
X8948825Y-10240484D02*
X8948825Y-10278579D01*
X9244063Y-10516674D02*
X9234539Y-10507150D01*
X9234539Y-10507150D02*
X9215491Y-10478579D01*
X9215491Y-10478579D02*
X9205968Y-10459531D01*
X9205968Y-10459531D02*
X9196444Y-10430960D01*
X9196444Y-10430960D02*
X9186920Y-10383341D01*
X9186920Y-10383341D02*
X9186920Y-10345246D01*
X9186920Y-10345246D02*
X9196444Y-10297627D01*
X9196444Y-10297627D02*
X9205968Y-10269055D01*
X9205968Y-10269055D02*
X9215491Y-10250008D01*
X9215491Y-10250008D02*
X9234539Y-10221436D01*
X9234539Y-10221436D02*
X9244063Y-10211912D01*
X9310730Y-10259531D02*
X9320253Y-10250008D01*
X9320253Y-10250008D02*
X9339301Y-10240484D01*
X9339301Y-10240484D02*
X9386920Y-10240484D01*
X9386920Y-10240484D02*
X9405968Y-10250008D01*
X9405968Y-10250008D02*
X9415491Y-10259531D01*
X9415491Y-10259531D02*
X9425015Y-10278579D01*
X9425015Y-10278579D02*
X9425015Y-10297627D01*
X9425015Y-10297627D02*
X9415491Y-10326198D01*
X9415491Y-10326198D02*
X9301206Y-10440484D01*
X9301206Y-10440484D02*
X9425015Y-10440484D01*
X9491682Y-10240484D02*
X9615491Y-10240484D01*
X9615491Y-10240484D02*
X9548825Y-10316674D01*
X9548825Y-10316674D02*
X9577396Y-10316674D01*
X9577396Y-10316674D02*
X9596444Y-10326198D01*
X9596444Y-10326198D02*
X9605968Y-10335722D01*
X9605968Y-10335722D02*
X9615491Y-10354770D01*
X9615491Y-10354770D02*
X9615491Y-10402389D01*
X9615491Y-10402389D02*
X9605968Y-10421436D01*
X9605968Y-10421436D02*
X9596444Y-10430960D01*
X9596444Y-10430960D02*
X9577396Y-10440484D01*
X9577396Y-10440484D02*
X9520253Y-10440484D01*
X9520253Y-10440484D02*
X9501206Y-10430960D01*
X9501206Y-10430960D02*
X9491682Y-10421436D01*
X9853587Y-10440484D02*
X9853587Y-10240484D01*
X9939301Y-10440484D02*
X9939301Y-10335722D01*
X9939301Y-10335722D02*
X9929777Y-10316674D01*
X9929777Y-10316674D02*
X9910730Y-10307150D01*
X9910730Y-10307150D02*
X9882158Y-10307150D01*
X9882158Y-10307150D02*
X9863111Y-10316674D01*
X9863111Y-10316674D02*
X9853587Y-10326198D01*
X10063111Y-10440484D02*
X10044063Y-10430960D01*
X10044063Y-10430960D02*
X10034539Y-10421436D01*
X10034539Y-10421436D02*
X10025015Y-10402389D01*
X10025015Y-10402389D02*
X10025015Y-10345246D01*
X10025015Y-10345246D02*
X10034539Y-10326198D01*
X10034539Y-10326198D02*
X10044063Y-10316674D01*
X10044063Y-10316674D02*
X10063111Y-10307150D01*
X10063111Y-10307150D02*
X10091682Y-10307150D01*
X10091682Y-10307150D02*
X10110730Y-10316674D01*
X10110730Y-10316674D02*
X10120253Y-10326198D01*
X10120253Y-10326198D02*
X10129777Y-10345246D01*
X10129777Y-10345246D02*
X10129777Y-10402389D01*
X10129777Y-10402389D02*
X10120253Y-10421436D01*
X10120253Y-10421436D02*
X10110730Y-10430960D01*
X10110730Y-10430960D02*
X10091682Y-10440484D01*
X10091682Y-10440484D02*
X10063111Y-10440484D01*
X10244063Y-10440484D02*
X10225015Y-10430960D01*
X10225015Y-10430960D02*
X10215492Y-10411912D01*
X10215492Y-10411912D02*
X10215492Y-10240484D01*
X10396444Y-10430960D02*
X10377396Y-10440484D01*
X10377396Y-10440484D02*
X10339301Y-10440484D01*
X10339301Y-10440484D02*
X10320253Y-10430960D01*
X10320253Y-10430960D02*
X10310730Y-10411912D01*
X10310730Y-10411912D02*
X10310730Y-10335722D01*
X10310730Y-10335722D02*
X10320253Y-10316674D01*
X10320253Y-10316674D02*
X10339301Y-10307150D01*
X10339301Y-10307150D02*
X10377396Y-10307150D01*
X10377396Y-10307150D02*
X10396444Y-10316674D01*
X10396444Y-10316674D02*
X10405968Y-10335722D01*
X10405968Y-10335722D02*
X10405968Y-10354770D01*
X10405968Y-10354770D02*
X10310730Y-10373817D01*
X10482158Y-10430960D02*
X10501206Y-10440484D01*
X10501206Y-10440484D02*
X10539301Y-10440484D01*
X10539301Y-10440484D02*
X10558349Y-10430960D01*
X10558349Y-10430960D02*
X10567873Y-10411912D01*
X10567873Y-10411912D02*
X10567873Y-10402389D01*
X10567873Y-10402389D02*
X10558349Y-10383341D01*
X10558349Y-10383341D02*
X10539301Y-10373817D01*
X10539301Y-10373817D02*
X10510730Y-10373817D01*
X10510730Y-10373817D02*
X10491682Y-10364293D01*
X10491682Y-10364293D02*
X10482158Y-10345246D01*
X10482158Y-10345246D02*
X10482158Y-10335722D01*
X10482158Y-10335722D02*
X10491682Y-10316674D01*
X10491682Y-10316674D02*
X10510730Y-10307150D01*
X10510730Y-10307150D02*
X10539301Y-10307150D01*
X10539301Y-10307150D02*
X10558349Y-10316674D01*
X10634539Y-10516674D02*
X10644063Y-10507150D01*
X10644063Y-10507150D02*
X10663111Y-10478579D01*
X10663111Y-10478579D02*
X10672634Y-10459531D01*
X10672634Y-10459531D02*
X10682158Y-10430960D01*
X10682158Y-10430960D02*
X10691682Y-10383341D01*
X10691682Y-10383341D02*
X10691682Y-10345246D01*
X10691682Y-10345246D02*
X10682158Y-10297627D01*
X10682158Y-10297627D02*
X10672634Y-10269055D01*
X10672634Y-10269055D02*
X10663111Y-10250008D01*
X10663111Y-10250008D02*
X10644063Y-10221436D01*
X10644063Y-10221436D02*
X10634539Y-10211912D01*
D12*
X5669000Y-10613000D02*
G75*
G03*
X5649000Y-10613000I-10000J0D01*
G01*
X5649000Y-10613000D02*
G75*
G03*
X5669000Y-10613000I10000J0D01*
G01*
D11*
X5967872Y-10504484D02*
X5986920Y-10504484D01*
X5986920Y-10504484D02*
X6005967Y-10514008D01*
X6005967Y-10514008D02*
X6015491Y-10523531D01*
X6015491Y-10523531D02*
X6025015Y-10542579D01*
X6025015Y-10542579D02*
X6034539Y-10580674D01*
X6034539Y-10580674D02*
X6034539Y-10628293D01*
X6034539Y-10628293D02*
X6025015Y-10666389D01*
X6025015Y-10666389D02*
X6015491Y-10685436D01*
X6015491Y-10685436D02*
X6005967Y-10694960D01*
X6005967Y-10694960D02*
X5986920Y-10704484D01*
X5986920Y-10704484D02*
X5967872Y-10704484D01*
X5967872Y-10704484D02*
X5948824Y-10694960D01*
X5948824Y-10694960D02*
X5939301Y-10685436D01*
X5939301Y-10685436D02*
X5929777Y-10666389D01*
X5929777Y-10666389D02*
X5920253Y-10628293D01*
X5920253Y-10628293D02*
X5920253Y-10580674D01*
X5920253Y-10580674D02*
X5929777Y-10542579D01*
X5929777Y-10542579D02*
X5939301Y-10523531D01*
X5939301Y-10523531D02*
X5948824Y-10514008D01*
X5948824Y-10514008D02*
X5967872Y-10504484D01*
X6120253Y-10685436D02*
X6129777Y-10694960D01*
X6129777Y-10694960D02*
X6120253Y-10704484D01*
X6120253Y-10704484D02*
X6110729Y-10694960D01*
X6110729Y-10694960D02*
X6120253Y-10685436D01*
X6120253Y-10685436D02*
X6120253Y-10704484D01*
X6205967Y-10523531D02*
X6215491Y-10514008D01*
X6215491Y-10514008D02*
X6234539Y-10504484D01*
X6234539Y-10504484D02*
X6282158Y-10504484D01*
X6282158Y-10504484D02*
X6301205Y-10514008D01*
X6301205Y-10514008D02*
X6310729Y-10523531D01*
X6310729Y-10523531D02*
X6320253Y-10542579D01*
X6320253Y-10542579D02*
X6320253Y-10561627D01*
X6320253Y-10561627D02*
X6310729Y-10590198D01*
X6310729Y-10590198D02*
X6196443Y-10704484D01*
X6196443Y-10704484D02*
X6320253Y-10704484D01*
X6444062Y-10504484D02*
X6463110Y-10504484D01*
X6463110Y-10504484D02*
X6482158Y-10514008D01*
X6482158Y-10514008D02*
X6491682Y-10523531D01*
X6491682Y-10523531D02*
X6501205Y-10542579D01*
X6501205Y-10542579D02*
X6510729Y-10580674D01*
X6510729Y-10580674D02*
X6510729Y-10628293D01*
X6510729Y-10628293D02*
X6501205Y-10666389D01*
X6501205Y-10666389D02*
X6491682Y-10685436D01*
X6491682Y-10685436D02*
X6482158Y-10694960D01*
X6482158Y-10694960D02*
X6463110Y-10704484D01*
X6463110Y-10704484D02*
X6444062Y-10704484D01*
X6444062Y-10704484D02*
X6425015Y-10694960D01*
X6425015Y-10694960D02*
X6415491Y-10685436D01*
X6415491Y-10685436D02*
X6405967Y-10666389D01*
X6405967Y-10666389D02*
X6396443Y-10628293D01*
X6396443Y-10628293D02*
X6396443Y-10580674D01*
X6396443Y-10580674D02*
X6405967Y-10542579D01*
X6405967Y-10542579D02*
X6415491Y-10523531D01*
X6415491Y-10523531D02*
X6425015Y-10514008D01*
X6425015Y-10514008D02*
X6444062Y-10504484D01*
X6634539Y-10504484D02*
X6653586Y-10504484D01*
X6653586Y-10504484D02*
X6672634Y-10514008D01*
X6672634Y-10514008D02*
X6682158Y-10523531D01*
X6682158Y-10523531D02*
X6691682Y-10542579D01*
X6691682Y-10542579D02*
X6701205Y-10580674D01*
X6701205Y-10580674D02*
X6701205Y-10628293D01*
X6701205Y-10628293D02*
X6691682Y-10666389D01*
X6691682Y-10666389D02*
X6682158Y-10685436D01*
X6682158Y-10685436D02*
X6672634Y-10694960D01*
X6672634Y-10694960D02*
X6653586Y-10704484D01*
X6653586Y-10704484D02*
X6634539Y-10704484D01*
X6634539Y-10704484D02*
X6615491Y-10694960D01*
X6615491Y-10694960D02*
X6605967Y-10685436D01*
X6605967Y-10685436D02*
X6596443Y-10666389D01*
X6596443Y-10666389D02*
X6586920Y-10628293D01*
X6586920Y-10628293D02*
X6586920Y-10580674D01*
X6586920Y-10580674D02*
X6596443Y-10542579D01*
X6596443Y-10542579D02*
X6605967Y-10523531D01*
X6605967Y-10523531D02*
X6615491Y-10514008D01*
X6615491Y-10514008D02*
X6634539Y-10504484D01*
X6786920Y-10704484D02*
X6786920Y-10571150D01*
X6786920Y-10590198D02*
X6796443Y-10580674D01*
X6796443Y-10580674D02*
X6815491Y-10571150D01*
X6815491Y-10571150D02*
X6844063Y-10571150D01*
X6844063Y-10571150D02*
X6863110Y-10580674D01*
X6863110Y-10580674D02*
X6872634Y-10599722D01*
X6872634Y-10599722D02*
X6872634Y-10704484D01*
X6872634Y-10599722D02*
X6882158Y-10580674D01*
X6882158Y-10580674D02*
X6901205Y-10571150D01*
X6901205Y-10571150D02*
X6929777Y-10571150D01*
X6929777Y-10571150D02*
X6948824Y-10580674D01*
X6948824Y-10580674D02*
X6958348Y-10599722D01*
X6958348Y-10599722D02*
X6958348Y-10704484D01*
X7053586Y-10704484D02*
X7053586Y-10571150D01*
X7053586Y-10590198D02*
X7063110Y-10580674D01*
X7063110Y-10580674D02*
X7082158Y-10571150D01*
X7082158Y-10571150D02*
X7110729Y-10571150D01*
X7110729Y-10571150D02*
X7129777Y-10580674D01*
X7129777Y-10580674D02*
X7139301Y-10599722D01*
X7139301Y-10599722D02*
X7139301Y-10704484D01*
X7139301Y-10599722D02*
X7148824Y-10580674D01*
X7148824Y-10580674D02*
X7167872Y-10571150D01*
X7167872Y-10571150D02*
X7196443Y-10571150D01*
X7196443Y-10571150D02*
X7215491Y-10580674D01*
X7215491Y-10580674D02*
X7225015Y-10599722D01*
X7225015Y-10599722D02*
X7225015Y-10704484D01*
X7615491Y-10494960D02*
X7444063Y-10752103D01*
X7872634Y-10504484D02*
X7891682Y-10504484D01*
X7891682Y-10504484D02*
X7910729Y-10514008D01*
X7910729Y-10514008D02*
X7920253Y-10523531D01*
X7920253Y-10523531D02*
X7929777Y-10542579D01*
X7929777Y-10542579D02*
X7939301Y-10580674D01*
X7939301Y-10580674D02*
X7939301Y-10628293D01*
X7939301Y-10628293D02*
X7929777Y-10666389D01*
X7929777Y-10666389D02*
X7920253Y-10685436D01*
X7920253Y-10685436D02*
X7910729Y-10694960D01*
X7910729Y-10694960D02*
X7891682Y-10704484D01*
X7891682Y-10704484D02*
X7872634Y-10704484D01*
X7872634Y-10704484D02*
X7853586Y-10694960D01*
X7853586Y-10694960D02*
X7844063Y-10685436D01*
X7844063Y-10685436D02*
X7834539Y-10666389D01*
X7834539Y-10666389D02*
X7825015Y-10628293D01*
X7825015Y-10628293D02*
X7825015Y-10580674D01*
X7825015Y-10580674D02*
X7834539Y-10542579D01*
X7834539Y-10542579D02*
X7844063Y-10523531D01*
X7844063Y-10523531D02*
X7853586Y-10514008D01*
X7853586Y-10514008D02*
X7872634Y-10504484D01*
X8025015Y-10685436D02*
X8034539Y-10694960D01*
X8034539Y-10694960D02*
X8025015Y-10704484D01*
X8025015Y-10704484D02*
X8015491Y-10694960D01*
X8015491Y-10694960D02*
X8025015Y-10685436D01*
X8025015Y-10685436D02*
X8025015Y-10704484D01*
X8158348Y-10504484D02*
X8177396Y-10504484D01*
X8177396Y-10504484D02*
X8196444Y-10514008D01*
X8196444Y-10514008D02*
X8205967Y-10523531D01*
X8205967Y-10523531D02*
X8215491Y-10542579D01*
X8215491Y-10542579D02*
X8225015Y-10580674D01*
X8225015Y-10580674D02*
X8225015Y-10628293D01*
X8225015Y-10628293D02*
X8215491Y-10666389D01*
X8215491Y-10666389D02*
X8205967Y-10685436D01*
X8205967Y-10685436D02*
X8196444Y-10694960D01*
X8196444Y-10694960D02*
X8177396Y-10704484D01*
X8177396Y-10704484D02*
X8158348Y-10704484D01*
X8158348Y-10704484D02*
X8139301Y-10694960D01*
X8139301Y-10694960D02*
X8129777Y-10685436D01*
X8129777Y-10685436D02*
X8120253Y-10666389D01*
X8120253Y-10666389D02*
X8110729Y-10628293D01*
X8110729Y-10628293D02*
X8110729Y-10580674D01*
X8110729Y-10580674D02*
X8120253Y-10542579D01*
X8120253Y-10542579D02*
X8129777Y-10523531D01*
X8129777Y-10523531D02*
X8139301Y-10514008D01*
X8139301Y-10514008D02*
X8158348Y-10504484D01*
X8348825Y-10504484D02*
X8367872Y-10504484D01*
X8367872Y-10504484D02*
X8386920Y-10514008D01*
X8386920Y-10514008D02*
X8396444Y-10523531D01*
X8396444Y-10523531D02*
X8405968Y-10542579D01*
X8405968Y-10542579D02*
X8415491Y-10580674D01*
X8415491Y-10580674D02*
X8415491Y-10628293D01*
X8415491Y-10628293D02*
X8405968Y-10666389D01*
X8405968Y-10666389D02*
X8396444Y-10685436D01*
X8396444Y-10685436D02*
X8386920Y-10694960D01*
X8386920Y-10694960D02*
X8367872Y-10704484D01*
X8367872Y-10704484D02*
X8348825Y-10704484D01*
X8348825Y-10704484D02*
X8329777Y-10694960D01*
X8329777Y-10694960D02*
X8320253Y-10685436D01*
X8320253Y-10685436D02*
X8310729Y-10666389D01*
X8310729Y-10666389D02*
X8301206Y-10628293D01*
X8301206Y-10628293D02*
X8301206Y-10580674D01*
X8301206Y-10580674D02*
X8310729Y-10542579D01*
X8310729Y-10542579D02*
X8320253Y-10523531D01*
X8320253Y-10523531D02*
X8329777Y-10514008D01*
X8329777Y-10514008D02*
X8348825Y-10504484D01*
X8482158Y-10504484D02*
X8615491Y-10504484D01*
X8615491Y-10504484D02*
X8529777Y-10704484D01*
X8701206Y-10704484D02*
X8739301Y-10704484D01*
X8739301Y-10704484D02*
X8758349Y-10694960D01*
X8758349Y-10694960D02*
X8767872Y-10685436D01*
X8767872Y-10685436D02*
X8786920Y-10656865D01*
X8786920Y-10656865D02*
X8796444Y-10618770D01*
X8796444Y-10618770D02*
X8796444Y-10542579D01*
X8796444Y-10542579D02*
X8786920Y-10523531D01*
X8786920Y-10523531D02*
X8777396Y-10514008D01*
X8777396Y-10514008D02*
X8758349Y-10504484D01*
X8758349Y-10504484D02*
X8720253Y-10504484D01*
X8720253Y-10504484D02*
X8701206Y-10514008D01*
X8701206Y-10514008D02*
X8691682Y-10523531D01*
X8691682Y-10523531D02*
X8682158Y-10542579D01*
X8682158Y-10542579D02*
X8682158Y-10590198D01*
X8682158Y-10590198D02*
X8691682Y-10609246D01*
X8691682Y-10609246D02*
X8701206Y-10618770D01*
X8701206Y-10618770D02*
X8720253Y-10628293D01*
X8720253Y-10628293D02*
X8758349Y-10628293D01*
X8758349Y-10628293D02*
X8777396Y-10618770D01*
X8777396Y-10618770D02*
X8786920Y-10609246D01*
X8786920Y-10609246D02*
X8796444Y-10590198D01*
X8872634Y-10504484D02*
X8872634Y-10542579D01*
X8948825Y-10504484D02*
X8948825Y-10542579D01*
X9244063Y-10780674D02*
X9234539Y-10771150D01*
X9234539Y-10771150D02*
X9215491Y-10742579D01*
X9215491Y-10742579D02*
X9205968Y-10723531D01*
X9205968Y-10723531D02*
X9196444Y-10694960D01*
X9196444Y-10694960D02*
X9186920Y-10647341D01*
X9186920Y-10647341D02*
X9186920Y-10609246D01*
X9186920Y-10609246D02*
X9196444Y-10561627D01*
X9196444Y-10561627D02*
X9205968Y-10533055D01*
X9205968Y-10533055D02*
X9215491Y-10514008D01*
X9215491Y-10514008D02*
X9234539Y-10485436D01*
X9234539Y-10485436D02*
X9244063Y-10475912D01*
X9348825Y-10590198D02*
X9329777Y-10580674D01*
X9329777Y-10580674D02*
X9320253Y-10571150D01*
X9320253Y-10571150D02*
X9310730Y-10552103D01*
X9310730Y-10552103D02*
X9310730Y-10542579D01*
X9310730Y-10542579D02*
X9320253Y-10523531D01*
X9320253Y-10523531D02*
X9329777Y-10514008D01*
X9329777Y-10514008D02*
X9348825Y-10504484D01*
X9348825Y-10504484D02*
X9386920Y-10504484D01*
X9386920Y-10504484D02*
X9405968Y-10514008D01*
X9405968Y-10514008D02*
X9415491Y-10523531D01*
X9415491Y-10523531D02*
X9425015Y-10542579D01*
X9425015Y-10542579D02*
X9425015Y-10552103D01*
X9425015Y-10552103D02*
X9415491Y-10571150D01*
X9415491Y-10571150D02*
X9405968Y-10580674D01*
X9405968Y-10580674D02*
X9386920Y-10590198D01*
X9386920Y-10590198D02*
X9348825Y-10590198D01*
X9348825Y-10590198D02*
X9329777Y-10599722D01*
X9329777Y-10599722D02*
X9320253Y-10609246D01*
X9320253Y-10609246D02*
X9310730Y-10628293D01*
X9310730Y-10628293D02*
X9310730Y-10666389D01*
X9310730Y-10666389D02*
X9320253Y-10685436D01*
X9320253Y-10685436D02*
X9329777Y-10694960D01*
X9329777Y-10694960D02*
X9348825Y-10704484D01*
X9348825Y-10704484D02*
X9386920Y-10704484D01*
X9386920Y-10704484D02*
X9405968Y-10694960D01*
X9405968Y-10694960D02*
X9415491Y-10685436D01*
X9415491Y-10685436D02*
X9425015Y-10666389D01*
X9425015Y-10666389D02*
X9425015Y-10628293D01*
X9425015Y-10628293D02*
X9415491Y-10609246D01*
X9415491Y-10609246D02*
X9405968Y-10599722D01*
X9405968Y-10599722D02*
X9386920Y-10590198D01*
X9663111Y-10704484D02*
X9663111Y-10504484D01*
X9748825Y-10704484D02*
X9748825Y-10599722D01*
X9748825Y-10599722D02*
X9739301Y-10580674D01*
X9739301Y-10580674D02*
X9720253Y-10571150D01*
X9720253Y-10571150D02*
X9691682Y-10571150D01*
X9691682Y-10571150D02*
X9672634Y-10580674D01*
X9672634Y-10580674D02*
X9663111Y-10590198D01*
X9872634Y-10704484D02*
X9853587Y-10694960D01*
X9853587Y-10694960D02*
X9844063Y-10685436D01*
X9844063Y-10685436D02*
X9834539Y-10666389D01*
X9834539Y-10666389D02*
X9834539Y-10609246D01*
X9834539Y-10609246D02*
X9844063Y-10590198D01*
X9844063Y-10590198D02*
X9853587Y-10580674D01*
X9853587Y-10580674D02*
X9872634Y-10571150D01*
X9872634Y-10571150D02*
X9901206Y-10571150D01*
X9901206Y-10571150D02*
X9920253Y-10580674D01*
X9920253Y-10580674D02*
X9929777Y-10590198D01*
X9929777Y-10590198D02*
X9939301Y-10609246D01*
X9939301Y-10609246D02*
X9939301Y-10666389D01*
X9939301Y-10666389D02*
X9929777Y-10685436D01*
X9929777Y-10685436D02*
X9920253Y-10694960D01*
X9920253Y-10694960D02*
X9901206Y-10704484D01*
X9901206Y-10704484D02*
X9872634Y-10704484D01*
X10053587Y-10704484D02*
X10034539Y-10694960D01*
X10034539Y-10694960D02*
X10025015Y-10675912D01*
X10025015Y-10675912D02*
X10025015Y-10504484D01*
X10205968Y-10694960D02*
X10186920Y-10704484D01*
X10186920Y-10704484D02*
X10148825Y-10704484D01*
X10148825Y-10704484D02*
X10129777Y-10694960D01*
X10129777Y-10694960D02*
X10120253Y-10675912D01*
X10120253Y-10675912D02*
X10120253Y-10599722D01*
X10120253Y-10599722D02*
X10129777Y-10580674D01*
X10129777Y-10580674D02*
X10148825Y-10571150D01*
X10148825Y-10571150D02*
X10186920Y-10571150D01*
X10186920Y-10571150D02*
X10205968Y-10580674D01*
X10205968Y-10580674D02*
X10215492Y-10599722D01*
X10215492Y-10599722D02*
X10215492Y-10618770D01*
X10215492Y-10618770D02*
X10120253Y-10637817D01*
X10291682Y-10694960D02*
X10310730Y-10704484D01*
X10310730Y-10704484D02*
X10348825Y-10704484D01*
X10348825Y-10704484D02*
X10367873Y-10694960D01*
X10367873Y-10694960D02*
X10377396Y-10675912D01*
X10377396Y-10675912D02*
X10377396Y-10666389D01*
X10377396Y-10666389D02*
X10367873Y-10647341D01*
X10367873Y-10647341D02*
X10348825Y-10637817D01*
X10348825Y-10637817D02*
X10320253Y-10637817D01*
X10320253Y-10637817D02*
X10301206Y-10628293D01*
X10301206Y-10628293D02*
X10291682Y-10609246D01*
X10291682Y-10609246D02*
X10291682Y-10599722D01*
X10291682Y-10599722D02*
X10301206Y-10580674D01*
X10301206Y-10580674D02*
X10320253Y-10571150D01*
X10320253Y-10571150D02*
X10348825Y-10571150D01*
X10348825Y-10571150D02*
X10367873Y-10580674D01*
X10444063Y-10780674D02*
X10453587Y-10771150D01*
X10453587Y-10771150D02*
X10472634Y-10742579D01*
X10472634Y-10742579D02*
X10482158Y-10723531D01*
X10482158Y-10723531D02*
X10491682Y-10694960D01*
X10491682Y-10694960D02*
X10501206Y-10647341D01*
X10501206Y-10647341D02*
X10501206Y-10609246D01*
X10501206Y-10609246D02*
X10491682Y-10561627D01*
X10491682Y-10561627D02*
X10482158Y-10533055D01*
X10482158Y-10533055D02*
X10472634Y-10514008D01*
X10472634Y-10514008D02*
X10453587Y-10485436D01*
X10453587Y-10485436D02*
X10444063Y-10475912D01*
D12*
X5639000Y-10847000D02*
X5639000Y-10907000D01*
X5609000Y-10877000D02*
X5669000Y-10877000D01*
D11*
X5967872Y-10768484D02*
X5986920Y-10768484D01*
X5986920Y-10768484D02*
X6005967Y-10778008D01*
X6005967Y-10778008D02*
X6015491Y-10787531D01*
X6015491Y-10787531D02*
X6025015Y-10806579D01*
X6025015Y-10806579D02*
X6034539Y-10844674D01*
X6034539Y-10844674D02*
X6034539Y-10892293D01*
X6034539Y-10892293D02*
X6025015Y-10930389D01*
X6025015Y-10930389D02*
X6015491Y-10949436D01*
X6015491Y-10949436D02*
X6005967Y-10958960D01*
X6005967Y-10958960D02*
X5986920Y-10968484D01*
X5986920Y-10968484D02*
X5967872Y-10968484D01*
X5967872Y-10968484D02*
X5948824Y-10958960D01*
X5948824Y-10958960D02*
X5939301Y-10949436D01*
X5939301Y-10949436D02*
X5929777Y-10930389D01*
X5929777Y-10930389D02*
X5920253Y-10892293D01*
X5920253Y-10892293D02*
X5920253Y-10844674D01*
X5920253Y-10844674D02*
X5929777Y-10806579D01*
X5929777Y-10806579D02*
X5939301Y-10787531D01*
X5939301Y-10787531D02*
X5948824Y-10778008D01*
X5948824Y-10778008D02*
X5967872Y-10768484D01*
X6120253Y-10949436D02*
X6129777Y-10958960D01*
X6129777Y-10958960D02*
X6120253Y-10968484D01*
X6120253Y-10968484D02*
X6110729Y-10958960D01*
X6110729Y-10958960D02*
X6120253Y-10949436D01*
X6120253Y-10949436D02*
X6120253Y-10968484D01*
X6301205Y-10768484D02*
X6263110Y-10768484D01*
X6263110Y-10768484D02*
X6244062Y-10778008D01*
X6244062Y-10778008D02*
X6234539Y-10787531D01*
X6234539Y-10787531D02*
X6215491Y-10816103D01*
X6215491Y-10816103D02*
X6205967Y-10854198D01*
X6205967Y-10854198D02*
X6205967Y-10930389D01*
X6205967Y-10930389D02*
X6215491Y-10949436D01*
X6215491Y-10949436D02*
X6225015Y-10958960D01*
X6225015Y-10958960D02*
X6244062Y-10968484D01*
X6244062Y-10968484D02*
X6282158Y-10968484D01*
X6282158Y-10968484D02*
X6301205Y-10958960D01*
X6301205Y-10958960D02*
X6310729Y-10949436D01*
X6310729Y-10949436D02*
X6320253Y-10930389D01*
X6320253Y-10930389D02*
X6320253Y-10882770D01*
X6320253Y-10882770D02*
X6310729Y-10863722D01*
X6310729Y-10863722D02*
X6301205Y-10854198D01*
X6301205Y-10854198D02*
X6282158Y-10844674D01*
X6282158Y-10844674D02*
X6244062Y-10844674D01*
X6244062Y-10844674D02*
X6225015Y-10854198D01*
X6225015Y-10854198D02*
X6215491Y-10863722D01*
X6215491Y-10863722D02*
X6205967Y-10882770D01*
X6444062Y-10768484D02*
X6463110Y-10768484D01*
X6463110Y-10768484D02*
X6482158Y-10778008D01*
X6482158Y-10778008D02*
X6491682Y-10787531D01*
X6491682Y-10787531D02*
X6501205Y-10806579D01*
X6501205Y-10806579D02*
X6510729Y-10844674D01*
X6510729Y-10844674D02*
X6510729Y-10892293D01*
X6510729Y-10892293D02*
X6501205Y-10930389D01*
X6501205Y-10930389D02*
X6491682Y-10949436D01*
X6491682Y-10949436D02*
X6482158Y-10958960D01*
X6482158Y-10958960D02*
X6463110Y-10968484D01*
X6463110Y-10968484D02*
X6444062Y-10968484D01*
X6444062Y-10968484D02*
X6425015Y-10958960D01*
X6425015Y-10958960D02*
X6415491Y-10949436D01*
X6415491Y-10949436D02*
X6405967Y-10930389D01*
X6405967Y-10930389D02*
X6396443Y-10892293D01*
X6396443Y-10892293D02*
X6396443Y-10844674D01*
X6396443Y-10844674D02*
X6405967Y-10806579D01*
X6405967Y-10806579D02*
X6415491Y-10787531D01*
X6415491Y-10787531D02*
X6425015Y-10778008D01*
X6425015Y-10778008D02*
X6444062Y-10768484D01*
X6634539Y-10768484D02*
X6653586Y-10768484D01*
X6653586Y-10768484D02*
X6672634Y-10778008D01*
X6672634Y-10778008D02*
X6682158Y-10787531D01*
X6682158Y-10787531D02*
X6691682Y-10806579D01*
X6691682Y-10806579D02*
X6701205Y-10844674D01*
X6701205Y-10844674D02*
X6701205Y-10892293D01*
X6701205Y-10892293D02*
X6691682Y-10930389D01*
X6691682Y-10930389D02*
X6682158Y-10949436D01*
X6682158Y-10949436D02*
X6672634Y-10958960D01*
X6672634Y-10958960D02*
X6653586Y-10968484D01*
X6653586Y-10968484D02*
X6634539Y-10968484D01*
X6634539Y-10968484D02*
X6615491Y-10958960D01*
X6615491Y-10958960D02*
X6605967Y-10949436D01*
X6605967Y-10949436D02*
X6596443Y-10930389D01*
X6596443Y-10930389D02*
X6586920Y-10892293D01*
X6586920Y-10892293D02*
X6586920Y-10844674D01*
X6586920Y-10844674D02*
X6596443Y-10806579D01*
X6596443Y-10806579D02*
X6605967Y-10787531D01*
X6605967Y-10787531D02*
X6615491Y-10778008D01*
X6615491Y-10778008D02*
X6634539Y-10768484D01*
X6786920Y-10968484D02*
X6786920Y-10835150D01*
X6786920Y-10854198D02*
X6796443Y-10844674D01*
X6796443Y-10844674D02*
X6815491Y-10835150D01*
X6815491Y-10835150D02*
X6844063Y-10835150D01*
X6844063Y-10835150D02*
X6863110Y-10844674D01*
X6863110Y-10844674D02*
X6872634Y-10863722D01*
X6872634Y-10863722D02*
X6872634Y-10968484D01*
X6872634Y-10863722D02*
X6882158Y-10844674D01*
X6882158Y-10844674D02*
X6901205Y-10835150D01*
X6901205Y-10835150D02*
X6929777Y-10835150D01*
X6929777Y-10835150D02*
X6948824Y-10844674D01*
X6948824Y-10844674D02*
X6958348Y-10863722D01*
X6958348Y-10863722D02*
X6958348Y-10968484D01*
X7053586Y-10968484D02*
X7053586Y-10835150D01*
X7053586Y-10854198D02*
X7063110Y-10844674D01*
X7063110Y-10844674D02*
X7082158Y-10835150D01*
X7082158Y-10835150D02*
X7110729Y-10835150D01*
X7110729Y-10835150D02*
X7129777Y-10844674D01*
X7129777Y-10844674D02*
X7139301Y-10863722D01*
X7139301Y-10863722D02*
X7139301Y-10968484D01*
X7139301Y-10863722D02*
X7148824Y-10844674D01*
X7148824Y-10844674D02*
X7167872Y-10835150D01*
X7167872Y-10835150D02*
X7196443Y-10835150D01*
X7196443Y-10835150D02*
X7215491Y-10844674D01*
X7215491Y-10844674D02*
X7225015Y-10863722D01*
X7225015Y-10863722D02*
X7225015Y-10968484D01*
X7615491Y-10758960D02*
X7444063Y-11016103D01*
X7872634Y-10768484D02*
X7891682Y-10768484D01*
X7891682Y-10768484D02*
X7910729Y-10778008D01*
X7910729Y-10778008D02*
X7920253Y-10787531D01*
X7920253Y-10787531D02*
X7929777Y-10806579D01*
X7929777Y-10806579D02*
X7939301Y-10844674D01*
X7939301Y-10844674D02*
X7939301Y-10892293D01*
X7939301Y-10892293D02*
X7929777Y-10930389D01*
X7929777Y-10930389D02*
X7920253Y-10949436D01*
X7920253Y-10949436D02*
X7910729Y-10958960D01*
X7910729Y-10958960D02*
X7891682Y-10968484D01*
X7891682Y-10968484D02*
X7872634Y-10968484D01*
X7872634Y-10968484D02*
X7853586Y-10958960D01*
X7853586Y-10958960D02*
X7844063Y-10949436D01*
X7844063Y-10949436D02*
X7834539Y-10930389D01*
X7834539Y-10930389D02*
X7825015Y-10892293D01*
X7825015Y-10892293D02*
X7825015Y-10844674D01*
X7825015Y-10844674D02*
X7834539Y-10806579D01*
X7834539Y-10806579D02*
X7844063Y-10787531D01*
X7844063Y-10787531D02*
X7853586Y-10778008D01*
X7853586Y-10778008D02*
X7872634Y-10768484D01*
X8025015Y-10949436D02*
X8034539Y-10958960D01*
X8034539Y-10958960D02*
X8025015Y-10968484D01*
X8025015Y-10968484D02*
X8015491Y-10958960D01*
X8015491Y-10958960D02*
X8025015Y-10949436D01*
X8025015Y-10949436D02*
X8025015Y-10968484D01*
X8158348Y-10768484D02*
X8177396Y-10768484D01*
X8177396Y-10768484D02*
X8196444Y-10778008D01*
X8196444Y-10778008D02*
X8205967Y-10787531D01*
X8205967Y-10787531D02*
X8215491Y-10806579D01*
X8215491Y-10806579D02*
X8225015Y-10844674D01*
X8225015Y-10844674D02*
X8225015Y-10892293D01*
X8225015Y-10892293D02*
X8215491Y-10930389D01*
X8215491Y-10930389D02*
X8205967Y-10949436D01*
X8205967Y-10949436D02*
X8196444Y-10958960D01*
X8196444Y-10958960D02*
X8177396Y-10968484D01*
X8177396Y-10968484D02*
X8158348Y-10968484D01*
X8158348Y-10968484D02*
X8139301Y-10958960D01*
X8139301Y-10958960D02*
X8129777Y-10949436D01*
X8129777Y-10949436D02*
X8120253Y-10930389D01*
X8120253Y-10930389D02*
X8110729Y-10892293D01*
X8110729Y-10892293D02*
X8110729Y-10844674D01*
X8110729Y-10844674D02*
X8120253Y-10806579D01*
X8120253Y-10806579D02*
X8129777Y-10787531D01*
X8129777Y-10787531D02*
X8139301Y-10778008D01*
X8139301Y-10778008D02*
X8158348Y-10768484D01*
X8301206Y-10787531D02*
X8310729Y-10778008D01*
X8310729Y-10778008D02*
X8329777Y-10768484D01*
X8329777Y-10768484D02*
X8377396Y-10768484D01*
X8377396Y-10768484D02*
X8396444Y-10778008D01*
X8396444Y-10778008D02*
X8405968Y-10787531D01*
X8405968Y-10787531D02*
X8415491Y-10806579D01*
X8415491Y-10806579D02*
X8415491Y-10825627D01*
X8415491Y-10825627D02*
X8405968Y-10854198D01*
X8405968Y-10854198D02*
X8291682Y-10968484D01*
X8291682Y-10968484D02*
X8415491Y-10968484D01*
X8482158Y-10768484D02*
X8605968Y-10768484D01*
X8605968Y-10768484D02*
X8539301Y-10844674D01*
X8539301Y-10844674D02*
X8567872Y-10844674D01*
X8567872Y-10844674D02*
X8586920Y-10854198D01*
X8586920Y-10854198D02*
X8596444Y-10863722D01*
X8596444Y-10863722D02*
X8605968Y-10882770D01*
X8605968Y-10882770D02*
X8605968Y-10930389D01*
X8605968Y-10930389D02*
X8596444Y-10949436D01*
X8596444Y-10949436D02*
X8586920Y-10958960D01*
X8586920Y-10958960D02*
X8567872Y-10968484D01*
X8567872Y-10968484D02*
X8510729Y-10968484D01*
X8510729Y-10968484D02*
X8491682Y-10958960D01*
X8491682Y-10958960D02*
X8482158Y-10949436D01*
X8777396Y-10768484D02*
X8739301Y-10768484D01*
X8739301Y-10768484D02*
X8720253Y-10778008D01*
X8720253Y-10778008D02*
X8710729Y-10787531D01*
X8710729Y-10787531D02*
X8691682Y-10816103D01*
X8691682Y-10816103D02*
X8682158Y-10854198D01*
X8682158Y-10854198D02*
X8682158Y-10930389D01*
X8682158Y-10930389D02*
X8691682Y-10949436D01*
X8691682Y-10949436D02*
X8701206Y-10958960D01*
X8701206Y-10958960D02*
X8720253Y-10968484D01*
X8720253Y-10968484D02*
X8758349Y-10968484D01*
X8758349Y-10968484D02*
X8777396Y-10958960D01*
X8777396Y-10958960D02*
X8786920Y-10949436D01*
X8786920Y-10949436D02*
X8796444Y-10930389D01*
X8796444Y-10930389D02*
X8796444Y-10882770D01*
X8796444Y-10882770D02*
X8786920Y-10863722D01*
X8786920Y-10863722D02*
X8777396Y-10854198D01*
X8777396Y-10854198D02*
X8758349Y-10844674D01*
X8758349Y-10844674D02*
X8720253Y-10844674D01*
X8720253Y-10844674D02*
X8701206Y-10854198D01*
X8701206Y-10854198D02*
X8691682Y-10863722D01*
X8691682Y-10863722D02*
X8682158Y-10882770D01*
X8872634Y-10768484D02*
X8872634Y-10806579D01*
X8948825Y-10768484D02*
X8948825Y-10806579D01*
X9244063Y-11044674D02*
X9234539Y-11035150D01*
X9234539Y-11035150D02*
X9215491Y-11006579D01*
X9215491Y-11006579D02*
X9205968Y-10987531D01*
X9205968Y-10987531D02*
X9196444Y-10958960D01*
X9196444Y-10958960D02*
X9186920Y-10911341D01*
X9186920Y-10911341D02*
X9186920Y-10873246D01*
X9186920Y-10873246D02*
X9196444Y-10825627D01*
X9196444Y-10825627D02*
X9205968Y-10797055D01*
X9205968Y-10797055D02*
X9215491Y-10778008D01*
X9215491Y-10778008D02*
X9234539Y-10749436D01*
X9234539Y-10749436D02*
X9244063Y-10739912D01*
X9358349Y-10768484D02*
X9377396Y-10768484D01*
X9377396Y-10768484D02*
X9396444Y-10778008D01*
X9396444Y-10778008D02*
X9405968Y-10787531D01*
X9405968Y-10787531D02*
X9415491Y-10806579D01*
X9415491Y-10806579D02*
X9425015Y-10844674D01*
X9425015Y-10844674D02*
X9425015Y-10892293D01*
X9425015Y-10892293D02*
X9415491Y-10930389D01*
X9415491Y-10930389D02*
X9405968Y-10949436D01*
X9405968Y-10949436D02*
X9396444Y-10958960D01*
X9396444Y-10958960D02*
X9377396Y-10968484D01*
X9377396Y-10968484D02*
X9358349Y-10968484D01*
X9358349Y-10968484D02*
X9339301Y-10958960D01*
X9339301Y-10958960D02*
X9329777Y-10949436D01*
X9329777Y-10949436D02*
X9320253Y-10930389D01*
X9320253Y-10930389D02*
X9310730Y-10892293D01*
X9310730Y-10892293D02*
X9310730Y-10844674D01*
X9310730Y-10844674D02*
X9320253Y-10806579D01*
X9320253Y-10806579D02*
X9329777Y-10787531D01*
X9329777Y-10787531D02*
X9339301Y-10778008D01*
X9339301Y-10778008D02*
X9358349Y-10768484D01*
X9663111Y-10968484D02*
X9663111Y-10768484D01*
X9748825Y-10968484D02*
X9748825Y-10863722D01*
X9748825Y-10863722D02*
X9739301Y-10844674D01*
X9739301Y-10844674D02*
X9720253Y-10835150D01*
X9720253Y-10835150D02*
X9691682Y-10835150D01*
X9691682Y-10835150D02*
X9672634Y-10844674D01*
X9672634Y-10844674D02*
X9663111Y-10854198D01*
X9872634Y-10968484D02*
X9853587Y-10958960D01*
X9853587Y-10958960D02*
X9844063Y-10949436D01*
X9844063Y-10949436D02*
X9834539Y-10930389D01*
X9834539Y-10930389D02*
X9834539Y-10873246D01*
X9834539Y-10873246D02*
X9844063Y-10854198D01*
X9844063Y-10854198D02*
X9853587Y-10844674D01*
X9853587Y-10844674D02*
X9872634Y-10835150D01*
X9872634Y-10835150D02*
X9901206Y-10835150D01*
X9901206Y-10835150D02*
X9920253Y-10844674D01*
X9920253Y-10844674D02*
X9929777Y-10854198D01*
X9929777Y-10854198D02*
X9939301Y-10873246D01*
X9939301Y-10873246D02*
X9939301Y-10930389D01*
X9939301Y-10930389D02*
X9929777Y-10949436D01*
X9929777Y-10949436D02*
X9920253Y-10958960D01*
X9920253Y-10958960D02*
X9901206Y-10968484D01*
X9901206Y-10968484D02*
X9872634Y-10968484D01*
X10053587Y-10968484D02*
X10034539Y-10958960D01*
X10034539Y-10958960D02*
X10025015Y-10939912D01*
X10025015Y-10939912D02*
X10025015Y-10768484D01*
X10205968Y-10958960D02*
X10186920Y-10968484D01*
X10186920Y-10968484D02*
X10148825Y-10968484D01*
X10148825Y-10968484D02*
X10129777Y-10958960D01*
X10129777Y-10958960D02*
X10120253Y-10939912D01*
X10120253Y-10939912D02*
X10120253Y-10863722D01*
X10120253Y-10863722D02*
X10129777Y-10844674D01*
X10129777Y-10844674D02*
X10148825Y-10835150D01*
X10148825Y-10835150D02*
X10186920Y-10835150D01*
X10186920Y-10835150D02*
X10205968Y-10844674D01*
X10205968Y-10844674D02*
X10215492Y-10863722D01*
X10215492Y-10863722D02*
X10215492Y-10882770D01*
X10215492Y-10882770D02*
X10120253Y-10901817D01*
X10291682Y-10958960D02*
X10310730Y-10968484D01*
X10310730Y-10968484D02*
X10348825Y-10968484D01*
X10348825Y-10968484D02*
X10367873Y-10958960D01*
X10367873Y-10958960D02*
X10377396Y-10939912D01*
X10377396Y-10939912D02*
X10377396Y-10930389D01*
X10377396Y-10930389D02*
X10367873Y-10911341D01*
X10367873Y-10911341D02*
X10348825Y-10901817D01*
X10348825Y-10901817D02*
X10320253Y-10901817D01*
X10320253Y-10901817D02*
X10301206Y-10892293D01*
X10301206Y-10892293D02*
X10291682Y-10873246D01*
X10291682Y-10873246D02*
X10291682Y-10863722D01*
X10291682Y-10863722D02*
X10301206Y-10844674D01*
X10301206Y-10844674D02*
X10320253Y-10835150D01*
X10320253Y-10835150D02*
X10348825Y-10835150D01*
X10348825Y-10835150D02*
X10367873Y-10844674D01*
X10615492Y-10892293D02*
X10767873Y-10892293D01*
X10691682Y-10968484D02*
X10691682Y-10816103D01*
X11101206Y-10835150D02*
X11101206Y-10968484D01*
X11053587Y-10758960D02*
X11005968Y-10901817D01*
X11005968Y-10901817D02*
X11129777Y-10901817D01*
X11348825Y-10958960D02*
X11367873Y-10968484D01*
X11367873Y-10968484D02*
X11405968Y-10968484D01*
X11405968Y-10968484D02*
X11425015Y-10958960D01*
X11425015Y-10958960D02*
X11434539Y-10939912D01*
X11434539Y-10939912D02*
X11434539Y-10930389D01*
X11434539Y-10930389D02*
X11425015Y-10911341D01*
X11425015Y-10911341D02*
X11405968Y-10901817D01*
X11405968Y-10901817D02*
X11377396Y-10901817D01*
X11377396Y-10901817D02*
X11358349Y-10892293D01*
X11358349Y-10892293D02*
X11348825Y-10873246D01*
X11348825Y-10873246D02*
X11348825Y-10863722D01*
X11348825Y-10863722D02*
X11358349Y-10844674D01*
X11358349Y-10844674D02*
X11377396Y-10835150D01*
X11377396Y-10835150D02*
X11405968Y-10835150D01*
X11405968Y-10835150D02*
X11425015Y-10844674D01*
X11548825Y-10968484D02*
X11529777Y-10958960D01*
X11529777Y-10958960D02*
X11520254Y-10939912D01*
X11520254Y-10939912D02*
X11520254Y-10768484D01*
X11653587Y-10968484D02*
X11634539Y-10958960D01*
X11634539Y-10958960D02*
X11625015Y-10949436D01*
X11625015Y-10949436D02*
X11615492Y-10930389D01*
X11615492Y-10930389D02*
X11615492Y-10873246D01*
X11615492Y-10873246D02*
X11625015Y-10854198D01*
X11625015Y-10854198D02*
X11634539Y-10844674D01*
X11634539Y-10844674D02*
X11653587Y-10835150D01*
X11653587Y-10835150D02*
X11682158Y-10835150D01*
X11682158Y-10835150D02*
X11701206Y-10844674D01*
X11701206Y-10844674D02*
X11710730Y-10854198D01*
X11710730Y-10854198D02*
X11720254Y-10873246D01*
X11720254Y-10873246D02*
X11720254Y-10930389D01*
X11720254Y-10930389D02*
X11710730Y-10949436D01*
X11710730Y-10949436D02*
X11701206Y-10958960D01*
X11701206Y-10958960D02*
X11682158Y-10968484D01*
X11682158Y-10968484D02*
X11653587Y-10968484D01*
X11777396Y-10835150D02*
X11853587Y-10835150D01*
X11805968Y-10768484D02*
X11805968Y-10939912D01*
X11805968Y-10939912D02*
X11815492Y-10958960D01*
X11815492Y-10958960D02*
X11834539Y-10968484D01*
X11834539Y-10968484D02*
X11853587Y-10968484D01*
X11910730Y-10958960D02*
X11929777Y-10968484D01*
X11929777Y-10968484D02*
X11967873Y-10968484D01*
X11967873Y-10968484D02*
X11986920Y-10958960D01*
X11986920Y-10958960D02*
X11996444Y-10939912D01*
X11996444Y-10939912D02*
X11996444Y-10930389D01*
X11996444Y-10930389D02*
X11986920Y-10911341D01*
X11986920Y-10911341D02*
X11967873Y-10901817D01*
X11967873Y-10901817D02*
X11939301Y-10901817D01*
X11939301Y-10901817D02*
X11920254Y-10892293D01*
X11920254Y-10892293D02*
X11910730Y-10873246D01*
X11910730Y-10873246D02*
X11910730Y-10863722D01*
X11910730Y-10863722D02*
X11920254Y-10844674D01*
X11920254Y-10844674D02*
X11939301Y-10835150D01*
X11939301Y-10835150D02*
X11967873Y-10835150D01*
X11967873Y-10835150D02*
X11986920Y-10844674D01*
X12063111Y-11044674D02*
X12072635Y-11035150D01*
X12072635Y-11035150D02*
X12091682Y-11006579D01*
X12091682Y-11006579D02*
X12101206Y-10987531D01*
X12101206Y-10987531D02*
X12110730Y-10958960D01*
X12110730Y-10958960D02*
X12120254Y-10911341D01*
X12120254Y-10911341D02*
X12120254Y-10873246D01*
X12120254Y-10873246D02*
X12110730Y-10825627D01*
X12110730Y-10825627D02*
X12101206Y-10797055D01*
X12101206Y-10797055D02*
X12091682Y-10778008D01*
X12091682Y-10778008D02*
X12072635Y-10749436D01*
X12072635Y-10749436D02*
X12063111Y-10739912D01*
D12*
X5655981Y-11172431D02*
X5655981Y-11109569D01*
X5593119Y-11109569D01*
X5593119Y-11172431D01*
X5655981Y-11172431D01*
D11*
X5967872Y-11032484D02*
X5986920Y-11032484D01*
X5986920Y-11032484D02*
X6005967Y-11042008D01*
X6005967Y-11042008D02*
X6015491Y-11051531D01*
X6015491Y-11051531D02*
X6025015Y-11070579D01*
X6025015Y-11070579D02*
X6034539Y-11108674D01*
X6034539Y-11108674D02*
X6034539Y-11156293D01*
X6034539Y-11156293D02*
X6025015Y-11194388D01*
X6025015Y-11194388D02*
X6015491Y-11213436D01*
X6015491Y-11213436D02*
X6005967Y-11222960D01*
X6005967Y-11222960D02*
X5986920Y-11232484D01*
X5986920Y-11232484D02*
X5967872Y-11232484D01*
X5967872Y-11232484D02*
X5948824Y-11222960D01*
X5948824Y-11222960D02*
X5939301Y-11213436D01*
X5939301Y-11213436D02*
X5929777Y-11194388D01*
X5929777Y-11194388D02*
X5920253Y-11156293D01*
X5920253Y-11156293D02*
X5920253Y-11108674D01*
X5920253Y-11108674D02*
X5929777Y-11070579D01*
X5929777Y-11070579D02*
X5939301Y-11051531D01*
X5939301Y-11051531D02*
X5948824Y-11042008D01*
X5948824Y-11042008D02*
X5967872Y-11032484D01*
X6120253Y-11213436D02*
X6129777Y-11222960D01*
X6129777Y-11222960D02*
X6120253Y-11232484D01*
X6120253Y-11232484D02*
X6110729Y-11222960D01*
X6110729Y-11222960D02*
X6120253Y-11213436D01*
X6120253Y-11213436D02*
X6120253Y-11232484D01*
X6244062Y-11118198D02*
X6225015Y-11108674D01*
X6225015Y-11108674D02*
X6215491Y-11099150D01*
X6215491Y-11099150D02*
X6205967Y-11080103D01*
X6205967Y-11080103D02*
X6205967Y-11070579D01*
X6205967Y-11070579D02*
X6215491Y-11051531D01*
X6215491Y-11051531D02*
X6225015Y-11042008D01*
X6225015Y-11042008D02*
X6244062Y-11032484D01*
X6244062Y-11032484D02*
X6282158Y-11032484D01*
X6282158Y-11032484D02*
X6301205Y-11042008D01*
X6301205Y-11042008D02*
X6310729Y-11051531D01*
X6310729Y-11051531D02*
X6320253Y-11070579D01*
X6320253Y-11070579D02*
X6320253Y-11080103D01*
X6320253Y-11080103D02*
X6310729Y-11099150D01*
X6310729Y-11099150D02*
X6301205Y-11108674D01*
X6301205Y-11108674D02*
X6282158Y-11118198D01*
X6282158Y-11118198D02*
X6244062Y-11118198D01*
X6244062Y-11118198D02*
X6225015Y-11127722D01*
X6225015Y-11127722D02*
X6215491Y-11137246D01*
X6215491Y-11137246D02*
X6205967Y-11156293D01*
X6205967Y-11156293D02*
X6205967Y-11194388D01*
X6205967Y-11194388D02*
X6215491Y-11213436D01*
X6215491Y-11213436D02*
X6225015Y-11222960D01*
X6225015Y-11222960D02*
X6244062Y-11232484D01*
X6244062Y-11232484D02*
X6282158Y-11232484D01*
X6282158Y-11232484D02*
X6301205Y-11222960D01*
X6301205Y-11222960D02*
X6310729Y-11213436D01*
X6310729Y-11213436D02*
X6320253Y-11194388D01*
X6320253Y-11194388D02*
X6320253Y-11156293D01*
X6320253Y-11156293D02*
X6310729Y-11137246D01*
X6310729Y-11137246D02*
X6301205Y-11127722D01*
X6301205Y-11127722D02*
X6282158Y-11118198D01*
X6434539Y-11118198D02*
X6415491Y-11108674D01*
X6415491Y-11108674D02*
X6405967Y-11099150D01*
X6405967Y-11099150D02*
X6396443Y-11080103D01*
X6396443Y-11080103D02*
X6396443Y-11070579D01*
X6396443Y-11070579D02*
X6405967Y-11051531D01*
X6405967Y-11051531D02*
X6415491Y-11042008D01*
X6415491Y-11042008D02*
X6434539Y-11032484D01*
X6434539Y-11032484D02*
X6472634Y-11032484D01*
X6472634Y-11032484D02*
X6491682Y-11042008D01*
X6491682Y-11042008D02*
X6501205Y-11051531D01*
X6501205Y-11051531D02*
X6510729Y-11070579D01*
X6510729Y-11070579D02*
X6510729Y-11080103D01*
X6510729Y-11080103D02*
X6501205Y-11099150D01*
X6501205Y-11099150D02*
X6491682Y-11108674D01*
X6491682Y-11108674D02*
X6472634Y-11118198D01*
X6472634Y-11118198D02*
X6434539Y-11118198D01*
X6434539Y-11118198D02*
X6415491Y-11127722D01*
X6415491Y-11127722D02*
X6405967Y-11137246D01*
X6405967Y-11137246D02*
X6396443Y-11156293D01*
X6396443Y-11156293D02*
X6396443Y-11194388D01*
X6396443Y-11194388D02*
X6405967Y-11213436D01*
X6405967Y-11213436D02*
X6415491Y-11222960D01*
X6415491Y-11222960D02*
X6434539Y-11232484D01*
X6434539Y-11232484D02*
X6472634Y-11232484D01*
X6472634Y-11232484D02*
X6491682Y-11222960D01*
X6491682Y-11222960D02*
X6501205Y-11213436D01*
X6501205Y-11213436D02*
X6510729Y-11194388D01*
X6510729Y-11194388D02*
X6510729Y-11156293D01*
X6510729Y-11156293D02*
X6501205Y-11137246D01*
X6501205Y-11137246D02*
X6491682Y-11127722D01*
X6491682Y-11127722D02*
X6472634Y-11118198D01*
X6605967Y-11232484D02*
X6644062Y-11232484D01*
X6644062Y-11232484D02*
X6663110Y-11222960D01*
X6663110Y-11222960D02*
X6672634Y-11213436D01*
X6672634Y-11213436D02*
X6691682Y-11184865D01*
X6691682Y-11184865D02*
X6701205Y-11146770D01*
X6701205Y-11146770D02*
X6701205Y-11070579D01*
X6701205Y-11070579D02*
X6691682Y-11051531D01*
X6691682Y-11051531D02*
X6682158Y-11042008D01*
X6682158Y-11042008D02*
X6663110Y-11032484D01*
X6663110Y-11032484D02*
X6625015Y-11032484D01*
X6625015Y-11032484D02*
X6605967Y-11042008D01*
X6605967Y-11042008D02*
X6596443Y-11051531D01*
X6596443Y-11051531D02*
X6586920Y-11070579D01*
X6586920Y-11070579D02*
X6586920Y-11118198D01*
X6586920Y-11118198D02*
X6596443Y-11137246D01*
X6596443Y-11137246D02*
X6605967Y-11146770D01*
X6605967Y-11146770D02*
X6625015Y-11156293D01*
X6625015Y-11156293D02*
X6663110Y-11156293D01*
X6663110Y-11156293D02*
X6682158Y-11146770D01*
X6682158Y-11146770D02*
X6691682Y-11137246D01*
X6691682Y-11137246D02*
X6701205Y-11118198D01*
X6786920Y-11232484D02*
X6786920Y-11099150D01*
X6786920Y-11118198D02*
X6796443Y-11108674D01*
X6796443Y-11108674D02*
X6815491Y-11099150D01*
X6815491Y-11099150D02*
X6844063Y-11099150D01*
X6844063Y-11099150D02*
X6863110Y-11108674D01*
X6863110Y-11108674D02*
X6872634Y-11127722D01*
X6872634Y-11127722D02*
X6872634Y-11232484D01*
X6872634Y-11127722D02*
X6882158Y-11108674D01*
X6882158Y-11108674D02*
X6901205Y-11099150D01*
X6901205Y-11099150D02*
X6929777Y-11099150D01*
X6929777Y-11099150D02*
X6948824Y-11108674D01*
X6948824Y-11108674D02*
X6958348Y-11127722D01*
X6958348Y-11127722D02*
X6958348Y-11232484D01*
X7053586Y-11232484D02*
X7053586Y-11099150D01*
X7053586Y-11118198D02*
X7063110Y-11108674D01*
X7063110Y-11108674D02*
X7082158Y-11099150D01*
X7082158Y-11099150D02*
X7110729Y-11099150D01*
X7110729Y-11099150D02*
X7129777Y-11108674D01*
X7129777Y-11108674D02*
X7139301Y-11127722D01*
X7139301Y-11127722D02*
X7139301Y-11232484D01*
X7139301Y-11127722D02*
X7148824Y-11108674D01*
X7148824Y-11108674D02*
X7167872Y-11099150D01*
X7167872Y-11099150D02*
X7196443Y-11099150D01*
X7196443Y-11099150D02*
X7215491Y-11108674D01*
X7215491Y-11108674D02*
X7225015Y-11127722D01*
X7225015Y-11127722D02*
X7225015Y-11232484D01*
X7615491Y-11022960D02*
X7444063Y-11280103D01*
X7872634Y-11032484D02*
X7891682Y-11032484D01*
X7891682Y-11032484D02*
X7910729Y-11042008D01*
X7910729Y-11042008D02*
X7920253Y-11051531D01*
X7920253Y-11051531D02*
X7929777Y-11070579D01*
X7929777Y-11070579D02*
X7939301Y-11108674D01*
X7939301Y-11108674D02*
X7939301Y-11156293D01*
X7939301Y-11156293D02*
X7929777Y-11194388D01*
X7929777Y-11194388D02*
X7920253Y-11213436D01*
X7920253Y-11213436D02*
X7910729Y-11222960D01*
X7910729Y-11222960D02*
X7891682Y-11232484D01*
X7891682Y-11232484D02*
X7872634Y-11232484D01*
X7872634Y-11232484D02*
X7853586Y-11222960D01*
X7853586Y-11222960D02*
X7844063Y-11213436D01*
X7844063Y-11213436D02*
X7834539Y-11194388D01*
X7834539Y-11194388D02*
X7825015Y-11156293D01*
X7825015Y-11156293D02*
X7825015Y-11108674D01*
X7825015Y-11108674D02*
X7834539Y-11070579D01*
X7834539Y-11070579D02*
X7844063Y-11051531D01*
X7844063Y-11051531D02*
X7853586Y-11042008D01*
X7853586Y-11042008D02*
X7872634Y-11032484D01*
X8025015Y-11213436D02*
X8034539Y-11222960D01*
X8034539Y-11222960D02*
X8025015Y-11232484D01*
X8025015Y-11232484D02*
X8015491Y-11222960D01*
X8015491Y-11222960D02*
X8025015Y-11213436D01*
X8025015Y-11213436D02*
X8025015Y-11232484D01*
X8158348Y-11032484D02*
X8177396Y-11032484D01*
X8177396Y-11032484D02*
X8196444Y-11042008D01*
X8196444Y-11042008D02*
X8205967Y-11051531D01*
X8205967Y-11051531D02*
X8215491Y-11070579D01*
X8215491Y-11070579D02*
X8225015Y-11108674D01*
X8225015Y-11108674D02*
X8225015Y-11156293D01*
X8225015Y-11156293D02*
X8215491Y-11194388D01*
X8215491Y-11194388D02*
X8205967Y-11213436D01*
X8205967Y-11213436D02*
X8196444Y-11222960D01*
X8196444Y-11222960D02*
X8177396Y-11232484D01*
X8177396Y-11232484D02*
X8158348Y-11232484D01*
X8158348Y-11232484D02*
X8139301Y-11222960D01*
X8139301Y-11222960D02*
X8129777Y-11213436D01*
X8129777Y-11213436D02*
X8120253Y-11194388D01*
X8120253Y-11194388D02*
X8110729Y-11156293D01*
X8110729Y-11156293D02*
X8110729Y-11108674D01*
X8110729Y-11108674D02*
X8120253Y-11070579D01*
X8120253Y-11070579D02*
X8129777Y-11051531D01*
X8129777Y-11051531D02*
X8139301Y-11042008D01*
X8139301Y-11042008D02*
X8158348Y-11032484D01*
X8291682Y-11032484D02*
X8415491Y-11032484D01*
X8415491Y-11032484D02*
X8348825Y-11108674D01*
X8348825Y-11108674D02*
X8377396Y-11108674D01*
X8377396Y-11108674D02*
X8396444Y-11118198D01*
X8396444Y-11118198D02*
X8405968Y-11127722D01*
X8405968Y-11127722D02*
X8415491Y-11146770D01*
X8415491Y-11146770D02*
X8415491Y-11194388D01*
X8415491Y-11194388D02*
X8405968Y-11213436D01*
X8405968Y-11213436D02*
X8396444Y-11222960D01*
X8396444Y-11222960D02*
X8377396Y-11232484D01*
X8377396Y-11232484D02*
X8320253Y-11232484D01*
X8320253Y-11232484D02*
X8301206Y-11222960D01*
X8301206Y-11222960D02*
X8291682Y-11213436D01*
X8596444Y-11032484D02*
X8501206Y-11032484D01*
X8501206Y-11032484D02*
X8491682Y-11127722D01*
X8491682Y-11127722D02*
X8501206Y-11118198D01*
X8501206Y-11118198D02*
X8520253Y-11108674D01*
X8520253Y-11108674D02*
X8567872Y-11108674D01*
X8567872Y-11108674D02*
X8586920Y-11118198D01*
X8586920Y-11118198D02*
X8596444Y-11127722D01*
X8596444Y-11127722D02*
X8605968Y-11146770D01*
X8605968Y-11146770D02*
X8605968Y-11194388D01*
X8605968Y-11194388D02*
X8596444Y-11213436D01*
X8596444Y-11213436D02*
X8586920Y-11222960D01*
X8586920Y-11222960D02*
X8567872Y-11232484D01*
X8567872Y-11232484D02*
X8520253Y-11232484D01*
X8520253Y-11232484D02*
X8501206Y-11222960D01*
X8501206Y-11222960D02*
X8491682Y-11213436D01*
X8729777Y-11032484D02*
X8748825Y-11032484D01*
X8748825Y-11032484D02*
X8767872Y-11042008D01*
X8767872Y-11042008D02*
X8777396Y-11051531D01*
X8777396Y-11051531D02*
X8786920Y-11070579D01*
X8786920Y-11070579D02*
X8796444Y-11108674D01*
X8796444Y-11108674D02*
X8796444Y-11156293D01*
X8796444Y-11156293D02*
X8786920Y-11194388D01*
X8786920Y-11194388D02*
X8777396Y-11213436D01*
X8777396Y-11213436D02*
X8767872Y-11222960D01*
X8767872Y-11222960D02*
X8748825Y-11232484D01*
X8748825Y-11232484D02*
X8729777Y-11232484D01*
X8729777Y-11232484D02*
X8710729Y-11222960D01*
X8710729Y-11222960D02*
X8701206Y-11213436D01*
X8701206Y-11213436D02*
X8691682Y-11194388D01*
X8691682Y-11194388D02*
X8682158Y-11156293D01*
X8682158Y-11156293D02*
X8682158Y-11108674D01*
X8682158Y-11108674D02*
X8691682Y-11070579D01*
X8691682Y-11070579D02*
X8701206Y-11051531D01*
X8701206Y-11051531D02*
X8710729Y-11042008D01*
X8710729Y-11042008D02*
X8729777Y-11032484D01*
X8872634Y-11032484D02*
X8872634Y-11070579D01*
X8948825Y-11032484D02*
X8948825Y-11070579D01*
X9244063Y-11308674D02*
X9234539Y-11299150D01*
X9234539Y-11299150D02*
X9215491Y-11270579D01*
X9215491Y-11270579D02*
X9205968Y-11251531D01*
X9205968Y-11251531D02*
X9196444Y-11222960D01*
X9196444Y-11222960D02*
X9186920Y-11175341D01*
X9186920Y-11175341D02*
X9186920Y-11137246D01*
X9186920Y-11137246D02*
X9196444Y-11089627D01*
X9196444Y-11089627D02*
X9205968Y-11061055D01*
X9205968Y-11061055D02*
X9215491Y-11042008D01*
X9215491Y-11042008D02*
X9234539Y-11013436D01*
X9234539Y-11013436D02*
X9244063Y-11003912D01*
X9310730Y-11051531D02*
X9320253Y-11042008D01*
X9320253Y-11042008D02*
X9339301Y-11032484D01*
X9339301Y-11032484D02*
X9386920Y-11032484D01*
X9386920Y-11032484D02*
X9405968Y-11042008D01*
X9405968Y-11042008D02*
X9415491Y-11051531D01*
X9415491Y-11051531D02*
X9425015Y-11070579D01*
X9425015Y-11070579D02*
X9425015Y-11089627D01*
X9425015Y-11089627D02*
X9415491Y-11118198D01*
X9415491Y-11118198D02*
X9301206Y-11232484D01*
X9301206Y-11232484D02*
X9425015Y-11232484D01*
X9539301Y-11118198D02*
X9520253Y-11108674D01*
X9520253Y-11108674D02*
X9510730Y-11099150D01*
X9510730Y-11099150D02*
X9501206Y-11080103D01*
X9501206Y-11080103D02*
X9501206Y-11070579D01*
X9501206Y-11070579D02*
X9510730Y-11051531D01*
X9510730Y-11051531D02*
X9520253Y-11042008D01*
X9520253Y-11042008D02*
X9539301Y-11032484D01*
X9539301Y-11032484D02*
X9577396Y-11032484D01*
X9577396Y-11032484D02*
X9596444Y-11042008D01*
X9596444Y-11042008D02*
X9605968Y-11051531D01*
X9605968Y-11051531D02*
X9615491Y-11070579D01*
X9615491Y-11070579D02*
X9615491Y-11080103D01*
X9615491Y-11080103D02*
X9605968Y-11099150D01*
X9605968Y-11099150D02*
X9596444Y-11108674D01*
X9596444Y-11108674D02*
X9577396Y-11118198D01*
X9577396Y-11118198D02*
X9539301Y-11118198D01*
X9539301Y-11118198D02*
X9520253Y-11127722D01*
X9520253Y-11127722D02*
X9510730Y-11137246D01*
X9510730Y-11137246D02*
X9501206Y-11156293D01*
X9501206Y-11156293D02*
X9501206Y-11194388D01*
X9501206Y-11194388D02*
X9510730Y-11213436D01*
X9510730Y-11213436D02*
X9520253Y-11222960D01*
X9520253Y-11222960D02*
X9539301Y-11232484D01*
X9539301Y-11232484D02*
X9577396Y-11232484D01*
X9577396Y-11232484D02*
X9596444Y-11222960D01*
X9596444Y-11222960D02*
X9605968Y-11213436D01*
X9605968Y-11213436D02*
X9615491Y-11194388D01*
X9615491Y-11194388D02*
X9615491Y-11156293D01*
X9615491Y-11156293D02*
X9605968Y-11137246D01*
X9605968Y-11137246D02*
X9596444Y-11127722D01*
X9596444Y-11127722D02*
X9577396Y-11118198D01*
X9853587Y-11232484D02*
X9853587Y-11032484D01*
X9939301Y-11232484D02*
X9939301Y-11127722D01*
X9939301Y-11127722D02*
X9929777Y-11108674D01*
X9929777Y-11108674D02*
X9910730Y-11099150D01*
X9910730Y-11099150D02*
X9882158Y-11099150D01*
X9882158Y-11099150D02*
X9863111Y-11108674D01*
X9863111Y-11108674D02*
X9853587Y-11118198D01*
X10063111Y-11232484D02*
X10044063Y-11222960D01*
X10044063Y-11222960D02*
X10034539Y-11213436D01*
X10034539Y-11213436D02*
X10025015Y-11194388D01*
X10025015Y-11194388D02*
X10025015Y-11137246D01*
X10025015Y-11137246D02*
X10034539Y-11118198D01*
X10034539Y-11118198D02*
X10044063Y-11108674D01*
X10044063Y-11108674D02*
X10063111Y-11099150D01*
X10063111Y-11099150D02*
X10091682Y-11099150D01*
X10091682Y-11099150D02*
X10110730Y-11108674D01*
X10110730Y-11108674D02*
X10120253Y-11118198D01*
X10120253Y-11118198D02*
X10129777Y-11137246D01*
X10129777Y-11137246D02*
X10129777Y-11194388D01*
X10129777Y-11194388D02*
X10120253Y-11213436D01*
X10120253Y-11213436D02*
X10110730Y-11222960D01*
X10110730Y-11222960D02*
X10091682Y-11232484D01*
X10091682Y-11232484D02*
X10063111Y-11232484D01*
X10244063Y-11232484D02*
X10225015Y-11222960D01*
X10225015Y-11222960D02*
X10215492Y-11203912D01*
X10215492Y-11203912D02*
X10215492Y-11032484D01*
X10396444Y-11222960D02*
X10377396Y-11232484D01*
X10377396Y-11232484D02*
X10339301Y-11232484D01*
X10339301Y-11232484D02*
X10320253Y-11222960D01*
X10320253Y-11222960D02*
X10310730Y-11203912D01*
X10310730Y-11203912D02*
X10310730Y-11127722D01*
X10310730Y-11127722D02*
X10320253Y-11108674D01*
X10320253Y-11108674D02*
X10339301Y-11099150D01*
X10339301Y-11099150D02*
X10377396Y-11099150D01*
X10377396Y-11099150D02*
X10396444Y-11108674D01*
X10396444Y-11108674D02*
X10405968Y-11127722D01*
X10405968Y-11127722D02*
X10405968Y-11146770D01*
X10405968Y-11146770D02*
X10310730Y-11165817D01*
X10482158Y-11222960D02*
X10501206Y-11232484D01*
X10501206Y-11232484D02*
X10539301Y-11232484D01*
X10539301Y-11232484D02*
X10558349Y-11222960D01*
X10558349Y-11222960D02*
X10567873Y-11203912D01*
X10567873Y-11203912D02*
X10567873Y-11194388D01*
X10567873Y-11194388D02*
X10558349Y-11175341D01*
X10558349Y-11175341D02*
X10539301Y-11165817D01*
X10539301Y-11165817D02*
X10510730Y-11165817D01*
X10510730Y-11165817D02*
X10491682Y-11156293D01*
X10491682Y-11156293D02*
X10482158Y-11137246D01*
X10482158Y-11137246D02*
X10482158Y-11127722D01*
X10482158Y-11127722D02*
X10491682Y-11108674D01*
X10491682Y-11108674D02*
X10510730Y-11099150D01*
X10510730Y-11099150D02*
X10539301Y-11099150D01*
X10539301Y-11099150D02*
X10558349Y-11108674D01*
X10634539Y-11308674D02*
X10644063Y-11299150D01*
X10644063Y-11299150D02*
X10663111Y-11270579D01*
X10663111Y-11270579D02*
X10672634Y-11251531D01*
X10672634Y-11251531D02*
X10682158Y-11222960D01*
X10682158Y-11222960D02*
X10691682Y-11175341D01*
X10691682Y-11175341D02*
X10691682Y-11137246D01*
X10691682Y-11137246D02*
X10682158Y-11089627D01*
X10682158Y-11089627D02*
X10672634Y-11061055D01*
X10672634Y-11061055D02*
X10663111Y-11042008D01*
X10663111Y-11042008D02*
X10644063Y-11013436D01*
X10644063Y-11013436D02*
X10634539Y-11003912D01*
D13*
X5618200Y-11455800D02*
X5669000Y-11405000D01*
X5618200Y-11354200D01*
X5567400Y-11405000D01*
X5618200Y-11455800D01*
D11*
X6034539Y-11496484D02*
X5920253Y-11496484D01*
X5977396Y-11496484D02*
X5977396Y-11296484D01*
X5977396Y-11296484D02*
X5958348Y-11325055D01*
X5958348Y-11325055D02*
X5939301Y-11344103D01*
X5939301Y-11344103D02*
X5920253Y-11353627D01*
X6120253Y-11477436D02*
X6129777Y-11486960D01*
X6129777Y-11486960D02*
X6120253Y-11496484D01*
X6120253Y-11496484D02*
X6110729Y-11486960D01*
X6110729Y-11486960D02*
X6120253Y-11477436D01*
X6120253Y-11477436D02*
X6120253Y-11496484D01*
X6253586Y-11296484D02*
X6272634Y-11296484D01*
X6272634Y-11296484D02*
X6291682Y-11306008D01*
X6291682Y-11306008D02*
X6301205Y-11315531D01*
X6301205Y-11315531D02*
X6310729Y-11334579D01*
X6310729Y-11334579D02*
X6320253Y-11372674D01*
X6320253Y-11372674D02*
X6320253Y-11420293D01*
X6320253Y-11420293D02*
X6310729Y-11458388D01*
X6310729Y-11458388D02*
X6301205Y-11477436D01*
X6301205Y-11477436D02*
X6291682Y-11486960D01*
X6291682Y-11486960D02*
X6272634Y-11496484D01*
X6272634Y-11496484D02*
X6253586Y-11496484D01*
X6253586Y-11496484D02*
X6234539Y-11486960D01*
X6234539Y-11486960D02*
X6225015Y-11477436D01*
X6225015Y-11477436D02*
X6215491Y-11458388D01*
X6215491Y-11458388D02*
X6205967Y-11420293D01*
X6205967Y-11420293D02*
X6205967Y-11372674D01*
X6205967Y-11372674D02*
X6215491Y-11334579D01*
X6215491Y-11334579D02*
X6225015Y-11315531D01*
X6225015Y-11315531D02*
X6234539Y-11306008D01*
X6234539Y-11306008D02*
X6253586Y-11296484D01*
X6510729Y-11496484D02*
X6396443Y-11496484D01*
X6453586Y-11496484D02*
X6453586Y-11296484D01*
X6453586Y-11296484D02*
X6434539Y-11325055D01*
X6434539Y-11325055D02*
X6415491Y-11344103D01*
X6415491Y-11344103D02*
X6396443Y-11353627D01*
X6682158Y-11296484D02*
X6644062Y-11296484D01*
X6644062Y-11296484D02*
X6625015Y-11306008D01*
X6625015Y-11306008D02*
X6615491Y-11315531D01*
X6615491Y-11315531D02*
X6596443Y-11344103D01*
X6596443Y-11344103D02*
X6586920Y-11382198D01*
X6586920Y-11382198D02*
X6586920Y-11458388D01*
X6586920Y-11458388D02*
X6596443Y-11477436D01*
X6596443Y-11477436D02*
X6605967Y-11486960D01*
X6605967Y-11486960D02*
X6625015Y-11496484D01*
X6625015Y-11496484D02*
X6663110Y-11496484D01*
X6663110Y-11496484D02*
X6682158Y-11486960D01*
X6682158Y-11486960D02*
X6691682Y-11477436D01*
X6691682Y-11477436D02*
X6701205Y-11458388D01*
X6701205Y-11458388D02*
X6701205Y-11410769D01*
X6701205Y-11410769D02*
X6691682Y-11391722D01*
X6691682Y-11391722D02*
X6682158Y-11382198D01*
X6682158Y-11382198D02*
X6663110Y-11372674D01*
X6663110Y-11372674D02*
X6625015Y-11372674D01*
X6625015Y-11372674D02*
X6605967Y-11382198D01*
X6605967Y-11382198D02*
X6596443Y-11391722D01*
X6596443Y-11391722D02*
X6586920Y-11410769D01*
X6786920Y-11496484D02*
X6786920Y-11363150D01*
X6786920Y-11382198D02*
X6796443Y-11372674D01*
X6796443Y-11372674D02*
X6815491Y-11363150D01*
X6815491Y-11363150D02*
X6844063Y-11363150D01*
X6844063Y-11363150D02*
X6863110Y-11372674D01*
X6863110Y-11372674D02*
X6872634Y-11391722D01*
X6872634Y-11391722D02*
X6872634Y-11496484D01*
X6872634Y-11391722D02*
X6882158Y-11372674D01*
X6882158Y-11372674D02*
X6901205Y-11363150D01*
X6901205Y-11363150D02*
X6929777Y-11363150D01*
X6929777Y-11363150D02*
X6948824Y-11372674D01*
X6948824Y-11372674D02*
X6958348Y-11391722D01*
X6958348Y-11391722D02*
X6958348Y-11496484D01*
X7053586Y-11496484D02*
X7053586Y-11363150D01*
X7053586Y-11382198D02*
X7063110Y-11372674D01*
X7063110Y-11372674D02*
X7082158Y-11363150D01*
X7082158Y-11363150D02*
X7110729Y-11363150D01*
X7110729Y-11363150D02*
X7129777Y-11372674D01*
X7129777Y-11372674D02*
X7139301Y-11391722D01*
X7139301Y-11391722D02*
X7139301Y-11496484D01*
X7139301Y-11391722D02*
X7148824Y-11372674D01*
X7148824Y-11372674D02*
X7167872Y-11363150D01*
X7167872Y-11363150D02*
X7196443Y-11363150D01*
X7196443Y-11363150D02*
X7215491Y-11372674D01*
X7215491Y-11372674D02*
X7225015Y-11391722D01*
X7225015Y-11391722D02*
X7225015Y-11496484D01*
X7615491Y-11286960D02*
X7444063Y-11544103D01*
X7872634Y-11296484D02*
X7891682Y-11296484D01*
X7891682Y-11296484D02*
X7910729Y-11306008D01*
X7910729Y-11306008D02*
X7920253Y-11315531D01*
X7920253Y-11315531D02*
X7929777Y-11334579D01*
X7929777Y-11334579D02*
X7939301Y-11372674D01*
X7939301Y-11372674D02*
X7939301Y-11420293D01*
X7939301Y-11420293D02*
X7929777Y-11458388D01*
X7929777Y-11458388D02*
X7920253Y-11477436D01*
X7920253Y-11477436D02*
X7910729Y-11486960D01*
X7910729Y-11486960D02*
X7891682Y-11496484D01*
X7891682Y-11496484D02*
X7872634Y-11496484D01*
X7872634Y-11496484D02*
X7853586Y-11486960D01*
X7853586Y-11486960D02*
X7844063Y-11477436D01*
X7844063Y-11477436D02*
X7834539Y-11458388D01*
X7834539Y-11458388D02*
X7825015Y-11420293D01*
X7825015Y-11420293D02*
X7825015Y-11372674D01*
X7825015Y-11372674D02*
X7834539Y-11334579D01*
X7834539Y-11334579D02*
X7844063Y-11315531D01*
X7844063Y-11315531D02*
X7853586Y-11306008D01*
X7853586Y-11306008D02*
X7872634Y-11296484D01*
X8025015Y-11477436D02*
X8034539Y-11486960D01*
X8034539Y-11486960D02*
X8025015Y-11496484D01*
X8025015Y-11496484D02*
X8015491Y-11486960D01*
X8015491Y-11486960D02*
X8025015Y-11477436D01*
X8025015Y-11477436D02*
X8025015Y-11496484D01*
X8158348Y-11296484D02*
X8177396Y-11296484D01*
X8177396Y-11296484D02*
X8196444Y-11306008D01*
X8196444Y-11306008D02*
X8205967Y-11315531D01*
X8205967Y-11315531D02*
X8215491Y-11334579D01*
X8215491Y-11334579D02*
X8225015Y-11372674D01*
X8225015Y-11372674D02*
X8225015Y-11420293D01*
X8225015Y-11420293D02*
X8215491Y-11458388D01*
X8215491Y-11458388D02*
X8205967Y-11477436D01*
X8205967Y-11477436D02*
X8196444Y-11486960D01*
X8196444Y-11486960D02*
X8177396Y-11496484D01*
X8177396Y-11496484D02*
X8158348Y-11496484D01*
X8158348Y-11496484D02*
X8139301Y-11486960D01*
X8139301Y-11486960D02*
X8129777Y-11477436D01*
X8129777Y-11477436D02*
X8120253Y-11458388D01*
X8120253Y-11458388D02*
X8110729Y-11420293D01*
X8110729Y-11420293D02*
X8110729Y-11372674D01*
X8110729Y-11372674D02*
X8120253Y-11334579D01*
X8120253Y-11334579D02*
X8129777Y-11315531D01*
X8129777Y-11315531D02*
X8139301Y-11306008D01*
X8139301Y-11306008D02*
X8158348Y-11296484D01*
X8396444Y-11363150D02*
X8396444Y-11496484D01*
X8348825Y-11286960D02*
X8301206Y-11429817D01*
X8301206Y-11429817D02*
X8425015Y-11429817D01*
X8539301Y-11296484D02*
X8558349Y-11296484D01*
X8558349Y-11296484D02*
X8577396Y-11306008D01*
X8577396Y-11306008D02*
X8586920Y-11315531D01*
X8586920Y-11315531D02*
X8596444Y-11334579D01*
X8596444Y-11334579D02*
X8605968Y-11372674D01*
X8605968Y-11372674D02*
X8605968Y-11420293D01*
X8605968Y-11420293D02*
X8596444Y-11458388D01*
X8596444Y-11458388D02*
X8586920Y-11477436D01*
X8586920Y-11477436D02*
X8577396Y-11486960D01*
X8577396Y-11486960D02*
X8558349Y-11496484D01*
X8558349Y-11496484D02*
X8539301Y-11496484D01*
X8539301Y-11496484D02*
X8520253Y-11486960D01*
X8520253Y-11486960D02*
X8510729Y-11477436D01*
X8510729Y-11477436D02*
X8501206Y-11458388D01*
X8501206Y-11458388D02*
X8491682Y-11420293D01*
X8491682Y-11420293D02*
X8491682Y-11372674D01*
X8491682Y-11372674D02*
X8501206Y-11334579D01*
X8501206Y-11334579D02*
X8510729Y-11315531D01*
X8510729Y-11315531D02*
X8520253Y-11306008D01*
X8520253Y-11306008D02*
X8539301Y-11296484D01*
X8729777Y-11296484D02*
X8748825Y-11296484D01*
X8748825Y-11296484D02*
X8767872Y-11306008D01*
X8767872Y-11306008D02*
X8777396Y-11315531D01*
X8777396Y-11315531D02*
X8786920Y-11334579D01*
X8786920Y-11334579D02*
X8796444Y-11372674D01*
X8796444Y-11372674D02*
X8796444Y-11420293D01*
X8796444Y-11420293D02*
X8786920Y-11458388D01*
X8786920Y-11458388D02*
X8777396Y-11477436D01*
X8777396Y-11477436D02*
X8767872Y-11486960D01*
X8767872Y-11486960D02*
X8748825Y-11496484D01*
X8748825Y-11496484D02*
X8729777Y-11496484D01*
X8729777Y-11496484D02*
X8710729Y-11486960D01*
X8710729Y-11486960D02*
X8701206Y-11477436D01*
X8701206Y-11477436D02*
X8691682Y-11458388D01*
X8691682Y-11458388D02*
X8682158Y-11420293D01*
X8682158Y-11420293D02*
X8682158Y-11372674D01*
X8682158Y-11372674D02*
X8691682Y-11334579D01*
X8691682Y-11334579D02*
X8701206Y-11315531D01*
X8701206Y-11315531D02*
X8710729Y-11306008D01*
X8710729Y-11306008D02*
X8729777Y-11296484D01*
X8872634Y-11296484D02*
X8872634Y-11334579D01*
X8948825Y-11296484D02*
X8948825Y-11334579D01*
X9244063Y-11572674D02*
X9234539Y-11563150D01*
X9234539Y-11563150D02*
X9215491Y-11534579D01*
X9215491Y-11534579D02*
X9205968Y-11515531D01*
X9205968Y-11515531D02*
X9196444Y-11486960D01*
X9196444Y-11486960D02*
X9186920Y-11439341D01*
X9186920Y-11439341D02*
X9186920Y-11401246D01*
X9186920Y-11401246D02*
X9196444Y-11353627D01*
X9196444Y-11353627D02*
X9205968Y-11325055D01*
X9205968Y-11325055D02*
X9215491Y-11306008D01*
X9215491Y-11306008D02*
X9234539Y-11277436D01*
X9234539Y-11277436D02*
X9244063Y-11267912D01*
X9348825Y-11382198D02*
X9329777Y-11372674D01*
X9329777Y-11372674D02*
X9320253Y-11363150D01*
X9320253Y-11363150D02*
X9310730Y-11344103D01*
X9310730Y-11344103D02*
X9310730Y-11334579D01*
X9310730Y-11334579D02*
X9320253Y-11315531D01*
X9320253Y-11315531D02*
X9329777Y-11306008D01*
X9329777Y-11306008D02*
X9348825Y-11296484D01*
X9348825Y-11296484D02*
X9386920Y-11296484D01*
X9386920Y-11296484D02*
X9405968Y-11306008D01*
X9405968Y-11306008D02*
X9415491Y-11315531D01*
X9415491Y-11315531D02*
X9425015Y-11334579D01*
X9425015Y-11334579D02*
X9425015Y-11344103D01*
X9425015Y-11344103D02*
X9415491Y-11363150D01*
X9415491Y-11363150D02*
X9405968Y-11372674D01*
X9405968Y-11372674D02*
X9386920Y-11382198D01*
X9386920Y-11382198D02*
X9348825Y-11382198D01*
X9348825Y-11382198D02*
X9329777Y-11391722D01*
X9329777Y-11391722D02*
X9320253Y-11401246D01*
X9320253Y-11401246D02*
X9310730Y-11420293D01*
X9310730Y-11420293D02*
X9310730Y-11458388D01*
X9310730Y-11458388D02*
X9320253Y-11477436D01*
X9320253Y-11477436D02*
X9329777Y-11486960D01*
X9329777Y-11486960D02*
X9348825Y-11496484D01*
X9348825Y-11496484D02*
X9386920Y-11496484D01*
X9386920Y-11496484D02*
X9405968Y-11486960D01*
X9405968Y-11486960D02*
X9415491Y-11477436D01*
X9415491Y-11477436D02*
X9425015Y-11458388D01*
X9425015Y-11458388D02*
X9425015Y-11420293D01*
X9425015Y-11420293D02*
X9415491Y-11401246D01*
X9415491Y-11401246D02*
X9405968Y-11391722D01*
X9405968Y-11391722D02*
X9386920Y-11382198D01*
X9663111Y-11496484D02*
X9663111Y-11296484D01*
X9748825Y-11496484D02*
X9748825Y-11391722D01*
X9748825Y-11391722D02*
X9739301Y-11372674D01*
X9739301Y-11372674D02*
X9720253Y-11363150D01*
X9720253Y-11363150D02*
X9691682Y-11363150D01*
X9691682Y-11363150D02*
X9672634Y-11372674D01*
X9672634Y-11372674D02*
X9663111Y-11382198D01*
X9872634Y-11496484D02*
X9853587Y-11486960D01*
X9853587Y-11486960D02*
X9844063Y-11477436D01*
X9844063Y-11477436D02*
X9834539Y-11458388D01*
X9834539Y-11458388D02*
X9834539Y-11401246D01*
X9834539Y-11401246D02*
X9844063Y-11382198D01*
X9844063Y-11382198D02*
X9853587Y-11372674D01*
X9853587Y-11372674D02*
X9872634Y-11363150D01*
X9872634Y-11363150D02*
X9901206Y-11363150D01*
X9901206Y-11363150D02*
X9920253Y-11372674D01*
X9920253Y-11372674D02*
X9929777Y-11382198D01*
X9929777Y-11382198D02*
X9939301Y-11401246D01*
X9939301Y-11401246D02*
X9939301Y-11458388D01*
X9939301Y-11458388D02*
X9929777Y-11477436D01*
X9929777Y-11477436D02*
X9920253Y-11486960D01*
X9920253Y-11486960D02*
X9901206Y-11496484D01*
X9901206Y-11496484D02*
X9872634Y-11496484D01*
X10053587Y-11496484D02*
X10034539Y-11486960D01*
X10034539Y-11486960D02*
X10025015Y-11467912D01*
X10025015Y-11467912D02*
X10025015Y-11296484D01*
X10205968Y-11486960D02*
X10186920Y-11496484D01*
X10186920Y-11496484D02*
X10148825Y-11496484D01*
X10148825Y-11496484D02*
X10129777Y-11486960D01*
X10129777Y-11486960D02*
X10120253Y-11467912D01*
X10120253Y-11467912D02*
X10120253Y-11391722D01*
X10120253Y-11391722D02*
X10129777Y-11372674D01*
X10129777Y-11372674D02*
X10148825Y-11363150D01*
X10148825Y-11363150D02*
X10186920Y-11363150D01*
X10186920Y-11363150D02*
X10205968Y-11372674D01*
X10205968Y-11372674D02*
X10215492Y-11391722D01*
X10215492Y-11391722D02*
X10215492Y-11410769D01*
X10215492Y-11410769D02*
X10120253Y-11429817D01*
X10291682Y-11486960D02*
X10310730Y-11496484D01*
X10310730Y-11496484D02*
X10348825Y-11496484D01*
X10348825Y-11496484D02*
X10367873Y-11486960D01*
X10367873Y-11486960D02*
X10377396Y-11467912D01*
X10377396Y-11467912D02*
X10377396Y-11458388D01*
X10377396Y-11458388D02*
X10367873Y-11439341D01*
X10367873Y-11439341D02*
X10348825Y-11429817D01*
X10348825Y-11429817D02*
X10320253Y-11429817D01*
X10320253Y-11429817D02*
X10301206Y-11420293D01*
X10301206Y-11420293D02*
X10291682Y-11401246D01*
X10291682Y-11401246D02*
X10291682Y-11391722D01*
X10291682Y-11391722D02*
X10301206Y-11372674D01*
X10301206Y-11372674D02*
X10320253Y-11363150D01*
X10320253Y-11363150D02*
X10348825Y-11363150D01*
X10348825Y-11363150D02*
X10367873Y-11372674D01*
X10444063Y-11572674D02*
X10453587Y-11563150D01*
X10453587Y-11563150D02*
X10472634Y-11534579D01*
X10472634Y-11534579D02*
X10482158Y-11515531D01*
X10482158Y-11515531D02*
X10491682Y-11486960D01*
X10491682Y-11486960D02*
X10501206Y-11439341D01*
X10501206Y-11439341D02*
X10501206Y-11401246D01*
X10501206Y-11401246D02*
X10491682Y-11353627D01*
X10491682Y-11353627D02*
X10482158Y-11325055D01*
X10482158Y-11325055D02*
X10472634Y-11306008D01*
X10472634Y-11306008D02*
X10453587Y-11277436D01*
X10453587Y-11277436D02*
X10444063Y-11267912D01*
D14*
X5567000Y-11618000D02*
X5669000Y-11720000D01*
X5669000Y-11618000D02*
X5567000Y-11720000D01*
X5669000Y-11669000D02*
G75*
G03*
X5567000Y-11669000I-51000J0D01*
G01*
X5567000Y-11669000D02*
G75*
G03*
X5669000Y-11669000I51000J0D01*
G01*
D11*
X6034539Y-11760484D02*
X5920253Y-11760484D01*
X5977396Y-11760484D02*
X5977396Y-11560484D01*
X5977396Y-11560484D02*
X5958348Y-11589055D01*
X5958348Y-11589055D02*
X5939301Y-11608103D01*
X5939301Y-11608103D02*
X5920253Y-11617627D01*
X6120253Y-11741436D02*
X6129777Y-11750960D01*
X6129777Y-11750960D02*
X6120253Y-11760484D01*
X6120253Y-11760484D02*
X6110729Y-11750960D01*
X6110729Y-11750960D02*
X6120253Y-11741436D01*
X6120253Y-11741436D02*
X6120253Y-11760484D01*
X6253586Y-11560484D02*
X6272634Y-11560484D01*
X6272634Y-11560484D02*
X6291682Y-11570008D01*
X6291682Y-11570008D02*
X6301205Y-11579531D01*
X6301205Y-11579531D02*
X6310729Y-11598579D01*
X6310729Y-11598579D02*
X6320253Y-11636674D01*
X6320253Y-11636674D02*
X6320253Y-11684293D01*
X6320253Y-11684293D02*
X6310729Y-11722388D01*
X6310729Y-11722388D02*
X6301205Y-11741436D01*
X6301205Y-11741436D02*
X6291682Y-11750960D01*
X6291682Y-11750960D02*
X6272634Y-11760484D01*
X6272634Y-11760484D02*
X6253586Y-11760484D01*
X6253586Y-11760484D02*
X6234539Y-11750960D01*
X6234539Y-11750960D02*
X6225015Y-11741436D01*
X6225015Y-11741436D02*
X6215491Y-11722388D01*
X6215491Y-11722388D02*
X6205967Y-11684293D01*
X6205967Y-11684293D02*
X6205967Y-11636674D01*
X6205967Y-11636674D02*
X6215491Y-11598579D01*
X6215491Y-11598579D02*
X6225015Y-11579531D01*
X6225015Y-11579531D02*
X6234539Y-11570008D01*
X6234539Y-11570008D02*
X6253586Y-11560484D01*
X6396443Y-11579531D02*
X6405967Y-11570008D01*
X6405967Y-11570008D02*
X6425015Y-11560484D01*
X6425015Y-11560484D02*
X6472634Y-11560484D01*
X6472634Y-11560484D02*
X6491682Y-11570008D01*
X6491682Y-11570008D02*
X6501205Y-11579531D01*
X6501205Y-11579531D02*
X6510729Y-11598579D01*
X6510729Y-11598579D02*
X6510729Y-11617627D01*
X6510729Y-11617627D02*
X6501205Y-11646198D01*
X6501205Y-11646198D02*
X6386920Y-11760484D01*
X6386920Y-11760484D02*
X6510729Y-11760484D01*
X6634539Y-11560484D02*
X6653586Y-11560484D01*
X6653586Y-11560484D02*
X6672634Y-11570008D01*
X6672634Y-11570008D02*
X6682158Y-11579531D01*
X6682158Y-11579531D02*
X6691682Y-11598579D01*
X6691682Y-11598579D02*
X6701205Y-11636674D01*
X6701205Y-11636674D02*
X6701205Y-11684293D01*
X6701205Y-11684293D02*
X6691682Y-11722388D01*
X6691682Y-11722388D02*
X6682158Y-11741436D01*
X6682158Y-11741436D02*
X6672634Y-11750960D01*
X6672634Y-11750960D02*
X6653586Y-11760484D01*
X6653586Y-11760484D02*
X6634539Y-11760484D01*
X6634539Y-11760484D02*
X6615491Y-11750960D01*
X6615491Y-11750960D02*
X6605967Y-11741436D01*
X6605967Y-11741436D02*
X6596443Y-11722388D01*
X6596443Y-11722388D02*
X6586920Y-11684293D01*
X6586920Y-11684293D02*
X6586920Y-11636674D01*
X6586920Y-11636674D02*
X6596443Y-11598579D01*
X6596443Y-11598579D02*
X6605967Y-11579531D01*
X6605967Y-11579531D02*
X6615491Y-11570008D01*
X6615491Y-11570008D02*
X6634539Y-11560484D01*
X6786920Y-11760484D02*
X6786920Y-11627150D01*
X6786920Y-11646198D02*
X6796443Y-11636674D01*
X6796443Y-11636674D02*
X6815491Y-11627150D01*
X6815491Y-11627150D02*
X6844063Y-11627150D01*
X6844063Y-11627150D02*
X6863110Y-11636674D01*
X6863110Y-11636674D02*
X6872634Y-11655722D01*
X6872634Y-11655722D02*
X6872634Y-11760484D01*
X6872634Y-11655722D02*
X6882158Y-11636674D01*
X6882158Y-11636674D02*
X6901205Y-11627150D01*
X6901205Y-11627150D02*
X6929777Y-11627150D01*
X6929777Y-11627150D02*
X6948824Y-11636674D01*
X6948824Y-11636674D02*
X6958348Y-11655722D01*
X6958348Y-11655722D02*
X6958348Y-11760484D01*
X7053586Y-11760484D02*
X7053586Y-11627150D01*
X7053586Y-11646198D02*
X7063110Y-11636674D01*
X7063110Y-11636674D02*
X7082158Y-11627150D01*
X7082158Y-11627150D02*
X7110729Y-11627150D01*
X7110729Y-11627150D02*
X7129777Y-11636674D01*
X7129777Y-11636674D02*
X7139301Y-11655722D01*
X7139301Y-11655722D02*
X7139301Y-11760484D01*
X7139301Y-11655722D02*
X7148824Y-11636674D01*
X7148824Y-11636674D02*
X7167872Y-11627150D01*
X7167872Y-11627150D02*
X7196443Y-11627150D01*
X7196443Y-11627150D02*
X7215491Y-11636674D01*
X7215491Y-11636674D02*
X7225015Y-11655722D01*
X7225015Y-11655722D02*
X7225015Y-11760484D01*
X7615491Y-11550960D02*
X7444063Y-11808103D01*
X7872634Y-11560484D02*
X7891682Y-11560484D01*
X7891682Y-11560484D02*
X7910729Y-11570008D01*
X7910729Y-11570008D02*
X7920253Y-11579531D01*
X7920253Y-11579531D02*
X7929777Y-11598579D01*
X7929777Y-11598579D02*
X7939301Y-11636674D01*
X7939301Y-11636674D02*
X7939301Y-11684293D01*
X7939301Y-11684293D02*
X7929777Y-11722388D01*
X7929777Y-11722388D02*
X7920253Y-11741436D01*
X7920253Y-11741436D02*
X7910729Y-11750960D01*
X7910729Y-11750960D02*
X7891682Y-11760484D01*
X7891682Y-11760484D02*
X7872634Y-11760484D01*
X7872634Y-11760484D02*
X7853586Y-11750960D01*
X7853586Y-11750960D02*
X7844063Y-11741436D01*
X7844063Y-11741436D02*
X7834539Y-11722388D01*
X7834539Y-11722388D02*
X7825015Y-11684293D01*
X7825015Y-11684293D02*
X7825015Y-11636674D01*
X7825015Y-11636674D02*
X7834539Y-11598579D01*
X7834539Y-11598579D02*
X7844063Y-11579531D01*
X7844063Y-11579531D02*
X7853586Y-11570008D01*
X7853586Y-11570008D02*
X7872634Y-11560484D01*
X8025015Y-11741436D02*
X8034539Y-11750960D01*
X8034539Y-11750960D02*
X8025015Y-11760484D01*
X8025015Y-11760484D02*
X8015491Y-11750960D01*
X8015491Y-11750960D02*
X8025015Y-11741436D01*
X8025015Y-11741436D02*
X8025015Y-11760484D01*
X8158348Y-11560484D02*
X8177396Y-11560484D01*
X8177396Y-11560484D02*
X8196444Y-11570008D01*
X8196444Y-11570008D02*
X8205967Y-11579531D01*
X8205967Y-11579531D02*
X8215491Y-11598579D01*
X8215491Y-11598579D02*
X8225015Y-11636674D01*
X8225015Y-11636674D02*
X8225015Y-11684293D01*
X8225015Y-11684293D02*
X8215491Y-11722388D01*
X8215491Y-11722388D02*
X8205967Y-11741436D01*
X8205967Y-11741436D02*
X8196444Y-11750960D01*
X8196444Y-11750960D02*
X8177396Y-11760484D01*
X8177396Y-11760484D02*
X8158348Y-11760484D01*
X8158348Y-11760484D02*
X8139301Y-11750960D01*
X8139301Y-11750960D02*
X8129777Y-11741436D01*
X8129777Y-11741436D02*
X8120253Y-11722388D01*
X8120253Y-11722388D02*
X8110729Y-11684293D01*
X8110729Y-11684293D02*
X8110729Y-11636674D01*
X8110729Y-11636674D02*
X8120253Y-11598579D01*
X8120253Y-11598579D02*
X8129777Y-11579531D01*
X8129777Y-11579531D02*
X8139301Y-11570008D01*
X8139301Y-11570008D02*
X8158348Y-11560484D01*
X8396444Y-11627150D02*
X8396444Y-11760484D01*
X8348825Y-11550960D02*
X8301206Y-11693817D01*
X8301206Y-11693817D02*
X8425015Y-11693817D01*
X8539301Y-11560484D02*
X8558349Y-11560484D01*
X8558349Y-11560484D02*
X8577396Y-11570008D01*
X8577396Y-11570008D02*
X8586920Y-11579531D01*
X8586920Y-11579531D02*
X8596444Y-11598579D01*
X8596444Y-11598579D02*
X8605968Y-11636674D01*
X8605968Y-11636674D02*
X8605968Y-11684293D01*
X8605968Y-11684293D02*
X8596444Y-11722388D01*
X8596444Y-11722388D02*
X8586920Y-11741436D01*
X8586920Y-11741436D02*
X8577396Y-11750960D01*
X8577396Y-11750960D02*
X8558349Y-11760484D01*
X8558349Y-11760484D02*
X8539301Y-11760484D01*
X8539301Y-11760484D02*
X8520253Y-11750960D01*
X8520253Y-11750960D02*
X8510729Y-11741436D01*
X8510729Y-11741436D02*
X8501206Y-11722388D01*
X8501206Y-11722388D02*
X8491682Y-11684293D01*
X8491682Y-11684293D02*
X8491682Y-11636674D01*
X8491682Y-11636674D02*
X8501206Y-11598579D01*
X8501206Y-11598579D02*
X8510729Y-11579531D01*
X8510729Y-11579531D02*
X8520253Y-11570008D01*
X8520253Y-11570008D02*
X8539301Y-11560484D01*
X8682158Y-11579531D02*
X8691682Y-11570008D01*
X8691682Y-11570008D02*
X8710729Y-11560484D01*
X8710729Y-11560484D02*
X8758349Y-11560484D01*
X8758349Y-11560484D02*
X8777396Y-11570008D01*
X8777396Y-11570008D02*
X8786920Y-11579531D01*
X8786920Y-11579531D02*
X8796444Y-11598579D01*
X8796444Y-11598579D02*
X8796444Y-11617627D01*
X8796444Y-11617627D02*
X8786920Y-11646198D01*
X8786920Y-11646198D02*
X8672634Y-11760484D01*
X8672634Y-11760484D02*
X8796444Y-11760484D01*
X8872634Y-11560484D02*
X8872634Y-11598579D01*
X8948825Y-11560484D02*
X8948825Y-11598579D01*
X9244063Y-11836674D02*
X9234539Y-11827150D01*
X9234539Y-11827150D02*
X9215491Y-11798579D01*
X9215491Y-11798579D02*
X9205968Y-11779531D01*
X9205968Y-11779531D02*
X9196444Y-11750960D01*
X9196444Y-11750960D02*
X9186920Y-11703341D01*
X9186920Y-11703341D02*
X9186920Y-11665246D01*
X9186920Y-11665246D02*
X9196444Y-11617627D01*
X9196444Y-11617627D02*
X9205968Y-11589055D01*
X9205968Y-11589055D02*
X9215491Y-11570008D01*
X9215491Y-11570008D02*
X9234539Y-11541436D01*
X9234539Y-11541436D02*
X9244063Y-11531912D01*
X9405968Y-11560484D02*
X9367872Y-11560484D01*
X9367872Y-11560484D02*
X9348825Y-11570008D01*
X9348825Y-11570008D02*
X9339301Y-11579531D01*
X9339301Y-11579531D02*
X9320253Y-11608103D01*
X9320253Y-11608103D02*
X9310730Y-11646198D01*
X9310730Y-11646198D02*
X9310730Y-11722388D01*
X9310730Y-11722388D02*
X9320253Y-11741436D01*
X9320253Y-11741436D02*
X9329777Y-11750960D01*
X9329777Y-11750960D02*
X9348825Y-11760484D01*
X9348825Y-11760484D02*
X9386920Y-11760484D01*
X9386920Y-11760484D02*
X9405968Y-11750960D01*
X9405968Y-11750960D02*
X9415491Y-11741436D01*
X9415491Y-11741436D02*
X9425015Y-11722388D01*
X9425015Y-11722388D02*
X9425015Y-11674769D01*
X9425015Y-11674769D02*
X9415491Y-11655722D01*
X9415491Y-11655722D02*
X9405968Y-11646198D01*
X9405968Y-11646198D02*
X9386920Y-11636674D01*
X9386920Y-11636674D02*
X9348825Y-11636674D01*
X9348825Y-11636674D02*
X9329777Y-11646198D01*
X9329777Y-11646198D02*
X9320253Y-11655722D01*
X9320253Y-11655722D02*
X9310730Y-11674769D01*
X9663111Y-11760484D02*
X9663111Y-11560484D01*
X9748825Y-11760484D02*
X9748825Y-11655722D01*
X9748825Y-11655722D02*
X9739301Y-11636674D01*
X9739301Y-11636674D02*
X9720253Y-11627150D01*
X9720253Y-11627150D02*
X9691682Y-11627150D01*
X9691682Y-11627150D02*
X9672634Y-11636674D01*
X9672634Y-11636674D02*
X9663111Y-11646198D01*
X9872634Y-11760484D02*
X9853587Y-11750960D01*
X9853587Y-11750960D02*
X9844063Y-11741436D01*
X9844063Y-11741436D02*
X9834539Y-11722388D01*
X9834539Y-11722388D02*
X9834539Y-11665246D01*
X9834539Y-11665246D02*
X9844063Y-11646198D01*
X9844063Y-11646198D02*
X9853587Y-11636674D01*
X9853587Y-11636674D02*
X9872634Y-11627150D01*
X9872634Y-11627150D02*
X9901206Y-11627150D01*
X9901206Y-11627150D02*
X9920253Y-11636674D01*
X9920253Y-11636674D02*
X9929777Y-11646198D01*
X9929777Y-11646198D02*
X9939301Y-11665246D01*
X9939301Y-11665246D02*
X9939301Y-11722388D01*
X9939301Y-11722388D02*
X9929777Y-11741436D01*
X9929777Y-11741436D02*
X9920253Y-11750960D01*
X9920253Y-11750960D02*
X9901206Y-11760484D01*
X9901206Y-11760484D02*
X9872634Y-11760484D01*
X10053587Y-11760484D02*
X10034539Y-11750960D01*
X10034539Y-11750960D02*
X10025015Y-11731912D01*
X10025015Y-11731912D02*
X10025015Y-11560484D01*
X10205968Y-11750960D02*
X10186920Y-11760484D01*
X10186920Y-11760484D02*
X10148825Y-11760484D01*
X10148825Y-11760484D02*
X10129777Y-11750960D01*
X10129777Y-11750960D02*
X10120253Y-11731912D01*
X10120253Y-11731912D02*
X10120253Y-11655722D01*
X10120253Y-11655722D02*
X10129777Y-11636674D01*
X10129777Y-11636674D02*
X10148825Y-11627150D01*
X10148825Y-11627150D02*
X10186920Y-11627150D01*
X10186920Y-11627150D02*
X10205968Y-11636674D01*
X10205968Y-11636674D02*
X10215492Y-11655722D01*
X10215492Y-11655722D02*
X10215492Y-11674769D01*
X10215492Y-11674769D02*
X10120253Y-11693817D01*
X10291682Y-11750960D02*
X10310730Y-11760484D01*
X10310730Y-11760484D02*
X10348825Y-11760484D01*
X10348825Y-11760484D02*
X10367873Y-11750960D01*
X10367873Y-11750960D02*
X10377396Y-11731912D01*
X10377396Y-11731912D02*
X10377396Y-11722388D01*
X10377396Y-11722388D02*
X10367873Y-11703341D01*
X10367873Y-11703341D02*
X10348825Y-11693817D01*
X10348825Y-11693817D02*
X10320253Y-11693817D01*
X10320253Y-11693817D02*
X10301206Y-11684293D01*
X10301206Y-11684293D02*
X10291682Y-11665246D01*
X10291682Y-11665246D02*
X10291682Y-11655722D01*
X10291682Y-11655722D02*
X10301206Y-11636674D01*
X10301206Y-11636674D02*
X10320253Y-11627150D01*
X10320253Y-11627150D02*
X10348825Y-11627150D01*
X10348825Y-11627150D02*
X10367873Y-11636674D01*
X10444063Y-11836674D02*
X10453587Y-11827150D01*
X10453587Y-11827150D02*
X10472634Y-11798579D01*
X10472634Y-11798579D02*
X10482158Y-11779531D01*
X10482158Y-11779531D02*
X10491682Y-11750960D01*
X10491682Y-11750960D02*
X10501206Y-11703341D01*
X10501206Y-11703341D02*
X10501206Y-11665246D01*
X10501206Y-11665246D02*
X10491682Y-11617627D01*
X10491682Y-11617627D02*
X10482158Y-11589055D01*
X10482158Y-11589055D02*
X10472634Y-11570008D01*
X10472634Y-11570008D02*
X10453587Y-11541436D01*
X10453587Y-11541436D02*
X10444063Y-11531912D01*
D15*
X5512000Y-11854500D02*
X5669000Y-12011500D01*
X5669000Y-11854500D02*
X5512000Y-12011500D01*
X5590500Y-11854500D02*
X5590500Y-12011500D01*
X5512000Y-11933000D02*
X5669000Y-11933000D01*
D11*
X6034539Y-12024484D02*
X5920253Y-12024484D01*
X5977396Y-12024484D02*
X5977396Y-11824484D01*
X5977396Y-11824484D02*
X5958348Y-11853055D01*
X5958348Y-11853055D02*
X5939301Y-11872103D01*
X5939301Y-11872103D02*
X5920253Y-11881627D01*
X6120253Y-12005436D02*
X6129777Y-12014960D01*
X6129777Y-12014960D02*
X6120253Y-12024484D01*
X6120253Y-12024484D02*
X6110729Y-12014960D01*
X6110729Y-12014960D02*
X6120253Y-12005436D01*
X6120253Y-12005436D02*
X6120253Y-12024484D01*
X6310729Y-11824484D02*
X6215491Y-11824484D01*
X6215491Y-11824484D02*
X6205967Y-11919722D01*
X6205967Y-11919722D02*
X6215491Y-11910198D01*
X6215491Y-11910198D02*
X6234539Y-11900674D01*
X6234539Y-11900674D02*
X6282158Y-11900674D01*
X6282158Y-11900674D02*
X6301205Y-11910198D01*
X6301205Y-11910198D02*
X6310729Y-11919722D01*
X6310729Y-11919722D02*
X6320253Y-11938769D01*
X6320253Y-11938769D02*
X6320253Y-11986388D01*
X6320253Y-11986388D02*
X6310729Y-12005436D01*
X6310729Y-12005436D02*
X6301205Y-12014960D01*
X6301205Y-12014960D02*
X6282158Y-12024484D01*
X6282158Y-12024484D02*
X6234539Y-12024484D01*
X6234539Y-12024484D02*
X6215491Y-12014960D01*
X6215491Y-12014960D02*
X6205967Y-12005436D01*
X6386920Y-11824484D02*
X6520253Y-11824484D01*
X6520253Y-11824484D02*
X6434539Y-12024484D01*
X6634539Y-11824484D02*
X6653586Y-11824484D01*
X6653586Y-11824484D02*
X6672634Y-11834008D01*
X6672634Y-11834008D02*
X6682158Y-11843531D01*
X6682158Y-11843531D02*
X6691682Y-11862579D01*
X6691682Y-11862579D02*
X6701205Y-11900674D01*
X6701205Y-11900674D02*
X6701205Y-11948293D01*
X6701205Y-11948293D02*
X6691682Y-11986388D01*
X6691682Y-11986388D02*
X6682158Y-12005436D01*
X6682158Y-12005436D02*
X6672634Y-12014960D01*
X6672634Y-12014960D02*
X6653586Y-12024484D01*
X6653586Y-12024484D02*
X6634539Y-12024484D01*
X6634539Y-12024484D02*
X6615491Y-12014960D01*
X6615491Y-12014960D02*
X6605967Y-12005436D01*
X6605967Y-12005436D02*
X6596443Y-11986388D01*
X6596443Y-11986388D02*
X6586920Y-11948293D01*
X6586920Y-11948293D02*
X6586920Y-11900674D01*
X6586920Y-11900674D02*
X6596443Y-11862579D01*
X6596443Y-11862579D02*
X6605967Y-11843531D01*
X6605967Y-11843531D02*
X6615491Y-11834008D01*
X6615491Y-11834008D02*
X6634539Y-11824484D01*
X6786920Y-12024484D02*
X6786920Y-11891150D01*
X6786920Y-11910198D02*
X6796443Y-11900674D01*
X6796443Y-11900674D02*
X6815491Y-11891150D01*
X6815491Y-11891150D02*
X6844063Y-11891150D01*
X6844063Y-11891150D02*
X6863110Y-11900674D01*
X6863110Y-11900674D02*
X6872634Y-11919722D01*
X6872634Y-11919722D02*
X6872634Y-12024484D01*
X6872634Y-11919722D02*
X6882158Y-11900674D01*
X6882158Y-11900674D02*
X6901205Y-11891150D01*
X6901205Y-11891150D02*
X6929777Y-11891150D01*
X6929777Y-11891150D02*
X6948824Y-11900674D01*
X6948824Y-11900674D02*
X6958348Y-11919722D01*
X6958348Y-11919722D02*
X6958348Y-12024484D01*
X7053586Y-12024484D02*
X7053586Y-11891150D01*
X7053586Y-11910198D02*
X7063110Y-11900674D01*
X7063110Y-11900674D02*
X7082158Y-11891150D01*
X7082158Y-11891150D02*
X7110729Y-11891150D01*
X7110729Y-11891150D02*
X7129777Y-11900674D01*
X7129777Y-11900674D02*
X7139301Y-11919722D01*
X7139301Y-11919722D02*
X7139301Y-12024484D01*
X7139301Y-11919722D02*
X7148824Y-11900674D01*
X7148824Y-11900674D02*
X7167872Y-11891150D01*
X7167872Y-11891150D02*
X7196443Y-11891150D01*
X7196443Y-11891150D02*
X7215491Y-11900674D01*
X7215491Y-11900674D02*
X7225015Y-11919722D01*
X7225015Y-11919722D02*
X7225015Y-12024484D01*
X7615491Y-11814960D02*
X7444063Y-12072103D01*
X7872634Y-11824484D02*
X7891682Y-11824484D01*
X7891682Y-11824484D02*
X7910729Y-11834008D01*
X7910729Y-11834008D02*
X7920253Y-11843531D01*
X7920253Y-11843531D02*
X7929777Y-11862579D01*
X7929777Y-11862579D02*
X7939301Y-11900674D01*
X7939301Y-11900674D02*
X7939301Y-11948293D01*
X7939301Y-11948293D02*
X7929777Y-11986388D01*
X7929777Y-11986388D02*
X7920253Y-12005436D01*
X7920253Y-12005436D02*
X7910729Y-12014960D01*
X7910729Y-12014960D02*
X7891682Y-12024484D01*
X7891682Y-12024484D02*
X7872634Y-12024484D01*
X7872634Y-12024484D02*
X7853586Y-12014960D01*
X7853586Y-12014960D02*
X7844063Y-12005436D01*
X7844063Y-12005436D02*
X7834539Y-11986388D01*
X7834539Y-11986388D02*
X7825015Y-11948293D01*
X7825015Y-11948293D02*
X7825015Y-11900674D01*
X7825015Y-11900674D02*
X7834539Y-11862579D01*
X7834539Y-11862579D02*
X7844063Y-11843531D01*
X7844063Y-11843531D02*
X7853586Y-11834008D01*
X7853586Y-11834008D02*
X7872634Y-11824484D01*
X8025015Y-12005436D02*
X8034539Y-12014960D01*
X8034539Y-12014960D02*
X8025015Y-12024484D01*
X8025015Y-12024484D02*
X8015491Y-12014960D01*
X8015491Y-12014960D02*
X8025015Y-12005436D01*
X8025015Y-12005436D02*
X8025015Y-12024484D01*
X8158348Y-11824484D02*
X8177396Y-11824484D01*
X8177396Y-11824484D02*
X8196444Y-11834008D01*
X8196444Y-11834008D02*
X8205967Y-11843531D01*
X8205967Y-11843531D02*
X8215491Y-11862579D01*
X8215491Y-11862579D02*
X8225015Y-11900674D01*
X8225015Y-11900674D02*
X8225015Y-11948293D01*
X8225015Y-11948293D02*
X8215491Y-11986388D01*
X8215491Y-11986388D02*
X8205967Y-12005436D01*
X8205967Y-12005436D02*
X8196444Y-12014960D01*
X8196444Y-12014960D02*
X8177396Y-12024484D01*
X8177396Y-12024484D02*
X8158348Y-12024484D01*
X8158348Y-12024484D02*
X8139301Y-12014960D01*
X8139301Y-12014960D02*
X8129777Y-12005436D01*
X8129777Y-12005436D02*
X8120253Y-11986388D01*
X8120253Y-11986388D02*
X8110729Y-11948293D01*
X8110729Y-11948293D02*
X8110729Y-11900674D01*
X8110729Y-11900674D02*
X8120253Y-11862579D01*
X8120253Y-11862579D02*
X8129777Y-11843531D01*
X8129777Y-11843531D02*
X8139301Y-11834008D01*
X8139301Y-11834008D02*
X8158348Y-11824484D01*
X8396444Y-11824484D02*
X8358348Y-11824484D01*
X8358348Y-11824484D02*
X8339301Y-11834008D01*
X8339301Y-11834008D02*
X8329777Y-11843531D01*
X8329777Y-11843531D02*
X8310729Y-11872103D01*
X8310729Y-11872103D02*
X8301206Y-11910198D01*
X8301206Y-11910198D02*
X8301206Y-11986388D01*
X8301206Y-11986388D02*
X8310729Y-12005436D01*
X8310729Y-12005436D02*
X8320253Y-12014960D01*
X8320253Y-12014960D02*
X8339301Y-12024484D01*
X8339301Y-12024484D02*
X8377396Y-12024484D01*
X8377396Y-12024484D02*
X8396444Y-12014960D01*
X8396444Y-12014960D02*
X8405968Y-12005436D01*
X8405968Y-12005436D02*
X8415491Y-11986388D01*
X8415491Y-11986388D02*
X8415491Y-11938769D01*
X8415491Y-11938769D02*
X8405968Y-11919722D01*
X8405968Y-11919722D02*
X8396444Y-11910198D01*
X8396444Y-11910198D02*
X8377396Y-11900674D01*
X8377396Y-11900674D02*
X8339301Y-11900674D01*
X8339301Y-11900674D02*
X8320253Y-11910198D01*
X8320253Y-11910198D02*
X8310729Y-11919722D01*
X8310729Y-11919722D02*
X8301206Y-11938769D01*
X8605968Y-12024484D02*
X8491682Y-12024484D01*
X8548825Y-12024484D02*
X8548825Y-11824484D01*
X8548825Y-11824484D02*
X8529777Y-11853055D01*
X8529777Y-11853055D02*
X8510729Y-11872103D01*
X8510729Y-11872103D02*
X8491682Y-11881627D01*
X8720253Y-11910198D02*
X8701206Y-11900674D01*
X8701206Y-11900674D02*
X8691682Y-11891150D01*
X8691682Y-11891150D02*
X8682158Y-11872103D01*
X8682158Y-11872103D02*
X8682158Y-11862579D01*
X8682158Y-11862579D02*
X8691682Y-11843531D01*
X8691682Y-11843531D02*
X8701206Y-11834008D01*
X8701206Y-11834008D02*
X8720253Y-11824484D01*
X8720253Y-11824484D02*
X8758349Y-11824484D01*
X8758349Y-11824484D02*
X8777396Y-11834008D01*
X8777396Y-11834008D02*
X8786920Y-11843531D01*
X8786920Y-11843531D02*
X8796444Y-11862579D01*
X8796444Y-11862579D02*
X8796444Y-11872103D01*
X8796444Y-11872103D02*
X8786920Y-11891150D01*
X8786920Y-11891150D02*
X8777396Y-11900674D01*
X8777396Y-11900674D02*
X8758349Y-11910198D01*
X8758349Y-11910198D02*
X8720253Y-11910198D01*
X8720253Y-11910198D02*
X8701206Y-11919722D01*
X8701206Y-11919722D02*
X8691682Y-11929246D01*
X8691682Y-11929246D02*
X8682158Y-11948293D01*
X8682158Y-11948293D02*
X8682158Y-11986388D01*
X8682158Y-11986388D02*
X8691682Y-12005436D01*
X8691682Y-12005436D02*
X8701206Y-12014960D01*
X8701206Y-12014960D02*
X8720253Y-12024484D01*
X8720253Y-12024484D02*
X8758349Y-12024484D01*
X8758349Y-12024484D02*
X8777396Y-12014960D01*
X8777396Y-12014960D02*
X8786920Y-12005436D01*
X8786920Y-12005436D02*
X8796444Y-11986388D01*
X8796444Y-11986388D02*
X8796444Y-11948293D01*
X8796444Y-11948293D02*
X8786920Y-11929246D01*
X8786920Y-11929246D02*
X8777396Y-11919722D01*
X8777396Y-11919722D02*
X8758349Y-11910198D01*
X8872634Y-11824484D02*
X8872634Y-11862579D01*
X8948825Y-11824484D02*
X8948825Y-11862579D01*
X9244063Y-12100674D02*
X9234539Y-12091150D01*
X9234539Y-12091150D02*
X9215491Y-12062579D01*
X9215491Y-12062579D02*
X9205968Y-12043531D01*
X9205968Y-12043531D02*
X9196444Y-12014960D01*
X9196444Y-12014960D02*
X9186920Y-11967341D01*
X9186920Y-11967341D02*
X9186920Y-11929246D01*
X9186920Y-11929246D02*
X9196444Y-11881627D01*
X9196444Y-11881627D02*
X9205968Y-11853055D01*
X9205968Y-11853055D02*
X9215491Y-11834008D01*
X9215491Y-11834008D02*
X9234539Y-11805436D01*
X9234539Y-11805436D02*
X9244063Y-11795912D01*
X9310730Y-11843531D02*
X9320253Y-11834008D01*
X9320253Y-11834008D02*
X9339301Y-11824484D01*
X9339301Y-11824484D02*
X9386920Y-11824484D01*
X9386920Y-11824484D02*
X9405968Y-11834008D01*
X9405968Y-11834008D02*
X9415491Y-11843531D01*
X9415491Y-11843531D02*
X9425015Y-11862579D01*
X9425015Y-11862579D02*
X9425015Y-11881627D01*
X9425015Y-11881627D02*
X9415491Y-11910198D01*
X9415491Y-11910198D02*
X9301206Y-12024484D01*
X9301206Y-12024484D02*
X9425015Y-12024484D01*
X9663111Y-12024484D02*
X9663111Y-11824484D01*
X9748825Y-12024484D02*
X9748825Y-11919722D01*
X9748825Y-11919722D02*
X9739301Y-11900674D01*
X9739301Y-11900674D02*
X9720253Y-11891150D01*
X9720253Y-11891150D02*
X9691682Y-11891150D01*
X9691682Y-11891150D02*
X9672634Y-11900674D01*
X9672634Y-11900674D02*
X9663111Y-11910198D01*
X9872634Y-12024484D02*
X9853587Y-12014960D01*
X9853587Y-12014960D02*
X9844063Y-12005436D01*
X9844063Y-12005436D02*
X9834539Y-11986388D01*
X9834539Y-11986388D02*
X9834539Y-11929246D01*
X9834539Y-11929246D02*
X9844063Y-11910198D01*
X9844063Y-11910198D02*
X9853587Y-11900674D01*
X9853587Y-11900674D02*
X9872634Y-11891150D01*
X9872634Y-11891150D02*
X9901206Y-11891150D01*
X9901206Y-11891150D02*
X9920253Y-11900674D01*
X9920253Y-11900674D02*
X9929777Y-11910198D01*
X9929777Y-11910198D02*
X9939301Y-11929246D01*
X9939301Y-11929246D02*
X9939301Y-11986388D01*
X9939301Y-11986388D02*
X9929777Y-12005436D01*
X9929777Y-12005436D02*
X9920253Y-12014960D01*
X9920253Y-12014960D02*
X9901206Y-12024484D01*
X9901206Y-12024484D02*
X9872634Y-12024484D01*
X10053587Y-12024484D02*
X10034539Y-12014960D01*
X10034539Y-12014960D02*
X10025015Y-11995912D01*
X10025015Y-11995912D02*
X10025015Y-11824484D01*
X10205968Y-12014960D02*
X10186920Y-12024484D01*
X10186920Y-12024484D02*
X10148825Y-12024484D01*
X10148825Y-12024484D02*
X10129777Y-12014960D01*
X10129777Y-12014960D02*
X10120253Y-11995912D01*
X10120253Y-11995912D02*
X10120253Y-11919722D01*
X10120253Y-11919722D02*
X10129777Y-11900674D01*
X10129777Y-11900674D02*
X10148825Y-11891150D01*
X10148825Y-11891150D02*
X10186920Y-11891150D01*
X10186920Y-11891150D02*
X10205968Y-11900674D01*
X10205968Y-11900674D02*
X10215492Y-11919722D01*
X10215492Y-11919722D02*
X10215492Y-11938769D01*
X10215492Y-11938769D02*
X10120253Y-11957817D01*
X10291682Y-12014960D02*
X10310730Y-12024484D01*
X10310730Y-12024484D02*
X10348825Y-12024484D01*
X10348825Y-12024484D02*
X10367873Y-12014960D01*
X10367873Y-12014960D02*
X10377396Y-11995912D01*
X10377396Y-11995912D02*
X10377396Y-11986388D01*
X10377396Y-11986388D02*
X10367873Y-11967341D01*
X10367873Y-11967341D02*
X10348825Y-11957817D01*
X10348825Y-11957817D02*
X10320253Y-11957817D01*
X10320253Y-11957817D02*
X10301206Y-11948293D01*
X10301206Y-11948293D02*
X10291682Y-11929246D01*
X10291682Y-11929246D02*
X10291682Y-11919722D01*
X10291682Y-11919722D02*
X10301206Y-11900674D01*
X10301206Y-11900674D02*
X10320253Y-11891150D01*
X10320253Y-11891150D02*
X10348825Y-11891150D01*
X10348825Y-11891150D02*
X10367873Y-11900674D01*
X10444063Y-12100674D02*
X10453587Y-12091150D01*
X10453587Y-12091150D02*
X10472634Y-12062579D01*
X10472634Y-12062579D02*
X10482158Y-12043531D01*
X10482158Y-12043531D02*
X10491682Y-12014960D01*
X10491682Y-12014960D02*
X10501206Y-11967341D01*
X10501206Y-11967341D02*
X10501206Y-11929246D01*
X10501206Y-11929246D02*
X10491682Y-11881627D01*
X10491682Y-11881627D02*
X10482158Y-11853055D01*
X10482158Y-11853055D02*
X10472634Y-11834008D01*
X10472634Y-11834008D02*
X10453587Y-11805436D01*
X10453587Y-11805436D02*
X10444063Y-11795912D01*
D16*
X5509000Y-12130000D02*
X5669000Y-12290000D01*
X5669000Y-12130000D02*
X5509000Y-12290000D01*
X5645569Y-12266569D02*
X5645569Y-12153431D01*
X5532431Y-12153431D01*
X5532431Y-12266569D01*
X5645569Y-12266569D01*
D11*
X6034539Y-12301484D02*
X5920253Y-12301484D01*
X5977396Y-12301484D02*
X5977396Y-12101484D01*
X5977396Y-12101484D02*
X5958348Y-12130055D01*
X5958348Y-12130055D02*
X5939301Y-12149103D01*
X5939301Y-12149103D02*
X5920253Y-12158627D01*
X6120253Y-12282436D02*
X6129777Y-12291960D01*
X6129777Y-12291960D02*
X6120253Y-12301484D01*
X6120253Y-12301484D02*
X6110729Y-12291960D01*
X6110729Y-12291960D02*
X6120253Y-12282436D01*
X6120253Y-12282436D02*
X6120253Y-12301484D01*
X6301205Y-12101484D02*
X6263110Y-12101484D01*
X6263110Y-12101484D02*
X6244062Y-12111008D01*
X6244062Y-12111008D02*
X6234539Y-12120531D01*
X6234539Y-12120531D02*
X6215491Y-12149103D01*
X6215491Y-12149103D02*
X6205967Y-12187198D01*
X6205967Y-12187198D02*
X6205967Y-12263388D01*
X6205967Y-12263388D02*
X6215491Y-12282436D01*
X6215491Y-12282436D02*
X6225015Y-12291960D01*
X6225015Y-12291960D02*
X6244062Y-12301484D01*
X6244062Y-12301484D02*
X6282158Y-12301484D01*
X6282158Y-12301484D02*
X6301205Y-12291960D01*
X6301205Y-12291960D02*
X6310729Y-12282436D01*
X6310729Y-12282436D02*
X6320253Y-12263388D01*
X6320253Y-12263388D02*
X6320253Y-12215769D01*
X6320253Y-12215769D02*
X6310729Y-12196722D01*
X6310729Y-12196722D02*
X6301205Y-12187198D01*
X6301205Y-12187198D02*
X6282158Y-12177674D01*
X6282158Y-12177674D02*
X6244062Y-12177674D01*
X6244062Y-12177674D02*
X6225015Y-12187198D01*
X6225015Y-12187198D02*
X6215491Y-12196722D01*
X6215491Y-12196722D02*
X6205967Y-12215769D01*
X6444062Y-12101484D02*
X6463110Y-12101484D01*
X6463110Y-12101484D02*
X6482158Y-12111008D01*
X6482158Y-12111008D02*
X6491682Y-12120531D01*
X6491682Y-12120531D02*
X6501205Y-12139579D01*
X6501205Y-12139579D02*
X6510729Y-12177674D01*
X6510729Y-12177674D02*
X6510729Y-12225293D01*
X6510729Y-12225293D02*
X6501205Y-12263388D01*
X6501205Y-12263388D02*
X6491682Y-12282436D01*
X6491682Y-12282436D02*
X6482158Y-12291960D01*
X6482158Y-12291960D02*
X6463110Y-12301484D01*
X6463110Y-12301484D02*
X6444062Y-12301484D01*
X6444062Y-12301484D02*
X6425015Y-12291960D01*
X6425015Y-12291960D02*
X6415491Y-12282436D01*
X6415491Y-12282436D02*
X6405967Y-12263388D01*
X6405967Y-12263388D02*
X6396443Y-12225293D01*
X6396443Y-12225293D02*
X6396443Y-12177674D01*
X6396443Y-12177674D02*
X6405967Y-12139579D01*
X6405967Y-12139579D02*
X6415491Y-12120531D01*
X6415491Y-12120531D02*
X6425015Y-12111008D01*
X6425015Y-12111008D02*
X6444062Y-12101484D01*
X6634539Y-12101484D02*
X6653586Y-12101484D01*
X6653586Y-12101484D02*
X6672634Y-12111008D01*
X6672634Y-12111008D02*
X6682158Y-12120531D01*
X6682158Y-12120531D02*
X6691682Y-12139579D01*
X6691682Y-12139579D02*
X6701205Y-12177674D01*
X6701205Y-12177674D02*
X6701205Y-12225293D01*
X6701205Y-12225293D02*
X6691682Y-12263388D01*
X6691682Y-12263388D02*
X6682158Y-12282436D01*
X6682158Y-12282436D02*
X6672634Y-12291960D01*
X6672634Y-12291960D02*
X6653586Y-12301484D01*
X6653586Y-12301484D02*
X6634539Y-12301484D01*
X6634539Y-12301484D02*
X6615491Y-12291960D01*
X6615491Y-12291960D02*
X6605967Y-12282436D01*
X6605967Y-12282436D02*
X6596443Y-12263388D01*
X6596443Y-12263388D02*
X6586920Y-12225293D01*
X6586920Y-12225293D02*
X6586920Y-12177674D01*
X6586920Y-12177674D02*
X6596443Y-12139579D01*
X6596443Y-12139579D02*
X6605967Y-12120531D01*
X6605967Y-12120531D02*
X6615491Y-12111008D01*
X6615491Y-12111008D02*
X6634539Y-12101484D01*
X6786920Y-12301484D02*
X6786920Y-12168150D01*
X6786920Y-12187198D02*
X6796443Y-12177674D01*
X6796443Y-12177674D02*
X6815491Y-12168150D01*
X6815491Y-12168150D02*
X6844063Y-12168150D01*
X6844063Y-12168150D02*
X6863110Y-12177674D01*
X6863110Y-12177674D02*
X6872634Y-12196722D01*
X6872634Y-12196722D02*
X6872634Y-12301484D01*
X6872634Y-12196722D02*
X6882158Y-12177674D01*
X6882158Y-12177674D02*
X6901205Y-12168150D01*
X6901205Y-12168150D02*
X6929777Y-12168150D01*
X6929777Y-12168150D02*
X6948824Y-12177674D01*
X6948824Y-12177674D02*
X6958348Y-12196722D01*
X6958348Y-12196722D02*
X6958348Y-12301484D01*
X7053586Y-12301484D02*
X7053586Y-12168150D01*
X7053586Y-12187198D02*
X7063110Y-12177674D01*
X7063110Y-12177674D02*
X7082158Y-12168150D01*
X7082158Y-12168150D02*
X7110729Y-12168150D01*
X7110729Y-12168150D02*
X7129777Y-12177674D01*
X7129777Y-12177674D02*
X7139301Y-12196722D01*
X7139301Y-12196722D02*
X7139301Y-12301484D01*
X7139301Y-12196722D02*
X7148824Y-12177674D01*
X7148824Y-12177674D02*
X7167872Y-12168150D01*
X7167872Y-12168150D02*
X7196443Y-12168150D01*
X7196443Y-12168150D02*
X7215491Y-12177674D01*
X7215491Y-12177674D02*
X7225015Y-12196722D01*
X7225015Y-12196722D02*
X7225015Y-12301484D01*
X7615491Y-12091960D02*
X7444063Y-12349103D01*
X7872634Y-12101484D02*
X7891682Y-12101484D01*
X7891682Y-12101484D02*
X7910729Y-12111008D01*
X7910729Y-12111008D02*
X7920253Y-12120531D01*
X7920253Y-12120531D02*
X7929777Y-12139579D01*
X7929777Y-12139579D02*
X7939301Y-12177674D01*
X7939301Y-12177674D02*
X7939301Y-12225293D01*
X7939301Y-12225293D02*
X7929777Y-12263388D01*
X7929777Y-12263388D02*
X7920253Y-12282436D01*
X7920253Y-12282436D02*
X7910729Y-12291960D01*
X7910729Y-12291960D02*
X7891682Y-12301484D01*
X7891682Y-12301484D02*
X7872634Y-12301484D01*
X7872634Y-12301484D02*
X7853586Y-12291960D01*
X7853586Y-12291960D02*
X7844063Y-12282436D01*
X7844063Y-12282436D02*
X7834539Y-12263388D01*
X7834539Y-12263388D02*
X7825015Y-12225293D01*
X7825015Y-12225293D02*
X7825015Y-12177674D01*
X7825015Y-12177674D02*
X7834539Y-12139579D01*
X7834539Y-12139579D02*
X7844063Y-12120531D01*
X7844063Y-12120531D02*
X7853586Y-12111008D01*
X7853586Y-12111008D02*
X7872634Y-12101484D01*
X8025015Y-12282436D02*
X8034539Y-12291960D01*
X8034539Y-12291960D02*
X8025015Y-12301484D01*
X8025015Y-12301484D02*
X8015491Y-12291960D01*
X8015491Y-12291960D02*
X8025015Y-12282436D01*
X8025015Y-12282436D02*
X8025015Y-12301484D01*
X8158348Y-12101484D02*
X8177396Y-12101484D01*
X8177396Y-12101484D02*
X8196444Y-12111008D01*
X8196444Y-12111008D02*
X8205967Y-12120531D01*
X8205967Y-12120531D02*
X8215491Y-12139579D01*
X8215491Y-12139579D02*
X8225015Y-12177674D01*
X8225015Y-12177674D02*
X8225015Y-12225293D01*
X8225015Y-12225293D02*
X8215491Y-12263388D01*
X8215491Y-12263388D02*
X8205967Y-12282436D01*
X8205967Y-12282436D02*
X8196444Y-12291960D01*
X8196444Y-12291960D02*
X8177396Y-12301484D01*
X8177396Y-12301484D02*
X8158348Y-12301484D01*
X8158348Y-12301484D02*
X8139301Y-12291960D01*
X8139301Y-12291960D02*
X8129777Y-12282436D01*
X8129777Y-12282436D02*
X8120253Y-12263388D01*
X8120253Y-12263388D02*
X8110729Y-12225293D01*
X8110729Y-12225293D02*
X8110729Y-12177674D01*
X8110729Y-12177674D02*
X8120253Y-12139579D01*
X8120253Y-12139579D02*
X8129777Y-12120531D01*
X8129777Y-12120531D02*
X8139301Y-12111008D01*
X8139301Y-12111008D02*
X8158348Y-12101484D01*
X8396444Y-12101484D02*
X8358348Y-12101484D01*
X8358348Y-12101484D02*
X8339301Y-12111008D01*
X8339301Y-12111008D02*
X8329777Y-12120531D01*
X8329777Y-12120531D02*
X8310729Y-12149103D01*
X8310729Y-12149103D02*
X8301206Y-12187198D01*
X8301206Y-12187198D02*
X8301206Y-12263388D01*
X8301206Y-12263388D02*
X8310729Y-12282436D01*
X8310729Y-12282436D02*
X8320253Y-12291960D01*
X8320253Y-12291960D02*
X8339301Y-12301484D01*
X8339301Y-12301484D02*
X8377396Y-12301484D01*
X8377396Y-12301484D02*
X8396444Y-12291960D01*
X8396444Y-12291960D02*
X8405968Y-12282436D01*
X8405968Y-12282436D02*
X8415491Y-12263388D01*
X8415491Y-12263388D02*
X8415491Y-12215769D01*
X8415491Y-12215769D02*
X8405968Y-12196722D01*
X8405968Y-12196722D02*
X8396444Y-12187198D01*
X8396444Y-12187198D02*
X8377396Y-12177674D01*
X8377396Y-12177674D02*
X8339301Y-12177674D01*
X8339301Y-12177674D02*
X8320253Y-12187198D01*
X8320253Y-12187198D02*
X8310729Y-12196722D01*
X8310729Y-12196722D02*
X8301206Y-12215769D01*
X8482158Y-12101484D02*
X8605968Y-12101484D01*
X8605968Y-12101484D02*
X8539301Y-12177674D01*
X8539301Y-12177674D02*
X8567872Y-12177674D01*
X8567872Y-12177674D02*
X8586920Y-12187198D01*
X8586920Y-12187198D02*
X8596444Y-12196722D01*
X8596444Y-12196722D02*
X8605968Y-12215769D01*
X8605968Y-12215769D02*
X8605968Y-12263388D01*
X8605968Y-12263388D02*
X8596444Y-12282436D01*
X8596444Y-12282436D02*
X8586920Y-12291960D01*
X8586920Y-12291960D02*
X8567872Y-12301484D01*
X8567872Y-12301484D02*
X8510729Y-12301484D01*
X8510729Y-12301484D02*
X8491682Y-12291960D01*
X8491682Y-12291960D02*
X8482158Y-12282436D01*
X8729777Y-12101484D02*
X8748825Y-12101484D01*
X8748825Y-12101484D02*
X8767872Y-12111008D01*
X8767872Y-12111008D02*
X8777396Y-12120531D01*
X8777396Y-12120531D02*
X8786920Y-12139579D01*
X8786920Y-12139579D02*
X8796444Y-12177674D01*
X8796444Y-12177674D02*
X8796444Y-12225293D01*
X8796444Y-12225293D02*
X8786920Y-12263388D01*
X8786920Y-12263388D02*
X8777396Y-12282436D01*
X8777396Y-12282436D02*
X8767872Y-12291960D01*
X8767872Y-12291960D02*
X8748825Y-12301484D01*
X8748825Y-12301484D02*
X8729777Y-12301484D01*
X8729777Y-12301484D02*
X8710729Y-12291960D01*
X8710729Y-12291960D02*
X8701206Y-12282436D01*
X8701206Y-12282436D02*
X8691682Y-12263388D01*
X8691682Y-12263388D02*
X8682158Y-12225293D01*
X8682158Y-12225293D02*
X8682158Y-12177674D01*
X8682158Y-12177674D02*
X8691682Y-12139579D01*
X8691682Y-12139579D02*
X8701206Y-12120531D01*
X8701206Y-12120531D02*
X8710729Y-12111008D01*
X8710729Y-12111008D02*
X8729777Y-12101484D01*
X8872634Y-12101484D02*
X8872634Y-12139579D01*
X8948825Y-12101484D02*
X8948825Y-12139579D01*
X9244063Y-12377674D02*
X9234539Y-12368150D01*
X9234539Y-12368150D02*
X9215491Y-12339579D01*
X9215491Y-12339579D02*
X9205968Y-12320531D01*
X9205968Y-12320531D02*
X9196444Y-12291960D01*
X9196444Y-12291960D02*
X9186920Y-12244341D01*
X9186920Y-12244341D02*
X9186920Y-12206246D01*
X9186920Y-12206246D02*
X9196444Y-12158627D01*
X9196444Y-12158627D02*
X9205968Y-12130055D01*
X9205968Y-12130055D02*
X9215491Y-12111008D01*
X9215491Y-12111008D02*
X9234539Y-12082436D01*
X9234539Y-12082436D02*
X9244063Y-12072912D01*
X9310730Y-12120531D02*
X9320253Y-12111008D01*
X9320253Y-12111008D02*
X9339301Y-12101484D01*
X9339301Y-12101484D02*
X9386920Y-12101484D01*
X9386920Y-12101484D02*
X9405968Y-12111008D01*
X9405968Y-12111008D02*
X9415491Y-12120531D01*
X9415491Y-12120531D02*
X9425015Y-12139579D01*
X9425015Y-12139579D02*
X9425015Y-12158627D01*
X9425015Y-12158627D02*
X9415491Y-12187198D01*
X9415491Y-12187198D02*
X9301206Y-12301484D01*
X9301206Y-12301484D02*
X9425015Y-12301484D01*
X9663111Y-12301484D02*
X9663111Y-12101484D01*
X9748825Y-12301484D02*
X9748825Y-12196722D01*
X9748825Y-12196722D02*
X9739301Y-12177674D01*
X9739301Y-12177674D02*
X9720253Y-12168150D01*
X9720253Y-12168150D02*
X9691682Y-12168150D01*
X9691682Y-12168150D02*
X9672634Y-12177674D01*
X9672634Y-12177674D02*
X9663111Y-12187198D01*
X9872634Y-12301484D02*
X9853587Y-12291960D01*
X9853587Y-12291960D02*
X9844063Y-12282436D01*
X9844063Y-12282436D02*
X9834539Y-12263388D01*
X9834539Y-12263388D02*
X9834539Y-12206246D01*
X9834539Y-12206246D02*
X9844063Y-12187198D01*
X9844063Y-12187198D02*
X9853587Y-12177674D01*
X9853587Y-12177674D02*
X9872634Y-12168150D01*
X9872634Y-12168150D02*
X9901206Y-12168150D01*
X9901206Y-12168150D02*
X9920253Y-12177674D01*
X9920253Y-12177674D02*
X9929777Y-12187198D01*
X9929777Y-12187198D02*
X9939301Y-12206246D01*
X9939301Y-12206246D02*
X9939301Y-12263388D01*
X9939301Y-12263388D02*
X9929777Y-12282436D01*
X9929777Y-12282436D02*
X9920253Y-12291960D01*
X9920253Y-12291960D02*
X9901206Y-12301484D01*
X9901206Y-12301484D02*
X9872634Y-12301484D01*
X10053587Y-12301484D02*
X10034539Y-12291960D01*
X10034539Y-12291960D02*
X10025015Y-12272912D01*
X10025015Y-12272912D02*
X10025015Y-12101484D01*
X10205968Y-12291960D02*
X10186920Y-12301484D01*
X10186920Y-12301484D02*
X10148825Y-12301484D01*
X10148825Y-12301484D02*
X10129777Y-12291960D01*
X10129777Y-12291960D02*
X10120253Y-12272912D01*
X10120253Y-12272912D02*
X10120253Y-12196722D01*
X10120253Y-12196722D02*
X10129777Y-12177674D01*
X10129777Y-12177674D02*
X10148825Y-12168150D01*
X10148825Y-12168150D02*
X10186920Y-12168150D01*
X10186920Y-12168150D02*
X10205968Y-12177674D01*
X10205968Y-12177674D02*
X10215492Y-12196722D01*
X10215492Y-12196722D02*
X10215492Y-12215769D01*
X10215492Y-12215769D02*
X10120253Y-12234817D01*
X10291682Y-12291960D02*
X10310730Y-12301484D01*
X10310730Y-12301484D02*
X10348825Y-12301484D01*
X10348825Y-12301484D02*
X10367873Y-12291960D01*
X10367873Y-12291960D02*
X10377396Y-12272912D01*
X10377396Y-12272912D02*
X10377396Y-12263388D01*
X10377396Y-12263388D02*
X10367873Y-12244341D01*
X10367873Y-12244341D02*
X10348825Y-12234817D01*
X10348825Y-12234817D02*
X10320253Y-12234817D01*
X10320253Y-12234817D02*
X10301206Y-12225293D01*
X10301206Y-12225293D02*
X10291682Y-12206246D01*
X10291682Y-12206246D02*
X10291682Y-12196722D01*
X10291682Y-12196722D02*
X10301206Y-12177674D01*
X10301206Y-12177674D02*
X10320253Y-12168150D01*
X10320253Y-12168150D02*
X10348825Y-12168150D01*
X10348825Y-12168150D02*
X10367873Y-12177674D01*
X10444063Y-12377674D02*
X10453587Y-12368150D01*
X10453587Y-12368150D02*
X10472634Y-12339579D01*
X10472634Y-12339579D02*
X10482158Y-12320531D01*
X10482158Y-12320531D02*
X10491682Y-12291960D01*
X10491682Y-12291960D02*
X10501206Y-12244341D01*
X10501206Y-12244341D02*
X10501206Y-12206246D01*
X10501206Y-12206246D02*
X10491682Y-12158627D01*
X10491682Y-12158627D02*
X10482158Y-12130055D01*
X10482158Y-12130055D02*
X10472634Y-12111008D01*
X10472634Y-12111008D02*
X10453587Y-12082436D01*
X10453587Y-12082436D02*
X10444063Y-12072912D01*
D17*
X5508980Y-12409990D02*
X5669000Y-12570010D01*
X5669000Y-12409990D02*
X5508980Y-12570010D01*
X5588990Y-12570010D02*
X5669000Y-12490000D01*
X5588990Y-12409990D01*
X5508980Y-12490000D01*
X5588990Y-12570010D01*
D11*
X6034539Y-12581484D02*
X5920253Y-12581484D01*
X5977396Y-12581484D02*
X5977396Y-12381484D01*
X5977396Y-12381484D02*
X5958348Y-12410055D01*
X5958348Y-12410055D02*
X5939301Y-12429103D01*
X5939301Y-12429103D02*
X5920253Y-12438627D01*
X6120253Y-12562436D02*
X6129777Y-12571960D01*
X6129777Y-12571960D02*
X6120253Y-12581484D01*
X6120253Y-12581484D02*
X6110729Y-12571960D01*
X6110729Y-12571960D02*
X6120253Y-12562436D01*
X6120253Y-12562436D02*
X6120253Y-12581484D01*
X6301205Y-12381484D02*
X6263110Y-12381484D01*
X6263110Y-12381484D02*
X6244062Y-12391008D01*
X6244062Y-12391008D02*
X6234539Y-12400531D01*
X6234539Y-12400531D02*
X6215491Y-12429103D01*
X6215491Y-12429103D02*
X6205967Y-12467198D01*
X6205967Y-12467198D02*
X6205967Y-12543388D01*
X6205967Y-12543388D02*
X6215491Y-12562436D01*
X6215491Y-12562436D02*
X6225015Y-12571960D01*
X6225015Y-12571960D02*
X6244062Y-12581484D01*
X6244062Y-12581484D02*
X6282158Y-12581484D01*
X6282158Y-12581484D02*
X6301205Y-12571960D01*
X6301205Y-12571960D02*
X6310729Y-12562436D01*
X6310729Y-12562436D02*
X6320253Y-12543388D01*
X6320253Y-12543388D02*
X6320253Y-12495769D01*
X6320253Y-12495769D02*
X6310729Y-12476722D01*
X6310729Y-12476722D02*
X6301205Y-12467198D01*
X6301205Y-12467198D02*
X6282158Y-12457674D01*
X6282158Y-12457674D02*
X6244062Y-12457674D01*
X6244062Y-12457674D02*
X6225015Y-12467198D01*
X6225015Y-12467198D02*
X6215491Y-12476722D01*
X6215491Y-12476722D02*
X6205967Y-12495769D01*
X6444062Y-12381484D02*
X6463110Y-12381484D01*
X6463110Y-12381484D02*
X6482158Y-12391008D01*
X6482158Y-12391008D02*
X6491682Y-12400531D01*
X6491682Y-12400531D02*
X6501205Y-12419579D01*
X6501205Y-12419579D02*
X6510729Y-12457674D01*
X6510729Y-12457674D02*
X6510729Y-12505293D01*
X6510729Y-12505293D02*
X6501205Y-12543388D01*
X6501205Y-12543388D02*
X6491682Y-12562436D01*
X6491682Y-12562436D02*
X6482158Y-12571960D01*
X6482158Y-12571960D02*
X6463110Y-12581484D01*
X6463110Y-12581484D02*
X6444062Y-12581484D01*
X6444062Y-12581484D02*
X6425015Y-12571960D01*
X6425015Y-12571960D02*
X6415491Y-12562436D01*
X6415491Y-12562436D02*
X6405967Y-12543388D01*
X6405967Y-12543388D02*
X6396443Y-12505293D01*
X6396443Y-12505293D02*
X6396443Y-12457674D01*
X6396443Y-12457674D02*
X6405967Y-12419579D01*
X6405967Y-12419579D02*
X6415491Y-12400531D01*
X6415491Y-12400531D02*
X6425015Y-12391008D01*
X6425015Y-12391008D02*
X6444062Y-12381484D01*
X6634539Y-12381484D02*
X6653586Y-12381484D01*
X6653586Y-12381484D02*
X6672634Y-12391008D01*
X6672634Y-12391008D02*
X6682158Y-12400531D01*
X6682158Y-12400531D02*
X6691682Y-12419579D01*
X6691682Y-12419579D02*
X6701205Y-12457674D01*
X6701205Y-12457674D02*
X6701205Y-12505293D01*
X6701205Y-12505293D02*
X6691682Y-12543388D01*
X6691682Y-12543388D02*
X6682158Y-12562436D01*
X6682158Y-12562436D02*
X6672634Y-12571960D01*
X6672634Y-12571960D02*
X6653586Y-12581484D01*
X6653586Y-12581484D02*
X6634539Y-12581484D01*
X6634539Y-12581484D02*
X6615491Y-12571960D01*
X6615491Y-12571960D02*
X6605967Y-12562436D01*
X6605967Y-12562436D02*
X6596443Y-12543388D01*
X6596443Y-12543388D02*
X6586920Y-12505293D01*
X6586920Y-12505293D02*
X6586920Y-12457674D01*
X6586920Y-12457674D02*
X6596443Y-12419579D01*
X6596443Y-12419579D02*
X6605967Y-12400531D01*
X6605967Y-12400531D02*
X6615491Y-12391008D01*
X6615491Y-12391008D02*
X6634539Y-12381484D01*
X6786920Y-12581484D02*
X6786920Y-12448150D01*
X6786920Y-12467198D02*
X6796443Y-12457674D01*
X6796443Y-12457674D02*
X6815491Y-12448150D01*
X6815491Y-12448150D02*
X6844063Y-12448150D01*
X6844063Y-12448150D02*
X6863110Y-12457674D01*
X6863110Y-12457674D02*
X6872634Y-12476722D01*
X6872634Y-12476722D02*
X6872634Y-12581484D01*
X6872634Y-12476722D02*
X6882158Y-12457674D01*
X6882158Y-12457674D02*
X6901205Y-12448150D01*
X6901205Y-12448150D02*
X6929777Y-12448150D01*
X6929777Y-12448150D02*
X6948824Y-12457674D01*
X6948824Y-12457674D02*
X6958348Y-12476722D01*
X6958348Y-12476722D02*
X6958348Y-12581484D01*
X7053586Y-12581484D02*
X7053586Y-12448150D01*
X7053586Y-12467198D02*
X7063110Y-12457674D01*
X7063110Y-12457674D02*
X7082158Y-12448150D01*
X7082158Y-12448150D02*
X7110729Y-12448150D01*
X7110729Y-12448150D02*
X7129777Y-12457674D01*
X7129777Y-12457674D02*
X7139301Y-12476722D01*
X7139301Y-12476722D02*
X7139301Y-12581484D01*
X7139301Y-12476722D02*
X7148824Y-12457674D01*
X7148824Y-12457674D02*
X7167872Y-12448150D01*
X7167872Y-12448150D02*
X7196443Y-12448150D01*
X7196443Y-12448150D02*
X7215491Y-12457674D01*
X7215491Y-12457674D02*
X7225015Y-12476722D01*
X7225015Y-12476722D02*
X7225015Y-12581484D01*
X7615491Y-12371960D02*
X7444063Y-12629103D01*
X7872634Y-12381484D02*
X7891682Y-12381484D01*
X7891682Y-12381484D02*
X7910729Y-12391008D01*
X7910729Y-12391008D02*
X7920253Y-12400531D01*
X7920253Y-12400531D02*
X7929777Y-12419579D01*
X7929777Y-12419579D02*
X7939301Y-12457674D01*
X7939301Y-12457674D02*
X7939301Y-12505293D01*
X7939301Y-12505293D02*
X7929777Y-12543388D01*
X7929777Y-12543388D02*
X7920253Y-12562436D01*
X7920253Y-12562436D02*
X7910729Y-12571960D01*
X7910729Y-12571960D02*
X7891682Y-12581484D01*
X7891682Y-12581484D02*
X7872634Y-12581484D01*
X7872634Y-12581484D02*
X7853586Y-12571960D01*
X7853586Y-12571960D02*
X7844063Y-12562436D01*
X7844063Y-12562436D02*
X7834539Y-12543388D01*
X7834539Y-12543388D02*
X7825015Y-12505293D01*
X7825015Y-12505293D02*
X7825015Y-12457674D01*
X7825015Y-12457674D02*
X7834539Y-12419579D01*
X7834539Y-12419579D02*
X7844063Y-12400531D01*
X7844063Y-12400531D02*
X7853586Y-12391008D01*
X7853586Y-12391008D02*
X7872634Y-12381484D01*
X8025015Y-12562436D02*
X8034539Y-12571960D01*
X8034539Y-12571960D02*
X8025015Y-12581484D01*
X8025015Y-12581484D02*
X8015491Y-12571960D01*
X8015491Y-12571960D02*
X8025015Y-12562436D01*
X8025015Y-12562436D02*
X8025015Y-12581484D01*
X8158348Y-12381484D02*
X8177396Y-12381484D01*
X8177396Y-12381484D02*
X8196444Y-12391008D01*
X8196444Y-12391008D02*
X8205967Y-12400531D01*
X8205967Y-12400531D02*
X8215491Y-12419579D01*
X8215491Y-12419579D02*
X8225015Y-12457674D01*
X8225015Y-12457674D02*
X8225015Y-12505293D01*
X8225015Y-12505293D02*
X8215491Y-12543388D01*
X8215491Y-12543388D02*
X8205967Y-12562436D01*
X8205967Y-12562436D02*
X8196444Y-12571960D01*
X8196444Y-12571960D02*
X8177396Y-12581484D01*
X8177396Y-12581484D02*
X8158348Y-12581484D01*
X8158348Y-12581484D02*
X8139301Y-12571960D01*
X8139301Y-12571960D02*
X8129777Y-12562436D01*
X8129777Y-12562436D02*
X8120253Y-12543388D01*
X8120253Y-12543388D02*
X8110729Y-12505293D01*
X8110729Y-12505293D02*
X8110729Y-12457674D01*
X8110729Y-12457674D02*
X8120253Y-12419579D01*
X8120253Y-12419579D02*
X8129777Y-12400531D01*
X8129777Y-12400531D02*
X8139301Y-12391008D01*
X8139301Y-12391008D02*
X8158348Y-12381484D01*
X8396444Y-12381484D02*
X8358348Y-12381484D01*
X8358348Y-12381484D02*
X8339301Y-12391008D01*
X8339301Y-12391008D02*
X8329777Y-12400531D01*
X8329777Y-12400531D02*
X8310729Y-12429103D01*
X8310729Y-12429103D02*
X8301206Y-12467198D01*
X8301206Y-12467198D02*
X8301206Y-12543388D01*
X8301206Y-12543388D02*
X8310729Y-12562436D01*
X8310729Y-12562436D02*
X8320253Y-12571960D01*
X8320253Y-12571960D02*
X8339301Y-12581484D01*
X8339301Y-12581484D02*
X8377396Y-12581484D01*
X8377396Y-12581484D02*
X8396444Y-12571960D01*
X8396444Y-12571960D02*
X8405968Y-12562436D01*
X8405968Y-12562436D02*
X8415491Y-12543388D01*
X8415491Y-12543388D02*
X8415491Y-12495769D01*
X8415491Y-12495769D02*
X8405968Y-12476722D01*
X8405968Y-12476722D02*
X8396444Y-12467198D01*
X8396444Y-12467198D02*
X8377396Y-12457674D01*
X8377396Y-12457674D02*
X8339301Y-12457674D01*
X8339301Y-12457674D02*
X8320253Y-12467198D01*
X8320253Y-12467198D02*
X8310729Y-12476722D01*
X8310729Y-12476722D02*
X8301206Y-12495769D01*
X8482158Y-12381484D02*
X8605968Y-12381484D01*
X8605968Y-12381484D02*
X8539301Y-12457674D01*
X8539301Y-12457674D02*
X8567872Y-12457674D01*
X8567872Y-12457674D02*
X8586920Y-12467198D01*
X8586920Y-12467198D02*
X8596444Y-12476722D01*
X8596444Y-12476722D02*
X8605968Y-12495769D01*
X8605968Y-12495769D02*
X8605968Y-12543388D01*
X8605968Y-12543388D02*
X8596444Y-12562436D01*
X8596444Y-12562436D02*
X8586920Y-12571960D01*
X8586920Y-12571960D02*
X8567872Y-12581484D01*
X8567872Y-12581484D02*
X8510729Y-12581484D01*
X8510729Y-12581484D02*
X8491682Y-12571960D01*
X8491682Y-12571960D02*
X8482158Y-12562436D01*
X8729777Y-12381484D02*
X8748825Y-12381484D01*
X8748825Y-12381484D02*
X8767872Y-12391008D01*
X8767872Y-12391008D02*
X8777396Y-12400531D01*
X8777396Y-12400531D02*
X8786920Y-12419579D01*
X8786920Y-12419579D02*
X8796444Y-12457674D01*
X8796444Y-12457674D02*
X8796444Y-12505293D01*
X8796444Y-12505293D02*
X8786920Y-12543388D01*
X8786920Y-12543388D02*
X8777396Y-12562436D01*
X8777396Y-12562436D02*
X8767872Y-12571960D01*
X8767872Y-12571960D02*
X8748825Y-12581484D01*
X8748825Y-12581484D02*
X8729777Y-12581484D01*
X8729777Y-12581484D02*
X8710729Y-12571960D01*
X8710729Y-12571960D02*
X8701206Y-12562436D01*
X8701206Y-12562436D02*
X8691682Y-12543388D01*
X8691682Y-12543388D02*
X8682158Y-12505293D01*
X8682158Y-12505293D02*
X8682158Y-12457674D01*
X8682158Y-12457674D02*
X8691682Y-12419579D01*
X8691682Y-12419579D02*
X8701206Y-12400531D01*
X8701206Y-12400531D02*
X8710729Y-12391008D01*
X8710729Y-12391008D02*
X8729777Y-12381484D01*
X8872634Y-12381484D02*
X8872634Y-12419579D01*
X8948825Y-12381484D02*
X8948825Y-12419579D01*
X9244063Y-12657674D02*
X9234539Y-12648150D01*
X9234539Y-12648150D02*
X9215491Y-12619579D01*
X9215491Y-12619579D02*
X9205968Y-12600531D01*
X9205968Y-12600531D02*
X9196444Y-12571960D01*
X9196444Y-12571960D02*
X9186920Y-12524341D01*
X9186920Y-12524341D02*
X9186920Y-12486246D01*
X9186920Y-12486246D02*
X9196444Y-12438627D01*
X9196444Y-12438627D02*
X9205968Y-12410055D01*
X9205968Y-12410055D02*
X9215491Y-12391008D01*
X9215491Y-12391008D02*
X9234539Y-12362436D01*
X9234539Y-12362436D02*
X9244063Y-12352912D01*
X9310730Y-12400531D02*
X9320253Y-12391008D01*
X9320253Y-12391008D02*
X9339301Y-12381484D01*
X9339301Y-12381484D02*
X9386920Y-12381484D01*
X9386920Y-12381484D02*
X9405968Y-12391008D01*
X9405968Y-12391008D02*
X9415491Y-12400531D01*
X9415491Y-12400531D02*
X9425015Y-12419579D01*
X9425015Y-12419579D02*
X9425015Y-12438627D01*
X9425015Y-12438627D02*
X9415491Y-12467198D01*
X9415491Y-12467198D02*
X9301206Y-12581484D01*
X9301206Y-12581484D02*
X9425015Y-12581484D01*
X9663111Y-12581484D02*
X9663111Y-12381484D01*
X9748825Y-12581484D02*
X9748825Y-12476722D01*
X9748825Y-12476722D02*
X9739301Y-12457674D01*
X9739301Y-12457674D02*
X9720253Y-12448150D01*
X9720253Y-12448150D02*
X9691682Y-12448150D01*
X9691682Y-12448150D02*
X9672634Y-12457674D01*
X9672634Y-12457674D02*
X9663111Y-12467198D01*
X9872634Y-12581484D02*
X9853587Y-12571960D01*
X9853587Y-12571960D02*
X9844063Y-12562436D01*
X9844063Y-12562436D02*
X9834539Y-12543388D01*
X9834539Y-12543388D02*
X9834539Y-12486246D01*
X9834539Y-12486246D02*
X9844063Y-12467198D01*
X9844063Y-12467198D02*
X9853587Y-12457674D01*
X9853587Y-12457674D02*
X9872634Y-12448150D01*
X9872634Y-12448150D02*
X9901206Y-12448150D01*
X9901206Y-12448150D02*
X9920253Y-12457674D01*
X9920253Y-12457674D02*
X9929777Y-12467198D01*
X9929777Y-12467198D02*
X9939301Y-12486246D01*
X9939301Y-12486246D02*
X9939301Y-12543388D01*
X9939301Y-12543388D02*
X9929777Y-12562436D01*
X9929777Y-12562436D02*
X9920253Y-12571960D01*
X9920253Y-12571960D02*
X9901206Y-12581484D01*
X9901206Y-12581484D02*
X9872634Y-12581484D01*
X10053587Y-12581484D02*
X10034539Y-12571960D01*
X10034539Y-12571960D02*
X10025015Y-12552912D01*
X10025015Y-12552912D02*
X10025015Y-12381484D01*
X10205968Y-12571960D02*
X10186920Y-12581484D01*
X10186920Y-12581484D02*
X10148825Y-12581484D01*
X10148825Y-12581484D02*
X10129777Y-12571960D01*
X10129777Y-12571960D02*
X10120253Y-12552912D01*
X10120253Y-12552912D02*
X10120253Y-12476722D01*
X10120253Y-12476722D02*
X10129777Y-12457674D01*
X10129777Y-12457674D02*
X10148825Y-12448150D01*
X10148825Y-12448150D02*
X10186920Y-12448150D01*
X10186920Y-12448150D02*
X10205968Y-12457674D01*
X10205968Y-12457674D02*
X10215492Y-12476722D01*
X10215492Y-12476722D02*
X10215492Y-12495769D01*
X10215492Y-12495769D02*
X10120253Y-12514817D01*
X10291682Y-12571960D02*
X10310730Y-12581484D01*
X10310730Y-12581484D02*
X10348825Y-12581484D01*
X10348825Y-12581484D02*
X10367873Y-12571960D01*
X10367873Y-12571960D02*
X10377396Y-12552912D01*
X10377396Y-12552912D02*
X10377396Y-12543388D01*
X10377396Y-12543388D02*
X10367873Y-12524341D01*
X10367873Y-12524341D02*
X10348825Y-12514817D01*
X10348825Y-12514817D02*
X10320253Y-12514817D01*
X10320253Y-12514817D02*
X10301206Y-12505293D01*
X10301206Y-12505293D02*
X10291682Y-12486246D01*
X10291682Y-12486246D02*
X10291682Y-12476722D01*
X10291682Y-12476722D02*
X10301206Y-12457674D01*
X10301206Y-12457674D02*
X10320253Y-12448150D01*
X10320253Y-12448150D02*
X10348825Y-12448150D01*
X10348825Y-12448150D02*
X10367873Y-12457674D01*
X10444063Y-12657674D02*
X10453587Y-12648150D01*
X10453587Y-12648150D02*
X10472634Y-12619579D01*
X10472634Y-12619579D02*
X10482158Y-12600531D01*
X10482158Y-12600531D02*
X10491682Y-12571960D01*
X10491682Y-12571960D02*
X10501206Y-12524341D01*
X10501206Y-12524341D02*
X10501206Y-12486246D01*
X10501206Y-12486246D02*
X10491682Y-12438627D01*
X10491682Y-12438627D02*
X10482158Y-12410055D01*
X10482158Y-12410055D02*
X10472634Y-12391008D01*
X10472634Y-12391008D02*
X10453587Y-12362436D01*
X10453587Y-12362436D02*
X10444063Y-12352912D01*
X5569000Y-12670020D02*
X5569000Y-12870020D01*
X5469000Y-12770020D02*
X5669000Y-12770020D01*
X5669000Y-12770020D02*
G75*
G03*
X5469000Y-12770020I-100000J0D01*
G01*
X5469000Y-12770020D02*
G75*
G03*
X5669000Y-12770020I100000J0D01*
G01*
X5920253Y-12680551D02*
X5929777Y-12671028D01*
X5929777Y-12671028D02*
X5948824Y-12661504D01*
X5948824Y-12661504D02*
X5996443Y-12661504D01*
X5996443Y-12661504D02*
X6015491Y-12671028D01*
X6015491Y-12671028D02*
X6025015Y-12680551D01*
X6025015Y-12680551D02*
X6034539Y-12699599D01*
X6034539Y-12699599D02*
X6034539Y-12718647D01*
X6034539Y-12718647D02*
X6025015Y-12747218D01*
X6025015Y-12747218D02*
X5910729Y-12861504D01*
X5910729Y-12861504D02*
X6034539Y-12861504D01*
X6120253Y-12842456D02*
X6129777Y-12851980D01*
X6129777Y-12851980D02*
X6120253Y-12861504D01*
X6120253Y-12861504D02*
X6110729Y-12851980D01*
X6110729Y-12851980D02*
X6120253Y-12842456D01*
X6120253Y-12842456D02*
X6120253Y-12861504D01*
X6196443Y-12661504D02*
X6329777Y-12661504D01*
X6329777Y-12661504D02*
X6244062Y-12861504D01*
X6444062Y-12661504D02*
X6463110Y-12661504D01*
X6463110Y-12661504D02*
X6482158Y-12671028D01*
X6482158Y-12671028D02*
X6491682Y-12680551D01*
X6491682Y-12680551D02*
X6501205Y-12699599D01*
X6501205Y-12699599D02*
X6510729Y-12737694D01*
X6510729Y-12737694D02*
X6510729Y-12785313D01*
X6510729Y-12785313D02*
X6501205Y-12823408D01*
X6501205Y-12823408D02*
X6491682Y-12842456D01*
X6491682Y-12842456D02*
X6482158Y-12851980D01*
X6482158Y-12851980D02*
X6463110Y-12861504D01*
X6463110Y-12861504D02*
X6444062Y-12861504D01*
X6444062Y-12861504D02*
X6425015Y-12851980D01*
X6425015Y-12851980D02*
X6415491Y-12842456D01*
X6415491Y-12842456D02*
X6405967Y-12823408D01*
X6405967Y-12823408D02*
X6396443Y-12785313D01*
X6396443Y-12785313D02*
X6396443Y-12737694D01*
X6396443Y-12737694D02*
X6405967Y-12699599D01*
X6405967Y-12699599D02*
X6415491Y-12680551D01*
X6415491Y-12680551D02*
X6425015Y-12671028D01*
X6425015Y-12671028D02*
X6444062Y-12661504D01*
X6634539Y-12661504D02*
X6653586Y-12661504D01*
X6653586Y-12661504D02*
X6672634Y-12671028D01*
X6672634Y-12671028D02*
X6682158Y-12680551D01*
X6682158Y-12680551D02*
X6691682Y-12699599D01*
X6691682Y-12699599D02*
X6701205Y-12737694D01*
X6701205Y-12737694D02*
X6701205Y-12785313D01*
X6701205Y-12785313D02*
X6691682Y-12823408D01*
X6691682Y-12823408D02*
X6682158Y-12842456D01*
X6682158Y-12842456D02*
X6672634Y-12851980D01*
X6672634Y-12851980D02*
X6653586Y-12861504D01*
X6653586Y-12861504D02*
X6634539Y-12861504D01*
X6634539Y-12861504D02*
X6615491Y-12851980D01*
X6615491Y-12851980D02*
X6605967Y-12842456D01*
X6605967Y-12842456D02*
X6596443Y-12823408D01*
X6596443Y-12823408D02*
X6586920Y-12785313D01*
X6586920Y-12785313D02*
X6586920Y-12737694D01*
X6586920Y-12737694D02*
X6596443Y-12699599D01*
X6596443Y-12699599D02*
X6605967Y-12680551D01*
X6605967Y-12680551D02*
X6615491Y-12671028D01*
X6615491Y-12671028D02*
X6634539Y-12661504D01*
X6786920Y-12861504D02*
X6786920Y-12728170D01*
X6786920Y-12747218D02*
X6796443Y-12737694D01*
X6796443Y-12737694D02*
X6815491Y-12728170D01*
X6815491Y-12728170D02*
X6844063Y-12728170D01*
X6844063Y-12728170D02*
X6863110Y-12737694D01*
X6863110Y-12737694D02*
X6872634Y-12756742D01*
X6872634Y-12756742D02*
X6872634Y-12861504D01*
X6872634Y-12756742D02*
X6882158Y-12737694D01*
X6882158Y-12737694D02*
X6901205Y-12728170D01*
X6901205Y-12728170D02*
X6929777Y-12728170D01*
X6929777Y-12728170D02*
X6948824Y-12737694D01*
X6948824Y-12737694D02*
X6958348Y-12756742D01*
X6958348Y-12756742D02*
X6958348Y-12861504D01*
X7053586Y-12861504D02*
X7053586Y-12728170D01*
X7053586Y-12747218D02*
X7063110Y-12737694D01*
X7063110Y-12737694D02*
X7082158Y-12728170D01*
X7082158Y-12728170D02*
X7110729Y-12728170D01*
X7110729Y-12728170D02*
X7129777Y-12737694D01*
X7129777Y-12737694D02*
X7139301Y-12756742D01*
X7139301Y-12756742D02*
X7139301Y-12861504D01*
X7139301Y-12756742D02*
X7148824Y-12737694D01*
X7148824Y-12737694D02*
X7167872Y-12728170D01*
X7167872Y-12728170D02*
X7196443Y-12728170D01*
X7196443Y-12728170D02*
X7215491Y-12737694D01*
X7215491Y-12737694D02*
X7225015Y-12756742D01*
X7225015Y-12756742D02*
X7225015Y-12861504D01*
X7615491Y-12651980D02*
X7444063Y-12909123D01*
X7872634Y-12661504D02*
X7891682Y-12661504D01*
X7891682Y-12661504D02*
X7910729Y-12671028D01*
X7910729Y-12671028D02*
X7920253Y-12680551D01*
X7920253Y-12680551D02*
X7929777Y-12699599D01*
X7929777Y-12699599D02*
X7939301Y-12737694D01*
X7939301Y-12737694D02*
X7939301Y-12785313D01*
X7939301Y-12785313D02*
X7929777Y-12823408D01*
X7929777Y-12823408D02*
X7920253Y-12842456D01*
X7920253Y-12842456D02*
X7910729Y-12851980D01*
X7910729Y-12851980D02*
X7891682Y-12861504D01*
X7891682Y-12861504D02*
X7872634Y-12861504D01*
X7872634Y-12861504D02*
X7853586Y-12851980D01*
X7853586Y-12851980D02*
X7844063Y-12842456D01*
X7844063Y-12842456D02*
X7834539Y-12823408D01*
X7834539Y-12823408D02*
X7825015Y-12785313D01*
X7825015Y-12785313D02*
X7825015Y-12737694D01*
X7825015Y-12737694D02*
X7834539Y-12699599D01*
X7834539Y-12699599D02*
X7844063Y-12680551D01*
X7844063Y-12680551D02*
X7853586Y-12671028D01*
X7853586Y-12671028D02*
X7872634Y-12661504D01*
X8025015Y-12842456D02*
X8034539Y-12851980D01*
X8034539Y-12851980D02*
X8025015Y-12861504D01*
X8025015Y-12861504D02*
X8015491Y-12851980D01*
X8015491Y-12851980D02*
X8025015Y-12842456D01*
X8025015Y-12842456D02*
X8025015Y-12861504D01*
X8225015Y-12861504D02*
X8110729Y-12861504D01*
X8167872Y-12861504D02*
X8167872Y-12661504D01*
X8167872Y-12661504D02*
X8148825Y-12690075D01*
X8148825Y-12690075D02*
X8129777Y-12709123D01*
X8129777Y-12709123D02*
X8110729Y-12718647D01*
X8348825Y-12661504D02*
X8367872Y-12661504D01*
X8367872Y-12661504D02*
X8386920Y-12671028D01*
X8386920Y-12671028D02*
X8396444Y-12680551D01*
X8396444Y-12680551D02*
X8405968Y-12699599D01*
X8405968Y-12699599D02*
X8415491Y-12737694D01*
X8415491Y-12737694D02*
X8415491Y-12785313D01*
X8415491Y-12785313D02*
X8405968Y-12823408D01*
X8405968Y-12823408D02*
X8396444Y-12842456D01*
X8396444Y-12842456D02*
X8386920Y-12851980D01*
X8386920Y-12851980D02*
X8367872Y-12861504D01*
X8367872Y-12861504D02*
X8348825Y-12861504D01*
X8348825Y-12861504D02*
X8329777Y-12851980D01*
X8329777Y-12851980D02*
X8320253Y-12842456D01*
X8320253Y-12842456D02*
X8310729Y-12823408D01*
X8310729Y-12823408D02*
X8301206Y-12785313D01*
X8301206Y-12785313D02*
X8301206Y-12737694D01*
X8301206Y-12737694D02*
X8310729Y-12699599D01*
X8310729Y-12699599D02*
X8320253Y-12680551D01*
X8320253Y-12680551D02*
X8329777Y-12671028D01*
X8329777Y-12671028D02*
X8348825Y-12661504D01*
X8586920Y-12661504D02*
X8548825Y-12661504D01*
X8548825Y-12661504D02*
X8529777Y-12671028D01*
X8529777Y-12671028D02*
X8520253Y-12680551D01*
X8520253Y-12680551D02*
X8501206Y-12709123D01*
X8501206Y-12709123D02*
X8491682Y-12747218D01*
X8491682Y-12747218D02*
X8491682Y-12823408D01*
X8491682Y-12823408D02*
X8501206Y-12842456D01*
X8501206Y-12842456D02*
X8510729Y-12851980D01*
X8510729Y-12851980D02*
X8529777Y-12861504D01*
X8529777Y-12861504D02*
X8567872Y-12861504D01*
X8567872Y-12861504D02*
X8586920Y-12851980D01*
X8586920Y-12851980D02*
X8596444Y-12842456D01*
X8596444Y-12842456D02*
X8605968Y-12823408D01*
X8605968Y-12823408D02*
X8605968Y-12775789D01*
X8605968Y-12775789D02*
X8596444Y-12756742D01*
X8596444Y-12756742D02*
X8586920Y-12747218D01*
X8586920Y-12747218D02*
X8567872Y-12737694D01*
X8567872Y-12737694D02*
X8529777Y-12737694D01*
X8529777Y-12737694D02*
X8510729Y-12747218D01*
X8510729Y-12747218D02*
X8501206Y-12756742D01*
X8501206Y-12756742D02*
X8491682Y-12775789D01*
X8672634Y-12661504D02*
X8796444Y-12661504D01*
X8796444Y-12661504D02*
X8729777Y-12737694D01*
X8729777Y-12737694D02*
X8758349Y-12737694D01*
X8758349Y-12737694D02*
X8777396Y-12747218D01*
X8777396Y-12747218D02*
X8786920Y-12756742D01*
X8786920Y-12756742D02*
X8796444Y-12775789D01*
X8796444Y-12775789D02*
X8796444Y-12823408D01*
X8796444Y-12823408D02*
X8786920Y-12842456D01*
X8786920Y-12842456D02*
X8777396Y-12851980D01*
X8777396Y-12851980D02*
X8758349Y-12861504D01*
X8758349Y-12861504D02*
X8701206Y-12861504D01*
X8701206Y-12861504D02*
X8682158Y-12851980D01*
X8682158Y-12851980D02*
X8672634Y-12842456D01*
X8872634Y-12661504D02*
X8872634Y-12699599D01*
X8948825Y-12661504D02*
X8948825Y-12699599D01*
X9244063Y-12937694D02*
X9234539Y-12928170D01*
X9234539Y-12928170D02*
X9215491Y-12899599D01*
X9215491Y-12899599D02*
X9205968Y-12880551D01*
X9205968Y-12880551D02*
X9196444Y-12851980D01*
X9196444Y-12851980D02*
X9186920Y-12804361D01*
X9186920Y-12804361D02*
X9186920Y-12766266D01*
X9186920Y-12766266D02*
X9196444Y-12718647D01*
X9196444Y-12718647D02*
X9205968Y-12690075D01*
X9205968Y-12690075D02*
X9215491Y-12671028D01*
X9215491Y-12671028D02*
X9234539Y-12642456D01*
X9234539Y-12642456D02*
X9244063Y-12632932D01*
X9405968Y-12728170D02*
X9405968Y-12861504D01*
X9358349Y-12651980D02*
X9310730Y-12794837D01*
X9310730Y-12794837D02*
X9434539Y-12794837D01*
X9663111Y-12861504D02*
X9663111Y-12661504D01*
X9748825Y-12861504D02*
X9748825Y-12756742D01*
X9748825Y-12756742D02*
X9739301Y-12737694D01*
X9739301Y-12737694D02*
X9720253Y-12728170D01*
X9720253Y-12728170D02*
X9691682Y-12728170D01*
X9691682Y-12728170D02*
X9672634Y-12737694D01*
X9672634Y-12737694D02*
X9663111Y-12747218D01*
X9872634Y-12861504D02*
X9853587Y-12851980D01*
X9853587Y-12851980D02*
X9844063Y-12842456D01*
X9844063Y-12842456D02*
X9834539Y-12823408D01*
X9834539Y-12823408D02*
X9834539Y-12766266D01*
X9834539Y-12766266D02*
X9844063Y-12747218D01*
X9844063Y-12747218D02*
X9853587Y-12737694D01*
X9853587Y-12737694D02*
X9872634Y-12728170D01*
X9872634Y-12728170D02*
X9901206Y-12728170D01*
X9901206Y-12728170D02*
X9920253Y-12737694D01*
X9920253Y-12737694D02*
X9929777Y-12747218D01*
X9929777Y-12747218D02*
X9939301Y-12766266D01*
X9939301Y-12766266D02*
X9939301Y-12823408D01*
X9939301Y-12823408D02*
X9929777Y-12842456D01*
X9929777Y-12842456D02*
X9920253Y-12851980D01*
X9920253Y-12851980D02*
X9901206Y-12861504D01*
X9901206Y-12861504D02*
X9872634Y-12861504D01*
X10053587Y-12861504D02*
X10034539Y-12851980D01*
X10034539Y-12851980D02*
X10025015Y-12832932D01*
X10025015Y-12832932D02*
X10025015Y-12661504D01*
X10205968Y-12851980D02*
X10186920Y-12861504D01*
X10186920Y-12861504D02*
X10148825Y-12861504D01*
X10148825Y-12861504D02*
X10129777Y-12851980D01*
X10129777Y-12851980D02*
X10120253Y-12832932D01*
X10120253Y-12832932D02*
X10120253Y-12756742D01*
X10120253Y-12756742D02*
X10129777Y-12737694D01*
X10129777Y-12737694D02*
X10148825Y-12728170D01*
X10148825Y-12728170D02*
X10186920Y-12728170D01*
X10186920Y-12728170D02*
X10205968Y-12737694D01*
X10205968Y-12737694D02*
X10215492Y-12756742D01*
X10215492Y-12756742D02*
X10215492Y-12775789D01*
X10215492Y-12775789D02*
X10120253Y-12794837D01*
X10291682Y-12851980D02*
X10310730Y-12861504D01*
X10310730Y-12861504D02*
X10348825Y-12861504D01*
X10348825Y-12861504D02*
X10367873Y-12851980D01*
X10367873Y-12851980D02*
X10377396Y-12832932D01*
X10377396Y-12832932D02*
X10377396Y-12823408D01*
X10377396Y-12823408D02*
X10367873Y-12804361D01*
X10367873Y-12804361D02*
X10348825Y-12794837D01*
X10348825Y-12794837D02*
X10320253Y-12794837D01*
X10320253Y-12794837D02*
X10301206Y-12785313D01*
X10301206Y-12785313D02*
X10291682Y-12766266D01*
X10291682Y-12766266D02*
X10291682Y-12756742D01*
X10291682Y-12756742D02*
X10301206Y-12737694D01*
X10301206Y-12737694D02*
X10320253Y-12728170D01*
X10320253Y-12728170D02*
X10348825Y-12728170D01*
X10348825Y-12728170D02*
X10367873Y-12737694D01*
X10444063Y-12937694D02*
X10453587Y-12928170D01*
X10453587Y-12928170D02*
X10472634Y-12899599D01*
X10472634Y-12899599D02*
X10482158Y-12880551D01*
X10482158Y-12880551D02*
X10491682Y-12851980D01*
X10491682Y-12851980D02*
X10501206Y-12804361D01*
X10501206Y-12804361D02*
X10501206Y-12766266D01*
X10501206Y-12766266D02*
X10491682Y-12718647D01*
X10491682Y-12718647D02*
X10482158Y-12690075D01*
X10482158Y-12690075D02*
X10472634Y-12671028D01*
X10472634Y-12671028D02*
X10453587Y-12642456D01*
X10453587Y-12642456D02*
X10444063Y-12632932D01*
M02*
