%TF.GenerationSoftware,KiCad,Pcbnew,7.0.11+dfsg-1build4*%
%TF.CreationDate,2024-07-15T15:28:05+02:00*%
%TF.ProjectId,antmicro-poe-to-usbc-pd-adapter,616e746d-6963-4726-9f2d-706f652d746f,rev?*%
%TF.SameCoordinates,Original*%
%TF.FileFunction,Copper,L2,Bot*%
%TF.FilePolarity,Positive*%
%FSLAX46Y46*%
G04 Gerber Fmt 4.6, Leading zero omitted, Abs format (unit mm)*
G04 Created by KiCad (PCBNEW 7.0.11+dfsg-1build4) date 2024-07-15 15:28:05 commit  463866a *
%MOMM*%
%LPD*%
G01*
G04 APERTURE LIST*
%TA.AperFunction,ComponentPad*%
%ADD10C,1.397000*%
%TD*%
%TA.AperFunction,ComponentPad*%
%ADD11C,1.524000*%
%TD*%
%TA.AperFunction,ComponentPad*%
%ADD12C,2.100000*%
%TD*%
%TA.AperFunction,ComponentPad*%
%ADD13C,2.108200*%
%TD*%
%TA.AperFunction,ComponentPad*%
%ADD14C,5.400000*%
%TD*%
%TA.AperFunction,ComponentPad*%
%ADD15C,2.030000*%
%TD*%
%TA.AperFunction,ComponentPad*%
%ADD16C,2.590000*%
%TD*%
%TA.AperFunction,ComponentPad*%
%ADD17C,0.450000*%
%TD*%
%TA.AperFunction,ComponentPad*%
%ADD18C,0.400000*%
%TD*%
%TA.AperFunction,ComponentPad*%
%ADD19O,2.100000X1.050000*%
%TD*%
%TA.AperFunction,ComponentPad*%
%ADD20O,2.000000X1.000000*%
%TD*%
G04 APERTURE END LIST*
D10*
%TO.P,J1,1,P1*%
%TO.N,/P1*%
X77210000Y-52001000D03*
%TO.P,J1,2,P2*%
%TO.N,/P2*%
X74671000Y-53270000D03*
%TO.P,J1,3,P3*%
%TO.N,/P3*%
X77210000Y-54540000D03*
%TO.P,J1,4,P4*%
%TO.N,/P4*%
X74671000Y-55810000D03*
%TO.P,J1,5,P5*%
%TO.N,/P5*%
X77210000Y-57079000D03*
%TO.P,J1,6,P6*%
%TO.N,/P6*%
X74671000Y-58350000D03*
%TO.P,J1,7,P7*%
%TO.N,/P7*%
X77210000Y-59619000D03*
%TO.P,J1,8,P8*%
%TO.N,/P8*%
X74671000Y-60891000D03*
%TO.P,J1,9,P9*%
%TO.N,/P9*%
X77210000Y-62160000D03*
%TO.P,J1,10,P10*%
%TO.N,/P10*%
X74671000Y-63430000D03*
%TO.P,J1,11,VC1*%
%TO.N,/POE.VC1*%
X72132000Y-52001000D03*
%TO.P,J1,12,VC2*%
%TO.N,/POE.VC2*%
X70871000Y-54540000D03*
%TO.P,J1,13,VC3*%
%TO.N,/POE.VC3*%
X70871000Y-60891000D03*
%TO.P,J1,14,VC4*%
%TO.N,/POE.VC4*%
X72140000Y-63430000D03*
D11*
%TO.P,J1,15,LED_GRN+*%
%TO.N,unconnected-(J1-LED_GRN+-Pad15)*%
X64252000Y-51074000D03*
%TO.P,J1,16,LED_GRN-*%
%TO.N,unconnected-(J1-LED_GRN--Pad16)*%
X64252000Y-53615000D03*
%TO.P,J1,17,LED_YEL+*%
%TO.N,unconnected-(J1-LED_YEL+-Pad17)*%
X64252000Y-61815000D03*
%TO.P,J1,18,LED_YEL-*%
%TO.N,unconnected-(J1-LED_YEL--Pad18)*%
X64252000Y-64356000D03*
D12*
%TO.P,J1,19,SHIELD*%
%TO.N,Net-(J1-SHIELD-Pad19)*%
X71360000Y-49865000D03*
D13*
%TO.P,J1,20,SHIELD*%
X71360000Y-65564000D03*
%TD*%
D14*
%TO.P,REF\u002A\u002A,1*%
%TO.N,N/C*%
X150840000Y-46200000D03*
%TD*%
%TO.P,REF\u002A\u002A,1*%
%TO.N,N/C*%
X60010000Y-94060000D03*
%TD*%
D15*
%TO.P,U4,1,VIN+*%
%TO.N,/VDD*%
X62130000Y-71180000D03*
%TO.P,U4,2,!ON*%
%TO.N,Net-(Q1-D)*%
X62130000Y-78800000D03*
%TO.P,U4,3,VIN-*%
%TO.N,GNDD*%
X62130000Y-86420000D03*
D16*
%TO.P,U4,4,VOUT-*%
%TO.N,GND*%
X112930000Y-86420000D03*
D15*
%TO.P,U4,5,SENSE-*%
X112930000Y-82610000D03*
%TO.P,U4,6,TRIM*%
%TO.N,Net-(U4-TRIM)*%
X112930000Y-78800000D03*
%TO.P,U4,7,SENSE+*%
%TO.N,+28V*%
X112930000Y-74990000D03*
D16*
%TO.P,U4,8,VOUT+*%
X112930000Y-71180000D03*
%TD*%
D14*
%TO.P,REF\u002A\u002A,1*%
%TO.N,N/C*%
X150840000Y-94050000D03*
%TD*%
D17*
%TO.P,U6,57,DRAIN2*%
%TO.N,/DRAIN2*%
X98339000Y-50823000D03*
X98339000Y-51700000D03*
X98339000Y-52574000D03*
X99289000Y-50823000D03*
X99289000Y-51700000D03*
X99289000Y-52573000D03*
%TO.P,U6,58,DRAIN1*%
%TO.N,/DRAIN1*%
X98339000Y-53748000D03*
X98339000Y-54625000D03*
X98339000Y-55500000D03*
X99289000Y-53748000D03*
X99289000Y-54625000D03*
X99289000Y-55499000D03*
%TO.P,U6,59,GND_EP*%
%TO.N,GND*%
X100538000Y-54472000D03*
X100540000Y-51829000D03*
X100540000Y-53150000D03*
X101738000Y-50646000D03*
X101738000Y-51823000D03*
X101738000Y-54472000D03*
X101738000Y-55646000D03*
X101740000Y-53150000D03*
X102938000Y-51823000D03*
X102938000Y-53149000D03*
X102938000Y-54472000D03*
%TD*%
D14*
%TO.P,REF\u002A\u002A,1*%
%TO.N,N/C*%
X60285000Y-46210000D03*
%TD*%
D18*
%TO.P,U2,9,GND*%
%TO.N,GND*%
X126625000Y-82490000D03*
X125355000Y-82490000D03*
X126625000Y-83790000D03*
X125355000Y-83790000D03*
%TD*%
D19*
%TO.P,J3,SH,SH*%
%TO.N,Net-(FB1-Pad1)*%
X147309000Y-79661000D03*
D20*
X151490000Y-79661000D03*
D19*
X147309000Y-71020000D03*
D20*
X151490000Y-71020000D03*
%TD*%
D10*
%TO.P,J2,1,P1*%
%TO.N,/P1*%
X134115000Y-64228000D03*
%TO.P,J2,2,P2*%
%TO.N,/P2*%
X136654000Y-62959000D03*
%TO.P,J2,3,P3*%
%TO.N,/P3*%
X134115000Y-61689000D03*
%TO.P,J2,4,P4*%
%TO.N,/P4*%
X136654000Y-60419000D03*
%TO.P,J2,5,P5*%
%TO.N,/P5*%
X134115000Y-59150000D03*
%TO.P,J2,6,P6*%
%TO.N,/P6*%
X136654000Y-57879000D03*
%TO.P,J2,7,P7*%
%TO.N,/P7*%
X134115000Y-56610000D03*
%TO.P,J2,8,P8*%
%TO.N,/P8*%
X136654000Y-55338000D03*
%TO.P,J2,9,P9*%
%TO.N,/P9*%
X134115000Y-54069000D03*
%TO.P,J2,10,P10*%
%TO.N,/P10*%
X136654000Y-52799000D03*
%TO.P,J2,11,VC1*%
%TO.N,unconnected-(J2-VC1-Pad11)*%
X139193000Y-64228000D03*
%TO.P,J2,12,VC2*%
%TO.N,unconnected-(J2-VC2-Pad12)*%
X140454000Y-61689000D03*
%TO.P,J2,13,VC3*%
%TO.N,unconnected-(J2-VC3-Pad13)*%
X140454000Y-55338000D03*
%TO.P,J2,14,VC4*%
%TO.N,unconnected-(J2-VC4-Pad14)*%
X139185000Y-52799000D03*
D11*
%TO.P,J2,15,LED_GRN+*%
%TO.N,unconnected-(J2-LED_GRN+-Pad15)*%
X147073000Y-65155000D03*
%TO.P,J2,16,LED_GRN-*%
%TO.N,unconnected-(J2-LED_GRN--Pad16)*%
X147073000Y-62614000D03*
%TO.P,J2,17,LED_YEL+*%
%TO.N,unconnected-(J2-LED_YEL+-Pad17)*%
X147073000Y-54414000D03*
%TO.P,J2,18,LED_YEL-*%
%TO.N,unconnected-(J2-LED_YEL--Pad18)*%
X147073000Y-51873000D03*
D12*
%TO.P,J2,19,SHIELD*%
%TO.N,Net-(J2-SHIELD-Pad19)*%
X139965000Y-66364000D03*
D13*
%TO.P,J2,20,SHIELD*%
X139965000Y-50665000D03*
%TD*%
D18*
%TO.P,U7,9,GND*%
%TO.N,GND*%
X116420000Y-56610000D03*
X117690000Y-56610000D03*
X116420000Y-55310000D03*
X117690000Y-55310000D03*
%TD*%
M02*
