%TF.GenerationSoftware,KiCad,Pcbnew,7.0.11+dfsg-1build4*%
%TF.CreationDate,2024-07-19T16:51:48+02:00*%
%TF.ProjectId,antmicro-poe-to-usbc-pd-adapter,616e746d-6963-4726-9f2d-706f652d746f,rev?*%
%TF.SameCoordinates,Original*%
%TF.FileFunction,Plated,1,4,PTH,Mixed*%
%TF.FilePolarity,Positive*%
%FSLAX46Y46*%
G04 Gerber Fmt 4.6, Leading zero omitted, Abs format (unit mm)*
G04 Created by KiCad (PCBNEW 7.0.11+dfsg-1build4) date 2024-07-19 16:51:48 commit  9a9195e *
%MOMM*%
%LPD*%
G01*
G04 APERTURE LIST*
%TA.AperFunction,ComponentDrill*%
%ADD10C,0.100000*%
%TD*%
%TA.AperFunction,ComponentDrill*%
%ADD11C,0.200000*%
%TD*%
%TA.AperFunction,ViaDrill*%
%ADD12C,0.300000*%
%TD*%
G04 aperture for slot hole*
%TA.AperFunction,ComponentDrill*%
%ADD13C,0.600000*%
%TD*%
%TA.AperFunction,ComponentDrill*%
%ADD14C,0.889000*%
%TD*%
%TA.AperFunction,ComponentDrill*%
%ADD15C,0.900000*%
%TD*%
%TA.AperFunction,ComponentDrill*%
%ADD16C,1.016000*%
%TD*%
%TA.AperFunction,ComponentDrill*%
%ADD17C,1.020000*%
%TD*%
%TA.AperFunction,ComponentDrill*%
%ADD18C,1.570000*%
%TD*%
%TA.AperFunction,ComponentDrill*%
%ADD19C,1.600000*%
%TD*%
%TA.AperFunction,ComponentDrill*%
%ADD20C,1.600200*%
%TD*%
%TA.AperFunction,ComponentDrill*%
%ADD21C,2.700000*%
%TD*%
G04 APERTURE END LIST*
D10*
%TO.C,U6*%
X205247000Y-147599000D03*
X205424000Y-150048000D03*
X205424000Y-150998000D03*
X206301000Y-150048000D03*
X206301000Y-150998000D03*
X206424000Y-146399000D03*
X206424000Y-147599000D03*
X206430000Y-148797000D03*
X207174000Y-150048000D03*
X207175000Y-150998000D03*
X207750000Y-146399000D03*
X207751000Y-147597000D03*
X207751000Y-148797000D03*
X208349000Y-150048000D03*
X208349000Y-150998000D03*
X209073000Y-146399000D03*
X209073000Y-147599000D03*
X209073000Y-148799000D03*
X209226000Y-150048000D03*
X209226000Y-150998000D03*
X210100000Y-150048000D03*
X210101000Y-150998000D03*
X210247000Y-147599000D03*
D11*
%TO.C,U7*%
X192165000Y-148860000D03*
X192165000Y-150130000D03*
%TO.C,U2*%
X192670000Y-168240000D03*
X192670000Y-169540000D03*
%TO.C,U7*%
X193465000Y-148860000D03*
X193465000Y-150130000D03*
%TO.C,U2*%
X193940000Y-168240000D03*
X193940000Y-169540000D03*
%TD*%
D12*
X190400000Y-175600000D03*
X190908334Y-144500000D03*
X195900000Y-171600000D03*
X198208334Y-144200000D03*
X198300000Y-165400000D03*
X206300000Y-170900000D03*
D13*
%TO.C,J3*%
X233769000Y-151759000D02*
X232669000Y-151759000D01*
X233769000Y-160400000D02*
X232669000Y-160400000D01*
X237800000Y-151759000D02*
X237000000Y-151759000D01*
X237800000Y-160400000D02*
X237000000Y-160400000D01*
D14*
%TO.C,J1*%
X142095000Y-136442000D03*
X142095000Y-142793000D03*
X143356000Y-133903000D03*
X143364000Y-145332000D03*
X145895000Y-135172000D03*
X145895000Y-137712000D03*
X145895000Y-140252000D03*
X145895000Y-142793000D03*
X145895000Y-145332000D03*
X148434000Y-133903000D03*
X148434000Y-136442000D03*
X148434000Y-138981000D03*
X148434000Y-141521000D03*
X148434000Y-144062000D03*
D15*
%TO.C,J2*%
X219829000Y-136245000D03*
X219829000Y-138785000D03*
X219829000Y-141325000D03*
X219829000Y-143865000D03*
X219829000Y-146405000D03*
X222370000Y-134975000D03*
X222370000Y-137514000D03*
X222370000Y-140054000D03*
X222370000Y-142595000D03*
X222370000Y-145135000D03*
D16*
%TO.C,J1*%
X135476000Y-132976000D03*
X135476000Y-135517000D03*
X135476000Y-143717000D03*
X135476000Y-146258000D03*
D17*
%TO.C,U4*%
X133220000Y-153480000D03*
X133220000Y-161100000D03*
X133220000Y-168720000D03*
X184020000Y-157290000D03*
X184020000Y-161100000D03*
X184020000Y-164910000D03*
%TO.C,J2*%
X232800000Y-134059000D03*
X232800000Y-136600000D03*
X232800000Y-144780000D03*
X232800000Y-147320000D03*
D18*
%TO.C,U4*%
X184020000Y-153480000D03*
X184020000Y-168720000D03*
D19*
%TO.C,J1*%
X142584000Y-131767000D03*
%TO.C,J2*%
X225671000Y-132943000D03*
X225671000Y-148435000D03*
D20*
%TO.C,J1*%
X142584000Y-147466000D03*
D21*
%TO.C,REF\u002A\u002A*%
X131500000Y-128400000D03*
X131500000Y-176800000D03*
X237800000Y-128400000D03*
X237800000Y-177000000D03*
M02*
