%TF.GenerationSoftware,KiCad,Pcbnew,7.0.11+dfsg-1build4*%
%TF.CreationDate,2024-07-15T15:28:05+02:00*%
%TF.ProjectId,antmicro-poe-to-usbc-pd-adapter,616e746d-6963-4726-9f2d-706f652d746f,rev?*%
%TF.SameCoordinates,Original*%
%TF.FileFunction,Plated,1,2,PTH,Mixed*%
%TF.FilePolarity,Positive*%
%FSLAX46Y46*%
G04 Gerber Fmt 4.6, Leading zero omitted, Abs format (unit mm)*
G04 Created by KiCad (PCBNEW 7.0.11+dfsg-1build4) date 2024-07-15 15:28:05 commit  463866a *
%MOMM*%
%LPD*%
G01*
G04 APERTURE LIST*
%TA.AperFunction,ComponentDrill*%
%ADD10C,0.100000*%
%TD*%
%TA.AperFunction,ComponentDrill*%
%ADD11C,0.200000*%
%TD*%
G04 aperture for slot hole*
%TA.AperFunction,ComponentDrill*%
%ADD12C,0.600000*%
%TD*%
%TA.AperFunction,ComponentDrill*%
%ADD13C,0.889000*%
%TD*%
%TA.AperFunction,ComponentDrill*%
%ADD14C,1.016000*%
%TD*%
%TA.AperFunction,ComponentDrill*%
%ADD15C,1.020000*%
%TD*%
%TA.AperFunction,ComponentDrill*%
%ADD16C,1.570000*%
%TD*%
%TA.AperFunction,ComponentDrill*%
%ADD17C,1.600000*%
%TD*%
%TA.AperFunction,ComponentDrill*%
%ADD18C,1.600200*%
%TD*%
%TA.AperFunction,ComponentDrill*%
%ADD19C,2.700000*%
%TD*%
G04 APERTURE END LIST*
D10*
%TO.C,U6*%
X98339000Y-50823000D03*
X98339000Y-51700000D03*
X98339000Y-52574000D03*
X98339000Y-53748000D03*
X98339000Y-54625000D03*
X98339000Y-55500000D03*
X99289000Y-50823000D03*
X99289000Y-51700000D03*
X99289000Y-52573000D03*
X99289000Y-53748000D03*
X99289000Y-54625000D03*
X99289000Y-55499000D03*
X100538000Y-54472000D03*
X100540000Y-51829000D03*
X100540000Y-53150000D03*
X101738000Y-50646000D03*
X101738000Y-51823000D03*
X101738000Y-54472000D03*
X101738000Y-55646000D03*
X101740000Y-53150000D03*
X102938000Y-51823000D03*
X102938000Y-53149000D03*
X102938000Y-54472000D03*
D11*
%TO.C,U7*%
X116420000Y-55310000D03*
X116420000Y-56610000D03*
X117690000Y-55310000D03*
X117690000Y-56610000D03*
%TO.C,U2*%
X125355000Y-82490000D03*
X125355000Y-83790000D03*
X126625000Y-82490000D03*
X126625000Y-83790000D03*
D12*
%TO.C,J3*%
X147859000Y-71020000D02*
X146759000Y-71020000D01*
X147859000Y-79661000D02*
X146759000Y-79661000D01*
X151890000Y-71020000D02*
X151090000Y-71020000D01*
X151890000Y-79661000D02*
X151090000Y-79661000D01*
D13*
%TO.C,J1*%
X70871000Y-54540000D03*
X70871000Y-60891000D03*
X72132000Y-52001000D03*
X72140000Y-63430000D03*
X74671000Y-53270000D03*
X74671000Y-55810000D03*
X74671000Y-58350000D03*
X74671000Y-60891000D03*
X74671000Y-63430000D03*
X77210000Y-52001000D03*
X77210000Y-54540000D03*
X77210000Y-57079000D03*
X77210000Y-59619000D03*
X77210000Y-62160000D03*
%TO.C,J2*%
X134115000Y-54069000D03*
X134115000Y-56610000D03*
X134115000Y-59150000D03*
X134115000Y-61689000D03*
X134115000Y-64228000D03*
X136654000Y-52799000D03*
X136654000Y-55338000D03*
X136654000Y-57879000D03*
X136654000Y-60419000D03*
X136654000Y-62959000D03*
X139185000Y-52799000D03*
X139193000Y-64228000D03*
X140454000Y-55338000D03*
X140454000Y-61689000D03*
D14*
%TO.C,J1*%
X64252000Y-51074000D03*
X64252000Y-53615000D03*
X64252000Y-61815000D03*
X64252000Y-64356000D03*
%TO.C,J2*%
X147073000Y-51873000D03*
X147073000Y-54414000D03*
X147073000Y-62614000D03*
X147073000Y-65155000D03*
D15*
%TO.C,U4*%
X62130000Y-71180000D03*
X62130000Y-78800000D03*
X62130000Y-86420000D03*
X112930000Y-74990000D03*
X112930000Y-78800000D03*
X112930000Y-82610000D03*
D16*
X112930000Y-71180000D03*
X112930000Y-86420000D03*
D17*
%TO.C,J1*%
X71360000Y-49865000D03*
%TO.C,J2*%
X139965000Y-66364000D03*
D18*
%TO.C,J1*%
X71360000Y-65564000D03*
%TO.C,J2*%
X139965000Y-50665000D03*
D19*
%TO.C,REF\u002A\u002A*%
X60010000Y-94060000D03*
X60285000Y-46210000D03*
X150840000Y-46200000D03*
X150840000Y-94050000D03*
M02*
